<svg id="e5c91358-b7c2-4121-8366-d3fc05a1eb8b" data-name="圖層 1" xmlns="http://www.w3.org/2000/svg" viewBox="0 0 1500 200"><defs><style>.a17d44e9-05f5-405e-9695-e3a8bb2d80c3,.b9f305c8-cd3b-49b8-be72-be67cacac26e{fill:#2c3e50;}.b9f305c8-cd3b-49b8-be72-be67cacac26e{stroke:#2c3e50;stroke-miterlimit:10;stroke-width:2px;}.a22ddde9-e764-4760-984f-7eaa13da0f49{fill:none;}</style></defs><path id="b6269ae0-a92a-476c-b9d1-d8800c2b60d4" data-name="icon" class="b9f305c8-cd3b-49b8-be72-be67cacac26e" d="M152.23,155.14H122.39a2.91,2.91,0,0,1,0-5.82h26.93V50.68H92.4V60.92a2.91,2.91,0,0,1-5.82,0V47.77a2.91,2.91,0,0,1,2.91-2.91h62.74a2.91,2.91,0,0,1,2.91,2.91h0V152.23a2.91,2.91,0,0,1-2.91,2.91Zm-62.74,0H68.64a2.91,2.91,0,0,1,0-5.82H86.58V136H47.77a2.91,2.91,0,0,1-2.91-2.91h0V73.37a2.91,2.91,0,0,1,2.91-2.91h83.45a2.9,2.9,0,0,1,2.9,2.9h0v59.69a2.9,2.9,0,0,1-2.89,2.91H92.4v13.35h17.95a2.91,2.91,0,1,1,0,5.82H89.49Zm0-25h38.82V76.27H50.68v53.88Zm22.86-18.55H66.63a2.91,2.91,0,0,1,0-5.82h45.72a2.91,2.91,0,1,1,0,5.82Zm-10.29-11H76.92a2.91,2.91,0,1,1-.34-5.81,1.93,1.93,0,0,1,.34,0h25.14a2.91,2.91,0,1,1,.34,5.81Z"/><path class="a17d44e9-05f5-405e-9695-e3a8bb2d80c3" d="M261.58,127.59a6.19,6.19,0,0,1-1.91-4.53V63.24A4.62,4.62,0,0,1,261,59.92a4.36,4.36,0,0,1,3.27-1.41A4.82,4.82,0,0,1,269,63.24v55.69a1.07,1.07,0,0,0,1.21,1.21h31.63a4.82,4.82,0,0,1,4.73,4.74,4.39,4.39,0,0,1-1.41,3.27,4.66,4.66,0,0,1-3.32,1.36H266.11A6.2,6.2,0,0,1,261.58,127.59Z"/><path class="a17d44e9-05f5-405e-9695-e3a8bb2d80c3" d="M316.62,66.11a5,5,0,0,1-1.56-3.67V62a5.33,5.33,0,0,1,5.23-5.23h.61A5.33,5.33,0,0,1,326.14,62v.41a5.33,5.33,0,0,1-5.24,5.23h-.61A5,5,0,0,1,316.62,66.11Zm.6,62.54a4.46,4.46,0,0,1-1.36-3.27V82.17a4.66,4.66,0,0,1,1.36-3.32,4.4,4.4,0,0,1,3.28-1.41,4.65,4.65,0,0,1,4.73,4.73v43.21a4.36,4.36,0,0,1-1.41,3.27A4.62,4.62,0,0,1,320.5,130,4.46,4.46,0,0,1,317.22,128.65Z"/><path class="a17d44e9-05f5-405e-9695-e3a8bb2d80c3" d="M342.3,128.65a4.42,4.42,0,0,1-1.36-3.27V82.17a4.62,4.62,0,0,1,1.36-3.32,4.39,4.39,0,0,1,3.27-1.41,4.82,4.82,0,0,1,4.74,4.73V86a32.38,32.38,0,0,1,8.56-6.75,21.45,21.45,0,0,1,10.07-2.31,18.15,18.15,0,0,1,9.77,2.62,17.12,17.12,0,0,1,6.19,7.15,23.11,23.11,0,0,1,2.17,10.07v28.6a4.4,4.4,0,0,1-1.41,3.27,4.64,4.64,0,0,1-3.33,1.36,4.64,4.64,0,0,1-4.63-4.63V97.79q0-12.2-11-12.19A16,16,0,0,0,358,88a31.7,31.7,0,0,0-7.7,7.15v30.21a4.36,4.36,0,0,1-1.41,3.27,4.62,4.62,0,0,1-3.33,1.36A4.46,4.46,0,0,1,342.3,128.65Z"/><path class="a17d44e9-05f5-405e-9695-e3a8bb2d80c3" d="M409.83,127.9a17.53,17.53,0,0,1-6.25-7.15,22.62,22.62,0,0,1-2.21-10.08V82.07a4.35,4.35,0,0,1,1.41-3.27,4.64,4.64,0,0,1,3.32-1.36,4.64,4.64,0,0,1,4.63,4.63v27.6q0,12.18,11,12.18a16.13,16.13,0,0,0,8.71-2.41,32.08,32.08,0,0,0,7.7-7.15V82.07a4.36,4.36,0,0,1,1.42-3.27,4.62,4.62,0,0,1,3.32-1.36,4.64,4.64,0,0,1,4.63,4.63v43.21a4.62,4.62,0,0,1-1.36,3.32,4.38,4.38,0,0,1-3.27,1.41,4.83,4.83,0,0,1-4.74-4.73v-3.83a32.09,32.09,0,0,1-8.55,6.75,21.52,21.52,0,0,1-10.08,2.31A18,18,0,0,1,409.83,127.9Z"/><path class="a17d44e9-05f5-405e-9695-e3a8bb2d80c3" d="M460.23,128.7a5,5,0,0,1-1.16-3.42,5.28,5.28,0,0,1,1-2.92L475.69,104,460.08,85.1a4.81,4.81,0,0,1-1.11-3,4.4,4.4,0,0,1,1.36-3.32,4.57,4.57,0,0,1,3.27-1.31,4.41,4.41,0,0,1,3.73,1.71l14,17.33,13.9-17.33a4.49,4.49,0,0,1,3.62-1.71,4.78,4.78,0,0,1,3.38,1.26,4.17,4.17,0,0,1,1.36,3.17,5.28,5.28,0,0,1-1,2.92l-15.91,18.63,15.71,18.84a4.53,4.53,0,0,1,1.11,3,4.74,4.74,0,0,1-1.31,3.32,4.48,4.48,0,0,1-3.43,1.41,4.37,4.37,0,0,1-3.62-1.81l-14.2-17L467.53,128a4.78,4.78,0,0,1-4,2A4.14,4.14,0,0,1,460.23,128.7Z"/><path class="a17d44e9-05f5-405e-9695-e3a8bb2d80c3" d="M593,104.33v29.91c0,3.16-1.38,4.73-4.13,4.73a4.11,4.11,0,0,1-3.18-1.15,5.23,5.23,0,0,1-1.05-3.58v-29.3q-22.67,1.41-35.35,1.81c-2.62.07-3.93-1.38-3.93-4.33a3.53,3.53,0,0,1,1.91-3.53q1.41-.7,10.88-.7,8.76,0,17-.51L579.92,93l.61-.3a182.62,182.62,0,0,0-20.65-13.19q-6.24-3.22-6.24-5.44a4,4,0,0,1,1.06-3,4.75,4.75,0,0,1,3.37-1,7.36,7.36,0,0,1,3.63,1.41l4.43,2.42,3.22,1.91,10.27-14.5-11.68,1-16,.71q-4,.11-4-4.13,0-3.93,6.14-3.93h4.63q36.76-1.41,57.21-6a39.27,39.27,0,0,1,6.24-1.21c3.09,0,4.63,1.55,4.63,4.63a3.5,3.5,0,0,1-2.31,3.23,20.71,20.71,0,0,1-4.28,1q-3.18.55-7.3,1.16-12,1.72-23.37,2.72l-14.6,19,1.31.7,9.56,6.65q7.66-8.27,13.8-16.12,5.85-7.35,8.26-7.35,4.63,0,4.63,4.13,0,1.92-6.85,9.67a256.25,256.25,0,0,1-19.53,19.24l-1.21,1.2q18.23-.49,34.24-1.61l-.81-.8-4.73-5.24c-1.54-1.68-2.32-3-2.32-3.93q0-3.31,3.13-3.32c.94,0,2.36.8,4.28,2.42s4.54,4.16,7.9,7.65A78.51,78.51,0,0,1,633.6,101q2.42,3.38,2.42,5c0,2.49-1.45,3.73-4.33,3.73q-2.12,0-4.94-3.63l-3-4.13Q608.82,103.32,593,104.33Zm-22.16,9.77q0,1.41-2.27,4.58a80.36,80.36,0,0,1-6.49,7.71q-8.76,9.36-12.89,9.36a3.7,3.7,0,0,1-2.82-1,4.32,4.32,0,0,1-.91-3.07c0-1.61,1.14-3.18,3.43-4.73a49.82,49.82,0,0,0,12-11.78q3.52-4.74,5.84-4.74Q570.86,110.47,570.86,114.1Zm64.25,16.82q0,4.43-4.33,4.43T616.58,126q-10.07-9.56-10.07-12.48a3.26,3.26,0,0,1,1-2.57,4.52,4.52,0,0,1,3.07-.86c1.27,0,3.22,1.45,5.84,4.33a58.45,58.45,0,0,0,15.11,12.09Q635.11,128.4,635.11,130.92Z"/><path class="a17d44e9-05f5-405e-9695-e3a8bb2d80c3" d="M648.15,128.65a3.43,3.43,0,0,1-.95-2.67,9.57,9.57,0,0,1,.9-3.62q2.63-6.35,2.93-16c.06-3,1.24-4.43,3.52-4.43a4.17,4.17,0,0,1,2.77.76,3.14,3.14,0,0,1,.85,2.47l-.1,2.72q-1.5,21.64-6.94,21.65A4.38,4.38,0,0,1,648.15,128.65Zm14.76,6.4V96.78L651.33,98a3.46,3.46,0,0,1-3-.86,4.24,4.24,0,0,1-1-3.07,3.08,3.08,0,0,1,2.92-3.32l5-.41h1.21l6.15-9.26a112.55,112.55,0,0,0-12-9.87q-2.72-1.82-2.72-3.83c0-2.48,1.21-3.73,3.63-3.73.8,0,2.08.68,3.83,2l.6.4a94.22,94.22,0,0,0,7.15-14.6c1.07-2.75,2.62-4.13,4.63-4.13q3.93,0,3.93,3.73t-10.57,19l5.43,4.63,7.05-12.18a4,4,0,0,1,3.53-2.12c2.55,0,3.83,1.25,3.83,3.73q0,4.53-16.62,25.78l1.21-.1,9.67-.4.5-.1-1-2.72a8.35,8.35,0,0,1-.5-2.62c0-1.88,1-2.82,2.92-2.82q2,0,4.73,6.75c1.75,4.29,2.62,7,2.62,8.25q0,3.43-3.52,3.43a2.65,2.65,0,0,1-2.12-1.16,7.63,7.63,0,0,1-1.31-3.27l-6.75.8v39.08c0,2.95-1.3,4.43-3.92,4.43S662.91,138,662.91,135.05Zm14.8-10.88-.3-1.41L675,104.83a2.22,2.22,0,0,1,.71-2.21,4.38,4.38,0,0,1,2.72-.71q3,0,4.23,6.75,1.9,11,1.91,13.3,0,3.72-3.73,3.72A3.48,3.48,0,0,1,677.71,124.17Zm2.72,9.57c0-1.28.81-2.45,2.42-3.53q13.89-8.55,15.11-34.54l-8.77.6c-2.48.21-3.72-1-3.72-3.72s3.12-3.93,9.36-3.93l.21-.1a180.17,180.17,0,0,0,5.63-19.64v-.6H687.18q-4,0-4-3.63t4-3.52h18.63V52.37q0-4.93,3.93-4.94t3.93,4.94v8.76h20.54q4.42,0,4.43,3.52t-4.43,3.63H708.83A105.88,105.88,0,0,1,702,88.22l23.07-1.61-3.53-5.34c-1.48-2.22-2.21-3.63-2.21-4.23,0-2,1.17-3,3.52-3q1.6,0,5,4.43a127.34,127.34,0,0,1,8.46,13.09c.6.94,1.1,1.81,1.51,2.62a4.7,4.7,0,0,1,.6,1.91q0,3.53-3.83,3.53-2.11,0-4.63-4.43l-1.51-2.72-7.25.9v31.12q0,3,1.11,3.93c.47.4,1.94.6,4.43.6q3.22,0,3.93-1.2,1-1.81,1.1-6.45a8.66,8.66,0,0,1,1-4.18,3,3,0,0,1,2.77-1.36c2.48,0,3.73,1.28,3.73,3.83a33.78,33.78,0,0,1-1.82,12q-1.81,4.63-12.18,4.64c-4.1,0-6.88-.44-8.36-1.31q-2.62-1.51-2.62-6.15V94.16l-8.66.91h-.5l-.21,5.23q-.71,17.13-8.15,27.6-7.05,10-12.69,10Q680.43,137.87,680.43,133.74Z"/><path class="a17d44e9-05f5-405e-9695-e3a8bb2d80c3" d="M786.08,124q0,3.12-13,8.66-13.29,5.64-17.92,5.64-3.82,0-3.83-4.33c0-2.28,1.91-3.83,5.74-4.63a71,71,0,0,0,20.14-7.66q3.63-2,4.43-2Q786.08,119.64,786.08,124Zm-34.65-10.78c0-2.62,1.11-3.92,3.32-3.92h4l-1.1-48.45q-.1-6,4.43-7.85l6.74-2.52,3.73-1.51a17.11,17.11,0,0,1,3.73-1.31c2.62,0,3.92,1.51,3.92,4.53a2.79,2.79,0,0,1-1.2,2.32l-7,2.92a37.17,37.17,0,0,0-4.64,2.22c-1,.6-1.54,1.2-1.61,1.81l.3,8.86h11.08q3.33,0,3.33,3.83t-3.33,3.72H766.24l.3,11h10.57q3.33,0,3.33,3.83c0,2.42-1.11,3.62-3.33,3.62H766.74l.3,13h34v-27a3,3,0,0,0-.7-2.22,3.38,3.38,0,0,0-2.22-.81h-6.44q-7.15,0-7.15-7.25V50.75c0-2.35,1.2-3.52,3.62-3.52s3.63,1.17,3.63,3.52V54h12.59a5.46,5.46,0,0,1,3.42,1A3.46,3.46,0,0,1,809,57.8c0,2.49-1.55,3.73-4.63,3.73H791.82v7.65a2.58,2.58,0,0,0,2.92,2.92h6.34q7.45,0,7.45,7.36v29.81H826l.3-13H815.58c-2.28,0-3.42-1.2-3.42-3.62s1.14-3.83,3.42-3.83h10.78l.4-11H815.58q-3.42,0-3.42-3.82t3.42-3.73H827l.21-8q.2-3.33-3.53-3.33H815q-3.63,0-3.63-3.93T815,51.16h12.19q4.23,0,6.34,1.71a5.83,5.83,0,0,1,2,5L834,109.27h5c2.35,0,3.52,1.3,3.52,3.92s-1.17,3.73-3.52,3.73h-84.3Q751.44,116.92,751.43,113.19Zm33.14-11.88V87.21q0-3.93,3.82-3.93,3.63,0,3.63,3.93v14.1q0,3.93-3.63,3.93Q784.57,105.24,784.57,101.31Zm56.14,29.61a4.16,4.16,0,0,1,1,2.82q0,4.42-4.53,4.43-6.55,0-18.74-5.64-12-5.44-12-8.56,0-4.12,4.43-4.13a7.33,7.33,0,0,1,3.53,1.41q9.66,5.75,23.56,8.26A4.48,4.48,0,0,1,840.71,130.92Z"/><path class="a17d44e9-05f5-405e-9695-e3a8bb2d80c3" d="M857.88,135.05V59.72q0-4.84,2.17-7t6.9-2h20c2.88,0,5,.67,6.34,2s1.95,3.42,1.81,6.24V75.13q0,4.43-2,6.44c-1.31,1.34-3.37,2-6.19,1.81H865.64v51.67q0,4.13-3.93,4.13T857.88,135.05Zm29.91-74.63q0-3-3.12-3.12H869q-3.12,0-3.32,3.22v3.23h22.15Zm0,13.19V70H865.64v6.85h19Q887.6,76.84,887.79,73.61Zm19,59.42V114.3h-14.4q-1.11,10.58-6.55,16.32-5.64,5.94-11.18,5.94c-2.48,0-3.73-1.28-3.73-3.83,0-1.54,1.35-2.89,4-4q9.06-3.72,10.07-14.4H874.4q-3.93,0-3.93-3.52t3.93-3.43h11.18l.1-7.95-.1-3.13h-7.86q-3.93,0-3.93-3.42t3.93-3.42h44.82c2.62,0,3.92,1.17,3.92,3.52s-1.3,3.32-3.92,3.32h-8.26v11.08h11.78q3.93,0,3.93,3.53t-3.93,3.42H914.28V133c0,2.76-1.24,4.13-3.73,4.13S906.83,135.79,906.83,133Zm0-25.68V96.27h-13.9l.1,4.94-.2,6.14Zm15.1,27.5q0-4.23,4.13-4.23h4.23a4.57,4.57,0,0,0,3.28-1.11,4.25,4.25,0,0,0,1.15-3.22V83.38H912.16q-4.42,0-6.44-2c-1.34-1.31-2-3.41-1.81-6.29V58.91c0-2.88.67-5,2-6.34s3.42-2,6.24-1.92h21.25c3.23,0,5.56.73,7,2.17s2.13,3.74,2.07,6.9V128.2q0,5.84-2.52,8.51T932.1,139h-5.84C923.38,139,921.93,137.6,921.93,134.85Zm12.79-74.33c0-2-1.1-3.08-3.32-3.22h-17q-3.12,0-3.12,3.12v3.33h23.46Zm0,9.47H911.26v3.62c0,2,1,3.09,3.12,3.23h20.34Z"/><path class="a17d44e9-05f5-405e-9695-e3a8bb2d80c3" d="M963.93,85q-5.74-2.61-5.74-5,0-4.23,4.33-4.23,2,0,7.25,2.11c3.42,1.35,5.14,3.09,5.14,5.24,0,3-1.25,4.43-3.73,4.43Q969.77,87.51,963.93,85Zm-5.54,48.34q0-1.61,1.91-6,1-2.12,4.23-12.08l2-6.25,1.21-3.62c.33-1.14.67-2.13,1-3a5.63,5.63,0,0,1,.81-1.56A3.24,3.24,0,0,1,972,99.9q4,0,4,4,0,3.31-6.64,23.77-3.12,10-6.55,10Q958.4,137.67,958.39,133.33Zm7.86-75q-3.74-1.92-3.73-4.33,0-4.23,4.33-4.23,2.52,0,7.45,2.62c3.16,1.74,4.74,3.49,4.74,5.23,0,3-1.38,4.43-4.13,4.43Q973.89,62,966.25,58.31Zm38.16,77c0-2.75,1.35-4.13,4-4.13H1012a3,3,0,0,0,2.41-.91,3.62,3.62,0,0,0,.81-2.51V107.45h-10.37q-4.44,0-6.45-2c-1.34-1.34-2-3.43-1.81-6.25V77.44q0-4.43,2-6.44c1.35-1.35,3.43-2,6.25-1.82h8.26l2.51-9.26H995q-3.23,0-3.73,2.62l-.3,9.46-.3,13.1q-.21,13.7-.71,19.13a87,87,0,0,1-4.73,21.45q-3.42,9.47-8,9.47-4.23,0-4.23-4.53a7.37,7.37,0,0,1,1.61-3.93q7.26-10.47,8.16-33.24l.2-30.91q0-10.49,9.77-10.48h51.36q4.74,0,4.74,3.93t-4.74,3.93H1024l-3,9.26h14.6c3,0,5.1.68,6.45,2s1.94,3.42,1.81,6.24V99.19q0,4.34-2,6.4t-6.25,1.86h-12.59v22.16q0,4.83-2.06,7.25t-6.6,2.52h-4.93C1006.06,139.38,1004.41,138,1004.41,135.35Zm-16.21-4.94q0-1.41,4-5.94A49.09,49.09,0,0,0,999,114.3q1.71-3.42,4-3.42,3.74,0,3.73,3.52,0,3.22-5.94,11.58-6,8.56-8.76,8.56C989.47,134.54,988.2,133.17,988.2,130.41Zm47.74-51.56q0-2.91-3-3H1007q-2.82,0-3,3v5.94h31.93Zm0,18.94V91.24H1004v6.55c0,1.88,1,2.88,3,3h25.89Q1035.72,100.81,1035.94,97.79Zm-.31,27.69q-6.24-8.57-6.24-11,0-3.42,4-3.42c1.74,0,3.19,1.07,4.33,3.22a38.62,38.62,0,0,0,7.65,9.67,12.7,12.7,0,0,1,2.57,3,5.18,5.18,0,0,1,.86,2.47c0,2.88-1.38,4.33-4.13,4.33Q1041.78,133.74,1035.63,125.48Z"/><path class="a17d44e9-05f5-405e-9695-e3a8bb2d80c3" d="M1100.09,123h-15v12.49a4.78,4.78,0,0,1-.8,3.07,3.79,3.79,0,0,1-5,0,4.72,4.72,0,0,1-.8-3.07V123h-14.51q-4.12,0-4.13-3.62t4.13-3.53h14.51v-6.34h-7a7.9,7.9,0,0,1-5.85-2q-2-2-2-5.94V78.85q0-8.05,7.86-8.06h7V64.85h-13.7q-4,0-4-3.62t4-3.63h13.7V50.75a4,4,0,0,1,.8-2.77,4.16,4.16,0,0,1,5,0,4,4,0,0,1,.8,2.77V57.6h14.2q4,0,4,3.63t-4,3.62h-14.2v5.94h7.05q8.05,0,8.06,8.06v22.66a7.78,7.78,0,0,1-2.07,5.84,8.53,8.53,0,0,1-6,2.12h-7.05v6.34h15q4.13,0,4.13,3.53T1100.09,123Zm-29.51-36.25h7.86V77.34H1073a2.14,2.14,0,0,0-2.42,2.42Zm2.42,16.21h5.44V93.05h-7.86v7.55C1070.58,102.15,1071.39,102.92,1073,102.92Zm17.82-25.58h-5.74v9.37h8.16V79.76A2.14,2.14,0,0,0,1090.82,77.34Zm2.42,15.71h-8.16v9.87h5.74a2.6,2.6,0,0,0,1.87-.55,2.47,2.47,0,0,0,.55-1.77Zm58.51,40.59q0,4.43-4,4.43t-11.88-9.57a54,54,0,0,1-6.6-10.72,93.4,93.4,0,0,1-5.18-13.45q-3.93,21.36-17.22,31-4.33,3.22-6.95,3.22a3.55,3.55,0,0,1-2.87-1,4.92,4.92,0,0,1-.86-3.22q0-2.22,3.93-4.33,18.63-10.17,19.54-49.55V78.35q0-4.12,3.72-4.13t3.63,4.83q0,2.82-.3,6.35l-.21,3.32q4.14,26.79,20.75,39.08Q1151.75,131.11,1151.75,133.64Zm-49-51.57q7.35-12.78,10.47-30.11a6.75,6.75,0,0,1,1.46-3.37,3.59,3.59,0,0,1,2.77-1.16q3.83,0,3.83,3.42a16.7,16.7,0,0,1-.91,4.74l-2.92,9.06h27.39q5.64,0,5.64,4.84,0,1.8-4.63,13.19a45.51,45.51,0,0,1-4,8c-1.24,1.84-2.26,2.76-3.07,2.76a4.81,4.81,0,0,1-3-.75,2.82,2.82,0,0,1-1-2.37,6.56,6.56,0,0,1,1-3.32q5.54-10.47,5.54-13.19c0-1.21-.81-1.82-2.42-1.82h-24.07L1110,83.48q-2.22,5.34-4.84,5.34-3.72,0-3.72-3.62A8.47,8.47,0,0,1,1102.71,82.07Z"/><path class="a17d44e9-05f5-405e-9695-e3a8bb2d80c3" d="M1163.84,92.35V83.58a7.22,7.22,0,0,1,1.26-4.53,4.94,4.94,0,0,1,3.67-1.81V58.11q0-7.45,7.56-7.46H1192q7.55,0,7.55,7.46V77.24a5.2,5.2,0,0,1,3.67,1.81,7.19,7.19,0,0,1,1.46,4.53v7c0,2.69-1.1,4-3.32,4s-3.32-1.34-3.32-4V86.71a2.23,2.23,0,0,0-2.52-2.52H1173.1a2.33,2.33,0,0,0-2.62,2.52v5.64c0,2.62-1.1,3.92-3.32,3.92S1163.84,95,1163.84,92.35Zm8.1,45.82a4.23,4.23,0,0,1-1-3V96.68q0-7.16,7.35-7.15H1191q7.24,0,7.25,7.15v33.53c0,2.89-.67,5-2,6.5s-3.43,2.16-6.25,2.16h-3.42a3.82,3.82,0,0,1-2.72-.85,3.49,3.49,0,0,1-.91-2.67q0-3.63,3.53-3.63h1.71a3,3,0,0,0,2.21-.8,3.13,3.13,0,0,0,.81-2.32v-6.75h-13v13.3c0,2.68-1.21,4-3.63,4A3.52,3.52,0,0,1,1171.94,138.17Zm8.61-68.28q0-6.15,6-6.14h6.64V60.42a2.37,2.37,0,0,0-2.61-2.62h-12.69c-1.68,0-2.59.91-2.72,2.72V77.14h5.33Zm10.68,28.9a2.32,2.32,0,0,0-2.62-2.62h-7.75a2.32,2.32,0,0,0-2.62,2.62v3.93h13Zm0,16.62v-6.24h-13v6.24Zm2-45.32h-3.82c-1.61,0-2.42.77-2.42,2.32v4.73h6.24Zm7.26,64c0-2.22,1.1-3.32,3.32-3.32h11.88l-1.81-7.76a8.41,8.41,0,0,1-5.44-1.56,5.55,5.55,0,0,1-1.91-4.58v-6.45a6.24,6.24,0,0,1,1.76-4.78,7.27,7.27,0,0,1,5.19-1.66H1243q7,0,7,6.24v6.35q0,6.45-7.35,6.44l-1.71,7.76h10.78c2.21,0,3.32,1.1,3.32,3.32s-1.11,3.32-3.32,3.32h-47.94C1201.6,137.46,1200.5,136.36,1200.5,134.14Zm4.53-35.5a3.08,3.08,0,0,1-.91-2.37c0-2.21,1.17-3.32,3.53-3.32h44.21c2.14,0,3.22,1.11,3.22,3.32s-1.08,3.23-3.22,3.23h-44.21A3.66,3.66,0,0,1,1205,98.64Zm2.16-12.24q-2-1.91-1.66-6.14V64c0-3,.64-5.1,1.91-6.45s3.33-1.91,6.15-1.71h5.23v-5a3.38,3.38,0,0,1,.76-2.46,3.05,3.05,0,0,1,2.27-.76c2.08,0,3.12,1.08,3.12,3.22v5h6.74v-5c0-2.14,1-3.22,3.13-3.22s3,1.08,3,3.22v5h5.84c3,0,5.09.64,6.39,1.91s1.9,3.36,1.77,6.25V80.26c0,2.89-.66,5-2,6.35s-3.37,1.91-6.19,1.71h-30.11Q1209.15,88.32,1207.19,86.4Zm11.73-24.17h-4.12c-1.41,0-2.19.78-2.32,2.32v4.53h6.44Zm0,12.59h-6.44v4.84A2.1,2.1,0,0,0,1214.8,82h4.12Zm23.67,40v-2.51a2.06,2.06,0,0,0-2.21-2.32h-24.17c-1.48,0-2.22.77-2.22,2.32v2.51a2.12,2.12,0,0,0,2.22,2.32h24.17C1241.72,117.12,1242.46,116.35,1242.59,114.8Zm-8.46,16,1.41-7.46v-.3h-14.7l1.61,7.05.1.71Zm-2.31-61.74V62.23h-7v6.85Zm0,12.89V74.82h-7V82Zm13-17.42a2.06,2.06,0,0,0-2.32-2.32h-4.73v6.85h7Zm0,15.11V74.82h-7V82h4.73A2,2,0,0,0,1244.81,79.66Z"/><rect class="a22ddde9-e764-4760-984f-7eaa13da0f49" width="1500" height="200"/></svg>