<svg id="b4322c88-a9af-47b1-85ca-350054351d0c" data-name="圖層 1" xmlns="http://www.w3.org/2000/svg" viewBox="0 0 1500 200"><defs><style>.a0423e0d-9483-4375-b067-5f15715fc238,.eb76293c-668b-4b71-a401-c7df88acdb9a{fill:#2c3e50;}.a0423e0d-9483-4375-b067-5f15715fc238{stroke:#2c3e50;stroke-miterlimit:10;stroke-width:2px;}.b6305624-fd52-4cc5-b850-c700718890e1{fill:none;}</style></defs><path id="a38ab736-420f-4718-a1df-bd87d4bda3b8" data-name="icon" class="a0423e0d-9483-4375-b067-5f15715fc238" d="M152.23,155.14H122.39a2.91,2.91,0,0,1,0-5.82h26.93V50.68H92.4V60.92a2.91,2.91,0,0,1-5.82,0V47.77a2.91,2.91,0,0,1,2.91-2.91h62.74a2.91,2.91,0,0,1,2.91,2.91h0V152.23a2.91,2.91,0,0,1-2.91,2.91Zm-62.74,0H68.64a2.91,2.91,0,0,1,0-5.82H86.58V136H47.77a2.91,2.91,0,0,1-2.91-2.91h0V73.37a2.91,2.91,0,0,1,2.91-2.91h83.45a2.9,2.9,0,0,1,2.9,2.9h0v59.69a2.9,2.9,0,0,1-2.89,2.91H92.4v13.35h17.95a2.91,2.91,0,1,1,0,5.82H89.49Zm0-25h38.82V76.27H50.68v53.88Zm22.86-18.55H66.63a2.91,2.91,0,0,1,0-5.82h45.72a2.91,2.91,0,1,1,0,5.82Zm-10.29-11H76.92a2.91,2.91,0,1,1-.34-5.81,1.93,1.93,0,0,1,.34,0h25.14a2.91,2.91,0,1,1,.34,5.81Z"/><path class="eb76293c-668b-4b71-a401-c7df88acdb9a" d="M255.94,129.91q0-3.93,4.73-3.93h56.1l1.51-15.1h-38q-9,0-9-6.15a23,23,0,0,1,.91-5.74,365.92,365.92,0,0,0,7.85-36.86l.3-1.51H263.8q-4.74,0-4.74-3.82t4.74-3.93h75.43q4.83,0,4.83,3.93t-4.83,3.82H289l-.3,1.82-2.52,12H321a9.6,9.6,0,0,1,6.24,2.12,5.13,5.13,0,0,1,2,4.63L324.93,126h17.42q4.83,0,4.83,3.93t-4.83,3.93H260.67Q255.94,133.84,255.94,129.91ZM320.7,85.8q.41-3.83-4.23-3.83H284.64l-3.42,14.2c-.14.61-.34,1.38-.6,2.32a8.66,8.66,0,0,0-.41,2.22q0,2.61,3.33,2.61h35.34Z"/><path class="eb76293c-668b-4b71-a401-c7df88acdb9a" d="M406.6,130.72l-38.67,4.43-3.12.2c-2.76.2-4.13-1.14-4.13-4q0-3.82,5.64-4.13L384,126v-7.15H367.53q-3.73,0-3.73-3.42c0-2.28,1.24-3.43,3.73-3.43H384v-5.43H373q-3.93,0-6-1.87a7,7,0,0,1-2-5.38V84a7.39,7.39,0,0,1,2-5.54c1.31-1.28,3.24-1.91,5.79-1.91H384V71.4H364.51c-2.49,0-3.73-1.17-3.73-3.53s1.24-3.42,3.73-3.42H384V58.71l-2.72.3-14.09,1c-2.76.2-4.13-1-4.13-3.73a3.28,3.28,0,0,1,2.41-3.42h.1l4.94-.2q21.94-.91,32.63-4.33l1.91-.2q4.23-.41,4.23,4.12,0,2.82-5.34,3.93-1.41.3-9.16,1.41l-3.73.51v6.34h17.43q3.83,0,3.82,3.53a3.37,3.37,0,0,1-.9,2.56,4.18,4.18,0,0,1-2.92.86H391.09v5.14h11.79q7.75,0,7.75,7.25v15.3q0,7.45-8,7.46H391.09V112h16.32a4.29,4.29,0,0,1,3,.81,4.42,4.42,0,0,1,0,5.24,4.29,4.29,0,0,1-3,.8H391.09v6.75l15.21-1.51a2.74,2.74,0,0,1,2.27.76,3.47,3.47,0,0,1,.85,2.56A3.07,3.07,0,0,1,406.6,130.72Zm-34.24-42.3H384V82.78h-9.26c-1.61,0-2.42.84-2.42,2.52Zm2.42,11.88H384V94.46H372.36v3.43A2.13,2.13,0,0,0,374.78,100.3Zm28-16.92a2.47,2.47,0,0,0-1.87-.6h-9.77v5.64h12.19V85.3A2.86,2.86,0,0,0,402.73,83.38Zm.55,11.08H391.09v5.84h9.77a2.13,2.13,0,0,0,2.42-2.41ZM449.4,77.84l-.8,20.55q-.92,21.45-2.62,29.91a11,11,0,0,1-4.94,7.25q-3.92,2.52-10.57,2.52c-3,0-4.43-1.45-4.43-4.33a3.65,3.65,0,0,1,1.91-3.53q.92-.5,5.34-.8,5.94-.3,6.55-9.17,1.2-15.92,1.71-27.09l.4-11.48q.1-3.72-3.72-3.72h-8.06q-.81,18.63-3.22,29.91-2.73,12.58-7.46,20.54-5.24,8.86-8.76,8.86-3.72,0-3.72-3.93a3.06,3.06,0,0,1,.55-1.66,23.94,23.94,0,0,1,1.76-2.26Q422.12,115,422.82,78h-6.75c-3,0-4.43-1.31-4.43-3.93a3.8,3.8,0,0,1,1.06-3,4.9,4.9,0,0,1,3.37-1H423l.1-9.37c0-4,0-7.08.1-9.16q.11-4.12,3.73-4.13t3.72,4.23l-.1,9.06-.1,9.37h10Q449.71,70.09,449.4,77.84Z"/><path class="eb76293c-668b-4b71-a401-c7df88acdb9a" d="M507.87,129.21c1.44.94,2.16,1.87,2.16,2.82q0,3.61-3.72,3.62-1.32,0-5.64-2.32L496,131.22q-4.23,3-12.59,5.44a52.68,52.68,0,0,1-14.6,2.31q-4.53,0-4.53-3.52c0-2.15,2.35-3.32,7.05-3.53q10.17-.39,16.82-3.62l-11.38-3a13.12,13.12,0,0,1-4.48-1.92,3.27,3.27,0,0,1-1.46-2.71c0-.88.6-2.25,1.81-4.13L474,114.4h-8.66q-3.52,0-3.53-3.22t3.53-3.12H477.4l2.62-4.94h-4.73a10.88,10.88,0,0,1-6.05-1.36,5.23,5.23,0,0,1-2.11-4.48V91.54q0-6.65,8.16-6.14h10.57V81.47h-9.77c-2.88,0-5-.64-6.34-1.91s-1.88-3.33-1.61-6.15V70.09h-3.33q-3.31,0-3.32-3.12,0-2.93,3.32-2.92h3.33V61.13c0-2.89.62-5,1.86-6.35s3.27-1.91,6.09-1.71h9.77V50.65q0-3.72,3.53-3.72t3.52,3.72v2.42h10.37q4.34,0,6.35,1.91c1.34,1.28,1.95,3.33,1.81,6.15v2.92h2.62c2.28,0,3.42,1,3.42,3a2.77,2.77,0,0,1-.9,2.26,3.81,3.81,0,0,1-2.52.76h-2.62v3.32q0,4.34-2,6.35t-6.2,1.71H492.91V85.4h11.38a10.36,10.36,0,0,1,5.89,1.36,5.28,5.28,0,0,1,2.07,4.48V97q0,6.64-8,6.14H487.37l-2.31,4.94h29.5q3.53,0,3.53,3.22t-3.53,3.12h-8.15a32.33,32.33,0,0,1-5.24,11.78A34,34,0,0,1,507.87,129.21Zm-33-32.58a2.47,2.47,0,0,0,1.72.55h9.26V91.34H476.6a2.14,2.14,0,0,0-1.77.7,4.25,4.25,0,0,0-.55,2.52A2.78,2.78,0,0,0,474.88,96.63Zm.31-32.58h10.67V59.11H477.6c-1.47,0-2.28.81-2.41,2.42Zm10.67,11.38V70.09H475.19V73a2.19,2.19,0,0,0,2.41,2.42Zm13.19,39H481.63l-.7,1.11q-.21.4-1,1.56a3.9,3.9,0,0,0-.76,1.66c0,.88.81,1.48,2.42,1.81L494.32,124A20.38,20.38,0,0,0,499.05,114.4Zm-6.14-50.35h11.28V61.53a2.44,2.44,0,0,0-.55-1.76,2.92,2.92,0,0,0-1.87-.66h-8.86Zm0,11.38h8.86A2.14,2.14,0,0,0,504.19,73V70.09H492.91Zm0,21.75h9.87a2.11,2.11,0,0,0,1.71-.6,5.53,5.53,0,0,0,0-4.64,2.11,2.11,0,0,0-1.71-.6h-9.87ZM553.74,134q0,4.43-4,4.43-5.43,0-16.72-13.59a51.17,51.17,0,0,1-10.17,9.66q-6,4.23-8.46,4.23a3.91,3.91,0,0,1-2.92-1,4.22,4.22,0,0,1-.9-3q0-2.62,4.63-4.94a36.48,36.48,0,0,0,13.39-11.38q-2.71-5.13-4.73-14.6a173.92,173.92,0,0,1-3-21.65q-3.63,7.14-5.84,7.15c-2.22,0-3.33-1.35-3.33-4a8.88,8.88,0,0,1,1.61-3.83q6.25-9.76,10.38-26.69,1.3-5.43,1.91-6.24a3.69,3.69,0,0,1,3.12-1.31q4,0,4,3.32,0,2.82-5.13,16.32H550q3.82,0,3.83,4T550,75h-3.52l-.3,6.15a145.84,145.84,0,0,1-2.42,21.35,55.54,55.54,0,0,1-6.45,16,55.57,55.57,0,0,0,11.89,10.07C552.23,130.41,553.74,132.23,553.74,134ZM539,76.64l.1-1.62H526.45l.5,8.46q1,17.63,5.84,28.1Q538,100.81,539,76.64Z"/><path class="eb76293c-668b-4b71-a401-c7df88acdb9a" d="M578.11,134.34V86.61l-.2.6-.81,1.41q-6.35,11.09-8.46,11.08-3.61,0-3.62-4.53,0-1.52,3.32-7a164.26,164.26,0,0,0,16.42-35.85,9.92,9.92,0,0,1,1.91-3.73,3.43,3.43,0,0,1,2.62-1.21q4.73,0,4.73,3.83,0,2-2.16,7.4T586.07,70.9v63.44c0,3.22-1.35,4.84-4,4.84S578.11,137.56,578.11,134.34Zm11.78-4.13c0-2.68,1.48-4,4.44-4h33.33q2.72-11.07,4.38-18.63t3-15.1a20.88,20.88,0,0,0,.4-2.72c.74-4.23,1.25-6.71,1.51-7.45.54-1.48,1.78-2.22,3.73-2.22A4.46,4.46,0,0,1,644,81.27a3.84,3.84,0,0,1,1,3.22l-.4,2.32a346.4,346.4,0,0,1-9,37.86l-.51,1.51h17c3,0,4.53,1.35,4.53,4s-1.51,4-4.53,4h-57.8Q589.89,134.24,589.89,130.21Zm1.72-59.92c0-2.62,1.47-3.93,4.43-3.93h21.85V53.47c0-3.62,1.41-5.44,4.23-5.44s4.23,1.82,4.23,5.44V66.36h24.07q4.53,0,4.53,3.93t-4.53,4H596C593.08,74.32,591.61,73,591.61,70.29Zm14.3,47L599.06,85.5a3.61,3.61,0,0,1,4-3.93q2.71,0,3.72,2.92a112.29,112.29,0,0,1,3.12,11.28l3.73,17.42a18.2,18.2,0,0,1,.51,3.13q0,4.13-4.34,4.12A3.81,3.81,0,0,1,605.91,117.32Z"/><path class="eb76293c-668b-4b71-a401-c7df88acdb9a" d="M759.69,121.45a2.75,2.75,0,0,1-1,2.22,4,4,0,0,1-2.67.8H738.44q4.53,1.82,11.68,5.54,8.05,4.23,8.06,6.25,0,3.42-3.93,3.42a7,7,0,0,1-4-1.51L748.41,137l-2.11-1.41-70.9,1.91q-4.33.1-4.33-3.52c0-1.88,1.1-3,3.32-3.32l15.61-.11,4.73-6H672q-3.53,0-3.52-3.12t3.52-3h84.09Q759.69,118.33,759.69,121.45ZM668.65,57q0-3.22,3.73-3.23h22.55V50.45q0-3.42,3.83-3.42t3.83,3.42v3.32h23.06V50.45q0-3.42,3.93-3.42t3.93,3.42v3.32h22.15q3.83,0,3.83,3.23t-3.83,3.32H733.51v2.32c0,1.68-.71,2.68-2.12,3A3.44,3.44,0,0,1,734,66.72a3.85,3.85,0,0,1,.91,3l-.1,2.62h7.75a7.82,7.82,0,0,1,5.24,1.56,5.6,5.6,0,0,1,1.71,4.68l-.2,5.24-.1,3.22a36,36,0,0,0,1,10q1.07,3.42,2.87,3.42c.81,0,1.25-1.44,1.31-4.33.14-3.08.27-5,.41-5.84s1-1.31,2.41-1.31a2.84,2.84,0,0,1,2.32.86,4.16,4.16,0,0,1,.7,2.67q0,15.21-6.64,15.2a8,8,0,0,1-4.94-1.66,12.58,12.58,0,0,1-3.72-5,24.64,24.64,0,0,1-1.92-6.65,59.28,59.28,0,0,1-.5-8.16V81.07c0-1.82-.87-2.72-2.62-2.72h-5.44A48.89,48.89,0,0,1,732.8,90q7.35,4.74,7.35,7,0,3.12-3.12,3.12a5.28,5.28,0,0,1-2.27-1,25.19,25.19,0,0,1-3.57-2.76l-.81-.71a35.53,35.53,0,0,1-7,7.45c-3,2.35-5.17,3.53-6.64,3.53q-3.12,0-3.12-3.53c0-1.21.93-2.31,2.82-3.32A21.34,21.34,0,0,0,725.15,92q-7.26-4.42-7.25-5.74c0-1.87.9-2.82,2.72-2.82a7.57,7.57,0,0,1,2.31.76,28.53,28.53,0,0,1,4,2.27l.3.2a56.4,56.4,0,0,0,.81-8.36h-8.66q-3.43,0-3.43-3c0-2,1.14-3,3.43-3h8.66V69.89q0-3.33,2-4h-.6a4.19,4.19,0,0,1-2.77-.86,2.86,2.86,0,0,1-1.06-2.36V60.32H702.59v1.91q0,3.33-3.83,3.33t-3.83-3.33V60.32H672.38Q668.65,60.32,668.65,57Zm0,47.53q0-2.82,6.85-3.12l12.79-.6V97.68H677.51q-3.12,0-3.12-2.61t3.12-2.52h10.78V89.93c0-2.22,1.14-3.32,3.42-3.32s3.53,1.1,3.53,3.32v2.62h11.88c2.08,0,3.12.87,3.12,2.62a2.21,2.21,0,0,1-.85,1.86,3.64,3.64,0,0,1-2.27.65H695.24v2.92l.5-.1h.81l9.16-.4,3.32-.3a2.44,2.44,0,0,1,2,.6,2.74,2.74,0,0,1,.7,2,2,2,0,0,1-1.36,1.86,12.43,12.43,0,0,1-4.28.86l-34.24,2.41Q668.65,107.76,668.65,104.53ZM695.74,86.2V82.07h-7.55q-1,4-5.54,7.26a15.75,15.75,0,0,1-5.09,2.41,21.19,21.19,0,0,1-5.79.81c-1.95,0-2.92-.94-2.92-2.82,0-1.55,1-2.45,3.12-2.72q8.16-1,9.47-4.94h-9.27c-2.15,0-3.22-.87-3.22-2.61s1.07-2.72,3.22-2.72h16.22v-3h-12c-2.08,0-3.12-.91-3.12-2.72s1-2.62,3.12-2.62h12V66.46q0-3,3.52-3t3.53,3v1.92h13c2.15,0,3.22.87,3.22,2.62s-1.07,2.72-3.22,2.72h-13v3h17c2.15,0,3.22.9,3.22,2.72s-1.07,2.61-3.22,2.61H701.68v2.32c0,1.41.87,2.12,2.62,2.12h2.12c1.87,0,3-.74,3.42-2.22a2.47,2.47,0,0,1,2.72-1.81c2.08,0,3.12.9,3.12,2.72q0,5.73-7.35,5.74h-5.94Q695.75,90.94,695.74,86.2Zm49.55,22.16q3.32,0,3.32,2.92t-3.32,3H682.75q-3.33,0-3.33-3t3.33-2.92Zm-46,22.15,38.07-.2-2.82-1.51a15.16,15.16,0,0,1-2.26-1.46,1.54,1.54,0,0,1-.66-1.16,2.21,2.21,0,0,1,1.11-1.71H704.5Z"/><path class="eb76293c-668b-4b71-a401-c7df88acdb9a" d="M796.85,75q0,2.63-7.15,12v47.63q0,4.63-3.93,4.64t-3.92-4.64V96.78q-5.15,6.45-7.26,6.44-3.42,0-3.42-4.23,0-1.9,2.52-4.43a87.27,87.27,0,0,0,15-20.14q1.71-3.12,4.13-3.12Q796.86,71.3,796.85,75Zm-25.38-8.86q0-2.31,5.34-5.84A62.39,62.39,0,0,0,786,52.57c3.15-3.23,5.37-4.84,6.64-4.84q4.13,0,4.13,3.93,0,2.93-9.16,10.78T775.2,70.29C772.71,70.29,771.47,68.92,771.47,66.16Zm35.1,19a6.41,6.41,0,0,1,1,3.82q-.3,21.77-3.12,31.93c-1.89,6.51-4.13,9.77-6.75,9.77s-3.93-1.31-3.93-3.93a7.49,7.49,0,0,1,1.11-3.43q4.62-8.85,5.44-31.82V88.32c0-3,1.2-4.43,3.62-4.43A3.11,3.11,0,0,1,806.57,85.2Zm13.95-10.28v59.72q0,4.34-3.93,4.33t-3.93-4.33V74.92H803.2q-4.94,0-4.94-4A3.51,3.51,0,0,1,799.52,68a5.72,5.72,0,0,1,3.68-1h9.46V52.06q0-4.53,3.93-4.53t3.93,4.53V67H831q4.63,0,4.63,4a3.52,3.52,0,0,1-1.25,2.92,5.63,5.63,0,0,1-3.58,1Zm6-14.2A55.59,55.59,0,0,1,822.83,55q0-3,3.23-3c1.34,0,3.08,1.35,5.23,4s3.13,4.3,3.13,5.24c0,2.08-1.15,3.12-3.43,3.12Q829,64.35,826.56,60.72Zm7.65,62.54a3.33,3.33,0,0,1-2.92,1.41c-2.61,0-3.86-2.25-3.72-6.74q.09-3.33-2-28.2l-.3-3a2.76,2.76,0,0,1,.76-2.32,3.44,3.44,0,0,1,2.46-.81c1.95,0,3.19,1.89,3.73,5.64l1,7,1.81,23A6,6,0,0,1,834.21,123.26ZM862.92,84q0,3.83-3.83,3.82h-4.83v41q.79,10.88-10.07,10.17h-5.34q-4.94,0-4.94-4.12c0-2.56,1.41-3.83,4.23-3.83h4a4.22,4.22,0,0,0,3.12-1.11,4.36,4.36,0,0,0,1.11-3.22V87.81h-8.16Q834,87.81,834,84t4.23-3.93h20.85Q862.92,80.06,862.92,84Zm-26-23.67a3.75,3.75,0,0,1-1-2.92,3.75,3.75,0,0,1,1-2.92,4.77,4.77,0,0,1,3.23-.91h16.92a4.19,4.19,0,0,1,3,.91,4,4,0,0,1,.9,2.92,4,4,0,0,1-.9,2.92,4.15,4.15,0,0,1-3,.91H840.16A4.72,4.72,0,0,1,836.93,60.32Z"/><path class="eb76293c-668b-4b71-a401-c7df88acdb9a" d="M874.7,135.35a2.51,2.51,0,0,1,1.56-2.17,10.13,10.13,0,0,1,4.48-1q5.44-.1,11.48-.81a98.23,98.23,0,0,0,10.58-1.71,23.69,23.69,0,0,1,4.83-.71q3.82,0,3.83,3.33c0,1.88-2.49,3.22-7.45,4q-9.16,1.5-15,2.21a87.07,87.07,0,0,1-10.27.71Q874.7,139.28,874.7,135.35ZM888,87.66a4.44,4.44,0,0,1-1.66-4.48l.51-3.83h-8.77c-1.94,0-2.92-.87-2.92-2.61s1-2.52,2.92-2.52h9.67c.41-4.1,1.24-6.75,2.52-8s3.09-1.78,5.64-1.71H945.2a8.87,8.87,0,0,1,5.64,1.61,5.73,5.73,0,0,1,2,4.74c0,.87-.07,2-.2,3.32h9.87c2,0,3,.84,3,2.52s-1,2.61-3,2.61H952.45q-.6,6.86-2.52,8.36a8.65,8.65,0,0,1-5.54,1.51H893.94A9.57,9.57,0,0,1,888,87.66ZM876.51,68V62.54q0-8.76,8.66-8.26h29.91V51.36c0-2.69,1.52-4,4.54-4s4.53,1.34,4.53,4v2.92h31.22q4.23,0,6.34,2t2.22,6.1V68q0,4-3.93,4t-3.83-3.62V63.75c0-1.88-1-2.89-3-3H887.49q-2.82,0-3,3V68q0,4-3.93,4C877.86,72,876.51,70.66,876.51,68Zm10.68,58q-1.92-1.82-1.71-5.94V100.4q0-4.12,1.81-6t5.94-1.66h54q4.23,0,6.14,1.81t1.72,5.84V120q0,4.23-1.87,6.09c-1.24,1.25-3.24,1.8-6,1.67H893.33Q889.1,127.8,887.19,126Zm59.62-24.57a2.78,2.78,0,0,0-.66-2.06,3.13,3.13,0,0,0-2.06-.76H896.45q-2.72,0-2.82,2.82v1.31h53.18Zm0,10.78v-4.33H893.63v4.33Zm0,6.84v-1.81H893.63V119c0,1.82.94,2.79,2.82,2.93h47.64C945.9,122,946.81,121,946.81,119ZM915.49,79.35H894.84a22.78,22.78,0,0,0-.2,2.52q0,2.22,2.52,2.22h17.72Zm1.21-9.66H898.37a1.89,1.89,0,0,0-2.12,1.61l-.5,2.92h20.44Zm26.48,14a1.93,1.93,0,0,0,.71-1.16l.4-3.23H923l-.6,4.74h19.13A2.89,2.89,0,0,0,943.18,83.74Zm1.51-12.14c0-1.27-.84-1.91-2.51-1.91H924.05l-.4,4.53h20.84A25,25,0,0,0,944.69,71.6Zm-6.94,64.05-2.52-.6a27.07,27.07,0,0,1-4.23-1.11,2.8,2.8,0,0,1-1.61-2.72,2.77,2.77,0,0,1,1.1-2.22,3.7,3.7,0,0,1,3-.6q1.72.3,5.34,1.11l8,1.51a97.58,97.58,0,0,0,14.1,1.31c3.35.13,5,1.21,5,3.22,0,2.48-1.34,3.73-4,3.73l-4.44-.41A148.93,148.93,0,0,1,937.75,135.65Z"/><path class="eb76293c-668b-4b71-a401-c7df88acdb9a" d="M999.28,70.09v64.15c0,3.36-1.45,5-4.33,5q-4,0-4-5V86.81a73.64,73.64,0,0,1-5.84,9.67q-2.52,3.31-3.93,3.32c-2.48,0-3.73-1.51-3.73-4.53q0-1.92,3.53-7.15,9.76-15,16.51-35.75a10.21,10.21,0,0,1,2-3.78,3.62,3.62,0,0,1,2.77-1.26q4.72,0,4.73,3.93Q1006.93,53.87,999.28,70.09Zm39.68-.3v14.8h20.34c3.16,0,4.73,1.31,4.73,3.93s-1.57,3.93-4.73,3.93H1039v14.9h23.76q4.85,0,4.84,3.93t-4.84,3.93H1039v18.93c0,3.42-1.41,5.14-4.23,5.14s-4.23-1.72-4.23-5.14V69.79H1022a93.52,93.52,0,0,1-8.56,14c-2.49,3.15-4.53,4.73-6.15,4.73q-3.92,0-3.92-4.43c0-1.07.73-2.52,2.21-4.33A80.28,80.28,0,0,0,1014,67a124.49,124.49,0,0,0,6.95-15.36q1.52-3.93,4.53-3.93c3,0,4.43,1.18,4.43,3.53q0,2-3.92,10.67h38.37a5.6,5.6,0,0,1,3.57,1,4,4,0,0,1,0,5.84,5.6,5.6,0,0,1-3.57,1Z"/><rect class="b6305624-fd52-4cc5-b850-c700718890e1" width="1500" height="200"/></svg>