<svg id="e989a03f-74f6-4e48-b9ef-60f42b66bb67" data-name="圖層 1" xmlns="http://www.w3.org/2000/svg" viewBox="0 0 1500 200"><defs><style>.bbdb9b45-5621-46ce-8b27-882e1b32aac0,.ead07781-7547-4797-b5cf-a5bfdd57e8f7{fill:#2c3e50;}.ead07781-7547-4797-b5cf-a5bfdd57e8f7{stroke:#2c3e50;stroke-miterlimit:10;stroke-width:2px;}.b5040721-e8e9-49e0-8e46-ff00377feaeb{fill:none;}</style></defs><path id="a99dde5d-37cc-41c9-9d66-9c2c1cc3b351" data-name="icon" class="ead07781-7547-4797-b5cf-a5bfdd57e8f7" d="M152.23,155.14H122.39a2.91,2.91,0,0,1,0-5.82h26.93V50.68H92.4V60.92a2.91,2.91,0,0,1-5.82,0V47.77a2.91,2.91,0,0,1,2.91-2.91h62.74a2.91,2.91,0,0,1,2.91,2.91h0V152.23a2.91,2.91,0,0,1-2.91,2.91Zm-62.74,0H68.64a2.91,2.91,0,0,1,0-5.82H86.58V136H47.77a2.91,2.91,0,0,1-2.91-2.91h0V73.37a2.91,2.91,0,0,1,2.91-2.91h83.45a2.9,2.9,0,0,1,2.9,2.9h0v59.69a2.9,2.9,0,0,1-2.89,2.91H92.4v13.35h17.95a2.91,2.91,0,1,1,0,5.82H89.49Zm0-25h38.82V76.27H50.68v53.88Zm22.86-18.55H66.63a2.91,2.91,0,0,1,0-5.82h45.72a2.91,2.91,0,1,1,0,5.82Zm-10.29-11H76.92a2.91,2.91,0,1,1-.34-5.81,1.93,1.93,0,0,1,.34,0h25.14a2.91,2.91,0,1,1,.34,5.81Z"/><path class="bbdb9b45-5621-46ce-8b27-882e1b32aac0" d="M348.19,132.43a6.38,6.38,0,0,1-.4,2.21,4.37,4.37,0,0,1-4.33,3.13,9.54,9.54,0,0,1-3.12-.61,46.23,46.23,0,0,1-16.17-11,79,79,0,0,1-13.39-18.27,93.39,93.39,0,0,1-8.51-21.71,73,73,0,0,1-14,31.47,68.89,68.89,0,0,1-25.93,20.5,6,6,0,0,1-2.22.5,4.25,4.25,0,0,1-3.07-1.21,4.37,4.37,0,0,1-1.26-3.32q0-2.41,3-4.13,34.55-18.73,37.57-58.91.5-6.85.5-12.29l-.1-5.44A4.81,4.81,0,0,1,297.94,50a4.29,4.29,0,0,1,3.32-1.31,4.64,4.64,0,0,1,3.37,1.21,4.25,4.25,0,0,1,1.26,3.22q0,5.94-.4,12.79c-.07.6-.15,1.33-.25,2.17a17.66,17.66,0,0,0-.15,2,7.89,7.89,0,0,0,.2,1.51A97,97,0,0,0,313,94.56a81.82,81.82,0,0,0,13.35,19.84,56.25,56.25,0,0,0,18.08,13.4Q348.19,129.41,348.19,132.43Z"/><path class="bbdb9b45-5621-46ce-8b27-882e1b32aac0" d="M359.17,127.59q0-4.12,5.13-4.12h35.76V62.94H370.75c-3.42,0-5.14-1.38-5.14-4.13s1.72-4.23,5.14-4.23h67.78c3.55,0,5.34,1.41,5.34,4.23s-1.79,4.13-5.34,4.13H408.72v60.53H445q5.23,0,5.24,4.12T445,131.82H364.3Q359.17,131.82,359.17,127.59Z"/><path class="bbdb9b45-5621-46ce-8b27-882e1b32aac0" d="M478.31,95.07q-8.37,5-13,5-3.52,0-3.53-4,0-2.91,3.93-4.13,15.81-4.62,19.34-14.4H467.43c-2.68,0-4-1.17-4-3.52s1.35-3.53,4-3.53h18.73l.51-8.86H475.29a33.47,33.47,0,0,1-3.78,5.19c-1.11,1.17-2,1.76-2.77,1.76-2.48,0-3.73-1.21-3.73-3.63,0-.67.81-2.14,2.42-4.43a52.9,52.9,0,0,0,5.24-9.87q1.41-3.32,4.33-3.32,3.93,0,3.93,2.82,0,1.22-1.82,4.53h28.4q3.93,0,3.93,3.53t-3.93,3.42H494.42l-.4,8.86h14.3q3.93,0,3.93,3.53a3.4,3.4,0,0,1-1,2.67,4.37,4.37,0,0,1-3,.85H492.91a19.92,19.92,0,0,1-1.81,5.54,3.14,3.14,0,0,1,2.32-.91,14.58,14.58,0,0,1,3.87,1.06,71.79,71.79,0,0,1,6.9,3.07q7.86,3.84,7.86,5.74,0,3.63-3.83,3.63-1.11,0-5.54-2.62t-8.36-4.43a14.37,14.37,0,0,1-3.62-2.11,1.83,1.83,0,0,1-.41-2Q486.87,89.94,478.31,95.07ZM541,100a10.62,10.62,0,0,1,2.52,7.35v18.83q0,4.94-2.52,7.76-2.41,2.61-7.65,2.42H483q-5.24,0-7.65-2.42c-1.81-1.88-2.66-4.47-2.52-7.76V107.75a11.23,11.23,0,0,1,2.52-7.75q2.31-2.41,7.25-2.42H533.3Q538.84,97.58,541,100ZM535,108.16q0-3.22-3.43-3.33H484.75q-3.22,0-3.42,3.33v4.93H535ZM535,120H481.33v5.64a3.29,3.29,0,0,0,.86,2.52,3.94,3.94,0,0,0,2.56.91h46.83a3.33,3.33,0,0,0,2.52-.86,4,4,0,0,0,.91-2.57Zm13.74-63.55q2,1.92,1.77,6.15V85.1q0,4.32-1.92,6.29t-6.14,1.66H522.62c-2.89,0-5-.62-6.29-1.86s-1.9-3.27-1.77-6.09V62.64q0-4.34,1.92-6.3c1.27-1.31,3.32-1.89,6.14-1.76h19.84Q546.8,54.58,548.75,56.49Zm-6.29,25.28V66q0-4.12-3.93-3.93H526.45q-4,0-3.93,3.93V81.77q0,4,3.93,3.93h12.08C541.29,85.7,542.59,84.39,542.46,81.77Z"/><path class="bbdb9b45-5621-46ce-8b27-882e1b32aac0" d="M565.77,79.86a3,3,0,0,1-.95-2.42q0-2.91,3.12-3.12l15.31-.91.6-.1V68.88H571.67a3.47,3.47,0,0,1-2.37-.75,2.76,2.76,0,0,1-.86-2.17q0-2.82,3.23-2.82h12.18V58.91h-14.6q-3.43,0-3.43-3t3.43-3h14.6V50.45q0-3.53,3.93-3.52t3.83,3.52v2.42H604.9c2.22,0,3.32,1,3.32,3s-1.1,3-3.32,3H591.61v4.23h10.87q3.33,0,3.33,2.92t-3.33,2.82H591.61v3.73l11.88-.81a2.76,2.76,0,0,1,3.22,3,2.71,2.71,0,0,1-2.42,2.92l-12.68,1v2q0,3.32-3.83,3.32t-3.93-3.32V79.46l-15.51,1.1A3.49,3.49,0,0,1,565.77,79.86Zm90.79,18.93q0,3.12-3.62,3.12h-6.75v2.42c0,3-.67,5.12-2,6.5s-3.5,2-6.45,2H577.31a4.42,4.42,0,0,1-2.93-.86,2.93,2.93,0,0,1-1-2.36q0-3.22,3.93-3.23h58a2.31,2.31,0,0,0,1.77-.6,3.21,3.21,0,0,0,.65-1.91v-1.92H569.15a4.18,4.18,0,0,1-2.77-.8,2.86,2.86,0,0,1-1-2.32q0-3.12,3.73-3.12h68.58V94a2.44,2.44,0,0,0-.55-1.76,2.92,2.92,0,0,0-1.87-.66h-57.1a4.4,4.4,0,0,1-2.92-.85,3.29,3.29,0,0,1,0-4.74,4.4,4.4,0,0,1,2.92-.85h59.52q4.53,0,6.6,2c1.37,1.34,2,3.46,1.86,6.34v2.22h6.75Q656.56,95.67,656.56,98.79Zm-76.13,21q0,2.82-3.83,9.27-3.72,6.13-7.15,5.84-4.43-.51-3.83-4a7.86,7.86,0,0,1,1.51-2.92,86.24,86.24,0,0,0,5.34-9.27q1.51-2.82,3.93-2.82C579.08,115.91,580.43,117.22,580.43,119.84Zm54.83,1.46a4.44,4.44,0,0,1,1.06,3.27q0,7.05-3.42,10.18c-1.15,1-3.21,1.74-6.2,2.21a102.83,102.83,0,0,1-14.35.71q-19,0-22.66-1.31-3.93-1.41-3.93-6V118.73c0-2.62,1.35-3.93,4-3.93s4,1.31,4,3.93v7.66a7,7,0,0,0,.4,2.92,2,2,0,0,0,1.72.8,121.18,121.18,0,0,0,14.5.61h4.93q4.85-.1,7-.31a12.09,12.09,0,0,0,3.63-.8,2.34,2.34,0,0,0,1.36-1.66,28.47,28.47,0,0,0,.65-4.08,4.27,4.27,0,0,1,1.21-2.67,3.78,3.78,0,0,1,2.72-1A4.42,4.42,0,0,1,635.26,121.3Zm-28.85-1a3.79,3.79,0,0,1-1.51-2.51q0-3.22,3.73-3.23,2.31,0,6.14,3.23,3.42,3,3.42,5,0,3.52-3.92,3.53a3.73,3.73,0,0,1-2-.91c-.8-.6-2-1.58-3.42-2.92Zm2.32-44q0-3,3.42-3h15.31V68.88H614.87q-3.23,0-3.22-2.92t3.22-2.82h12.59V58.91h-14q-3.42,0-3.42-3t3.42-3h14V50.45c0-2.35,1.27-3.52,3.83-3.52s4,1.17,4,3.52v2.42h15.51c2.28,0,3.43,1,3.43,3s-1.15,3-3.43,3H635.31v4.23H647.7q3.42,0,3.42,2.92t-3.42,2.82H635.31v4.43h15.92q3.42,0,3.42,3c0,2-1.14,3-3.42,3H635.31v1.42q0,3.32-4,3.32c-2.56,0-3.83-1.11-3.83-3.32V79.35H612.15C609.87,79.35,608.73,78.35,608.73,76.33Zm46.52,53.88a3.23,3.23,0,0,1-1.2,2.67,4.74,4.74,0,0,1-3,1,4,4,0,0,1-2.36-.66,8.16,8.16,0,0,1-2-2.06c-.6-.87-1.25-1.75-2-2.62s-1.26-1.58-1.66-2.11q-5-6.56-5-7.76c0-2.42,1.41-3.62,4.23-3.62,1.82,0,4.43,2.08,7.86,6.24S655.25,128.33,655.25,130.21Z"/><path class="bbdb9b45-5621-46ce-8b27-882e1b32aac0" d="M719.41,135.35q0-4,4.63-4h5.74q3.33,0,3.52-3.52v-6.65H672.78c-2.69,0-4-1.17-4-3.53s1.34-3.52,4-3.52H733.3v-4.93h-3.52q-20.34,0-28.6-1.52a22.27,22.27,0,0,1-12.89-7.45q-6.64,4.83-10.28,7t-5.43,2.12a3.52,3.52,0,0,1-2.62-1.16,4,4,0,0,1-1.11-2.87,2.82,2.82,0,0,1,.55-1.87,11.63,11.63,0,0,1,1.57-1.46,62.38,62.38,0,0,1,6.24-3.12q5.74-2.72,6.85-3.32V89.12a3.06,3.06,0,0,0-3.23-3.42h-7.35Q669,85.7,669,82t4.53-3.62h10q4.34,0,6.3,2t1.86,6.2v7.95a14.14,14.14,0,0,0,6.65,5.24q7.05,2.92,18.83,2.92l32.63-.1,6.65-.2q3.72-.1,3.72,3.42c0,2.35-1.84,3.53-5.54,3.53H741.16v4.83h14.2q4.13,0,4.13,3.52c0,2.36-1.38,3.53-4.13,3.53h-14.2v9q0,4.94-2.22,7.2t-7.05,2H724Q719.41,139.28,719.41,135.35ZM683,72.71l-2.42-1.11a53,53,0,0,0-4.83-2.22,3.82,3.82,0,0,1-1.76-6,3,3,0,0,1,2.26-.9q2.22,0,7.56,2.51a26.47,26.47,0,0,1,4.58,2.67,3.25,3.25,0,0,1,1.46,2.47,4.18,4.18,0,0,1-.76,2.67,2.38,2.38,0,0,1-2,1A10.56,10.56,0,0,1,683,72.71Zm2.92-14.3q-1.22-.81-5.64-3.12c-2.22-1.08-3.32-2.35-3.32-3.83a3.54,3.54,0,0,1,1-2.52,2.93,2.93,0,0,1,2.17-1q1.82,0,7.35,2.72c3.69,1.82,5.54,3.66,5.54,5.54q0,3.73-3.42,3.73A7.55,7.55,0,0,1,685.87,58.41Zm8.36,72.71L692,128.7a14.54,14.54,0,0,1-1.61-2,3.23,3.23,0,0,1-.5-1.71,3,3,0,0,1,1-2.17,3.07,3.07,0,0,1,2.26-1,6.28,6.28,0,0,1,3.12,1,21.53,21.53,0,0,1,4,3.32c3,2.82,4.43,5,4.43,6.65q0,3.82-3.92,3.83Q698.75,136.66,694.23,131.12Zm8.21-34.34q-2-1.92-1.77-6V73.31q0-4.23,1.92-6.19c1.27-1.31,3.29-1.9,6-1.76h11.58l.81-3.93H697.65q-3.52,0-3.52-2.92c0-2,1.17-3,3.52-3h13.2a40.86,40.86,0,0,1-2.32-3.63,4.8,4.8,0,0,1-.7-2.11,2,2,0,0,1,.85-1.72,4.27,4.27,0,0,1,2.47-.6,5.1,5.1,0,0,1,3.47,2,37.19,37.19,0,0,1,4.38,6.1h13.2l2.72-4.84A10.53,10.53,0,0,1,737,48a3.71,3.71,0,0,1,2.47-.9,5.82,5.82,0,0,1,3.12.7,2.1,2.1,0,0,1,1.11,1.82,4.35,4.35,0,0,1-.71,2.11,41,41,0,0,1-2.62,3.73h15.31c2.28,0,3.43,1,3.43,3s-1.15,2.92-3.43,2.92H729.38l-1.61,3.93h17.72q4.23,0,6.14,1.91c1.28,1.28,1.88,3.29,1.82,6V90.43q0,8.67-8,8.26H708.63Q704.4,98.69,702.44,96.78Zm43.25-23.17a2.53,2.53,0,0,0-2.62-2.82h-32c-1.81,0-2.72.95-2.72,2.82v1.52h37.36Zm0,10.38V79.86H708.33V84Zm0,6.44V88.72H708.33v1.71a2.4,2.4,0,0,0,2.72,2.72h32C744.82,93.15,745.69,92.25,745.69,90.43Z"/><path class="bbdb9b45-5621-46ce-8b27-882e1b32aac0" d="M775.4,72.71q-4.42,0-4.43-3.83t4.43-3.83h25.38q4.43,0,4.43,3.83t-4.43,3.83Zm-1.51-17.42c0-2.56,1.51-3.83,4.53-3.83h19c2.95,0,4.43,1.27,4.43,3.83s-1.48,3.82-4.43,3.82h-19Q773.89,59.11,773.89,55.29Zm89.23,25.78A4.61,4.61,0,0,1,862,84.39a4.29,4.29,0,0,1-3.27,1.21q-3,0-11.69-7.76a3,3,0,0,1,.41,1.51c0,2.42-1.45,3.63-4.33,3.63h-24c-2.76,0-4.13-1.21-4.13-3.63a2.79,2.79,0,0,1,.4-1.4q-4.43,4.32-7,6.39c-1.74,1.38-3.05,2.06-3.92,2.06q-2.43,0-3.43-2.71c-.47,1.41-1.81,2.14-4,2.21H778.62q-4.23,0-4.23-3.62t4.23-3.73H797a5.12,5.12,0,0,1,2.62.65A3.37,3.37,0,0,1,801.08,81a6.94,6.94,0,0,1,1.46-1.62c.71-.6,1.19-1,1.46-1.2q11.88-9.77,22.16-28A7.26,7.26,0,0,1,828,48a3.93,3.93,0,0,1,2.32-.65q4.23,0,4.23,3.22a3.2,3.2,0,0,1-.41,1.41q11.08,17.22,26.09,25C862.14,78,863.12,79.32,863.12,81.07Zm-61.84,14.6a3.34,3.34,0,0,1-1.11,2.67,4.76,4.76,0,0,1-3.22,1H778.62q-4.23,0-4.23-3.63c0-2.48,1.41-3.73,4.23-3.73H797C799.84,91.94,801.28,93.19,801.28,95.67Zm-1.81,11.68c1.34,1.28,1.91,3.32,1.71,6.15V127q0,4.42-2,6.45t-6.3,1.71H782.65q-4.53,0-6.54-2c-1.35-1.3-1.88-3.37-1.62-6.19V113.5q0-4.44,1.92-6.4t6.24-1.66h10.27Q797.47,105.44,799.47,107.35Zm-5.74,18.83V114.4c0-1.61-.77-2.38-2.32-2.32h-7.15a2.76,2.76,0,0,0-1.91.56,2,2,0,0,0-.5,1.76v11.78a2,2,0,0,0,2.41,2.32h7.15C793,128.5,793.8,127.73,793.73,126.18Zm64.15-28.6v31.53q0,4.72-2.06,7.15t-6.4,2.41H846.3q-3.42,0-3.42-3.82t3.42-3.73h1.51c1.68,0,2.52-1,2.52-3V115.51H842v18.33a3.71,3.71,0,0,1-.91,2.67,3.45,3.45,0,0,1-2.62,1,3.31,3.31,0,0,1-2.51-1,3.71,3.71,0,0,1-.91-2.67V115.51h-7.65v18.33c0,2.42-1.18,3.62-3.53,3.62a3.35,3.35,0,0,1-2.52-1,3.75,3.75,0,0,1-.9-2.67V115.51h-7.76V135a4.32,4.32,0,0,1-.95,3,3.7,3.7,0,0,1-2.87,1.05,3.54,3.54,0,0,1-2.77-1.05,4.28,4.28,0,0,1-1-3V97.48q0-8.16,8.46-8.15h35.85Q857.88,89.33,857.88,97.58Zm-37.46-1.31h-5.14c-1.74,0-2.62,1-2.62,2.82v9.77h7.76Zm24.87-20a92.61,92.61,0,0,1-14.6-17.62l-.2-.3-1.31,2.11a105.67,105.67,0,0,1-12.09,15.81l1.41-.3h24.58ZM835,108.86V96.27h-7.65v12.59Zm15.31-9.67a3.13,3.13,0,0,0-.66-2.26,2.94,2.94,0,0,0-2.16-.66H842v12.59h8.36Z"/><rect class="b5040721-e8e9-49e0-8e46-ff00377feaeb" width="1500" height="200"/></svg>