<svg id="f171be6d-84f6-4420-b074-71657d87311e" data-name="圖層 1" xmlns="http://www.w3.org/2000/svg" viewBox="0 0 1500 200"><defs><style>.afb85bf3-2ffc-45a3-8949-d5a2d4b1013a,.b71d6765-7959-49b1-92ae-fdf48a1396f8{fill:#2c3e50;}.afb85bf3-2ffc-45a3-8949-d5a2d4b1013a{stroke:#2c3e50;stroke-miterlimit:10;stroke-width:2px;}.b48ba6a5-e4c3-4c13-8323-9e594d840851{fill:none;}</style></defs><path id="ac9e6ad2-6b7b-4d60-a754-1dd3e120ff37" data-name="icon" class="afb85bf3-2ffc-45a3-8949-d5a2d4b1013a" d="M152.23,155.14H122.39a2.91,2.91,0,0,1,0-5.82h26.93V50.68H92.4V60.92a2.91,2.91,0,0,1-5.82,0V47.77a2.91,2.91,0,0,1,2.91-2.91h62.74a2.91,2.91,0,0,1,2.91,2.91h0V152.23a2.91,2.91,0,0,1-2.91,2.91Zm-62.74,0H68.64a2.91,2.91,0,0,1,0-5.82H86.58V136H47.77a2.91,2.91,0,0,1-2.91-2.91h0V73.37a2.91,2.91,0,0,1,2.91-2.91h83.45a2.9,2.9,0,0,1,2.9,2.9h0v59.69a2.9,2.9,0,0,1-2.89,2.91H92.4v13.35h17.95a2.91,2.91,0,1,1,0,5.82H89.49Zm0-25h38.82V76.27H50.68v53.88Zm22.86-18.55H66.63a2.91,2.91,0,0,1,0-5.82h45.72a2.91,2.91,0,1,1,0,5.82Zm-10.29-11H76.92a2.91,2.91,0,1,1-.34-5.81,1.93,1.93,0,0,1,.34,0h25.14a2.91,2.91,0,1,1,.34,5.81Z"/><path class="b71d6765-7959-49b1-92ae-fdf48a1396f8" d="M348.19,132.43a6.38,6.38,0,0,1-.4,2.21,4.37,4.37,0,0,1-4.33,3.13,9.54,9.54,0,0,1-3.12-.61,46.23,46.23,0,0,1-16.17-11,79,79,0,0,1-13.39-18.27,93.39,93.39,0,0,1-8.51-21.71,73,73,0,0,1-14,31.47,68.89,68.89,0,0,1-25.93,20.5,6,6,0,0,1-2.22.5,4.25,4.25,0,0,1-3.07-1.21,4.37,4.37,0,0,1-1.26-3.32q0-2.41,3-4.13,34.55-18.73,37.57-58.91.5-6.85.5-12.29l-.1-5.44A4.81,4.81,0,0,1,297.94,50a4.29,4.29,0,0,1,3.32-1.31,4.64,4.64,0,0,1,3.37,1.21,4.25,4.25,0,0,1,1.26,3.22q0,5.94-.4,12.79c-.07.6-.15,1.33-.25,2.17a17.66,17.66,0,0,0-.15,2,7.89,7.89,0,0,0,.2,1.51A97,97,0,0,0,313,94.56a81.82,81.82,0,0,0,13.35,19.84,56.25,56.25,0,0,0,18.08,13.4Q348.19,129.41,348.19,132.43Z"/><path class="b71d6765-7959-49b1-92ae-fdf48a1396f8" d="M359.17,127.59q0-4.12,5.13-4.12h35.76V62.94H370.75c-3.42,0-5.14-1.38-5.14-4.13s1.72-4.23,5.14-4.23h67.78c3.55,0,5.34,1.41,5.34,4.23s-1.79,4.13-5.34,4.13H408.72v60.53H445q5.23,0,5.24,4.12T445,131.82H364.3Q359.17,131.82,359.17,127.59Z"/><path class="b71d6765-7959-49b1-92ae-fdf48a1396f8" d="M478.31,95.07q-8.37,5-13,5-3.52,0-3.53-4,0-2.91,3.93-4.13,15.81-4.62,19.34-14.4H467.43c-2.68,0-4-1.17-4-3.52s1.35-3.53,4-3.53h18.73l.51-8.86H475.29a33.47,33.47,0,0,1-3.78,5.19c-1.11,1.17-2,1.76-2.77,1.76-2.48,0-3.73-1.21-3.73-3.63,0-.67.81-2.14,2.42-4.43a52.9,52.9,0,0,0,5.24-9.87q1.41-3.32,4.33-3.32,3.93,0,3.93,2.82,0,1.22-1.82,4.53h28.4q3.93,0,3.93,3.53t-3.93,3.42H494.42l-.4,8.86h14.3q3.93,0,3.93,3.53a3.4,3.4,0,0,1-1,2.67,4.37,4.37,0,0,1-3,.85H492.91a19.92,19.92,0,0,1-1.81,5.54,3.14,3.14,0,0,1,2.32-.91,14.58,14.58,0,0,1,3.87,1.06,71.79,71.79,0,0,1,6.9,3.07q7.86,3.84,7.86,5.74,0,3.63-3.83,3.63-1.11,0-5.54-2.62t-8.36-4.43a14.37,14.37,0,0,1-3.62-2.11,1.83,1.83,0,0,1-.41-2Q486.87,89.94,478.31,95.07ZM541,100a10.62,10.62,0,0,1,2.52,7.35v18.83q0,4.94-2.52,7.76-2.41,2.61-7.65,2.42H483q-5.24,0-7.65-2.42c-1.81-1.88-2.66-4.47-2.52-7.76V107.75a11.23,11.23,0,0,1,2.52-7.75q2.31-2.41,7.25-2.42H533.3Q538.84,97.58,541,100ZM535,108.16q0-3.22-3.43-3.33H484.75q-3.22,0-3.42,3.33v4.93H535ZM535,120H481.33v5.64a3.29,3.29,0,0,0,.86,2.52,3.94,3.94,0,0,0,2.56.91h46.83a3.33,3.33,0,0,0,2.52-.86,4,4,0,0,0,.91-2.57Zm13.74-63.55q2,1.92,1.77,6.15V85.1q0,4.32-1.92,6.29t-6.14,1.66H522.62c-2.89,0-5-.62-6.29-1.86s-1.9-3.27-1.77-6.09V62.64q0-4.34,1.92-6.3c1.27-1.31,3.32-1.89,6.14-1.76h19.84Q546.8,54.58,548.75,56.49Zm-6.29,25.28V66q0-4.12-3.93-3.93H526.45q-4,0-3.93,3.93V81.77q0,4,3.93,3.93h12.08C541.29,85.7,542.59,84.39,542.46,81.77Z"/><path class="b71d6765-7959-49b1-92ae-fdf48a1396f8" d="M565.77,79.86a3,3,0,0,1-.95-2.42q0-2.91,3.12-3.12l15.31-.91.6-.1V68.88H571.67a3.47,3.47,0,0,1-2.37-.75,2.76,2.76,0,0,1-.86-2.17q0-2.82,3.23-2.82h12.18V58.91h-14.6q-3.43,0-3.43-3t3.43-3h14.6V50.45q0-3.53,3.93-3.52t3.83,3.52v2.42H604.9c2.22,0,3.32,1,3.32,3s-1.1,3-3.32,3H591.61v4.23h10.87q3.33,0,3.33,2.92t-3.33,2.82H591.61v3.73l11.88-.81a2.76,2.76,0,0,1,3.22,3,2.71,2.71,0,0,1-2.42,2.92l-12.68,1v2q0,3.32-3.83,3.32t-3.93-3.32V79.46l-15.51,1.1A3.49,3.49,0,0,1,565.77,79.86Zm90.79,18.93q0,3.12-3.62,3.12h-6.75v2.42c0,3-.67,5.12-2,6.5s-3.5,2-6.45,2H577.31a4.42,4.42,0,0,1-2.93-.86,2.93,2.93,0,0,1-1-2.36q0-3.22,3.93-3.23h58a2.31,2.31,0,0,0,1.77-.6,3.21,3.21,0,0,0,.65-1.91v-1.92H569.15a4.18,4.18,0,0,1-2.77-.8,2.86,2.86,0,0,1-1-2.32q0-3.12,3.73-3.12h68.58V94a2.44,2.44,0,0,0-.55-1.76,2.92,2.92,0,0,0-1.87-.66h-57.1a4.4,4.4,0,0,1-2.92-.85,3.29,3.29,0,0,1,0-4.74,4.4,4.4,0,0,1,2.92-.85h59.52q4.53,0,6.6,2c1.37,1.34,2,3.46,1.86,6.34v2.22h6.75Q656.56,95.67,656.56,98.79Zm-76.13,21q0,2.82-3.83,9.27-3.72,6.13-7.15,5.84-4.43-.51-3.83-4a7.86,7.86,0,0,1,1.51-2.92,86.24,86.24,0,0,0,5.34-9.27q1.51-2.82,3.93-2.82C579.08,115.91,580.43,117.22,580.43,119.84Zm54.83,1.46a4.44,4.44,0,0,1,1.06,3.27q0,7.05-3.42,10.18c-1.15,1-3.21,1.74-6.2,2.21a102.83,102.83,0,0,1-14.35.71q-19,0-22.66-1.31-3.93-1.41-3.93-6V118.73c0-2.62,1.35-3.93,4-3.93s4,1.31,4,3.93v7.66a7,7,0,0,0,.4,2.92,2,2,0,0,0,1.72.8,121.18,121.18,0,0,0,14.5.61h4.93q4.85-.1,7-.31a12.09,12.09,0,0,0,3.63-.8,2.34,2.34,0,0,0,1.36-1.66,28.47,28.47,0,0,0,.65-4.08,4.27,4.27,0,0,1,1.21-2.67,3.78,3.78,0,0,1,2.72-1A4.42,4.42,0,0,1,635.26,121.3Zm-28.85-1a3.79,3.79,0,0,1-1.51-2.51q0-3.22,3.73-3.23,2.31,0,6.14,3.23,3.42,3,3.42,5,0,3.52-3.92,3.53a3.73,3.73,0,0,1-2-.91c-.8-.6-2-1.58-3.42-2.92Zm2.32-44q0-3,3.42-3h15.31V68.88H614.87q-3.23,0-3.22-2.92t3.22-2.82h12.59V58.91h-14q-3.42,0-3.42-3t3.42-3h14V50.45c0-2.35,1.27-3.52,3.83-3.52s4,1.17,4,3.52v2.42h15.51c2.28,0,3.43,1,3.43,3s-1.15,3-3.43,3H635.31v4.23H647.7q3.42,0,3.42,2.92t-3.42,2.82H635.31v4.43h15.92q3.42,0,3.42,3c0,2-1.14,3-3.42,3H635.31v1.42q0,3.32-4,3.32c-2.56,0-3.83-1.11-3.83-3.32V79.35H612.15C609.87,79.35,608.73,78.35,608.73,76.33Zm46.52,53.88a3.23,3.23,0,0,1-1.2,2.67,4.74,4.74,0,0,1-3,1,4,4,0,0,1-2.36-.66,8.16,8.16,0,0,1-2-2.06c-.6-.87-1.25-1.75-2-2.62s-1.26-1.58-1.66-2.11q-5-6.56-5-7.76c0-2.42,1.41-3.62,4.23-3.62,1.82,0,4.43,2.08,7.86,6.24S655.25,128.33,655.25,130.21Z"/><path class="b71d6765-7959-49b1-92ae-fdf48a1396f8" d="M708,91.44a16.82,16.82,0,0,1-.1,1.76,14.53,14.53,0,0,0-.1,1.77q-.41,9.87-1.31,20.29t-2.12,14.55Q702,138,689.19,138q-3.91,0-3.92-4.13c0-2.29,1.84-3.59,5.54-3.93a18.26,18.26,0,0,0,3.32-.5,3.08,3.08,0,0,0,1.51-.91q1.11-1.2,2-7.35.92-6.75,1.61-21.45c.14-2.15.21-3.76.21-4.84q0-3-3.23-3h-7.55a87.15,87.15,0,0,1-6.55,31.52q-5.43,12.6-10,12.59-3.92,0-3.92-4.33,0-1.71,2.11-4.63,9.38-12.69,10.07-32.13l.3-11.78q.21-7.45.21-12.08h-7.56a5.38,5.38,0,0,1-3.42-.91,3.42,3.42,0,0,1-1.11-2.82c0-2.48,1.51-3.73,4.53-3.73h12.39V51.86q0-4.43,4.13-4.43T694,51.86V63.54h13.59c3,0,4.54,1.25,4.54,3.73a3.42,3.42,0,0,1-1.11,2.82,5.39,5.39,0,0,1-3.43.91H689.09L689,81.87a21.92,21.92,0,0,0-.1,2.52h11.28Q708,84.39,708,91.44Zm51.86-2.62q0,4.34-4.13,4.33-5,0-15.51-15.31a76.85,76.85,0,0,1-7.85-15.61,101.52,101.52,0,0,1-10.88,22,48.28,48.28,0,0,1-5.19,6.65q-2.26,2.31-3.57,2.31c-2.55,0-3.83-1.37-3.83-4.13,0-1.27.77-2.72,2.32-4.33Q723.43,71,727.77,51.26q.9-3.82,3.62-3.83,4.13,0,4.13,3.32l-.4,2.72Q743.37,73,757.47,85C759.09,86.27,759.89,87.55,759.89,88.82Zm-4.43,44.11a5.23,5.23,0,0,1-1,3.43,3.59,3.59,0,0,1-2.92,1.2q-1.6,0-5-1.81a167.7,167.7,0,0,0-29-11.28q-3-.9-3-3.42,0-4.12,4.23-4.13,3.72,0,15.31,4.13a159.16,159.16,0,0,1,16.41,6.65C753.78,129.44,755.46,131.19,755.46,132.93Zm-31.27-36.3a3.57,3.57,0,0,1-1-2.47,2.85,2.85,0,0,1,1.06-2.22,4.29,4.29,0,0,1,2.87-.9,12.33,12.33,0,0,1,4.08,1,36,36,0,0,1,6.09,3.28,59.33,59.33,0,0,1,7.15,5.13q2.12,1.92,2.22,3.33a4.47,4.47,0,0,1-.86,3.22,4.35,4.35,0,0,1-3,1.31c-1,.13-3.12-.91-6.34-3.12s-6.41-4.4-9.17-6.15A16.18,16.18,0,0,1,724.19,96.63Z"/><path class="b71d6765-7959-49b1-92ae-fdf48a1396f8" d="M862.92,96.17a2.69,2.69,0,0,1,1,2.22q0,2.82-3.72,2.82h-32v3.32h20q4.34,0,6.3,1.92c1.31,1.27,1.86,3.29,1.66,6v16.72c0,2.88-.64,5-1.91,6.34s-3.29,1.91-6,1.71H786.48q-4.34,0-6.3-1.91c-1.3-1.28-1.86-3.32-1.66-6.14V112.49q0-4.33,1.92-6.3t6-1.66H803.2l.2-3.32H774.59a4.15,4.15,0,0,1-2.76-.81,2.72,2.72,0,0,1-1-2.21q0-2.82,3.72-2.82H860.2A4.27,4.27,0,0,1,862.92,96.17Zm-87.27-5.79q-2-1.86-1.66-6V56.9q0-4.34,1.86-6.25T782,49h32.53c2.28,0,3.42,1,3.42,2.92s-1.14,2.82-3.42,2.82H784c-1.68,0-2.52.88-2.52,2.62V84c0,1.81.84,2.72,2.52,2.72h29.31c2.41,0,3.62.9,3.62,2.72a2.49,2.49,0,0,1-.95,2.06,4.24,4.24,0,0,1-2.67.76H782Q777.61,92.25,775.65,90.38Zm26-16.56a14.2,14.2,0,0,1-1.11,2.31,3.76,3.76,0,0,1,1-.1q1.81,0,7.76,2.42,5.24,2.11,5.24,4.13c0,1.74-1,2.62-3.12,2.62q-1.62,0-4.84-2.12A42.75,42.75,0,0,0,801,80.16c-1.14-.4-1.75-1-1.81-1.81a22.92,22.92,0,0,1-8.76,6.54,9.82,9.82,0,0,1-3.63,1,3,3,0,0,1-2.11-.75,2.84,2.84,0,0,1-.81-2.17c0-1.41.81-2.32,2.42-2.72q7.46-2,9.36-6.44h-8.76a3.37,3.37,0,0,1-2.21-.66,2.54,2.54,0,0,1,0-3.72,3.37,3.37,0,0,1,2.21-.66h10a35.31,35.31,0,0,0,.51-4.43h-6.55c-1.48,1.81-2.75,2.72-3.83,2.72a2.32,2.32,0,0,1-2.62-2.62,3.33,3.33,0,0,1,.31-1.16,4.14,4.14,0,0,1,.9-1.36q1.3-1.6,3.53-4.73a3.37,3.37,0,0,1,2.72-1.71c1.88,0,2.82.64,2.82,1.91a5.46,5.46,0,0,1-.71,2.12h17c1.95,0,2.92.8,2.92,2.41s-1,2.42-2.92,2.42H803.4a39.19,39.19,0,0,1-.4,4.43h10.37a3.37,3.37,0,0,1,2.21.66,2.54,2.54,0,0,1,0,3.72,3.37,3.37,0,0,1-2.21.66Zm26.48,36.35v2.32c0,1.41,1.14,2.11,3.43,2.11h4.23c2,0,3.15-.43,3.42-1.31a3.46,3.46,0,0,1,3.53-2.51c2.14,0,3.22,1,3.22,2.92q0,5.94-8.86,5.94h-7.56a13.09,13.09,0,0,1-6.29-1.21,3.76,3.76,0,0,1-2.17-3.42v-4.84H808.84q-1.73,4.64-7.46,7.86t-9.06,3.32q-3.12,0-3.12-3.22a2.39,2.39,0,0,1,.65-1.76,4.76,4.76,0,0,1,2.07-1.06q7.65-1.82,9.77-5.14H789c-1.82,0-2.72.87-2.72,2.62v9.47h62.14v-9.47a2.67,2.67,0,0,0-.66-1.91,2.56,2.56,0,0,0-2-.71Zm20.14,17.32h-62v1.31a2.4,2.4,0,0,0,2.72,2.72h56.7c1.74,0,2.61-.9,2.61-2.72Zm-27.19-23v-3.32H810.35l-.2,3.32Zm-3.42-39q0-1.31,2.82-3.53a10.24,10.24,0,0,0,2.21-6.74c.14-3.83,2.15-5.74,6-5.74H841q6.24,0,6.25,6.24v3.32c0,1.28,1,2,3.12,2.12H852c2,0,3.09-1.34,3.22-4,.14-1.75,1.24-2.62,3.33-2.62s3.12.94,3.12,2.82q0,9.47-8.86,9.57h-4.23q-7.56,0-7.76-4.53V58c0-1.54-.87-2.38-2.62-2.51h-7.55q-1.82,0-2.32,3.82a11.82,11.82,0,0,1-2.92,6.45q-2.61,2.92-4.53,2.92Q817.7,68.68,817.7,65.56Zm.85,23.06a5.63,5.63,0,0,1,2.57-1.11,31.06,31.06,0,0,0,9.07-2.82q-6.75-4.23-6.75-6.14a2.17,2.17,0,0,1,.7-1.66,2.56,2.56,0,0,1,1.82-.66,4.67,4.67,0,0,1,2.06.46,16.07,16.07,0,0,1,2.57,1.66,42.3,42.3,0,0,0,6.14,3.82,50.62,50.62,0,0,0,9.47-5.74,1.38,1.38,0,0,0,.5-.8c0-.47-.37-.71-1.11-.71H821.73c-2.15,0-3.23-.9-3.23-2.72s1.08-2.71,3.23-2.71h29.2q6,0,6.05,3.72t-13.3,11.38a68.06,68.06,0,0,0,14.4,2.22c2.49.07,3.73,1.07,3.73,3q0,3.32-3.63,3.32-8.46,0-21.35-5a75.62,75.62,0,0,1-9.51,3.82,23.11,23.11,0,0,1-6.2,1.31,3.93,3.93,0,0,1-2.57-.65,2.48,2.48,0,0,1-.75-2A2.62,2.62,0,0,1,818.55,88.62Z"/><path class="b71d6765-7959-49b1-92ae-fdf48a1396f8" d="M896.66,77.84a169.08,169.08,0,0,1-2.72,32.63,59,59,0,0,1-9.77,22.26q-2.82,4-5.14,4a4,4,0,0,1-3.12-1.11,5,5,0,0,1-1-3.42,6.92,6.92,0,0,1,1.81-3.83q8.87-10.68,11.28-28.3l-7,4.84a5.62,5.62,0,0,1-2.71,1.1q-4,0-4-4.23a4.06,4.06,0,0,1,2.21-3.42L888.4,92c.13-4.69.2-8.22.2-10.57V63.64q0-7.55,7.55-7.55h27V51.46c0-2.89,1.55-4.33,4.63-4.33s4.54,1.44,4.54,4.33v4.63h29.3c2.76,0,4.13,1.18,4.13,3.53s-1.37,3.52-4.13,3.52H899.17a2.22,2.22,0,0,0-2.51,2.52ZM874.9,66.46a3.1,3.1,0,0,1,.66-2.92,3.74,3.74,0,0,1,3-1.2c1.54,0,2.65.87,3.32,2.61a47.83,47.83,0,0,1,2,6.5c.64,2.65,1.1,4.92,1.36,6.8a3.32,3.32,0,0,1-2.92,4.23,3.28,3.28,0,0,1-.9.1q-2.52,0-3.23-2.82Q876.41,74,874.9,66.46Zm42.4,57.31a4.11,4.11,0,0,1-1.51,3,35.06,35.06,0,0,1-6.85,4.73q-7.85,4.13-11.18,4.13a3.36,3.36,0,0,1-2.62-1,3.63,3.63,0,0,1-.9-2.51,3.15,3.15,0,0,1,1-2.22,5.88,5.88,0,0,1,2.56-1.51,43.14,43.14,0,0,0,13.1-7.05,4.67,4.67,0,0,1,2.92-1.21,3.15,3.15,0,0,1,2.61,1.31A3.35,3.35,0,0,1,917.3,123.77ZM966,97.58a3.78,3.78,0,0,1-.4,1.72,3.61,3.61,0,0,1-3.42,2.41,5.41,5.41,0,0,1-2-.5,56.49,56.49,0,0,1-6.14-3.53V110q0,7.65-7.76,7.65H934.72v13.7a7.37,7.37,0,0,1-2.06,5.59,7.92,7.92,0,0,1-5.69,2h-8.06a4.37,4.37,0,0,1-3-.85,3.4,3.4,0,0,1-1-2.67q0-3.63,3.93-3.63h4.84c2.08,0,3.12-1,3.12-3V117.62h-12q-7.65,0-7.65-7.65V98.09a23.82,23.82,0,0,1-5.84,2.92,8.89,8.89,0,0,1-1.41.2,2.91,2.91,0,0,1-2.22-.86,3.14,3.14,0,0,1-.8-2.26,2.91,2.91,0,0,1,.75-2,9.11,9.11,0,0,1,2.47-1.76,57.24,57.24,0,0,0,7.55-5l-4.43-4a4.09,4.09,0,0,1-1.71-2.82c0-2,1.07-3,3.22-3q2,0,8,5.23a47.54,47.54,0,0,0,5.54-6.85H902.8q-4,0-4-3.42,0-3.63,4-3.63h19.44l1.51-3.72q1.31-3.22,4.13-3.22a5,5,0,0,1,3,.8A2.71,2.71,0,0,1,932,67a10.7,10.7,0,0,1-1.1,3.82H960q4,0,4,3.63,0,3.42-4,3.42H942.88a47.71,47.71,0,0,0,7,7.76l3.42-3.93c1.21-1.34,2.35-2,3.43-2,2.41.13,3.62,1.21,3.62,3.22,0,1.48-1.78,3.69-5.33,6.65q3.53,2.2,8.36,4.63Q966,95.47,966,97.58Zm-19.53-1.41c0-1.2-.68-1.88-2-2H917c-1.41,0-2.12.67-2.12,2V99.3h31.63Zm0,9.37H914.88v2.82a2.49,2.49,0,0,0,2.82,2.82h26.09c1.81,0,2.72-.94,2.72-2.82Zm-19.34-27.7a75,75,0,0,1-7.75,9.87h23.36a42.84,42.84,0,0,1-6.55-9.87ZM964,129.46a3.69,3.69,0,0,1,.65,2.16,4.09,4.09,0,0,1-1.25,3,3.27,3.27,0,0,1-3.18.86,37.69,37.69,0,0,1-8.76-3.63,53.19,53.19,0,0,1-8.36-5.43,3.57,3.57,0,0,1-1.51-2.82,3.09,3.09,0,0,1,1-2.22,3,3,0,0,1,2.11-1,5.74,5.74,0,0,1,3,1.11,57.73,57.73,0,0,0,7,3.73A69,69,0,0,0,962,128.1,3.55,3.55,0,0,1,964,129.46Z"/><path class="b71d6765-7959-49b1-92ae-fdf48a1396f8" d="M977.32,132.43a9.37,9.37,0,0,1,1.21-3.73q6.94-14.19,7-47.43V65.36q0-10,9.17-10h27V51.06c0-2.56,1.55-3.83,4.64-3.83s4.63,1.27,4.63,3.83v4.33h33.84q3.93,0,3.93,3.52t-3.93,3.63H997.26a4,4,0,0,0-2.92.9,3.88,3.88,0,0,0-.9,2.82v6.25q0,23.35-.91,34.14a95.82,95.82,0,0,1-4,21.55q-2.82,9-7,9T977.32,132.43Zm15-.2a15.6,15.6,0,0,1,1.61-4.53,67.06,67.06,0,0,0,2.52-7.76q1-3.93,3.93-3.93c2.35,0,3.52,1.15,3.52,3.43q0,2.61-2.32,9.77-2.12,6.73-5.33,6.74Q992.33,136,992.33,132.23Zm10-23.57V85q-3.33,4.33-5.14,4.34-3.12,0-3.12-3.63,0-1.52,2.12-4,3.92-4.53,9.66-15.11,1.92-3.32,4-3.32,3.82,0,3.83,3,0,1.21-4.13,8.06l-.2.3v34q0,3.82-3.53,3.83T1002.3,108.66Zm16.92-4.93V83.48c-2.49,3.09-4.33,4.64-5.54,4.64q-3.12,0-3.12-3.53a4.25,4.25,0,0,1,1-2.06c.64-.91,1.73-2.33,3.28-4.28a73.37,73.37,0,0,0,8-12.09c1.08-2,2.45-3,4.13-3q3.63,0,3.63,2.82c0,.67-.78,2.25-2.32,4.73l.2.1h11.79l2.31-4.43c1.08-2,2.35-3,3.83-3,2.42,0,3.62,1,3.62,3,0,1.08-.63,2.56-1.91,4.43h15.11c2.35,0,3.52,1,3.52,3.13s-1.17,3-3.52,3h-15.91v5.34h13.19q3.31,0,3.32,2.92T1060.41,88h-13.19v5.43h13.19q3.31,0,3.32,2.93c0,1.94-1.11,2.92-3.32,2.92h-13.19v5.43H1064q3.53,0,3.53,3t-3.53,3.13h-37.56Q1019.21,110.88,1019.22,103.73Zm-5.24,32a5,5,0,0,1-2.92-4.93V118.33q0-4.23,3.63-4.23,3.82,0,3.82,4.23V127c0,1.34.17,2.12.51,2.32a7.66,7.66,0,0,0,2.46.5c1.31.13,2.81.23,4.49.3l3.12.2c.87.07,2.08.1,3.62.1a39.36,39.36,0,0,0,5.79-.35,12.33,12.33,0,0,0,3.38-.85,3,3,0,0,0,1.16-1.36,6.35,6.35,0,0,0,.55-2.17q.3-4.53,4.13-4.53,4.13,0,4.13,4.53,0,7.15-3.53,9.37-3.72,2.31-20.14,2.31Q1017.41,137.36,1014,135.75Zm15-13.49-1.92-2.52a17.62,17.62,0,0,1-1-1.46,2.29,2.29,0,0,1-.41-1.16q0-3.32,4.13-3.32c1,0,2.55,1.11,4.64,3.32s3.12,3.86,3.12,5.14c0,2.28-1.25,3.42-3.73,3.42Q1031.71,125.68,1029,122.26Zm11.28-45.32h-12.49c-1.08,0-1.61.57-1.61,1.71v3.63h14.1Zm0,16.51V88h-14.1v5.43Zm0,5.85h-14.1v2.61a3.18,3.18,0,0,0,.6,2.17,2.62,2.62,0,0,0,2,.65h11.48ZM1061,130.62q-1.3-1.81-2.72-3.53-1.5-1.91-3.92-5.34a5.18,5.18,0,0,1-1.31-3c0-2.28,1.2-3.42,3.62-3.42q2.41,0,7.76,6.44t5.23,8.36c0,2.69-1.37,4-4.13,4C1064.13,134.14,1062.62,133,1061,130.62Z"/><path class="b71d6765-7959-49b1-92ae-fdf48a1396f8" d="M1143.59,133.94q0-4.12,4.13-4.13h5.34a4.26,4.26,0,0,0,3.22-1.16,4.39,4.39,0,0,0,1.11-3.17V105.64H1130.6v26.69q0,4.53-3.92,4.53t-4-4.53V105.64h-25.89q-1.6,15.7-4.53,23.92t-7,8.21q-4.23,0-4.23-4.54a9.82,9.82,0,0,1,1.31-3.42q3.93-7.05,5.64-19.24t1.71-41.19l-.2-9.46q-.09-8.76,10.28-8.76h55.49c3.69-.27,6.38.43,8,2.11s2.39,4.37,2.12,8.06v65.76q.71,11.79-10.78,11h-7Q1143.6,138.07,1143.59,133.94Zm-20.94-35.65V81.77h-25.08l-.4,16.52Zm0-39.78H1102.4a4,4,0,0,0-3.62,1.86,9.36,9.36,0,0,0-1.11,5.39v8.66h25Zm34.74,4.63a4.64,4.64,0,0,0-1.21-3.37,4.37,4.37,0,0,0-3.32-1.26H1130.6V74.42h26.79Zm0,35.15V81.77H1130.6V98.29Z"/><path class="b71d6765-7959-49b1-92ae-fdf48a1396f8" d="M1219.23,124q0,3.12-13,8.66-13.31,5.64-17.93,5.64-3.82,0-3.83-4.33c0-2.28,1.92-3.83,5.74-4.63a71,71,0,0,0,20.14-7.66q3.63-2,4.44-2Q1219.22,119.64,1219.23,124Zm-34.65-10.78c0-2.62,1.11-3.92,3.33-3.92h4l-1.1-48.45q-.11-6,4.43-7.85l6.75-2.52,3.72-1.51a17.29,17.29,0,0,1,3.73-1.31q3.93,0,3.93,4.53a2.8,2.8,0,0,1-1.21,2.32l-7,2.92a36.89,36.89,0,0,0-4.63,2.22c-1,.6-1.55,1.2-1.62,1.81l.31,8.86h11.07q3.33,0,3.33,3.83t-3.33,3.72h-10.87l.3,11h10.57q3.33,0,3.33,3.83c0,2.42-1.11,3.62-3.33,3.62h-10.37l.3,13h34v-27a3,3,0,0,0-.7-2.22,3.38,3.38,0,0,0-2.22-.81h-6.44q-7.15,0-7.15-7.25V50.75c0-2.35,1.2-3.52,3.62-3.52s3.63,1.17,3.63,3.52V54h12.59a5.46,5.46,0,0,1,3.42,1,3.44,3.44,0,0,1,1.21,2.87c0,2.49-1.55,3.73-4.63,3.73H1225v7.65a2.58,2.58,0,0,0,2.92,2.92h6.34q7.45,0,7.46,7.36v29.81h17.42l.3-13h-10.67c-2.29,0-3.43-1.2-3.43-3.62s1.14-3.83,3.43-3.83h10.77l.4-11h-11.17q-3.43,0-3.43-3.82t3.43-3.73h11.38l.2-8q.2-3.33-3.53-3.33h-8.66q-3.63,0-3.63-3.93t3.63-3.92h12.19q4.23,0,6.34,1.71a5.87,5.87,0,0,1,2,5l-1.51,51.37h5c2.35,0,3.53,1.3,3.53,3.92s-1.18,3.73-3.53,3.73h-84.29Q1184.58,116.92,1184.58,113.19Zm33.14-11.88V87.21q0-3.93,3.82-3.93,3.63,0,3.63,3.93v14.1q0,3.93-3.63,3.93Q1217.72,105.24,1217.72,101.31Zm56.14,29.61a4.16,4.16,0,0,1,1,2.82q0,4.42-4.53,4.43-6.55,0-18.74-5.64-12-5.44-12-8.56,0-4.12,4.43-4.13a7.33,7.33,0,0,1,3.53,1.41q9.66,5.75,23.56,8.26A4.48,4.48,0,0,1,1273.86,130.92Z"/><path class="b71d6765-7959-49b1-92ae-fdf48a1396f8" d="M1304.53,134.24q0-4.12,4.23-4.13H1312a3.44,3.44,0,0,0,2.52-.9,3.94,3.94,0,0,0,1-2.62V103.93h-14.1q-.3,16-3.33,24.47a24.21,24.21,0,0,1-3.32,6.7,4.8,4.8,0,0,1-3.73,2.16q-4.23,0-4.23-4,0-1.2,2-5.13,4.73-9.06,5.13-29l.1-38.67q0-9.36,8.57-9.36h12.18q4.64,0,6.7,2c1.37,1.34,2,3.49,1.86,6.45V127.9q0,5.53-3,8.25c-1.68,1.62-4.1,2.35-7.25,2.22h-4.23Q1304.53,138.37,1304.53,134.24Zm11-73a2.71,2.71,0,0,0-.81-2.07,3.14,3.14,0,0,0-2.22-.75h-7.85q-3.12,0-3.12,3.42l.1,12.19h13.9Zm0,35.65V81.07h-13.9V96.88Zm14.9,37.26V60.22q0-4.83,2.12-7c1.41-1.48,3.69-2.11,6.84-1.91h26.19q4.64-.4,6.9,1.81t2.06,6.85V69c0,4.17-1.27,7.15-3.83,9s-7.85,2.61-15.91,2.61c-3.36,0-5-1.41-5-4.23s2.45-4.23,7.35-4.23c3.83,0,6.51-.3,8.06-.9.87-.27,1.3-1.31,1.3-3.12V62.54q0-3.43-3.12-3.43h-21.45a3.4,3.4,0,0,0-2.52.91,3.87,3.87,0,0,0-1,2.62V84.49h30.21q7.35,0,7.35,5.24,0,4.42-4,13.69a89.88,89.88,0,0,1-9.16,16.32,50.11,50.11,0,0,0,13.39,9.57,4.44,4.44,0,0,1,2.72,4.13,4.61,4.61,0,0,1-1.61,3.42,3.89,3.89,0,0,1-2.62,1.21q-5.34,0-16.92-11.89-10.37,11.58-14.7,11.59c-2.49,0-3.73-1.45-3.73-4.33,0-1.15,1.85-3.16,5.54-6a63.91,63.91,0,0,0,7.86-7.25,46.89,46.89,0,0,1-7.15-12.59q-2.73-6.84-2.72-9.76t4-3a3.32,3.32,0,0,1,2.92,1.31l2.82,8.06a39.9,39.9,0,0,0,5,9.37,97,97,0,0,0,6.35-11.28q3.12-6.75,3.12-8.66c0-1-.64-1.52-1.91-1.52h-26.79v42.1c0,3.22-1.35,4.83-4,4.83S1330.41,137.36,1330.41,134.14Z"/><path class="b71d6765-7959-49b1-92ae-fdf48a1396f8" d="M1396.27,134.44q0-3.93,4.13-3.93h4c2.28,0,3.49-1.2,3.63-3.62V99.5a77.63,77.63,0,0,1-7.86,15c-3.16,4.7-5.4,7-6.75,7-2.41,0-3.62-1.37-3.62-4.13,0-1,1.37-3.09,4.13-6.24a59.56,59.56,0,0,0,12.39-22.06h-12.09q-3.93,0-3.93-3.52t3.93-3.53h32q6.24,0,6.24,3.93,0,1.71-4.53,9.87t-6.45,8.16q-3.93,0-3.93-3.32c0-.61,1-2.35,2.92-5.24s2.83-4.6,2.83-5.54c0-.54-.34-.81-1-.81h-6.95V128.4q.81,10.57-9.87,10h-5.14Q1396.28,138.37,1396.27,134.44Zm12.29-55.19a70.07,70.07,0,0,0-5.24-4.93q-2.71-2.22-4.43-3.42c-2-1.41-3-2.66-3-3.73,0-2.22,1.14-3.32,3.43-3.32q2.61,0,10.17,6.34,9.87-9.36,9.87-11.28c0-.33-.54-.5-1.61-.5h-22.66q-4,0-4-3.53t4-3.52h28.6q6.64,0,6.64,4.33a3,3,0,0,1-.55,1.66c-.37.57-1,1.36-1.76,2.37a156.87,156.87,0,0,1-13.9,14.4q3.23,2.92,3.22,4.53,0,3.42-3.93,3.42Q1411.38,82.07,1408.56,79.25Zm43.1,54.89c0-2.55,1.25-3.83,3.73-3.83l4.83.2c3.36.07,5.51-.84,6.45-2.71s1.71-5.88,2.32-11.79l.2-2.82c.13-1.61-.81-2.41-2.82-2.41h-12.89q-2.73,16.81-19,24.57-5.94,2.82-8.46,2.82-3.52,0-3.52-4.43c0-1.61,1.27-2.82,3.83-3.63q16.31-5.43,19.83-19.33h-14.9q-4,0-4-3.53t4-3.52h15.51l.1-1.51q.3-5.34.91-6.25.6-1.11,3.12-1.11,3.93,0,3.93,3.33l-.41,5.23v.31H1469q8.05,0,8,6.84,0,13.1-2.72,20.25-2.91,7.55-14.7,7.55Q1451.67,138.37,1451.66,134.14Zm-22.25-37.56a3,3,0,0,1,1.31-2.82c.47-.27,2.61-1.08,6.44-2.42a40,40,0,0,0,12.39-6.75,44.1,44.1,0,0,1-9.77-16.51q-6.75,10.26-9.67,10.27-3.52,0-3.52-3.73a5,5,0,0,1,1.81-3.32q7.15-7.15,12.09-20.65,1.1-3.32,4.13-3.32,3.83,0,3.82,3.32,0,1.22-2.52,6.75h31.83q4.13,0,4.13,3.73t-4.13,3.62h-5.84a53.41,53.41,0,0,1-11.28,19.44,88.55,88.55,0,0,0,17.72,8q3.63,1.2,3.63,4,0,4.23-3.93,4.23-2.41,0-10.27-3.62A67,67,0,0,1,1455,89.43a91,91,0,0,1-12.69,7.65q-6.85,3.42-9.47,3.42Q1429.41,100.5,1429.41,96.58Zm34-31.83h-18q3.52,10.17,9.47,15.21A35,35,0,0,0,1463.45,64.75Z"/><rect class="b48ba6a5-e4c3-4c13-8323-9e594d840851" width="1500" height="200"/></svg>