<svg id="e983289e-2e3b-4459-8977-2f1dc03f26d3" data-name="圖層 1" xmlns="http://www.w3.org/2000/svg" viewBox="0 0 1500 200"><defs><style>.bc221613-d5ac-4a4c-b0d0-05bb78310698{fill:none;}.bbac028b-2ae5-4a23-8716-96e9ac2daccf{fill:#2c3e50;}</style></defs><rect class="bc221613-d5ac-4a4c-b0d0-05bb78310698" width="1500" height="200"/><path id="bb01a668-64dd-4074-98fc-e341cef7ceb5" data-name="acb91bb3-5110-4d8e-a92c-ad6b294c7d0a" class="bbac028b-2ae5-4a23-8716-96e9ac2daccf" d="M152.23,155.14H122.39a2.91,2.91,0,0,1,0-5.82h26.93V50.68H92.4V60.92a2.91,2.91,0,0,1-5.82,0V47.77a2.91,2.91,0,0,1,2.91-2.91h62.74a2.91,2.91,0,0,1,2.91,2.91h0V152.23a2.91,2.91,0,0,1-2.91,2.91Zm-62.74,0H68.64a2.91,2.91,0,0,1,0-5.82H86.58V136H47.77a2.91,2.91,0,0,1-2.91-2.91h0V73.37a2.91,2.91,0,0,1,2.91-2.91h83.45a2.9,2.9,0,0,1,2.9,2.9h0v59.69a2.9,2.9,0,0,1-2.89,2.91H92.4v13.35h17.95a2.91,2.91,0,1,1,0,5.82H89.49Zm0-25h38.82V76.27H50.68v53.88Zm22.86-18.55H66.63a2.91,2.91,0,0,1,0-5.82h45.72a2.91,2.91,0,1,1,0,5.82Zm-10.29-11H76.92a2.91,2.91,0,1,1-.34-5.81,1.93,1.93,0,0,1,.34,0h25.14a2.91,2.91,0,1,1,.34,5.81Z"/><path class="bbac028b-2ae5-4a23-8716-96e9ac2daccf" d="M277.39,70.09v64.15q0,5-4.33,5c-2.68,0-4-1.68-4-5V86.81a71.39,71.39,0,0,1-5.84,9.67c-1.68,2.21-3,3.32-3.92,3.32-2.49,0-3.74-1.51-3.73-4.53q0-1.92,3.52-7.15,9.78-15,16.52-35.76a10.24,10.24,0,0,1,2-3.77,3.68,3.68,0,0,1,2.77-1.26q4.74,0,4.74,3.93Q285,53.87,277.39,70.09Zm39.68-.3v14.8h20.35c3.15,0,4.72,1.31,4.73,3.93s-1.57,3.93-4.73,3.93H317.07v14.9h23.77q4.83,0,4.83,3.93t-4.83,3.93H317.07v18.93c0,3.42-1.41,5.14-4.23,5.14s-4.23-1.72-4.23-5.14V69.79h-8.46a92.32,92.32,0,0,1-8.56,14c-2.48,3.15-4.53,4.72-6.14,4.73q-3.93,0-3.93-4.43,0-1.62,2.22-4.33A81,81,0,0,0,292.1,67a128.48,128.48,0,0,0,6.95-15.36q1.5-3.93,4.53-3.93,4.43,0,4.43,3.53,0,2-3.93,10.67h38.37a5.64,5.64,0,0,1,3.58,1,4,4,0,0,1,.19,5.65c-.06.07-.13.13-.19.19a5.64,5.64,0,0,1-3.58,1Z"/><path class="bbac028b-2ae5-4a23-8716-96e9ac2daccf" d="M450.71,132.13a5,5,0,0,1-.95,3.32,2.86,2.86,0,0,1-2.67.91q-3.43-.41-14.2-4-15.61-5.24-24.58-14.1v16.41q0,4.74-4,4.74t-4-4.74V118.53A101,101,0,0,1,380,130.92q-12.3,5.84-17.63,5.84c-2.42,0-3.62-1.38-3.62-4.13q0-2.82,4.12-3.83a99.85,99.85,0,0,0,18.33-6.49,105,105,0,0,0,16.62-9.62h-35.1a4.93,4.93,0,0,1-3.12-.81,3.17,3.17,0,0,1-1-2.61,3,3,0,0,1,1-2.52,4.93,4.93,0,0,1,3.12-.81h37.57V99.7H371q-3.72,0-3.72-3.33T371,93.05h29.31V86.61H366.42c-2.55,0-3.83-1.15-3.83-3.43s1.28-3.32,3.83-3.32h18.33l-2.72-10H363.2q-3.93,0-3.93-3.53c0-2.35,1.31-3.53,3.93-3.52h27.19V52c0-3.09,1.27-4.63,3.83-4.63s3.92,1.54,3.92,4.63V62.84h11.69V52c0-3.09,1.27-4.64,3.82-4.63s3.86,1.55,3.93,4.63V62.84h28.5q4,0,4,3.52c0,2.35-1.33,3.52-4,3.53H426.14l-3.32,10h20q3.93,0,3.93,3.32c0,2.28-1.31,3.43-3.93,3.43H408.31v6.44h30q3.62,0,3.62,3.32t-3.62,3.33h-30V106h37.87q4,0,4,3.33t-4,3.42H410.73A65.18,65.18,0,0,0,426.09,122a90,90,0,0,0,19.59,5.94C449,128.51,450.7,129.91,450.71,132.13ZM372.76,57.9c-1.94-2.48-2.92-4.13-2.92-4.93,0-2.22,1.35-3.32,4-3.32,1.81,0,3.59,1.2,5.34,3.62s2.72,4.06,2.72,4.94c0,2.28-1.35,3.42-4,3.42C376.36,61.63,374.64,60.39,372.76,57.9ZM390,69.9l2.92,10h22.35l2.82-10Zm36.15-11.48a5.42,5.42,0,0,1,.91-1.87c.6-1,1.1-1.86,1.51-2.66q2.61-5,5.64-5,3.82,0,3.82,3.22,0,2.22-2.82,5.94c-1.94,2.56-3.66,3.83-5.13,3.83q-3.93,0-3.93-3.47Z"/><path class="bbac028b-2ae5-4a23-8716-96e9ac2daccf" d="M510.54,104.33v29.91c0,3.16-1.38,4.73-4.13,4.73a4.12,4.12,0,0,1-3.18-1.15,5.23,5.23,0,0,1-1.05-3.58v-29.3q-22.67,1.41-35.35,1.81c-2.62.07-3.93-1.38-3.93-4.33a3.53,3.53,0,0,1,1.91-3.53q1.41-.7,10.88-.7,8.76,0,17-.51L497.44,93l.61-.3A183.72,183.72,0,0,0,477.4,79.46c-4.16-2.15-6.24-4-6.24-5.44a4,4,0,0,1,1.06-3,4.75,4.75,0,0,1,3.37-1,7.26,7.26,0,0,1,3.62,1.41l4.44,2.42,3.22,1.91,10.27-14.5-11.68,1-16,.71c-2.67.07-4-1.3-4-4.13,0-2.62,2-3.93,6.14-3.93h4.63q36.76-1.41,57.21-6a38.86,38.86,0,0,1,6.24-1.21c3.09,0,4.63,1.55,4.63,4.63A3.49,3.49,0,0,1,542,55.49a21,21,0,0,1-4.28,1c-2.12.37-4.55.75-7.3,1.16q-12,1.71-23.37,2.72l-14.6,19,1.31.7,9.56,6.65q7.67-8.27,13.8-16.12,5.83-7.35,8.26-7.35,4.64,0,4.63,4.13,0,1.92-6.85,9.67a253.11,253.11,0,0,1-19.53,19.23l-1.21,1.21q18.23-.49,34.24-1.61l-.81-.8-4.73-5.24c-1.54-1.68-2.32-3-2.32-3.93,0-2.21,1-3.31,3.13-3.32.94,0,2.36.8,4.28,2.42s4.54,4.16,7.9,7.65a78.2,78.2,0,0,1,7,8.21q2.42,3.38,2.42,5c0,2.49-1.45,3.73-4.33,3.73q-2.12,0-4.94-3.63l-3-4.13Q526.33,103.32,510.54,104.33Zm-22.16,9.77q0,1.41-2.27,4.58a80.94,80.94,0,0,1-6.49,7.71q-8.76,9.36-12.89,9.36a3.68,3.68,0,0,1-2.82-1,4.31,4.31,0,0,1-.91-3.07c0-1.61,1.14-3.18,3.42-4.73a49.73,49.73,0,0,0,12-11.78c2.35-3.16,4.29-4.74,5.84-4.74Q488.39,110.48,488.38,114.1Zm64.25,16.82q0,4.43-4.33,4.43T534.1,126Q524,116.43,524,113.5a3.27,3.27,0,0,1,1-2.57,4.5,4.5,0,0,1,3.07-.86c1.27,0,3.22,1.45,5.84,4.33A58.23,58.23,0,0,0,549,126.49q3.63,1.91,3.63,4.43Z"/><path class="bbac028b-2ae5-4a23-8716-96e9ac2daccf" d="M565.67,128.65a3.39,3.39,0,0,1-.95-2.67,9.7,9.7,0,0,1,.9-3.62,45.72,45.72,0,0,0,2.92-16q.11-4.42,3.53-4.43a4.2,4.2,0,0,1,2.77.76,3.13,3.13,0,0,1,.85,2.47l-.1,2.72q-1.5,21.65-7,21.65A4.38,4.38,0,0,1,565.67,128.65Zm14.76,6.4V96.78L568.85,98a3.5,3.5,0,0,1-3-.86,4.29,4.29,0,0,1-1-3.07,3.1,3.1,0,0,1,2.86-3.33h.06l5-.4H574l6.14-9.26a109.06,109.06,0,0,0-12-9.87c-1.81-1.21-2.71-2.49-2.72-3.83,0-2.48,1.21-3.73,3.63-3.73.8,0,2.08.68,3.82,2l.61.4a94.42,94.42,0,0,0,7.15-14.6c1.07-2.75,2.62-4.13,4.63-4.13q3.93,0,3.93,3.73t-10.58,19l5.44,4.63L591.1,62.5a4,4,0,0,1,3.53-2.12q3.82,0,3.82,3.73,0,4.53-16.61,25.78l1.21-.1,9.66-.4.51-.11-1-2.71a8.39,8.39,0,0,1-.5-2.62c0-1.88,1-2.82,2.92-2.82q2,0,4.73,6.75C601.12,92.19,602,95,602,96.17q0,3.43-3.53,3.43a2.64,2.64,0,0,1-2.11-1.16A7.68,7.68,0,0,1,595,95.17l-6.75.8v39.08c0,2.95-1.31,4.42-3.93,4.43s-3.92-1.47-3.89-4.43Zm14.8-10.88-.3-1.41-2.42-17.93a2.22,2.22,0,0,1,.71-2.21,4.36,4.36,0,0,1,2.72-.71q3,0,4.23,6.75,1.91,11,1.91,13.3,0,3.72-3.73,3.72A3.49,3.49,0,0,1,595.23,124.17Zm2.72,9.57c0-1.28.81-2.45,2.42-3.53q13.89-8.55,15.1-34.54l-8.76.6c-2.48.21-3.72-1-3.72-3.72s3.12-3.93,9.36-3.93l.2-.1a178.22,178.22,0,0,0,5.64-19.64v-.6H604.7q-4,0-4-3.63t4-3.52h18.63V52.36c0-3.28,1.31-4.93,3.93-4.93s3.92,1.65,3.92,4.93v8.77h20.55c2.95,0,4.42,1.17,4.43,3.52s-1.47,3.56-4.43,3.63H626.35a105.55,105.55,0,0,1-6.85,19.94l23.06-1.61L639,81.27q-2.22-3.33-2.22-4.23,0-3,3.53-3c1.07,0,2.75,1.47,5,4.43a123.31,123.31,0,0,1,8.46,13.09,26.16,26.16,0,0,1,1.51,2.62,4.61,4.61,0,0,1,.61,1.91q0,3.52-3.83,3.53-2.12,0-4.63-4.43L646,92.45l-7.25.9v31.12q0,3,1.11,3.93c.46.4,1.94.6,4.43.6q3.21,0,3.93-1.2c.67-1.21,1-3.36,1.1-6.45a8.68,8.68,0,0,1,1-4.18,3,3,0,0,1,2.77-1.36q3.72,0,3.72,3.83a33.75,33.75,0,0,1-1.81,12q-1.82,4.63-12.18,4.64-6.15,0-8.36-1.31-2.62-1.51-2.62-6.15V94.16l-8.66.91h-.51l-.2,5.23q-.71,17.13-8.15,27.6-7,10-12.69,10-3.68,0-3.63-4.16Z"/><rect class="bc221613-d5ac-4a4c-b0d0-05bb78310698" width="1000" height="200"/></svg>