<svg id="圖層_1" data-name="圖層 1" xmlns="http://www.w3.org/2000/svg" viewBox="0 0 787 172"><defs><style>.cls-1{fill:none;}.cls-2{fill:#2c3e50;}</style></defs><rect class="cls-1" width="787" height="172"/><path class="cls-2" d="M275.67,182.18V208c0,2.72-1.19,4.09-3.57,4.09a3.53,3.53,0,0,1-2.74-1,4.48,4.48,0,0,1-.91-3.08V182.7q-19.57,1.23-30.53,1.57-3.39.09-3.39-3.74a3,3,0,0,1,1.65-3q1.22-.62,9.39-.61,7.58,0,14.7-.44l4.09-4.09.52-.26a157.84,157.84,0,0,0-17.83-11.39c-3.59-1.86-5.39-3.42-5.39-4.7a3.44,3.44,0,0,1,.91-2.61,4.13,4.13,0,0,1,2.92-.87,6.38,6.38,0,0,1,3.13,1.22l3.83,2.09,2.78,1.65L264.1,145l-10.09.87-13.83.61q-3.48.09-3.48-3.56,0-3.41,5.31-3.4h4q31.74-1.22,49.41-5.22a34.6,34.6,0,0,1,5.39-1q4,0,4,4a3,3,0,0,1-2,2.79,18,18,0,0,1-3.7.91c-1.82.32-3.93.65-6.3,1q-10.37,1.49-20.18,2.35L260,160.7l1.13.61,8.27,5.74q6.6-7.14,11.91-13.92,5.06-6.34,7.14-6.35c2.66,0,4,1.19,4,3.57q0,1.65-5.92,8.35a221.12,221.12,0,0,1-16.87,16.61l-1.05,1q15.75-.43,29.58-1.39l-.7-.69-4.08-4.53q-2-2.18-2-3.39c0-1.91.9-2.87,2.7-2.87.81,0,2.05.7,3.7,2.09s3.93,3.59,6.83,6.61a68.81,68.81,0,0,1,6.08,7.09c1.4,1.94,2.09,3.38,2.09,4.3q0,3.23-3.74,3.22-1.83,0-4.26-3.13l-2.61-3.57Q289.33,181.32,275.67,182.18Zm-19.14,8.44q0,1.22-1.95,4a71.9,71.9,0,0,1-5.61,6.65q-7.58,8.09-11.14,8.09a3.24,3.24,0,0,1-2.43-.82,3.81,3.81,0,0,1-.79-2.66q0-2.09,3-4.09a42.93,42.93,0,0,0,10.35-10.17q3-4.1,5.05-4.09Q256.52,187.49,256.53,190.62ZM312,205.15q0,3.82-3.74,3.82T296,200.88q-8.68-8.25-8.69-10.78a2.82,2.82,0,0,1,.82-2.22,4,4,0,0,1,2.66-.74q1.65,0,5,3.74a50.93,50.93,0,0,0,13,10.44Q312,203,312,205.15Z" transform="translate(-107 -128)"/><path class="cls-2" d="M323.08,203.49q0-3.48,4-3.48h28.35V137.56q0-4.26,3.74-4.26,3.57,0,3.57,4.26v20.18h27q4.08,0,4.08,3.48t-4.08,3.57h-27V200h34.79q4.19,0,4.18,3.48t-4.18,3.57H327.08Q323.08,207.06,323.08,203.49Z" transform="translate(-107 -128)"/><path class="cls-2" d="M440.59,192.27q0,1.23-2.65,4a68.35,68.35,0,0,1-7.79,6.7,74.25,74.25,0,0,1-8.87,5.92q-3.82,2.09-5.83,2.08a2.62,2.62,0,0,1-2.17-1.13,4.13,4.13,0,0,1-1-2.61,2.69,2.69,0,0,1,1.22-1.95,32.81,32.81,0,0,1,3.83-2.57,81.93,81.93,0,0,0,15.05-11,12.17,12.17,0,0,1,2.65-2.09,4.59,4.59,0,0,1,2-.69Q440.59,189,440.59,192.27Zm-27.83-11.74q0-3.39,4.17-3.39h15V154.52H420.32q-4.26,0-4.26-3.3t4.26-3.4h11.57v-9.74q0-4.7,3.74-4.7c2.5,0,3.74,1.57,3.74,4.7v9.74h23.75V138q0-4.69,3.74-4.69T470.6,138v9.83h12q4.18,0,4.18,3.4t-4.18,3.3h-12v22.62H486a5.4,5.4,0,0,1,3.22.78,3.06,3.06,0,0,1,1,2.61q0,3.22-4.26,3.22H416.93Q412.76,183.75,412.76,180.53Zm26.61-26v22.62h23.75V154.52Zm51.24,52.71a3.76,3.76,0,0,1-.92,2.7,3.36,3.36,0,0,1-2.56,1q-3.83,0-14.62-8.35a89.15,89.15,0,0,1-7.74-6.57c-1.91-1.88-2.87-3.15-2.87-3.78a3,3,0,0,1,.87-2.4,4.13,4.13,0,0,1,2.7-.74q1.21,0,4.61,2.7A117.52,117.52,0,0,0,486.26,203Q490.61,205.33,490.61,207.23Z" transform="translate(-107 -128)"/><path class="cls-2" d="M505.13,208.19V146.61c-.23-3.42.45-6,2.05-7.57s4.16-2.32,7.7-2.09h51.84q5.29-.34,7.7,2.09c1.59,1.62,2.27,4.15,2,7.57V202q.69,10.44-10,9.83h-5.92a4.8,4.8,0,0,1-3.22-.91,3.58,3.58,0,0,1-1-2.83q0-3.73,4.26-3.74h5.57a3,3,0,0,0,2.26-.82,3.1,3.1,0,0,0,.78-2.22V148.43q0-4.52-4.52-4.52H517.14q-4.53,0-4.53,4.52v59.76c0,2.67-1.24,4-3.74,4S505.13,210.86,505.13,208.19Zm13-52.19q0-3.13,3.48-3.13h38.45q3.39,0,3.39,3.13t-3.39,3.13H521.66Q518.18,159.13,518.18,156Zm5.74,39.36q-1.74-1.7-1.56-5.44V175.57c0-2.55.56-4.4,1.69-5.57s3-1.68,5.53-1.56H552.1q3.92,0,5.7,1.69t1.61,5.44v14.35c0,2.56-.58,4.41-1.74,5.57s-3,1.68-5.57,1.57H529.58Q525.67,197.06,523.92,195.36Zm7.4-4.57h19.13a1.92,1.92,0,0,0,2.18-2.17V176.88a1.93,1.93,0,0,0-2.18-2.18H531.32a1.93,1.93,0,0,0-2.18,2.18v11.74A1.92,1.92,0,0,0,531.32,190.79Z" transform="translate(-107 -128)"/><path class="cls-2" d="M590,187.31a27.57,27.57,0,0,1,1.3-5,79.4,79.4,0,0,0,3.74-16.61,8.69,8.69,0,0,1,1.22-4.14,3.2,3.2,0,0,1,2.79-1.34c2.37,0,3.56,1.24,3.56,3.74q0,5.66-3.13,18.09a24.14,24.14,0,0,1-2.52,6.74,4,4,0,0,1-3.31,2.22Q590,191,590,187.31ZM616.21,209a4.94,4.94,0,0,1-3-2.21,8.6,8.6,0,0,1-1-4.4v-1.91q-14.09,8.09-17.31,8.09-3.48,0-3.48-4.09,0-2.17,5.05-4.26a96.31,96.31,0,0,0,15.74-7.83V153.91c0-2.66,1.19-4,3.57-4s3.48,1.34,3.48,4V187q6.94-5.83,15.31-19.58a117.08,117.08,0,0,0,11.56-24q1.57-4.78,4.09-4.79a4.09,4.09,0,0,1,2.87,1.13,3.2,3.2,0,0,1,1.22,2.27,9.43,9.43,0,0,1-1.22,3.82l-4.09,9.4q-11.38,26.26-29.74,40.27v4.09a3,3,0,0,0,1.78,2.78,11,11,0,0,0,5.35.87q15.39-.43,17.05-.87c2.32-.58,3.53-2.9,3.65-7q.18-5.39,4.09-5.39t4,3.92q0,10.08-3.57,13.22-3.3,2.86-20.18,2.87Q619.78,210,616.21,209Zm14.7-57.84c-2.09-1.8-4.17-3.51-6.26-5.13l-2.74-2.09a20,20,0,0,1-2.91-2.57,2.9,2.9,0,0,1-.88-1.78q0-3.57,3.75-3.57a8.56,8.56,0,0,1,3.39,1.18,37.56,37.56,0,0,1,5.39,3.61,42.59,42.59,0,0,1,6.18,5.39c1.39,1.57,2.14,2.78,2.26,3.65a3.76,3.76,0,0,1-.65,2.83,3,3,0,0,1-2.48,1Q633.79,153.65,630.91,151.13Zm29.4,33.75q-.87-2.61-7.22-15.22a6.28,6.28,0,0,1-.87-2.79q0-3,3.57-3c1.56,0,3.16,1.45,4.78,4.35q8.61,15.64,8.61,18.35,0,3.82-4.17,3.83C663.15,190.45,661.59,188.59,660.31,184.88Z" transform="translate(-107 -128)"/><path class="cls-2" d="M688.58,208.54V168.35q-4.7,10.1-7,10.09-2.68,0-2.69-3.48a8.52,8.52,0,0,1,1.3-3.83q7.57-13.31,13.4-35.31Q694.41,133,697,133q3.48,0,3.48,3,0,1.65-5.39,16.79v55.84c0,2.55-1.08,3.83-3.22,3.83S688.58,211.09,688.58,208.54Zm12.09-9V148.26q0-3.48,3.05-3.48a2.81,2.81,0,0,1,2.26.91,3.85,3.85,0,0,1,.78,2.57v51.23q0,3.48-3.13,3.48Q700.68,203,700.67,199.49Zm7.27,10.7a3.62,3.62,0,0,1-.83-2.61q0-2.87,5.65-3.48a83.43,83.43,0,0,0,37.41-14,7,7,0,0,1,3.56-1.57q3.39,0,3.39,3.31,0,3.57-13.83,10a111.75,111.75,0,0,1-30.35,8.79l-2.52.26A2.84,2.84,0,0,1,707.94,210.19Zm.21-39.06a3.08,3.08,0,0,1,1.92-3l4.43-1.3a57.8,57.8,0,0,0,12.62-5.4A38.73,38.73,0,0,1,719,149.65q-5.06,8.17-7.92,8.18c-1.91,0-2.87-1.05-2.87-3.13,0-.7.67-1.77,2-3.22q4.78-5,8.87-14.88,1.57-3.65,4.09-3.65c2,0,3,.9,3,2.7q0,1.22-2.18,5.39h29q3.48,0,3.48,3c0,2-1.16,3-3.48,3h-4.53a46.48,46.48,0,0,1-11,14.44q6,3.48,17,5.31c2.6.4,3.91,1.5,3.91,3.3q0,3.82-3.65,3.83-3,0-10-2.44a58.33,58.33,0,0,1-12.61-5.91q-14.7,9-20.79,9.05C709.23,174.62,708.15,173.46,708.15,171.13Zm4,14.14a3.13,3.13,0,0,1-.83-2.31c0-1.68,1.66-2.89,5-3.65a71,71,0,0,0,17-6.7,10.67,10.67,0,0,1,4-1.56q3.32,0,3.31,3.13c0,.81-.94,1.83-2.83,3a56.32,56.32,0,0,1-8.13,4.09q-11.4,4.78-15.22,4.79A3.13,3.13,0,0,1,712.11,185.27Zm0,9q0-2.52,3.65-3.13A77,77,0,0,0,742.25,181a5.37,5.37,0,0,1,2.52-.87,3.79,3.79,0,0,1,2.57.74,3,3,0,0,1,.83,2.31c0,1.51-2,3.19-5.92,5l-2.61,1.22Q733.9,192,731,193.05q-6.27,2.26-13,4a13.18,13.18,0,0,1-2.78.61Q712.07,197.67,712.07,194.27Zm29-47.23H723.81q3.74,7.4,8.35,11.13A30.27,30.27,0,0,0,741.12,147Z" transform="translate(-107 -128)"/><path class="cls-2" d="M129.28,263.11c-.54,1-1.31,2.17-2.32,3.64v23.53a2.8,2.8,0,0,1-.47,1.76,1.78,1.78,0,0,1-1.49.59c-1.27,0-1.9-.78-1.9-2.35v-18q-2.14,2.88-3.17,2.88c-1.18,0-1.76-.69-1.76-2a3.08,3.08,0,0,1,1-2,39.85,39.85,0,0,0,7.08-10.45,2,2,0,0,1,1.91-1.36c1.3,0,2,.62,2,1.85A5.45,5.45,0,0,1,129.28,263.11Zm-11-6c0-.68.55-1.43,1.66-2.25,1.46-1.1,2.4-1.83,2.83-2.19a20.25,20.25,0,0,0,2.68-2.88c.91-1.14,1.76-1.71,2.54-1.71a1.66,1.66,0,0,1,1.91,1.85c0,1.34-1.45,3.19-4.35,5.57s-4.8,3.66-5.42,3.66C118.88,259.13,118.27,258.45,118.27,257.08Zm17.13,16.65a1.88,1.88,0,0,1,.44,1.32,51.25,51.25,0,0,1-.66,8.2,12.24,12.24,0,0,1-2.31,5.32c-1.14,1.5-2.14,2.25-3,2.25a1.58,1.58,0,0,1-1.81-1.76,1.45,1.45,0,0,1,.34-.85c.23-.31.62-.77,1.17-1.39a8.86,8.86,0,0,0,2-4.47,47.66,47.66,0,0,0,.59-7.3,1.78,1.78,0,0,1,.49-1.32,1.93,1.93,0,0,1,1.41-.49A1.63,1.63,0,0,1,135.4,273.73Zm-4.24-5.61h14.06c1.2,0,1.81.57,1.81,1.7s-.61,1.71-1.81,1.71H131.16c-1.37,0-2-.57-2-1.71S129.79,268.12,131.16,268.12Zm-.88-7v-7.71c0-1.27.57-1.91,1.71-1.91a1.59,1.59,0,0,1,1.22.49,2.08,2.08,0,0,1,.44,1.42v6.88a1.24,1.24,0,0,0,.34,1,1.32,1.32,0,0,0,.93.31h1.41l-.05-11.28c0-1.36.59-2.05,1.76-2.05s1.76.69,1.76,2.05l0,11.28h1.51a1.32,1.32,0,0,0,.93-.31,1.24,1.24,0,0,0,.34-1v-6.88c0-1.3.59-2,1.76-2s1.66.65,1.66,2v7.71q0,3.76-3.71,3.76H134C131.51,264.84,130.28,263.59,130.28,261.08ZM149,282.62a2.2,2.2,0,0,1-.78,1.51,18.75,18.75,0,0,1-3.25,2.56,5.56,5.56,0,0,1-2.66,1c-1.4,0-2.1-.9-2.1-2.69v-9.86a1.66,1.66,0,0,1,1.85-1.91,1.73,1.73,0,0,1,1.3.49,2,2,0,0,1,.46,1.42v7.47c0,.32.12.49.34.49a7.59,7.59,0,0,0,1.86-1.42,2.11,2.11,0,0,1,1.42-.64,1.58,1.58,0,0,1,1.12.54A1.55,1.55,0,0,1,149,282.62Zm13.77,7.71a1.79,1.79,0,0,1-.49,1.22,1.9,1.9,0,0,1-1.61.88,2,2,0,0,1-1.47-.63,20.85,20.85,0,0,1-5.32-7.28,27,27,0,0,1-5,5.62q-2.72,2.24-4.23,2.24a1.27,1.27,0,0,1-1.1-.51,2.28,2.28,0,0,1-.36-1.34c0-.56.45-1.11,1.37-1.66A27.54,27.54,0,0,0,152,281.4a41,41,0,0,1-2-7.55,52.46,52.46,0,0,1-.76-9.15c-.65,1.3-1,2-1.12,2.19a1.71,1.71,0,0,1-.66.74,1.69,1.69,0,0,1-.85.24,1.54,1.54,0,0,1-.83-.24,1.51,1.51,0,0,1-.83-1.27,2.63,2.63,0,0,1,.34-1.08,38.92,38.92,0,0,0,3-6.95,78.82,78.82,0,0,0,2.4-8.67,1.89,1.89,0,0,1,.61-1.12,1.73,1.73,0,0,1,1.15-.4,2,2,0,0,1,1.39.47,1.59,1.59,0,0,1,.51,1.24,2.79,2.79,0,0,1,0,.59,38.12,38.12,0,0,1-2.2,7.67h9a1.93,1.93,0,0,1,1.37.46,1.79,1.79,0,0,1,.48,1.34,1.76,1.76,0,0,1-.48,1.34,1.93,1.93,0,0,1-1.37.47h-.93q-.24,13.14-4.25,19.77,1.62,2.44,2.88,4a22.46,22.46,0,0,0,3,3.05A2.36,2.36,0,0,1,162.75,290.33Zm-8.6-12.45q2.35-6.35,2.45-16.16h-4.45Q152.15,271.64,154.15,277.88Z" transform="translate(-107 -128)"/><path class="cls-2" d="M182,275.93l-2.79-4.15v18.65c0,1.46-.62,2.2-1.85,2.2s-1.81-.74-1.81-2.2V271.19q-3.22,10.69-5.81,10.69a1.67,1.67,0,0,1-1.25-.39,2.18,2.18,0,0,1-.36-1.46,3.77,3.77,0,0,1,.88-2A39.61,39.61,0,0,0,175,264h-4.39c-1.24,0-1.86-.58-1.86-1.75a1.62,1.62,0,0,1,1.86-1.81h5v-6.4a45.78,45.78,0,0,1-5.22.49,1.53,1.53,0,0,1-1.76-1.71,1.41,1.41,0,0,1,.34-1,1.87,1.87,0,0,1,1.17-.46c1.82-.23,3.79-.53,5.88-.91s3.72-.7,4.86-1a7.69,7.69,0,0,1,1.71-.29,2.26,2.26,0,0,1,1.44.41,1.41,1.41,0,0,1,.52,1.15c0,.62-.43,1.15-1.27,1.59a15.21,15.21,0,0,1-4,1.15v7h3.37a1.6,1.6,0,0,1,1.81,1.81c0,1.17-.6,1.75-1.81,1.75h-3.37v6.11a1.31,1.31,0,0,1,1.08-.59c.65,0,1.61.9,2.88,2.69s1.9,3,1.9,3.37c0,1-.49,1.56-1.46,1.56C183.09,277.15,182.56,276.74,182,275.93Zm12.84,10.69a2,2,0,0,1,.44,1.37c0,.81-1.61,1.76-4.84,2.83a25.32,25.32,0,0,1-6.93,1.56,1.69,1.69,0,0,1-.39-3.32l1.71-.34a39.23,39.23,0,0,0,3.9-.88,33,33,0,0,0,3.18-1.07,13.38,13.38,0,0,1,1.32-.49l.34,0A1.42,1.42,0,0,1,194.88,286.62Zm-10.16-33.45c0-.94.55-1.41,1.66-1.41H196v-2a1.64,1.64,0,0,1,1.86-1.85,1.66,1.66,0,0,1,1.9,1.85v2h10.45c1.14,0,1.71.49,1.71,1.46s-.57,1.42-1.71,1.42H199.76v2.59h8.06c1.07,0,1.61.47,1.61,1.41s-.54,1.42-1.61,1.42h-8.06v2.73h11.18c1.11,0,1.66.49,1.66,1.47s-.55,1.41-1.66,1.41H185.75a2,2,0,0,1-1.3-.34,1.39,1.39,0,0,1-.41-1.12c0-.94.57-1.42,1.71-1.42H196v-2.73h-8.11c-1,0-1.56-.47-1.56-1.42s.52-1.41,1.56-1.41H196v-2.59h-9.62C185.27,254.64,184.72,254.15,184.72,253.17Zm21.44,14.65q3.9,0,3.9,3.81v10.25c0,2.58-1.3,3.86-3.9,3.86H190c-2.53,0-3.8-1.23-3.8-3.71v-10.4q0-3.81,3.8-3.81Zm.24,4.06a1.12,1.12,0,0,0-1.27-1.27h-14c-.82,0-1.22.42-1.22,1.27v1h16.5Zm0,5.95v-2.39H189.9v2.39Zm0,2.59H189.9v1.27c0,.85.4,1.27,1.22,1.27h14a1.12,1.12,0,0,0,1.27-1.27Zm6.3,10.16c0,1.17-.64,1.75-1.91,1.75a22.69,22.69,0,0,1-5.66-1.61q-4.74-1.75-4.74-2.83c0-1.07.61-1.61,1.81-1.61a3.72,3.72,0,0,1,1.27.39,30.8,30.8,0,0,0,7.18,2.2C212,289.13,212.7,289.7,212.7,290.58Z" transform="translate(-107 -128)"/><path class="cls-2" d="M218.36,270.46c0-.59.67-1.5,2-2.74a29.64,29.64,0,0,0,4.68-5.9c1-1.57,1.74-2.84,2.3-3.84a18.22,18.22,0,0,0,1.27-2.76q.82-2.49,2.49-2.49a2.32,2.32,0,0,1,1.56.44,1.83,1.83,0,0,1,.49,1.42q0,2.25-5.13,10.3a32.06,32.06,0,0,1-4.47,5.81c-1.35,1.31-2.45,2-3.29,2C219,272.66,218.36,271.92,218.36,270.46Zm22.9,19.38c0-1.3.85-2,2.54-2.1,2.9-.16,4.62-.53,5.18-1.12s1-2.5,1.37-5.76.53-5.44.53-6.35c0-1.53-.71-2.29-2.15-2.29H237.16q-.74,7.81-3.07,11.81a16.23,16.23,0,0,1-6.6,6c-2.53,1.33-4.52,2-6,2s-2-.71-2-2.15a1.53,1.53,0,0,1,.66-1.24,6.13,6.13,0,0,1,2.08-.9,14.25,14.25,0,0,0,7.66-4.89c1.83-2.37,2.89-5.91,3.18-10.59h-5.08c-1.66,0-2.49-.65-2.49-2s.83-1.95,2.49-1.95h22.17c3.16,0,4.73,1.3,4.73,3.91a91.82,91.82,0,0,1-.73,10.59q-.78,6.69-3.37,8a17.15,17.15,0,0,1-7.32,1.27C242,292,241.26,291.31,241.26,289.84Zm17.12-18.5a18,18,0,0,1-3-2.54,33,33,0,0,1-5.77-7.33,18.11,18.11,0,0,1-2.49-6.05c-.19-1.43-.78-2.16-1.75-2.2h-5.57c-1.53,0-2.29-.66-2.29-2a1.93,1.93,0,0,1,.53-1.51,2.57,2.57,0,0,1,1.76-.49h6a5.37,5.37,0,0,1,3.22.83c.55.45,1.17,1.82,1.86,4.1a23.16,23.16,0,0,0,9.71,13,6.94,6.94,0,0,1,1.61,1.41,2.31,2.31,0,0,1,.59,1.42c0,1.46-.7,2.2-2.1,2.2A4.69,4.69,0,0,1,258.38,271.34Z" transform="translate(-107 -128)"/><path class="cls-2" d="M275.61,295.21a3.56,3.56,0,0,1-.75-.68,28.16,28.16,0,0,1-5.11-9.62,41.74,41.74,0,0,1,0-24.12,28.26,28.26,0,0,1,5.11-9.62,3.87,3.87,0,0,1,.75-.68,1.78,1.78,0,0,1,.91-.2,2,2,0,0,1,1.39.56,1.82,1.82,0,0,1,.61,1.4,3.12,3.12,0,0,1-.29,1.12,40.39,40.39,0,0,0-4.23,9.45,34.54,34.54,0,0,0,0,20.07,40.51,40.51,0,0,0,4.23,9.44,3.12,3.12,0,0,1,.29,1.13,1.81,1.81,0,0,1-.61,1.39,2,2,0,0,1-1.39.56A1.78,1.78,0,0,1,275.61,295.21Z" transform="translate(-107 -128)"/><path class="cls-2" d="M283.74,269.78c0-1.5.92-2.25,2.74-2.25H325.1c1.82,0,2.74.76,2.74,2.29s-.92,2.2-2.74,2.2H286.48C284.66,272,283.74,271.27,283.74,269.78Z" transform="translate(-107 -128)"/><path class="cls-2" d="M357.43,276.66a99.44,99.44,0,0,0-6.55-7.52,7.12,7.12,0,0,1-.78-.88,1.5,1.5,0,0,1-.24-.88,1.55,1.55,0,0,1,.61-1.27,2.28,2.28,0,0,1,1.58-.44,4.41,4.41,0,0,1,2.18,1.15c.89.73,2.19,1.95,3.88,3.64a32.93,32.93,0,0,1,3,3.56,4.22,4.22,0,0,1,.86,2.25,1.86,1.86,0,0,1-.54,1.46,1.88,1.88,0,0,1-1.32.49A3.42,3.42,0,0,1,357.43,276.66Z" transform="translate(-107 -128)"/><path class="cls-2" d="M384.28,287.92a2.45,2.45,0,0,1,0-3.28,3.18,3.18,0,0,1,2-.51H425.2c1.79,0,2.68.72,2.68,2.15s-.89,2.15-2.68,2.15H386.28A3.18,3.18,0,0,1,384.28,287.92Zm4.64-33q0-2.1,2.64-2.1H420a3.14,3.14,0,0,1,2,.52,2,2,0,0,1,.63,1.63c0,1.43-.88,2.15-2.64,2.15H391.56C389.8,257.08,388.92,256.35,388.92,254.88Z" transform="translate(-107 -128)"/><path class="cls-2" d="M433.67,294.85a1.81,1.81,0,0,1-.61-1.39,3.12,3.12,0,0,1,.29-1.13,40.51,40.51,0,0,0,4.23-9.44,34.54,34.54,0,0,0,0-20.07,40.39,40.39,0,0,0-4.23-9.45,3.12,3.12,0,0,1-.29-1.12,1.82,1.82,0,0,1,.61-1.4,2,2,0,0,1,1.39-.56,1.78,1.78,0,0,1,.91.2,3.87,3.87,0,0,1,.75.68,28.26,28.26,0,0,1,5.11,9.62,41.74,41.74,0,0,1,0,24.12,28.16,28.16,0,0,1-5.11,9.62,3.56,3.56,0,0,1-.75.68,1.78,1.78,0,0,1-.91.2A2,2,0,0,1,433.67,294.85Z" transform="translate(-107 -128)"/><path class="cls-2" d="M472.66,276.66q-3-3.81-6.54-7.52a7.12,7.12,0,0,1-.78-.88,1.43,1.43,0,0,1-.25-.88,1.55,1.55,0,0,1,.61-1.27,2.33,2.33,0,0,1,1.59-.44,4.39,4.39,0,0,1,2.17,1.15c.9.73,2.19,1.95,3.88,3.64a32.13,32.13,0,0,1,3,3.56,4.2,4.2,0,0,1,.85,2.25,1.86,1.86,0,0,1-.54,1.46,1.84,1.84,0,0,1-1.31.49A3.43,3.43,0,0,1,472.66,276.66Z" transform="translate(-107 -128)"/><path class="cls-2" d="M498.69,268c0-1.17.66-1.76,2-1.76h12.64V257H502c-1.37,0-2.05-.58-2.05-1.76s.68-1.75,2.05-1.75h8.49l-1.22-2.25a4.17,4.17,0,0,1-.63-1.51c0-1.14.61-1.71,1.85-1.71q1.62,0,4.45,5.47H527.1l2-4c.52-1,1.17-1.51,1.95-1.51,1.46,0,2.2.57,2.2,1.71,0,.58-.64,1.84-1.91,3.76h8.55c1.33,0,2,.58,2,1.75s-.67,1.76-2,1.76H528.52v9.23h12.74c1.37,0,2,.59,2,1.76s-.68,1.76-2,1.76H500.69C499.35,269.78,498.69,269.19,498.69,268Zm6.1-3.86-1.37-2.54c-.06-.13-.22-.41-.46-.83a2.13,2.13,0,0,1-.37-.93c0-1.1.62-1.66,1.86-1.66.65,0,1.49.77,2.54,2.3a7.91,7.91,0,0,1,1.56,3c0,1.2-.64,1.8-1.91,1.8A2.06,2.06,0,0,1,504.79,264.16Zm-.93,22.27V277.2a5.06,5.06,0,0,1,1.1-3.62,4.23,4.23,0,0,1,3.49-.92H533.6c3.28-.26,4.8,1.25,4.54,4.54v9.23c.26,3.28-1.26,4.8-4.54,4.54H508.45Q503.58,291.3,503.86,286.43Zm30.23-8.6c0-1.27-.62-1.89-1.86-1.85H509.82c-1.3,0-1.94.62-1.91,1.85v2.25h26.18Zm0,7.86V283.2H507.91v2.49a1.64,1.64,0,0,0,1.91,1.86h22.41Q534.14,287.55,534.09,285.69Zm-9.48-19.43V257h-7.42v9.23Zm8.6-2.44.09-.54,2-4A1.77,1.77,0,0,1,537,258.2a1.68,1.68,0,0,1,1.9,1.91c0,.55-.65,1.87-1.95,3.95-.62,1-1.27,1.47-2,1.47Q533.21,265.53,533.21,263.82Z" transform="translate(-107 -128)"/><path class="cls-2" d="M593.27,289.16c0,1.37-1,2-2.89,2l-15.08,0q-9,0-12.41-1a13.26,13.26,0,0,1-5.9-3.37h-.1c-3.13,2.73-5.19,4.1-6.2,4.1a1.9,1.9,0,0,1-1.47-.54,2.61,2.61,0,0,1-.49-1.76c0-1,.74-1.87,2.2-2.49a39.32,39.32,0,0,0,3.86-2v-10a1.44,1.44,0,0,0-.39-1.07,1.46,1.46,0,0,0-1.08-.39h-2.63a2.12,2.12,0,0,1-1.49-.44,1.9,1.9,0,0,1-.47-1.42,1.82,1.82,0,0,1,.47-1.37,2.12,2.12,0,0,1,1.49-.44h3.81a4.34,4.34,0,0,1,3.1.93,3.76,3.76,0,0,1,.9,2.88v10.84l1.32,1.27q3.31,2.6,14.21,2.59,9.81,0,16.75-.25h.58A1.67,1.67,0,0,1,593.27,289.16Zm-43.75-28.91a1.68,1.68,0,0,1,1.9-1.9,16.56,16.56,0,0,1,4.05,1.37q3.18,1.36,3.18,2.83c0,1.33-.64,2-1.91,2a3.73,3.73,0,0,1-1.66-.63L551,262.16A2.12,2.12,0,0,1,549.52,260.25Zm2.29-9.32a1.67,1.67,0,0,1,1.86-1.91,17.19,17.19,0,0,1,3.85,1.42,8.31,8.31,0,0,1,2.3,1.44,2.17,2.17,0,0,1,.78,1.54c0,1.37-.64,2.05-1.9,2.05a2.88,2.88,0,0,1-1.05-.37c-.51-.24-.81-.4-.91-.46L553.52,253C552.38,252.39,551.81,251.71,551.81,250.93Zm10.52,1.8a1.48,1.48,0,0,1-.56-1.31q0-1.62,2.25-1.62h22.65c2.28,0,3.42.64,3.42,1.91,0,.62-.67,1.41-2,2.39a52,52,0,0,1-6.62,3.76c1,.39,1.46.88,1.46,1.47a1.43,1.43,0,0,1-.24.73h4.25a3.4,3.4,0,0,1,4,4v16.6a5,5,0,0,1-1.1,3.62,4.65,4.65,0,0,1-3.54,1.07l-3-.05a1.66,1.66,0,0,1-1.91-1.85c0-1.21.64-1.81,1.91-1.81h2.39a1.51,1.51,0,0,0,1.71-1.71v-2.49h-8.6v5.71c0,1.27-.57,1.91-1.71,1.91s-1.7-.64-1.7-1.91v-5.71H567v5.91c0,1.33-.61,2-1.81,2s-1.76-.67-1.76-2V264q0-3.9,3.91-3.9h11l-5.17-1.95L569.83,257c-1-.32-1.56-.8-1.56-1.41,0-1.08.61-1.62,1.85-1.62a4.52,4.52,0,0,1,1.42.35l6.2,2,.1,0c1-.52,2.6-1.34,4.68-2.44.23-.13.35-.28.35-.44s-.18-.35-.54-.35H564A2.91,2.91,0,0,1,562.33,252.73Zm13,10.75h-6.84c-1,0-1.51.48-1.51,1.46v2.15h8.35Zm0,10.69v-3.81H567v3.81Zm10.49-10.69h-7.08v3.61h8.6V265A1.34,1.34,0,0,0,585.84,263.48Zm1.52,10.69v-3.81h-8.6v3.81Z" transform="translate(-107 -128)"/><path class="cls-2" d="M607.08,290.43V277.69a36.91,36.91,0,0,1-6.25,1.95,1.75,1.75,0,0,1-2-2c0-1.11.85-1.86,2.54-2.25l5.57-1.61.09,0V262.4h-3.61q-.74,9.23-3,9.23c-1.2,0-1.8-.54-1.8-1.61l.19-1a57,57,0,0,0,1.66-12.94c.07-1.92.65-2.88,1.76-2.88a1.56,1.56,0,0,1,1.76,1.76l-.2,3-.1.78h3.32V250.2c0-1.44.61-2.15,1.81-2.15s1.81.71,1.81,2.15v8.49h3a1.67,1.67,0,0,1,1.86,1.91,1.62,1.62,0,0,1-1.86,1.8h-3v10.21l1.85-.73a5,5,0,0,1,1.52-.4,1.54,1.54,0,0,1,1.71,1.76,1.76,1.76,0,0,1-1.23,1.66c-.74.33-2,.83-3.85,1.52v14c0,1.46-.61,2.2-1.81,2.2S607.08,291.89,607.08,290.43Zm21.68-.93c0-1.3,1-2,3.08-2.1s3.27-.49,3.66-1.17q1.37-1.22,2.25-18l.29-6.44c0-1.08-.47-1.61-1.51-1.61h-1.22a57.37,57.37,0,0,1-3.57,14.35,34.09,34.09,0,0,1-7.57,10.79q-5.17,5-7.27,5c-1.24,0-1.86-.68-1.86-2.05,0-.72.74-1.55,2.2-2.49q12.88-8.25,14.45-25.63h-3.17a29.18,29.18,0,0,1-6.25,14.06c-3.09,3.58-5.13,5.37-6.1,5.37a1.6,1.6,0,0,1-1.81-1.81,1.87,1.87,0,0,1,.49-1.15,10.77,10.77,0,0,1,1.51-1.44,22.53,22.53,0,0,0,8.69-15H621.1q-3.66,8.84-5.76,8.83a1.66,1.66,0,0,1-1.86-1.9,9.14,9.14,0,0,1,1.42-2.74,26.73,26.73,0,0,0,2.73-5.51q1.32-3.92,2.25-8c.42-1.92,1.22-2.88,2.39-2.88,1.37,0,2.05.62,2.05,1.85a34.08,34.08,0,0,1-1.86,6.5h14.6q4.79,0,4.79,4.29a179,179,0,0,1-1.27,22.46,25.3,25.3,0,0,1-.9,4.47,6.2,6.2,0,0,1-1.44,2.57q-1.86,1.69-6.25,1.7C629.84,291.89,628.76,291.1,628.76,289.5Z" transform="translate(-107 -128)"/><path class="cls-2" d="M648.69,285.21c0-1.11.81-1.88,2.44-2.3l4-1.07V268.75h-3.47c-1.53,0-2.29-.6-2.29-1.81s.76-1.85,2.29-1.85h3.47V254.54h-4.1c-1.5,0-2.25-.6-2.25-1.81s.75-1.9,2.25-1.9H662.7c1.5,0,2.25.63,2.25,1.9s-.75,1.81-2.25,1.81h-3.57v10.55h2.93c1.53,0,2.3.62,2.3,1.85s-.77,1.81-2.3,1.81h-2.93v12.06l4.2-1.17c1.14,0,1.71.62,1.71,1.85a1.72,1.72,0,0,1-.88,1.66l-6.59,2.25q-2.77.93-4.64,1.42a14.22,14.22,0,0,1-2.24.48C649.35,287.3,648.69,286.61,648.69,285.21Zm11.37,4.05c0-1.21.73-1.81,2.2-1.81h14.16v-6.54h-8.94c-1.46,0-2.19-.6-2.19-1.81s.73-1.81,2.19-1.81h8.94v-5.22h-5.66q-4.89.39-4.5-4.54V254.59q-.39-4.93,4.5-4.54h15.62q4.93-.39,4.54,4.54v12.94q.39,4.89-4.54,4.54h-6v5.22h9c1.43,0,2.15.61,2.15,1.81s-.72,1.81-2.15,1.81h-9v6.54h10.65c1.5,0,2.24.6,2.24,1.81s-.74,1.8-2.24,1.8H662.26C660.79,291.06,660.06,290.46,660.06,289.26Zm16.41-35.7H672c-1.31,0-1.94.64-1.91,1.91v3.61h6.35Zm0,9h-6.35v4.1a1.63,1.63,0,0,0,1.91,1.85h4.44ZM687,255.47c0-1.3-.62-1.94-1.86-1.91h-4.74v5.52H687Zm0,11.23v-4.1h-6.6v5.95h4.74C686.43,268.55,687.05,267.94,687,266.7Z" transform="translate(-107 -128)"/><path class="cls-2" d="M706.08,295.21a3.56,3.56,0,0,1-.75-.68,28.16,28.16,0,0,1-5.11-9.62,41.74,41.74,0,0,1,0-24.12,28.26,28.26,0,0,1,5.11-9.62,3.87,3.87,0,0,1,.75-.68,1.75,1.75,0,0,1,.91-.2,2,2,0,0,1,1.39.56,1.85,1.85,0,0,1,.61,1.4,3.12,3.12,0,0,1-.29,1.12,40,40,0,0,0-4.23,9.45,34.54,34.54,0,0,0,0,20.07,40.09,40.09,0,0,0,4.23,9.44,3.12,3.12,0,0,1,.29,1.13,1.85,1.85,0,0,1-.61,1.39,2,2,0,0,1-1.39.56A1.75,1.75,0,0,1,706.08,295.21Z" transform="translate(-107 -128)"/><path class="cls-2" d="M714.21,269.78c0-1.5.91-2.25,2.74-2.25h38.62c1.82,0,2.73.76,2.73,2.29s-.91,2.2-2.73,2.2H717C715.12,272,714.21,271.27,714.21,269.78Z" transform="translate(-107 -128)"/><path class="cls-2" d="M787.89,276.66a97.07,97.07,0,0,0-6.54-7.52,7.12,7.12,0,0,1-.78-.88,1.5,1.5,0,0,1-.24-.88,1.55,1.55,0,0,1,.61-1.27,2.28,2.28,0,0,1,1.58-.44,4.41,4.41,0,0,1,2.18,1.15c.89.73,2.18,1.95,3.88,3.64a32.93,32.93,0,0,1,3,3.56,4.22,4.22,0,0,1,.86,2.25,1.86,1.86,0,0,1-.54,1.46,1.88,1.88,0,0,1-1.32.49A3.45,3.45,0,0,1,787.89,276.66Z" transform="translate(-107 -128)"/><path class="cls-2" d="M814.75,287.92a2.45,2.45,0,0,1,0-3.28,3.18,3.18,0,0,1,2-.51h38.92c1.79,0,2.68.72,2.68,2.15s-.89,2.15-2.68,2.15H816.75A3.18,3.18,0,0,1,814.75,287.92Zm4.64-33q0-2.1,2.64-2.1h28.41a3.16,3.16,0,0,1,2,.52,2,2,0,0,1,.63,1.63c0,1.43-.88,2.15-2.64,2.15H822C820.27,257.08,819.39,256.35,819.39,254.88Z" transform="translate(-107 -128)"/><path class="cls-2" d="M864.14,294.85a1.81,1.81,0,0,1-.61-1.39,3.12,3.12,0,0,1,.29-1.13,40.92,40.92,0,0,0,4.23-9.44,34.54,34.54,0,0,0,0-20.07,40.81,40.81,0,0,0-4.23-9.45,3.12,3.12,0,0,1-.29-1.12,1.82,1.82,0,0,1,.61-1.4,2,2,0,0,1,1.39-.56,1.71,1.71,0,0,1,.9.2,3.61,3.61,0,0,1,.76.68,28.24,28.24,0,0,1,5.1,9.62,41.52,41.52,0,0,1,0,24.12,28.15,28.15,0,0,1-5.1,9.62,3.34,3.34,0,0,1-.76.68,1.71,1.71,0,0,1-.9.2A2,2,0,0,1,864.14,294.85Z" transform="translate(-107 -128)"/></svg>