<svg id="fb569dda-24e8-420b-9eb2-4bd8c51d6b37" data-name="圖層 1" xmlns="http://www.w3.org/2000/svg" viewBox="0 0 1500 200"><defs><style>.b8879a96-7642-4210-908c-2529ed7a388d,.ef950d60-f156-4ae7-8065-4cfb091cec37{fill:#2c3e50;}.b8879a96-7642-4210-908c-2529ed7a388d{stroke:#2c3e50;stroke-miterlimit:10;stroke-width:2px;}.ea6a1a96-b386-4b40-9cdc-8172443f36ef{fill:none;}</style></defs><path id="fdceba24-0d11-4385-a9ad-53db6fcb5328" data-name="icon" class="b8879a96-7642-4210-908c-2529ed7a388d" d="M152.23,155.14H122.39a2.91,2.91,0,0,1,0-5.82h26.93V50.68H92.4V60.92a2.91,2.91,0,0,1-5.82,0V47.77a2.91,2.91,0,0,1,2.91-2.91h62.74a2.91,2.91,0,0,1,2.91,2.91h0V152.23a2.91,2.91,0,0,1-2.91,2.91Zm-62.74,0H68.64a2.91,2.91,0,0,1,0-5.82H86.58V136H47.77a2.91,2.91,0,0,1-2.91-2.91h0V73.37a2.91,2.91,0,0,1,2.91-2.91h83.45a2.9,2.9,0,0,1,2.9,2.9h0v59.69a2.9,2.9,0,0,1-2.89,2.91H92.4v13.35h17.95a2.91,2.91,0,1,1,0,5.82H89.49Zm0-25h38.82V76.27H50.68v53.88Zm22.86-18.55H66.63a2.91,2.91,0,0,1,0-5.82h45.72a2.91,2.91,0,1,1,0,5.82Zm-10.29-11H76.92a2.91,2.91,0,1,1-.34-5.81,1.93,1.93,0,0,1,.34,0h25.14a2.91,2.91,0,1,1,.34,5.81Z"/><path class="ef950d60-f156-4ae7-8065-4cfb091cec37" d="M255.84,93.56q0-1.82,4.13-5.64a61.53,61.53,0,0,0,9.67-12.19q3-4.83,4.73-7.91A35.38,35.38,0,0,0,277,62.13Q278.7,57,282.13,57a4.76,4.76,0,0,1,3.22.9,3.77,3.77,0,0,1,1,2.92q0,4.63-10.58,21.25a66.31,66.31,0,0,1-9.21,12c-2.79,2.68-5.06,4-6.8,4Q255.84,98.09,255.84,93.56Zm47.23,40q0-4,5.24-4.33c6-.34,9.53-1.11,10.68-2.32s2.08-5.17,2.82-11.88,1.1-11.22,1.1-13.1c0-3.15-1.47-4.73-4.43-4.73H294.61q-1.5,16.11-6.34,24.37-4.33,7.35-13.6,12.29Q266.83,138,262.39,138q-4,0-4-4.43a3.14,3.14,0,0,1,1.36-2.57,12.3,12.3,0,0,1,4.28-1.86Q274.58,126,279.81,119q5.64-7.35,6.55-21.85H275.88q-5.13,0-5.13-4c0-2.68,1.71-4,5.13-4H321.6q9.78,0,9.77,8.06A189.84,189.84,0,0,1,329.86,119q-1.61,13.8-6.95,16.42t-15.1,2.62Q303.07,138.07,303.07,133.54Zm35.3-38.17a38,38,0,0,1-6.29-5.24A68.61,68.61,0,0,1,320.19,75q-4.53-7.84-5.13-12.48-.6-4.44-3.63-4.54H300c-3.16,0-4.73-1.37-4.73-4.12a4,4,0,0,1,1.11-3.13,5.29,5.29,0,0,1,3.62-1h12.29c2.88,0,5.1.57,6.64,1.71q1.72,1.41,3.83,8.46a47.85,47.85,0,0,0,20,26.89,14.6,14.6,0,0,1,3.33,2.92,4.77,4.77,0,0,1,1.21,2.92c0,3-1.45,4.53-4.33,4.53A9.49,9.49,0,0,1,338.37,95.37Z"/><path class="ef950d60-f156-4ae7-8065-4cfb091cec37" d="M405.29,83.38h-42.6q-4,0-4-3.42t4-3.42h9.07V66.16h-6.45q-4.12,0-4.13-3.52c0-2.28,1.38-3.43,4.13-3.43h6.45V51.76c0-2.68,1.24-4,3.72-4s3.63,1.35,3.63,4v7.45H391V51.76c0-2.68,1.24-4,3.73-4s3.62,1.35,3.62,4v7.45h5.54c2.62,0,3.93,1.15,3.93,3.43s-1.31,3.52-3.93,3.52h-5.54V76.54h7q4,0,4,3.42T405.29,83.38Zm-1.51,13V128.3q0,4.63-2.11,6.9T395,137.56H391.5q-4.54,0-4.54-3.82a3.55,3.55,0,0,1,1.21-3,6.16,6.16,0,0,1,3.83-1,4.69,4.69,0,0,0,3-.76,3.44,3.44,0,0,0,1-2.56v-6.15H373.77v13.3q0,4.53-3.93,4.53T366,133.64V96.38q0-8,8.15-8h21.56Q403.79,88.42,403.78,96.38ZM396,98.19a2.72,2.72,0,0,0-.71-2.07,3.42,3.42,0,0,0-2.11-.75H376.59q-2.71,0-2.82,2.82v3.42H396ZM396,114v-6.14H373.77V114Zm-5-37.46V66.16H379.11V76.54Zm59.62,57a4.61,4.61,0,0,1-1.31,3.22,3.66,3.66,0,0,1-2.62,1.41q-2,0-5.68-2.32a55.4,55.4,0,0,1-8.51-6.95l-4.13-4.33a60.64,60.64,0,0,1-10.58,9.67q-6,4.33-9.26,4.33c-2.76,0-4.13-1.44-4.13-4.33a3.34,3.34,0,0,1,.75-2.21,8.53,8.53,0,0,1,2.37-1.82q10.67-5.43,16.31-12.49a59.62,59.62,0,0,1-4.48-13.59A182.56,182.56,0,0,1,416.07,85q-4.23,9.27-6.45,9.27-4,0-4-3.42a7.79,7.79,0,0,1,1-2.72c.71-1.35,1.19-2.29,1.46-2.82q7.15-13.39,11.08-32.23,1.21-5.74,4.53-5.74c3,0,4.43,1.14,4.43,3.42s-1.64,7.83-4.93,16.62h24.27q3.52,0,3.53,3.83,0,3.61-3.53,3.62h-4.63q-1.22,29.31-9.57,43.21a46.11,46.11,0,0,0,13.39,10.67Q450.61,130.82,450.61,133.54ZM434.7,74.82H422.31q1.51,25.79,6.05,35.65Q434.39,98.59,434.7,74.82Z"/><path class="ef950d60-f156-4ae7-8065-4cfb091cec37" d="M513.81,118.38a4.57,4.57,0,0,1,1,3.17,3.36,3.36,0,0,1-1.4,2.72q-1.22.92-6.35,1.81L491.9,129l-22.76,3.43-2.82.3a3.47,3.47,0,0,1-3.07-1,5,5,0,0,1-1.06-3.47c0-1.68.51-2.82,1.52-3.42a16.81,16.81,0,0,1,5.43-1.21q3.93-.4,14.51-1.82V95.07h-13.4q-4.83,0-4.83-3.93t4.83-3.93H505.2q4.83,0,4.83,3.93t-4.83,3.93H491.7v25.68L511,117.62A2.85,2.85,0,0,1,513.81,118.38Zm39.63-1.76a39.52,39.52,0,0,1-2.72,14.7Q548.1,138,544,138q-5.54,0-13-10.07A76.41,76.41,0,0,1,519.5,104a140.75,140.75,0,0,1-5.24-32.23H467.43q-4.83,0-4.83-4t4.83-3.92h46.43l-.3-11.48q-.1-4.74,4.23-4.74c2.75,0,4.13,2,4.13,6V63.85H547.6q5.13,0,5.13,4T547.6,71.8H522.42q1.11,18.44,5.54,31.83t11.48,21.25c1.27,1.47,2.28,2.21,3,2.21s1.48-.89,2-2.67a45.22,45.22,0,0,0,1.31-8.51,3.52,3.52,0,0,1,1.06-2.62,4.23,4.23,0,0,1,2.77-.8Q553.43,112.49,553.44,116.62ZM534.5,56.8c-2-2.49-3-4-3-4.64q0-3.52,4.13-3.52,1.82,0,5.24,3.83,3.23,3.53,3.22,5.23,0,3.52-4.13,3.53Q538.13,61.23,534.5,56.8Z"/><path class="ef950d60-f156-4ae7-8065-4cfb091cec37" d="M613.66,104.33v29.91c0,3.16-1.38,4.73-4.13,4.73a4.08,4.08,0,0,1-3.17-1.15,5.23,5.23,0,0,1-1.06-3.58v-29.3q-22.65,1.41-35.35,1.81c-2.62.07-3.92-1.38-3.92-4.33a3.52,3.52,0,0,1,1.91-3.53c.94-.47,4.56-.7,10.88-.7q8.76,0,17-.51L600.57,93l.6-.3a183.56,183.56,0,0,0-20.64-13.19q-6.25-3.22-6.25-5.44a4,4,0,0,1,1.06-3,4.78,4.78,0,0,1,3.37-1,7.36,7.36,0,0,1,3.63,1.41l4.43,2.42L590,75.73l10.28-14.5-11.69,1-16,.71c-2.68.07-4-1.31-4-4.13q0-3.93,6.15-3.93h4.63q36.76-1.41,57.2-6a39.31,39.31,0,0,1,6.25-1.21c3.08,0,4.63,1.55,4.63,4.63a3.49,3.49,0,0,1-2.32,3.23,20.53,20.53,0,0,1-4.28,1c-2.11.37-4.55.76-7.3,1.16q-12,1.72-23.36,2.72l-14.61,19,1.31.7,9.57,6.65q7.65-8.27,13.8-16.12,5.84-7.35,8.26-7.35c3.08,0,4.63,1.38,4.63,4.13q0,1.92-6.85,9.67a256.68,256.68,0,0,1-19.54,19.24l-1.21,1.2q18.24-.49,34.25-1.61l-.81-.8-4.73-5.24q-2.33-2.52-2.32-3.93,0-3.31,3.12-3.32c.94,0,2.37.8,4.28,2.42s4.55,4.16,7.91,7.65a78.51,78.51,0,0,1,7,8.21q2.41,3.38,2.41,5,0,3.74-4.33,3.73-2.12,0-4.93-3.63l-3-4.13Q629.47,103.32,613.66,104.33ZM591.5,114.1q0,1.41-2.26,4.58a80.69,80.69,0,0,1-6.5,7.71q-8.76,9.36-12.89,9.36a3.73,3.73,0,0,1-2.82-1,4.37,4.37,0,0,1-.9-3.07c0-1.61,1.14-3.18,3.42-4.73a49.86,49.86,0,0,0,12-11.78q3.51-4.74,5.84-4.74Q591.51,110.47,591.5,114.1Zm64.26,16.82c0,3-1.45,4.43-4.33,4.43s-7.62-3.12-14.2-9.37-10.07-10.54-10.07-12.48a3.25,3.25,0,0,1,1-2.57,4.54,4.54,0,0,1,3.07-.86c1.28,0,3.23,1.45,5.85,4.33a58.58,58.58,0,0,0,15.1,12.09Q655.76,128.4,655.76,130.92Z"/><path class="ef950d60-f156-4ae7-8065-4cfb091cec37" d="M668.8,128.65a3.4,3.4,0,0,1-1-2.67,9.61,9.61,0,0,1,.91-3.62q2.63-6.35,2.92-16c.07-3,1.24-4.43,3.53-4.43a4.14,4.14,0,0,1,2.76.76,3.15,3.15,0,0,1,.86,2.47l-.1,2.72q-1.51,21.64-7,21.65A4.37,4.37,0,0,1,668.8,128.65Zm14.75,6.4V96.78L672,98a3.47,3.47,0,0,1-3-.86,4.29,4.29,0,0,1-1-3.07,3.09,3.09,0,0,1,2.92-3.32l5-.41h1.21l6.14-9.26a112.55,112.55,0,0,0-12-9.87q-2.71-1.82-2.72-3.83c0-2.48,1.21-3.73,3.62-3.73.81,0,2.08.68,3.83,2l.61.4a95.13,95.13,0,0,0,7.15-14.6q1.61-4.12,4.63-4.13,3.93,0,3.93,3.73t-10.58,19l5.44,4.63,7.05-12.18a4,4,0,0,1,3.52-2.12c2.55,0,3.83,1.25,3.83,3.73q0,4.53-16.62,25.78l1.21-.1,9.67-.4.5-.1-1-2.72a8.4,8.4,0,0,1-.51-2.62c0-1.88,1-2.82,2.92-2.82,1.35,0,2.92,2.25,4.74,6.75,1.74,4.29,2.62,7,2.62,8.25q0,3.43-3.53,3.43a2.64,2.64,0,0,1-2.11-1.16,7.38,7.38,0,0,1-1.31-3.27l-6.75.8v39.08q0,4.42-3.93,4.43T683.55,135.05Zm14.81-10.88-.3-1.41-2.42-17.93a2.22,2.22,0,0,1,.7-2.21,4.4,4.4,0,0,1,2.72-.71q3,0,4.23,6.75,1.92,11,1.92,13.3c0,2.48-1.25,3.72-3.73,3.72A3.48,3.48,0,0,1,698.36,124.17Zm2.72,9.57c0-1.28.8-2.45,2.41-3.53q13.9-8.55,15.11-34.54l-8.76.6c-2.49.21-3.73-1-3.73-3.72s3.13-3.93,9.37-3.93l.2-.1a178.27,178.27,0,0,0,5.64-19.64v-.6H707.83q-4,0-4-3.63t4-3.52h18.63V52.37q0-4.93,3.92-4.94t3.93,4.94v8.76h20.55q4.42,0,4.43,3.52t-4.43,3.63H729.48a105.88,105.88,0,0,1-6.85,19.94l23.06-1.61-3.52-5.34Q740,77.94,740,77c0-2,1.17-3,3.53-3q1.6,0,5,4.43A127.34,127.34,0,0,1,757,91.54a26,26,0,0,1,1.51,2.62,4.75,4.75,0,0,1,.61,1.91q0,3.53-3.83,3.53c-1.41,0-3-1.48-4.63-4.43l-1.51-2.72-7.25.9v31.12c0,2,.36,3.33,1.1,3.93.47.4,1.95.6,4.43.6q3.23,0,3.93-1.2,1-1.81,1.11-6.45a8.66,8.66,0,0,1,1-4.18,3,3,0,0,1,2.77-1.36q3.72,0,3.72,3.83a33.8,33.8,0,0,1-1.81,12q-1.82,4.63-12.19,4.64-6.14,0-8.36-1.31-2.61-1.51-2.61-6.15V94.16l-8.67.91h-.5l-.2,5.23q-.7,17.13-8.16,27.6-7,10-12.69,10Q701.08,137.87,701.08,133.74Z"/><path class="ef950d60-f156-4ae7-8065-4cfb091cec37" d="M806.72,124q0,3.12-13,8.66-13.29,5.64-17.93,5.64-3.82,0-3.82-4.33c0-2.28,1.91-3.83,5.74-4.63a71.15,71.15,0,0,0,20.14-7.66c2.42-1.34,3.89-2,4.43-2Q806.72,119.64,806.72,124Zm-34.64-10.78c0-2.62,1.1-3.92,3.32-3.92h4l-1.11-48.45q-.11-6,4.43-7.85l6.75-2.52,3.73-1.51A17.3,17.3,0,0,1,797,47.63q3.93,0,3.93,4.53a2.77,2.77,0,0,1-1.21,2.32l-7,2.92A37.61,37.61,0,0,0,788,59.62c-1,.6-1.55,1.2-1.61,1.81l.3,8.86h11.08q3.32,0,3.32,3.83t-3.32,3.72H786.88l.3,11h10.58q3.32,0,3.32,3.83c0,2.42-1.11,3.62-3.32,3.62H787.38l.31,13h34v-27a3,3,0,0,0-.71-2.22,3.37,3.37,0,0,0-2.21-.81h-6.45q-7.15,0-7.15-7.25V50.75q0-3.53,3.63-3.52t3.62,3.52V54h12.59a5.42,5.42,0,0,1,3.42,1,3.44,3.44,0,0,1,1.21,2.87q0,3.73-4.63,3.73H812.46v7.65a2.58,2.58,0,0,0,2.92,2.92h6.35q7.44,0,7.45,7.36v29.81H846.6l.3-13H836.23c-2.28,0-3.43-1.2-3.43-3.62s1.15-3.83,3.43-3.83H847l.41-11H836.23c-2.28,0-3.43-1.27-3.43-3.82s1.15-3.73,3.43-3.73h11.38l.2-8Q848,59,844.29,59h-8.67Q832,59,832,55.08t3.62-3.92h12.19q4.23,0,6.35,1.71a5.83,5.83,0,0,1,2,5l-1.51,51.37h5c2.35,0,3.53,1.3,3.53,3.92s-1.18,3.73-3.53,3.73H775.4C773.18,116.92,772.08,115.68,772.08,113.19Zm33.13-11.88V87.21q0-3.93,3.83-3.93c2.42,0,3.62,1.31,3.62,3.93v14.1c0,2.62-1.2,3.93-3.62,3.93S805.21,103.93,805.21,101.31Zm56.15,29.61a4.2,4.2,0,0,1,.95,2.82q0,4.42-4.53,4.43-6.54,0-18.73-5.64-12-5.44-12-8.56,0-4.12,4.44-4.13a7.31,7.31,0,0,1,3.52,1.41q9.68,5.75,23.57,8.26A4.5,4.5,0,0,1,861.36,130.92Z"/><path class="ef950d60-f156-4ae7-8065-4cfb091cec37" d="M882.86,132.68c-1.55-1.51-2.25-4-2.12-7.4V61.73q0-5.23,2.32-7.6c1.54-1.58,4-2.23,7.25-2h66.87a5.34,5.34,0,0,1,3.63,1,3.91,3.91,0,0,1,1.11,3,3.9,3.9,0,0,1-1.11,3,5.29,5.29,0,0,1-3.63,1H893.73c-1.81,0-3,.3-3.62.91s-.91,1.78-.91,3.52v10h57.41q4.83,0,7,2.12t1.86,6.84v17.53q0,4.73-2.12,7T946.61,110H889.2v12.49c0,1.75.32,2.92,1,3.52s1.83.91,3.57.91H959q4.85,0,4.84,4c0,2.68-1.61,4-4.84,4H890.31C886.89,135,884.4,134.19,882.86,132.68Zm63.5-31.37a4.87,4.87,0,0,0,.85-3v-12a4.14,4.14,0,0,0-.8-3,4.62,4.62,0,0,0-2.92-.85H889.2v19.64h54.29A3.9,3.9,0,0,0,946.36,101.31Z"/><path class="ef950d60-f156-4ae7-8065-4cfb091cec37" d="M977.42,82.68a2.94,2.94,0,0,1,.81-2.32,3.76,3.76,0,0,1,2.52-.7h85.4c2.21,0,3.32,1,3.32,3s-1.11,3-3.32,3h-85.4Q977.42,85.7,977.42,82.68Zm0,50.76q0-3.23,3.63-3.23h38.77v-4.63H987.19q-3.32,0-3.32-2.92t3.32-2.82h32.63v-4.93H996.66c-3.16,0-5.42-.68-6.8-2s-2-3.56-1.76-6.65V98.09c0-3.16.67-5.42,2-6.8s3.53-1.93,6.55-1.66h53.48q4.72,0,6.84,2c1.41,1.35,2,3.49,1.82,6.45v8.15c0,3.16-.68,5.44-2,6.85s-3.56,2-6.64,1.82h-23v4.93h32.53q3.22,0,3.23,2.82t-3.23,2.92h-32.53v4.63h38.68q3.53,0,3.52,3.23c0,2.14-1.17,3.22-3.52,3.22h-84.8C978.63,136.66,977.42,135.58,977.42,133.44ZM988.9,67.07V58.91q-.79-9.27,8.67-8.46h51.86q4.74,0,6.85,2t1.71,6.44v8.16q.81,9.47-8.56,8.66H997.57Q988.09,76.54,988.9,67.07Zm30.92,27.79H998.47a2.79,2.79,0,0,0-2.06.76,3.27,3.27,0,0,0-.86,2.17V99.5h24.27Zm0,9.87H995.55v1.92c0,1.81,1,2.78,2.92,2.92h21.35ZM1050.14,59q0-2.71-2.82-2.82H999.58A2.49,2.49,0,0,0,996.76,59v1.41h53.38Zm0,8.16V65.66H996.76v1.51a2.7,2.7,0,0,0,2.82,3h47.74C1049.2,70.19,1050.14,69.18,1050.14,67.17Zm1.1,30.62a2.8,2.8,0,0,0-.75-2.07,3.32,3.32,0,0,0-2.17-.86h-21.15V99.5h24.07Zm0,8.86v-1.92h-24.07v4.84h21.15C1050.14,109.57,1051.11,108.59,1051.24,106.65Z"/><path class="ef950d60-f156-4ae7-8065-4cfb091cec37" d="M1081.26,84.19q0-1.92,5.23-5.94,6.55-5,9.37-7.56a5.58,5.58,0,0,1,3.72-1.81q3.93,0,3.93,3.63c0,1.47-2.68,4.5-8,9.06s-8.77,7-10.38,7Q1081.26,88.52,1081.26,84.19Zm.1,51c0-1.35.36-2.22,1.1-2.62a18.19,18.19,0,0,1,3.73-.61l3.93-.4a118.66,118.66,0,0,0,15-2.62l8.87-1.81q3.83,0,3.82,3.73,0,2.61-4.63,3.72-18.43,4.64-28.5,4.64C1082.46,139.18,1081.36,137.83,1081.36,135.15Zm12.59-77-4-2.42q-2.82-1.61-2.82-3.53,0-3.72,3.92-3.72,1.21,0,7.36,3.32t6.24,5.64a4.41,4.41,0,0,1-1,3.22,4.26,4.26,0,0,1-3.12,1C1099.69,61.63,1097.5,60.46,1094,58.11ZM1091,116.92V95.17q-.7-10.17,9.37-9.37h52.37q10.07-.81,9.36,9.37v21.75q.7,10.06-9.36,9.37h-52.37Q1090.33,127,1091,116.92Zm63-21.75q0-3.44-3.33-3.43h-48.13q-3.43,0-3.43,3.43v2.21H1154Zm0,13.69V103h-54.89v5.84Zm0,8.06V114.5h-54.89v2.42q0,3.42,3.43,3.42h48.13Q1154,120.34,1154,116.92ZM1135.13,71h-.2q-4,6.14-12.79,10t-15.3,3.92a3.45,3.45,0,0,1-2.62-.85,3.62,3.62,0,0,1-.81-2.57c0-2,1.08-3.16,3.22-3.42q11.08-1.71,17.38-5.9a15.85,15.85,0,0,0,7.4-10.82h-13l-1,1.11q-5.43,6-8.06,6-3.52,0-3.52-3.63c0-1,.77-2.18,2.32-3.52l2-1.71a31,31,0,0,0,2.52-2.42c2.48-2.89,4.23-4.94,5.23-6.14,2-2.42,3.66-3.63,4.94-3.63,2.68,0,4,.94,4,2.82,0,1-1,2.62-2.92,4.83h37.46q6.86,0,6.85,4.54,0,1.91-6.35,8.05a42.73,42.73,0,0,1-5,4.38,6.78,6.78,0,0,1-3.07,1.56,3.77,3.77,0,0,1-2.67-.8,3.47,3.47,0,0,1-.86-2.62c0-.94.71-2,2.12-3,3.22-2.62,4.83-4.26,4.83-4.94a.82.82,0,0,0-.3-.65,1.06,1.06,0,0,0-.71-.25h-17.52l-.7,3q8.65,11.88,30,14.8,3.62.41,3.62,3.63,0,4-3.93,4l-2.21-.3Q1143.09,82.58,1135.13,71Zm8,64.35a20.39,20.39,0,0,1-5.44-2.07c-1.27-.77-1.91-1.56-1.91-2.36q0-3.63,4-3.63l1.91.41a148.92,148.92,0,0,0,24.47,4.12,11.75,11.75,0,0,1,4.43,1.11,2.62,2.62,0,0,1,1.42,2.42c0,2.55-1.25,3.83-3.73,3.83Q1157.48,139.18,1143.09,135.35Z"/><path class="ef950d60-f156-4ae7-8065-4cfb091cec37" d="M1202.61,135.05V99a107.66,107.66,0,0,1-7.86,14.61q-4.83,7.45-7.45,7.45c-2.42,0-3.62-1.51-3.62-4.53q0-1.71,2.41-4.64A73.31,73.31,0,0,0,1201.3,85.1H1188q-4,0-4-3.83c0-2.48,1.34-3.73,4-3.73h14.6V51.46q0-4.12,3.93-4.13t3.93,4.13V77.54h11.07c3.09,0,4.64,1.25,4.64,3.73a3.46,3.46,0,0,1-1.21,2.87,5.41,5.41,0,0,1-3.43,1h-11.07V96.38a3.9,3.9,0,0,1,3.12-1.41q1.82,0,5.13,4.33l2.12,2.61a42.41,42.41,0,0,1,3.12,4.38,6,6,0,0,1,.91,3,2.71,2.71,0,0,1-.91,2.11,3.49,3.49,0,0,1-2.42.81q-2,0-3.72-2.42l-6.45-9.17-.9-1.2v35.65q0,4.13-3.93,4.13T1202.61,135.05Zm-9.27-61.94a3.55,3.55,0,0,1-2.16-.7,3.31,3.31,0,0,1-1.26-2q-1.11-4.73-2.92-10.67a5.93,5.93,0,0,1-.2-1.11,2.68,2.68,0,0,1,1.06-2.17,3.93,3.93,0,0,1,2.56-.85,3.61,3.61,0,0,1,3.43,2.41q.6,1.43,1.71,4.84a62.65,62.65,0,0,1,1.71,6.24,3,3,0,0,1-.55,2.62,4,4,0,0,1-2.17,1.31A5.22,5.22,0,0,1,1193.34,73.11Zm31.58-16.62a3,3,0,0,1,.55,2.62,63.53,63.53,0,0,1-1.71,6.25q-1.11,3.42-1.71,4.83a3.51,3.51,0,0,1-3.43,2.42,4,4,0,0,1-2.57-.86,2.67,2.67,0,0,1-1-2.16,5.08,5.08,0,0,1,.2-1.11q1.82-5.94,2.92-10.68a3.31,3.31,0,0,1,1.26-2,3.56,3.56,0,0,1,2.16-.71,5.11,5.11,0,0,1,1.21.11A3.93,3.93,0,0,1,1224.92,56.49Zm30.76,77.45V109.47l-23.16,6.24a9,9,0,0,1-2.11.3,3,3,0,0,1-2.72-1.21,5.29,5.29,0,0,1-.81-3,4,4,0,0,1,3.32-4.13l25.48-6.54V52.67q0-5.23,4.23-5.24t4.23,5.24V98.89l6-1.71a5.41,5.41,0,0,1,1.71-.3,3.24,3.24,0,0,1,2.52,1,4.24,4.24,0,0,1,.9,2.92q0,3.12-3.32,4l-7.86,2.42v26.69a6.17,6.17,0,0,1-1.05,4,4.05,4.05,0,0,1-3.28,1.26Q1255.69,139.18,1255.68,133.94Zm-14.5-41.34a42.71,42.71,0,0,1-4.33-3.27l-3.12-2.42Q1230,84,1230,82.38a4.19,4.19,0,0,1,.91-2.92,3.21,3.21,0,0,1,2.52-1,7.62,7.62,0,0,1,3.42,1.06,41.76,41.76,0,0,1,5.14,3.37q6,4.34,6,6.65,0,4.23-4.23,4.23A6,6,0,0,1,1241.18,92.6Zm3.93-22a13,13,0,0,1-2.52-1.91c-1.41-1.34-3.32-3-5.74-4.93-2.08-1.68-3.12-3-3.12-4a4.22,4.22,0,0,1,.85-2.82,3,3,0,0,1,2.37-1,6.09,6.09,0,0,1,3.22.91,52.63,52.63,0,0,1,5.44,3.92,25.53,25.53,0,0,1,4.23,4,4.56,4.56,0,0,1,1.11,2.82,3.38,3.38,0,0,1-3.52,3.63A4.71,4.71,0,0,1,1245.11,70.59Z"/><path class="ef950d60-f156-4ae7-8065-4cfb091cec37" d="M1377.84,103.93q0,3.93-4.93,3.93h-36.05v26.08a5.78,5.78,0,0,1-1.06,3.83,4.29,4.29,0,0,1-3.38,1.2c-3,0-4.43-1.67-4.43-5V107.86h-35.35a5.72,5.72,0,0,1-3.67-1,3.65,3.65,0,0,1-1.16-3q0-3.93,4.83-3.93H1328V60.93h-30.51q-4.63,0-4.63-3.93t4.63-3.93h69.59q4.93,0,4.93,3.93t-4.93,3.93h-30.21V100h36.05Q1377.85,100,1377.84,103.93ZM1304,88.12q-1.62-4.23-4.34-10.17a35.73,35.73,0,0,1-1.41-3.38,7.78,7.78,0,0,1-.5-2.37,2.82,2.82,0,0,1,1.16-2.31,4.48,4.48,0,0,1,2.87-.91,4.3,4.3,0,0,1,2.82,1,10.59,10.59,0,0,1,2.32,3q6.94,13.59,6.94,16.21a3.58,3.58,0,0,1-1.46,3,5.25,5.25,0,0,1-3.27,1.1Q1306,93.35,1304,88.12Zm62.43-18.94a3.25,3.25,0,0,1,1.31,2.72q0,2.92-5.74,15-3,6.24-5.74,6.24a6,6,0,0,1-3.67-.9,3.47,3.47,0,0,1-1.16-2.92A10.27,10.27,0,0,1,1353,85.1l5.94-13.8q1.52-3.12,3.93-3.12A5.81,5.81,0,0,1,1366.46,69.18Z"/><path class="ef950d60-f156-4ae7-8065-4cfb091cec37" d="M1470.5,84.69l-1.92-2.41-73.11,4.12a4.55,4.55,0,0,1-3.48-1,4.41,4.41,0,0,1-1.15-3.33,3.74,3.74,0,0,1,3.22-3.92l5.34-.31,7.65-.1a200.31,200.31,0,0,0,13.09-25.07,10.42,10.42,0,0,1,2.57-3.88,5,5,0,0,1,3.37-1.26q4.34,0,4.34,3.83,0,2.61-7.76,15.2l-6.85,10.88q35.06-.8,45-1.51l1.91-.1q-7.15-8-10.67-10.47-3.22-2.22-3.23-4.43a3.7,3.7,0,0,1,.91-2.72,4,4,0,0,1,2.92-.91q2.52,0,15.81,12.59,13.1,12.48,13.1,16.11c0,2.69-1.52,4-4.54,4Q1474.43,90,1470.5,84.69Zm-67.83,49.05q-2.67-2.62-2.27-8.26V106q-.7-11.48,10.88-10.77h49.45q11.77-.7,11,10.77v19.44q.69,11.47-11,10.88h-49.45C1407.32,136.36,1404.45,135.48,1402.67,133.74Zm60.58-10.38v-14.9q0-5.53-5.34-5.54H1414.4c-3.62,0-5.44,1.78-5.44,5.34v14.9q0,5.45,5.24,5.44h43.51C1461.4,128.6,1463.25,126.86,1463.25,123.36Z"/><rect class="ea6a1a96-b386-4b40-9cdc-8172443f36ef" width="1500" height="200"/></svg>