<svg id="e22444be-66b0-4be0-98e1-05e686d6f602" data-name="圖層 1" xmlns="http://www.w3.org/2000/svg" viewBox="0 0 1500 200"><defs><style>.a40b2c79-e129-4de7-85fe-301386dba3c1,.ae800757-3aa3-4bde-b6ca-e47e5a472c0c{fill:#2c3e50;}.ae800757-3aa3-4bde-b6ca-e47e5a472c0c{stroke:#2c3e50;stroke-miterlimit:10;stroke-width:2px;}.e573e649-db78-4ead-83cc-7c8a35ae9082{fill:none;}</style></defs><path id="af2c1063-6ce1-4601-acd4-5f5bced4d0de" data-name="icon" class="ae800757-3aa3-4bde-b6ca-e47e5a472c0c" d="M152.23,155.14H122.39a2.91,2.91,0,0,1,0-5.82h26.93V50.68H92.4V60.92a2.91,2.91,0,0,1-5.82,0V47.77a2.91,2.91,0,0,1,2.91-2.91h62.74a2.91,2.91,0,0,1,2.91,2.91h0V152.23a2.91,2.91,0,0,1-2.91,2.91Zm-62.74,0H68.64a2.91,2.91,0,0,1,0-5.82H86.58V136H47.77a2.91,2.91,0,0,1-2.91-2.91h0V73.37a2.91,2.91,0,0,1,2.91-2.91h83.45a2.9,2.9,0,0,1,2.9,2.9h0v59.69a2.9,2.9,0,0,1-2.89,2.91H92.4v13.35h17.95a2.91,2.91,0,1,1,0,5.82H89.49Zm0-25h38.82V76.27H50.68v53.88Zm22.86-18.55H66.63a2.91,2.91,0,0,1,0-5.82h45.72a2.91,2.91,0,1,1,0,5.82Zm-10.29-11H76.92a2.91,2.91,0,1,1-.34-5.81,1.93,1.93,0,0,1,.34,0h25.14a2.91,2.91,0,1,1,.34,5.81Z"/><path class="a40b2c79-e129-4de7-85fe-301386dba3c1" d="M255.54,126.79a4,4,0,0,1,1.31-3.22c.4-.41,2.15-.88,5.23-1.41l.31-.1V60.32q0-4.53,2-6.6T270.75,52h20.84q4.53,0,6.55,2c1.34,1.31,1.95,3.44,1.81,6.39V89.63q0,4.53-2,6.54c-1.35,1.35-3.46,1.92-6.35,1.72H270.24v22.55q10.08-2.11,21.25-5.43l-3.12-5.64c-.2-.34-.54-.93-1-1.77a4.44,4.44,0,0,1-.7-1.76q0-3.32,3.62-3.32,2.22,0,4.74,3.93,9.76,15.3,9.77,18.12c0,2.76-1.41,4.13-4.23,4.13q-3,0-5-5.23l-1.11-2.42a192.13,192.13,0,0,1-22.15,7.15q-12.3,3.12-12.79,3.12Q255.54,131.32,255.54,126.79ZM292.1,62.44c0-1.95-1.05-3-3.13-3.13H273.26c-1.88,0-2.88,1-3,3.13v9H292.1Zm0,25.07V78.45H270.24V90.53H289A2.77,2.77,0,0,0,292.1,87.51Zm16.11,47.24V61.23q0-4.53,2-6.6t6.4-1.76h17.22q4.74,0,7.15,2.32t2.22,7V118c0,3.42-.78,6-2.32,7.65s-4,2.55-7.25,2.62h-5.94q-5.44,0-5.44-4.43t4.53-4.43h4.33q3.63,0,3.73-3.63V64.45q0-3.23-3.33-3.32H319.69q-3.12,0-3.32,3.22v70.4q0,4.53-4.13,4.53T308.21,134.75Z"/><path class="a40b2c79-e129-4de7-85fe-301386dba3c1" d="M388.42,56.65c1.38,1.44,2,3.71,1.87,6.79v53.48q0,9.27-8.36,8.86H371q-8.86,0-8.46-8.86V63.44q0-4.72,2.07-6.95t6.39-2h11C384.88,54.48,387.05,55.2,388.42,56.65Zm-6,8.2a2.7,2.7,0,0,0-2.82-3h-6.44c-1.75,0-2.69,1-2.82,3V84.69h12.08Zm0,27.3H370.35v23.36a2.49,2.49,0,0,0,2.82,2.82h6.44c1.82,0,2.75-.94,2.82-2.82Zm68.08,9.16c0,2.48-1.51,3.73-4.53,3.73h-8.56V128.1q0,5.53-2.62,8.16c-1.81,1.74-4.57,2.61-8.26,2.61H419q-5,0-5-3.92,0-4.23,4.54-4.23h7.15c2.55,0,3.79-1.25,3.72-3.73V105H397.24c-3.09,0-4.64-1.25-4.64-3.73s1.55-3.73,4.64-3.73h32.12V86.51H397.24q-4.64,0-4.64-3.63,0-3.82,4.64-3.83h19.94V67.17H401a5.53,5.53,0,0,1-3.47-.86,3.34,3.34,0,0,1-1.06-2.77,3.65,3.65,0,0,1,1.06-2.92,5.33,5.33,0,0,1,3.47-.9h16.22V52.16c0-3.28,1.34-4.93,4-4.93s4,1.65,4,4.93v7.56H441a5.36,5.36,0,0,1,3.48.9,3.68,3.68,0,0,1,1.06,2.92,3.37,3.37,0,0,1-1.06,2.77,5.57,5.57,0,0,1-3.48.86H425.23V79.05h20.85q4.64,0,4.63,3.83,0,3.63-4.63,3.63h-8.66V97.58H446C449,97.58,450.51,98.83,450.51,101.31ZM413,119.59a6.58,6.58,0,0,1,1.26,3.37,3.35,3.35,0,0,1-1.06,2.52,4,4,0,0,1-2.87,1,4.27,4.27,0,0,1-2.67-1.11,30.16,30.16,0,0,1-3.58-3.73L399,115.41a5.68,5.68,0,0,1-1-1.41,3.91,3.91,0,0,1-.25-1.51,3.06,3.06,0,0,1,1-2.32,3.72,3.72,0,0,1,2.67-.9q3,0,7.45,5A49.53,49.53,0,0,1,413,119.59Z"/><path class="a40b2c79-e129-4de7-85fe-301386dba3c1" d="M510.54,104.33v29.91c0,3.16-1.38,4.73-4.13,4.73a4.11,4.11,0,0,1-3.18-1.15,5.23,5.23,0,0,1-1.05-3.58v-29.3q-22.67,1.41-35.35,1.81c-2.62.07-3.93-1.38-3.93-4.33a3.53,3.53,0,0,1,1.91-3.53q1.41-.7,10.88-.7,8.76,0,17-.51L497.44,93l.61-.3A182.62,182.62,0,0,0,477.4,79.46q-6.24-3.22-6.24-5.44a4,4,0,0,1,1.06-3,4.75,4.75,0,0,1,3.37-1,7.3,7.3,0,0,1,3.62,1.41l4.44,2.42,3.22,1.91,10.27-14.5-11.68,1-16,.71q-4,.11-4-4.13c0-2.62,2-3.93,6.14-3.93h4.63q36.76-1.41,57.21-6a39.06,39.06,0,0,1,6.24-1.21c3.09,0,4.63,1.55,4.63,4.63A3.5,3.5,0,0,1,542,55.49a20.71,20.71,0,0,1-4.28,1q-3.18.55-7.3,1.16-12,1.72-23.37,2.72l-14.6,19,1.31.7,9.56,6.65q7.67-8.27,13.8-16.12,5.83-7.35,8.26-7.35,4.63,0,4.63,4.13,0,1.92-6.85,9.67a256.25,256.25,0,0,1-19.53,19.24l-1.21,1.2q18.23-.49,34.24-1.61l-.81-.8-4.73-5.24c-1.54-1.68-2.32-3-2.32-3.93q0-3.31,3.13-3.32c.94,0,2.36.8,4.28,2.42s4.54,4.16,7.9,7.65a78.51,78.51,0,0,1,7,8.21q2.42,3.38,2.42,5c0,2.49-1.45,3.73-4.33,3.73q-2.12,0-4.94-3.63l-3-4.13Q526.34,103.32,510.54,104.33Zm-22.16,9.77q0,1.41-2.27,4.58a80.36,80.36,0,0,1-6.49,7.71q-8.76,9.36-12.89,9.36a3.7,3.7,0,0,1-2.82-1,4.32,4.32,0,0,1-.91-3.07c0-1.61,1.14-3.18,3.42-4.73a49.68,49.68,0,0,0,12-11.78q3.52-4.74,5.84-4.74Q488.38,110.47,488.38,114.1Zm64.25,16.82q0,4.43-4.33,4.43T534.1,126Q524,116.43,524,113.5a3.26,3.26,0,0,1,1-2.57,4.52,4.52,0,0,1,3.07-.86c1.27,0,3.22,1.45,5.84,4.33A58.45,58.45,0,0,0,549,126.49Q552.63,128.4,552.63,130.92Z"/><path class="a40b2c79-e129-4de7-85fe-301386dba3c1" d="M565.67,128.65a3.4,3.4,0,0,1-.95-2.67,9.57,9.57,0,0,1,.9-3.62q2.63-6.35,2.92-16,.11-4.43,3.53-4.43a4.17,4.17,0,0,1,2.77.76,3.14,3.14,0,0,1,.85,2.47l-.1,2.72q-1.5,21.64-7,21.65A4.37,4.37,0,0,1,565.67,128.65Zm14.76,6.4V96.78L568.85,98a3.49,3.49,0,0,1-3-.86,4.28,4.28,0,0,1-1-3.07,3.08,3.08,0,0,1,2.92-3.32l5-.41H574l6.14-9.26a111.56,111.56,0,0,0-12-9.87q-2.71-1.82-2.72-3.83c0-2.48,1.21-3.73,3.63-3.73.8,0,2.08.68,3.82,2l.61.4a94.22,94.22,0,0,0,7.15-14.6c1.07-2.75,2.62-4.13,4.63-4.13q3.93,0,3.93,3.73t-10.58,19l5.44,4.63,7.05-12.18a4,4,0,0,1,3.53-2.12c2.55,0,3.82,1.25,3.82,3.73q0,4.53-16.61,25.78l1.21-.1,9.66-.4.51-.1-1-2.72a8.35,8.35,0,0,1-.5-2.62c0-1.88,1-2.82,2.92-2.82q2,0,4.73,6.75c1.75,4.29,2.62,7,2.62,8.25q0,3.43-3.53,3.43a2.64,2.64,0,0,1-2.11-1.16A7.63,7.63,0,0,1,595,95.17l-6.75.8v39.08q0,4.42-3.93,4.43T580.43,135.05Zm14.8-10.88-.3-1.41-2.42-17.93a2.22,2.22,0,0,1,.71-2.21,4.38,4.38,0,0,1,2.72-.71q3,0,4.23,6.75,1.91,11,1.91,13.3,0,3.72-3.73,3.72A3.48,3.48,0,0,1,595.23,124.17Zm2.72,9.57c0-1.28.81-2.45,2.42-3.53q13.89-8.55,15.1-34.54l-8.76.6c-2.48.21-3.72-1-3.72-3.72s3.12-3.93,9.36-3.93l.2-.1a178.27,178.27,0,0,0,5.64-19.64v-.6H604.7q-4,0-4-3.63t4-3.52h18.63V52.37q0-4.93,3.93-4.94c2.62,0,3.92,1.65,3.92,4.94v8.76h20.55q4.42,0,4.43,3.52t-4.43,3.63H626.35a105.88,105.88,0,0,1-6.85,19.94l23.06-1.61L639,81.27q-2.22-3.33-2.22-4.23c0-2,1.18-3,3.53-3q1.6,0,5,4.43a124,124,0,0,1,8.46,13.09,26,26,0,0,1,1.51,2.62,4.59,4.59,0,0,1,.61,1.91q0,3.53-3.83,3.53-2.11,0-4.63-4.43L646,92.45l-7.25.9v31.12q0,3,1.11,3.93c.46.4,1.94.6,4.43.6q3.21,0,3.93-1.2,1-1.81,1.1-6.45a8.66,8.66,0,0,1,1-4.18,3,3,0,0,1,2.77-1.36q3.72,0,3.72,3.83a33.8,33.8,0,0,1-1.81,12q-1.82,4.63-12.18,4.64-6.15,0-8.36-1.31-2.62-1.51-2.62-6.15V94.16l-8.66.91h-.51l-.2,5.23q-.7,17.13-8.15,27.6-7,10-12.69,10Q597.95,137.87,598,133.74Z"/><path class="a40b2c79-e129-4de7-85fe-301386dba3c1" d="M719.41,135.35q0-4,4.63-4h5.74q3.33,0,3.52-3.52v-6.65H672.78c-2.69,0-4-1.17-4-3.53s1.34-3.52,4-3.52H733.3v-4.93h-3.52q-20.34,0-28.6-1.52a22.27,22.27,0,0,1-12.89-7.45q-6.64,4.83-10.28,7t-5.43,2.12a3.52,3.52,0,0,1-2.62-1.16,4,4,0,0,1-1.11-2.87,2.82,2.82,0,0,1,.55-1.87,11.63,11.63,0,0,1,1.57-1.46,62.38,62.38,0,0,1,6.24-3.12q5.74-2.72,6.85-3.32V89.12a3.06,3.06,0,0,0-3.23-3.42h-7.35Q669,85.7,669,82t4.53-3.62h10q4.34,0,6.3,2t1.86,6.2v7.95a14.14,14.14,0,0,0,6.65,5.24q7.05,2.92,18.83,2.92l32.63-.1,6.65-.2q3.72-.1,3.72,3.42c0,2.35-1.84,3.53-5.54,3.53H741.16v4.83h14.2q4.13,0,4.13,3.52c0,2.36-1.38,3.53-4.13,3.53h-14.2v9q0,4.94-2.22,7.2t-7.05,2H724Q719.41,139.28,719.41,135.35ZM683,72.71l-2.42-1.11a53,53,0,0,0-4.83-2.22,3.82,3.82,0,0,1-1.76-6,3,3,0,0,1,2.26-.9q2.22,0,7.56,2.51a26.47,26.47,0,0,1,4.58,2.67,3.25,3.25,0,0,1,1.46,2.47,4.18,4.18,0,0,1-.76,2.67,2.38,2.38,0,0,1-2,1A10.56,10.56,0,0,1,683,72.71Zm2.92-14.3q-1.22-.81-5.64-3.12c-2.22-1.08-3.32-2.35-3.32-3.83a3.54,3.54,0,0,1,1-2.52,2.93,2.93,0,0,1,2.17-1q1.82,0,7.35,2.72c3.69,1.82,5.54,3.66,5.54,5.54q0,3.73-3.42,3.73A7.55,7.55,0,0,1,685.87,58.41Zm8.36,72.71L692,128.7a14.54,14.54,0,0,1-1.61-2,3.23,3.23,0,0,1-.5-1.71,3,3,0,0,1,1-2.17,3.07,3.07,0,0,1,2.26-1,6.28,6.28,0,0,1,3.12,1,21.53,21.53,0,0,1,4,3.32c3,2.82,4.43,5,4.43,6.65q0,3.82-3.92,3.83Q698.75,136.66,694.23,131.12Zm8.21-34.34q-2-1.92-1.77-6V73.31q0-4.23,1.92-6.19c1.27-1.31,3.29-1.9,6-1.76h11.58l.81-3.93H697.65q-3.52,0-3.52-2.92c0-2,1.17-3,3.52-3h13.2a40.86,40.86,0,0,1-2.32-3.63,4.8,4.8,0,0,1-.7-2.11,2,2,0,0,1,.85-1.72,4.27,4.27,0,0,1,2.47-.6,5.1,5.1,0,0,1,3.47,2,37.19,37.19,0,0,1,4.38,6.1h13.2l2.72-4.84A10.53,10.53,0,0,1,737,48a3.71,3.71,0,0,1,2.47-.9,5.82,5.82,0,0,1,3.12.7,2.1,2.1,0,0,1,1.11,1.82,4.35,4.35,0,0,1-.71,2.11,41,41,0,0,1-2.62,3.73h15.31c2.28,0,3.43,1,3.43,3s-1.15,2.92-3.43,2.92H729.38l-1.61,3.93h17.72q4.23,0,6.14,1.91c1.28,1.28,1.88,3.29,1.82,6V90.43q0,8.67-8,8.26H708.63Q704.4,98.69,702.44,96.78Zm43.25-23.17a2.53,2.53,0,0,0-2.62-2.82h-32c-1.81,0-2.72.95-2.72,2.82v1.52h37.36Zm0,10.38V79.86H708.33V84Zm0,6.44V88.72H708.33v1.71a2.4,2.4,0,0,0,2.72,2.72h32C744.82,93.15,745.69,92.25,745.69,90.43Z"/><path class="a40b2c79-e129-4de7-85fe-301386dba3c1" d="M775.4,72.71q-4.42,0-4.43-3.83t4.43-3.83h25.38q4.43,0,4.43,3.83t-4.43,3.83Zm-1.51-17.42c0-2.56,1.51-3.83,4.53-3.83h19c2.95,0,4.43,1.27,4.43,3.83s-1.48,3.82-4.43,3.82h-19Q773.89,59.11,773.89,55.29Zm89.23,25.78A4.61,4.61,0,0,1,862,84.39a4.29,4.29,0,0,1-3.27,1.21q-3,0-11.69-7.76a3,3,0,0,1,.41,1.51c0,2.42-1.45,3.63-4.33,3.63h-24c-2.76,0-4.13-1.21-4.13-3.63a2.79,2.79,0,0,1,.4-1.4q-4.43,4.32-7,6.39c-1.74,1.38-3.05,2.06-3.92,2.06q-2.43,0-3.43-2.71c-.47,1.41-1.81,2.14-4,2.21H778.62q-4.23,0-4.23-3.62t4.23-3.73H797a5.12,5.12,0,0,1,2.62.65A3.37,3.37,0,0,1,801.08,81a6.94,6.94,0,0,1,1.46-1.62c.71-.6,1.19-1,1.46-1.2q11.88-9.77,22.16-28A7.26,7.26,0,0,1,828,48a3.93,3.93,0,0,1,2.32-.65q4.23,0,4.23,3.22a3.2,3.2,0,0,1-.41,1.41q11.08,17.22,26.09,25C862.14,78,863.12,79.32,863.12,81.07Zm-61.84,14.6a3.34,3.34,0,0,1-1.11,2.67,4.76,4.76,0,0,1-3.22,1H778.62q-4.23,0-4.23-3.63c0-2.48,1.41-3.73,4.23-3.73H797C799.84,91.94,801.28,93.19,801.28,95.67Zm-1.81,11.68c1.34,1.28,1.91,3.32,1.71,6.15V127q0,4.42-2,6.45t-6.3,1.71H782.65q-4.53,0-6.54-2c-1.35-1.3-1.88-3.37-1.62-6.19V113.5q0-4.44,1.92-6.4t6.24-1.66h10.27Q797.47,105.44,799.47,107.35Zm-5.74,18.83V114.4c0-1.61-.77-2.38-2.32-2.32h-7.15a2.76,2.76,0,0,0-1.91.56,2,2,0,0,0-.5,1.76v11.78a2,2,0,0,0,2.41,2.32h7.15C793,128.5,793.8,127.73,793.73,126.18Zm64.15-28.6v31.53q0,4.72-2.06,7.15t-6.4,2.41H846.3q-3.42,0-3.42-3.82t3.42-3.73h1.51c1.68,0,2.52-1,2.52-3V115.51H842v18.33a3.71,3.71,0,0,1-.91,2.67,3.45,3.45,0,0,1-2.62,1,3.31,3.31,0,0,1-2.51-1,3.71,3.71,0,0,1-.91-2.67V115.51h-7.65v18.33c0,2.42-1.18,3.62-3.53,3.62a3.35,3.35,0,0,1-2.52-1,3.75,3.75,0,0,1-.9-2.67V115.51h-7.76V135a4.32,4.32,0,0,1-.95,3,3.7,3.7,0,0,1-2.87,1.05,3.54,3.54,0,0,1-2.77-1.05,4.28,4.28,0,0,1-1-3V97.48q0-8.16,8.46-8.15h35.85Q857.88,89.33,857.88,97.58Zm-37.46-1.31h-5.14c-1.74,0-2.62,1-2.62,2.82v9.77h7.76Zm24.87-20a92.61,92.61,0,0,1-14.6-17.62l-.2-.3-1.31,2.11a105.67,105.67,0,0,1-12.09,15.81l1.41-.3h24.58ZM835,108.86V96.27h-7.65v12.59Zm15.31-9.67a3.13,3.13,0,0,0-.66-2.26,2.94,2.94,0,0,0-2.16-.66H842v12.59h8.36Z"/><rect class="e573e649-db78-4ead-83cc-7c8a35ae9082" width="1500" height="200"/></svg>