<svg id="f4db7ec9-c649-4bb0-874e-d47eafeb61fd" data-name="圖層 1" xmlns="http://www.w3.org/2000/svg" viewBox="0 0 1500 200"><defs><style>.a5d298f2-7de5-4507-a25d-773adb2cdf1b{fill:none;}.a000fcee-21b1-4ada-8e24-2c74fbba9eaa,.af04b062-3991-41c1-93e1-13a301cc5e82{fill:#2c3e50;}.a000fcee-21b1-4ada-8e24-2c74fbba9eaa{stroke:#2c3e50;stroke-miterlimit:10;stroke-width:2px;}</style></defs><rect class="a5d298f2-7de5-4507-a25d-773adb2cdf1b" width="1500" height="200"/><path id="ae79b03d-7d02-4906-8722-dd6558c0b23e" data-name="e2accc35-6e7e-4e5f-8d4e-742575bb0946" class="a000fcee-21b1-4ada-8e24-2c74fbba9eaa" d="M152.23,155.14H122.39a2.91,2.91,0,0,1,0-5.82h26.93V50.68H92.4V60.92a2.91,2.91,0,0,1-5.82,0V47.77a2.91,2.91,0,0,1,2.91-2.91h62.74a2.91,2.91,0,0,1,2.91,2.91h0V152.23a2.91,2.91,0,0,1-2.91,2.91Zm-62.74,0H68.64a2.91,2.91,0,0,1,0-5.82H86.58V136H47.77a2.91,2.91,0,0,1-2.91-2.91h0V73.37a2.91,2.91,0,0,1,2.91-2.91h83.45a2.9,2.9,0,0,1,2.9,2.9h0v59.69a2.9,2.9,0,0,1-2.89,2.91H92.4v13.35h17.95a2.91,2.91,0,1,1,0,5.82H89.49Zm0-25h38.82V76.27H50.68v53.88Zm22.86-18.55H66.63a2.91,2.91,0,0,1,0-5.82h45.72a2.91,2.91,0,1,1,0,5.82Zm-10.29-11H76.92a2.91,2.91,0,0,1-.37-5.81h0a1.93,1.93,0,0,1,.34,0h25.14a2.91,2.91,0,1,1,.37,5.81h-.37Z"/><path class="af04b062-3991-41c1-93e1-13a301cc5e82" d="M255.54,119.34c0-1.75,1.34-3.29,4-4.64q8.76-4.42,15.81-14.6H260.67q-4.12,0-4.12-3.42t4.12-3.53h14.1V63.34h-11c-2.76,0-4.13-1.17-4.13-3.52s1.37-3.43,4.13-3.43h11V52.26c0-3.28,1.38-4.93,4.13-4.93s4,1.65,4,4.93v4.13h37.16V52.26c0-3.28,1.38-4.93,4.13-4.93s4,1.65,4,4.93v4.13h11.08c2.68,0,4,1.18,4,3.53s-1.35,3.42-4,3.42h-11V93.15h14.3q3.93,0,3.93,3.53a3.09,3.09,0,0,1-1,2.51,4.94,4.94,0,0,1-3,.91H327a44.7,44.7,0,0,0,17.32,14.2c2.15,1,3.22,2.42,3.23,4.23,0,2.89-1.35,4.33-4,4.33q-2.82,0-10.58-6a68.85,68.85,0,0,1-14.8-16.72H284.54a74.76,74.76,0,0,1-14.6,17.12q-7.54,6.34-10.67,6.35C256.78,123.58,255.53,122.16,255.54,119.34Zm6.44,13q0-3.53,4.13-3.53H297V118.63H279.51q-3.93,0-3.93-3.42t3.93-3.53H297v-4.83c0-3.22,1.41-4.84,4.23-4.84s4,1.62,4,4.84v4.83h17.83q4,0,4,3.53t-4,3.42H305.29V128.8h31.62q4.23,0,4.23,3.63c0,2.42-1.41,3.62-4.23,3.62h-70.8q-4.11,0-4.11-3.72Zm58.11-63.15V63.34H282.93v5.84Zm0,11.79V75H282.93v6Zm0,12.18V86.81H282.93v6.34Z"/><path class="af04b062-3991-41c1-93e1-13a301cc5e82" d="M364.91,134.49c-1.81-1.78-2.72-4.71-2.72-8.81V63.34q0-6,2.67-8.76c1.78-1.81,4.71-2.72,8.81-2.72h61.94q6,0,8.76,2.67t2.72,8.81v62.34q0,6-2.67,8.76c-1.78,1.82-4.72,2.72-8.81,2.72H373.67Q367.63,137.16,364.91,134.49Zm72.51-6.59c.81-.81,1.21-2.45,1.21-4.94V66.06c0-2.48-.4-4.13-1.21-4.93s-2.38-1.21-4.73-1.21h-56c-2.41,0-4,.4-4.83,1.21s-1.21,2.45-1.21,4.93V123c0,2.49.4,4.13,1.21,4.94s2.42,1.21,4.83,1.21h56C435,129.11,436.61,128.7,437.42,127.9Zm-62.64-7.66q0-2.42,3.93-5,16-10.78,19.23-27.6h-18a6.26,6.26,0,0,1-3.73-.9,3.53,3.53,0,0,1-1.21-3c0-2.76,1.64-4.13,4.94-4.13h19c.06-.61.13-1.4.2-2.37s.1-2.13.1-3.47.07-3.23.2-6a5,5,0,0,1,1.11-3.27,4.27,4.27,0,0,1,3.22-1.06c2.76,0,4.13,1.45,4.13,4.33q0,6.26-.4,11.89h21.55q4.93,0,4.94,4t-4.94,4H409.12A54.77,54.77,0,0,0,418,102.87a74.2,74.2,0,0,0,14,12.84c1.81,1.28,2.72,2.65,2.72,4.13q0,4.53-3.93,4.53-2.12,0-7.65-4.43-12.39-9.87-18.53-26.49a61.05,61.05,0,0,1-12.69,21.86q-8.26,9.27-12.39,9.26-4.74,0-4.75-4.33Z"/><path class="af04b062-3991-41c1-93e1-13a301cc5e82" d="M462.6,92.35V83.58a7.23,7.23,0,0,1,1.26-4.53,5,5,0,0,1,3.67-1.81V58.11q0-7.45,7.56-7.46H490.8q7.54,0,7.55,7.46V77.24A5.26,5.26,0,0,1,502,79.05a7.31,7.31,0,0,1,1.46,4.53v7q0,4-3.33,4t-3.32-4V86.71a2.23,2.23,0,0,0-1.9-2.52,2.15,2.15,0,0,0-.62,0H471.86a2.33,2.33,0,0,0-2.61,2,2.18,2.18,0,0,0,0,.51v5.64c0,2.62-1.1,3.92-3.32,3.92S462.6,95,462.6,92.35Zm8.11,45.82a4.21,4.21,0,0,1-1-3V96.68q0-7.16,7.35-7.15h12.69q7.25,0,7.25,7.15v33.53c0,2.89-.67,5-2,6.5s-3.43,2.16-6.25,2.16h-3.42a3.83,3.83,0,0,1-2.72-.85,3.45,3.45,0,0,1-.91-2.67q0-3.63,3.53-3.63H487a3,3,0,0,0,2.21-.8,3.14,3.14,0,0,0,.81-2.32v-6.75H477v13.3c0,2.68-1.21,4-3.63,4A3.46,3.46,0,0,1,470.71,138.17Zm8.61-68.28q0-6.15,6-6.14H492V60.42a2.37,2.37,0,0,0-2.09-2.62,2.26,2.26,0,0,0-.52,0H476.7c-1.68,0-2.59.91-2.72,2.72V77.14h5.34ZM490,98.79a2.32,2.32,0,0,0-2-2.62,2.36,2.36,0,0,0-.65,0h-7.75a2.33,2.33,0,0,0-2.63,2,2.43,2.43,0,0,0,0,.66v3.93h13Zm0,16.62v-6.24H477v6.24Zm2-45.32h-3.82c-1.61,0-2.42.77-2.42,2.32v4.73H492Zm7.26,64c0-2.22,1.1-3.32,3.32-3.32h11.88L512.65,123a8.45,8.45,0,0,1-5.44-1.56,5.58,5.58,0,0,1-1.91-4.58v-6.45a6.24,6.24,0,0,1,1.76-4.78,7.25,7.25,0,0,1,5.19-1.66h29.5q7.05,0,7,6.24v6.35q0,6.45-7.35,6.44l-1.71,7.76h10.78c2.21,0,3.32,1.1,3.32,3.32s-1.11,3.32-3.32,3.32H502.58c-2.22.05-3.32-1-3.32-3.27Zm4.53-35.5a3.09,3.09,0,0,1-.91-2.37c0-2.21,1.18-3.31,3.53-3.32h44.21c2.15,0,3.23,1.11,3.22,3.32s-1.08,3.29-3.22,3.23H506.41a3.66,3.66,0,0,1-2.62-.81ZM506,86.4c-1.33-1.27-1.89-3.32-1.66-6.14V64c0-3,.64-5.1,1.92-6.45s3.32-1.91,6.14-1.71h5.23v-5a3.38,3.38,0,0,1,.76-2.46,3,3,0,0,1,2.27-.76c2.08,0,3.12,1.08,3.12,3.22v5h6.75v-5c0-2.14,1-3.22,3.12-3.22s3,1.08,3,3.22v5h5.84c3,0,5.09.64,6.4,1.91s1.89,3.36,1.76,6.25V80.26c0,2.89-.66,5-2,6.35s-3.37,1.91-6.19,1.71H512.35Q507.91,88.32,506,86.4Zm11.74-24.17h-4.13c-1.41,0-2.19.78-2.32,2.32v4.53h6.45Zm0,12.59h-6.45v4.84A2.09,2.09,0,0,0,513.13,82a2.06,2.06,0,0,0,.43,0h4.13Zm23.66,40v-2.51a2.06,2.06,0,0,0-2.21-2.32H515c-1.48,0-2.22.77-2.22,2.32v2.51a2.11,2.11,0,0,0,1.91,2.31,1.61,1.61,0,0,0,.31,0h24.17c1.31,0,2.05-.79,2.18-2.34Zm-8.46,16,1.41-7.46v-.3H519.6l1.61,7.05.1.71Zm-2.31-61.74V62.23h-7v6.85Zm0,12.89V74.82h-7V82Zm13-17.42a2.06,2.06,0,0,0-1.76-2.32,1.75,1.75,0,0,0-.56,0h-4.73v6.85h7Zm0,15.11V74.82h-7V82h4.73a2,2,0,0,0,2.27-1.69,2,2,0,0,0,0-.65Z"/><path class="af04b062-3991-41c1-93e1-13a301cc5e82" d="M565.62,84.19q0-1.92,5.24-5.94,6.54-5,9.37-7.56A5.57,5.57,0,0,1,584,68.88q3.93,0,3.93,3.63c0,1.47-2.69,4.5-8.06,9.06s-8.76,7-10.37,7Q565.63,88.53,565.62,84.19Zm.1,51c0-1.35.37-2.22,1.11-2.62a18.15,18.15,0,0,1,3.73-.61l3.93-.4a119.14,119.14,0,0,0,15-2.62l8.86-1.81c2.55,0,3.82,1.24,3.83,3.73,0,1.74-1.55,3-4.63,3.72q-18.43,4.63-28.5,4.64c-2.22,0-3.33-1.39-3.33-4.07Zm12.59-77-4-2.42q-2.82-1.6-2.82-3.53,0-3.72,3.93-3.72,1.22,0,7.35,3.32c4.09,2.21,6.16,4.07,6.23,5.56a4.39,4.39,0,0,1-1,3.22,4.23,4.23,0,0,1-3.12,1q-1.23,0-6.57-3.51ZM575.39,117V95.17q-.71-10.17,9.37-9.37h52.37q10.07-.81,9.36,9.37v21.75q.71,10.06-9.36,9.37H584.76q-10.08.7-9.37-9.37Zm62.94-21.75c0-2.29-1.1-3.43-3.32-3.43H586.87q-3.42,0-3.42,3.43v2.21h54.88Zm0,13.69V103H583.45v5.84Zm0,8.06v-2.5H583.45v2.42q0,3.42,3.42,3.42H635c2.23,0,3.33-1.14,3.33-3.42ZM619.5,71h-.2q-4,6.14-12.79,10T591.2,84.89a3.49,3.49,0,0,1-2.62-.85,3.66,3.66,0,0,1-.8-2.57c0-2,1.07-3.16,3.22-3.42q11.09-1.71,17.37-5.9a15.94,15.94,0,0,0,7.41-10.82h-13l-1,1.11q-5.44,6-8.06,6c-2.35,0-3.53-1.21-3.52-3.63,0-1,.77-2.18,2.31-3.52l2-1.71A31.1,31.1,0,0,0,597,57.2c2.49-2.89,4.23-4.94,5.24-6.14q3-3.63,4.94-3.63,4,0,4,2.82,0,1.52-2.92,4.83h37.47c4.56,0,6.85,1.51,6.85,4.54q0,1.91-6.35,8.05a42.49,42.49,0,0,1-5,4.38,6.69,6.69,0,0,1-3.08,1.56,3.75,3.75,0,0,1-2.66-.8,3.43,3.43,0,0,1-.86-2.62c0-.94.7-2,2.11-3,3.23-2.62,4.84-4.26,4.84-4.94a.85.85,0,0,0-.3-.65,1,1,0,0,0-.71-.25H623.13l-.71,3q8.67,11.88,30,14.8,3.63.41,3.63,3.63,0,4-3.93,4l-2.21-.3Q627.46,82.58,619.5,71Zm8,64.35a20,20,0,0,1-5.44-2.07c-1.28-.77-1.91-1.56-1.91-2.36q0-3.63,4-3.63l1.92.41a149.07,149.07,0,0,0,24.47,4.12,11.72,11.72,0,0,1,4.43,1.11,2.62,2.62,0,0,1,1.41,2.42q0,3.83-3.72,3.83-10.8,0-25.2-3.83Z"/><path class="af04b062-3991-41c1-93e1-13a301cc5e82" d="M704.5,68.88q0,3.63-4.43,3.63H672.38c-2.89,0-4.33-1.21-4.34-3.63s1.45-3.62,4.34-3.62h27.69C703,65.26,704.5,66.46,704.5,68.88ZM671.37,55.29q0-3.63,4.23-3.63h21.25c2.95,0,4.42,1.21,4.43,3.63s-1.47,3.63-4.43,3.62H675.6Q671.37,58.91,671.37,55.29Zm29.41,27q0,3.42-4.23,3.42H675.8c-2.75,0-4.13-1.17-4.13-3.53s1.38-3.42,4.13-3.42h20.75c2.82,0,4.23,1.17,4.23,3.52Zm0,13.39q0,3.42-4.23,3.42H676c-2.89,0-4.34-1.14-4.33-3.42s1.38-3.45,4.13-3.52h20.75q4.23,0,4.23,3.51Zm0,17.72V129q0,8.07-8.26,8.06H680a8.58,8.58,0,0,1-6.14-2,7.7,7.7,0,0,1-2.12-5.84V113.39q0-8,8.26-8h12.49q8.28,0,8.29,8Zm-7.26,1.31a2.32,2.32,0,0,0-1.95-2.62,2.43,2.43,0,0,0-.66,0h-9.27a2.38,2.38,0,0,0-2.64,2.09,2.26,2.26,0,0,0,0,.52v13c0,1.81.87,2.71,2.62,2.71h9.27c1.67,0,2.55-.9,2.61-2.71Zm66.57,1.41a60.24,60.24,0,0,1,0,7.36q-.81,8.05-2.92,11.12a6.45,6.45,0,0,1-5.54,3.08,5.85,5.85,0,0,1-4.38-2.42A17.93,17.93,0,0,1,744,128.1q-3-11.38-3.12-28.91l-.3-31.32.1-3.72a3.89,3.89,0,0,0-1.21-3.38,5.09,5.09,0,0,0-3.73-.85H725.25v26h6.14q4.23,0,4.23,3.73a3.35,3.35,0,0,1-1.11,2.67,4.62,4.62,0,0,1-3.12,1h-6.14V134q0,4.53-3.83,4.53a3.65,3.65,0,0,1-2.92-1.16,5,5,0,0,1-1-3.37V93.25h-7c-2.88,0-4.33-1.24-4.33-3.72s1.45-3.63,4.33-3.63h7v-26H708q-4.74,0-4.74-3.73t4.74-3.7h30.71q9.87,0,9.87,8.15l-.1,2,.2,41.19a119.32,119.32,0,0,0,1.06,17c.64,3.86,1.49,5.79,2.57,5.79.54,0,.87-.91,1-2.72s.23-5.1.3-9.87q0-3.33,3.22-3.33c2,0,3,1.15,3.12,3.43a14.83,14.83,0,0,0,.14,2Z"/><path class="af04b062-3991-41c1-93e1-13a301cc5e82" d="M862.51,118.83c0,2.22-1.37,3.33-4.13,3.33H820.12v7.15c0,3.62-.78,6.24-2.32,7.85s-4,2.28-7.35,2H804.3a6,6,0,0,1-3.67-.91,3.48,3.48,0,0,1-1.16-2.92q0-3.74,4.83-3.73h4c2.49,0,3.79-1.31,3.93-3.92v-5.54H776q-4,0-4-3.33t4-3.32h36.26v-2.82a3.54,3.54,0,0,1,1.71-3.32c1.08-.67,3.76-1.51,8.06-2.52l10.47-2.72v-.2H788q-3.93,0-3.93-3.12a3,3,0,0,1,.91-2.42,4.46,4.46,0,0,1,3-.81h53.88a15.46,15.46,0,0,1,5.84.86,2.77,2.77,0,0,1,2,2.57q0,1.61-6.94,4.53A176.87,176.87,0,0,1,823.34,112c-2.15.61-3.22,1.58-3.22,2.93v.6h38.26C861.14,115.51,862.51,116.62,862.51,118.83Zm-89.33-17V94.06c0-2.75.54-4.77,1.62-6a6.67,6.67,0,0,1,5.23-2h1.41l-2.11-28.9A6.29,6.29,0,0,1,780.49,53a6.49,6.49,0,0,1,3.87-2.27L794.74,49l3.22-.8,1.16-.31a4.87,4.87,0,0,1,1.26-.2q3.12,0,3.12,3.53,0,1.61-2.82,2.67a46.28,46.28,0,0,1-9.47,1.86,6.55,6.55,0,0,0-3.21,1,2.36,2.36,0,0,0-.86,2.16l.1,2.82h12.29c2.48,0,3.73,1,3.73,3.12S802.05,68,799.57,68H787.79l.4,5.53h11.38c2.48,0,3.73,1.08,3.73,3.23s-1.25,3.12-3.73,3.12h-11L789,86h56.8l.4-6.14H834.11q-3.42,0-3.42-3.12t3.42-3.23H846.7l.2-5.53H834.11a3.76,3.76,0,0,1-2.61-.76,3.08,3.08,0,0,1-.81-2.37q0-3.12,3.42-3.12h13.5V59.62a3.5,3.5,0,0,0-.61-2.37,3,3,0,0,0-2.21-.66H833.21c-2.15,0-3.23-1-3.22-2.92a3.26,3.26,0,0,1,.75-2.36,3.4,3.4,0,0,1,2.47-.76h14.3q7.86,0,7.85,6L853.25,86h1.11q7.35,0,6.74,8.06v8.16q0,4.73-4,4.73a3.89,3.89,0,0,1-3-1.11,5.33,5.33,0,0,1-1-3.62V96q0-3.12-3.33-3.32h-65q-3.22,0-3.43,3.32v5.94q0,4.74-4,4.74c-2.67,0-4.05-1.62-4.16-4.87Zm31.33-38.27q0-1.71,5.94-5.23l2.21-1.21q-6.35-4.44-6.34-5.74a2.5,2.5,0,0,1,.75-1.92,3.1,3.1,0,0,1,2.17-.7q1.2,0,8.06,4.73l2.92-3c1.41-1.54,2.69-2.31,3.82-2.31a3.16,3.16,0,0,1,2.27.7,2.53,2.53,0,0,1,.75,1.91c0,1.15-1.67,3.19-5,6.15l1.11.6c2.82,2,4.23,3.69,4.23,5a3.12,3.12,0,0,1-.81,2.31,3,3,0,0,1-2.21.81c-1,0-2.09-.64-3.43-1.91l-3.52-3.33q-7.66,6-10,6a2.58,2.58,0,0,1-2.92-2.19,2.66,2.66,0,0,1,0-.69ZM811.15,77l2-1.21-1.11-.7q-5.14-3.33-5.14-4.74c0-1.74,1-2.62,2.92-2.62a8.4,8.4,0,0,1,3.33,1.51l3.12,1.82,1.61,1.1,2.72-2.61q2.42-2.22,3.63-2.22c2.08,0,3.12.91,3.12,2.72q0,1.82-4.64,5.44c4,2.68,5.95,4.7,5.95,6q0,3.12-3,3.12c-.8,0-1.94-.63-3.42-1.91l-4.33-3.63a57.59,57.59,0,0,1-6.34,4.38A9.69,9.69,0,0,1,807.74,85c-2,0-2.92-.94-2.92-2.82C804.81,81.13,806.92,79.39,811.15,77Z"/><rect class="a5d298f2-7de5-4507-a25d-773adb2cdf1b" width="1093.05" height="200"/></svg>