<svg id="e033f7c0-d3fd-4959-8786-1e79f2db7de6" data-name="圖層 1" xmlns="http://www.w3.org/2000/svg" viewBox="0 0 1500 200"><defs><style>.f83c68df-1e10-47d7-935c-2d1309883f27{fill:none;}.b47db71f-71c8-4e7e-b145-8f546c74b906,.b784533a-fd97-42e2-9dcc-fbc25fbca8fe{fill:#2c3e50;}.b784533a-fd97-42e2-9dcc-fbc25fbca8fe{stroke:#2c3e50;stroke-miterlimit:10;stroke-width:2px;}</style></defs><rect class="f83c68df-1e10-47d7-935c-2d1309883f27" width="1500" height="200"/><path id="aea95d7d-23d9-4f20-9179-9ee800fb743d" data-name="b89c6bcc-c8dd-41c7-a29b-c72877899920" class="b784533a-fd97-42e2-9dcc-fbc25fbca8fe" d="M152.23,155.14H122.39a2.91,2.91,0,0,1,0-5.82h26.93V50.68H92.4V60.92a2.91,2.91,0,0,1-5.82,0V47.77a2.91,2.91,0,0,1,2.91-2.91h62.74a2.91,2.91,0,0,1,2.91,2.91h0V152.23a2.91,2.91,0,0,1-2.91,2.91Zm-62.74,0H68.64a2.91,2.91,0,0,1,0-5.82H86.58V136H47.77a2.91,2.91,0,0,1-2.91-2.91h0V73.37a2.91,2.91,0,0,1,2.91-2.91h83.45a2.9,2.9,0,0,1,2.9,2.9h0v59.69a2.9,2.9,0,0,1-2.89,2.91H92.4v13.35h17.95a2.91,2.91,0,1,1,0,5.82H89.49Zm0-25h38.82V76.27H50.68v53.88Zm22.86-18.55H66.63a2.91,2.91,0,0,1,0-5.82h45.72a2.91,2.91,0,1,1,0,5.82Zm-10.29-11H76.92a2.91,2.91,0,0,1-.37-5.81h0a1.93,1.93,0,0,1,.34,0h25.14a2.91,2.91,0,1,1,.37,5.81h-.37Z"/><path class="b47db71f-71c8-4e7e-b145-8f546c74b906" d="M255.54,119.34c0-1.75,1.34-3.29,4-4.64q8.76-4.42,15.81-14.6H260.67q-4.12,0-4.12-3.42t4.12-3.53h14.1V63.34h-11c-2.76,0-4.13-1.17-4.13-3.52s1.37-3.43,4.13-3.43h11V52.26c0-3.28,1.38-4.93,4.13-4.93s4,1.65,4,4.93v4.13h37.16V52.26c0-3.28,1.38-4.93,4.13-4.93s4,1.65,4,4.93v4.13h11.08c2.68,0,4,1.18,4,3.53s-1.35,3.42-4,3.42h-11V93.15h14.3q3.93,0,3.93,3.53a3.09,3.09,0,0,1-1,2.51,4.94,4.94,0,0,1-3,.91H327a44.7,44.7,0,0,0,17.32,14.2c2.15,1,3.22,2.42,3.23,4.23,0,2.89-1.35,4.33-4,4.33q-2.82,0-10.58-6a68.85,68.85,0,0,1-14.8-16.72H284.54a74.76,74.76,0,0,1-14.6,17.12q-7.54,6.34-10.67,6.35C256.78,123.58,255.53,122.16,255.54,119.34Zm6.44,13q0-3.53,4.13-3.53H297V118.63H279.51q-3.93,0-3.93-3.42t3.93-3.53H297v-4.83c0-3.22,1.41-4.84,4.23-4.84s4,1.62,4,4.84v4.83h17.83q4,0,4,3.53t-4,3.42H305.29V128.8h31.62q4.23,0,4.23,3.63c0,2.42-1.41,3.62-4.23,3.62h-70.8q-4.11,0-4.11-3.72Zm58.11-63.15V63.34H282.93v5.84Zm0,11.79V75H282.93v6Zm0,12.18V86.81H282.93v6.34Z"/><path class="b47db71f-71c8-4e7e-b145-8f546c74b906" d="M398.65,91.44a17.14,17.14,0,0,1-.1,1.76,15,15,0,0,0-.1,1.77q-.4,9.87-1.31,20.29T395,129.81Q392.62,138,379.81,138q-3.92,0-3.92-4.13c0-2.29,1.84-3.59,5.54-3.93a17.75,17.75,0,0,0,3.32-.5,3.1,3.1,0,0,0,1.51-.91q1.11-1.2,2-7.35.92-6.75,1.61-21.45c.14-2.15.21-3.76.21-4.84q0-3-3.23-3H379.3a87.27,87.27,0,0,1-6.55,31.52q-5.43,12.6-10,12.59-3.92,0-3.92-4.33,0-1.71,2.11-4.63,9.38-12.69,10.07-32.13l.3-11.78q.21-7.45.21-12.08H364a5.38,5.38,0,0,1-3.42-.91,3.42,3.42,0,0,1-1.11-2.82c0-2.48,1.51-3.73,4.53-3.73h12.39V51.86q0-4.43,4.13-4.43t4.13,4.43V63.54h13.59c3,0,4.54,1.25,4.54,3.73a3.42,3.42,0,0,1-1.11,2.82,5.43,5.43,0,0,1-3.43.91H379.71l-.1,10.87a21.24,21.24,0,0,0-.1,2.52h11.28Q398.65,84.39,398.65,91.44Zm51.86-2.62c0,2.89-1.38,4.34-4.13,4.33q-5,0-15.51-15.31A76.69,76.69,0,0,1,423,62.23a101.49,101.49,0,0,1-10.88,22A49.66,49.66,0,0,1,407,90.84c-1.52,1.54-2.71,2.31-3.58,2.31-2.55,0-3.83-1.37-3.83-4.13,0-1.27.77-2.72,2.32-4.33Q414,71,418.39,51.26c.6-2.55,1.81-3.82,3.62-3.83q4.13,0,4.13,3.32l-.4,2.72Q434,73,448.09,85C449.71,86.27,450.51,87.55,450.51,88.82Zm-4.43,44.11a5.2,5.2,0,0,1-1,3.43,3.6,3.6,0,0,1-2.92,1.2q-1.61,0-5-1.81a167.47,167.47,0,0,0-29-11.28q-3-.9-3-3.42c0-2.75,1.41-4.12,4.23-4.13q3.72,0,15.31,4.13A157.73,157.73,0,0,1,441,127.7c3.4,1.74,5.08,3.49,5.08,5.23Zm-31.27-36.3a3.56,3.56,0,0,1-1-2.47,2.86,2.86,0,0,1,1.06-2.22,4.26,4.26,0,0,1,2.87-.9,12.46,12.46,0,0,1,4.08,1A36.45,36.45,0,0,1,428,95.37a59.29,59.29,0,0,1,7.15,5.13q2.12,1.92,2.22,3.33a4.47,4.47,0,0,1-.86,3.22,4.36,4.36,0,0,1-3,1.31c-1,.13-3.12-.91-6.34-3.12s-6.41-4.4-9.17-6.15a16.16,16.16,0,0,1-3.19-2.46Z"/><path class="b47db71f-71c8-4e7e-b145-8f546c74b906" d="M491.2,134.14a27.56,27.56,0,0,1-12.29-6.85l-.2-.1q-9.76,8.46-12.79,8.46-3.93,0-3.93-4.63,0-3.23,4.54-5a61.73,61.73,0,0,0,8-4.13V103.22q0-3.12-3.12-3.12H466a4.17,4.17,0,0,1-3-.91,3.68,3.68,0,0,1-1-2.81,3.56,3.56,0,0,1,1-2.77,4.36,4.36,0,0,1,3-.86h7.86c2.88,0,5,.62,6.34,1.86s1.95,3.21,1.81,5.89V121l2.82,2.62q6.56,5.23,29.31,5.23l35.75-.4q3.82,0,3.83,3.73,0,4.13-5.84,4.13l-31.12-.11Q498.66,136.15,491.2,134.14ZM475,81.07l-8.36-3.73a6.41,6.41,0,0,1-2.37-1.61,3.54,3.54,0,0,1-.76-2.32q0-3.82,3.93-3.82a11,11,0,0,1,3.12.8q2.22.81,5.24,2,6.54,2.72,6.55,5.84,0,4.13-3.93,4.13A7.56,7.56,0,0,1,475,81.07Zm5.28-19.19a13.93,13.93,0,0,1-1.86-1l-6.65-3.43q-3.52-1.81-3.52-4.23,0-3.93,3.82-3.93c.88,0,3.53,1,8,2.92a16.87,16.87,0,0,1,4.73,3,4.46,4.46,0,0,1,1.62,3.17q0,4.23-3.93,4.23a6.24,6.24,0,0,1-2.22-.73Zm15.36,58.56q0-3.52,4.33-3.52l3,.1a2.9,2.9,0,0,0,3-1.51q1.21-2.62,1.82-13l.5-12.19a2.3,2.3,0,0,0-2.62-2.72h-6.24a100.89,100.89,0,0,1-1.82,15,43.22,43.22,0,0,1-4.53,12.08q-3.12,6-6,6c-2.35,0-3.53-1.25-3.53-3.73a6.11,6.11,0,0,1,1.31-2.92q8.16-11.49,8.46-38.57V69.59h-5q-4,0-4-3.63c0-2.48,1.34-3.73,4-3.73h9.36V51.46q0-4.23,3.93-4.23t3.83,4.23V62.23H512c2.75,0,4.12,1.25,4.12,3.73s-1.37,3.63-4.12,3.63H500.16l.1,2.72-.3,8.35h8.86q6.85,0,6.85,5.74l-.3,6.65q-.6,12.49-1.41,19t-2.32,8.4q-3.22,4.14-11.07,4.13c-3.3,0-4.94-1.38-4.94-4.14Zm16.52-43.7a5.25,5.25,0,0,1,.9-2.32q5.94-9,10.68-23.57c.8-2.35,2.15-3.52,4-3.52q3.72,0,3.72,3.52c0,1.33-1,4.26-2.92,8.77h21.15q4.13,0,4.13,3.72T549.71,67H525.24q-6.15,13.4-9.57,13.39c-2.28,0-3.45-1.22-3.52-3.65ZM521,122.06c0-2.56,1.34-3.83,4-3.83h3.42q3.23,0,3.33-3.32v-11H521.61q-3.92,0-3.92-3.53c0-2.35,1.31-3.53,3.92-3.52h10.18V93.05a8.15,8.15,0,0,1,4-7.15l6.55-4.43H523.73c-2.22,0-3.32-1.11-3.32-3.32s1.1-3.33,3.32-3.33h22.15q6.55,0,6.55,3.93c0,1.14-1,2.49-3,4l-8,6.24A5.38,5.38,0,0,0,539,93.15v3.73h10.77q4,0,4,3.52c0,2.35-1.33,3.52-4,3.53H539v12.49q0,5-2.22,7.35c-1.48,1.57-3.86,2.2-7.15,1.91H525.1C522.38,125.68,521,124.47,521,122.06Z"/><path class="b47db71f-71c8-4e7e-b145-8f546c74b906" d="M577,100.3a156.38,156.38,0,0,1-2.62,26.79,28.51,28.51,0,0,1-2.46,7.91c-1,1.77-2,2.67-3.07,2.67-2.62,0-3.93-1.25-3.93-3.73a11,11,0,0,1,.7-3q3.52-10.68,4.13-36.16V72.1q0-7.84,7.76-7.85H587V50.65q0-3.32,3.73-3.32c2.49,0,3.76,1.11,3.83,3.32v2.42h16.71q3.43,0,3.43,3t-3.43,3H594.53v5.14h15.4q4.23,0,6.2,2c1.31,1.31,1.89,3.34,1.76,6.1v4.63q0,3-3.52,3c-2.35,0-3.52-1-3.53-3V73.41c0-1.74-1-2.68-2.92-2.82h-14v5.14l12.09-1a3.14,3.14,0,0,1,2.31.61,2.65,2.65,0,0,1,.81,2.11,2.5,2.5,0,0,1-.81,2.07,4.74,4.74,0,0,1-2.41.85c-1.21.14-3.23.27-6,.41q-2.31.09-5.94.5v1.51a4.08,4.08,0,0,0,.46,2,1.59,1.59,0,0,0,1.15.91l2.32.1,3.83-.1q6.35-.2,7-.5a3.83,3.83,0,0,0,1.61-2,3.37,3.37,0,0,1,1.26-1.46,3.56,3.56,0,0,1,1.86-.45,3.87,3.87,0,0,1,2.62.8,3.08,3.08,0,0,1,.9,2.42A5.64,5.64,0,0,1,613.56,90q-3.42,1.6-11.18,1.61-4,0-9.57-.3t-5.64-6.85V81.77c-1.34.14-2.28.2-2.82.2l-3.32.31a2.82,2.82,0,0,1-2.26-.66,2.76,2.76,0,0,1-.76-2.06,2.63,2.63,0,0,1,.81-2.17,4.24,4.24,0,0,1,2.41-.75,11.8,11.8,0,0,0,1.46-.1,11.69,11.69,0,0,1,1.56-.11l2.92-.3V70.59h-7.35c-1.81,0-2.72,1.25-2.72,3.73q0,13.4-.1,20.14h38.88a3.72,3.72,0,0,1,2.51.76,2.63,2.63,0,0,1,.91,2.16c0,2-1.14,2.93-3.42,2.92Zm80,18.53-.21,3.83c-.26,5.17-1,9.1-2.31,11.78s-3,4-5,4q-3.53,0-7.15-4.53a50,50,0,0,1-6.64-11.68,96.43,96.43,0,0,1-11.59,11q-6,4.64-8.66,4.64c-2.28,0-3.42-1.25-3.42-3.73a3.74,3.74,0,0,1,.91-2.62q-4.63,1.3-29.11,4.74l-1.86.3a17.09,17.09,0,0,1-2.37.2q-3.32,0-3.32-3.53c0-1.94,1.74-3.12,5.23-3.52l5-.6-.81-3.63a9.57,9.57,0,0,1-.3-2.82,1.89,1.89,0,0,1,1-1.36,4.06,4.06,0,0,1,2.26-.55c1.82,0,3.29,2.51,4.44,7.55l8-1.11.51-2.72c.53-2.68,1.64-4,3.32-4a3.47,3.47,0,0,1,2.47.81,2.12,2.12,0,0,1,.65,2l-.7,3.13L610,126l2.11-.3a2.25,2.25,0,0,1,2.12.61,3.43,3.43,0,0,1,.7,2.31,4.69,4.69,0,0,1-.4,1.51A70.73,70.73,0,0,0,632.9,114.7q-3.74-11.88-4.74-31.82a16.72,16.72,0,0,0-2,.2c-1.75.14-3,.2-3.83.2q-3.32,0-3.32-3.82a3.74,3.74,0,0,1,1-2.77,4.18,4.18,0,0,1,2.56-1.16l5.34-.4q-.4-15.12-.4-22.36c0-3.43,1.27-5.14,3.83-5.14s3.92,1.51,3.92,4.53q0,8.27.1,12.19l.1,10q5.85-.6,8.77-.81l8.66-.8a3.13,3.13,0,0,1,2.77.8,4.34,4.34,0,0,1,1,3c0,2.28-1.47,3.59-4.43,3.92l-16.51,1.61q.8,16.32,2.51,24.88a72.17,72.17,0,0,0,7-14.91c.81-2.34,2.12-3.52,3.93-3.52q4.13,0,4.13,3.42,0,2.82-3.63,9.77a116.22,116.22,0,0,1-8.86,14.2,55.45,55.45,0,0,0,4.53,9.57c1.55,2.42,2.6,3.63,3.13,3.63q1.2,0,1.91-10.08c.2-2.61,1.27-3.91,3.22-3.92Q657,115.11,657,118.83Zm-48.85-15.2q7.35,0,7.35,5.74v4.93q0,5.94-7.35,5.74H586.37a8.59,8.59,0,0,1-5.39-1.46,5.37,5.37,0,0,1-2-4.28v-4.93a5.16,5.16,0,0,1,1.91-4.33,8.16,8.16,0,0,1,5.44-1.41Zm.61,7.85a2.3,2.3,0,0,0-.46-1.66,2,2,0,0,0-1.46-.45H587.68a1.72,1.72,0,0,0-1.36.5,3.31,3.31,0,0,0-.56,1.91v.3q0,2.22,1.92,2.22h19.13a1.64,1.64,0,0,0,1.36-.55,3.62,3.62,0,0,0,.56-2Zm31.62-50.15c-1.28-1.28-1.91-2.38-1.91-3.33,0-2.14,1.2-3.22,3.62-3.22,1.21,0,3.16,1.45,5.84,4.33s3.93,4.84,3.93,6q0,3.83-3.93,3.82a3.61,3.61,0,0,1-2-.7,7,7,0,0,1-2-2.12,29.8,29.8,0,0,0-3.58-4.78Z"/><path class="b47db71f-71c8-4e7e-b145-8f546c74b906" d="M672.93,135.1a7.89,7.89,0,0,1-2-5.79V72a8.16,8.16,0,0,1,1.91-5.84,7.4,7.4,0,0,1,5.64-2h5.14q.79-4.53,1.91-12.79a3.85,3.85,0,0,1,1.31-2.72,4.44,4.44,0,0,1,2.92-.91c3.35,0,4.8,1.71,4.33,5.14a68.13,68.13,0,0,1-2.62,11.28h7.65q7.67,0,7.66,7.85l.1,57.31q0,7.76-7.76,7.75h-20.4A7.86,7.86,0,0,1,672.93,135.1Zm25.73-60q0-3.33-3.32-3.33H682.55q-3.33,0-3.33,3.33V95.27h19.44Zm0,51V102.72H679.22v23.36q0,3.33,3.33,3.33h12.79q3.31,0,3.32-3.33Zm29.91,11.48a3.85,3.85,0,0,1-1.21-3.12c0-2.75,1.55-4.12,4.64-4.13q6.24,0,8.76-.25a8.08,8.08,0,0,0,3.82-1.16,6.23,6.23,0,0,0,2.12-3.22q1.41-4.12,2.21-20.14t.81-30.41c0-2.56-1.48-3.83-4.43-3.83H722.83a54.88,54.88,0,0,1-6.14,12.28,4.09,4.09,0,0,1-3.53,2.32,4,4,0,0,1-2.11-.6,3.44,3.44,0,0,1-2-3.13,5.53,5.53,0,0,1,.81-2.71,114,114,0,0,0,6.24-13.4q2.52-6.64,4.74-14.9a5.62,5.62,0,0,1,1.56-2.67,3.71,3.71,0,0,1,2.57-1,9.57,9.57,0,0,1,1.41.2,3.45,3.45,0,0,1,3,3.63,9.12,9.12,0,0,1-.3,2.21q-.72,2.93-1.72,5.79a29.11,29.11,0,0,1-1.91,4.49h24.17q8.86,0,8.86,7.45,0,18.93-1,36.5t-3.42,23.52a10.51,10.51,0,0,1-5.54,5.84q-3.72,1.62-11.28,1.61c-2,0-3.56,0-4.63-.1a6.65,6.65,0,0,1-4-1.09Zm.51-26.53a13.09,13.09,0,0,1-2.42-3.48q-1.92-3.42-5.64-9.16l-1.41-2.22a6.54,6.54,0,0,1-.86-1.71,5.27,5.27,0,0,1-.35-1.71,3.5,3.5,0,0,1,1-2.67,3.63,3.63,0,0,1,2.62-1,5.1,5.1,0,0,1,3.42,1.82,43.63,43.63,0,0,1,4.63,5.94q5.83,8.76,5.84,11.58a3.61,3.61,0,0,1-1,2.72,4.21,4.21,0,0,1-3,1,4,4,0,0,1-2.83-1.16Z"/><path class="b47db71f-71c8-4e7e-b145-8f546c74b906" d="M863.22,124.47a19.58,19.58,0,0,1-1.61,8.06q-2.52,5.94-6.15,5.94-7.76,0-16.11-12.08-15.51,10.26-20.75,10.27c-2.41,0-3.61-1.28-3.62-3.83,0-1.75,1.61-3.12,4.83-4.13a48.57,48.57,0,0,0,8.26-3.62,78.14,78.14,0,0,0,7.45-4.74,58,58,0,0,1-5.84-16.71h-15.3v3.82a31.9,31.9,0,0,1-.11,3.63,3,3,0,0,1,2.32-1.21,6.82,6.82,0,0,1,2.92.86,15.31,15.31,0,0,1,3.53,2.56c2.55,2.49,3.82,4.23,3.82,5.24a3.17,3.17,0,0,1-2.76,3.53,3.22,3.22,0,0,1-.76,0q-2.82,0-9.27-7.86a33.1,33.1,0,0,1-5.33,14.6q-4.54,7-8.26,6.95T796.75,132c0-1,1.17-2.69,3.53-5q7.35-7.16,7.35-19.84l-.1-3.52h-2.62c-2.49,0-3.76-1.14-3.83-3.43q-.41,1.92-2.82,1.92c-1.14,0-2.21-1.35-3.22-4l-2.62-5.74-.4-.81v44.21q0,3.63-3.63,3.63t-3.52-3.63v-44q-2.73,12-5.29,17.88c-1.71,3.92-3.4,5.88-5.09,5.89a3.08,3.08,0,0,1-3.42-3.32c0-1.62.77-3.83,2.32-6.65A104.88,104.88,0,0,0,784.06,76H775.8c-2.75,0-4.12-1.31-4.13-3.93s1.37-4,4.13-4h9.07V50.75c0-2.35,1.17-3.53,3.52-3.52s3.55,1.18,3.61,3.52V68h5.84c2.55,0,3.83,1.3,3.83,3.92s-1.28,4-3.83,4H792v12.4a2.72,2.72,0,0,1,2-.71c1.21,0,2.76,1.78,4.63,5.34s2.76,5.57,2.62,6.24c.41-1.54,1.61-2.31,3.63-2.31h23.67q-1.72-13.29-1.92-39.38V54.88l-.1-3.32a4.92,4.92,0,0,1,.86-3.22,3.44,3.44,0,0,1,2.77-1q3.72,0,3.72,4.13l-.1,4.53-.1,4.43v2.32l.2,6.64.3,8,.41,8.06.1,1.91a2.68,2.68,0,0,1,1.46-2.21,8.57,8.57,0,0,1,3.67-1L844.08,76a31,31,0,0,0-3.47-3.12l-2.67-2.12L836,69.28a4,4,0,0,1-1.82-3.22,3.57,3.57,0,0,1,.86-2.52,3.24,3.24,0,0,1,2.47-.9,4.7,4.7,0,0,1,2.31.9l2.82-7.65q1.62-6.24,4.54-6.24c2.62,0,3.92,1.1,3.92,3.32q0,2.82-6.54,14.3l2.72,2.32q4.62-9.17,6.74-9.17c2.49,0,3.74,1,3.73,3.12q0,1.41-6.14,12.19l-5.14,7.65,7.55-1-.7-1.72c-.07-.13-.2-.46-.4-1a4.3,4.3,0,0,1-.31-1.41q0-2.82,3.23-2.82t6.44,10.87l.51,1.62a3.05,3.05,0,0,1-.91,2.41,3.61,3.61,0,0,1-2.52.81c-1.47,0-2.72-1.14-3.72-3.43l-6.35,1.62-9,1.51-2.32.3a2.52,2.52,0,0,1-2.16-.56,3.31,3.31,0,0,1-1.06-2.06c.2,2.89.5,5.67.91,8.36h12.08l-.2-.3q-2.22-3.12-2.22-4.43a1.85,1.85,0,0,1,.76-1.57,3.48,3.48,0,0,1,2.06-.55c1.21,0,2.39.74,3.53,2.22a6,6,0,0,1,1.61,3.32,1.83,1.83,0,0,1-.6,1.31h6.64q3.82,0,3.83,3.32c0,2.21-1.28,3.36-3.83,3.43H837a58.85,58.85,0,0,0,4.12,12.18,53.8,53.8,0,0,0,8-7.75c1.21-1.48,2.45-2.22,3.73-2.22,2.41,0,3.61,1.18,3.62,3.53q0,1.6-2.31,3.72l-1.41,1.61-8.06,7.46q5.64,8.06,9.26,8.05c.54,0,1-.38,1.46-1.16a9.45,9.45,0,0,0,1-3.37q.6-4.53,3.32-4.53Q863.21,121.15,863.22,124.47ZM799.77,65.76a3.57,3.57,0,0,1,.91-2.57,3.41,3.41,0,0,1,2.62-1,5.8,5.8,0,0,1,2.41.91l3.73-9.87q1.41-3.72,3.83-3.72a4,4,0,0,1,2.77.85,3.16,3.16,0,0,1,1,2.47,12.74,12.74,0,0,1-1.46,4.58q-1.46,3.18-4.78,9.22l3.63,2.61,1.2-2.51q2.73-5.64,5-5.64a3.67,3.67,0,0,1,2.62.85,3.28,3.28,0,0,1,.9,2.47q0,3.42-11.58,20.54l6-1-.5-1a5,5,0,0,1-.6-2.42c0-1.67,1-2.51,2.92-2.51a2.86,2.86,0,0,1,2.06,1.2,18.67,18.67,0,0,1,2.37,3.83q2.92,5.94,2.92,7.76c0,1.94-1.08,2.92-3.22,2.92q-2.32,0-4-4.23l-16.11,3.32-1.31.1a2.64,2.64,0,0,1-2.37-1,4.23,4.23,0,0,1-.86-2.77q0-3,5.34-3.52h-.1l5.94-10-8.46-5.94C800.71,68.45,799.77,67.1,799.77,65.76Z"/><path class="b47db71f-71c8-4e7e-b145-8f546c74b906" d="M965.94,106.45q0,3.92-3.92,3.92a52.85,52.85,0,0,1-5.34-.4,7.19,7.19,0,0,1,1.91,5.44v13.9a6.84,6.84,0,0,1-6.05,7.55,6.27,6.27,0,0,1-1.5,0H931.9a6.85,6.85,0,0,1-7.55-6.05,6.27,6.27,0,0,1,0-1.5v-13.9a6.84,6.84,0,0,1,6-7.55,6.27,6.27,0,0,1,1.5,0H949a58.18,58.18,0,0,1-12.18-6,75.21,75.21,0,0,1-10.58-8.15h-12a58.37,58.37,0,0,1-9.72,7.65,46.16,46.16,0,0,1-9.42,4.73l-5.23,1.82H908.7a6.84,6.84,0,0,1,7.55,6,6.27,6.27,0,0,1,0,1.5v13.9a6.83,6.83,0,0,1-6,7.55,6.27,6.27,0,0,1-1.5,0H889.61a6.86,6.86,0,0,1-7.56-6.06,7.42,7.42,0,0,1,0-1.49v-13.9a7.62,7.62,0,0,1,2-5.64,30.33,30.33,0,0,1-5.34,1.11q-3.93,0-3.93-4.23a3.12,3.12,0,0,1,.86-2.22,5.31,5.31,0,0,1,2.87-1.31q13.59-3.12,22.86-9.46h-22c-2.88,0-4.33-1.21-4.33-3.63s1.45-3.63,4.33-3.63h30.22A38.93,38.93,0,0,0,915.19,78a4.19,4.19,0,0,1,3.92-2.52,4.53,4.53,0,0,1,3,1,3.38,3.38,0,0,1,1.21,2.72,4.9,4.9,0,0,1-.4,2,32,32,0,0,1-2.62,5.23h22.36l-1.91-2.11a4.18,4.18,0,0,1-1.21-2.62,2.67,2.67,0,0,1,1.21-2.21,3.66,3.66,0,0,1,2.11-.61,5.17,5.17,0,0,1,2.82.91,26.59,26.59,0,0,1,4,3.57,21.29,21.29,0,0,1,2.37,3.07h9.16a5.14,5.14,0,0,1,3.37,1,3.65,3.65,0,0,1,.18,5.16l-.18.18a5.14,5.14,0,0,1-3.37,1H936.64a77.93,77.93,0,0,0,12.74,6,51.93,51.93,0,0,0,12.84,3Q965.94,103.13,965.94,106.45ZM882.71,76.33q-2.07-2-2.07-6.24V59.52q0-8.67,8.46-8.26h18.33c2.89,0,5,.67,6.4,2s2,3.42,1.86,6.25V70.09q0,4.43-2,6.45t-6.24,1.81H889.1Q884.77,78.35,882.71,76.33Zm5.89-8q0,3.12,3,3.12h13.29c2,0,3-1,3-3.12v-7.2a2.78,2.78,0,0,0-2.52-3,3.84,3.84,0,0,0-.48,0H891.62a2.77,2.77,0,0,0-3,3Zm1.11,49.34V127a2.67,2.67,0,0,0,2.29,3,2.81,2.81,0,0,0,.71,0H905.5q3.12,0,3.12-3V116.82a1.88,1.88,0,0,0-1.6-2.12,2.26,2.26,0,0,0-.52,0H892.73a2.67,2.67,0,0,0-3,2.27,2.36,2.36,0,0,0,0,.75ZM926.52,76q-2-2-2-6.29V59.52c0-2.89.67-5,2-6.4s3.42-2,6.24-1.86h18.33q4.33,0,6.39,2c1.37,1.33,2,3.42,1.87,6.25V69.69q0,4.43-2,6.44c-1.34,1.35-3.42,2-6.24,1.82h-18.3C929.92,78,927.83,77.29,926.52,76Zm24.42,40.84a1.88,1.88,0,0,0-1.6-2.12,2.26,2.26,0,0,0-.52,0H935a2.65,2.65,0,0,0-3,3V127a2.65,2.65,0,0,0,3,3h12.79q3.12,0,3.12-3ZM932.31,68q0,3.12,3,3.12H948.6c2,0,3-1,3-3.12V61.13a2.77,2.77,0,0,0-3-3H935.33a2.78,2.78,0,0,0-3,2.52,3.84,3.84,0,0,0,0,.48Z"/><path class="b47db71f-71c8-4e7e-b145-8f546c74b906" d="M1068.77,118.83q0,3.33-4.13,3.33h-38.27v7.15q0,5.43-2.32,7.85t-7.35,2h-6.14a6,6,0,0,1-3.68-.91,3.48,3.48,0,0,1-1.16-2.92q0-3.74,4.84-3.73h4q3.72,0,3.92-3.92v-5.54H982.26q-4,0-4-3.33t4-3.32h36.25v-2.82a3.53,3.53,0,0,1,1.72-3.32c1.07-.67,3.73-1.51,8-2.52l10.48-2.72v-.2H994.24q-3.93,0-3.93-3.12a3.11,3.11,0,0,1,.91-2.42,4.52,4.52,0,0,1,3-.81h53.88a15.46,15.46,0,0,1,5.84.86,2.77,2.77,0,0,1,2,2.57q0,1.61-7,4.53A177,177,0,0,1,1029.5,112c-2.15.61-3.22,1.58-3.22,2.93v.6h38.27C1067.36,115.5,1068.77,116.62,1068.77,118.83Zm-89.33-17V94.06c0-2.75.53-4.77,1.61-6a6.68,6.68,0,0,1,5.24-2h1.41l-2.12-28.9A6.29,6.29,0,0,1,986.74,53a6.51,6.51,0,0,1,3.88-2.27L1001,48.94l3.22-.8,1.16-.31a4.87,4.87,0,0,1,1.26-.2q3.12,0,3.12,3.53,0,1.61-2.82,2.67a46.28,46.28,0,0,1-9.47,1.86,6.65,6.65,0,0,0-3.17,1.06,2.33,2.33,0,0,0-.85,2.16l.1,2.82h12.28q3.74,0,3.73,3.12T1005.82,68H994l.4,5.53h11.38q3.74,0,3.73,3.23t-3.73,3.12h-11l.4,6.14H1052l.4-6.14H1040.3q-3.43,0-3.43-3.12t3.43-3.23H1053l.2-5.53h-12.79a3.79,3.79,0,0,1-2.62-.76,3.08,3.08,0,0,1-.81-2.37q0-3.12,3.43-3.12h13.49V59.62a3.55,3.55,0,0,0-.6-2.37,3,3,0,0,0-2.22-.66H1039.5c-2.15,0-3.23-1-3.22-2.92a3.26,3.26,0,0,1,.75-2.36,3.4,3.4,0,0,1,2.47-.76h14.3q7.86,0,7.86,6L1059.5,86h1.11q7.35,0,6.75,8.06v8.16c0,3.15-1.35,4.73-4,4.73a3.89,3.89,0,0,1-3-1.11,5.33,5.33,0,0,1-1-3.62V96q0-3.12-3.32-3.32H991q-3.22,0-3.42,3.32v5.94c0,3.16-1.35,4.74-4,4.74s-4.14-1.68-4.14-4.87Zm31.32-38.27q0-1.71,5.94-5.23l2.22-1.21q-6.34-4.44-6.35-5.74a2.48,2.48,0,0,1,.76-1.92,3.08,3.08,0,0,1,2.16-.7q1.21,0,8.06,4.73l2.92-3c1.41-1.54,2.68-2.31,3.83-2.31a3.25,3.25,0,0,1,2.26.7,2.45,2.45,0,0,1,.76,1.91c0,1.15-1.68,3.19-5,6.15l1.11.6c2.82,2,4.23,3.69,4.23,5a3.12,3.12,0,0,1-.81,2.31,3,3,0,0,1-2.21.81c-.94,0-2.08-.64-3.43-1.91l-3.52-3.33q-7.65,6-10,6a2.58,2.58,0,0,1-2.92-2.18,2.35,2.35,0,0,1,0-.7Zm6.65,13.5,2-1.21-1.11-.7q-5.13-3.33-5.13-4.74c0-1.74,1-2.62,2.92-2.62a8.5,8.5,0,0,1,3.32,1.51l3.12,1.82,1.61,1.1,2.72-2.61q2.42-2.22,3.63-2.22c2.08,0,3.12.91,3.12,2.72,0,1.21-1.55,3-4.63,5.44,4,2.68,5.94,4.7,5.94,6q0,3.12-3,3.12c-.81,0-2-.63-3.43-1.91l-4.33-3.63a56.25,56.25,0,0,1-6.34,4.38A9.68,9.68,0,0,1,1014,85.1c-2,0-2.92-.94-2.92-2.82,0-1.15,2.1-2.89,6.33-5.28Z"/><path class="b47db71f-71c8-4e7e-b145-8f546c74b906" d="M1115.3,87.56a4.91,4.91,0,0,1-1-3.37V62.13c0-2.88-1.41-4.33-4.23-4.33H1085.8q-4.33,0-4.33-3.52c0-2.28,1.44-3.43,4.33-3.43h27.89c3.16,0,5.44.68,6.85,2s2,3.52,1.81,6.54v24.8a4.71,4.71,0,0,1-1.1,3.32,3.9,3.9,0,0,1-3,1.21A3.61,3.61,0,0,1,1115.3,87.56Zm-33.3-.15q0-2.31,2.72-3.32,12.48-4.53,20.34-8.16a6.2,6.2,0,0,1,2.12-.5,3,3,0,0,1,3,2.21,3.57,3.57,0,0,1,.3,1.41q0,2.11-2.82,3.33-9.89,4.62-20,8.62a4.9,4.9,0,0,1-2,.4,3.32,3.32,0,0,1-3.33-2.32A6.41,6.41,0,0,1,1082,87.41Zm4.83-22.66q0,2.22,2.82,3.63a71.75,71.75,0,0,1,7.36,4.13,4.67,4.67,0,0,0,2.72.9,3.43,3.43,0,0,0,3.12-2,3.49,3.49,0,0,0,.4-1.61c0-1.28-.84-2.55-2.52-3.83a43.67,43.67,0,0,0-7.55-4.23,7.65,7.65,0,0,0-2.82-.7,3,3,0,0,0-3,1.81,5.29,5.29,0,0,0-.57,1.9ZM1093,134c-1.61-1.55-2.27-4-2-7.35V106c0-3.35.78-5.82,2.32-7.4s4-2.3,7.45-2.16h17.83l2.21-4.94a4.79,4.79,0,0,1,4.64-2.92c2.62,0,3.92,1.08,3.92,3.22,0,.61-.77,2.15-2.31,4.64h26.08q5.23,0,7.71,2.31c1.64,1.55,2.33,4,2.06,7.25v20.65c0,3.56-.77,6.12-2.32,7.7s-4,2.23-7.45,2h-52.37C1097.23,136.36,1094.65,135.58,1093,134Zm62.14-26.69a3.64,3.64,0,0,0-1-2.77,4.27,4.27,0,0,0-2.82-1h-48.74a3.64,3.64,0,0,0-2.77,1,4.29,4.29,0,0,0-1.06,2.82v5.44h56.4Zm0,18.13V119.6h-56.4v5.84c0,2.35,1.27,3.59,3.83,3.73h48.74c2.46,0,3.69-1.17,3.87-3.69ZM1161,92a4.64,4.64,0,0,1-1.11-3.37V62.13a3.78,3.78,0,0,0-3.13-4.33,4,4,0,0,0-1.2,0H1129.7c-2.89,0-4.34-1.17-4.33-3.52s1.44-3.43,4.33-3.43h29.91q4.64,0,6.75,2.07t1.81,6.49V88.62a4.78,4.78,0,0,1-1.06,3.37,3.8,3.8,0,0,1-3,1.16A4.09,4.09,0,0,1,1161,92Zm-31.42-5.38c0-1.41.83-2.49,2.51-3.23q11.49-4.83,18.23-8.15a5.2,5.2,0,0,1,2.32-.61,3,3,0,0,1,2.92,2,3.49,3.49,0,0,1,.4,1.61c0,1.27-.87,2.38-2.62,3.32q-11.37,5.75-17.92,8.56a6.29,6.29,0,0,1-2.22.5,3.28,3.28,0,0,1-3.12-2.11,5.22,5.22,0,0,1-.48-1.9Zm2.61-21.56q0,2.22,2.82,3.63a61.67,61.67,0,0,1,7.46,3.93,5.29,5.29,0,0,0,2.62.8,3.51,3.51,0,0,0,3.22-2,4.12,4.12,0,0,0,.5-1.71q0-1.92-2.62-3.73a57.93,57.93,0,0,0-7.65-4,8.59,8.59,0,0,0-2.82-.7,3.12,3.12,0,0,0-3,1.91,5.42,5.42,0,0,0-.51,1.86Z"/><path class="b47db71f-71c8-4e7e-b145-8f546c74b906" d="M1184.18,132.43a4.53,4.53,0,0,1,1.41-3.12l6.55-4.84q25.38-18.73,35.55-55.19l-.2-4.53a7.8,7.8,0,0,0-1.16-3.93,3.8,3.8,0,0,0-3.07-1.41h-13.2c-3.36,0-5-1.41-5-4.22s1.67-4.13,5-4.13h16.52c3,0,5.12.84,6.49,2.51s2.1,4.33,2.17,8q.3,21.25,10,37.46,10.68,17.93,26.69,28c2.21,1.41,3.31,3,3.32,4.83q0,4.74-4.23,4.74-3.82,0-15-10.07-17.62-16.11-25.28-42.1-2.71,6.24-6.3,13.09t-5.38,9.77a101.36,101.36,0,0,1-16.52,19.84Q1192.13,137,1188,137,1184.19,137,1184.18,132.43Z"/><path class="b47db71f-71c8-4e7e-b145-8f546c74b906" d="M1292.49,137.87a5.36,5.36,0,0,1-1-3.53V59.92c0-3.09.68-5.36,2.06-6.8s3.61-2.1,6.7-2H1320q4.32,0,6.29,1.91c1.31,1.27,1.9,3.39,1.76,6.34v22.7q0,4.23-1.86,6.2c-1.24,1.31-3.31,2-6.19,2h-20.85v44.11c0,3.09-1.27,4.63-3.83,4.63A3.59,3.59,0,0,1,1292.49,137.87Zm28.25-75.43q0-2.52-.75-3.33c-.51-.53-1.56-.8-3.17-.8h-13.3c-1.75,0-2.9.3-3.47.9s-.86,1.78-.86,3.53V67h21.55Zm-.75,20c.5-.51.75-1.56.75-3.18V74.12h-21.55v9.06h17.63c1.61,0,2.66-.25,3.18-.75Zm33.08,55.29a3.87,3.87,0,0,1-1.11-3.08,4,4,0,0,1,1.11-3.12,5.13,5.13,0,0,1,3.53-1h6.24a4.19,4.19,0,0,0,4.63-3.72,4.61,4.61,0,0,0,0-.91V90.23h-22q-4.34,0-6.35-2c-1.34-1.34-2-3.39-1.81-6.15V59.41q0-4.53,2-6.49c1.33-1.31,3.4-1.89,6.2-1.76h20.94q4.74,0,6.9,2.11c1.44,1.41,2.06,3.62,1.87,6.65V128.3c0,3.83-.83,6.58-2.47,8.26s-4.28,2.38-7.91,2.11h-8.15a5.36,5.36,0,0,1-3.62-.95Zm14.4-75c0-1.75-.3-2.92-.9-3.53s-1.78-.9-3.53-.9h-14.4c-1.61,0-2.69.27-3.22.8s-.81,1.65-.81,3.33V67h22.86Zm0,11.38h-22.86v5.13c0,1.62.27,2.67.81,3.18s1.61.75,3.22.75h18.83Z"/><rect class="f83c68df-1e10-47d7-935c-2d1309883f27" width="1093.05" height="200"/></svg>