<svg id="a48bc180-0eb9-41ef-b1de-377eb73d7459" data-name="圖層 1" xmlns="http://www.w3.org/2000/svg" viewBox="0 0 1500 200"><defs><style>.b63b62aa-2932-4124-9f29-6f1823a1213b,.f1edcc86-bcda-407a-9804-d671bc5666be{fill:#2c3e50;}.f1edcc86-bcda-407a-9804-d671bc5666be{stroke:#2c3e50;stroke-miterlimit:10;stroke-width:2px;}.b23f4fd7-f17b-49fc-9556-7861daa9e997{fill:none;}</style></defs><path id="e54cf237-8ce3-4a98-a5fb-a2f5c9b66288" data-name="bf384563-91a1-4e7d-830a-55c35f928051" class="f1edcc86-bcda-407a-9804-d671bc5666be" d="M152.23,155.14H122.39a2.91,2.91,0,0,1,0-5.82h26.93V50.68H92.4V60.92a2.91,2.91,0,0,1-5.82,0V47.77a2.91,2.91,0,0,1,2.91-2.91h62.74a2.91,2.91,0,0,1,2.91,2.91h0V152.23a2.91,2.91,0,0,1-2.91,2.91Zm-62.74,0H68.64a2.91,2.91,0,0,1,0-5.82H86.58V136H47.77a2.91,2.91,0,0,1-2.91-2.91h0V73.37a2.91,2.91,0,0,1,2.91-2.91h83.45a2.9,2.9,0,0,1,2.9,2.9h0v59.69a2.9,2.9,0,0,1-2.89,2.91H92.4v13.35h17.95a2.91,2.91,0,1,1,0,5.82H89.49Zm0-25h38.82V76.27H50.68v53.88Zm22.86-18.55H66.63a2.91,2.91,0,0,1,0-5.82h45.72a2.91,2.91,0,1,1,0,5.82Zm-10.29-11H76.92a2.91,2.91,0,0,1-.37-5.81h0a1.93,1.93,0,0,1,.34,0h25.14a2.91,2.91,0,1,1,.37,5.81h-.37Z"/><path class="b63b62aa-2932-4124-9f29-6f1823a1213b" d="M343.66,95.62a4.34,4.34,0,0,1,1.71,3.57,8,8,0,0,1-2.31,5.34,79.21,79.21,0,0,1-9.87,9.77,107.82,107.82,0,0,1-28.81,16.62Q289,137,265.11,139l-3.33.21a5.11,5.11,0,0,1-3.62-1,4.11,4.11,0,0,1-1.31-3.32q0-3.93,5.64-4.13a131,131,0,0,0,39-7.25q-3.72-3.14-11.08-8.56c-1.54-1.08-2.31-2.12-2.31-3.13a3.61,3.61,0,0,1,1-2.77,3.41,3.41,0,0,1,2.41-1c1.75,0,4.09.94,7,2.82a112.92,112.92,0,0,1,11.33,8.76,102,102,0,0,0,17.83-11.18l2.82-2.22c2.61-2,3.91-3.21,3.92-3.62s-.37-.81-1.1-.81H296.23a129.3,129.3,0,0,1-16.42,8.26Q270.65,114,267.52,114a3.69,3.69,0,0,1-2.87-1.06,4.24,4.24,0,0,1-.95-3q0-2.82,5.13-4.23Q290,99.8,302.67,87.92a19.75,19.75,0,0,1,2.62-2.12,7.56,7.56,0,0,1,2.42-1,3.18,3.18,0,0,1,2.87.66,3.12,3.12,0,0,1,1.36,2.47,4.88,4.88,0,0,1-1.41,3,18.59,18.59,0,0,1-4.13,3.37h32.53A7.38,7.38,0,0,1,343.66,95.62Zm-86.21-3.07a3.5,3.5,0,0,1,2.07-3.17A18,18,0,0,1,266,87.71a144.74,144.74,0,0,0,27.4-6.44L285,74.62a14.14,14.14,0,0,1-1.92-1.71,2.29,2.29,0,0,1-.5-1.51,2.74,2.74,0,0,1,1-2.22,3.3,3.3,0,0,1,2.16-.8,11.12,11.12,0,0,1,5.29,2q3.27,2,9.21,6.55l1.21,1.21a100.15,100.15,0,0,0,12.29-6.5Q321.64,67,324,64.44a.81.81,0,0,0,.3-.5c0-.41-.3-.61-.9-.61h-37q-6,3.53-13,6.75-6.64,3-8.76,3c-2.68,0-4-1.37-4-4.13a4.34,4.34,0,0,1,1.21-2.72,14.52,14.52,0,0,1,3.73-1.61l2.92-1a70.24,70.24,0,0,0,22.26-13.09c.8-.67,1.57-1.37,2.31-2.11l2.42-2.22a3.7,3.7,0,0,1,2.42-.9,4.77,4.77,0,0,1,3.07,1.1,3.21,3.21,0,0,1,1.36,2.52A4.76,4.76,0,0,1,301,52.06a30.45,30.45,0,0,1-4.13,3.73H330.1a8.9,8.9,0,0,1,5.29,1.41,4.28,4.28,0,0,1,2,3.62c0,1.55-.81,3.09-2.42,4.64a99.77,99.77,0,0,1-14.55,10.92,135.35,135.35,0,0,1-17,9q-13.43,6-36.9,10.89a30.29,30.29,0,0,1-4.74.71C258.9,97,257.45,95.5,257.45,92.55Z"/><path class="b63b62aa-2932-4124-9f29-6f1823a1213b" d="M374.38,86A188.72,188.72,0,0,1,373,110a92.89,92.89,0,0,1-3.48,16.82,40.14,40.14,0,0,1-3.37,8c-1,1.67-2.17,2.51-3.38,2.51q-4,0-4-4.33a9.6,9.6,0,0,1,1.2-3.32q2.82-5.34,4.74-15.76a116.75,116.75,0,0,0,1.81-22l-.1-19.43q0-8.67,9.37-8.66h23.06v-13q0-3.42,4.23-3.42t4.23,3.42v2h29.51q3.62,0,3.62,3.22t-3.62,3.22H407.31v4.54H440q4.42,0,6.44,2c1.35,1.31,1.95,3.37,1.82,6.19v3.73c0,2.89-1.35,4.33-4,4.33s-3.93-1.31-3.93-3.93V73.92c0-2.08-1.07-3.13-3.22-3.13H405.9v4.94l25.58-1.51q3.72-.3,3.72,2.92c0,2-1.27,3.09-3.82,3.22L405.9,81.87v2.22c0,.74.64,1.26,1.91,1.56a37.3,37.3,0,0,0,6.14.65c1.55.07,4.47.11,8.77.1h3.82q6.45-.2,7.35-.8a2,2,0,0,0,.76-1.26c.17-.64.28-1.09.35-1.36.47-1.54,1.75-2.32,3.83-2.32q4.23,0,4.23,4.54,0,4.23-3.12,5.94a19.54,19.54,0,0,1-6.4,1.36,109.35,109.35,0,0,1-11.73.35l-3.52-.1c-.91,0-1.82,0-2.72-.1q-5.85-.11-8.82-.3a17,17,0,0,1-4.58-.81c-2.75-1-4.13-2.68-4.13-5V82.38l-16.82.9c-2.28.14-3.42-.84-3.42-2.92s1.24-3.09,3.73-3.22L398,76.23V70.79H379.11c-1.88,0-3.14.33-3.78,1s-.95,1.9-.95,3.78Zm76.33,47.13c0,2.76-1.71,4.13-5.13,4.13q-20.74,0-34.65-3a32.49,32.49,0,0,1-14.7-7.35,51.17,51.17,0,0,1-11.08,8.26c-4.57,2.48-7.85,3.72-9.87,3.72-2.41,0-3.61-1.17-3.62-3.52a2.82,2.82,0,0,1,.9-2,7.83,7.83,0,0,1,2.92-1.61q10.78-4.12,16.22-9.56a43,43,0,0,1-5.54-12.59q-5,10.88-8.56,10.87c-2.22,0-3.32-1.07-3.32-3.22,0-.8.73-2.21,2.21-4.23a53,53,0,0,0,8.36-18.73q1.41-5.74,4.23-5.74,3.63,0,3.63,3.22l-1.31,5.14-.31.91h13.1c4,0,6,1.57,6,4.73q0,7-9.47,19.54a31.74,31.74,0,0,0,12.79,5.43q7.75,1.62,31.62,1.62c3.74,0,5.58,1.3,5.58,4Zm-49.34-24.57a11,11,0,0,0,1.3-3.32c0-.67-.43-1-1.3-1H391.09q1.52,8.16,4.94,12.89a44.67,44.67,0,0,0,5.34-8.57Zm45.92-1.41q3.52,0,3.52,4v3.27a24.35,24.35,0,0,1-.3,4.18,5.77,5.77,0,0,1-1,2.52q-2.42,3.31-9.76,3.32-5,0-6.95-1c-1.3-.67-2-2.21-2-4.64V106a2.47,2.47,0,0,0-2.22-2.71,1.8,1.8,0,0,0-.4,0H424q-2.62,0-2.62,4.13c0,5.11-1.08,9.23-3.23,12.39q-3.72,5.53-7,5.54a4,4,0,0,1-2.71-.86,3.37,3.37,0,0,1-.55-4.08A9.18,9.18,0,0,1,409,119l1-1a14.39,14.39,0,0,0,3.52-5.34q1-2.82,1-9,0-7,7.45-7h8.36q7.35,0,7.35,7.45v11.38c0,1.54.91,2.32,2.72,2.32A3.42,3.42,0,0,0,443,117a4.13,4.13,0,0,0,.86-2.62l.1-3.73c.14-2.32,1.25-3.5,3.33-3.5Z"/><path class="b63b62aa-2932-4124-9f29-6f1823a1213b" d="M461.79,124q0-3.42,5-4.73l8.36-2.22V90H468q-4.74,0-4.74-3.73T468,82.48h7.15V60.72h-8.46q-4.63,0-4.64-3.72,0-3.93,4.64-3.93h24c3.08,0,4.63,1.31,4.63,3.93s-1.55,3.72-4.63,3.72h-7.36V82.48h6.05q4.72,0,4.73,3.82T489.39,90h-6.05v24.88l8.66-2.42c2.35,0,3.53,1.27,3.53,3.83a3.58,3.58,0,0,1-1.81,3.42l-13.6,4.63q-5.75,1.92-9.57,2.92a29.15,29.15,0,0,1-4.63,1C463.17,128.29,461.8,126.87,461.79,124Zm23.47,8.36c0-2.49,1.51-3.74,4.53-3.73H519V115.11H500.57q-4.54,0-4.54-3.73c0-2.48,1.51-3.73,4.54-3.73H519V96.88H507.31q-10.06.81-9.26-9.37V60.82q-.81-10.17,9.26-9.36h32.23q10.17-.81,9.37,9.36V87.51q.8,10.08-9.37,9.37H527.25v10.77h18.63c3,0,4.44,1.25,4.44,3.73s-1.48,3.73-4.44,3.73H527.25V128.6h22c3.08,0,4.63,1.24,4.63,3.73s-1.55,3.72-4.63,3.72H489.79q-4.53,0-4.53-3.72ZM519.1,58.71h-9.17q-4,0-3.93,3.93v7.45h13.1Zm0,18.63H506V85.8q0,3.93,3.93,3.83h9.17Zm21.75-14.7q0-4-3.83-3.93h-9.77V70.09h13.6Zm0,23.16V77.34h-13.6V89.63H537Q541,89.63,540.85,85.8Z"/><path class="b63b62aa-2932-4124-9f29-6f1823a1213b" d="M657,124.47a19.43,19.43,0,0,1-1.62,8.06q-2.5,5.94-6.14,5.94-7.75,0-16.11-12.08-15.51,10.26-20.75,10.27c-2.42,0-3.62-1.28-3.62-3.83,0-1.75,1.61-3.12,4.83-4.13a48.57,48.57,0,0,0,8.26-3.62,81.52,81.52,0,0,0,7.45-4.74,58,58,0,0,1-5.84-16.71H608.12v3.82a35.08,35.08,0,0,1-.1,3.63,3,3,0,0,1,2.32-1.21,6.82,6.82,0,0,1,2.92.86,15,15,0,0,1,3.52,2.56c2.55,2.49,3.83,4.23,3.83,5.24a3.18,3.18,0,0,1-2.79,3.53,3.05,3.05,0,0,1-.74,0q-2.8,0-9.26-7.86a33,33,0,0,1-5.34,14.6q-4.53,7-8.26,6.95T590.5,132c0-1,1.17-2.67,3.52-5q7.35-7.16,7.36-19.84l-.11-3.52h-2.61q-3.74,0-3.83-3.43-.41,1.92-2.82,1.92c-1.14,0-2.22-1.35-3.22-4l-2.62-5.74-.41-.81v44.21c0,2.42-1.2,3.63-3.62,3.63s-3.53-1.21-3.53-3.63v-44q-2.72,12-5.28,17.88c-1.71,3.92-3.4,5.88-5.09,5.89a3.06,3.06,0,0,1-3.41-2.66,2.91,2.91,0,0,1,0-.66c0-1.62.77-3.83,2.31-6.65A104.9,104.9,0,0,0,577.81,76h-8.26c-2.75,0-4.12-1.31-4.13-3.93s1.37-4,4.13-4h9.06V50.75c0-2.35,1.18-3.53,3.53-3.52s3.62,1.17,3.62,3.52V68h5.85c2.55,0,3.82,1.3,3.82,3.92s-1.27,4-3.82,4h-5.85v12.4a2.77,2.77,0,0,1,2-.71c1.21,0,2.76,1.78,4.63,5.34s2.74,5.64,2.61,6.24q.6-2.31,3.63-2.31h23.66q-1.71-13.29-1.91-39.38V54.88l-.1-3.32a4.91,4.91,0,0,1,.85-3.22,3.44,3.44,0,0,1,2.77-1c2.49,0,3.74,1.38,3.73,4.13l-.1,4.53-.1,4.43v2.32l.2,6.64.3,8,.41,8.06.1,1.91a2.68,2.68,0,0,1,1.46-2.21,8.57,8.57,0,0,1,3.67-1L637.83,76a31,31,0,0,0-3.47-3.12c-1.45-1.14-2.34-1.85-2.67-2.12l-1.92-1.51A4.06,4.06,0,0,1,628,66.06a3.57,3.57,0,0,1,.86-2.52,3.24,3.24,0,0,1,2.47-.9,4.7,4.7,0,0,1,2.31.9l2.82-7.65Q638,49.65,641,49.65c2.62,0,3.93,1.1,3.93,3.32q0,2.82-6.55,14.3l2.72,2.32q4.64-9.17,6.75-9.17c2.49,0,3.74,1,3.73,3.12q0,1.41-6.15,12.19l-5.13,7.65,7.55-1-.7-1.72c-.07-.13-.2-.46-.41-1a4.29,4.29,0,0,1-.3-1.41q0-2.82,3.22-2.82t6.45,10.87l.5,1.62a3,3,0,0,1-.9,2.41,3.71,3.71,0,0,1-2.52.81q-2.22,0-3.73-3.43l-6.34,1.62-9,1.51-2.32.3a2.55,2.55,0,0,1-2.17-.56,3.26,3.26,0,0,1-1-2.06c.2,2.89.5,5.67.9,8.36h12.09l-.2-.3q-2.22-3.12-2.22-4.43a1.83,1.83,0,0,1,.76-1.57,3.51,3.51,0,0,1,2-.58c1.21,0,2.38.74,3.53,2.22a6,6,0,0,1,1.61,3.32,1.79,1.79,0,0,1-.61,1.31h6.65q3.83,0,3.83,3.32c0,2.21-1.28,3.36-3.83,3.43h-22.4a58.88,58.88,0,0,0,4.13,12.18,53.8,53.8,0,0,0,8-7.75q1.82-2.22,3.72-2.22,3.63,0,3.63,3.53,0,1.6-2.32,3.72l-1.41,1.61-8,7.46q5.64,8.06,9.26,8.05c.54,0,1-.38,1.46-1.16a9.45,9.45,0,0,0,1-3.37q.6-4.53,3.32-4.53Q657,121.15,657,124.47ZM593.52,65.76a3.57,3.57,0,0,1,.91-2.57,3.44,3.44,0,0,1,2.61-1,5.84,5.84,0,0,1,2.42.91l3.73-9.87q1.41-3.72,3.82-3.72a4,4,0,0,1,2.77.85,3.15,3.15,0,0,1,1,2.47,13,13,0,0,1-1.46,4.58q-1.46,3.18-4.78,9.22l3.62,2.61,1.21-2.51c1.81-3.76,3.47-5.64,5-5.64A3.63,3.63,0,0,1,617,62a3.23,3.23,0,0,1,.91,2.47q0,3.42-11.58,20.54l6-1-.5-1a5.08,5.08,0,0,1-.61-2.42c0-1.67,1-2.51,2.93-2.51a2.92,2.92,0,0,1,2.06,1.2,19.88,19.88,0,0,1,2.37,3.83c1.94,4,2.92,6.55,2.92,7.76,0,1.94-1.08,2.92-3.23,2.92q-2.31,0-4-4.23l-16.12,3.32-1.31.1a2.62,2.62,0,0,1-2.36-1,4.23,4.23,0,0,1-.86-2.77q0-3,5.34-3.52h-.1l5.94-10-8.46-5.94C594.46,68.45,593.52,67.1,593.52,65.76Z"/><path class="b63b62aa-2932-4124-9f29-6f1823a1213b" d="M759.09,103.93q0,3.93-4.94,3.93h-36v26.08a5.76,5.76,0,0,1-1.06,3.83,4.29,4.29,0,0,1-3.37,1.2c-3,0-4.43-1.67-4.43-5V107.86h-35.4a5.75,5.75,0,0,1-3.68-1,3.65,3.65,0,0,1-1.16-3q0-3.93,4.84-3.93h35.35v-39H678.72q-4.63,0-4.63-3.93t4.63-3.93h69.59q4.94,0,4.94,3.93t-4.94,3.93H718.1V100h36Q759.09,100,759.09,103.93ZM685.27,88.12q-1.62-4.23-4.33-10.17a30.14,30.14,0,0,1-1.41-3.38A7.76,7.76,0,0,1,679,72.2a2.82,2.82,0,0,1,1.16-2.31A4.44,4.44,0,0,1,683,69a4.27,4.27,0,0,1,2.82,1,10.42,10.42,0,0,1,2.32,3q6.95,13.59,7,16.21a3.6,3.6,0,0,1-1.46,3,5.32,5.32,0,0,1-3.28,1.1Q687.27,93.35,685.27,88.12Zm62.44-18.94A3.25,3.25,0,0,1,749,71.9q0,2.92-5.75,15-3,6.24-5.74,6.24a6,6,0,0,1-3.67-.9,3.49,3.49,0,0,1-1.16-2.92,10.34,10.34,0,0,1,1.51-4.23l5.94-13.8q1.51-3.12,3.93-3.12A5.85,5.85,0,0,1,747.71,69.18Z"/><path class="b63b62aa-2932-4124-9f29-6f1823a1213b" d="M803.5,73.92q0,3-9.77,13.69v46.53a6.14,6.14,0,0,1-1,3.93,4.9,4.9,0,0,1-6.44,0,6.14,6.14,0,0,1-1-3.93V96.48a63.47,63.47,0,0,1-6.44,5.94c-1.62,1.21-2.86,1.81-3.73,1.81a3.56,3.56,0,0,1-2.92-1.11,5.1,5.1,0,0,1-.91-3.32c0-1.61,1.28-3.43,3.83-5.44a94.31,94.31,0,0,0,19.74-21.45q2-2.72,4.23-2.72Q803.48,70.19,803.5,73.92Zm-30.82-4.18a5,5,0,0,1-.9-3.28q0-2.42,4.93-5a96.73,96.73,0,0,0,15.71-11c2-1.64,3.4-2.46,4.33-2.46a4.57,4.57,0,0,1,3.17,1.06,4,4,0,0,1,1.16,3.07q0,2.63-10.87,10.68-10.68,7.95-14.61,8A3.7,3.7,0,0,1,772.68,69.74Zm90.54,14.05q0,4.13-5,4.13H847.41v39.17c.27,4-.51,6.88-2.32,8.76s-4.67,2.72-8.56,2.52h-8.46q-5.24,0-5.24-4.53c0-3,1.75-4.43,5.24-4.43h6a5.25,5.25,0,0,0,3.73-1.16,4.91,4.91,0,0,0,1.21-3.68V87.92H812c-3.22,0-4.84-1.38-4.84-4.13s1.62-4,4.84-4h46.22Q863.21,79.76,863.22,83.79ZM812.61,59.36a4.68,4.68,0,0,1,0-6.14A4.85,4.85,0,0,1,816,52.16h39.47q4.54,0,4.54,4.13c0,2.76-1.51,4.13-4.54,4.13H816A4.83,4.83,0,0,1,812.61,59.36Z"/><path class="b63b62aa-2932-4124-9f29-6f1823a1213b" d="M889.61,134.75v-40a76.71,76.71,0,0,1-5.74,14.71c-2.36,4.76-4.33,7.15-6,7.15-2.41,0-3.61-1.41-3.62-4.23,0-1.08.67-2.55,2-4.43a80.64,80.64,0,0,0,12.49-27.4h-9.16q-4.74,0-4.74-3.82c0-2.55,1.58-3.82,4.74-3.83h10V59.11a105.7,105.7,0,0,1-11.08,1.21q-3.63,0-3.63-4.23a2.68,2.68,0,0,1,1.61-2.72,33.65,33.65,0,0,1,7.25-1.31A117.67,117.67,0,0,0,903,48.74l2-.3a3.81,3.81,0,0,1,3.38.85,4.59,4.59,0,0,1,1.16,3.38,3.42,3.42,0,0,1-1.82,2.82q-1.9,1.3-10.37,2.62v14.8h7.25c3.16,0,4.73,1.28,4.73,3.83s-1.57,3.82-4.73,3.82h-7.25v13A3,3,0,0,1,900.08,92a4.93,4.93,0,0,1,2.62,1.52A30.47,30.47,0,0,1,906.63,98q4.43,5.94,4.43,7.55c0,2.35-1.15,3.52-3.43,3.52q-1.71,0-3.72-3.22a77.12,77.12,0,0,0-5.54-7.65l-1-1.71v38.27q0,4.53-3.93,4.53T889.61,134.75Zm14.8-3.43c0-2.42,1.31-3.62,3.93-3.62H931.9V115.81H915.79q-3.93,0-3.93-3.52c0-2.35,1.31-3.52,3.93-3.53H931.9V98.39L915.69,99.5a5.09,5.09,0,0,1-3.53-.91,3.71,3.71,0,0,1-1.2-3,3.17,3.17,0,0,1,1.31-2.82c.87-.67,3.56-1,8.05-1.11a230,230,0,0,0,33.44-3.12l1.31-.2a3.51,3.51,0,0,1,3.17.85,4.48,4.48,0,0,1,1.16,3.28c0,1.61-1.48,2.79-4.43,3.52q-1.62.41-15,1.82v11h16.82q3.83,0,3.83,3.53c0,2.35-1.28,3.53-3.83,3.52H940V127.7h22.36c2.68,0,4,1.24,4,3.72s-1.35,3.63-4,3.63h-54C905.72,135.05,904.41,133.8,904.41,131.32Zm9.06-48.94c-1.41-1.33-2-3.52-1.81-6.55V61q0-4.64,2.07-6.75c1.37-1.41,3.54-2,6.49-1.81h31.62c3.09,0,5.34.68,6.75,2.06s2,3.54,1.81,6.5V75.8c0,3.16-.67,5.42-2,6.8s-3.52,2-6.55,1.76H920.22Q915.59,84.39,913.47,82.38Zm39.18-8.56V63q0-3.12-3.32-3.32H922.54c-2.08,0-3.19,1.1-3.33,3.32V73.82q0,3.12,3.33,3.32h26.79q3.21,0,3.32-3.32Z"/><path class="b63b62aa-2932-4124-9f29-6f1823a1213b" d="M1029.44,118.38a4.55,4.55,0,0,1,1,3.17,3.34,3.34,0,0,1-1.41,2.72c-.81.61-2.92,1.21-6.35,1.81l-15.1,2.92-22.76,3.43-2.82.3a3.49,3.49,0,0,1-3.08-1,5,5,0,0,1-1-3.47c0-1.68.5-2.82,1.51-3.42a16.92,16.92,0,0,1,5.44-1.21q3.92-.41,14.5-1.82V95.07H986q-4.83,0-4.83-3.93T986,87.21h35q4.83,0,4.83,3.93T1021,95.07h-13.5v25.68l19.34-3.13A2.84,2.84,0,0,1,1029.44,118.38Zm39.63-1.76a39.51,39.51,0,0,1-2.72,14.7q-2.62,6.65-6.75,6.65-5.53,0-13-10.07a76.81,76.81,0,0,1-11.47-23.9,140.77,140.77,0,0,1-5.24-32.23H983.06q-4.83,0-4.83-4c0-2.67,1.61-4,4.83-3.92h46.43l-.3-11.48q-.11-4.74,4.23-4.74,4.13,0,4.13,6V63.85h25.68q5.13,0,5.13,4t-5.13,3.93h-25.18q1.11,18.43,5.54,31.83t11.48,21.25c1.28,1.47,2.28,2.21,3,2.21s1.48-.89,2-2.67a47.07,47.07,0,0,0,1.31-8.51,3.46,3.46,0,0,1,1-2.62,4.22,4.22,0,0,1,2.77-.8C1067.76,112.48,1069.07,113.87,1069.07,116.62ZM1050.14,56.8c-2-2.49-3-4-3-4.64q0-3.52,4.13-3.52,1.82,0,5.24,3.83c2.15,2.35,3.23,4.1,3.22,5.23,0,2.35-1.37,3.53-4.13,3.53Q1053.75,61.23,1050.14,56.8Z"/><path class="b63b62aa-2932-4124-9f29-6f1823a1213b" d="M1080.45,68.88q0-3.72,4.43-3.72H1112q4.53,0,4.53,3.72T1112,72.61h-27.09C1081.94,72.61,1080.46,71.37,1080.45,68.88Zm3.63-13.59c0-2.49,1.44-3.74,4.33-3.73h20.44q4.43,0,4.43,3.73c0,2.49-1.48,3.72-4.43,3.71h-20.44C1085.52,59,1084.07,57.76,1084.08,55.29Zm2.21,78q-2.11-2-2.11-6v-13.9q0-8.15,8.36-8.15h12q8.46,0,8.46,8.15v13.7a8.18,8.18,0,0,1-2.17,6.14c-1.44,1.41-3.54,2.11-6.29,2.12h-12q-4.14,0-6.25-2Zm-1.91-51.16a3.31,3.31,0,0,1,1.11-2.71,4.92,4.92,0,0,1,3.22-.91h19.84a5.22,5.22,0,0,1,3.27.91,3.23,3.23,0,0,1,1.16,2.71q0,3.74-4.43,3.73h-19.84q-4.34,0-4.33-3.69Zm0,13.4q0-3.63,4.33-3.63h19.84c3,0,4.43,1.25,4.43,3.73a3.26,3.26,0,0,1-1.16,2.72,5.22,5.22,0,0,1-3.27.91h-19.64c-3,0-4.53-1.21-4.53-3.69Zm20.74,30.21v-11a2.13,2.13,0,0,0-1.81-2.41,2,2,0,0,0-.6,0h-8.26c-1.68,0-2.52.8-2.52,2.41v11.08a2.23,2.23,0,0,0,1.9,2.52,2.15,2.15,0,0,0,.62,0h8.26c1.61,0,2.41-.84,2.41-2.52Zm8.36,8.36q0-3.12,5.94-4.73a57.39,57.39,0,0,0,16.62-7.15V122a44.55,44.55,0,0,1-7-9.37,42.53,42.53,0,0,1-2.51-4.83,8.76,8.76,0,0,1-.81-3.33c0-1.94,1.41-2.92,4.23-2.92,1.74,0,3.09,1.41,4,4.23a38.16,38.16,0,0,0,8.26,11.48h.2a60.63,60.63,0,0,0,9-10q2-2.61,3.32-4.58a6.89,6.89,0,0,0,1.31-2.57c0-.94-.64-1.41-1.91-1.41h-31.72a5.46,5.46,0,0,1-3.43-1,3.46,3.46,0,0,1-1.21-2.87q0-3.73,4.64-3.73h35.34q8.77,0,8.77,5.54,0,3-6,11.68a75.74,75.74,0,0,1-11.58,13.5v.3q7.15,4.13,19.64,7.15,3.83.9,3.83,4.13c0,3.08-1.41,4.63-4.23,4.63q-4.53,0-12-3.12a84.08,84.08,0,0,1-13.89-7.56h-.21a90.32,90.32,0,0,1-14,7.46q-7.66,3.31-10.88,3.32-3.73.12-3.72-4Zm3.63-50a4,4,0,0,1,1.81-3.22,13.68,13.68,0,0,0,5.44-7.46q1-3.72,1-15.41,0-7.24,7.85-7.25h14.6q7.76,0,7.76,7.56V75.23q0,3,3.63,3a12.36,12.36,0,0,0,2.91-.25,1.79,1.79,0,0,0,1.21-.86q.81-1.61.91-5.84c.13-3.09,1.34-4.64,3.63-4.63q3.92,0,3.92,3.72c0,7.66-1.17,12.15-3.52,13.5-1.81,1-5.14,1.51-10,1.51q-10.17,0-10.17-5.94V61.73c0-2.15-1.15-3.29-3.43-3.42h-8.86c-1.41,0-2.28.37-2.62,1.1-.4,1-.6,3.09-.6,6.45q0,8.76-2.42,13.19-4.83,8.86-9.47,8.87-3.59,0-3.58-3.83Z"/><path class="b63b62aa-2932-4124-9f29-6f1823a1213b" d="M1187.71,72.81c-2.83,0-4.23-1.28-4.23-3.83s1.4-3.93,4.23-3.93h32q4.23,0,4.23,3.93t-4.23,3.83Zm-.41-17.73q0-3.82,4.13-3.82h24.37a4.43,4.43,0,0,1,3.12,1,3.77,3.77,0,0,1,1.11,2.93c0,2.55-1.41,3.83-4.23,3.82h-24.37c-2.75,0-4.12-1.32-4.13-3.93Zm32.13,58.31V128.1q0,8.06-8.16,8.05h-15.71q-8.16,0-8.16-8.05V113.39q0-8.06,8.16-8h15.71q8.16,0,8.16,8Zm-4-34.64q4.13,0,4.13,3.73t-4.13,3.72h-23.77c-2.68,0-4-1.24-4-3.72s1.35-3.73,4-3.73Zm4.43,16.92c0,2.48-1.38,3.73-4.13,3.73h-24.07c-2.68,0-4-1.25-4-3.73s1.35-3.73,4-3.73h24.07c2.72,0,4.1,1.25,4.1,3.73Zm-8.16,19.64a2.83,2.83,0,0,0-.6-2,2.77,2.77,0,0,0-2-.6h-11.28a2.68,2.68,0,0,0-1.92.6,3.09,3.09,0,0,0-.7,2v10.87a2.77,2.77,0,0,0,.6,2,3.09,3.09,0,0,0,2,.7h11.28a2.45,2.45,0,0,0,1.91-.65,3.3,3.3,0,0,0,.7-2.07Zm63.55-31.62q0,3.72-4.33,3.72H1253.1V134a6.59,6.59,0,0,1-1,4.08,5,5,0,0,1-6.65,0,6.59,6.59,0,0,1-1-4.08V87.41h-17c-3,0-4.43-1.27-4.43-3.83s1.48-3.82,4.43-3.82h17V52.87a6.38,6.38,0,0,1,1.06-4,4.88,4.88,0,0,1,6.6,0,6.59,6.59,0,0,1,1,4.08V79.76h17.82q4.29,0,4.29,3.93Z"/><rect class="b23f4fd7-f17b-49fc-9556-7861daa9e997" width="1093.05" height="200"/><rect class="b23f4fd7-f17b-49fc-9556-7861daa9e997" width="1500" height="200"/></svg>