<svg id="b97fd7c7-08ae-4f8e-a742-7395f81f07ff" data-name="圖層 1" xmlns="http://www.w3.org/2000/svg" viewBox="0 0 1500 200"><defs><style>.ae180adc-b9f5-40ff-a330-aa08a3363a18,.e20002be-824c-4a9e-b4db-4b33c8cb3dc3{fill:#2c3e50;}.ae180adc-b9f5-40ff-a330-aa08a3363a18{stroke:#2c3e50;stroke-miterlimit:10;stroke-width:2px;}.a7b42975-f0a3-468f-8e41-f97f995aa06a{fill:none;}</style></defs><path id="a51967e2-fd63-4b78-92ca-460729e819ef" data-name="icon" class="ae180adc-b9f5-40ff-a330-aa08a3363a18" d="M152.23,155.14H122.39a2.91,2.91,0,0,1,0-5.82h26.93V50.68H92.4V60.92a2.91,2.91,0,0,1-5.82,0V47.77a2.91,2.91,0,0,1,2.91-2.91h62.74a2.91,2.91,0,0,1,2.91,2.91h0V152.23a2.91,2.91,0,0,1-2.91,2.91Zm-62.74,0H68.64a2.91,2.91,0,0,1,0-5.82H86.58V136H47.77a2.91,2.91,0,0,1-2.91-2.91h0V73.37a2.91,2.91,0,0,1,2.91-2.91h83.45a2.9,2.9,0,0,1,2.9,2.9h0v59.69a2.9,2.9,0,0,1-2.89,2.91H92.4v13.35h17.95a2.91,2.91,0,1,1,0,5.82H89.49Zm0-25h38.82V76.27H50.68v53.88Zm22.86-18.55H66.63a2.91,2.91,0,0,1,0-5.82h45.72a2.91,2.91,0,1,1,0,5.82Zm-10.29-11H76.92a2.91,2.91,0,1,1-.34-5.81,1.93,1.93,0,0,1,.34,0h25.14a2.91,2.91,0,1,1,.34,5.81Z"/><path class="e20002be-824c-4a9e-b4db-4b33c8cb3dc3" d="M269.62,122.92q0,1.78-5,6.33-5.19,4.69-7.54,4.7c-1.73,0-2.59-1-2.59-3.08q0-1.55,2.75-3.25a27.78,27.78,0,0,0,6.16-5.18c1.35-1.41,2.49-2.11,3.41-2.11C268.67,120.33,269.62,121.19,269.62,122.92ZM255.43,96.5c0-1.73,1-2.59,3-2.59h16.45V90.34h-8.34q-3.5,0-5.11-1.62t-1.46-5V72.43q0-3.5,1.58-5.07c1.05-1,2.72-1.53,5-1.42h22.77c2.32,0,4,.52,5.11,1.54s1.56,2.68,1.46,5V83.69c0,2.33-.52,4-1.54,5.07s-2.71,1.58-5,1.58H281v3.57h16a3.42,3.42,0,0,1,2.19.64,2.37,2.37,0,0,1,.81,2q0,2.67-3,2.67H258.43Q255.43,99.17,255.43,96.5ZM281.29,119v10.86q0,3.74-1.62,5.56a6.43,6.43,0,0,1-5,1.82h-4q-3.57,0-3.57-3.08c0-2,.87-3,2.6-3h3c1.67,0,2.51-.95,2.51-2.84V119h-8.35q-6.41,0-6.4-5.83v-5a5.75,5.75,0,0,1,1.58-4.5,7.06,7.06,0,0,1,4.82-1.42h23.42a7,7,0,0,1,4.75,1.42,5.79,5.79,0,0,1,1.58,4.5v5a5.63,5.63,0,0,1-1.58,4.41,6.91,6.91,0,0,1-4.75,1.42ZM266.13,75.59H289.8V73a2.1,2.1,0,0,0-.61-1.62,2.36,2.36,0,0,0-1.66-.56H268.32A1.93,1.93,0,0,0,266.13,73Zm2.19,9.89h19.21a2,2,0,0,0,2.27-2.27V80.37H266.13v2.84A2,2,0,0,0,268.32,85.48Zm.57,28.45h19.29a2.19,2.19,0,0,0,2.51-2.44v-1.62a2.42,2.42,0,0,0-.65-1.78,2.52,2.52,0,0,0-1.86-.65H268.89a2.25,2.25,0,0,0-2.44,2.43v1.62A2.15,2.15,0,0,0,268.89,113.93Zm26.5,12.64q0,3.17-3.24,3.16a2.5,2.5,0,0,1-1.34-.44,13.84,13.84,0,0,1-1.74-1.42L287,126a15.68,15.68,0,0,1-1.78-1.74,2.14,2.14,0,0,1-.65-1.18c0-1.83,1-2.75,3-2.75q1.29,0,4.62,2.35T295.39,126.57ZM329,115.87a5,5,0,0,1-1.54,3,39.53,39.53,0,0,1-5.27,4.58,106.8,106.8,0,0,1-14.59,9.4q-7.38,3.9-9.73,3.89-3.07,0-3.08-3.48a3,3,0,0,1,.85-2.11,7.52,7.52,0,0,1,2.72-1.62,73.49,73.49,0,0,0,12.6-6.44,84,84,0,0,0,11.23-8.88c1.35-1.24,2.4-1.86,3.16-1.86Q328.95,112.39,329,115.87ZM297.74,80.94q0-2.19,2.68-3.33A43.66,43.66,0,0,0,308,73.28q4-2.81,9.2-7c1.46-1.19,2.57-1.79,3.33-1.79,2.37,0,3.56,1.06,3.56,3.16q0,2.35-10,9.49t-13.29,7.21Q297.75,84.34,297.74,80.94Zm24.32,6.48q3.31,0,3.32,3,0,2.35-9.64,10t-13.05,7.62q-3,0-3-3.32a3.06,3.06,0,0,1,1-2,9.19,9.19,0,0,1,2.84-1.94A50.86,50.86,0,0,0,311,96.26a43.86,43.86,0,0,0,6.65-5.76Q320.52,87.43,322.06,87.42Z"/><path class="e20002be-824c-4a9e-b4db-4b33c8cb3dc3" d="M358.45,68.13l-5.11,14.18v51.23q0,3.81-3.16,3.81c-2.1,0-3.16-1.27-3.16-3.81V96.42q-4.69,9.24-6.73,9.24-2.84,0-2.83-3.24a9.26,9.26,0,0,1,1.7-4.22q7.69-12.32,12.56-30.56,1.21-4.29,3.89-4.29,3.17,0,3.17,3.08Zm53.17,60.06c0,2.32-1.13,3.49-3.4,3.49q-3.09,0-7.94-4.38a51.19,51.19,0,0,1-8.43-9.89,28.07,28.07,0,0,1,.48,5.27q0,7.54-2.83,11.27-2.69,3.48-10.14,3.48-4,0-4-3.56,0-2.85,3.81-3.25a15.64,15.64,0,0,0,5-1.13c1.56-.76,2.35-3.16,2.35-7.22l-.33-2.67a80.76,80.76,0,0,1-14.1,9.89q-9.24,5.34-12.73,5.35-3,0-3-3.08c0-1.25,1.54-2.46,4.62-3.65A78.51,78.51,0,0,0,385,114.49l-1.71-3.56a98.57,98.57,0,0,1-14.5,8.75q-5.12,2.59-6.89,2.59c-1.84,0-2.76-.94-2.76-2.83q0-2.11,3.4-3.24A73.17,73.17,0,0,0,380.82,107l-2.35-3q-14.75,8.19-18.72,8.18a2.87,2.87,0,0,1-2.15-.77,2.91,2.91,0,0,1-.77-2.15q0-1.86,4.38-3.4a88.63,88.63,0,0,0,17.26-8H368.18a7,7,0,0,1-4.95-1.54,6.22,6.22,0,0,1-1.62-4.7v-6a8.68,8.68,0,0,1,.65-3.65c-1.57,1.19-2.81,1.78-3.73,1.78-1.73,0-2.59-.92-2.59-2.75,0-1.14,1.3-2.62,3.89-4.46a58.32,58.32,0,0,0,11-10.86c1.19-1.57,2.41-2.35,3.65-2.35,2.11,0,3.16.7,3.16,2.1,0,.71-.57,1.71-1.7,3h16q5.51,0,5.51,3.41,0,1.38-6.16,7.45h10.37a7.29,7.29,0,0,1,5,1.5,6,6,0,0,1,1.66,4.67v6.16q0,6.48-6.65,6.24H387.06l-3.89,3.08a32.53,32.53,0,0,1,6.49,9.48,78.87,78.87,0,0,0,9.89-9,4.91,4.91,0,0,1,3.24-1.78c2.38,0,3.56,1,3.56,3.08s-4,5.43-12,10.29a39,39,0,0,0,13,10.78C410.19,125.14,411.62,126.62,411.62,128.19Zm-44.33-49h17.26l3.81-3.8q.81-.81.81-1.14c0-.43-.35-.65-1.05-.65h-16.7a66.26,66.26,0,0,1-6.16,5.92Zm3,13.38h11.34V84.42H369.47a1.58,1.58,0,0,0-1.78,1.79V90.1C367.69,91.66,368.55,92.5,370.29,92.61Zm17.18-8.19v8.19h12.16a2.22,2.22,0,0,0,2.51-2.51V87a2.36,2.36,0,0,0-2.51-2.6Z"/><path class="e20002be-824c-4a9e-b4db-4b33c8cb3dc3" d="M433.1,94.47A151.29,151.29,0,0,1,432,113.76a74.07,74.07,0,0,1-2.8,13.54,32.54,32.54,0,0,1-2.71,6.4c-.84,1.35-1.75,2-2.72,2q-3.24,0-3.24-3.49a7.64,7.64,0,0,1,1-2.67q2.26-4.29,3.81-12.69a93.47,93.47,0,0,0,1.46-17.71l-.08-15.64q0-7,7.54-7H452.8V66.1q0-2.74,3.4-2.75t3.41,2.75v1.63h23.75c1.94,0,2.91.86,2.91,2.59s-1,2.59-2.91,2.59H459.61v3.65H486q3.57,0,5.19,1.58c1.08,1,1.56,2.72,1.46,5v3c0,2.33-1.09,3.49-3.25,3.49s-3.16-1-3.16-3.16v-1.7c0-1.68-.86-2.52-2.59-2.52H458.47v4L479.06,85c2-.16,3,.62,3,2.35s-1,2.49-3.08,2.59l-20.51,1.22v1.78c0,.6.52,1,1.54,1.26a30.6,30.6,0,0,0,4.95.53q1.86.07,7.05.08h3.08q5.19-.17,5.92-.65a1.56,1.56,0,0,0,.6-1c.14-.52.23-.88.29-1.1.37-1.24,1.4-1.86,3.08-1.86q3.4,0,3.4,3.64a5,5,0,0,1-2.51,4.79,15.74,15.74,0,0,1-5.15,1.09,87.27,87.27,0,0,1-9.44.28l-2.84-.08a20.12,20.12,0,0,1-2.19-.08c-3.13,0-5.5-.13-7.09-.24a13.52,13.52,0,0,1-3.69-.65q-3.32-1.22-3.32-4.05V91.56l-13.54.72c-1.83.11-2.75-.67-2.75-2.35s1-2.48,3-2.59l13.29-.73V82.23H436.91a4.42,4.42,0,0,0-3,.77,4.42,4.42,0,0,0-.77,3Zm61.44,37.94q0,3.32-4.13,3.32-16.7,0-27.88-2.43a26.08,26.08,0,0,1-11.84-5.92,40.77,40.77,0,0,1-8.91,6.65q-5.52,3-7.95,3c-1.94,0-2.92-.95-2.92-2.84a2.25,2.25,0,0,1,.73-1.62,6.26,6.26,0,0,1,2.35-1.3q8.68-3.32,13.05-7.7a34.55,34.55,0,0,1-4.45-10.13q-4.06,8.76-6.89,8.75c-1.79,0-2.68-.86-2.68-2.59,0-.65.6-1.78,1.78-3.4a42.65,42.65,0,0,0,6.73-15.08c.76-3.08,1.89-4.62,3.41-4.62,1.94,0,2.91.86,2.91,2.59l-1.05,4.14-.24.73h10.53q4.88,0,4.87,3.81,0,5.67-7.62,15.72a25.41,25.41,0,0,0,10.29,4.38q6.24,1.29,25.45,1.29Q494.54,129.16,494.54,132.41Zm-39.71-19.78a9.07,9.07,0,0,0,1.05-2.68c0-.53-.35-.81-1.05-.81h-8.27a25.52,25.52,0,0,0,4,10.38A36.25,36.25,0,0,0,454.83,112.63Zm37-1.14c1.89,0,2.83,1.09,2.83,3.25v2.63a19,19,0,0,1-.24,3.36,4.64,4.64,0,0,1-.81,2c-1.3,1.78-3.92,2.68-7.86,2.68-2.71,0-4.57-.27-5.6-.82s-1.62-1.83-1.62-3.72V110.6a2,2,0,0,0-2.1-2.19h-3.33q-2.1,0-2.1,3.33,0,6.15-2.6,10-3,4.46-5.67,4.46a3.27,3.27,0,0,1-2.19-.69,2.46,2.46,0,0,1-.81-2,2.37,2.37,0,0,1,.36-1.3,7.7,7.7,0,0,1,.94-1.13l.81-.81a11.59,11.59,0,0,0,2.83-4.3,23.22,23.22,0,0,0,.81-7.21c0-3.78,2-5.68,6-5.68h6.73c3.94,0,5.92,2,5.92,6v9.16c0,1.25.73,1.87,2.18,1.87a2.74,2.74,0,0,0,2.07-.65,3.26,3.26,0,0,0,.69-2.11l.08-3C489.22,112.44,490.11,111.49,491.79,111.49Z"/><path class="e20002be-824c-4a9e-b4db-4b33c8cb3dc3" d="M503.46,125q0-2.76,4.05-3.81l6.73-1.78V97.72h-5.76q-3.81,0-3.81-3c0-2.06,1.27-3.08,3.81-3.08h5.76V74.13h-6.81q-3.74,0-3.73-3,0-3.16,3.73-3.16h19.29q3.74,0,3.73,3.16,0,3-3.73,3H520.8V91.64h4.87c2.54,0,3.81,1,3.81,3.08s-1.27,3-3.81,3H520.8v20l7-1.95c1.9,0,2.84,1,2.84,3.08a2.9,2.9,0,0,1-1.46,2.76l-10.94,3.72q-4.62,1.55-7.7,2.36a23.51,23.51,0,0,1-3.73.81C504.56,128.52,503.46,127.35,503.46,125Zm18.88,6.73q0-3,3.65-3H549.5V117.9H534.66q-3.64,0-3.64-3t3.64-3H549.5v-8.67h-9.41q-8.1.64-7.45-7.54V74.21Q532,66,540.09,66.67H566q8.19-.65,7.54,7.54V95.69q.64,8.1-7.54,7.54h-9.89v8.67h15q3.57,0,3.57,3t-3.57,3h-15v10.86h17.67q3.74,0,3.73,3t-3.73,3H526Q522.34,134.76,522.34,131.76Zm27.24-59.25H542.2q-3.24,0-3.16,3.16v6h10.54Zm0,15H539v6.81q0,3.16,3.16,3.08h7.38Zm17.51-11.83c0-2.16-1-3.22-3.08-3.16h-7.87v9.16h11Zm0,18.64V87.5h-11v9.89H564C566.11,97.39,567.14,96.37,567.09,94.31Z"/><path class="e20002be-824c-4a9e-b4db-4b33c8cb3dc3" d="M591.4,95.69q-3.07,0-3.08-3.49V82.31q0-3.72,1.7-5.43t5.35-1.54h25.37V71.53H596q-3.24,0-3.24-2.91T596,65.78h55.69q3.31,0,3.32,2.84t-3.32,2.91H626.58v3.81h25.86q3.81,0,5.55,1.67t1.5,5.3v9.57c0,2.22-1.06,3.32-3.16,3.32s-3.08-1.1-3.08-3.32v-8a3.13,3.13,0,0,0-.77-2.35,3.74,3.74,0,0,0-2.39-.81H626.58V95.45a2.58,2.58,0,0,1-2.92,2.91,2.5,2.5,0,0,1-2.92-2.91V80.69h-23.1a3,3,0,0,0-2.27.77,3.74,3.74,0,0,0-.81,2.39V92.2Q594.56,95.7,591.4,95.69ZM661,125.76c0,3.84-.89,6.48-2.68,7.94s-7.83,2.19-18.15,2.19l-11.59-.24q-5.68-.09-7.06-1.87a5.71,5.71,0,0,1-1.13-3.72v-4.54h-20.1q-3.57,0-5.19-1.58t-1.38-5V106.79q0-3.48,1.54-5.06c1-1.06,2.7-1.56,5-1.5h47.17c2.38,0,4.11.52,5.19,1.58s1.54,2.71,1.38,5V119c0,2.38-.52,4.09-1.54,5.15s-2.71,1.53-5,1.42H626.26v1.86c0,1.41.37,2.22,1.13,2.43a38.15,38.15,0,0,0,5.47.41q4.57.17,12,.16,6,0,7.78-.81c1-.49,1.54-1.76,1.7-3.81a3,3,0,0,1,3.41-3.16C659.89,122.6,661,123.65,661,125.76ZM617.83,86.37a2.16,2.16,0,0,1-.73,1.74,3.07,3.07,0,0,1-2,.61h-15c-1.79,0-2.68-.78-2.68-2.35s.89-2.43,2.68-2.43h15Q617.83,83.94,617.83,86.37Zm-2.76,5.51q2.76,0,2.76,2.43a2.14,2.14,0,0,1-.73,1.74,3.07,3.07,0,0,1-2,.61h-15c-1.79,0-2.68-.78-2.68-2.35s.89-2.43,2.68-2.43Zm5.27,13.54H602.18c-1.51,0-2.27.81-2.27,2.43v2.35h20.43Zm0,9.72H599.91V118a2,2,0,0,0,2.27,2.35h18.16Zm5.92-4.94h21.48v-2.35c0-1.62-.76-2.43-2.27-2.43H626.26Zm0,10.13h19.21a2,2,0,0,0,2.27-2.35v-2.84H626.26Zm24.15-34c0,1.57-.92,2.35-2.76,2.35H632.09a3,3,0,0,1-2-.61,2.13,2.13,0,0,1-.73-1.74c0-1.62.91-2.43,2.75-2.43h15.56Q650.41,83.94,650.41,86.37Zm-2.76,5.51q2.76,0,2.76,2.43c0,1.57-.92,2.35-2.76,2.35H632.09a3,3,0,0,1-2-.61,2.11,2.11,0,0,1-.73-1.74c0-1.62.91-2.43,2.75-2.43Z"/><path class="e20002be-824c-4a9e-b4db-4b33c8cb3dc3" d="M681.74,135.93a2.82,2.82,0,0,1-.93-2.31c0-2.11,1.18-3.16,3.56-3.16h2c1.78,0,2.73-1,2.84-3.08V109.06h-8.6q-.4,13.38-2.67,19.94-2.52,7.22-5.27,7.22c-2.22,0-3.32-1.09-3.32-3.25a15.24,15.24,0,0,1,1.54-4.13,28.66,28.66,0,0,0,2.35-7.21,70.74,70.74,0,0,0,1.29-10.7Q675,103.22,675,94l-.08-10.22-.08-10.21q0-7.38,6.89-7.37h6.72c2.44,0,4.21.56,5.31,1.7s1.61,2.86,1.5,5.18v55.61c.22,2.81-.35,4.87-1.7,6.2s-3.43,1.93-6.24,1.82h-2.92A4,4,0,0,1,681.74,135.93Zm7.5-32.62V90.58h-8.6v12.73Zm0-28.37a2.46,2.46,0,0,0-2.68-2.76h-3.24c-1.73,0-2.6.81-2.6,2.43V84.83h8.52Zm15.31,17.67-3.8-8q-1.95-4-2-5.43t2.27-7.21l1.22-3.65c.91-2.64,2.13-4,3.64-4q3.17,0,3.16,2.92a42.93,42.93,0,0,1-2.1,5.59c-1.84,3.51-2.76,5.57-2.76,6.16s1,2.65,3.08,6,3.08,5.32,3.08,6.08q0,3.08-3.24,3.08A3.09,3.09,0,0,1,704.55,92.61Zm-4.13,41.26c-1.08-1.09-1.57-2.76-1.46-5V104.93q0-3.57,1.58-5.23c1.06-1.11,2.74-1.58,5.07-1.42h5.51l1.13-2.51a11,11,0,0,1,1.91-3,3,3,0,0,1,2.15-.93,4,4,0,0,1,2.55.73,2.53,2.53,0,0,1,.93,2.11c0,.59-.59,1.78-1.78,3.56H734.3q3.65,0,5.31,1.62c1.11,1.09,1.58,2.81,1.42,5.19v23.59q0,3.65-1.58,5.31c-1.06,1.1-2.77,1.6-5.15,1.5H705.61Q702,135.49,700.42,133.87ZM735,127.22V106.47c0-1.57-.84-2.4-2.51-2.51H707.07q-2.28,0-2.43,2.43V127.3a2.15,2.15,0,0,0,2.43,2.43h25.45A2.26,2.26,0,0,0,735,127.22Zm-27.64-.33a2.4,2.4,0,0,1-.65-1.78q0-2,3.57-4a35.15,35.15,0,0,0,6-4.22,63.33,63.33,0,0,1-7.22-4.62c-1.19-1-1.78-1.81-1.78-2.51a1.76,1.76,0,0,1,.81-1.42,3.19,3.19,0,0,1,2-.61q1.86,0,10.37,5.68l4.22-4.54c1.62-1.78,2.86-2.68,3.72-2.68,2,0,2.92.92,2.92,2.76q0,1.62-6.08,7.38c5.57,3.72,8.35,6.24,8.35,7.53,0,2-1,2.92-3.08,2.92a4.89,4.89,0,0,1-2.51-1.21l-7.05-5.6q-9.48,7.62-11.67,7.62A2.5,2.5,0,0,1,707.39,126.89ZM718.5,89.45l-2.76-5c-.65-1.18-1.22-2.25-1.7-3.2a5.35,5.35,0,0,1-.73-2c0-.6.62-2.27,1.86-5a45.89,45.89,0,0,0,2.43-6.4q1.14-3.57,3.57-3.57c2.22,0,3.32.92,3.32,2.76a6.35,6.35,0,0,1-.6,1.9c-.41,1-.91,2-1.5,3.28l-2.19,4.62a8.14,8.14,0,0,0-.81,2.27,4.62,4.62,0,0,0,.89,1.87c2.11,3.29,3.52,5.58,4.26,6.85a6.8,6.8,0,0,1,1.09,2.79q0,3-3.08,3Q720.44,93.66,718.5,89.45Zm14.34.08a53.75,53.75,0,0,0-3.64-6.24,7.27,7.27,0,0,1-1.71-3.89c0-.7.84-2.76,2.52-6.16l2.1-5.51c.87-2.27,2.08-3.41,3.65-3.41,2.22,0,3.32.92,3.32,2.76q0,1.86-2.67,6.4-2.76,4.69-2.76,5.51a5,5,0,0,0,1.22,2.35c3.73,4.87,5.59,8,5.59,9.57,0,2.1-1.11,3.16-3.32,3.16Q735.19,94.07,732.84,89.53Z"/><path class="e20002be-824c-4a9e-b4db-4b33c8cb3dc3" d="M760.48,96.5v9.4q0,11.52-1.34,17.63t-3.93,6.12a3.38,3.38,0,0,1-2.27-.65,2.71,2.71,0,0,1-.73-2.11,8.54,8.54,0,0,1,.82-3.08,26.1,26.1,0,0,0,1.37-7q.4-4.53.41-13.29v-7c0-2.22.92-3.32,2.75-3.32S760.48,94.28,760.48,96.5Zm10.38-8.11v45.15c0,2.38-1.06,3.57-3.16,3.57s-3.16-1.19-3.16-3.57V88.39h-7.95q-3.81,0-3.81-3.16t3.81-3.08h22.13q3.57,0,3.57,3.08t-3.57,3.16ZM754.57,70.08c0-2.06,1.16-3.08,3.48-3.08h19.13c2.38,0,3.57,1,3.57,3.08s-1.19,3.16-3.57,3.16H758.05C755.73,73.24,754.57,72.18,754.57,70.08Zm23.34,57.54q-2.83,0-2.84-3.24V96.18q0-3.25,2.84-3.25t2.84,3.25v28.2Q780.75,127.62,777.91,127.62Zm46.61,5.68a5.66,5.66,0,0,1-3.25,2.27,21.26,21.26,0,0,1-5.83.65c-3.89,0-6.43-.25-7.62-.73-1.78-.71-2.68-2.38-2.68-5V111.9l-5.1-.08q-.57,10.86-5.56,16.9t-14.3,8.06a10.08,10.08,0,0,1-1.3.17,2.34,2.34,0,0,1-2-.78,3.06,3.06,0,0,1-.61-2,2.43,2.43,0,0,1,.69-1.82,4.88,4.88,0,0,1,2.23-1.1q7.13-2.1,10.61-6.85t4.06-12.6h-3.41a5.51,5.51,0,0,1-6.08-6.08V72.91a5.51,5.51,0,0,1,6.08-6.08H815.6a5.51,5.51,0,0,1,6.08,6.08v32.91a5.51,5.51,0,0,1-6.08,6.08h-4.22v16c0,1.62.76,2.43,2.27,2.43h2.44c2,0,3.21-.46,3.64-1.38q.49-.88.57-4.62c.05-2.16,1-3.24,2.92-3.24a2.42,2.42,0,0,1,2.23,1,6.47,6.47,0,0,1,.61,3.24C826.06,129.06,825.54,131.73,824.52,133.3Zm-34-53h24.89V75a2.56,2.56,0,0,0-.69-1.9,2.69,2.69,0,0,0-2-.69H793.07a2.22,2.22,0,0,0-2.52,2.51Zm0,5.51V93h24.89V85.8Zm2.52,20.59h19.69a2.69,2.69,0,0,0,2-.69,2.59,2.59,0,0,0,.69-1.91V98.53H790.55v5.35A2.22,2.22,0,0,0,793.07,106.39Z"/><path class="e20002be-824c-4a9e-b4db-4b33c8cb3dc3" d="M909.46,125.52q0,8.1-5.27,9.32-3.65.81-13,.81a67.34,67.34,0,0,1-11.34-.73c-2.6-.49-3.89-1.89-3.89-4.22V124h-9.24q-2.12,6.81-9.65,9.72a51.35,51.35,0,0,1-18.24,2.92q-3.24,0-3.24-3,0-2.67,3.65-2.67h2.43q16.86-.81,19-7h-7.22q-6.15,0-6.16-6.16V105.17q0-6.4,6.33-6.4h37.52q6.4,0,6.41,6.4v12.65q0,6.15-6.24,6.16H881.9v4a2,2,0,0,0,.57,1.7q1.29.81,9.48.81l3.33-.08c3.72-.11,6-.51,6.8-1.22.6-.54,1-1.83,1.3-3.89a2.8,2.8,0,0,1,3-2.75Q909.46,122.52,909.46,125.52Zm-72.54-21.81V97.39a6.65,6.65,0,0,1,1.54-4.82c1-1.06,2.67-1.58,4.94-1.58L842,71.86c-.21-3.19,1.14-5.13,4.06-5.84l7.86-1.29,4.94-1.14c1.68,0,2.52,1,2.52,2.84s-3.3,3-9.89,3.65q-3.57.4-3.65,2.59l.08,1.38h10.7q2.76,0,2.76,2.43c0,1.57-.92,2.35-2.76,2.35H848.26l.33,3.89h10c1.84,0,2.76.78,2.76,2.35s-.92,2.35-2.76,2.35h-9.73l.25,3.57H896l.32-3.57H885.87a3,3,0,0,1-2-.57,2.21,2.21,0,0,1-.65-1.78c0-1.57.89-2.35,2.67-2.35h10.7l.33-3.89h-11c-1.78,0-2.67-.78-2.67-2.35s.89-2.43,2.67-2.43h11.35l.08-1.7a1.79,1.79,0,0,0-.6-1.42,2.37,2.37,0,0,0-1.59-.53h-9.56c-1.89,0-2.84-.81-2.84-2.43s.95-2.43,2.84-2.43H896.9q6.48,0,6.24,5L901.68,91q6.65,0,6.32,6.4V104q0,3.88-3.24,3.89-3.07,0-3.08-3.89V98.12a2.42,2.42,0,0,0-.69-1.86,2.9,2.9,0,0,0-1.9-.73H845.91c-1.62,0-2.48.86-2.59,2.59v5.59q0,4-3.16,4T836.92,103.71Zm16.69,2.11h37.78V105a1.92,1.92,0,0,0-2-2.19H855.72a1.9,1.9,0,0,0-2.11,2.19Zm0,4.05v3h37.78v-3Zm2.11,10h33.64a1.79,1.79,0,0,0,2-2v-1.06H853.61v1.06C853.61,119.14,854.32,119.82,855.72,119.92Zm6.57-45.06c0-1,.83-1.89,2.51-2.6A36.55,36.55,0,0,0,869,70.08l-2.75-1.46c-1.57-.81-2.35-1.65-2.35-2.52,0-1.35.73-2,2.19-2,.75,0,3,1.11,6.72,3.32L876,64.56a4.12,4.12,0,0,1,2.51-1.13c1.51,0,2.27.68,2.27,2,0,.64-1.35,2.05-4.06,4.21h-.08q5.19,3.33,5.19,4.54c0,1.57-.84,2.35-2.51,2.35-.7,0-2-.73-3.81-2.19l-2.68-1.94Q866.1,77,864.39,77A1.86,1.86,0,0,1,862.29,74.86Zm3.16,10.54L869,83.53l-3.4-1.78c-1.13-.6-1.7-1.3-1.7-2.11,0-1.35.75-2,2.27-2a25,25,0,0,1,4.7,2.11l1.94,1.22,2.11-1.79c1.84-1.51,3-2.27,3.57-2.27a2,2,0,0,1,2.27,2.19c0,.87-1.33,2.27-4,4.22l2.91,1.78q1.95,1.14,1.95,2.43c0,1.57-.84,2.35-2.51,2.35a3.7,3.7,0,0,1-2.27-1L872.82,86q-6.48,4.38-8.1,4.38a2,2,0,0,1-2.19-2.27C862.53,87.37,863.5,86.48,865.45,85.4Z"/><path class="e20002be-824c-4a9e-b4db-4b33c8cb3dc3" d="M992.38,132.08q0,3.81-3.57,3.81-2.67,0-10-3.08a64.71,64.71,0,0,1-13.13-7.21,81.12,81.12,0,0,1-13.29,7.7q-7.62,3.48-10.86,3.48t-3.16-3.4q0-2.35,4.05-3.49a58.29,58.29,0,0,0,18.24-8.51q-10.62-9.24-18.48-26Q939.36,114.5,930.29,126q-5.67,7.38-8.35,7.38-3.24,0-3.24-3.89c0-1,.65-2.11,1.95-3.41a49.51,49.51,0,0,0,12.4-20.1q4.22-12.65,4.46-32.26H926c-2.81,0-4.22-1.1-4.22-3.32S923.19,67,926,67h38q6.88,0,6.89,4.29l-.65,3.32-2.83,12.08V87a1.08,1.08,0,0,0,.52.93,2.47,2.47,0,0,0,1.42.36H979c4.26,0,6.4,1.49,6.4,4.46q0,4.22-4.38,13.13a62.33,62.33,0,0,1-10.13,15,64,64,0,0,0,17.27,7.45C991,129.11,992.38,130.35,992.38,132.08Zm-39.72-29.83a58.93,58.93,0,0,0,13.05,14.92,50.16,50.16,0,0,0,8.68-11.92q3.32-6.56,3.32-8.83c0-1-.62-1.54-1.87-1.54H966a7.53,7.53,0,0,1-4.58-1.14,4.07,4.07,0,0,1-1.5-3.48q0-.65,2.1-9.57c.06-.43.27-1.43.65-3l.49-2.1a1.16,1.16,0,0,0-.45-1.38,3.27,3.27,0,0,0-1.9-.49H943.91c-.06.6-.08,1.52-.08,2.76,0,.92-.06,2.35-.16,4.29l-.09,1.06A89.18,89.18,0,0,0,952.66,102.25Z"/><path class="e20002be-824c-4a9e-b4db-4b33c8cb3dc3" d="M1010.9,94.8l-2.39-1q-5.26-2.17-5.27-4.37,0-3.57,3.65-3.57a28.43,28.43,0,0,1,5.59,1.78,9.19,9.19,0,0,1,3.24,2,3.41,3.41,0,0,1,1.14,2.43q0,3.57-3.32,3.57A9.18,9.18,0,0,1,1010.9,94.8Zm-7.66,37.2a6.79,6.79,0,0,1,.65-2.27,128.73,128.73,0,0,0,7.13-20.91c.54-2.32,1.73-3.49,3.57-3.49,2.27,0,3.4,1.17,3.4,3.49q0,2.19-3.73,13.37-3.81,11.35-4.29,12a3.44,3.44,0,0,1-2.92,1.62Q1003.24,135.81,1003.24,132ZM1011,72.91q-4.12-2.1-4.13-4c0-2.32,1.21-3.49,3.65-3.49,1.24,0,3.18.71,5.83,2.11s4,2.81,4,4.22q0,3.64-3.4,3.64Q1015.88,75.34,1011,72.91Zm32.1,61V114.82a61.24,61.24,0,0,1-12.89,12.24q-7.86,5.67-10.7,5.67c-2.1,0-3.16-1.13-3.16-3.4q0-2,3.24-3.57,15.57-7.12,21.89-16.21h-16.78q-3.81,0-3.81-3.16t3.81-3.16h18.4V98.36q0-3.56,3.24-3.56c2.06,0,3.08,1.19,3.08,3.56v4.87H1071c2.6,0,3.89,1,3.89,3.16s-1.29,3.16-3.89,3.16h-19.45a54.83,54.83,0,0,0,20.67,15.07c2.21,1,3.32,2.19,3.32,3.65,0,2.32-1.11,3.49-3.32,3.49q-2.92,0-10-4.78a51.36,51.36,0,0,1-12.81-12.57v19.46q0,3.48-3.16,3.48T1043.12,133.87ZM1024.88,95c0-1.24,1-2.32,2.92-3.24a15.06,15.06,0,0,0,8.59-12.08l.73-6.65h-5.67c-1.57,0-2.41.84-2.51,2.52v6.56q0,3.33-3.17,3.33c-2,0-3-1.11-3-3.33V74c0-2.54.56-4.38,1.7-5.52s2.92-1.64,5.35-1.54h36.47q3.73,0,5.47,1.71t1.5,5.35v6.32q0,3.48-3.16,3.48c-2.22,0-3.32-1.16-3.32-3.48V75.91c0-1.83-.84-2.81-2.51-2.92h-8.6V87.91c0,1.08.27,1.75.81,2s2.49.41,5.52.41q2.58,0,3.08-3.08a2.65,2.65,0,0,1,2.83-2.59c2.06,0,3.08,1,3.08,3.08,0,3-.75,5.13-2.27,6.48-1.29,1.24-4.54,1.86-9.72,1.86q-6,0-7.62-1.21c-1.14-.87-1.73-2.35-1.79-4.46V73H1043a44,44,0,0,1-2,12.65,18.85,18.85,0,0,1-6.16,8.75q-4.45,3.64-7,3.65C1025.83,98,1024.88,97,1024.88,95Z"/><path class="e20002be-824c-4a9e-b4db-4b33c8cb3dc3" d="M1097,93.26q0,21.31-2.43,31.77a36.73,36.73,0,0,1-3.08,9.2q-1.62,2.88-3.57,2.88-3.48,0-3.48-3.57a8.62,8.62,0,0,1,1.13-3.32q2.6-5.19,3.65-14.11a202.2,202.2,0,0,0,1-22.85V77.05a6.32,6.32,0,0,1,1.54-4.58,6,6,0,0,1,4.54-1.58h25.45V66.43a3,3,0,0,1,.94-2.31,4.51,4.51,0,0,1,5.27,0,3,3,0,0,1,.93,2.31v4.46h24.48q3.64,0,3.64,3t-3.64,2.91h-53q-3.4,0-3.41,3.41Zm61.44,40.36a3.37,3.37,0,0,1-.89,2.64,4.78,4.78,0,0,1-3.08.77,60.6,60.6,0,0,1-14.14-2.15,56.26,56.26,0,0,1-13.34-5.07A78.39,78.39,0,0,1,1099.7,137a4,4,0,0,1-2.8-.61,2.8,2.8,0,0,1-1-2.39,2.85,2.85,0,0,1,.81-2.11,3.53,3.53,0,0,1,2.19-1A101.14,101.14,0,0,0,1111,129a53.59,53.59,0,0,0,9.61-3,41,41,0,0,1-9.57-6.56,2.91,2.91,0,0,1-1-2,2.71,2.71,0,0,1,.89-1.94,2.49,2.49,0,0,1,1.79-.81,3.52,3.52,0,0,1,2.18.89,73.69,73.69,0,0,0,6.16,4.21c2.6,1.62,4.54,2.76,5.84,3.41a53.35,53.35,0,0,0,6.65-3.89,41,41,0,0,0,5.67-4.62.73.73,0,0,0,.24-.49q0-.57-.81-.57h-32.9q-3.4,0-3.41-2.92,0-2.75,3.41-2.75h37.93a6,6,0,0,1,3.73,1,3.3,3.3,0,0,1,1.38,2.76,5.63,5.63,0,0,1-1.63,3.64,45.45,45.45,0,0,1-14,10.7,73.47,73.47,0,0,0,21.64,4.38C1157.25,130.62,1158.46,131.68,1158.46,133.62Zm-45.84-31.33A6.08,6.08,0,0,1,1111,97.8v-7h-8.59c-2,0-3-1-3-2.84a2.7,2.7,0,0,1,.81-2.11,3.18,3.18,0,0,1,2.19-.73H1111V80.77c0-1.72,1.08-2.59,3.25-2.59s3.16.87,3.16,2.59v4.38h20.1V81c0-1.89,1-2.84,3.16-2.84s3.32.95,3.32,2.84v4.13h8.76c2.1,0,3.16.95,3.16,2.84s-1.06,2.84-3.16,2.84H1144v7a5.52,5.52,0,0,1-6.08,6.08h-20.83A6.09,6.09,0,0,1,1112.62,102.29Zm24.93-11.46h-20.1v4.94a2.57,2.57,0,0,0,.56,1.86,2.45,2.45,0,0,0,1.79.57h15.32a2.15,2.15,0,0,0,2.43-2.43Z"/><path class="e20002be-824c-4a9e-b4db-4b33c8cb3dc3" d="M1241,120.9c0,1.78-1.1,2.67-3.32,2.67h-30.8v5.76q0,4.36-1.86,6.32c-1.25,1.3-3.22,1.83-5.92,1.62h-5a4.76,4.76,0,0,1-2.95-.73,2.79,2.79,0,0,1-.94-2.35q0-3,3.89-3h3.25q3,0,3.16-3.16v-4.46h-29.18q-3.24,0-3.24-2.67c0-1.79,1.08-2.68,3.24-2.68h29.18V116a2.85,2.85,0,0,1,1.38-2.67,27.33,27.33,0,0,1,6.48-2l8.43-2.19v-.16H1181c-2.1,0-3.16-.84-3.16-2.51a2.5,2.5,0,0,1,.73-2,3.66,3.66,0,0,1,2.43-.65h43.37a12.49,12.49,0,0,1,4.7.69,2.23,2.23,0,0,1,1.62,2.07c0,.87-1.86,2.08-5.59,3.65a141.49,141.49,0,0,1-15.65,5.18c-1.73.49-2.59,1.28-2.59,2.36v.48h30.8C1239.87,118.22,1241,119.11,1241,120.9Zm-71.89-13.7V101q0-3.33,1.3-4.87a5.47,5.47,0,0,1,4.21-1.62h1.14L1174,71.21a5,5,0,0,1,.94-3.36,5.22,5.22,0,0,1,3.12-1.83l8.34-1.37L1189,64l.93-.25a4.49,4.49,0,0,1,1-.16c1.68,0,2.52,1,2.52,2.84,0,.86-.76,1.58-2.27,2.15a38,38,0,0,1-7.62,1.5,5.28,5.28,0,0,0-2.55.85,1.86,1.86,0,0,0-.69,1.74l.08,2.27h9.89c2,0,3,.84,3,2.51s-1,2.51-3,2.51h-9.49l.33,4.46h9.16c2,0,3,.87,3,2.6s-1,2.51-3,2.51h-8.84l.32,4.94h45.72l.32-4.94h-9.72c-1.84,0-2.76-.84-2.76-2.51s.92-2.6,2.76-2.6h10.13l.16-4.46h-10.29a3,3,0,0,1-2.11-.6,2.52,2.52,0,0,1-.65-1.91c0-1.67.92-2.51,2.76-2.51H1229v-1.7a2.81,2.81,0,0,0-.49-1.91,2.38,2.38,0,0,0-1.78-.52h-9.32c-1.73,0-2.6-.79-2.6-2.36a2.63,2.63,0,0,1,.61-1.9,2.73,2.73,0,0,1,2-.61h11.51q6.31,0,6.32,4.87l-1.7,23.66h.89q5.91,0,5.43,6.49v6.56q0,3.81-3.24,3.81a3.1,3.1,0,0,1-2.43-.89,4.23,4.23,0,0,1-.81-2.92v-5c0-1.68-.9-2.57-2.68-2.68H1178.4a2.5,2.5,0,0,0-2.76,2.68v4.78q0,3.81-3.24,3.81T1169.08,107.2Zm25.21-30.8c0-.92,1.59-2.32,4.78-4.22l1.78-1q-5.1-3.57-5.1-4.62a2,2,0,0,1,.6-1.54,2.47,2.47,0,0,1,1.75-.57q1,0,6.48,3.81l2.35-2.43c1.14-1.24,2.16-1.86,3.08-1.86a2.65,2.65,0,0,1,1.83.56,2,2,0,0,1,.6,1.54q0,1.38-4,5l.89.48q3.4,2.44,3.41,4.06a2.52,2.52,0,0,1-.65,1.86,2.44,2.44,0,0,1-1.79.65,4.48,4.48,0,0,1-2.75-1.54l-2.84-2.67q-6.17,4.86-8,4.86A2.07,2.07,0,0,1,1194.29,76.4Zm5.35,10.86,1.62-1-.89-.57q-4.14-2.67-4.14-3.81c0-1.4.78-2.11,2.35-2.11a6.75,6.75,0,0,1,2.68,1.22l2.51,1.46,1.3.89,2.19-2.11c1.29-1.19,2.27-1.78,2.91-1.78q2.52,0,2.52,2.19c0,1-1.25,2.43-3.73,4.37q4.79,3.25,4.78,4.87a2.19,2.19,0,0,1-2.43,2.51,5.09,5.09,0,0,1-2.76-1.54L1205.07,89a45.4,45.4,0,0,1-5.11,3.53,7.74,7.74,0,0,1-3.08,1.25c-1.57,0-2.35-.75-2.35-2.27C1194.53,90.56,1196.23,89.15,1199.64,87.26Z"/><path class="e20002be-824c-4a9e-b4db-4b33c8cb3dc3" d="M1278.42,95.73a4,4,0,0,1-.81-2.72V75.26q0-3.48-3.4-3.48h-19.54q-3.48,0-3.48-2.84c0-1.84,1.16-2.75,3.48-2.75h22.45q3.81,0,5.52,1.62t1.46,5.26V93a3.79,3.79,0,0,1-.9,2.68,3.11,3.11,0,0,1-2.43,1A3,3,0,0,1,1278.42,95.73Zm-26.83-.12a2.82,2.82,0,0,1,2.19-2.68q10-3.65,16.37-6.56a5.1,5.1,0,0,1,1.71-.41,2.43,2.43,0,0,1,2.43,1.79,2.83,2.83,0,0,1,.24,1.13c0,1.14-.76,2-2.27,2.68q-8,3.72-16,7a4,4,0,0,1-1.62.32,2.65,2.65,0,0,1-2.67-1.86A5.11,5.11,0,0,1,1251.59,95.61Zm3.89-18.24c0,1.19.76,2.16,2.27,2.92a59.12,59.12,0,0,1,5.92,3.32,3.76,3.76,0,0,0,2.19.73,2.75,2.75,0,0,0,2.51-1.62,2.82,2.82,0,0,0,.33-1.3c0-1-.68-2-2-3.08a35.15,35.15,0,0,0-6.08-3.4,6.28,6.28,0,0,0-2.27-.57,2.42,2.42,0,0,0-2.43,1.46A4.35,4.35,0,0,0,1255.48,77.37Zm5,55.77q-2-1.87-1.62-5.92V110.6q0-4,1.86-5.95c1.24-1.27,3.24-1.86,6-1.75h14.35l1.78-4a3.86,3.86,0,0,1,3.73-2.35c2.11,0,3.16.87,3.16,2.59,0,.49-.62,1.73-1.86,3.73h21c2.81,0,4.87.62,6.2,1.87s1.88,3.19,1.66,5.83v16.62q0,4.29-1.86,6.2c-1.25,1.27-3.25,1.79-6,1.58h-42.15C1263.88,135,1261.81,134.38,1260.51,133.14Zm50-21.48a2.92,2.92,0,0,0-.81-2.23,3.41,3.41,0,0,0-2.27-.85h-39.23a2.93,2.93,0,0,0-2.23.81,3.44,3.44,0,0,0-.85,2.27V116h45.39Zm0,14.59v-4.71h-45.39v4.71c0,1.89,1,2.89,3.08,3h39.23Q1310.35,129.25,1310.52,126.25Zm4.7-26.95a3.76,3.76,0,0,1-.89-2.72V75.26a3,3,0,0,0-3.49-3.48H1290q-3.48,0-3.48-2.84c0-1.84,1.16-2.75,3.48-2.75h24.08q3.72,0,5.43,1.66t1.46,5.22V96.58a3.89,3.89,0,0,1-.86,2.72,3.06,3.06,0,0,1-2.39.93A3.3,3.3,0,0,1,1315.22,99.3ZM1289.93,95a2.82,2.82,0,0,1,2-2.59q9.24-3.9,14.67-6.57a4.24,4.24,0,0,1,1.86-.49,2.43,2.43,0,0,1,2.35,1.63,2.81,2.81,0,0,1,.33,1.29c0,1-.71,1.92-2.11,2.68q-9.16,4.62-14.43,6.89a5.09,5.09,0,0,1-1.78.4,2.64,2.64,0,0,1-2.51-1.7A4.35,4.35,0,0,1,1289.93,95ZM1292,77.61c0,1.19.75,2.17,2.27,2.92a50.67,50.67,0,0,1,6,3.16,4.2,4.2,0,0,0,2.1.65,2.83,2.83,0,0,0,2.6-1.62,3.2,3.2,0,0,0,.4-1.38q0-1.53-2.1-3a48.13,48.13,0,0,0-6.16-3.24,6.84,6.84,0,0,0-2.27-.57,2.52,2.52,0,0,0-2.44,1.54A4.34,4.34,0,0,0,1292,77.61Z"/><path class="e20002be-824c-4a9e-b4db-4b33c8cb3dc3" d="M1374.55,121.06l-7.62,4.86-8.26,4.38a9.7,9.7,0,0,1-3.65,1.38c-2.22,0-3.32-1.09-3.32-3.25,0-1.62,1.91-3.26,5.75-4.94V107.77a2.53,2.53,0,0,1-2.19.89q-1.79,0-3.16-3.73l-2.27-4.7-.24-.49v34.69q0,3-3.08,3a2.65,2.65,0,0,1-3-3V101.52a114.42,114.42,0,0,1-3.89,11.76c-1.14,3.13-2.35,4.7-3.65,4.7a2.69,2.69,0,0,1-2.11-.73,3.51,3.51,0,0,1-.65-2.35,5.34,5.34,0,0,1,.9-2.51q5.67-9.65,8.91-26.35h-6.24c-2,0-3.08-1-3.08-3.08s1-3.08,3.08-3.08h6.73V66.43a3.29,3.29,0,0,1,.77-2.31,2.84,2.84,0,0,1,2.23-.85,3,3,0,0,1,2.27.85,3.22,3.22,0,0,1,.81,2.31V79.88h3.89a3.18,3.18,0,0,1,2.27.77,3.06,3.06,0,0,1,.81,2.31,3.17,3.17,0,0,1-.77,2.27,3.06,3.06,0,0,1-2.31.81h-3.89V96.42a2.1,2.1,0,0,1,1.54-.65q1.38,0,4,4.46l1.38,2.43,1,1.78v-32a6.53,6.53,0,0,1,1.46-4.58,5.64,5.64,0,0,1,4.38-1.58h7.78q6.08,0,6.08,6.32v25c0,4.06-2,6.08-5.92,6.08h-8v17.43c2.43-1.14,5.59-2.86,9.48-5.19l-.16-.16-2-5.11c0-.16-.17-.46-.36-.89a2.9,2.9,0,0,1-.29-1.13c0-1.46.87-2.19,2.6-2.19,1.29,0,3,2.24,5.1,6.73s3.16,7.08,3.16,7.78c0,1.94-1,2.91-3.08,2.91C1376.42,123.81,1375.36,122.9,1374.55,121.06Zm-11.34-39h8.26V74.21a2,2,0,0,0-2.27-2.27h-3.73a2,2,0,0,0-2.26,2.27Zm0,15.89h6a2,2,0,0,0,2.27-2.27V87.58h-8.26Zm44.25,23.75a33.77,33.77,0,0,1-1.21,9.64q-1.14,3.81-6.49,3.81-4.62,0-6.16-.81c-1.3-.65-1.94-2.11-1.94-4.38V117.09h-.09a54.82,54.82,0,0,1-9.07,13,41.83,41.83,0,0,1-5.15,4.86,6.55,6.55,0,0,1-3.69,1.62c-1.89,0-2.84-1-2.84-3.08q0-1.62,3.65-4.46,13.38-10.45,17.75-30.07h-7.54l-.48,2a4.12,4.12,0,0,1-1,2.1,2.53,2.53,0,0,1-1.83.65c-1.78,0-2.67-.78-2.67-2.35a10,10,0,0,1,.16-1.21c.65-2.54,1.32-5.74,2-9.61s1.26-7.52,1.7-11a3.51,3.51,0,0,1,.89-2.19,2.52,2.52,0,0,1,1.86-.73,3.27,3.27,0,0,1,2.19.69,2.57,2.57,0,0,1,.81,2.07c0,2.75-.73,7.27-2.19,13.53h7.06q1-7.77,1.78-21.15h-13.29a4.1,4.1,0,0,1-2.72-.69,3.11,3.11,0,0,1-.77-2.39,3,3,0,0,1,.77-2.31,4.1,4.1,0,0,1,2.72-.69h21.72a4.27,4.27,0,0,1,2.8.73,2.84,2.84,0,0,1,.85,2.27,3,3,0,0,1-.85,2.35,4.33,4.33,0,0,1-2.8.73h-2.35q-.81,12-2,21.15h4.78a4.31,4.31,0,0,1,2.84.73,3,3,0,0,1,.81,2.35,2.69,2.69,0,0,1-.85,2.23,4.48,4.48,0,0,1-2.8.69h-5.75a75.09,75.09,0,0,1-3.24,10.54l.08.08a3,3,0,0,1,2.27,3.24v13.7q0,2.43,2.19,2.43a3.3,3.3,0,0,0,1.29-.24,1.26,1.26,0,0,0,.73-.65c.43-.92.68-3.11.73-6.57.05-1.94,1-2.91,2.68-2.91S1407.46,119.6,1407.46,121.71Z"/><path class="e20002be-824c-4a9e-b4db-4b33c8cb3dc3" d="M1419.86,83.77c-2.38,0-3.56-1-3.56-3.08s1.18-3.08,3.56-3.08h20.43c2.38,0,3.56,1,3.56,3.08s-1.18,3.08-3.56,3.08Zm-1.21-14q0-3.07,3.64-3.08h15.32q3.57,0,3.57,3.08c0,2.06-1.19,3.08-3.57,3.08h-15.32C1419.86,72.83,1418.65,71.81,1418.65,69.75Zm71.81,20.75a3.72,3.72,0,0,1-.93,2.68,3.51,3.51,0,0,1-2.64,1q-2.43,0-9.4-6.24a2.37,2.37,0,0,1,.33,1.21c0,1.95-1.17,2.92-3.49,2.92H1455c-2.22,0-3.32-1-3.32-2.92A2.24,2.24,0,0,1,1452,88q-3.57,3.48-5.67,5.15c-1.41,1.1-2.46,1.66-3.16,1.66a2.85,2.85,0,0,1-2.76-2.19c-.38,1.13-1.46,1.73-3.24,1.78h-14.75q-3.4,0-3.41-2.92t3.41-3h14.75a4.1,4.1,0,0,1,2.11.52,2.73,2.73,0,0,1,1.21,1.42,5.48,5.48,0,0,1,1.18-1.3c.56-.48,1-.81,1.17-1q9.57-7.86,17.83-22.53a5.94,5.94,0,0,1,1.46-1.74,3.07,3.07,0,0,1,1.87-.53c2.27,0,3.4.86,3.4,2.59a2.68,2.68,0,0,1-.32,1.14q8.91,13.86,21,20.1A3.69,3.69,0,0,1,1490.46,90.5Zm-49.77,11.75a2.67,2.67,0,0,1-.89,2.15,3.82,3.82,0,0,1-2.59.77h-14.75q-3.4,0-3.41-2.92t3.41-3h14.75Q1440.69,99.26,1440.69,102.25Zm-1.46,9.41q1.62,1.53,1.38,4.94v10.86c0,2.38-.52,4.11-1.58,5.19s-2.74,1.54-5.06,1.38h-8.27q-3.65,0-5.27-1.58t-1.3-5V116.6c0-2.38.52-4.09,1.54-5.15s2.7-1.5,5-1.33H1434Q1437.62,110.12,1439.23,111.66Zm-4.62,15.15v-9.48q0-2-1.86-1.86H1427a2.25,2.25,0,0,0-1.54.44,1.64,1.64,0,0,0-.41,1.42v9.48a1.65,1.65,0,0,0,2,1.87h5.75C1434.05,128.68,1434.67,128.06,1434.61,126.81Zm51.64-23v25.37a8.66,8.66,0,0,1-1.67,5.76c-1.1,1.3-2.82,1.94-5.14,1.94h-2.52c-1.83,0-2.75-1-2.75-3.08s.92-3,2.75-3h1.22c1.35,0,2-.82,2-2.44V118.22h-6.73V133a3,3,0,0,1-.73,2.15,2.79,2.79,0,0,1-2.11.77,2.65,2.65,0,0,1-2-.77,3,3,0,0,1-.73-2.15V118.22h-6.16V133c0,1.95-1,2.92-2.84,2.92a2.68,2.68,0,0,1-2-.77,3,3,0,0,1-.73-2.15V118.22h-6.24v15.65a3.42,3.42,0,0,1-.77,2.39,3,3,0,0,1-2.31.85,2.89,2.89,0,0,1-2.23-.85,3.47,3.47,0,0,1-.77-2.39V103.71q0-6.55,6.81-6.56h28.86Q1486.25,97.15,1486.25,103.79Zm-30.16-1.05H1452c-1.41,0-2.11.76-2.11,2.27v7.86h6.24Zm20-16.13a74.53,74.53,0,0,1-11.75-14.18l-.16-.25-1,1.71a86.57,86.57,0,0,1-9.73,12.72l1.13-.24h19.78Zm-8.26,26.26V102.74h-6.16v10.13Zm12.32-7.78a2.54,2.54,0,0,0-.53-1.82,2.4,2.4,0,0,0-1.74-.53h-4.46v10.13h6.73Z"/><rect class="a7b42975-f0a3-468f-8e41-f97f995aa06a" width="1500" height="200"/></svg>