<svg id="b3d3e705-d7e3-4a83-afbf-95ee0e56e666" data-name="圖層 1" xmlns="http://www.w3.org/2000/svg" viewBox="0 0 1500 200"><defs><style>.b1b92e5b-ade4-4da9-bca4-b517bca2e3c3,.b7696650-30db-4ff3-ad61-f54585f5fcde{fill:#2c3e50;}.b7696650-30db-4ff3-ad61-f54585f5fcde{stroke:#2c3e50;stroke-miterlimit:10;stroke-width:2px;}.e66e4acd-f4d4-49e4-b18d-e15c5197fc4a{fill:none;}</style></defs><path id="eb598b33-0d83-44da-a5c0-6e08489bec59" data-name="icon" class="b7696650-30db-4ff3-ad61-f54585f5fcde" d="M152.23,155.14H122.39a2.91,2.91,0,0,1,0-5.82h26.93V50.68H92.4V60.92a2.91,2.91,0,0,1-5.82,0V47.77a2.91,2.91,0,0,1,2.91-2.91h62.74a2.91,2.91,0,0,1,2.91,2.91h0V152.23a2.91,2.91,0,0,1-2.91,2.91Zm-62.74,0H68.64a2.91,2.91,0,0,1,0-5.82H86.58V136H47.77a2.91,2.91,0,0,1-2.91-2.91h0V73.37a2.91,2.91,0,0,1,2.91-2.91h83.45a2.9,2.9,0,0,1,2.9,2.9h0v59.69a2.9,2.9,0,0,1-2.89,2.91H92.4v13.35h17.95a2.91,2.91,0,1,1,0,5.82H89.49Zm0-25h38.82V76.27H50.68v53.88Zm22.86-18.55H66.63a2.91,2.91,0,0,1,0-5.82h45.72a2.91,2.91,0,1,1,0,5.82Zm-10.29-11H76.92a2.91,2.91,0,1,1-.34-5.81,1.93,1.93,0,0,1,.34,0h25.14a2.91,2.91,0,1,1,.34,5.81Z"/><path class="b1b92e5b-ade4-4da9-bca4-b517bca2e3c3" d="M268.13,134.34v-38q-6.64,7.65-9,7.65-3.63,0-3.63-4.33,0-2,2.21-4.23A129.43,129.43,0,0,0,275,74.62c1.94-3,3.69-4.53,5.23-4.53q4,0,4,3.63,0,2.82-7.95,12.68v47.94c0,3.29-1.35,4.94-4,4.94S268.13,137.63,268.13,134.34ZM255.64,66.46q0-2.5,4.63-5.33a72.4,72.4,0,0,0,12.39-9.07q5.23-4.73,6.75-4.73,4.13,0,4.13,4.23,0,1.61-2.57,4.38a67,67,0,0,1-7.91,6.9q-10.17,7.95-13.29,8C257,70.79,255.64,69.35,255.64,66.46ZM279.21,133a5.65,5.65,0,0,1,2-3.82,39.73,39.73,0,0,0,7.75-11q2.32-4.94,3.23-19.74.3-4.42,4-4.43,3.91,0,3.92,3.52a83.5,83.5,0,0,1-.9,11.08q3,13.1,13.69,17V93.35c0-2.88,1.41-4.33,4.23-4.33s4.13,1.45,4.13,4.33v7.56h16.12q4.83,0,4.83,4t-4.83,3.92H321.3v18.73a98.22,98.22,0,0,0,12.19.61L340,128l2.93-.2a4.59,4.59,0,0,1,3.42,1,4.19,4.19,0,0,1,1.21,3.23q0,4.72-6,4.73h-3.22q-22.76,0-30.31-3.93t-11.28-13.39a43.19,43.19,0,0,1-6.45,12.38q-4,5.64-7,5.64C280.55,137.46,279.21,136,279.21,133Zm6.09-45.16a3.41,3.41,0,0,1-1.06-2.67,5.28,5.28,0,0,1,.51-2.22,25.89,25.89,0,0,1,1.71-3q7.35-11.38,11.28-27.9a8.14,8.14,0,0,1,1.66-3.57,3.45,3.45,0,0,1,2.67-1.16q4,0,4,3.42t-3.72,12.89q11.69,8.77,11.68,11.89,0,4.13-3.93,4.13-2.31,0-4.73-3.33a46.35,46.35,0,0,0-5.54-6.14,84.83,84.83,0,0,1-6.44,14q-2.93,4.68-5,4.68A4.46,4.46,0,0,1,285.3,87.87Zm26.33-3.68a7.28,7.28,0,0,1,1.62-3.73q7-10.06,11.88-29.71c.6-2.28,1.95-3.42,4-3.42q4.23,0,4.23,3.63,0,3.42-4.23,14.6,17.22,12.07,17.22,17.22,0,4.23-4.23,4.23-2,0-4.23-2.82A97.7,97.7,0,0,0,326.44,72.1q-7.05,16.13-10.58,16.12Q311.63,88.22,311.63,84.19Z"/><path class="b1b92e5b-ade4-4da9-bca4-b517bca2e3c3" d="M442.15,71.2v53.17q0,6.34-3.12,9.47c-2,2-5.14,3-9.36,3H380q-6.75,0-9.47-3-2.93-3.22-2.92-9.47V71.2q0-6.15,2.92-9.47,2.61-3,9.47-3h15.3q1-2.82,2.52-8.46c.74-2.48,2.18-3.73,4.33-3.73a5.12,5.12,0,0,1,3.58,1.16,3.88,3.88,0,0,1,1.26,3,7.16,7.16,0,0,1-.31,1.92,41.9,41.9,0,0,1-2.92,6.14h25.89q6.54,0,9.46,3T442.15,71.2Zm-8.26.4q0-5-4.93-5H381c-3.42,0-5.13,1.62-5.13,4.84V81.67h58Zm0,33.23V89.53h-58v15.3Zm0,7.86h-58V124c0,3.42,1.64,5.14,4.93,5.14h47.94q5.13,0,5.13-4.94Z"/><path class="b1b92e5b-ade4-4da9-bca4-b517bca2e3c3" d="M548.5,124.47c.27,3.9-.49,6.72-2.26,8.46s-4.59,2.52-8.41,2.32H479.11q-5.83,0-8.4-2.57t-2.17-8.21v-49q-.71-11.49,10.57-10.78h24.78V52.26c0-3.55,1.37-5.33,4.13-5.33s4.13,1.78,4.13,5.33V64.65h25.68q5.83,0,8.46,2.57t2.21,8.21Zm-71.7-29.3h27.09V72.51H482.74q-5.94,0-5.94,5.74Zm1.46,30.71a5.67,5.67,0,0,0,4.28,1.51h21.35V102.82H476.8v18.73A5.94,5.94,0,0,0,478.26,125.88Zm62-47.63q0-5.75-5.94-5.74H512.15V95.17h28.09Zm0,24.57H512.15v24.57H534.3c4,0,5.94-1.94,5.94-5.84Z"/><path class="b1b92e5b-ade4-4da9-bca4-b517bca2e3c3" d="M605.1,123h-15v12.49a4.72,4.72,0,0,1-.81,3.07,3.79,3.79,0,0,1-5,0,4.78,4.78,0,0,1-.8-3.07V123H569c-2.76,0-4.13-1.21-4.13-3.62s1.37-3.53,4.13-3.53h14.5v-6.34H576.4a7.88,7.88,0,0,1-5.84-2q-2-2-2-5.94V78.85q0-8.05,7.86-8.06h7.05V64.85h-13.7c-2.68,0-4-1.21-4-3.62s1.35-3.63,4-3.63h13.7V50.75a4,4,0,0,1,.8-2.77,4.16,4.16,0,0,1,5,0,4,4,0,0,1,.81,2.77V57.6h14.19q4,0,4,3.63t-4,3.62H590.1v5.94h7q8.07,0,8.06,8.06v22.66a7.81,7.81,0,0,1-2.06,5.84,8.58,8.58,0,0,1-6,2.12h-7v6.34h15q4.13,0,4.13,3.53T605.1,123ZM575.59,86.71h7.86V77.34H578a2.14,2.14,0,0,0-2.42,2.42ZM578,102.92h5.44V93.05h-7.86v7.55C575.59,102.15,576.4,102.92,578,102.92Zm17.83-25.58H590.1v9.37h8.15V79.76A2.13,2.13,0,0,0,595.84,77.34Zm2.41,15.71H590.1v9.87h5.74a2.57,2.57,0,0,0,1.86-.55,2.42,2.42,0,0,0,.55-1.77Zm58.51,40.59q0,4.43-4,4.43t-11.89-9.57a53.48,53.48,0,0,1-6.59-10.72,92.27,92.27,0,0,1-5.19-13.45q-3.93,21.36-17.22,31-4.33,3.22-7,3.22a3.56,3.56,0,0,1-2.87-1,4.92,4.92,0,0,1-.86-3.22q0-2.22,3.93-4.33,18.63-10.17,19.54-49.55V78.35q0-4.12,3.73-4.13T632,79.05q0,2.82-.3,6.35l-.2,3.32q4.13,26.79,20.74,39.08Q656.76,131.11,656.76,133.64Zm-49-51.57Q615.07,69.29,618.19,52a6.75,6.75,0,0,1,1.46-3.37,3.59,3.59,0,0,1,2.77-1.16q3.83,0,3.83,3.42a16.7,16.7,0,0,1-.91,4.74l-2.92,9.06h27.4q5.64,0,5.64,4.84,0,1.8-4.64,13.19a44.83,44.83,0,0,1-4,8c-1.24,1.84-2.26,2.76-3.07,2.76a4.81,4.81,0,0,1-3-.75,2.82,2.82,0,0,1-.95-2.37,6.55,6.55,0,0,1,1-3.32q5.53-10.47,5.54-13.19c0-1.21-.8-1.82-2.42-1.82H619.91L615,83.48q-2.22,5.34-4.83,5.34-3.74,0-3.73-3.62A8.66,8.66,0,0,1,607.72,82.07Z"/><path class="b1b92e5b-ade4-4da9-bca4-b517bca2e3c3" d="M668.85,92.35V83.58a7.22,7.22,0,0,1,1.26-4.53,5,5,0,0,1,3.68-1.81V58.11q0-7.45,7.55-7.46h15.71q7.55,0,7.55,7.46V77.24a5.22,5.22,0,0,1,3.68,1.81,7.31,7.31,0,0,1,1.46,4.53v7q0,4-3.32,4t-3.33-4V86.71a2.23,2.23,0,0,0-2.52-2.52H678.12a2.33,2.33,0,0,0-2.62,2.52v5.64c0,2.62-1.11,3.92-3.33,3.92S668.85,95,668.85,92.35ZM677,138.17a4.23,4.23,0,0,1-1-3V96.68q0-7.16,7.35-7.15H696q7.26,0,7.25,7.15v33.53c0,2.89-.67,5-2,6.5s-3.43,2.16-6.24,2.16h-3.43a3.84,3.84,0,0,1-2.72-.85,3.53,3.53,0,0,1-.9-2.67q0-3.63,3.52-3.63h1.71a3,3,0,0,0,2.22-.8,3.17,3.17,0,0,0,.8-2.32v-6.75h-13v13.3c0,2.68-1.21,4-3.62,4A3.49,3.49,0,0,1,677,138.17Zm8.61-68.28q0-6.15,6-6.14h6.65V60.42a2.38,2.38,0,0,0-2.62-2.62H683c-1.68,0-2.59.91-2.72,2.72V77.14h5.34Zm10.67,28.9a2.32,2.32,0,0,0-2.62-2.62h-7.75a2.32,2.32,0,0,0-2.62,2.62v3.93h13Zm0,16.62v-6.24h-13v6.24Zm2-45.32h-3.83c-1.61,0-2.42.77-2.42,2.32v4.73h6.25Zm7.25,64c0-2.22,1.11-3.32,3.32-3.32h11.89l-1.82-7.76a8.41,8.41,0,0,1-5.44-1.56,5.58,5.58,0,0,1-1.91-4.58v-6.45a6.27,6.27,0,0,1,1.76-4.78A7.31,7.31,0,0,1,718.5,104H748q7.05,0,7,6.24v6.35q0,6.45-7.35,6.44L746,130.82h10.78c2.22,0,3.32,1.1,3.32,3.32s-1.1,3.32-3.32,3.32H708.83C706.62,137.46,705.51,136.36,705.51,134.14ZM710,98.64a3.12,3.12,0,0,1-.91-2.37q0-3.31,3.53-3.32h44.21q3.23,0,3.22,3.32t-3.22,3.23H712.66A3.68,3.68,0,0,1,710,98.64Zm2.17-12.24q-2-1.91-1.67-6.14V64c0-3,.64-5.1,1.92-6.45s3.32-1.91,6.14-1.71h5.24v-5a3.38,3.38,0,0,1,.75-2.46,3.07,3.07,0,0,1,2.27-.76c2.08,0,3.12,1.08,3.12,3.22v5h6.75v-5c0-2.14,1-3.22,3.12-3.22s3,1.08,3,3.22v5h5.84q4.44,0,6.4,1.91C756.42,59,757,61.06,756.87,64V80.26c0,2.89-.65,5-2,6.35s-3.38,1.91-6.2,1.71H718.6Q714.18,88.32,712.21,86.4Zm11.73-24.17h-4.13c-1.41,0-2.18.78-2.32,2.32v4.53h6.45Zm0,12.59h-6.45v4.84A2.1,2.1,0,0,0,719.81,82h4.13Zm23.67,40v-2.51a2.06,2.06,0,0,0-2.22-2.32H721.22c-1.48,0-2.22.77-2.22,2.32v2.51a2.12,2.12,0,0,0,2.22,2.32h24.17C746.73,117.12,747.47,116.35,747.61,114.8Zm-8.46,16,1.41-7.46v-.3H725.85l1.61,7.05.1.71Zm-2.32-61.74V62.23h-7v6.85Zm0,12.89V74.82h-7V82Zm13-17.42a2.05,2.05,0,0,0-2.32-2.32h-4.73v6.85h7.05Zm0,15.11V74.82h-7.05V82h4.73A2,2,0,0,0,749.82,79.66Z"/><path class="b1b92e5b-ade4-4da9-bca4-b517bca2e3c3" d="M813.57,86.2c-1.41.2-2.94.44-4.58.71s-3.41.5-5.29.7v14.3h14.7c3.16,0,4.74,1.25,4.74,3.73s-1.58,3.73-4.74,3.73H803.7v16l19.13-2.12c2.76-.26,4.13.91,4.13,3.53a3.41,3.41,0,0,1-.8,2.26,3.48,3.48,0,0,1-2.32,1.16q-18.93,3-46.93,6l-1.11.1q-4,0-4-3.83a4.26,4.26,0,0,1,.85-2.77,4.17,4.17,0,0,1,3-1.26l19.74-2.21V109.37H779.43q-4.63,0-4.63-3.83,0-3.63,4.63-3.63h15.91V88.72q-11.18,1.41-18.13,1.91a5.44,5.44,0,0,1-4-.85A4.31,4.31,0,0,1,772,86.3a3.57,3.57,0,0,1,1-2.77,5.51,5.51,0,0,1,3.48-1q2-.11,7-.51Q788.19,68.79,790.1,61H777.42a5.41,5.41,0,0,1-3.43-1,4,4,0,0,1,0-5.74,5.41,5.41,0,0,1,3.43-1h43.5q4.83,0,4.83,3.83T820.92,61H799.07q-3.84,11.48-7.76,20.34,12.8-1,21.55-2.12l-1.81-3c-.54-.94-1-1.77-1.36-2.51a4.43,4.43,0,0,1-.55-1.92q0-3.22,3.62-3.22,2.52,0,8.66,9.06,6,9,6,11.48,0,3.73-4.23,3.73a3.22,3.22,0,0,1-2.22-.91A12.63,12.63,0,0,1,818.71,89l-2-3.32Zm22,33.14c-2.61,0-3.92-1.45-3.92-4.33V61.43q0-4.63,3.92-4.63t4,4.63V115C839.65,117.89,838.31,119.34,835.62,119.34ZM858.69,53V128.4q0,4.93-2.42,7.55t-7.35,2.62h-9.27c-3.29,0-4.93-1.37-4.93-4.13s1.64-4.13,4.93-4.13h6.45a3.63,3.63,0,0,0,4.23-4.23V53c0-3.09,1.37-4.63,4.13-4.63S858.69,49.88,858.69,53Z"/><path class="b1b92e5b-ade4-4da9-bca4-b517bca2e3c3" d="M891.62,134.75V108.46q-11.18,4-12.89,4-4,0-4-4.13c0-2.28,1.75-3.83,5.24-4.63l11.48-3.33.2-.1V76.94h-7.45Q882.66,96,878,96q-3.72,0-3.72-3.32l.4-2.12q2.82-10.07,3.42-26.68c.14-4,1.35-6,3.63-6s3.63,1.21,3.63,3.63L885,67.67l-.2,1.61h6.85V51.76q0-4.42,3.73-4.43t3.72,4.43V69.28h6.25q3.82,0,3.82,3.93,0,3.74-3.82,3.73h-6.25V98l3.83-1.51a10,10,0,0,1,3.12-.81q3.53,0,3.53,3.63a3.62,3.62,0,0,1-2.52,3.42q-2.32,1-8,3.12v28.91q0,4.53-3.72,4.53T891.62,134.75Zm44.71-1.92c0-2.68,2.12-4.13,6.35-4.33s6.75-1,7.55-2.42q2.82-2.51,4.64-37.06l.6-13.29c.07-2.22-1-3.32-3.12-3.32h-2.52q-2.42,17.82-7.35,29.6a70.43,70.43,0,0,1-15.61,22.26q-10.68,10.38-15,10.37-3.83,0-3.82-4.23,0-2.21,4.53-5.13,26.58-17,29.81-52.87h-6.55q-3.32,17.93-12.89,29t-12.59,11.08q-3.72,0-3.72-3.73a3.86,3.86,0,0,1,1-2.36,21.31,21.31,0,0,1,3.12-3,46.49,46.49,0,0,0,17.93-31h-8.16Q913,90.64,908.64,90.63c-2.55,0-3.83-1.3-3.83-3.92,0-.67,1-2.55,2.92-5.64a54.2,54.2,0,0,0,5.64-11.38A168.37,168.37,0,0,0,918,53.27q1.31-5.94,4.93-5.94,4.23,0,4.23,3.83,0,2.21-3.83,13.39h30.12q9.85,0,9.87,8.86a371.83,371.83,0,0,1-2.62,46.33,51.34,51.34,0,0,1-1.87,9.21,12.37,12.37,0,0,1-3,5.29Q952,137.76,943,137.77,936.33,137.77,936.33,132.83Z"/><path class="b1b92e5b-ade4-4da9-bca4-b517bca2e3c3" d="M1011.16,57.8h-2.92v78q0,4.23-3.62,4.23t-3.63-4.23V119.94q-16.72,6.94-20.14,7t-3.53-4c0-2.21,2-3.86,6.15-4.93V57.8h-1.92q-3.93,0-3.93-3.62a3.65,3.65,0,0,1,1-2.77,4.08,4.08,0,0,1,2.92-1h29.61a3.92,3.92,0,0,1,2.82,1,3.65,3.65,0,0,1,1,2.77Q1015,57.8,1011.16,57.8ZM1001,72V57.8H990.72V72Zm0,20.55V79.25H990.72v13.3Zm0,20.14V99.8H990.72v16.31Zm38-23.26a10,10,0,0,1,.6,5A2.25,2.25,0,0,1,1038.4,96a4.43,4.43,0,0,1-2.26.56,3.11,3.11,0,0,1-3.22-2.62l-.61-2.12A168.48,168.48,0,0,1,1014,95.57l-.9.1a3.43,3.43,0,0,1-2.62-1.06,3.79,3.79,0,0,1-1-2.77,2.69,2.69,0,0,1,1.06-2.36,7.49,7.49,0,0,1,3.37-1.06l2.52-.3q3.32-5.45,5.64-9.67l-9.57-4.84a7.07,7.07,0,0,1-2.32-1.66,3,3,0,0,1-.7-2,3.71,3.71,0,0,1,.5-2.12,3.36,3.36,0,0,1,1.61-1.1,3.81,3.81,0,0,1,1.41-.21,6,6,0,0,1,2,.41q4.43-9.27,6.75-15.51a6.6,6.6,0,0,1,1.56-2.57,3.3,3.3,0,0,1,2.26-.75,5,5,0,0,1,2.72.7,2.65,2.65,0,0,1,1.31,1.71l.2,1.21a9.25,9.25,0,0,1-.8,2.92A134,134,0,0,1,1020.63,70l4.63,2.52,5.34-10.58a6.16,6.16,0,0,1,1.91-2.47,3.27,3.27,0,0,1,2.32-.45,4.24,4.24,0,0,1,3.52,2.72,3,3,0,0,1,.2.91,4.07,4.07,0,0,1-.7,2.21A211.25,211.25,0,0,1,1024,87.11q4.83-.7,6.75-1c-.2-.6-.39-1.21-.55-1.81s-.36-1.17-.56-1.71a9.42,9.42,0,0,1-.2-1.31,2.79,2.79,0,0,1,1-2.17,3.39,3.39,0,0,1,2.36-.85c1.35,0,2.39.9,3.12,2.72Q1038.05,86.61,1039,89.43Zm-1.51,11.38v12.08a26.85,26.85,0,0,1-4.79,15.86,26.11,26.11,0,0,1-13.44,9.72,6.71,6.71,0,0,1-1.92.3,3,3,0,0,1-3-2.11,3.68,3.68,0,0,1-.2-1.31c0-1.28.77-2.28,2.32-3a28.21,28.21,0,0,0,7.85-4.89,15.59,15.59,0,0,0,4.33-6.59h-8.46q-7.25,0-7.25-7.35v-11q0-4,3.43-4t3.52,4v9a2.23,2.23,0,0,0,2.52,2.52h7.55V100.4q0-3.83,3.73-3.82T1037.45,100.81Zm31.52-6a2.24,2.24,0,0,1-1.16,1.56,4.44,4.44,0,0,1-2.27.56,3.11,3.11,0,0,1-3.22-2.62l-.5-1.91a175.18,175.18,0,0,1-17.22,3.52l-.91.1a3.44,3.44,0,0,1-2.62-1.06,3.82,3.82,0,0,1-1-2.76,2.71,2.71,0,0,1,1-2.37,7.58,7.58,0,0,1,3.38-1.06h.3q2.52-4,5.84-10l-9.57-4.83a7.05,7.05,0,0,1-2.31-1.66,3,3,0,0,1-.71-2,3.67,3.67,0,0,1,.5-2.11,3.34,3.34,0,0,1,1.62-1.11,4,4,0,0,1,1.41-.2,5.91,5.91,0,0,1,2,.4q4.42-9.27,6.75-15.51a6.68,6.68,0,0,1,1.56-2.57,3.3,3.3,0,0,1,2.26-.75,5,5,0,0,1,2.72.7,2.65,2.65,0,0,1,1.31,1.71l.2,1.21a9.25,9.25,0,0,1-.8,2.92,133.12,133.12,0,0,1-8.36,15.31l4.63,2.52,5.34-10.58a6.12,6.12,0,0,1,1.91-2.46,3.23,3.23,0,0,1,2.32-.46A4.24,4.24,0,0,1,1067,62a3.16,3.16,0,0,1,.21.91,4.12,4.12,0,0,1-.71,2.22,240.48,240.48,0,0,1-14.1,22.55l7.76-1.1c-.27-1.08-.64-2.32-1.11-3.73a8,8,0,0,1-.2-1.31,2.79,2.79,0,0,1,1-2.16,3.44,3.44,0,0,1,2.37-.86c1.34,0,2.38.91,3.12,2.72a87.16,87.16,0,0,1,3.12,8.46A10,10,0,0,1,1069,94.76Zm-.81,7.86v10.77q0,7.26-7.25,7.26h-10.07v14.2a4.33,4.33,0,0,1-.91,3.07,3.88,3.88,0,0,1-2.92,1,3.77,3.77,0,0,1-2.82-1,4.38,4.38,0,0,1-.9-3.07V100.4q0-3.91,3.72-3.92t3.83,3.92v13.4h7.55a2.23,2.23,0,0,0,2.52-2.52v-8.66q0-4.12,3.63-4.13T1068.16,102.62Z"/><path class="b1b92e5b-ade4-4da9-bca4-b517bca2e3c3" d="M1090.62,106q0,5.14-2.41,17.12-1.32,6.75-4.44,6.75-3.42,0-3.42-3.32a10,10,0,0,1,.91-3.63q2.51-6.75,2.82-17.12c.06-2.68,1.17-4,3.32-4S1090.62,103.22,1090.62,106Zm20-22q4.33,9.57,4.33,12.69c0,2-1.1,3-3.32,3-1.34,0-2.59-1.58-3.73-4.73l-5.43.7-.31.1v39.28c0,2.75-1.2,4.13-3.62,4.13s-3.63-1.38-3.63-4.13V96.58l-10.87,1.1a2.9,2.9,0,0,1-2.67-.85,4.28,4.28,0,0,1-1-3q0-2.82,3.12-3.53l4.64-.3,6.34-9.67-1.21-1.21A80.58,80.58,0,0,0,1084,71c-1.88-1.41-2.81-2.72-2.81-3.93q0-3.52,3.22-3.53a6.78,6.78,0,0,1,3.52,1.62,89.57,89.57,0,0,0,6.15-12.79q1.9-5.23,4.73-5.24,4.34,0,4.33,3.52,0,1.82-2.42,6.3T1093,69.28l5.34,4.84L1105.12,62a5.91,5.91,0,0,1,1.72-1.91,3.49,3.49,0,0,1,2-.71q4.13,0,4.13,3.53,0,1.92-12.79,20.75l-3.93,5.53-.7.71,10.47-.6-.91-2.52a9.72,9.72,0,0,1-.7-2.52c0-1.75,1-2.62,3-2.62A3.37,3.37,0,0,1,1110.66,84.09Zm3.63,39.88a3,3,0,0,1-.71,2.62,3.7,3.7,0,0,1-2.72.9,2.88,2.88,0,0,1-2.82-1.61l-2.92-21.15q-.3-2.61,2.92-2.61a3.08,3.08,0,0,1,2.52,1.1,14.2,14.2,0,0,1,1,3.18c.44,1.84.92,4.21,1.46,7.1Zm55-63.15v68.59q0,9.17-8.67,9.16h-6.44q-4.53,0-4.53-3.82T1154,131h4.53q3.23,0,3.42-3.43V62.54a3.32,3.32,0,0,0-3.62-3.63h-30.52a3.53,3.53,0,0,0-2.56.91,3.41,3.41,0,0,0-1,2.62v72.41q0,4-3.63,4t-3.52-4v-74q-.81-9.76,9.06-9h34Q1169.78,51.05,1169.28,60.82ZM1157,123.67a6.43,6.43,0,0,1-3.73,1.1l-8.36.11c-5.43.06-9.06-.47-10.87-1.62s-2.59-2.92-2.72-5.54v-15.6h-2.22q-3.61,0-3.62-3.53t3.62-3.42h10.58V89.93q0-3.42,3.52-3.42c2.28,0,3.43,1.14,3.43,3.42v5.24h9.76c2.56,0,3.83,1.17,3.83,3.52s-1.27,3.43-3.83,3.43h-18V113.9a3.64,3.64,0,0,0,1,2.67,3.6,3.6,0,0,0,2.67,1l7.46.1,4.93-.2c2.62-.13,3.93,1,3.93,3.53A3.26,3.26,0,0,1,1157,123.67ZM1129.29,78h15.51l4-14.1c.61-2.08,1.85-3.13,3.73-3.13q3.72,0,3.72,3,0,2.72-4.93,14.2h4.83q4,0,4,3.52t-4,3.42h-27.09q-3.52,0-3.52-3.52T1129.29,78Zm2.82-4.74q-2.61-6.84-2.61-8.16c0-2.14,1.24-3.22,3.72-3.22q2.12,0,4.23,4.53a17.74,17.74,0,0,1,2,6.85c0,2.15-1.35,3.22-4,3.22Q1133.32,76.43,1132.11,73.21Z"/><path class="b1b92e5b-ade4-4da9-bca4-b517bca2e3c3" d="M1188.56,135.1a7.85,7.85,0,0,1-2-5.79V72a8.15,8.15,0,0,1,1.91-5.84,7.44,7.44,0,0,1,5.64-2h5.14q.8-4.53,1.91-12.79a3.87,3.87,0,0,1,1.31-2.72,4.44,4.44,0,0,1,2.92-.91q5,0,4.33,5.14a68.61,68.61,0,0,1-2.62,11.28h7.66q7.65,0,7.65,7.85l.1,57.31q0,7.75-7.75,7.75h-20.45A7.85,7.85,0,0,1,1188.56,135.1Zm25.73-60q0-3.33-3.32-3.33h-12.79c-2.22,0-3.32,1.11-3.32,3.33V95.27h19.43Zm0,51V102.72h-19.43v23.36c0,2.22,1.1,3.33,3.32,3.33H1211Q1214.29,129.41,1214.29,126.08Zm29.91,11.48a3.85,3.85,0,0,1-1.21-3.12q0-4.12,4.64-4.13,6.24,0,8.76-.25a8.18,8.18,0,0,0,3.83-1.16,6.27,6.27,0,0,0,2.11-3.22q1.41-4.12,2.22-20.14t.8-30.41c0-2.56-1.48-3.83-4.43-3.83h-22.46a54.8,54.8,0,0,1-6.14,12.28,4.1,4.1,0,0,1-3.53,2.32,4,4,0,0,1-2.11-.6,3.43,3.43,0,0,1-2-3.13,5.42,5.42,0,0,1,.8-2.71,113.91,113.91,0,0,0,6.24-13.4q2.52-6.64,4.74-14.9a5.58,5.58,0,0,1,1.56-2.67,3.68,3.68,0,0,1,2.57-1,9,9,0,0,1,1.41.2,3.45,3.45,0,0,1,3,3.63,9.18,9.18,0,0,1-.3,2.21,57.21,57.21,0,0,1-1.72,5.79,28.62,28.62,0,0,1-1.91,4.49h24.17q8.87,0,8.86,7.45,0,18.93-1,36.5t-3.43,23.52a10.51,10.51,0,0,1-5.54,5.84q-3.72,1.62-11.28,1.61c-2,0-3.56,0-4.63-.1A6.69,6.69,0,0,1,1244.2,137.56Zm.51-26.53a13.36,13.36,0,0,1-2.42-3.48q-1.92-3.42-5.64-9.16l-1.41-2.22a6.83,6.83,0,0,1-.86-1.71,5.46,5.46,0,0,1-.35-1.71,3.52,3.52,0,0,1,1-2.67,3.63,3.63,0,0,1,2.62-1,5.1,5.1,0,0,1,3.42,1.82,44.1,44.1,0,0,1,4.63,5.94q5.85,8.76,5.84,11.58a3.59,3.59,0,0,1-1,2.72,4.16,4.16,0,0,1-3,1A3.94,3.94,0,0,1,1244.71,111Z"/><path class="b1b92e5b-ade4-4da9-bca4-b517bca2e3c3" d="M1287.21,135.35a2.51,2.51,0,0,1,1.56-2.17,10.13,10.13,0,0,1,4.48-1q5.45-.1,11.48-.81a98,98,0,0,0,10.57-1.71,23.77,23.77,0,0,1,4.84-.71q3.83,0,3.83,3.33,0,2.82-7.46,4-9.16,1.5-15,2.21a87.21,87.21,0,0,1-10.27.71Q1287.21,139.28,1287.21,135.35Zm13.34-47.69a4.43,4.43,0,0,1-1.66-4.48l.5-3.83h-8.76c-2,0-2.92-.87-2.92-2.61s1-2.52,2.92-2.52h9.67q.6-6.15,2.52-8c1.21-1.21,3.08-1.78,5.64-1.71h49.24a8.83,8.83,0,0,1,5.64,1.61,5.71,5.71,0,0,1,2,4.74c0,.87-.07,2-.2,3.32H1375c2,0,3,.84,3,2.52s-1,2.61-3,2.61H1365q-.6,6.86-2.51,8.36a8.67,8.67,0,0,1-5.54,1.51h-50.46A9.56,9.56,0,0,1,1300.55,87.66ZM1289,68V62.54q0-8.76,8.66-8.26h29.91V51.36q0-4,4.53-4c3,0,4.54,1.34,4.54,4v2.92h31.22c2.81,0,4.93.65,6.34,2s2.15,3.34,2.21,6.1V68c0,2.68-1.3,4-3.92,4s-3.83-1.21-3.83-3.62V63.75q0-2.82-3-3H1300q-2.82,0-3,3V68q0,4-3.93,4T1289,68Zm10.67,58q-1.9-1.82-1.71-5.94V100.4c0-2.75.61-4.75,1.81-6s3.19-1.79,6-1.66h54c2.82,0,4.86.6,6.14,1.81s1.85,3.16,1.71,5.84V120q0,4.23-1.86,6.09c-1.24,1.25-3.24,1.8-6,1.67h-53.88Q1301.61,127.8,1299.69,126Zm59.62-24.57a2.78,2.78,0,0,0-.65-2.06,3.15,3.15,0,0,0-2.06-.76H1309q-2.71,0-2.82,2.82v1.31h53.17Zm0,10.78v-4.33h-53.17v4.33Zm0,6.84v-1.81h-53.17V119c0,1.82.94,2.79,2.82,2.93h47.64C1358.41,122,1359.31,121,1359.31,119ZM1328,79.35h-20.64a20.55,20.55,0,0,0-.2,2.52q0,2.22,2.52,2.22h17.72Zm1.21-9.66h-18.33a1.88,1.88,0,0,0-2.11,1.61l-.51,2.92h20.45Zm26.49,14a1.92,1.92,0,0,0,.7-1.16l.41-3.23h-21.25l-.61,4.74h19.14A2.91,2.91,0,0,0,1355.69,83.74Zm1.51-12.14c0-1.27-.84-1.91-2.52-1.91h-18.13l-.4,4.53H1357C1357.13,73,1357.2,72.14,1357.2,71.6Zm-7,64.05-2.52-.6a27.77,27.77,0,0,1-4.23-1.11,2.82,2.82,0,0,1-1.61-2.72A2.78,2.78,0,0,1,1343,129a3.69,3.69,0,0,1,3-.6q1.71.3,5.34,1.11l8,1.51a97.58,97.58,0,0,0,14.1,1.31c3.36.13,5,1.21,5,3.22,0,2.48-1.34,3.73-4,3.73l-4.43-.41A149.33,149.33,0,0,1,1350.25,135.65Z"/><path class="b1b92e5b-ade4-4da9-bca4-b517bca2e3c3" d="M1426.89,123.57q0,2.31-3.73,4a21.68,21.68,0,0,1-3,1.21q-5.13,1.81-24.17,6.55l-2.11.4q-3.93,0-3.93-4,0-3.12,5-4.33h.21v-34q0-3.82,3.42-3.82t3.42,3.82v32.33l4.94-1.21V83.18h-4.43q-7.76,0-7.76-8V58.91q0-7.86,7.76-7.85h12.69q7.76,0,7.75,7.85V75.23q0,8-7.75,8h-1.51V96.27h5.84a3.92,3.92,0,0,1,2.82,1,3.8,3.8,0,0,1,1,2.87q0,3.93-3.83,3.93h-5.84v18.63c1-.2,2.45-.57,4.33-1.11l2.51-.7a20.24,20.24,0,0,1,3.33-.61,2.73,2.73,0,0,1,2.62,1.61A3.91,3.91,0,0,1,1426.89,123.57Zm-22.26-47.64h8.46c1.75,0,2.69-1,2.82-2.92V61.13a2.49,2.49,0,0,0-2.82-2.82h-8.46q-2.61,0-2.82,2.82V73A2.65,2.65,0,0,0,1404.63,75.93Zm77.25,46.73a26.92,26.92,0,0,1-2.32,11q-2.11,4.73-7,4.73-8.76,0-19.74-10.67h-.1a108,108,0,0,1-16.41,7.55q-8.46,2.92-11.79,2.92-3.61,0-3.62-3.73a3,3,0,0,1,1.41-2.82,22.4,22.4,0,0,1,6.24-1.81,76.62,76.62,0,0,0,19.54-7.35l.1-.2a43.64,43.64,0,0,1-6.45-13.6l-15,.91q-3,.2-3-3.33c0-2.28,1.37-3.45,4.13-3.52l12.08-.81a56.68,56.68,0,0,1-1.11-8.76,3.28,3.28,0,0,1,3.83-3.82q3.12,0,3.53,5.74l1,6.34,29.61-1.91a4.86,4.86,0,0,1,3.38.6,3.23,3.23,0,0,1,1,2.72q0,3.12-3.82,3.42l-28.4,1.92a43.13,43.13,0,0,0,5.33,10.87h.2a76.94,76.94,0,0,0,9.88-7.15c2-1.94,3.52-2.92,4.53-2.92a5.48,5.48,0,0,1,3.17.71,2.44,2.44,0,0,1,1,2.11q0,2.93-13.9,12.09v.2q7.86,6.65,12.08,6.65,2.73,0,3.73-7.86c.33-2.42,1.47-3.62,3.42-3.62Q1481.89,119.24,1481.88,122.66Zm-57.56-32.18a4,4,0,0,1-.85-2.77q0-2.71,5.74-3.62a83.13,83.13,0,0,0,18.63-5.24l.1-.2a37.6,37.6,0,0,1-6.15-10.78l-13.09.91c-2.62.2-3.92-.91-3.92-3.32q0-3.22,4-3.53l11-.7a80.79,80.79,0,0,1-1.61-10.17q0-3.63,3.73-3.63,3.21,0,3.62,4.13a74.22,74.22,0,0,0,1.51,9.16l29.91-2q3.22-.2,3.23,3.42,0,3.23-3.93,3.53l-27.09,1.71a36.21,36.21,0,0,0,5.64,8.56h.1a53.82,53.82,0,0,0,10.37-6.34c1.48-1.14,2.62-1.72,3.42-1.72,2.29,0,3.43,1,3.43,2.92q0,3.43-12.09,9.27l-.1.2c4.84,3.22,8.39,4.84,10.68,4.84,2.08,0,3.45-2,4.13-6.15q.6-3.32,3.22-3.32,3.22,0,3.22,3.12a18.21,18.21,0,0,1-2.42,9.06,7.09,7.09,0,0,1-6.54,3.93q-9.37,0-19.44-8.26a96.84,96.84,0,0,1-14.9,5c-.67.13-1.28.29-1.82.45l-1.51.46a62.39,62.39,0,0,1-7.75,1.81A2.67,2.67,0,0,1,1424.32,90.48ZM1462,92.15q2.42,2.11,2.42,3.82c0,2-1.08,3-3.23,3a4.11,4.11,0,0,1-3-1.81l-2.92-3.42a4,4,0,0,1-1.21-2.22c0-1.88,1-2.82,3-2.82.87,0,2,.64,3.23,1.91Zm-4-38a21.37,21.37,0,0,1-1.86-2,2,2,0,0,1-.46-1.2,2.88,2.88,0,0,1,.76-2.22A3.73,3.73,0,0,1,1459,48c.73,0,2.28.95,4.63,2.82s3.62,3.43,3.62,4.44q0,3.12-3.52,3.12Q1462.24,58.41,1458,54.18Z"/><rect class="e66e4acd-f4d4-49e4-b18d-e15c5197fc4a" width="1500" height="200"/></svg>