<svg id="fcdeb6ac-35ad-4733-8356-3e16a1094c98" data-name="圖層 1" xmlns="http://www.w3.org/2000/svg" viewBox="0 0 1500 200"><defs><style>.a8d110ca-258e-4eaa-ba54-b0bf064464f4{fill:none;}.a723445c-7109-4599-8934-c8828f325f35,.bb39be33-2cfe-4720-af0e-c5d1cb84102e{fill:#2c3e50;}.a723445c-7109-4599-8934-c8828f325f35{stroke:#2c3e50;stroke-miterlimit:10;stroke-width:2.5px;}</style></defs><rect class="a8d110ca-258e-4eaa-ba54-b0bf064464f4" width="1500" height="200"/><path class="bb39be33-2cfe-4720-af0e-c5d1cb84102e" d="M301.61,129.21c1.45.94,2.17,1.87,2.17,2.82,0,2.41-1.24,3.61-3.73,3.62q-1.31,0-5.64-2.32l-4.63-2.11q-4.23,3-12.59,5.44a52.75,52.75,0,0,1-14.6,2.31q-4.53,0-4.53-3.52c0-2.15,2.35-3.32,7.05-3.53q10.17-.39,16.81-3.62l-11.38-3a13.31,13.31,0,0,1-4.48-1.92,3.31,3.31,0,0,1-1.46-2.71c0-.88.61-2.25,1.82-4.13l1.3-2.12h-8.66c-2.35,0-3.53-1.07-3.52-3.22s1.18-3.19,3.52-3.12h12.09l2.62-4.94H269c-2.68,0-4.7-.45-6-1.36a5.21,5.21,0,0,1-2.11-4.48V91.54q0-6.65,8.15-6.14h10.58V81.47h-9.77q-4.34,0-6.34-1.91t-1.62-6.15V70.09h-3.32c-2.22,0-3.32-1-3.32-3.12s1.1-2.92,3.32-2.92h3.32V61.13c0-2.89.62-5,1.87-6.35s3.27-1.91,6.09-1.71h9.77V50.65q0-3.72,3.52-3.72c2.35,0,3.52,1.24,3.53,3.72v2.42H297c2.89,0,5,.64,6.35,1.91s1.94,3.33,1.81,6.15v2.92h2.62q3.42,0,3.42,3a2.79,2.79,0,0,1-.9,2.26,3.86,3.86,0,0,1-2.52.76h-2.62v3.32q0,4.33-2,6.35c-1.3,1.34-3.37,1.91-6.19,1.71H286.66v4H298a10.37,10.37,0,0,1,5.89,1.36A5.25,5.25,0,0,1,306,91.24V97q0,6.65-7.95,6.14H281.12l-2.32,4.94h29.51q3.53,0,3.53,3.22t-3.53,3.12h-8.16a32.13,32.13,0,0,1-5.23,11.78A34.07,34.07,0,0,1,301.61,129.21Zm-33-32.58a2.42,2.42,0,0,0,1.71.55h9.27V91.34h-9.27a2.13,2.13,0,0,0-1.76.7,4.26,4.26,0,0,0-.55,2.52,2.77,2.77,0,0,0,.62,2.07Zm.3-32.58h10.68V59.11h-8.26c-1.48,0-2.28.81-2.42,2.42Zm10.68,11.38V70.09H268.93V73a2.2,2.2,0,0,0,2,2.42,1.77,1.77,0,0,0,.46,0Zm13.19,39h-17.4l-.71,1.11c-.13.27-.45.79-.95,1.56a3.66,3.66,0,0,0-.76,1.66c0,.88.81,1.48,2.42,1.81L288.07,124a20.4,20.4,0,0,0,4.73-9.6Zm-6.14-50.35h11.28V61.53a2.4,2.4,0,0,0-.56-1.76,2.92,2.92,0,0,0-1.86-.66h-8.86Zm0,11.38h8.86a2.14,2.14,0,0,0,2.44-1.79,1.89,1.89,0,0,0,0-.67V70.09H286.66Zm0,21.75h9.87a2.16,2.16,0,0,0,1.71-.6,5.61,5.61,0,0,0,0-4.64,2.16,2.16,0,0,0-1.71-.6h-9.87ZM347.49,134c0,3-1.35,4.43-4,4.43q-5.44,0-16.72-13.59a51.19,51.19,0,0,1-10.17,9.66q-6,4.23-8.46,4.23a3.91,3.91,0,0,1-2.92-1,4.17,4.17,0,0,1-.91-3c0-1.75,1.55-3.39,4.64-4.94a36.54,36.54,0,0,0,13.39-11.38q-2.71-5.13-4.73-14.6a171.81,171.81,0,0,1-3-21.65q-3.62,7.14-5.84,7.15c-2.21,0-3.32-1.35-3.32-4A8.82,8.82,0,0,1,307,81.57q6.24-9.76,10.38-26.69c.87-3.62,1.5-5.7,1.91-6.24a3.69,3.69,0,0,1,3.12-1.31c2.68,0,4,1.11,4,3.32q0,2.82-5.14,16.32h22.46q3.82,0,3.83,4t-3.83,4h-3.52l-.31,6.15a145.8,145.8,0,0,1-2.41,21.35,55.35,55.35,0,0,1-6.45,16,55.5,55.5,0,0,0,12,10.13C346,130.41,347.49,132.23,347.49,134ZM332.78,76.6l.1-1.62H320.19l.51,8.46q1,17.63,5.84,28.1,5.23-10.73,6.24-34.9Z"/><path class="bb39be33-2cfe-4720-af0e-c5d1cb84102e" d="M371.86,134.34V86.61l-.2.6-.81,1.41q-6.35,11.09-8.46,11.08c-2.42,0-3.62-1.51-3.62-4.53,0-1,1.1-3.33,3.32-7A163.85,163.85,0,0,0,378.5,52.36a10.08,10.08,0,0,1,1.92-3.72A3.43,3.43,0,0,1,383,47.43c3.15,0,4.72,1.28,4.73,3.83q0,2-2.17,7.4a131.46,131.46,0,0,1-5.79,12.24v63.44c0,3.22-1.34,4.84-4,4.84S371.86,137.56,371.86,134.34Zm11.78-4.13c0-2.68,1.48-4,4.43-4h33.34q2.71-11.07,4.38-18.63t3-15.1a22.87,22.87,0,0,0,.4-2.72,72.8,72.8,0,0,1,1.51-7.45c.54-1.48,1.78-2.22,3.73-2.22a4.42,4.42,0,0,1,3.37,1.21,3.88,3.88,0,0,1,1,3.22l-.4,2.32a346,346,0,0,1-9,37.86l-.5,1.51h17c3,0,4.53,1.35,4.53,4s-1.51,4-4.53,4H388.07c-2.95,0-4.42-1.31-4.43-4Zm1.71-59.92q0-3.93,4.43-3.93h21.86V53.47c0-3.62,1.41-5.44,4.23-5.44s4.23,1.82,4.23,5.44V66.36h24.07q4.53,0,4.53,3.93t-4.53,4H389.78c-2.95,0-4.42-1.31-4.43-4Zm14.3,47L392.81,85.5A3.59,3.59,0,0,1,396,81.56a4.17,4.17,0,0,1,.79,0,3.76,3.76,0,0,1,3.73,2.92,110.14,110.14,0,0,1,3.12,11.28l3.73,17.42a19.43,19.43,0,0,1,.5,3.13c0,2.75-1.44,4.13-4.33,4.12a3.82,3.82,0,0,1-3.91-3.12Z"/><path class="bb39be33-2cfe-4720-af0e-c5d1cb84102e" d="M510.54,104.33v29.91c0,3.16-1.38,4.73-4.13,4.73a4.12,4.12,0,0,1-3.18-1.15,5.23,5.23,0,0,1-1.05-3.58v-29.3q-22.67,1.41-35.35,1.81c-2.62.07-3.93-1.38-3.93-4.33a3.53,3.53,0,0,1,1.91-3.53q1.41-.7,10.88-.7,8.76,0,17-.51L497.44,93l.61-.3A183.72,183.72,0,0,0,477.4,79.46c-4.16-2.15-6.24-4-6.24-5.44a4,4,0,0,1,1.06-3,4.75,4.75,0,0,1,3.37-1,7.26,7.26,0,0,1,3.62,1.41l4.44,2.42,3.22,1.91,10.27-14.5-11.68,1-16,.71c-2.67.07-4-1.3-4-4.13,0-2.62,2-3.93,6.14-3.93h4.63q36.76-1.41,57.21-6a38.86,38.86,0,0,1,6.24-1.21c3.09,0,4.63,1.55,4.63,4.63A3.49,3.49,0,0,1,542,55.49a21,21,0,0,1-4.28,1c-2.12.37-4.55.75-7.3,1.16q-12,1.71-23.37,2.72l-14.6,19,1.31.7,9.56,6.65q7.67-8.27,13.8-16.12,5.83-7.35,8.26-7.35,4.64,0,4.63,4.13,0,1.92-6.85,9.67a253.11,253.11,0,0,1-19.53,19.23l-1.21,1.21q18.23-.49,34.24-1.61l-.81-.8-4.73-5.24c-1.54-1.68-2.32-3-2.32-3.93,0-2.21,1-3.31,3.13-3.32.94,0,2.36.8,4.28,2.42s4.54,4.16,7.9,7.65a78.2,78.2,0,0,1,7,8.21q2.42,3.38,2.42,5c0,2.49-1.45,3.73-4.33,3.73q-2.12,0-4.94-3.63l-3-4.13Q526.33,103.32,510.54,104.33Zm-22.16,9.77q0,1.41-2.27,4.58a80.94,80.94,0,0,1-6.49,7.71q-8.76,9.36-12.89,9.36a3.68,3.68,0,0,1-2.82-1,4.31,4.31,0,0,1-.91-3.07c0-1.61,1.14-3.18,3.42-4.73a49.73,49.73,0,0,0,12-11.78c2.35-3.16,4.29-4.74,5.84-4.74Q488.39,110.48,488.38,114.1Zm64.25,16.82q0,4.43-4.33,4.43T534.1,126Q524,116.43,524,113.5a3.27,3.27,0,0,1,1-2.57,4.5,4.5,0,0,1,3.07-.86c1.27,0,3.22,1.45,5.84,4.33A58.23,58.23,0,0,0,549,126.49q3.63,1.91,3.63,4.43Z"/><path class="bb39be33-2cfe-4720-af0e-c5d1cb84102e" d="M565.67,128.65a3.39,3.39,0,0,1-.95-2.67,9.7,9.7,0,0,1,.9-3.62,45.72,45.72,0,0,0,2.92-16q.11-4.42,3.53-4.43a4.2,4.2,0,0,1,2.77.76,3.13,3.13,0,0,1,.85,2.47l-.1,2.72q-1.5,21.65-7,21.65A4.38,4.38,0,0,1,565.67,128.65Zm14.76,6.4V96.78L568.85,98a3.5,3.5,0,0,1-3-.86,4.29,4.29,0,0,1-1-3.07,3.1,3.1,0,0,1,2.86-3.33h.06l5-.4H574l6.14-9.26a109.06,109.06,0,0,0-12-9.87c-1.81-1.21-2.71-2.49-2.72-3.83,0-2.48,1.21-3.73,3.63-3.73.8,0,2.08.68,3.82,2l.61.4a94.42,94.42,0,0,0,7.15-14.6c1.07-2.75,2.62-4.13,4.63-4.13q3.93,0,3.93,3.73t-10.58,19l5.44,4.63L591.1,62.5a4,4,0,0,1,3.53-2.12q3.82,0,3.82,3.73,0,4.53-16.61,25.78l1.21-.1,9.66-.4.51-.11-1-2.71a8.39,8.39,0,0,1-.5-2.62c0-1.88,1-2.82,2.92-2.82q2,0,4.73,6.75C601.12,92.19,602,95,602,96.17q0,3.43-3.53,3.43a2.64,2.64,0,0,1-2.11-1.16A7.68,7.68,0,0,1,595,95.17l-6.75.8v39.08c0,2.95-1.31,4.42-3.93,4.43s-3.92-1.47-3.89-4.43Zm14.8-10.88-.3-1.41-2.42-17.93a2.22,2.22,0,0,1,.71-2.21,4.36,4.36,0,0,1,2.72-.71q3,0,4.23,6.75,1.91,11,1.91,13.3,0,3.72-3.73,3.72A3.49,3.49,0,0,1,595.23,124.17Zm2.72,9.57c0-1.28.81-2.45,2.42-3.53q13.89-8.55,15.1-34.54l-8.76.6c-2.48.21-3.72-1-3.72-3.72s3.12-3.93,9.36-3.93l.2-.1a178.22,178.22,0,0,0,5.64-19.64v-.6H604.7q-4,0-4-3.63t4-3.52h18.63V52.36c0-3.28,1.31-4.93,3.93-4.93s3.92,1.65,3.92,4.93v8.77h20.55c2.95,0,4.42,1.17,4.43,3.52s-1.47,3.56-4.43,3.63H626.35a105.55,105.55,0,0,1-6.85,19.94l23.06-1.61L639,81.27q-2.22-3.33-2.22-4.23,0-3,3.53-3c1.07,0,2.75,1.47,5,4.43a123.31,123.31,0,0,1,8.46,13.09,26.16,26.16,0,0,1,1.51,2.62,4.61,4.61,0,0,1,.61,1.91q0,3.52-3.83,3.53-2.12,0-4.63-4.43L646,92.45l-7.25.9v31.12q0,3,1.11,3.93c.46.4,1.94.6,4.43.6q3.21,0,3.93-1.2c.67-1.21,1-3.36,1.1-6.45a8.68,8.68,0,0,1,1-4.18,3,3,0,0,1,2.77-1.36q3.72,0,3.72,3.83a33.75,33.75,0,0,1-1.81,12q-1.82,4.63-12.18,4.64-6.15,0-8.36-1.31-2.62-1.51-2.62-6.15V94.16l-8.66.91h-.51l-.2,5.23q-.71,17.13-8.15,27.6-7,10-12.69,10-3.68,0-3.63-4.16Z"/><path class="bb39be33-2cfe-4720-af0e-c5d1cb84102e" d="M668.45,135.35a2.52,2.52,0,0,1,1.56-2.17,10.22,10.22,0,0,1,4.48-1q5.44-.1,11.48-.81a99.18,99.18,0,0,0,10.58-1.71,23.86,23.86,0,0,1,4.83-.71c2.55,0,3.82,1.11,3.83,3.33q0,2.82-7.46,4-9.16,1.5-15,2.21a86.15,86.15,0,0,1-10.27.71Q668.45,139.28,668.45,135.35Zm13.34-47.69a4.43,4.43,0,0,1-1.66-4.48l.5-3.83h-8.76c-2,0-2.92-.87-2.92-2.61s1-2.52,2.92-2.52h9.67q.6-6.15,2.52-8t5.64-1.71h49.24a8.86,8.86,0,0,1,5.64,1.61,5.69,5.69,0,0,1,2,4.74c0,.87-.07,2-.2,3.32h9.87q3,0,3,2.52c0,1.68-1,2.61-3,2.61h-10q-.62,6.85-2.52,8.36a8.67,8.67,0,0,1-5.54,1.51H687.68a9.58,9.58,0,0,1-5.89-1.52ZM670.26,68V62.54q0-8.77,8.66-8.26h29.91V51.36q0-4,4.53-4t4.54,4v2.92h31.22q4.23,0,6.34,2t2.22,6.09V68q0,4-3.93,4t-3.83-3.62V63.74q0-2.81-3-3H681.24q-2.82,0-3,3V68q0,4-3.93,4T670.26,68Zm10.68,58q-1.92-1.81-1.72-5.94V100.4q0-4.12,1.82-6c1.21-1.24,3.18-1.79,5.94-1.66h54q4.23,0,6.14,1.81c1.27,1.21,1.84,3.15,1.71,5.84V120q0,4.23-1.86,6.09c-1.24,1.25-3.24,1.8-6,1.67H687.08Q682.85,127.81,680.94,126Zm59.62-24.57a2.76,2.76,0,0,0-.66-2.06,3.16,3.16,0,0,0-2.06-.76H690.2q-2.72,0-2.82,2.82v1.31h53.18Zm0,10.78v-4.33H687.38v4.33Zm0,6.84v-1.81H687.38V119c0,1.82.94,2.79,2.82,2.93h47.64c1.81.07,2.72-.93,2.72-2.93Zm-31.32-39.7H688.59a19.45,19.45,0,0,0-.2,2.52q0,2.22,2.52,2.22h17.72Zm1.2-9.66H692.11A1.87,1.87,0,0,0,690,71.3l-.5,2.92h20.44Zm26.49,14a1.88,1.88,0,0,0,.7-1.16L738,79.3H716.79L716.18,84h19.14a2.91,2.91,0,0,0,1.61-.3Zm1.51-12.14c0-1.27-.84-1.91-2.52-1.91H717.79l-.4,4.53h20.85c.13-1.17.2-2,.2-2.57Zm-7,64.05-2.52-.6a28,28,0,0,1-4.23-1.11,2.82,2.82,0,0,1-1.61-2.72,2.77,2.77,0,0,1,1.11-2.22,3.72,3.72,0,0,1,3-.6q1.71.3,5.34,1.11l8,1.51a96.51,96.51,0,0,0,14.1,1.31c3.35.13,5,1.21,5,3.22,0,2.48-1.34,3.73-4,3.73l-4.43-.41a149.25,149.25,0,0,1-19.71-3.17Z"/><path class="bb39be33-2cfe-4720-af0e-c5d1cb84102e" d="M779.23,111.18l-1.11,13.29q-.4,4.74-3.63,4.74c-2.35,0-3.53-1-3.52-3.13l1.11-5.94.9-7.75c.27-2.76,1.35-4.13,3.23-4.13A2.68,2.68,0,0,1,779.23,111.18Zm84.09-33.24q0,4.34-4.13,4.34-3.23,0-10.47-6.55a3.11,3.11,0,0,1,.3,1.41c0,2.42-1.45,3.62-4.33,3.62H825.75c-2.88,0-4.33-1.2-4.33-3.62a3.38,3.38,0,0,1,.11-1q-6.66,7.56-9.67,7.56a4.12,4.12,0,0,1-2.32-.61,4,4,0,0,1,.3,1.61,3.16,3.16,0,0,1-1,2.47,4,4,0,0,1-2.77.86h-7.86v8.56h6q7,0,7,6.74l-.2,4.23A130.86,130.86,0,0,1,809.59,123a49.16,49.16,0,0,1-2.26,9.42q-2.62,6.24-12.29,6.24c-2.89,0-4.34-1.33-4.33-4s1.45-4,4.33-4q5.64,0,7.15-4.74a42.71,42.71,0,0,0,1.21-6.24,2.45,2.45,0,0,1-1.61.6c-1.28,0-2.39-1.47-3.33-4.43l-2.11-7.15a2.08,2.08,0,0,1,.65-1.61,2.54,2.54,0,0,1,1.77-.6q2,0,3.12,3.42l1,2.62.91,2.62.61-9.37c.06-1.61-.88-2.42-2.83-2.42H782.85q-7.85,0-7.85-7.75V59q0-7.95,7.85-8h25.38q4,0,4,3.52a3.41,3.41,0,0,1-1,2.67,4.5,4.5,0,0,1-3.07.85h-10v8.26H806c2.48,0,3.72,1.15,3.72,3.43a3.13,3.13,0,0,1-1,2.46,4,4,0,0,1-2.77.86h-7.86v8.16H806a4.35,4.35,0,0,1,2.41.6,4.78,4.78,0,0,1-.4-2.11q0-1.81,2.92-4.13,13.7-10.78,18.63-25c.87-2.35,2.34-3.52,4.43-3.52,2.49,0,3.73.9,3.73,2.72l-.4,1.51Q847.66,67,860.05,73.58q3.27,1.65,3.27,4.36Zm-74.93,44.52.1.9c0,1.89-1.07,2.82-3.22,2.82q-2.82,0-3.32-6.64l-.91-8.46c-.2-1.68.67-2.52,2.62-2.52a2.55,2.55,0,0,1,2.06,1.06,5.51,5.51,0,0,1,1.06,3Zm3.12-64.36h-6.64c-2,0-2.92.95-2.92,2.82v5.44h9.56Zm0,23.17V73.11H782v8.16Zm0,6.75H782v5.84c0,1.68,1,2.58,2.92,2.72h6.64Zm0,33.73-2.92-11.88a1.59,1.59,0,0,1,.61-1.66,3.38,3.38,0,0,1,2.21-.66q2.12,0,3.63,5.24l2,7.75a2.49,2.49,0,0,1-2.11,2.82,2.81,2.81,0,0,1-.71,0,2.92,2.92,0,0,1-2.71-1.61Zm39.89,7.56a4.56,4.56,0,0,1-2.72-1.41l-4.54-4.54-.2-.1q-6,13.2-10.77,13.2c-2.35,0-3.53-1.15-3.53-3.43a2.94,2.94,0,0,1,.76-1.71c.5-.67,1.32-1.65,2.46-2.92a32,32,0,0,0,7.76-15.4,8.11,8.11,0,0,1-5.39-1.91q-1.76-1.71-1.76-5.24V93.55q0-7.14,7.15-7.15h6.14a6.38,6.38,0,0,1,7.15,5.5,6.51,6.51,0,0,1,0,1.65v12.29q0,7.16-6.95,7l-1,4.73q8.85,5.45,8.86,8.26,0,3.49-3.42,3.48ZM820,103.83a2.2,2.2,0,0,0,2,2.4,1.69,1.69,0,0,0,.32,0H825c1.54,0,2.32-.8,2.32-2.41V95.57a2.2,2.2,0,0,0-1.85-2.5,2.47,2.47,0,0,0-.47,0h-2.72c-1.54,0-2.32.84-2.32,2.52Zm24.68-30.32a9,9,0,0,1,1.71.2A72.26,72.26,0,0,1,834.21,57.9a97,97,0,0,1-10.77,16,5.23,5.23,0,0,1,2.31-.41ZM862,133.64c0,2.55-1.38,3.83-4.13,3.82q-2.11,0-9.16-8.56l-2.92-3Q838.79,138,834.1,138q-3.52,0-3.52-3.63,0-1.81,2.52-3.72a27.17,27.17,0,0,0,10.47-17.73c-4.36-.06-6.54-2.42-6.54-7V93.55q0-7.14,6.94-7.15h7q7.15,0,7.15,7.15v12.29q0,7.16-7.15,7.15h-1.1a54.59,54.59,0,0,1-1.51,7.05Q862,129.42,862,133.64Zm-18.53-29.81c0,1.47.84,2.28,2.52,2.41h2.92a2.13,2.13,0,0,0,2.42-1.8,2.08,2.08,0,0,0,0-.61V95.57a2.3,2.3,0,0,0-2.09-2.51,1.82,1.82,0,0,0-.33,0H846q-2.32,0-2.52,2.52Z"/><rect class="a8d110ca-258e-4eaa-ba54-b0bf064464f4" width="1000" height="200"/><path class="a723445c-7109-4599-8934-c8828f325f35" d="M145.89,113.29V58.48a24,24,0,1,0-48.08,0v83a19.67,19.67,0,0,1-39.33.89c0-.3,0-.59,0-.89V86.71A15.3,15.3,0,0,0,71.59,71.59v-24a2.19,2.19,0,0,0-2.18-2.19H67.22V36.63A2.19,2.19,0,0,0,65,34.44H47.56a2.19,2.19,0,0,0-2.19,2.19v8.74H43.19A2.19,2.19,0,0,0,41,47.56h0v24A15.3,15.3,0,0,0,54.11,86.71v54.81a24,24,0,1,0,48.08,0v-83a19.67,19.67,0,1,1,39.33-.89c0,.3,0,.59,0,.89v54.81a15.3,15.3,0,0,0-13.11,15.12v24a2.19,2.19,0,0,0,2.18,2.19h2.19v8.74a2.19,2.19,0,0,0,2.18,2.19h17.48a2.19,2.19,0,0,0,2.19-2.19h0v-8.74h2.18a2.19,2.19,0,0,0,2.19-2.19h0v-24A15.3,15.3,0,0,0,145.89,113.29ZM49.74,38.81H62.85v6.56H49.74ZM45.37,71.59V49.74H67.22V71.59a10.93,10.93,0,1,1-21.85.66Q45.36,71.92,45.37,71.59Zm104.89,89.6H137.15v-6.56h13.11Zm4.37-10.93H132.78V128.41a10.93,10.93,0,1,1,21.85-.66q0,.33,0,.66Z"/></svg>