<svg id="fcb9691c-05a3-477b-8ad7-d3e046646070" data-name="圖層 1" xmlns="http://www.w3.org/2000/svg" viewBox="0 0 1500 200"><defs><style>.b9e98c01-9425-4d94-8997-0c07b63b2c7a{fill:none;}.a4f5ea22-338c-4cfe-adf3-b8688120c0d5,.e7cc633e-7b8b-4c98-9ed2-119b45e8997b{fill:#2c3e50;}.a4f5ea22-338c-4cfe-adf3-b8688120c0d5{stroke:#2c3e50;stroke-miterlimit:10;stroke-width:2.5px;}</style></defs><rect class="b9e98c01-9425-4d94-8997-0c07b63b2c7a" width="1500" height="200"/><rect class="b9e98c01-9425-4d94-8997-0c07b63b2c7a" width="1500" height="200"/><path class="e7cc633e-7b8b-4c98-9ed2-119b45e8997b" d="M301.61,129.21c1.45.94,2.17,1.87,2.17,2.82,0,2.41-1.24,3.61-3.73,3.62q-1.31,0-5.64-2.32l-4.63-2.11q-4.23,3-12.59,5.44a52.75,52.75,0,0,1-14.6,2.31q-4.53,0-4.53-3.52c0-2.15,2.35-3.32,7.05-3.53q10.17-.39,16.81-3.62l-11.38-3a13.31,13.31,0,0,1-4.48-1.92,3.31,3.31,0,0,1-1.46-2.71c0-.88.61-2.25,1.82-4.13l1.3-2.12h-8.66c-2.35,0-3.53-1.07-3.52-3.22s1.18-3.19,3.52-3.12h12.09l2.62-4.94H269c-2.68,0-4.7-.45-6-1.36a5.21,5.21,0,0,1-2.11-4.48V91.54q0-6.65,8.15-6.14h10.58V81.47h-9.77c-2.89,0-5-.64-6.34-1.91s-1.87-3.32-1.62-6.15V70.09h-3.32c-2.22,0-3.32-1-3.32-3.12s1.1-2.92,3.32-2.92h3.32V61.13c0-2.89.62-5,1.87-6.35s3.27-1.91,6.09-1.71h9.77V50.65q0-3.72,3.52-3.72c2.35,0,3.52,1.24,3.53,3.72v2.42H297c2.89,0,5,.64,6.35,1.91s1.94,3.33,1.81,6.15v2.92h2.62q3.42,0,3.42,3a2.8,2.8,0,0,1-.9,2.26,3.86,3.86,0,0,1-2.52.76h-2.62v3.32c0,2.89-.67,5-2,6.35s-3.37,1.91-6.19,1.71H286.66v4H298a10.37,10.37,0,0,1,5.89,1.36A5.27,5.27,0,0,1,306,91.24V97q0,6.65-7.95,6.14H281.12l-2.32,4.94h29.51q3.53,0,3.53,3.22t-3.53,3.12h-8.16a32.13,32.13,0,0,1-5.23,11.78A34.34,34.34,0,0,1,301.61,129.21Zm-33-32.58a2.42,2.42,0,0,0,1.71.55h9.27V91.34h-9.27a2.13,2.13,0,0,0-1.76.7,4.26,4.26,0,0,0-.55,2.52,2.77,2.77,0,0,0,.62,2.07Zm.3-32.58h10.68V59.11h-8.26c-1.48,0-2.28.81-2.42,2.42Zm10.68,11.38V70.09H268.93V73a2.2,2.2,0,0,0,2,2.42h0a1.77,1.77,0,0,0,.46,0Zm13.19,39h-17.4l-.71,1.11c-.13.27-.45.79-.95,1.56a3.66,3.66,0,0,0-.76,1.66c0,.88.81,1.48,2.42,1.81L288.07,124a20.4,20.4,0,0,0,4.73-9.6Zm-6.14-50.35h11.28V61.53a2.4,2.4,0,0,0-.56-1.76,2.92,2.92,0,0,0-1.86-.66h-8.86Zm0,11.38h8.86a2.14,2.14,0,0,0,2.44-1.79,1.89,1.89,0,0,0,0-.67V70.09H286.66Zm0,21.75h9.87a2.16,2.16,0,0,0,1.71-.6,5.61,5.61,0,0,0,0-4.64,2.16,2.16,0,0,0-1.71-.6h-9.87ZM347.49,134c0,3-1.35,4.43-4,4.43q-5.44,0-16.72-13.59a51.19,51.19,0,0,1-10.17,9.66q-6,4.23-8.46,4.23a3.91,3.91,0,0,1-2.92-1,4.17,4.17,0,0,1-.91-3c0-1.75,1.55-3.39,4.64-4.94a36.54,36.54,0,0,0,13.39-11.38q-2.71-5.13-4.73-14.6a171.81,171.81,0,0,1-3-21.65q-3.62,7.14-5.84,7.15c-2.21,0-3.32-1.35-3.32-4A8.82,8.82,0,0,1,307,81.57q6.24-9.76,10.38-26.69c.87-3.62,1.5-5.7,1.91-6.24a3.69,3.69,0,0,1,3.12-1.31c2.68,0,4,1.11,4,3.32q0,2.82-5.14,16.32h22.46c2.55,0,3.82,1.33,3.83,4s-1.27,4-3.83,4h-3.52l-.31,6.15a145.8,145.8,0,0,1-2.41,21.35,55.35,55.35,0,0,1-6.45,16,55.44,55.44,0,0,0,12,10.13C346,130.41,347.49,132.23,347.49,134ZM332.78,76.6l.1-1.62H320.19l.51,8.46q1,17.63,5.84,28.1,5.23-10.73,6.24-34.9Z"/><path class="e7cc633e-7b8b-4c98-9ed2-119b45e8997b" d="M371.86,134.34V86.61l-.2.6-.81,1.41q-6.35,11.09-8.46,11.08c-2.42,0-3.62-1.51-3.62-4.53,0-1,1.1-3.33,3.32-7A163.85,163.85,0,0,0,378.5,52.36a10.08,10.08,0,0,1,1.92-3.72A3.43,3.43,0,0,1,383,47.43c3.15,0,4.72,1.28,4.73,3.83q0,2-2.17,7.4a131.46,131.46,0,0,1-5.79,12.24v63.44c0,3.22-1.34,4.84-4,4.84S371.86,137.56,371.86,134.34Zm11.78-4.13c0-2.68,1.48-4,4.43-4h33.34q2.71-11.07,4.38-18.63t3-15.1a22.87,22.87,0,0,0,.4-2.72,72.8,72.8,0,0,1,1.51-7.45c.54-1.48,1.78-2.22,3.73-2.22a4.42,4.42,0,0,1,3.37,1.21,3.88,3.88,0,0,1,1,3.22l-.4,2.32a346,346,0,0,1-9,37.86l-.5,1.51h17c3,0,4.53,1.35,4.53,4s-1.51,4-4.53,4H388.07c-2.95,0-4.42-1.31-4.43-4Zm1.71-59.92q0-3.93,4.43-3.93h21.86V53.47c0-3.62,1.41-5.44,4.23-5.44s4.23,1.82,4.23,5.44V66.36h24.07q4.53,0,4.53,3.93t-4.53,4H389.78c-2.95,0-4.42-1.31-4.43-4Zm14.3,47L392.81,85.5A3.59,3.59,0,0,1,396,81.56a3.48,3.48,0,0,1,.79,0,3.76,3.76,0,0,1,3.73,2.92,110.14,110.14,0,0,1,3.12,11.28l3.73,17.42a19.43,19.43,0,0,1,.5,3.13c0,2.75-1.44,4.13-4.33,4.12a3.82,3.82,0,0,1-3.91-3.12Z"/><path class="e7cc633e-7b8b-4c98-9ed2-119b45e8997b" d="M467.94,87.51c-2.56,0-3.83-1.44-3.83-4.33V70.9q0-4.64,2.11-6.75c1.41-1.41,3.62-2.05,6.65-1.92h31.52V57.5H473.68q-4,0-4-3.62t4-3.53h69.18c2.76,0,4.13,1.18,4.13,3.53s-1.37,3.62-4.13,3.62H511.64v4.73h32.13q4.72,0,6.9,2.07c1.44,1.38,2.06,3.57,1.86,6.6V82.78q0,4.13-3.93,4.13t-3.82-4.13v-10a3.87,3.87,0,0,0-1-2.92,4.53,4.53,0,0,0-3-1H511.64V87.21q0,3.63-3.62,3.63a3.1,3.1,0,0,1-3.63-2.48,3.18,3.18,0,0,1,0-1.15V68.88h-28.7a3.68,3.68,0,0,0-2.82,1,4.59,4.59,0,0,0-1,3v10.3Q471.86,87.51,467.94,87.51Zm86.4,37.37q0,7.14-3.32,9.87t-22.56,2.71l-14.4-.3q-7-.1-8.76-2.31a7.1,7.1,0,0,1-1.41-4.64v-5.64h-25c-2.95,0-5.09-.67-6.44-2s-1.91-3.4-1.72-6.19V101.31q0-4.34,1.92-6.29c1.27-1.31,3.36-1.93,6.24-1.87h58.62q4.43,0,6.44,2c1.34,1.3,1.91,3.37,1.71,6.19v15.11q0,4.42-1.91,6.39t-6.24,1.76H511.24v2.32q0,2.62,1.41,3a46.84,46.84,0,0,0,6.8.5q5.68.21,14.95.21c5,0,8.2-.33,9.67-1,1.21-.61,1.92-2.18,2.12-4.73s1.61-3.93,4.23-3.93S554.34,122.26,554.34,124.88ZM500.77,75.93a2.69,2.69,0,0,1-.91,2.17,3.8,3.8,0,0,1-2.52.75H478.71c-2.21,0-3.31-1-3.32-2.92s1.1-3,3.32-3h18.63C499.62,72.91,500.77,73.92,500.77,75.93Zm-3.43,6.85c2.28,0,3.43,1,3.43,3a2.69,2.69,0,0,1-.91,2.17,3.8,3.8,0,0,1-2.52.75H478.71c-2.21,0-3.31-1-3.32-2.92s1.1-3,3.32-3Zm6.55,16.82H481.33q-2.82,0-2.82,3v2.92h25.38Zm0,12.08H478.51v3.53c0,2,.94,2.92,2.82,2.92h22.56Zm7.35-6.14h26.69v-2.92q0-3-2.82-3H511.24Zm0,12.59h23.87c1.88,0,2.82-1,2.82-2.92v-3.53H511.24Zm30-42.2q0,2.92-3.42,2.92H518.49A3.84,3.84,0,0,1,516,78.1a2.68,2.68,0,0,1-.9-2.17q0-3,3.42-3h19.34q3.39,0,3.39,3Zm-3.42,6.85q3.42,0,3.42,3t-3.42,2.92H518.49A3.86,3.86,0,0,1,516,88a2.68,2.68,0,0,1-.9-2.17q0-3,3.42-3Z"/><path class="e7cc633e-7b8b-4c98-9ed2-119b45e8997b" d="M564.92,131.72q0-3,5-4.23V93.66q0-4,3.53-4c2.35,0,3.53,1.33,3.52,4V126l4.94-1.1,1.31-.41V83.18h-5.94q-8,0-8-8V59q0-7.95,8-8h14.8q7.95,0,8,8V75.23q0,7.84-7.76,8H590.5V96.37h5c3,0,4.54,1.25,4.54,3.73s-1.52,3.83-4.54,3.83h-5v18.73l8.16-2.22,1.81-.4q3.22,0,3.22,3.73c0,1.88-1.27,3.22-3.83,4q-25.87,8.05-30.91,8C566.26,135.85,564.92,134.48,564.92,131.72ZM592.61,73V61.23c0-1.82-1-2.79-2.92-2.92h-10a2.81,2.81,0,0,0-2.06.75,3.29,3.29,0,0,0-.86,2.17V73a2.76,2.76,0,0,0,.76,2.06,3.27,3.27,0,0,0,2.16.86h10C591.5,75.93,592.48,75,592.61,73Zm9.22,31a4.75,4.75,0,0,1-.76-3,4,4,0,0,1,1-2.62,6,6,0,0,1,3-1.81,57.57,57.57,0,0,0,18.43-11v-.2a45.1,45.1,0,0,1-8.66-14.91h-.2Q608.52,82.07,605,82.07t-3.52-3.52a3.81,3.81,0,0,1,.6-1.76c.4-.71,1.07-1.73,2-3.08a91.66,91.66,0,0,0,11.69-23c.73-2.21,2-3.32,3.82-3.32,2.55,0,3.83,1.18,3.83,3.52,0,.74-.7,2.66-2.11,5.74h20.74c3,0,5.14.46,6.55,1.36a4.62,4.62,0,0,1,2.11,4.18q0,2.43-4.83,9.67a90.47,90.47,0,0,1-11.38,13.7l-.3.3a55.38,55.38,0,0,0,17.32,8.76c3.56,1,5.34,2.63,5.34,4.84q0,4.23-3.93,4.23-3.33,0-10.78-4a72.41,72.41,0,0,1-13.29-9.07h-.2a100,100,0,0,1-14.2,9.87q-7.76,4.44-10.18,4.44a2.93,2.93,0,0,1-2.45-.93Zm6.09,22.91V111.38q-.7-9.87,9.06-9.06h24.38q9.87-.81,9.06,9.06v15.51q.81,9.87-9.06,9.06H617q-9.78.81-9.08-9.06Zm34.85-1.31V112.69q0-3.42-3.33-3.32H618.7c-2.29,0-3.39,1.1-3.33,3.32v12.89q0,3.33,3.33,3.22h20.74q3.42,0,3.33-3.22Zm-5.44-54c2.62-3.29,3.93-5.5,3.93-6.65,0-.8-.51-1.21-1.51-1.21H619.4a39.54,39.54,0,0,0,9.27,17.13h.2a101.72,101.72,0,0,0,8.46-9.27Z"/><path class="e7cc633e-7b8b-4c98-9ed2-119b45e8997b" d="M719.41,135.35q0-4,4.63-4h5.74q3.33,0,3.52-3.52v-6.65H672.78c-2.69,0-4-1.17-4-3.53s1.34-3.52,4-3.52H733.3V109.2h-3.52q-20.34,0-28.6-1.52a22.25,22.25,0,0,1-12.89-7.45q-6.64,4.83-10.28,7c-2.43,1.45-4.24,2.15-5.43,2.12a3.53,3.53,0,0,1-2.62-1.16,4,4,0,0,1-1.11-2.87,2.85,2.85,0,0,1,.55-1.87A11.58,11.58,0,0,1,671,102a60.51,60.51,0,0,1,6.24-3.12q5.75-2.72,6.85-3.32V89.12a3.06,3.06,0,0,0-2.66-3.4h0a2.62,2.62,0,0,0-.56,0h-7.35Q669,85.7,669,82c0-2.47,1.51-3.67,4.53-3.62h10q4.34,0,6.3,2c1.31,1.31,1.93,3.38,1.86,6.19v8a14.19,14.19,0,0,0,6.65,5.24q7,2.93,18.83,2.92l32.63-.1,6.65-.2q3.72-.11,3.72,3.42c0,2.35-1.84,3.53-5.54,3.53H741.16v4.83h14.2q4.13,0,4.13,3.52c0,2.36-1.38,3.53-4.13,3.53h-14.2v9q0,4.94-2.22,7.2c-1.48,1.51-3.83,2.17-7.05,2H724Q719.41,139.28,719.41,135.35ZM683,72.71l-2.42-1.11a52.72,52.72,0,0,0-4.83-2.22,3.82,3.82,0,0,1-2.39-4.84,3.74,3.74,0,0,1,.63-1.16,3,3,0,0,1,2.26-.9q2.22,0,7.56,2.51a26.2,26.2,0,0,1,4.58,2.67,3.2,3.2,0,0,1,1.46,2.47,4.18,4.18,0,0,1-.76,2.67,2.37,2.37,0,0,1-2,1A10.46,10.46,0,0,1,683,72.71Zm2.92-14.3q-1.21-.81-5.64-3.12c-2.22-1.08-3.32-2.35-3.32-3.83a3.59,3.59,0,0,1,1-2.52,2.92,2.92,0,0,1,2.17-1q1.82,0,7.35,2.72c3.69,1.82,5.54,3.66,5.54,5.54q0,3.73-3.42,3.73a7.49,7.49,0,0,1-3.73-1.52Zm8.36,72.71L692,128.7a15.49,15.49,0,0,1-1.61-2,3.22,3.22,0,0,1-.5-1.71,3.44,3.44,0,0,1,3.26-3.17,6.29,6.29,0,0,1,3.12,1,21.59,21.59,0,0,1,4,3.32c3,2.82,4.43,5,4.43,6.65,0,2.55-1.31,3.82-3.92,3.83q-2,0-6.55-5.5Zm8.21-34.34c-1.31-1.28-1.9-3.29-1.77-6V73.31q0-4.23,1.92-6.19c1.27-1.31,3.29-1.9,6-1.76h11.58l.81-3.93H697.65q-3.52,0-3.52-2.92t3.52-3h13.2a40.56,40.56,0,0,1-2.32-3.63,4.8,4.8,0,0,1-.7-2.11,2,2,0,0,1,.85-1.72,4.19,4.19,0,0,1,2.47-.6,5.14,5.14,0,0,1,3.47,2,37.1,37.1,0,0,1,4.38,6.1h13.2l2.72-4.84A10.36,10.36,0,0,1,737,48a3.72,3.72,0,0,1,2.47-.9,5.85,5.85,0,0,1,3.12.7,2.11,2.11,0,0,1,1.11,1.82,4.42,4.42,0,0,1-.71,2.11,40.29,40.29,0,0,1-2.62,3.73h15.31c2.28,0,3.43,1,3.43,3s-1.15,2.92-3.43,2.92h-26.3l-1.61,3.93h17.72q4.23,0,6.14,1.91c1.28,1.28,1.88,3.29,1.82,6V90.43q0,8.67-8,8.26H708.63q-4.23,0-6.19-1.91Zm43.25-23.17a2.54,2.54,0,0,0-2.22-2.81h-32.4c-1.81,0-2.72,1-2.72,2.82v1.51h37.36Zm0,10.38V79.86H708.33V84Zm0,6.44V88.72H708.33v1.71a2.4,2.4,0,0,0,2,2.72,2.66,2.66,0,0,0,.69,0h32c1.77,0,2.64-.9,2.64-2.72Z"/><path class="e7cc633e-7b8b-4c98-9ed2-119b45e8997b" d="M775.4,72.71c-2.95,0-4.42-1.28-4.43-3.83s1.47-3.83,4.43-3.83h25.38q4.43,0,4.43,3.83t-4.43,3.83Zm-1.51-17.42c0-2.56,1.51-3.83,4.53-3.83h19c3,0,4.43,1.27,4.43,3.83s-1.48,3.82-4.43,3.82h-19Q773.89,59.11,773.89,55.29Zm89.23,25.78A4.59,4.59,0,0,1,862,84.39a4.28,4.28,0,0,1-3.27,1.21q-3,0-11.69-7.76a3,3,0,0,1,.41,1.51c0,2.42-1.45,3.63-4.33,3.63h-24c-2.76,0-4.13-1.21-4.13-3.63a2.91,2.91,0,0,1,.4-1.41q-3.35,3.38-7,6.4c-1.74,1.38-3,2.06-3.92,2.06q-2.43,0-3.43-2.71c-.47,1.41-1.81,2.14-4,2.21H778.62q-4.23,0-4.23-3.62c0-2.41,1.41-3.66,4.23-3.73H797a5.1,5.1,0,0,1,2.62.65,3.41,3.41,0,0,1,1.46,1.8,7,7,0,0,1,1.46-1.62c.71-.6,1.19-1,1.46-1.2q11.88-9.78,22.16-28A7.28,7.28,0,0,1,828,48a4,4,0,0,1,2.32-.65q4.23,0,4.23,3.22a3.33,3.33,0,0,1-.41,1.41q11.08,17.22,26.09,25C862.14,77.94,863.12,79.32,863.12,81.07Zm-61.84,14.6a3.38,3.38,0,0,1-1.11,2.67,4.73,4.73,0,0,1-3.22,1H778.62c-2.82,0-4.23-1.2-4.23-3.62S775.8,92,778.62,92H797c2.84,0,4.28,1.2,4.28,3.68Zm-1.81,11.68c1.34,1.28,1.91,3.32,1.71,6.15V127q0,4.42-2,6.45t-6.3,1.71H782.65q-4.53,0-6.54-2c-1.35-1.3-1.88-3.37-1.62-6.19V113.5q0-4.44,1.92-6.4t6.24-1.66h10.27C796,105.44,798.14,106.08,799.47,107.35Zm-5.74,18.83V114.4c0-1.61-.77-2.38-2.32-2.32h-7.15a2.73,2.73,0,0,0-1.91.56,2,2,0,0,0-.5,1.76v11.78a2,2,0,0,0,2.41,2.32h7.15C793,128.5,793.8,127.73,793.73,126.18Zm64.15-28.6v31.53q0,4.72-2.06,7.15c-1.37,1.62-3.51,2.42-6.4,2.41H846.3q-3.42,0-3.42-3.82t3.42-3.73h1.51q2.52,0,2.52-3V115.51H842v18.33a3.74,3.74,0,0,1-.91,2.67,3.45,3.45,0,0,1-2.62,1,3.28,3.28,0,0,1-2.51-1,3.74,3.74,0,0,1-.91-2.67V115.51H827.4v18.33c0,2.42-1.18,3.62-3.53,3.62a3.35,3.35,0,0,1-2.52-1,3.73,3.73,0,0,1-.9-2.67V115.51h-7.76V135a4.36,4.36,0,0,1-1,3,3.69,3.69,0,0,1-2.87,1.05A3.53,3.53,0,0,1,806.1,138a4.32,4.32,0,0,1-1-3V97.48q0-8.16,8.46-8.16h35.85Q857.89,89.32,857.88,97.58Zm-37.46-1.31h-5.14c-1.74,0-2.62.94-2.62,2.82v9.77h7.76Zm24.87-20a92.71,92.71,0,0,1-14.6-17.62l-.2-.3-1.31,2.11a105.36,105.36,0,0,1-12.09,15.81l1.41-.3h24.58ZM835,108.86V96.27h-7.65v12.59Zm15.31-9.67a3.12,3.12,0,0,0-.66-2.26,2.91,2.91,0,0,0-2.16-.66H842v12.59h8.36Z"/><rect class="b9e98c01-9425-4d94-8997-0c07b63b2c7a" width="1000" height="200"/><path class="a4f5ea22-338c-4cfe-adf3-b8688120c0d5" d="M145.89,113.29V58.48a24,24,0,1,0-48.08,0v83a19.67,19.67,0,0,1-39.33.89V86.71A15.3,15.3,0,0,0,71.59,71.59v-24a2.19,2.19,0,0,0-2.18-2.19H67.22V36.63A2.19,2.19,0,0,0,65,34.44H47.56a2.19,2.19,0,0,0-2.19,2.19v8.74H43.19A2.19,2.19,0,0,0,41,47.56h0v24A15.3,15.3,0,0,0,54.11,86.71v54.81a24,24,0,1,0,48.08,0v-83a19.67,19.67,0,1,1,39.33-.89h0v55.7a15.3,15.3,0,0,0-13.11,15.12v24a2.19,2.19,0,0,0,2.18,2.19h2.19v8.74a2.19,2.19,0,0,0,2.18,2.19h17.48a2.19,2.19,0,0,0,2.19-2.19h0v-8.74h2.18a2.19,2.19,0,0,0,2.19-2.19h0v-24A15.3,15.3,0,0,0,145.89,113.29ZM49.74,38.81H62.85v6.56H49.74ZM45.37,71.59V49.74H67.22V71.59a10.93,10.93,0,0,1-21.85.7v0Q45.36,71.92,45.37,71.59Zm104.89,89.6H137.15v-6.56h13.11Zm4.37-10.93H132.78V128.41a10.93,10.93,0,0,1,21.85-.7v22.55Z"/></svg>