<svg id="b5ce40ea-1694-4685-ba64-7ff3590ac2a1" data-name="圖層 1" xmlns="http://www.w3.org/2000/svg" viewBox="0 0 1500 200"><defs><style>.a9fb5016-7d6e-4fcf-9802-5376970d8f8a{fill:none;}.be837c3f-6ce2-4a09-807a-73843220932d,.ea30137d-1caf-4a8b-8301-6c0f0b38853a{fill:#2c3e50;}.ea30137d-1caf-4a8b-8301-6c0f0b38853a{stroke:#2c3e50;stroke-miterlimit:10;stroke-width:2.5px;}</style></defs><rect class="a9fb5016-7d6e-4fcf-9802-5376970d8f8a" width="1500" height="200"/><path class="be837c3f-6ce2-4a09-807a-73843220932d" d="M301.61,129.21c1.45.94,2.17,1.87,2.17,2.82,0,2.41-1.24,3.61-3.73,3.62q-1.31,0-5.64-2.32l-4.63-2.11q-4.23,3-12.59,5.44a52.75,52.75,0,0,1-14.6,2.31q-4.53,0-4.53-3.52c0-2.15,2.35-3.32,7.05-3.53q10.17-.39,16.81-3.62l-11.38-3a13.31,13.31,0,0,1-4.48-1.92,3.31,3.31,0,0,1-1.46-2.71c0-.88.61-2.25,1.82-4.13l1.3-2.12h-8.66c-2.35,0-3.53-1.07-3.52-3.22s1.18-3.19,3.52-3.12h12.09l2.62-4.94H269c-2.68,0-4.7-.45-6-1.36a5.21,5.21,0,0,1-2.11-4.48V91.54q0-6.65,8.15-6.14h10.58V81.47h-9.77q-4.34,0-6.34-1.91t-1.62-6.15V70.09h-3.32c-2.22,0-3.32-1-3.32-3.12s1.1-2.92,3.32-2.92h3.32V61.13c0-2.89.62-5,1.87-6.35s3.27-1.91,6.09-1.71h9.77V50.65q0-3.72,3.52-3.72c2.35,0,3.52,1.24,3.53,3.72v2.42H297c2.89,0,5,.64,6.35,1.91s1.94,3.33,1.81,6.15v2.92h2.62q3.42,0,3.42,3a2.79,2.79,0,0,1-.9,2.26,3.86,3.86,0,0,1-2.52.76h-2.62v3.32q0,4.33-2,6.35c-1.3,1.34-3.37,1.91-6.19,1.71H286.66v4H298a10.37,10.37,0,0,1,5.89,1.36A5.25,5.25,0,0,1,306,91.24V97q0,6.65-7.95,6.14H281.12l-2.32,4.94h29.51q3.53,0,3.53,3.22t-3.53,3.12h-8.16a32.13,32.13,0,0,1-5.23,11.78A34.07,34.07,0,0,1,301.61,129.21Zm-33-32.58a2.42,2.42,0,0,0,1.71.55h9.27V91.34h-9.27a2.13,2.13,0,0,0-1.76.7,4.26,4.26,0,0,0-.55,2.52,2.77,2.77,0,0,0,.62,2.07Zm.3-32.58h10.68V59.11h-8.26c-1.48,0-2.28.81-2.42,2.42Zm10.68,11.38V70.09H268.93V73a2.2,2.2,0,0,0,2,2.42,1.77,1.77,0,0,0,.46,0Zm13.19,39h-17.4l-.71,1.11c-.13.27-.45.79-.95,1.56a3.66,3.66,0,0,0-.76,1.66c0,.88.81,1.48,2.42,1.81L288.07,124a20.4,20.4,0,0,0,4.73-9.6Zm-6.14-50.35h11.28V61.53a2.4,2.4,0,0,0-.56-1.76,2.92,2.92,0,0,0-1.86-.66h-8.86Zm0,11.38h8.86a2.14,2.14,0,0,0,2.44-1.79,1.89,1.89,0,0,0,0-.67V70.09H286.66Zm0,21.75h9.87a2.16,2.16,0,0,0,1.71-.6,5.61,5.61,0,0,0,0-4.64,2.16,2.16,0,0,0-1.71-.6h-9.87ZM347.49,134c0,3-1.35,4.43-4,4.43q-5.44,0-16.72-13.59a51.19,51.19,0,0,1-10.17,9.66q-6,4.23-8.46,4.23a3.91,3.91,0,0,1-2.92-1,4.17,4.17,0,0,1-.91-3c0-1.75,1.55-3.39,4.64-4.94a36.54,36.54,0,0,0,13.39-11.38q-2.71-5.13-4.73-14.6a171.81,171.81,0,0,1-3-21.65q-3.62,7.14-5.84,7.15c-2.21,0-3.32-1.35-3.32-4A8.82,8.82,0,0,1,307,81.57q6.24-9.76,10.38-26.69c.87-3.62,1.5-5.7,1.91-6.24a3.69,3.69,0,0,1,3.12-1.31c2.68,0,4,1.11,4,3.32q0,2.82-5.14,16.32h22.46q3.82,0,3.83,4t-3.83,4h-3.52l-.31,6.15a145.8,145.8,0,0,1-2.41,21.35,55.35,55.35,0,0,1-6.45,16,55.5,55.5,0,0,0,12,10.13C346,130.41,347.49,132.23,347.49,134ZM332.78,76.6l.1-1.62H320.19l.51,8.46q1,17.63,5.84,28.1,5.23-10.73,6.24-34.9Z"/><path class="be837c3f-6ce2-4a09-807a-73843220932d" d="M371.86,134.34V86.61l-.2.6-.81,1.41q-6.35,11.09-8.46,11.08c-2.42,0-3.62-1.51-3.62-4.53,0-1,1.1-3.33,3.32-7A163.85,163.85,0,0,0,378.5,52.36a10.08,10.08,0,0,1,1.92-3.72A3.43,3.43,0,0,1,383,47.43c3.15,0,4.72,1.28,4.73,3.83q0,2-2.17,7.4a131.46,131.46,0,0,1-5.79,12.24v63.44c0,3.22-1.34,4.84-4,4.84S371.86,137.56,371.86,134.34Zm11.78-4.13c0-2.68,1.48-4,4.43-4h33.34q2.71-11.07,4.38-18.63t3-15.1a22.87,22.87,0,0,0,.4-2.72,72.8,72.8,0,0,1,1.51-7.45c.54-1.48,1.78-2.22,3.73-2.22a4.42,4.42,0,0,1,3.37,1.21,3.88,3.88,0,0,1,1,3.22l-.4,2.32a346,346,0,0,1-9,37.86l-.5,1.51h17c3,0,4.53,1.35,4.53,4s-1.51,4-4.53,4H388.07c-2.95,0-4.42-1.31-4.43-4Zm1.71-59.92q0-3.93,4.43-3.93h21.86V53.47c0-3.62,1.41-5.44,4.23-5.44s4.23,1.82,4.23,5.44V66.36h24.07q4.53,0,4.53,3.93t-4.53,4H389.78c-2.95,0-4.42-1.31-4.43-4Zm14.3,47L392.81,85.5A3.59,3.59,0,0,1,396,81.56a4.17,4.17,0,0,1,.79,0,3.76,3.76,0,0,1,3.73,2.92,110.14,110.14,0,0,1,3.12,11.28l3.73,17.42a19.43,19.43,0,0,1,.5,3.13c0,2.75-1.44,4.13-4.33,4.12a3.82,3.82,0,0,1-3.91-3.12Z"/><path class="be837c3f-6ce2-4a09-807a-73843220932d" d="M510.54,104.33v29.91c0,3.16-1.38,4.73-4.13,4.73a4.12,4.12,0,0,1-3.18-1.15,5.23,5.23,0,0,1-1.05-3.58v-29.3q-22.67,1.41-35.35,1.81c-2.62.07-3.93-1.38-3.93-4.33a3.53,3.53,0,0,1,1.91-3.53q1.41-.7,10.88-.7,8.76,0,17-.51L497.44,93l.61-.3A183.72,183.72,0,0,0,477.4,79.46c-4.16-2.15-6.24-4-6.24-5.44a4,4,0,0,1,1.06-3,4.75,4.75,0,0,1,3.37-1,7.26,7.26,0,0,1,3.62,1.41l4.44,2.42,3.22,1.91,10.27-14.5-11.68,1-16,.71c-2.67.07-4-1.3-4-4.13,0-2.62,2-3.93,6.14-3.93h4.63q36.76-1.41,57.21-6a38.86,38.86,0,0,1,6.24-1.21c3.09,0,4.63,1.55,4.63,4.63A3.49,3.49,0,0,1,542,55.49a21,21,0,0,1-4.28,1c-2.12.37-4.55.75-7.3,1.16q-12,1.71-23.37,2.72l-14.6,19,1.31.7,9.56,6.65q7.67-8.27,13.8-16.12,5.83-7.35,8.26-7.35,4.64,0,4.63,4.13,0,1.92-6.85,9.67a253.11,253.11,0,0,1-19.53,19.23l-1.21,1.21q18.23-.49,34.24-1.61l-.81-.8-4.73-5.24c-1.54-1.68-2.32-3-2.32-3.93,0-2.21,1-3.31,3.13-3.32.94,0,2.36.8,4.28,2.42s4.54,4.16,7.9,7.65a78.2,78.2,0,0,1,7,8.21q2.42,3.38,2.42,5c0,2.49-1.45,3.73-4.33,3.73q-2.12,0-4.94-3.63l-3-4.13Q526.33,103.32,510.54,104.33Zm-22.16,9.77q0,1.41-2.27,4.58a80.94,80.94,0,0,1-6.49,7.71q-8.76,9.36-12.89,9.36a3.68,3.68,0,0,1-2.82-1,4.31,4.31,0,0,1-.91-3.07c0-1.61,1.14-3.18,3.42-4.73a49.73,49.73,0,0,0,12-11.78c2.35-3.16,4.29-4.74,5.84-4.74Q488.39,110.48,488.38,114.1Zm64.25,16.82q0,4.43-4.33,4.43T534.1,126Q524,116.43,524,113.5a3.27,3.27,0,0,1,1-2.57,4.5,4.5,0,0,1,3.07-.86c1.27,0,3.22,1.45,5.84,4.33A58.23,58.23,0,0,0,549,126.49q3.63,1.91,3.63,4.43Z"/><path class="be837c3f-6ce2-4a09-807a-73843220932d" d="M565.67,128.65a3.39,3.39,0,0,1-.95-2.67,9.7,9.7,0,0,1,.9-3.62,45.72,45.72,0,0,0,2.92-16q.11-4.42,3.53-4.43a4.2,4.2,0,0,1,2.77.76,3.13,3.13,0,0,1,.85,2.47l-.1,2.72q-1.5,21.65-7,21.65A4.38,4.38,0,0,1,565.67,128.65Zm14.76,6.4V96.78L568.85,98a3.5,3.5,0,0,1-3-.86,4.29,4.29,0,0,1-1-3.07,3.1,3.1,0,0,1,2.86-3.33h.06l5-.4H574l6.14-9.26a109.06,109.06,0,0,0-12-9.87c-1.81-1.21-2.71-2.49-2.72-3.83,0-2.48,1.21-3.73,3.63-3.73.8,0,2.08.68,3.82,2l.61.4a94.42,94.42,0,0,0,7.15-14.6c1.07-2.75,2.62-4.13,4.63-4.13q3.93,0,3.93,3.73t-10.58,19l5.44,4.63L591.1,62.5a4,4,0,0,1,3.53-2.12q3.82,0,3.82,3.73,0,4.53-16.61,25.78l1.21-.1,9.66-.4.51-.11-1-2.71a8.39,8.39,0,0,1-.5-2.62c0-1.88,1-2.82,2.92-2.82q2,0,4.73,6.75C601.12,92.19,602,95,602,96.17q0,3.43-3.53,3.43a2.64,2.64,0,0,1-2.11-1.16A7.68,7.68,0,0,1,595,95.17l-6.75.8v39.08c0,2.95-1.31,4.42-3.93,4.43s-3.92-1.47-3.89-4.43Zm14.8-10.88-.3-1.41-2.42-17.93a2.22,2.22,0,0,1,.71-2.21,4.36,4.36,0,0,1,2.72-.71q3,0,4.23,6.75,1.91,11,1.91,13.3,0,3.72-3.73,3.72A3.49,3.49,0,0,1,595.23,124.17Zm2.72,9.57c0-1.28.81-2.45,2.42-3.53q13.89-8.55,15.1-34.54l-8.76.6c-2.48.21-3.72-1-3.72-3.72s3.12-3.93,9.36-3.93l.2-.1a178.22,178.22,0,0,0,5.64-19.64v-.6H604.7q-4,0-4-3.63t4-3.52h18.63V52.36c0-3.28,1.31-4.93,3.93-4.93s3.92,1.65,3.92,4.93v8.77h20.55c2.95,0,4.42,1.17,4.43,3.52s-1.47,3.56-4.43,3.63H626.35a105.55,105.55,0,0,1-6.85,19.94l23.06-1.61L639,81.27q-2.22-3.33-2.22-4.23,0-3,3.53-3c1.07,0,2.75,1.47,5,4.43a123.31,123.31,0,0,1,8.46,13.09,26.16,26.16,0,0,1,1.51,2.62,4.61,4.61,0,0,1,.61,1.91q0,3.52-3.83,3.53-2.12,0-4.63-4.43L646,92.45l-7.25.9v31.12q0,3,1.11,3.93c.46.4,1.94.6,4.43.6q3.21,0,3.93-1.2c.67-1.21,1-3.36,1.1-6.45a8.68,8.68,0,0,1,1-4.18,3,3,0,0,1,2.77-1.36q3.72,0,3.72,3.83a33.75,33.75,0,0,1-1.81,12q-1.82,4.63-12.18,4.64-6.15,0-8.36-1.31-2.62-1.51-2.62-6.15V94.16l-8.66.91h-.51l-.2,5.23q-.71,17.13-8.15,27.6-7,10-12.69,10-3.68,0-3.63-4.16Z"/><path class="be837c3f-6ce2-4a09-807a-73843220932d" d="M719.41,135.35q0-4,4.63-4h5.74q3.33,0,3.52-3.52v-6.65H672.78c-2.69,0-4-1.17-4-3.53s1.34-3.52,4-3.52H733.3V109.2h-3.52q-20.34,0-28.6-1.52a22.25,22.25,0,0,1-12.89-7.45q-6.64,4.83-10.28,7c-2.43,1.45-4.24,2.15-5.43,2.12a3.53,3.53,0,0,1-2.62-1.16,4,4,0,0,1-1.11-2.87,2.85,2.85,0,0,1,.55-1.87A12.07,12.07,0,0,1,671,102a60.51,60.51,0,0,1,6.24-3.12q5.74-2.72,6.85-3.32V89.12a3.05,3.05,0,0,0-2.67-3.4,2.63,2.63,0,0,0-.56,0h-7.35Q669,85.7,669,82c0-2.47,1.51-3.67,4.53-3.62h10q4.34,0,6.3,2c1.31,1.31,1.93,3.38,1.86,6.19v8a14.19,14.19,0,0,0,6.65,5.24q7,2.93,18.83,2.92l32.63-.1,6.65-.2q3.72-.11,3.72,3.42c0,2.35-1.84,3.53-5.54,3.53H741.16v4.83h14.2q4.13,0,4.13,3.52c0,2.36-1.38,3.53-4.13,3.53h-14.2v9q0,4.94-2.22,7.2c-1.48,1.51-3.83,2.17-7.05,2H724Q719.41,139.28,719.41,135.35ZM683,72.71l-2.42-1.11a52.72,52.72,0,0,0-4.83-2.22,3.82,3.82,0,0,1-2.39-4.84,3.74,3.74,0,0,1,.63-1.16,3,3,0,0,1,2.26-.9q2.22,0,7.56,2.51a26.2,26.2,0,0,1,4.58,2.67,3.2,3.2,0,0,1,1.46,2.47,4.18,4.18,0,0,1-.76,2.67,2.38,2.38,0,0,1-2,1A10.57,10.57,0,0,1,683,72.71Zm2.92-14.3q-1.21-.81-5.64-3.12c-2.22-1.08-3.32-2.35-3.32-3.83a3.57,3.57,0,0,1,1-2.52,2.92,2.92,0,0,1,2.17-1q1.82,0,7.35,2.72c3.69,1.82,5.54,3.66,5.54,5.54q0,3.73-3.42,3.73a7.49,7.49,0,0,1-3.73-1.52Zm8.36,72.71L692,128.7a15.49,15.49,0,0,1-1.61-2,3.22,3.22,0,0,1-.5-1.71,3,3,0,0,1,1-2.17,3,3,0,0,1,2.26-1,6.29,6.29,0,0,1,3.12,1,21.59,21.59,0,0,1,4,3.32c3,2.82,4.43,5,4.43,6.65,0,2.55-1.31,3.82-3.92,3.83q-2,0-6.55-5.5Zm8.21-34.34c-1.31-1.28-1.9-3.29-1.77-6V73.31q0-4.23,1.92-6.19c1.27-1.31,3.29-1.9,6-1.76h11.58l.81-3.93H697.65q-3.52,0-3.52-2.92t3.52-3h13.2a40.56,40.56,0,0,1-2.32-3.63,4.8,4.8,0,0,1-.7-2.11,2,2,0,0,1,.85-1.72,4.19,4.19,0,0,1,2.47-.6,5.14,5.14,0,0,1,3.47,2,37.1,37.1,0,0,1,4.38,6.1h13.2l2.72-4.84A10.36,10.36,0,0,1,737,48a3.72,3.72,0,0,1,2.47-.9,5.85,5.85,0,0,1,3.12.7,2.11,2.11,0,0,1,1.11,1.82,4.42,4.42,0,0,1-.71,2.11,40.29,40.29,0,0,1-2.62,3.73h15.31c2.28,0,3.43,1,3.43,3s-1.15,2.92-3.43,2.92h-26.3l-1.61,3.93h17.72q4.23,0,6.14,1.91c1.28,1.28,1.88,3.29,1.82,6V90.43q0,8.67-8,8.26H708.63q-4.23,0-6.19-1.91Zm43.25-23.17a2.54,2.54,0,0,0-2.22-2.81,2.67,2.67,0,0,0-.4,0h-32c-1.81,0-2.72.95-2.72,2.82v1.51h37.36Zm0,10.38V79.86H708.33V84Zm0,6.44V88.72H708.33v1.71a2.4,2.4,0,0,0,2,2.72,2.66,2.66,0,0,0,.69,0h32c1.77,0,2.64-.9,2.64-2.72Z"/><path class="be837c3f-6ce2-4a09-807a-73843220932d" d="M775.4,72.71c-2.95,0-4.42-1.28-4.43-3.83s1.47-3.83,4.43-3.83h25.38q4.43,0,4.43,3.83t-4.43,3.83Zm-1.51-17.42c0-2.56,1.51-3.83,4.53-3.83h19c3,0,4.43,1.27,4.43,3.83s-1.48,3.82-4.43,3.82h-19Q773.89,59.11,773.89,55.29Zm89.23,25.78A4.59,4.59,0,0,1,862,84.39a4.28,4.28,0,0,1-3.27,1.21q-3,0-11.69-7.76a3,3,0,0,1,.41,1.51c0,2.42-1.45,3.63-4.33,3.63h-24c-2.76,0-4.13-1.21-4.13-3.63a2.91,2.91,0,0,1,.4-1.41q-3.35,3.38-7,6.4c-1.74,1.38-3,2.06-3.92,2.06q-2.43,0-3.43-2.71c-.47,1.41-1.81,2.14-4,2.21H778.62q-4.23,0-4.23-3.62c0-2.41,1.41-3.66,4.23-3.73H797a5.1,5.1,0,0,1,2.62.65,3.41,3.41,0,0,1,1.46,1.8,7,7,0,0,1,1.46-1.62c.71-.6,1.19-1,1.46-1.2q11.88-9.78,22.16-28A7.28,7.28,0,0,1,828,48a4,4,0,0,1,2.32-.65q4.23,0,4.23,3.22a3.29,3.29,0,0,1-.41,1.41q11.08,17.22,26.09,25C862.14,77.94,863.12,79.32,863.12,81.07Zm-61.84,14.6a3.35,3.35,0,0,1-1.11,2.67,4.74,4.74,0,0,1-3.22,1H778.62c-2.82,0-4.23-1.2-4.23-3.62S775.8,92,778.62,92H797c2.84,0,4.28,1.2,4.28,3.68Zm-1.81,11.68c1.34,1.28,1.91,3.32,1.71,6.15V127q0,4.42-2,6.45t-6.3,1.71H782.65q-4.53,0-6.54-2c-1.35-1.3-1.88-3.37-1.62-6.19V113.5q0-4.44,1.92-6.4t6.24-1.66h10.27C796,105.44,798.14,106.08,799.47,107.35Zm-5.74,18.83V114.4c0-1.61-.77-2.38-2.32-2.32h-7.15a2.73,2.73,0,0,0-1.91.56,2,2,0,0,0-.5,1.76v11.78a2,2,0,0,0,2.41,2.32h7.15C793,128.5,793.8,127.73,793.73,126.18Zm64.15-28.6v31.53q0,4.72-2.06,7.15c-1.37,1.62-3.51,2.42-6.4,2.41H846.3q-3.42,0-3.42-3.82t3.42-3.73h1.51q2.52,0,2.52-3V115.51H842v18.33a3.72,3.72,0,0,1-.91,2.67,3.45,3.45,0,0,1-2.62,1,3.29,3.29,0,0,1-2.51-1,3.72,3.72,0,0,1-.91-2.67V115.51H827.4v18.33c0,2.42-1.18,3.62-3.53,3.62a3.35,3.35,0,0,1-2.52-1,3.73,3.73,0,0,1-.9-2.67V115.51h-7.76V135a4.35,4.35,0,0,1-1,3,3.69,3.69,0,0,1-2.87,1.05A3.55,3.55,0,0,1,806.1,138a4.32,4.32,0,0,1-1-3V97.48q0-8.16,8.46-8.16h35.85Q857.89,89.32,857.88,97.58Zm-37.46-1.31h-5.14c-1.74,0-2.62.94-2.62,2.82v9.77h7.76Zm24.87-20a92.71,92.71,0,0,1-14.6-17.62l-.2-.3-1.31,2.11a105.36,105.36,0,0,1-12.09,15.81l1.41-.3h24.58ZM835,108.86V96.27h-7.65v12.59Zm15.31-9.67a3.12,3.12,0,0,0-.66-2.26,2.91,2.91,0,0,0-2.16-.66H842v12.59h8.36Z"/><rect class="a9fb5016-7d6e-4fcf-9802-5376970d8f8a" width="1000" height="200"/><path class="ea30137d-1caf-4a8b-8301-6c0f0b38853a" d="M145.89,113.29V58.48a24,24,0,1,0-48.08,0v83a19.67,19.67,0,0,1-39.33.89c0-.3,0-.59,0-.89V86.71A15.3,15.3,0,0,0,71.59,71.59v-24a2.19,2.19,0,0,0-2.18-2.19H67.22V36.63A2.19,2.19,0,0,0,65,34.44H47.56a2.19,2.19,0,0,0-2.19,2.19v8.74H43.19A2.19,2.19,0,0,0,41,47.56h0v24A15.3,15.3,0,0,0,54.11,86.71v54.81a24,24,0,1,0,48.08,0v-83a19.67,19.67,0,1,1,39.33-.89c0,.3,0,.59,0,.89v54.81a15.3,15.3,0,0,0-13.11,15.12v24a2.19,2.19,0,0,0,2.18,2.19h2.19v8.74a2.19,2.19,0,0,0,2.18,2.19h17.48a2.19,2.19,0,0,0,2.19-2.19h0v-8.74h2.18a2.19,2.19,0,0,0,2.19-2.19h0v-24A15.3,15.3,0,0,0,145.89,113.29ZM49.74,38.81H62.85v6.56H49.74ZM45.37,71.59V49.74H67.22V71.59a10.93,10.93,0,1,1-21.85.66Q45.36,71.92,45.37,71.59Zm104.89,89.6H137.15v-6.56h13.11Zm4.37-10.93H132.78V128.41a10.93,10.93,0,1,1,21.85-.66q0,.33,0,.66Z"/></svg>