<svg id="圖層_1" data-name="圖層 1" xmlns="http://www.w3.org/2000/svg" viewBox="0 0 639.7 147.79"><defs><style>.cls-1{fill:#2c3e50;stroke:#2c3e50;stroke-miterlimit:10;}.cls-2{fill:none;}</style></defs><path class="cls-1" d="M504.08,146.45c2.3,1.49,3.44,3,3.44,4.48,0,3.84-2,5.77-5.92,5.77q-2.09,0-9-3.69l-7.37-3.36q-6.72,4.8-20,8.65A83.76,83.76,0,0,1,442,162q-7.22,0-7.21-5.6,0-5.13,11.21-5.61,16.19-.65,26.75-5.77l-18.1-4.8a21.07,21.07,0,0,1-7.13-3,5.3,5.3,0,0,1-2.32-4.33q0-2.07,2.89-6.56l2.08-3.37H436.41c-3.73,0-5.6-1.7-5.6-5.12s1.87-5,5.6-5h19.22L459.8,105h-7.53c-4.27,0-7.48-.72-9.61-2.16S439.4,99,439.3,95.68V86.55q0-10.58,13-9.77h16.82V70.53H453.55q-6.89,0-10.09-3t-2.56-9.77V52.43h-5.29q-5.28,0-5.28-5,0-4.65,5.28-4.65h5.29V38.18q0-6.88,3-10.09t9.69-2.72h15.54V21.52c0-3.95,1.86-5.92,5.6-5.92s5.61,2,5.61,5.92v3.85h16.49q6.88,0,10.09,3t2.89,9.77v4.64h4.16c3.63,0,5.45,1.61,5.45,4.81a4.42,4.42,0,0,1-1.45,3.6,6.06,6.06,0,0,1-4,1.2h-4.16v5.29q0,6.89-3.13,10.09t-9.85,2.72H480.3v6.25h18.09q6.25,0,9.37,2.16c2.09,1.44,3.18,3.82,3.29,7.13V95.2q0,10.56-12.66,9.76h-26.9l-3.69,7.85h46.93q5.61,0,5.61,5.13,0,5-5.61,5h-13a51.28,51.28,0,0,1-8.33,18.74A53.26,53.26,0,0,1,504.08,146.45ZM451.63,94.63a3.87,3.87,0,0,0,2.72.89h14.74V86.23H454.35a3.33,3.33,0,0,0-2.8,1.12,6.69,6.69,0,0,0-.88,4C450.67,93,451,94.05,451.63,94.63Zm.48-51.81h17V35H456q-3.52,0-3.84,3.84Zm17,18.1V52.43h-17v4.65q0,3.69,3.84,3.84Zm21,62H462.36l-1.12,1.76c-.22.43-.72,1.26-1.52,2.49a6.08,6.08,0,0,0-1.2,2.64q0,2.09,3.84,2.88l20.18,5.45A32.48,32.48,0,0,0,490.07,122.9ZM480.3,42.82h17.93v-4a3.82,3.82,0,0,0-.88-2.8,4.54,4.54,0,0,0-3-1H480.3Zm0,18.1h14.09q3.84,0,3.84-3.84V52.43H480.3Zm0,34.6H496a3.33,3.33,0,0,0,2.72-1c.54-.64.81-1.86.81-3.68s-.27-3-.81-3.68a3.36,3.36,0,0,0-2.72-1H480.3ZM577,154.13q0,7.05-6.41,7.05-8.64,0-26.58-21.62a81.85,81.85,0,0,1-16.18,15.37q-9.6,6.73-13.45,6.73c-2.14,0-3.68-.51-4.64-1.52a6.65,6.65,0,0,1-1.45-4.73q0-4.16,7.37-7.84a58.12,58.12,0,0,0,21.3-18.1q-4.32-8.18-7.53-23.22a277.79,277.79,0,0,1-4.8-34.44q-5.76,11.39-9.29,11.37-5.28,0-5.28-6.4,0-1.92,2.56-6.09,9.93-15.52,16.49-42.44c1.39-5.77,2.41-9.07,3.05-9.93a5.84,5.84,0,0,1,5-2.08q6.4,0,6.41,5.28,0,4.49-8.17,26h35.72q6.07,0,6.08,6.41t-6.08,6.4H565.5L565,70.05q-1.12,21-3.84,34-2.41,11.7-10.25,25.47a88.34,88.34,0,0,0,18.89,16Q577,149.82,577,154.13ZM553.65,62.84l.16-2.56H533.63l.8,13.45q1.61,28,9.29,44.69Q552,101.28,553.65,62.84Z" transform="translate(-429.83 -15.1)"/><path class="cls-1" d="M740.07,130q0,5.28-6.57,5.28H672.64v11.38q0,8.64-3.68,12.49t-11.69,3.2H647.5q-4,0-5.85-1.44a5.56,5.56,0,0,1-1.84-4.65q0-5.93,7.69-5.92h6.41c3.94,0,6-2.08,6.24-6.25v-8.81H602.5c-4.28,0-6.41-1.76-6.41-5.28s2.13-5.29,6.41-5.29h57.65v-4.48a5.65,5.65,0,0,1,2.73-5.29q2.55-1.59,12.81-4l16.65-4.32v-.32H621.55q-6.24,0-6.24-5a4.86,4.86,0,0,1,1.44-3.84c1-.86,2.56-1.28,4.8-1.28h85.69q6.07,0,9.29,1.36t3.2,4.08q0,2.57-11.05,7.21t-30.91,10.25q-5.13,1.44-5.13,4.64v1H733.5C737.88,124.66,740.07,126.43,740.07,130ZM598,102.88V90.55q0-6.57,2.56-9.61c1.71-2,4.49-3.09,8.33-3.2h2.24l-3.36-46a10,10,0,0,1,1.84-6.64,10.33,10.33,0,0,1,6.17-3.61l16.5-2.72,5.12-1.28,1.84-.48a8.23,8.23,0,0,1,2-.32q5,0,5,5.6,0,2.57-4.49,4.25t-15.05,3a10.69,10.69,0,0,0-5,1.68,3.79,3.79,0,0,0-1.36,3.45l.16,4.48H640q5.92,0,5.93,5t-5.93,5H621.23l.65,8.81H640q5.92,0,5.93,5.12,0,5-5.93,5H622.52l.64,9.77h90.32l.64-9.77H694.91q-5.45,0-5.45-5t5.45-5.12h20l.32-8.81H694.91a6,6,0,0,1-4.17-1.2,5,5,0,0,1-1.28-3.76q0-5,5.45-5h21.46V35.78c0-1.82-.32-3.07-1-3.77s-1.82-1-3.53-1H693.46c-3.41,0-5.12-1.54-5.12-4.64a5.17,5.17,0,0,1,1.2-3.77,5.39,5.39,0,0,1,3.92-1.2h22.75q12.49,0,12.49,9.61l-3.36,46.77h1.76q11.68,0,10.73,12.81v13q0,7.53-6.41,7.53a6.16,6.16,0,0,1-4.8-1.76c-1.07-1.17-1.6-3.1-1.6-5.77V93.59c0-3.3-1.77-5.07-5.29-5.28H616.43c-3.42,0-5.23,1.76-5.45,5.28V103q0,7.53-6.4,7.53Q598,110.57,598,102.88ZM647.82,42q0-2.72,9.45-8.32l3.52-1.93q-10.08-7-10.09-9.13a4,4,0,0,1,1.2-3,4.92,4.92,0,0,1,3.45-1.12q1.92,0,12.81,7.53l4.64-4.81c2.25-2.45,4.27-3.68,6.09-3.68a5.14,5.14,0,0,1,3.6,1.12,4,4,0,0,1,1.21,3q0,2.73-8,9.77l1.76,1q6.72,4.81,6.73,8a5,5,0,0,1-1.29,3.69,4.75,4.75,0,0,1-3.52,1.28q-2.25,0-5.44-3l-5.61-5.28q-12.17,9.6-15.86,9.61Q647.83,46.67,647.82,42Zm10.57,21.46,3.2-1.92-1.76-1.12q-8.16-5.28-8.17-7.53,0-4.15,4.65-4.16,1.44,0,5.28,2.4l5,2.89,2.56,1.76,4.33-4.17c2.56-2.34,4.48-3.52,5.76-3.52q5,0,5,4.32,0,2.9-7.37,8.65,9.45,6.4,9.45,9.61,0,5-4.81,5c-1.28,0-3.1-1-5.44-3l-6.89-5.76a89.06,89.06,0,0,1-10.09,7Q654.71,76.3,653,76.3q-4.65,0-4.65-4.49Q648.3,69.1,658.39,63.48Z" transform="translate(-429.83 -15.1)"/><path class="cls-1" d="M758.81,138.12q0-5.44,8-7.53l13.29-3.52V84.14H768.74q-7.53,0-7.53-5.92,0-6.09,7.53-6.09h11.37V37.54H766.66q-7.38,0-7.37-5.93,0-6.24,7.37-6.24h38.11q7.37,0,7.37,6.24,0,5.93-7.37,5.93H793.08V72.13h9.61q7.53,0,7.53,6.09,0,5.93-7.53,5.92h-9.61V123.7l13.78-3.84q5.6,0,5.6,6.09a5.71,5.71,0,0,1-2.88,5.44L788,138.76q-9.13,3-15.22,4.64a46.25,46.25,0,0,1-7.36,1.6Q758.81,145,758.81,138.12Zm37.31,13.29q0-5.92,7.21-5.93h46.45V124H820.47q-7.22,0-7.21-5.92t7.21-5.93h29.31V95H831.2q-16,1.27-14.74-14.9V37.7q-1.28-16.17,14.74-14.9h51.25q16.17-1.28,14.89,14.9V80.14q1.29,16-14.89,14.9H862.91v17.13h29.63q7.05,0,7.05,5.93T892.54,124H862.91v21.46h34.91q7.36,0,7.37,5.93t-7.37,5.93H803.33Q796.13,157.34,796.12,151.41ZM849.94,34.34H835.36q-6.4,0-6.24,6.24V52.43h20.82Zm0,29.62H829.12V77.42q0,6.24,6.24,6.08h14.58Zm34.59-23.38q0-6.4-6.08-6.24H862.91V52.43h21.62Zm0,36.84V64H862.91V83.5h15.54Q884.69,83.5,884.53,77.42Z" transform="translate(-429.83 -15.1)"/><path class="cls-1" d="M929.54,56.6q-7,0-7-6.09t7-6.08h40.35q7.05,0,7.05,6.08t-7.05,6.09Zm-2.41-27.71q0-6.09,7.21-6.09h30.27q7,0,7,6.09t-7,6.09H934.34Q927.14,35,927.13,28.89Zm141.9,41a7.34,7.34,0,0,1-1.84,5.29A6.88,6.88,0,0,1,1062,77.1q-4.8,0-18.57-12.33a4.79,4.79,0,0,1,.64,2.4q0,5.76-6.89,5.76H999q-6.57,0-6.56-5.76a4.42,4.42,0,0,1,.64-2.24q-7.05,6.88-11.21,10.17t-6.25,3.28q-3.84,0-5.45-4.33c-.74,2.25-2.88,3.42-6.4,3.53H934.66q-6.72,0-6.73-5.77,0-5.93,6.73-5.92h29.15a8,8,0,0,1,4.16,1,5.32,5.32,0,0,1,2.41,2.8,10.41,10.41,0,0,1,2.32-2.56c1.12-1,1.89-1.6,2.32-1.92q18.9-15.54,35.23-44.53a11.58,11.58,0,0,1,2.89-3.44,6.14,6.14,0,0,1,3.68-1c4.48,0,6.73,1.71,6.73,5.12a5.31,5.31,0,0,1-.64,2.25q17.61,27.38,41.48,39.71Q1069,65.74,1069,69.89ZM970.7,93.11a5.31,5.31,0,0,1-1.77,4.25,7.63,7.63,0,0,1-5.12,1.52H934.66q-6.72,0-6.73-5.77,0-5.92,6.73-5.92h29.15Q970.7,87.19,970.7,93.11Zm-2.89,18.58q3.21,3,2.73,9.77v21.46q0,7.05-3.13,10.25t-10,2.72H941.07q-7.22,0-10.41-3.12t-2.57-9.85V121.46q0-7,3-10.17t9.93-2.64H957.4Q964.62,108.65,967.81,111.69Zm-9.13,29.95V122.9c0-2.56-1.22-3.79-3.68-3.68H943.63a4.38,4.38,0,0,0-3,.88,3.24,3.24,0,0,0-.8,2.8v18.74q0,3.84,3.84,3.68H955C957.56,145.32,958.79,144.1,958.68,141.64Zm102-45.48v50.13q0,7.52-3.28,11.37t-10.17,3.84h-5c-3.64,0-5.45-2-5.45-6.09s1.81-5.92,5.45-5.92h2.4q4,0,4-4.81v-20H1035.4v29.15a6,6,0,0,1-1.44,4.25,5.48,5.48,0,0,1-4.17,1.52,5.25,5.25,0,0,1-4-1.52,6,6,0,0,1-1.44-4.25V124.66h-12.17v29.15q0,5.77-5.61,5.77a5.25,5.25,0,0,1-4-1.52,6,6,0,0,1-1.45-4.25V124.66H988.79v30.91a6.78,6.78,0,0,1-1.52,4.73,5.85,5.85,0,0,1-4.56,1.68,5.66,5.66,0,0,1-4.41-1.68,6.82,6.82,0,0,1-1.52-4.73V96q0-13,13.45-13h57Q1060.71,83,1060.7,96.16Zm-59.58-2.09H993q-4.17,0-4.17,4.49v15.53h12.33Zm39.56-31.87a147.64,147.64,0,0,1-23.22-28l-.32-.48-2.08,3.36A169.31,169.31,0,0,1,995.84,62.2l2.24-.48h39.08Zm-16.33,51.89v-20h-12.17v20Zm24.34-15.37a5,5,0,0,0-1-3.6,4.7,4.7,0,0,0-3.44-1.05h-8.81v20h13.29Z" transform="translate(-429.83 -15.1)"/><rect class="cls-2" x="0.82" y="0.82" width="637.74" height="146.86"/></svg>