<svg id="e612fecc-0cb8-4a8d-bfd6-56056f58a20b" data-name="圖層 1" xmlns="http://www.w3.org/2000/svg" viewBox="0 0 1500 200"><defs><style>.b0310182-c664-4eed-bf1f-13986de9e196{fill:none;}.a8f53644-ee5e-4577-9756-a2b9c723bf24,.fd935ac0-0caf-4b95-9857-a7eb64100937{fill:#2c3e50;}.a8f53644-ee5e-4577-9756-a2b9c723bf24{stroke:#2c3e50;stroke-miterlimit:10;stroke-width:2.5px;}</style></defs><rect class="b0310182-c664-4eed-bf1f-13986de9e196" width="1500" height="200"/><path class="fd935ac0-0caf-4b95-9857-a7eb64100937" d="M347.59,124.47a19.58,19.58,0,0,1-1.61,8.06q-2.52,5.94-6.15,5.94-7.75,0-16.11-12.08Q308.21,136.65,303,136.66q-3.62,0-3.62-3.83c0-1.75,1.61-3.12,4.83-4.13a48.57,48.57,0,0,0,8.26-3.62,81.52,81.52,0,0,0,7.45-4.74,58,58,0,0,1-5.84-16.71H298.74v3.82a35.08,35.08,0,0,1-.1,3.63,3,3,0,0,1,2.32-1.21,6.82,6.82,0,0,1,2.92.86,15,15,0,0,1,3.52,2.56c2.56,2.49,3.83,4.23,3.83,5.24a3.17,3.17,0,0,1-2.76,3.53,3.22,3.22,0,0,1-.76,0q-2.82,0-9.27-7.86a33,33,0,0,1-5.34,14.6q-4.53,7-8.25,6.95T281.12,132c0-1,1.17-2.67,3.52-5q7.35-7.16,7.36-19.84l-.1-3.52h-2.62c-2.49,0-3.76-1.14-3.83-3.43q-.4,1.92-2.82,1.92c-1.14,0-2.22-1.35-3.22-4l-2.62-5.74-.4-.81v44.21q0,3.63-3.63,3.63t-3.52-3.63v-44q-2.73,12-5.29,17.88c-1.71,3.92-3.4,5.88-5.09,5.89a3.06,3.06,0,0,1-3.41-2.66,2.91,2.91,0,0,1,0-.66c0-1.62.77-3.83,2.31-6.65A104.9,104.9,0,0,0,268.43,76h-8.26q-4.17,0-4.17-4t4.13-4h9.07V50.75c0-2.35,1.17-3.53,3.52-3.52s3.56,1.18,3.63,3.52V68h5.84c2.55,0,3.82,1.3,3.82,3.92s-1.27,4-3.82,4h-5.84v12.4a2.68,2.68,0,0,1,2-.71c1.21,0,2.76,1.78,4.63,5.34s2.76,5.57,2.62,6.24q.6-2.31,3.63-2.31h23.66Q311.22,83.59,311,57.5V54.88l-.1-3.32a4.86,4.86,0,0,1,.86-3.22,3.42,3.42,0,0,1,2.76-1c2.49,0,3.74,1.38,3.73,4.13l-.1,4.53-.1,4.43v2.32l.2,6.64.3,8,.45,8,.1,1.91a2.68,2.68,0,0,1,1.46-2.21,8.57,8.57,0,0,1,3.67-1l4.22-8.1A30.68,30.68,0,0,0,325,72.91c-1.45-1.14-2.34-1.85-2.67-2.12l-1.91-1.51a4,4,0,0,1-1.82-3.22,3.57,3.57,0,0,1,.86-2.52,3.24,3.24,0,0,1,2.47-.9,4.7,4.7,0,0,1,2.31.9L327,55.89q1.62-6.24,4.53-6.24c2.62,0,3.93,1.1,3.93,3.32q0,2.82-6.54,14.3l2.72,2.32q4.62-9.17,6.74-9.17c2.49,0,3.74,1,3.73,3.12q0,1.41-6.14,12.19l-5.14,7.65,7.55-1-.7-1.72c-.07-.13-.2-.46-.4-1a4.06,4.06,0,0,1-.31-1.41q0-2.82,3.23-2.82t6.44,10.87l.5,1.62a3,3,0,0,1-.9,2.41,3.71,3.71,0,0,1-2.52.81q-2.22,0-3.73-3.43l-6.34,1.62-9,1.51-2.32.3a2.52,2.52,0,0,1-2.16-.56,3.23,3.23,0,0,1-1.06-2.06c.2,2.89.5,5.67.9,8.36H332.1l-.2-.3q-2.22-3.12-2.22-4.43a1.83,1.83,0,0,1,.76-1.57A3.48,3.48,0,0,1,332.5,90c1.21,0,2.38.74,3.53,2.22a6,6,0,0,1,1.61,3.32,1.79,1.79,0,0,1-.61,1.31h6.65q3.82,0,3.83,3.32c0,2.21-1.28,3.36-3.83,3.43H321.4a59.48,59.48,0,0,0,4.13,12.18,53.8,53.8,0,0,0,8-7.75q1.82-2.22,3.72-2.22,3.63,0,3.63,3.53,0,1.6-2.32,3.72l-1.41,1.61-8,7.46q5.64,8.06,9.26,8.05c.54,0,1-.38,1.46-1.16a9.45,9.45,0,0,0,1-3.37q.6-4.53,3.32-4.53Q347.59,121.15,347.59,124.47ZM284.14,65.76a3.57,3.57,0,0,1,.91-2.57,3.41,3.41,0,0,1,2.62-1,5.8,5.8,0,0,1,2.41.91l3.73-9.87c.94-2.48,2.21-3.72,3.83-3.72a4,4,0,0,1,2.77.85,3.18,3.18,0,0,1,.95,2.47,13,13,0,0,1-1.46,4.58q-1.45,3.18-4.78,9.22l3.62,2.61L300,66.77c1.81-3.76,3.47-5.64,5-5.64a3.67,3.67,0,0,1,2.62.85,3.28,3.28,0,0,1,.9,2.47q0,3.42-11.58,20.54l6-1-.5-1a5,5,0,0,1-.6-2.42c0-1.67,1-2.51,2.92-2.51a2.86,2.86,0,0,1,2.06,1.2,19.4,19.4,0,0,1,2.37,3.83c1.94,4,2.92,6.55,2.92,7.76,0,1.94-1.08,2.92-3.22,2.92q-2.33,0-4-4.23l-16.12,3.32-1.31.1a2.62,2.62,0,0,1-2.36-1,4.23,4.23,0,0,1-.86-2.77q0-3,5.34-3.52h-.1l5.94-10L287,69.79C285.08,68.45,284.14,67.1,284.14,65.76Z"/><path class="fd935ac0-0caf-4b95-9857-a7eb64100937" d="M450.31,115.81q0,3.73-4.73,3.73H408.42v14.7q0,5-4.13,5c-2.75,0-4.09-1.67-4-5v-14.7H364q-4.63,0-4.63-3.73T364,112h36.26v-9l-1.61.1-1.51.2-12.89,1.21a3.58,3.58,0,0,1-2.93-1,4.31,4.31,0,0,1-1-3.08c0-1.67,1-2.68,2.92-3l9.47-.5,6.34-7.25q-8.67-6.86-11.68-8.76c-3-1.82-4.43-3.33-4.43-4.54,0-2.34,1.14-3.52,3.42-3.52.94,0,2.68.91,5.24,2.72a104.31,104.31,0,0,0,7-11H366.92q-4.73,0-4.73-4,0-3.82,4.73-3.82h32.73v-4.7q0-4.73,4.74-4.73,4.53,0,4.53,4.73V56.8h33.43q4.84,0,4.84,3.92t-4.84,3.93H407.11a98.14,98.14,0,0,1-10.38,14.5l6.85,5.24,6.85-9.06a40.42,40.42,0,0,1,3.27-3.88,3.42,3.42,0,0,1,2.17-1.26c2.68,0,4,1.21,4,3.63q0,3.32-19.34,22.66l16.32-1.11c-1.82-3.22-2.72-5.27-2.72-6.15,0-1.81,1-2.71,3.12-2.71a3.64,3.64,0,0,1,3,1.61l4.23,6.74a46.71,46.71,0,0,1,3,5.29,9.78,9.78,0,0,1,1,2.77c0,2.22-1.35,3.32-4,3.32-1.61,0-3.26-1.77-4.94-5.33l-11.17,1.31V112h37.16Q450.32,112,450.31,115.81Zm-85.8-17.32c2.14-1.88,4.7-4.3,7.65-7.25q4-4,5.34-4c2.35,0,3.53,1.18,3.52,3.53q0,1.41-2.52,4.23-10.77,12.48-13.69,12.48-4,0-4-4Q360.78,101.71,364.51,98.49Zm3.72-21.85c-2.08-1.68-3.12-3.13-3.12-4.33,0-2.29,1.17-3.44,3.52-3.43,1.08,0,3.46,1.45,7.16,4.33s5.43,4.77,5.43,5.64c0,2.76-1.34,4.13-4,4.13-.88,0-2.09-.67-3.63-2Zm61.64,8q-3.63,0-3.63-3.62a3,3,0,0,1,.81-1.82,18.84,18.84,0,0,1,2.62-2.51,74.38,74.38,0,0,0,6-5.64q2.31-2.62,4.63-2.62c2.68,0,4,1.31,4,3.93q0,2.31-6.25,7.25t-8.18,5.08Zm3.42,13.5c-1.54-1.75-2.67-3.07-3.37-4a4.14,4.14,0,0,1-1.06-2c0-2.29,1.21-3.44,3.63-3.43q1.5,0,8.25,5.84t6.75,8.06q0,3.93-4.43,3.93-1.51,0-6.95-5.44Z"/><path class="fd935ac0-0caf-4b95-9857-a7eb64100937" d="M497.34,124q0,3.12-13,8.66-13.29,5.64-17.93,5.64-3.82,0-3.82-4.33c0-2.28,1.91-3.83,5.74-4.63a71.39,71.39,0,0,0,20.14-7.66c2.42-1.34,3.89-2,4.43-2C495.87,119.64,497.34,121.08,497.34,124ZM462.7,113.19c0-2.62,1.11-3.92,3.32-3.92h4l-1.11-48.45q-.09-6,4.43-7.85l6.75-2.52,3.73-1.51a17,17,0,0,1,3.72-1.31q3.93,0,3.93,4.53a2.76,2.76,0,0,1-1.21,2.32l-7.05,2.92a37.83,37.83,0,0,0-4.63,2.22c-1,.6-1.54,1.2-1.61,1.81l.3,8.86h11.08c2.21,0,3.31,1.28,3.32,3.83s-1.1,3.79-3.32,3.72H477.5l.3,11h10.58c2.21,0,3.31,1.28,3.32,3.83s-1.11,3.62-3.32,3.62H478l.3,13h34v-27a3,3,0,0,0-.71-2.22,3.39,3.39,0,0,0-2.21-.81H503q-7.15,0-7.15-7.25V50.75c0-2.35,1.21-3.53,3.63-3.52s3.63,1.18,3.62,3.52V54h12.59a5.46,5.46,0,0,1,3.43,1,3.46,3.46,0,0,1,1.2,2.87q0,3.74-4.63,3.73H503.08v7.65a2.58,2.58,0,0,0,2.27,2.86,2.84,2.84,0,0,0,.65,0h6.35q7.46,0,7.45,7.36v29.81h17.42l.31-13H526.85c-2.28,0-3.42-1.2-3.42-3.62s1.14-3.83,3.42-3.83h10.78l.4-11H526.85q-3.42,0-3.42-3.82t3.42-3.73h11.38l.2-8c.14-2.22-1-3.33-3.52-3.33h-8.66q-3.63,0-3.63-3.93t3.63-3.92h12.18q4.23,0,6.35,1.71a5.84,5.84,0,0,1,2,5l-1.51,51.37h5c2.35,0,3.52,1.3,3.52,3.92s-1.17,3.73-3.52,3.73H466Q462.72,116.93,462.7,113.19Zm33.13-11.88V87.21q0-3.93,3.83-3.93c2.42,0,3.62,1.31,3.62,3.93v14.1c0,2.62-1.2,3.93-3.62,3.93s-3.83-1.31-3.83-3.93ZM552,130.92a4.19,4.19,0,0,1,1,2.82c0,2.95-1.51,4.42-4.53,4.43q-6.54,0-18.73-5.64-12-5.44-12-8.56c0-2.75,1.47-4.13,4.43-4.13a7.29,7.29,0,0,1,3.52,1.41q9.68,5.75,23.57,8.26A4.48,4.48,0,0,1,552,130.92Z"/><path class="fd935ac0-0caf-4b95-9857-a7eb64100937" d="M565.67,128.65a3.39,3.39,0,0,1-.95-2.67,9.7,9.7,0,0,1,.9-3.62,45.72,45.72,0,0,0,2.92-16q.11-4.42,3.53-4.43a4.2,4.2,0,0,1,2.77.76,3.13,3.13,0,0,1,.85,2.47l-.1,2.72q-1.5,21.65-7,21.65A4.38,4.38,0,0,1,565.67,128.65Zm14.76,6.4V96.78L568.85,98a3.5,3.5,0,0,1-3-.86,4.29,4.29,0,0,1-1-3.07,3.07,3.07,0,0,1,2.83-3.31h.09l5-.41H574l6.14-9.26a113.37,113.37,0,0,0-12-9.87c-1.81-1.21-2.71-2.49-2.72-3.83,0-2.48,1.21-3.73,3.63-3.73.8,0,2.08.68,3.82,2l.61.4a94.42,94.42,0,0,0,7.15-14.6c1.07-2.75,2.62-4.13,4.63-4.13q3.93,0,3.93,3.73t-10.58,19l5.44,4.63L591.1,62.5a4,4,0,0,1,3.53-2.12c2.55,0,3.82,1.25,3.82,3.73q0,4.53-16.61,25.78l1.21-.1,9.66-.4.51-.1-1-2.72a8.39,8.39,0,0,1-.5-2.62c0-1.88,1-2.82,2.92-2.82q2,0,4.73,6.75c1.75,4.29,2.62,7,2.62,8.25q0,3.44-3.53,3.43a2.64,2.64,0,0,1-2.11-1.16A7.63,7.63,0,0,1,595,95.17l-6.75.8v39.08c0,2.95-1.31,4.42-3.93,4.43s-3.92-1.47-3.89-4.43Zm14.8-10.88-.3-1.41-2.42-17.93a2.22,2.22,0,0,1,.71-2.21,4.36,4.36,0,0,1,2.72-.71q3,0,4.23,6.75,1.91,11,1.91,13.3,0,3.72-3.73,3.72A3.49,3.49,0,0,1,595.23,124.17Zm2.72,9.57c0-1.28.81-2.45,2.42-3.53q13.89-8.55,15.1-34.54l-8.76.6c-2.48.21-3.72-1-3.72-3.72s3.12-3.93,9.36-3.93l.2-.1a178.22,178.22,0,0,0,5.64-19.64v-.6H604.7q-4,0-4-3.63t4-3.52h18.63V52.37c0-3.29,1.31-4.93,3.93-4.94s3.92,1.65,3.92,4.94v8.76h20.55c2.95,0,4.42,1.17,4.43,3.52s-1.47,3.56-4.43,3.63H626.35a105.55,105.55,0,0,1-6.85,19.94l23.06-1.61L639,81.27q-2.22-3.33-2.22-4.23,0-3,3.53-3c1.07,0,2.73,1.48,5,4.43a123.31,123.31,0,0,1,8.46,13.09,26.16,26.16,0,0,1,1.51,2.62,4.61,4.61,0,0,1,.61,1.91q0,3.52-3.83,3.53-2.12,0-4.63-4.43L646,92.45l-7.25.9v31.12q0,3,1.11,3.93c.46.4,1.94.6,4.43.6q3.21,0,3.93-1.2c.67-1.21,1-3.36,1.1-6.45a8.68,8.68,0,0,1,1-4.18,3,3,0,0,1,2.77-1.36q3.72,0,3.72,3.83a33.75,33.75,0,0,1-1.81,12q-1.82,4.63-12.18,4.64-6.15,0-8.36-1.31-2.62-1.51-2.62-6.15V94.16l-8.66.91h-.51l-.2,5.23q-.71,17.13-8.15,27.6-7,10-12.69,10-3.68,0-3.63-4.16Z"/><path class="fd935ac0-0caf-4b95-9857-a7eb64100937" d="M672.07,72.81q-4.23,0-4.23-3.83t4.23-3.93h32q4.23,0,4.23,3.93t-4.23,3.83Zm-.4-17.73q0-3.82,4.13-3.82h24.37a4.47,4.47,0,0,1,3.12,1,3.77,3.77,0,0,1,1.11,2.93c0,2.55-1.41,3.83-4.23,3.82H675.8C673.05,59,671.68,57.69,671.67,55.08Zm32.13,58.31V128.1q0,8.06-8.16,8.05H679.93q-8.16,0-8.16-8.05V113.39q0-8.06,8.16-8h15.71Q703.8,105.35,703.8,113.39Zm-4-34.64q4.13,0,4.13,3.73T699.8,86.2H676q-4,0-4-3.72t4-3.73Zm4.43,16.92c0,2.48-1.38,3.73-4.13,3.73H676c-2.69,0-4-1.25-4-3.73s1.34-3.73,4-3.73h24.07c2.75,0,4.13,1.25,4.13,3.73ZM696,115.31a2.21,2.21,0,0,0-1.7-2.62,2.37,2.37,0,0,0-.92,0H682.14a2.64,2.64,0,0,0-1.91.6,3.09,3.09,0,0,0-.7,2v10.87a2.77,2.77,0,0,0,.6,2,3.09,3.09,0,0,0,2,.7h11.28a2.51,2.51,0,0,0,1.92-.65,3.36,3.36,0,0,0,.7-2.07Zm63.55-31.62q0,3.72-4.33,3.72H737.43V134a6.59,6.59,0,0,1-1,4.08,5,5,0,0,1-6.65,0,6.59,6.59,0,0,1-1-4.08V87.41h-17c-3,0-4.43-1.27-4.43-3.83s1.48-3.82,4.43-3.82h17V52.87a6.32,6.32,0,0,1,1.06-4,4.88,4.88,0,0,1,6.6,0,6.59,6.59,0,0,1,1,4.08V79.76h17.83q4.34,0,4.32,3.93Z"/><rect class="b0310182-c664-4eed-bf1f-13986de9e196" width="1093.05" height="200"/><path class="a8f53644-ee5e-4577-9756-a2b9c723bf24" d="M140.81,89.45C139.36,60.24,138.27,45,131.17,45c-5.21,0-7.94,8.85-12.48,23.51-2,6.48-4.3,13.91-7.16,21.57,0-.43-.07-.87-.1-1.31C109.34,60.82,107.77,45,100,45S90.66,60.82,88.57,88.77c0,.44-.06.88-.1,1.32-2.86-7.67-5.16-15.1-7.16-21.58C76.77,53.85,74,45,68.83,45c-7.1,0-8.19,15.24-9.64,44.45C58,114,56.31,147.67,46.83,147.67H45v3.66h3.67V155h3.66v-3.67h7.34V155h3.66v-3.67h7.34V155h3.66v-3.67h7.34V155h3.66v-3.67h7.34V155h3.66v-3.67h7.34V155h3.66v-3.67h7.34V155h3.66v-3.67h7.34V155h3.66v-3.67h7.34V155h3.66v-3.67h7.34V155h3.66v-3.67H155v-3.66h-1.83C143.69,147.67,142,114,140.81,89.45ZM122.2,69.59c3-9.81,6.47-20.92,9-20.92,4,0,5.17,24.65,6,41,1.37,27.62,3,49.06,9,57.63a54.36,54.36,0,0,1-28.5-11.73c-2.93-9.57-4.41-23.52-5.51-37.06,4.24-10.19,7.38-20.34,10-28.88ZM72.5,147.67H68.4A58,58,0,0,0,79.73,142C77.81,145.56,75.45,147.67,72.5,147.67Zm12.92-9.82A76.91,76.91,0,0,0,100,121.56a76.91,76.91,0,0,0,14.58,16.29,27.85,27.85,0,0,0,5.21,9.82H80.21A27.85,27.85,0,0,0,85.42,137.85Zm1.85-6.74a200,200,0,0,0,3.64-25.67,125.47,125.47,0,0,0,6.88,12.7A79.48,79.48,0,0,1,87.27,131.11Zm15-13a125.39,125.39,0,0,0,6.87-12.7,201.79,201.79,0,0,0,3.64,25.67,79,79,0,0,1-10.56-12.94Zm18,23.86a58,58,0,0,0,11.33,5.67h-4.1c-3,0-5.31-2.08-7.23-5.64ZM92.27,89c1.27-17,3-40.38,7.77-40.38S106.54,72,107.81,89c.22,2.92.44,5.85.67,8.77a131.9,131.9,0,0,1-8.44,16.8,135.27,135.27,0,0,1-8.44-16.8c.23-2.91.45-5.85.67-8.77Zm-29.38.58c.81-16.31,2-41,6-41,2.5,0,5.94,11.11,9,20.92,2.64,8.54,5.78,18.69,10,28.88-1.17,13.6-2.65,27.6-5.58,37.13a54.33,54.33,0,0,1-28.49,11.73c6-8.57,7.67-30,9-57.63Z"/></svg>