<svg id="b050e723-1ae6-445d-aa0d-f5a1089dd10e" data-name="圖層 1" xmlns="http://www.w3.org/2000/svg" viewBox="0 0 1500 200"><defs><style>.ae01674b-069b-42ad-a6a0-eebfe5b2eec2{fill:none;}.a74b15d2-7157-4f51-b812-7b17c96e99e2{fill:#2c3e50;}</style></defs><rect class="ae01674b-069b-42ad-a6a0-eebfe5b2eec2" width="1500" height="200"/><path class="a74b15d2-7157-4f51-b812-7b17c96e99e2" d="M267.62,86.71,264.8,85.4a27,27,0,0,1-5.28-3.07,3.72,3.72,0,0,1-1.66-2.67c0-2.89,1.51-4.34,4.53-4.33q2.31,0,8.26,2.82,5.53,2.71,5.53,5.74,0,4.53-4.12,4.53Q270.74,88.42,267.62,86.71ZM258,133a9.77,9.77,0,0,1,1-3.42,251.85,251.85,0,0,0,9.47-24.47,9.55,9.55,0,0,1,1.86-3.43A3.57,3.57,0,0,1,273,100.6c2.82,0,4.23,1.25,4.23,3.73q0,2.22-4.53,14.91-3.93,11.17-6.24,15.4a4.42,4.42,0,0,1-3.83,2.52C259.5,137.16,258,135.79,258,133Zm11.48-72.41-3.83-2.11a12.23,12.23,0,0,1-3.37-2.37,3.52,3.52,0,0,1-1.06-2.37c0-2.88,1.47-4.33,4.43-4.33,1.21,0,3.56,1,7.05,2.92q4.94,2.73,4.93,5.64c0,3-1.41,4.55-4.23,4.54-.84,0-2.15-.61-4-1.89ZM274,135.25q0-2.82,5.94-4.74A83.33,83.33,0,0,0,295,124a7.63,7.63,0,0,1,3.62-1.31q3.93,0,3.93,3.83,0,2.61-10.37,7.85-10,5-14.2,5C275.33,139.38,274,138,274,135.25Zm5.44-61V66.67q0-5.34,2.36-7.76c1.57-1.61,4.08-2.28,7.51-2H307.5V51.46c0-2.75,1.42-4.13,4.23-4.13s4.34,1.38,4.34,4.13V56.9H335.5q10.47-.81,9.77,9.77V74q0,4.73-3.93,4.73c-2.62,0-3.92-1.58-3.92-4.73V67.27c0-2.42-1.18-3.59-3.53-3.53h-43.2q-3.63,0-3.53,3.53v7c0,3-1.27,4.53-3.83,4.53s-3.92-1.56-3.92-4.58Zm6.8,44.86c-1.52-1.37-2.17-3.54-2-6.49V92.25c0-3,.72-5.22,2.17-6.6s3.71-2,6.79-1.86h14.91V77h-14.6q-4.33,0-4.33-3.53,0-3.31,4.33-3.32h37.56q4.23,0,4.23,3.32c0,2.35-1.41,3.52-4.23,3.53H315.46v6.75h15.91c3.23,0,5.59.67,7.1,2s2.17,3.49,2,6.45v20.34c0,3-.73,5.24-2.17,6.65s-3.74,2-6.9,1.91H293.2q-4.72,0-7-2Zm21.9-28.55H295a3,3,0,0,0-2.27.71,3.48,3.48,0,0,0-.75,2.21v5.44h16.11Zm0,14.71H292v6.24a2.88,2.88,0,0,0,.7,2.12,3.51,3.51,0,0,0,2.32.8h13.09Zm24.47-11.79a2.84,2.84,0,0,0-.7-2.16,3.51,3.51,0,0,0-2.22-.76h-14.2v8.36h17.12Zm-.75,20.25a3.65,3.65,0,0,0,.75-2.22v-6.24H315.46v9.16h14.2a2.88,2.88,0,0,0,2.17-.73Zm-2,20.54q-10.07-4.83-10.07-7.65,0-3.93,4.23-3.93c.74,0,2.08.57,4,1.71a54.46,54.46,0,0,0,14.3,5.54c3.56.81,5.34,2.38,5.34,4.73,0,2.82-1.45,4.23-4.33,4.23q-3.79,0-13.47-4.66Z"/><path class="a74b15d2-7157-4f51-b812-7b17c96e99e2" d="M450.71,118.73q0,3.33-3.82,3.33H425v12.69a4.77,4.77,0,0,1-1,3.37,4,4,0,0,1-3,1.06q-4,0-4-4.43V122.06H392.4q-1.41,7.65-9.67,12.28A33.84,33.84,0,0,1,366,138.77a4.35,4.35,0,0,1-3.07-.9,3.76,3.76,0,0,1-1-2.82c0-2.09,1.31-3.26,3.93-3.53q15.9-2,18.43-9.46h-22q-3.72,0-3.72-3.33t3.72-3.32h23.37l.1-2.72a32,32,0,0,1,.1-3.52H377.6c-3,0-5.24-.73-6.65-2.17s-2.05-3.68-1.91-6.7V80q-.71-9.37,8.56-8.86h53.88q4.72,0,6.9,2.11T440.14,80v20.3q0,4.64-2.07,6.8t-6.59,2.07H425v6.24h21.86C449.43,115.41,450.72,116.52,450.71,118.73ZM359.17,66.46a3,3,0,0,1,.8-1.86,20.92,20.92,0,0,1,2.52-2.37,47.14,47.14,0,0,0,10.38-12,5.18,5.18,0,0,1,4.53-2.62q4.23,0,4.23,3A6.86,6.86,0,0,1,380,54.08h20.14c2.48,0,3.72,1.1,3.72,3.32s-1.24,3.22-3.72,3.22H390c1.27,3,1.91,4.9,1.91,5.84q0,3.23-4,3.23c-2,0-3.22-1-3.83-3.13L382.63,62l-.3-1.41h-7.45q-8.36,9.57-12,9.57C360.45,70.16,359.22,68.93,359.17,66.46ZM376.79,82h55.49V80.06c0-1.81-1-2.72-2.92-2.72H379.51c-1.68,0-2.58.91-2.72,2.72Zm0,5.64v4.74h55.49V87.61Zm2.72,15.21h49.85c1.88,0,2.86-.91,2.92-2.72V98H376.79v2.11c0,1.67.91,2.58,2.72,2.71ZM417,115.41v-6.24H393.61a16.28,16.28,0,0,1-.1,2.21c-.13,1.75-.2,3.09-.2,4ZM401.16,66.06c0-.74,1.25-2.45,3.73-5.14a50.86,50.86,0,0,0,7.05-10.27q1.9-3.42,4.23-3.42,4.13,0,4.13,3a8,8,0,0,1-1.51,3.83h27.49c2.55,0,3.83,1.1,3.83,3.32s-1.28,3.22-3.83,3.22h-15.1c1.27,2.82,1.9,4.7,1.91,5.64,0,2.15-1.38,3.22-4.13,3.23q-3.22,0-4.33-3.83l-1.51-5h-8.46q-6.75,9.08-9.77,9.07C402.41,69.69,401.16,68.48,401.16,66.06Z"/><path class="a74b15d2-7157-4f51-b812-7b17c96e99e2" d="M472.67,86.4l-3.73-1.71a14.49,14.49,0,0,1-3.77-2.41,3.6,3.6,0,0,1-1.26-2.62c0-3,1.47-4.54,4.43-4.54.87,0,2.79.64,5.74,1.92l3.62,1.71q5.44,2.52,5.44,5.54c0,3.16-1.37,4.73-4.13,4.73C478.27,89,476.16,88.13,472.67,86.4Zm-8.36,46.43a13.71,13.71,0,0,1,1.61-4.13l1.11-2.52q3.72-8.66,8.76-21.65,1.51-3.93,4.33-3.93,4.33,0,4.33,3.63,0,1.71-4.73,14.2-4.94,13.09-7.05,16.62a4,4,0,0,1-3.73,2.11q-4.63,0-4.63-4.33Zm7.55-74.52q-3-1.71-3-4.13a4.3,4.3,0,0,1,1-3.18,4.75,4.75,0,0,1,3.37-1q1.82,0,8.06,3.32t6.34,6.35c0,2.88-1.47,4.33-4.43,4.33q-1.11,0-11.38-5.69Zm71.81,74.32-2.22-3.83q-5.73,1.11-27.89,3.83-22.56,2.82-25.08,2.82c-2.75,0-4.12-1.51-4.13-4.53q0-4,7.45-4.53l3.63-.21a235.78,235.78,0,0,0,11.48-28.9H489a5.7,5.7,0,0,1-3.67-1,3.76,3.76,0,0,1-1.16-3.07,3.65,3.65,0,0,1,1.16-3,5.7,5.7,0,0,1,3.67-1h24.07V72.1H493.72q-4.94,0-4.94-4t4.94-4h19.33V52.16c0-3.15,1.38-4.72,4.13-4.73s4.13,1.57,4.13,4.73V64.05h22.76c3.29,0,4.93,1.33,4.94,4s-1.64,4-4.94,4H521.31V89.32H548.6q5.14,0,5.14,3.93a3.63,3.63,0,0,1-1.26,3.07,6.39,6.39,0,0,1-3.88,1H516a273.43,273.43,0,0,1-11.28,26.79l-.6,1.51q27.79-2.72,33.33-3.42l-6.34-9.77c-.2-.27-.55-.81-1.06-1.61-.38-.61-.74-1.23-1.06-1.87a2.93,2.93,0,0,1-.3-1.16c0-2.34,1.31-3.52,3.93-3.52,1.81,0,3.75,1.48,5.84,4.43q15.31,21.66,15.31,25.08c0,2.75-1.55,4.13-4.63,4.13-2,0-3.8-1.79-5.47-5.28Z"/><rect class="ae01674b-069b-42ad-a6a0-eebfe5b2eec2" width="1000" height="200"/><path class="a74b15d2-7157-4f51-b812-7b17c96e99e2" d="M100,72.29c-5.67,0-55.42-.39-55.42-13.85S94.33,44.58,100,44.58s55.42.39,55.42,13.86S105.67,72.29,100,72.29ZM51.92,58.44c3.38,2.62,19.6,6.92,48.08,6.92s44.7-4.3,48.08-6.92c-3.38-2.63-19.6-6.93-48.08-6.93S55.3,55.81,51.92,58.44Zm96.69.53Z"/><path class="a74b15d2-7157-4f51-b812-7b17c96e99e2" d="M100,100c-5.67,0-55.42-.39-55.42-13.85a3.47,3.47,0,0,1,6.91-.4C53.62,88.3,70,93.07,100,93.07s46.38-4.77,48.51-7.32a3.47,3.47,0,0,1,6.91.4C155.42,99.61,105.67,100,100,100Z"/><path class="a74b15d2-7157-4f51-b812-7b17c96e99e2" d="M100,127.71c-5.67,0-55.42-.39-55.42-13.86a3.47,3.47,0,0,1,6.91-.39C53.62,116,70,120.78,100,120.78s46.38-4.77,48.51-7.32a3.47,3.47,0,0,1,6.91.39C155.42,127.32,105.67,127.71,100,127.71Z"/><path class="a74b15d2-7157-4f51-b812-7b17c96e99e2" d="M100,155.42c-5.67,0-55.42-.39-55.42-13.86V58.44a3.47,3.47,0,0,1,6.93-.37,2.29,2.29,0,0,1,0,.37v82.75c2.22,2.57,18.61,7.3,48.49,7.3s46.27-4.73,48.49-7.3V58.44a3.47,3.47,0,0,1,6.93-.37,2.29,2.29,0,0,1,0,.37v83.12C155.42,155,105.67,155.42,100,155.42Z"/><circle class="a74b15d2-7157-4f51-b812-7b17c96e99e2" cx="67.67" cy="109.24" r="4.62"/><circle class="a74b15d2-7157-4f51-b812-7b17c96e99e2" cx="67.67" cy="81.53" r="4.62"/><circle class="a74b15d2-7157-4f51-b812-7b17c96e99e2" cx="67.67" cy="136.94" r="4.62"/></svg>