<svg id="ab9850f1-c8d2-4b9d-89ce-4def6b6d43cf" data-name="圖層 1" xmlns="http://www.w3.org/2000/svg" viewBox="0 0 1500 200"><defs><style>.a75fddc0-71b0-4979-9834-fd43c14a396c,.ffbfba3b-1fcf-4e74-9547-187e414fef14{fill:#2c3e50;}.ffbfba3b-1fcf-4e74-9547-187e414fef14{stroke:#2c3e50;stroke-miterlimit:10;stroke-width:2px;}.e55230db-a91d-4d56-b1cf-362c9ffdc081{fill:none;}</style></defs><path id="a3cca8d4-a62b-4549-ac51-e3af291ab6c7" data-name="icon" class="ffbfba3b-1fcf-4e74-9547-187e414fef14" d="M152.23,155.14H122.39a2.91,2.91,0,0,1,0-5.82h26.93V50.68H92.4V60.92a2.91,2.91,0,0,1-5.82,0V47.77a2.91,2.91,0,0,1,2.91-2.91h62.74a2.91,2.91,0,0,1,2.91,2.91h0V152.23a2.91,2.91,0,0,1-2.91,2.91Zm-62.74,0H68.64a2.91,2.91,0,0,1,0-5.82H86.58V136H47.77a2.91,2.91,0,0,1-2.91-2.91h0V73.37a2.91,2.91,0,0,1,2.91-2.91h83.45a2.9,2.9,0,0,1,2.9,2.9h0v59.69a2.9,2.9,0,0,1-2.89,2.91H92.4v13.35h17.95a2.91,2.91,0,1,1,0,5.82H89.49Zm0-25h38.82V76.27H50.68v53.88Zm22.86-18.55H66.63a2.91,2.91,0,0,1,0-5.82h45.72a2.91,2.91,0,1,1,0,5.82Zm-10.29-11H76.92a2.91,2.91,0,1,1-.34-5.81,1.93,1.93,0,0,1,.34,0h25.14a2.91,2.91,0,1,1,.34,5.81Z"/><path class="a75fddc0-71b0-4979-9834-fd43c14a396c" d="M258.06,111.58q0-3.83,4.53-3.83h7.75V90.13H260.07q-4.63,0-4.63-3.73,0-3.91,4.63-3.92h10.27V67.87q-8.35,9.27-11.28,9.27-3.62,0-3.62-4,0-1.81,4.23-5.44a65,65,0,0,0,13-15.71c1.95-3.22,3.89-4.83,5.84-4.83q4,0,4,3.22c0,1.28-1.24,3.59-3.73,6.95h61.64q4.94,0,4.93,3.93t-4.63,3.82h-7.66V82.48H343q4.73,0,4.73,3.92,0,3.73-4.73,3.73h-9.88v17.62h7.46q4.53,0,4.53,3.83t-4.53,3.83h-78Q258.06,115.41,258.06,111.58Zm-.61,22.86a4.92,4.92,0,0,1,.81-2.11c.53-.94.87-1.55,1-1.82a65.39,65.39,0,0,0,4.33-9,4.06,4.06,0,0,1,3.92-2.82q4.34,0,4.33,3.53,0,4-5.64,13.09-1.9,3.22-4.43,3.22C258.9,138.57,257.45,137.2,257.45,134.44Zm31.22-52V65.05H277.9V82.48Zm0,25.27V90.13H277.9v17.62ZM287,134.34l-2.52-10.77c0-2.55,1.35-3.83,4-3.83q2.71,0,4.43,4.53c1.81,4.84,2.72,8,2.72,9.57q0,4.23-4.23,4.23C289,138.07,287.5,136.83,287,134.34ZM306.9,82.48V65.05H296.12V82.48Zm0,25.27V90.13H296.12v17.62Zm3.43,26c-.95-3-1.89-5.54-2.83-7.76a8.38,8.38,0,0,1-1-3.22c0-2.48,1.34-3.73,4-3.73,1.67,0,3,1,4,3q4.54,9.36,4.54,11.58c0,2.88-1.41,4.33-4.23,4.33Q311.53,138,310.33,133.74Zm15.2-51.26V65.05H314.45V82.48Zm0,25.27V90.13H314.45v17.62ZM337,135.35q-4.23-8.16-5.94-10.88a5.54,5.54,0,0,1-1.11-2.62,3,3,0,0,1,1.11-2.61,5.84,5.84,0,0,1,3.43-.81c1.27,0,2.65,1,4.12,3.12q7.15,10.17,7.15,12.29,0,4.53-4.63,4.53C339.46,138.37,338.09,137.36,337,135.35Z"/><path class="a75fddc0-71b0-4979-9834-fd43c14a396c" d="M369.24,105.64a75.46,75.46,0,0,1-1.81,14.7q-1.81,9-5.24,9c-2.48,0-3.73-1.14-3.73-3.43a10.08,10.08,0,0,1,.91-3.52,46.91,46.91,0,0,0,2.92-16.12c.07-2.95,1.24-4.43,3.53-4.43S369.24,103.09,369.24,105.64ZM381.32,96v39.18c0,2.75-1.2,4.13-3.62,4.13S374,137.9,374,135.15V96.78l-11.38,1.31a3.4,3.4,0,0,1-3-.91,4.49,4.49,0,0,1-1-3.12c0-2.15,1.25-3.32,3.73-3.53l3.83-.2.7-.1,6.85-10.07a124.93,124.93,0,0,0-11.28-9.26q-2.82-1.92-2.82-3.83c0-2.48,1.28-3.73,3.83-3.73A6,6,0,0,1,366.72,65l.1.1a89.51,89.51,0,0,0,6.55-13.69q1.41-4.12,4.73-4.13c2.75,0,4.13,1.27,4.13,3.83q0,3.22-10,18l5.44,4.64v-.11l6.24-11.07a4.47,4.47,0,0,1,3.93-2.62q4,0,4,3.72,0,4.33-17,26.29l.8-.1h1.21l9.37-.5-.91-2.62a7.3,7.3,0,0,1-.6-2.62c0-2,1-2.92,3-2.92q2.12,0,4.83,6.75c1.82,4.49,2.72,7.28,2.72,8.35q0,3.44-3.62,3.43-2.42,0-3.63-4.43Zm9.37,25.78c-2.15,0-3.49-2.31-4-7L385.25,105a2.34,2.34,0,0,1,.71-2.27,4.18,4.18,0,0,1,2.72-.76c1.67,0,2.75,1.18,3.22,3.53l.6,2.92a84,84,0,0,1,1.82,9.77Q394.32,121.76,390.69,121.75Zm23.36-17.92q0,8.76-7.45,19-7.55,10.47-12.38,10.47-3.63,0-3.63-3.82,0-1.62,3.52-4.23a32.74,32.74,0,0,0,6.15-5.54,37.12,37.12,0,0,0,4.63-6.95q1.82-3.83,1.81-5.44c0-.87-.67-1.31-2-1.31h-7.25q-3.53,0-3.53-3.52c0-2.28,1.18-3.43,3.53-3.43h10.77C412.11,99.09,414.05,100.67,414.05,103.83Zm36.56,25.07c0,3-1.34,4.43-4,4.43a7,7,0,0,1-3.92-1.76,46,46,0,0,1-5.74-5.49,62.15,62.15,0,0,1-11.38-18.53v21.66q0,5.13-2.27,7.45t-7.2,1.91h-5a4,4,0,0,1-2.92-.9,3.88,3.88,0,0,1-.9-2.82,4.22,4.22,0,0,1,.9-3,4,4,0,0,1,2.92-.9h3.43a3.44,3.44,0,0,0,2.62-1,4.09,4.09,0,0,0,1-2.67V92.75h-13q-9.16,0-8.56-8.66V66.26q0-4.43,2-6.54t6.54-2.12h9.17l1.81-5.44a9.28,9.28,0,0,1,2-3.72A4,4,0,0,1,421,47.23q4,0,4,3.32c0,1.35-1,3.7-3,7.05h15.71q9.06,0,8.46,8.66V84.09q0,4.43-2,6.54c-1.35,1.41-3.49,2.12-6.45,2.12H425.54v3.83a62.77,62.77,0,0,0,4.93,9.76l.2.11a78.06,78.06,0,0,0,10-8.87c1.34-1.41,2.55-2.11,3.63-2.11a4,4,0,0,1,2.92.91,3.84,3.84,0,0,1,.9,2.81q0,3.33-14,12.39v.2A62.39,62.39,0,0,0,448,124.88Q450.62,126.59,450.61,128.9ZM404.29,71.6h33.94V67.47c0-2-1-3-3-3H407.31q-2.82,0-3,3Zm3,14.3H435.2q2.82,0,3-3V78.25H404.29v4.63C404.29,84.76,405.29,85.77,407.31,85.9Z"/><path class="a75fddc0-71b0-4979-9834-fd43c14a396c" d="M553.74,132.13q0,4.23-5.94,4.23l-31.12-.1q-18.54,0-25.58-2a27.11,27.11,0,0,1-12.19-7h-.2q-9.66,8.46-12.79,8.46a3.88,3.88,0,0,1-3-1.11,5.31,5.31,0,0,1-1-3.62q0-3.23,4.53-5.14a78.06,78.06,0,0,0,8-4.13V101.21a2.77,2.77,0,0,0-3-3h-5.44a4.33,4.33,0,0,1-3.07-.91,3.86,3.86,0,0,1-1-2.92,3.73,3.73,0,0,1,1-2.82,4.38,4.38,0,0,1,3.07-.91h7.86q4.43,0,6.39,1.92c1.31,1.27,1.93,3.26,1.86,5.94v22.36l2.72,2.62q6.86,5.32,29.31,5.33,20.25,0,34.54-.5h1.21C552.43,128.3,553.74,129.57,553.74,132.13ZM463.5,72.51q0-3.93,3.93-3.93,1.6,0,8.36,2.82,6.54,2.82,6.55,5.84,0,4.13-3.93,4.13A7.59,7.59,0,0,1,475,80.06l-8.36-3.63Q463.5,75,463.5,72.51Zm4.74-19.24q0-3.93,3.82-3.93c.88,0,3.53,1,8,2.92a16.87,16.87,0,0,1,4.73,3,4.46,4.46,0,0,1,1.62,3.17q0,4.23-3.93,4.23a6.11,6.11,0,0,1-2.17-.76c-1-.5-1.66-.82-1.86-1l-6.65-3.43Q468.24,55.69,468.24,53.27ZM489.94,57a3.09,3.09,0,0,1-1.16-2.72c0-2.22,1.55-3.32,4.64-3.32h46.72c4.7,0,7.05,1.3,7.05,3.92,0,1.28-1.39,2.92-4.18,4.94a105.86,105.86,0,0,1-13.64,7.75c2,.81,3,1.81,3,3a2.9,2.9,0,0,1-.5,1.51h8.76c3,0,5.07.64,6.34,1.92s1.92,3.39,1.92,6.34V114.6c0,3.43-.76,5.91-2.27,7.46s-3.95,2.28-7.3,2.21l-6.25-.1c-2.61,0-3.92-1.27-3.92-3.83s1.31-3.72,3.92-3.72H538q3.53,0,3.52-3.53V108H523.83v11.78q0,3.93-3.53,3.93t-3.52-3.93V108H499.56v12.18c0,2.76-1.25,4.13-3.73,4.13s-3.62-1.37-3.62-4.13v-40q0-8.05,8.05-8.06H523l-10.67-4-7-2.22q-3.22-1-3.22-2.92c0-2.22,1.27-3.32,3.82-3.32a9.25,9.25,0,0,1,2.92.7l12.79,4.23.21-.1c2.14-1.07,5.37-2.75,9.66-5,.47-.26.71-.56.71-.9s-.37-.71-1.11-.71H493.42A6.09,6.09,0,0,1,489.94,57Zm26.84,22.15h-14.1q-3.12,0-3.12,3v4.44h17.22Zm0,22.06V93.35H499.56v7.86Zm21.65-22.06h-14.6v7.46h17.72V82.28C541.55,80.2,540.51,79.15,538.43,79.15Zm3.12,22.06V93.35H523.83v7.86Z"/><path class="a75fddc0-71b0-4979-9834-fd43c14a396c" d="M601.38,68.88q0,3.63-4.44,3.63H569.25q-4.34,0-4.33-3.63c0-2.42,1.44-3.62,4.33-3.62h27.69C599.9,65.26,601.38,66.46,601.38,68.88ZM568.24,55.29q0-3.63,4.23-3.63h21.25q4.42,0,4.43,3.63t-4.43,3.62H572.47Q568.24,58.91,568.24,55.29Zm29.41,27q0,3.42-4.23,3.42H572.67c-2.75,0-4.13-1.17-4.13-3.53s1.38-3.42,4.13-3.42h20.75Q597.65,78.75,597.65,82.28Zm0,13.39q0,3.42-4.23,3.42H572.87c-2.88,0-4.33-1.14-4.33-3.42s1.38-3.52,4.13-3.52h20.75Q597.65,92.15,597.65,95.67Zm0,17.72V129q0,8.07-8.26,8.06H576.9a8.59,8.59,0,0,1-6.14-2,7.7,7.7,0,0,1-2.12-5.84V113.39q0-8,8.26-8h12.49Q597.64,105.44,597.65,113.39Zm-7.25,1.31a2.32,2.32,0,0,0-2.62-2.62h-9.27a2.36,2.36,0,0,0-2.61,2.62v13c0,1.81.87,2.71,2.61,2.71h9.27c1.68,0,2.55-.9,2.62-2.71ZM657,116.11a66,66,0,0,1,0,7.36q-.81,8.06-2.92,11.12a6.46,6.46,0,0,1-5.54,3.08,5.82,5.82,0,0,1-4.38-2.42,17.78,17.78,0,0,1-3.28-7.15q-3-11.38-3.12-28.91l-.3-31.32.1-3.72a3.86,3.86,0,0,0-1.21-3.38,5.08,5.08,0,0,0-3.73-.85H622.12v26h6.14q4.23,0,4.23,3.73a3.37,3.37,0,0,1-1.1,2.67,4.63,4.63,0,0,1-3.13,1h-6.14v40.69q0,4.53-3.83,4.53a3.67,3.67,0,0,1-2.92-1.16,5,5,0,0,1-1-3.37V93.25h-7q-4.33,0-4.33-3.72t4.33-3.63h7v-26H604.9c-3.16,0-4.73-1.24-4.73-3.73s1.57-3.72,4.73-3.72h30.72q9.87,0,9.87,8.15l-.11,2,.21,41.19a117.57,117.57,0,0,0,1,17q1,5.79,2.57,5.79c.54,0,.87-.91,1-2.72s.23-5.1.3-9.87q0-3.33,3.22-3.33c2,0,3.06,1.15,3.13,3.43A13.42,13.42,0,0,0,657,116.11Z"/><path class="a75fddc0-71b0-4979-9834-fd43c14a396c" d="M678.12,106q0,5.14-2.42,17.12-1.31,6.75-4.43,6.75-3.43,0-3.43-3.32a10.26,10.26,0,0,1,.91-3.63q2.52-6.75,2.82-17.12c.07-2.68,1.17-4,3.32-4S678.12,103.22,678.12,106Zm20-22q4.32,9.57,4.33,12.69t-3.33,3q-2,0-3.72-4.73l-5.44.7-.3.1v39.28q0,4.13-3.63,4.13t-3.62-4.13V96.58l-10.88,1.1a2.92,2.92,0,0,1-2.67-.85,4.28,4.28,0,0,1-1-3q0-2.82,3.13-3.53l4.63-.3L682,80.36l-1.21-1.21A81.37,81.37,0,0,0,671.47,71q-2.82-2.11-2.82-3.93,0-3.52,3.22-3.53a6.8,6.8,0,0,1,3.53,1.62,88.4,88.4,0,0,0,6.14-12.79q1.9-5.23,4.73-5.24,4.34,0,4.33,3.52,0,1.82-2.41,6.3t-7.66,12.33l5.34,4.84L692.62,62a6,6,0,0,1,1.71-1.91,3.49,3.49,0,0,1,2-.71c2.76,0,4.13,1.18,4.13,3.53q0,1.92-12.79,20.75l-3.92,5.53-.71.71,10.47-.6-.9-2.52a9.9,9.9,0,0,1-.71-2.52c0-1.75,1-2.62,3-2.62A3.38,3.38,0,0,1,698.16,84.09ZM701.78,124a3,3,0,0,1-.7,2.62,3.72,3.72,0,0,1-2.72.9,2.87,2.87,0,0,1-2.82-1.61l-2.92-21.15q-.3-2.61,2.92-2.61a3.11,3.11,0,0,1,2.52,1.1,13.87,13.87,0,0,1,1,3.18q.66,2.76,1.46,7.1Zm55-63.15v68.59q0,9.17-8.66,9.16h-6.45q-4.53,0-4.53-3.82t4.33-3.73H746q3.22,0,3.43-3.43V62.54a3.33,3.33,0,0,0-3.63-3.63H715.28a3.56,3.56,0,0,0-2.57.91,3.41,3.41,0,0,0-1,2.62v72.41q0,4-3.62,4t-3.53-4v-74q-.81-9.76,9.07-9h34Q757.27,51.05,756.77,60.82Zm-12.29,62.85a6.4,6.4,0,0,1-3.72,1.1l-8.36.11c-5.44.06-9.07-.47-10.88-1.62s-2.58-2.92-2.72-5.54v-15.6h-2.21q-3.63,0-3.63-3.53t3.63-3.42h10.57V89.93c0-2.28,1.17-3.42,3.53-3.42s3.42,1.14,3.42,3.42v5.24h9.77q3.82,0,3.83,3.52c0,2.28-1.28,3.43-3.83,3.43h-18V113.9a3.32,3.32,0,0,0,3.63,3.62l7.45.1,4.94-.2c2.61-.13,3.92,1,3.92,3.53A3.23,3.23,0,0,1,744.48,123.67ZM716.79,78H732.3l4-14.1c.6-2.08,1.84-3.13,3.72-3.13q3.74,0,3.73,3,0,2.72-4.94,14.2h4.84c2.68,0,4,1.17,4,3.52s-1.35,3.42-4,3.42H716.59q-3.52,0-3.53-3.52T716.79,78Zm2.82-4.74Q717,66.37,717,65.05c0-2.14,1.24-3.22,3.73-3.22q2.12,0,4.23,4.53a17.69,17.69,0,0,1,2,6.85q0,3.23-4,3.22Q720.82,76.43,719.61,73.21Z"/><path class="a75fddc0-71b0-4979-9834-fd43c14a396c" d="M771.17,131.72q0-3,5-4.23V93.66q0-4,3.52-4t3.53,4V126l4.93-1.1,1.31-.41V83.18h-5.94q-8,0-8-8V59q0-7.95,8-7.95h14.8q8,0,8,7.95V75.23c0,5.23-2.59,7.89-7.76,8h-1.81v13.2h5q4.53,0,4.53,3.72t-4.53,3.83h-5v18.73l8.16-2.22,1.81-.4q3.22,0,3.22,3.73,0,2.82-3.82,4-25.89,8.05-30.92,8C772.51,135.85,771.17,134.48,771.17,131.72ZM798.87,73V61.23c0-1.82-1-2.79-2.92-2.92H786a2.8,2.8,0,0,0-2.07.75,3.34,3.34,0,0,0-.86,2.17V73a2.83,2.83,0,0,0,.76,2.07,3.29,3.29,0,0,0,2.17.85h10C797.76,75.93,798.73,75,798.87,73Zm9.21,31a4.81,4.81,0,0,1-.75-3,4,4,0,0,1,1-2.62,6,6,0,0,1,3-1.81,57.47,57.47,0,0,0,18.43-11v-.2a45.25,45.25,0,0,1-8.66-14.91h-.2q-6.13,11.58-9.67,11.58t-3.52-3.52a3.77,3.77,0,0,1,.6-1.76c.41-.71,1.08-1.73,2-3.07a92.23,92.23,0,0,0,11.68-23c.74-2.21,2-3.32,3.83-3.32q3.82,0,3.82,3.53c0,.73-.7,2.65-2.11,5.74h20.74q4.44,0,6.55,1.36A4.61,4.61,0,0,1,857,62.23q0,2.43-4.84,9.67a90.18,90.18,0,0,1-11.38,13.7l-.3.3a55.38,55.38,0,0,0,17.32,8.76q5.34,1.52,5.34,4.84,0,4.23-3.93,4.23c-2.21,0-5.81-1.35-10.77-4a71.71,71.71,0,0,1-13.3-9.07h-.2a99.45,99.45,0,0,1-14.2,9.87q-7.76,4.44-10.17,4.44A3,3,0,0,1,808.08,104Zm6.09,22.91V111.38q-.7-9.87,9.07-9.06h24.37q9.87-.81,9.06,9.06v15.51q.81,9.87-9.06,9.06H823.24Q813.46,136.76,814.17,126.89ZM849,125.58V112.69q0-3.42-3.32-3.32H825c-2.28,0-3.39,1.1-3.32,3.32v12.89c0,2.22,1.1,3.29,3.32,3.22H845.7C848,128.8,849.08,127.73,849,125.58Zm-5.44-54c2.62-3.29,3.93-5.5,3.93-6.65,0-.8-.51-1.2-1.51-1.2H825.65a39.53,39.53,0,0,0,9.27,17.12h.2A99,99,0,0,0,843.58,71.6Z"/><rect class="e55230db-a91d-4d56-b1cf-362c9ffdc081" width="1500" height="200"/></svg>