<svg id="圖層_1" data-name="圖層 1" xmlns="http://www.w3.org/2000/svg" viewBox="0 0 638.08 146.88"><defs><style>.cls-1{fill:#2c3e50;stroke:#2c3e50;stroke-miterlimit:10;}.cls-2{fill:none;}</style></defs><path class="cls-1" d="M470.85,148.37H458.52q-13,0-13-13V98.88Q439.61,112,436.09,112q-5.28,0-5.28-6.56,0-2.25,2.4-6.25,14.42-25.47,18.26-61.82h-12q-7.38,0-7.37-5.77,0-6.08,7.37-6.08h38.11q7.21,0,7.21,6.08A5.24,5.24,0,0,1,483,36c-1.18.91-3,1.36-5.45,1.36H463.8l-.32,2.56a175.91,175.91,0,0,1-8.17,34.44q2.56-.33,15.54-.33t13,12.82v48.52Q483.82,148.37,470.85,148.37Zm1.28-58.14c0-2.77-1.5-4.27-4.49-4.48h-7.52a2.48,2.48,0,0,0-2.24,1,6,6,0,0,0-.65,3.2V132a4.26,4.26,0,0,0,1.13,3.28,5.33,5.33,0,0,0,3.36,1.21h5.92c2.89,0,4.38-1.5,4.49-4.49Zm104.58,63.26q0,6.57-6.09,6.57-9.6,0-24.18-4.65Q529.63,150.3,518.89,144q-6.72,6.57-19.37,11.85Q487.34,161,480.46,161q-5.61,0-5.61-6.57,0-4.48,6.73-5.76,17.44-2.88,27.71-11.37-14.75-12-14.74-20.66,0-4.48,5.61-4.49c2.45,0,4.59,1.71,6.4,5.13a39.08,39.08,0,0,0,9.93,12q4-7.53,5.61-21.62H503.36q-13.77,0-13.77-13.62V61.72Q489.59,48,503.36,48h20.18V36.42l-.16-1.76H493.11q-7,0-7.05-5.61,0-5.76,7.05-5.76H570q7,0,7,5.76,0,5.61-7,5.61H535.07V48h21.3q7.53,0,10.89,3.28t2.88,10.65V94.07q0,7.38-3.2,10.73t-10.57,2.89H533.63q-1.92,19.22-7.53,28a127.77,127.77,0,0,0,39.56,10.58Q576.71,147.4,576.71,153.49ZM501.12,72.61h22.42V58.68H505.92a4.57,4.57,0,0,0-3.6,1.36,5.49,5.49,0,0,0-1.2,3.76ZM522.9,97l.48-14.1H501.12v9.29a4.43,4.43,0,0,0,4.8,4.81Zm35.71-14.1H534.75L534.43,97h19.22a5.18,5.18,0,0,0,3.68-1.2,4.7,4.7,0,0,0,1.28-3.61ZM535.07,58.68l-.16,13.93h23.7V64a5.54,5.54,0,0,0-1.28-3.84,4.66,4.66,0,0,0-3.68-1.44Z" transform="translate(-430.31 -15.92)"/><path class="cls-1" d="M596.09,87.83V73.89q0-4.64,2-7.2a7.9,7.9,0,0,1,5.85-2.89V33.38q0-11.87,12-11.86h25q12,0,12,11.86V63.8a8.26,8.26,0,0,1,5.84,2.89,11.46,11.46,0,0,1,2.32,7.2V85.11q0,6.4-5.28,6.4t-5.29-6.4V78.86q0-4-4-4H610.82c-2.67,0-4.05,1.33-4.16,4v9q0,6.24-5.28,6.24T596.09,87.83ZM609,160.7a6.77,6.77,0,0,1-1.52-4.81V94.71q0-11.37,11.69-11.37h20.18q11.53,0,11.53,11.37v53.34q0,6.88-3.2,10.33t-9.93,3.44h-5.44a6.08,6.08,0,0,1-4.33-1.36,5.6,5.6,0,0,1-1.44-4.25q0-5.76,5.6-5.76h2.73a4.77,4.77,0,0,0,3.52-1.28,5,5,0,0,0,1.28-3.69V134.75H619v21.14q0,6.41-5.76,6.41A5.58,5.58,0,0,1,609,160.7Zm13.7-108.59q0-9.76,9.61-9.77h10.57V37.06q0-4-4.17-4.17H618.51c-2.67,0-4.11,1.45-4.32,4.33V63.64h8.49Zm17,46q0-4.17-4.16-4.17H623.16q-4.17,0-4.17,4.17v6.24h20.66Zm0,26.42v-9.93H619v9.93Zm3.21-72.07h-6.09q-3.84,0-3.84,3.69v7.52h9.93Zm11.53,101.86q0-5.28,5.28-5.28h18.9l-2.88-12.33q-5.61,0-8.65-2.49t-3-7.28V116.66q0-5,2.8-7.61t8.25-2.64H722q11.21,0,11.21,9.93v10.09q0,10.24-11.69,10.25L718.77,149h17.14q5.28,0,5.28,5.28t-5.28,5.29H659.67Q654.39,159.58,654.39,154.29Zm7.2-56.45a4.94,4.94,0,0,1-1.44-3.77q0-5.28,5.61-5.28h70.31q5.11,0,5.12,5.28t-5.12,5.13H665.76A5.83,5.83,0,0,1,661.59,97.84ZM665,78.38q-3.12-3-2.65-9.77V42.66q0-7,3.05-10.25t9.77-2.72h8.33v-8a5.39,5.39,0,0,1,1.2-3.92,4.89,4.89,0,0,1,3.6-1.2q5,0,5,5.12v8H704v-8q0-5.12,5-5.12,4.8,0,4.8,5.12v8h9.29q7,0,10.17,3t2.81,9.93v26q0,6.89-3.13,10.09t-9.85,2.72H675.21Q668.16,81.42,665,78.38ZM683.7,39.94h-6.57q-3.36,0-3.68,3.68v7.21H683.7Zm0,20H673.45v7.69c0,2.35,1.22,3.58,3.68,3.68h6.57Zm37.63,63.58v-4q0-3.53-3.52-3.68H679.37c-2.35,0-3.52,1.22-3.52,3.68v4c0,2.25,1.17,3.47,3.52,3.69h38.44C719.94,127.23,721.12,126,721.33,123.54ZM707.88,149l2.24-11.85v-.48H686.74l2.56,11.21.16,1.12ZM704.2,50.83V39.94H693.14V50.83Zm0,20.5V60H693.14V71.33Zm20.66-27.71q0-3.67-3.69-3.68h-7.53V50.83h11.22Zm0,24V60H713.64V71.33h7.53C723.63,71.33,724.86,70.11,724.86,67.65Z" transform="translate(-430.31 -15.92)"/><path class="cls-1" d="M765.54,155.73V35.94q0-7.69,3.44-11.21t11-3.21h31.87q6.88,0,10.09,3.21c2.13,2.13,3.1,5.44,2.88,9.93V60.44q0,7.05-3.12,10.25t-9.85,2.88h-34v82.16q0,6.57-6.25,6.57Q765.53,162.3,765.54,155.73ZM813.1,37.06q0-4.8-5-5h-25q-5,0-5.28,5.13v5.12H813.1Zm0,21V52.27H777.87V63.16h30.27C811.23,63.16,812.89,61.46,813.1,58Zm30.27,94.49V122.74h-22.9q-1.77,16.81-10.41,26-9,9.45-17.78,9.45-5.92,0-5.92-6.09,0-3.69,6.4-6.41,14.41-5.91,16-22.9h-17c-4.16,0-6.25-1.86-6.25-5.6s2.09-5.45,6.25-5.45h17.78L809.74,99l-.16-5H797.09q-6.26,0-6.25-5.44t6.25-5.45h71.27q6.24,0,6.24,5.61,0,5.28-6.24,5.28H855.22v17.62H874c4.16,0,6.25,1.87,6.25,5.61s-2.09,5.44-6.25,5.44H855.22v29.79q0,6.57-5.92,6.57T843.37,152.53Zm0-40.84V94.07h-22.1l.16,7.85-.32,9.77Zm24,43.72q0-6.72,6.57-6.72h6.73a7.24,7.24,0,0,0,5.2-1.76,6.78,6.78,0,0,0,1.84-5.13V73.57H851.86q-7.05,0-10.25-3.12t-2.88-10V34.66q0-6.88,3.2-10.09c2.13-2.14,5.45-3.15,9.93-3.05h33.79q7.7,0,11.13,3.45t3.29,11v108.9q0,9.3-4,13.54T883.57,162h-9.29Q867.4,162,867.39,155.41ZM887.73,37.22q0-4.8-5.28-5.13H855.38q-5,0-5,5v5.28h37.31Zm0,15.05H850.42V58q0,4.8,5,5.12h32.35Z" transform="translate(-430.31 -15.92)"/><path class="cls-1" d="M984.31,127.55q0,15-4.49,25.3a12.93,12.93,0,0,1-6.08,6.65A24.29,24.29,0,0,1,962.85,162l-13.3.16q-7.2,0-7.2-6.09c0-4.37,2.77-6.46,8.33-6.24l5,.16q10.89.48,12.81-3.2a24.65,24.65,0,0,0,2.09-6,43.18,43.18,0,0,0,.64-8.25c0-3-1.45-4.48-4.33-4.48h-23.7q-10.89,0-10.89-8.65l.48-4.49L935,101a9,9,0,0,1,3.44-6.08,12.19,12.19,0,0,1,7.45-2.09h23.06q4.34,0,4.33-4.32V83.18q0-4.32-4.33-4.32h-22.1a6.68,6.68,0,0,1-4.48-1.36,4.87,4.87,0,0,1-1.6-3.93v-.64c-3.31,1.39-6.2,2.46-8.65,3.21a14.26,14.26,0,0,1-3.05.64q-3.84,0-5.28-4.33a5.51,5.51,0,0,1-.32-2.08q0-4.49,6.09-5.92a106.11,106.11,0,0,0,23.38-8.81q-6.74-5-12.49-8.81-3-1.92-3-4.65a5,5,0,0,1,1-2.72,4.84,4.84,0,0,1,4.17-2.4A6.48,6.48,0,0,1,946,38.18a145.78,145.78,0,0,1,16.82,11.53A82.48,82.48,0,0,0,978.54,35.3a1.3,1.3,0,0,0,.32-1,.88.88,0,0,0-.32-.64,1.27,1.27,0,0,0-1-.32H940.75q-7.38,0-7.37-5.45a4.71,4.71,0,0,1,1.92-4,8.88,8.88,0,0,1,5.45-1.45h42.6a12.68,12.68,0,0,1,7.36,2.09,6.21,6.21,0,0,1,3,5.28A7.86,7.86,0,0,1,992.32,34q-14.1,21.3-40.68,34.27h21.78c3.84,0,6.75,1,8.73,3s3,5,3,9v11q0,5.93-3,9t-8.73,3H950a5,5,0,0,0-3,1l-1.44,6.09-.64,4.48v.32c0,1.39,1.17,2.09,3.52,2.09h24.19Q984.31,117.3,984.31,127.55Zm81.84,27.86q0,6.26-6.89,6.25-18.73,0-38.76-11.69-21.93,12.33-33,12.33-5.93,0-5.92-6.09c0-3.2,3.3-5.5,9.93-6.88a76.09,76.09,0,0,0,19.05-6.57q-12.48-10.41-12.49-16.49a4.07,4.07,0,0,1,1.6-3.45,7.37,7.37,0,0,1,4.49-1.2c2.35,0,4.37,1.28,6.08,3.84A47.35,47.35,0,0,0,1020.82,137a69.13,69.13,0,0,0,11.54-10.09q5.12-5.61,5.12-6.09c0-.85-.59-1.28-1.76-1.28h-40q-6.4,0-6.41-5.29t6.41-5.28h47.57q11.2,0,11.21,6.57,0,3.84-7.69,12.81a102.28,102.28,0,0,1-15.54,14.41q11.22,5.13,27.55,6.57Q1066.15,150,1066.15,155.41Zm-25.63-77.19V90.55c0,2.46,1.28,3.68,3.85,3.68h5.12c3,0,4.65-1.86,5-5.6s2.24-5.45,5.76-5.45q5.77,0,5.77,5.61,0,15.85-13.13,15.85H1040.2q-5.28,0-8.24-2.16a7.86,7.86,0,0,1-3.29-6V81.42q0-4.32-4.32-4.32h-10.57q-4,0-4.49,5.44-1,11.86-7.36,18.58-5.61,5.76-10.73,5.77-5.78,0-5.77-5.93,0-3.67,3.84-6.08a19.66,19.66,0,0,0,6.81-6.57,17.69,17.69,0,0,0,2-8.81q0-13.12,11.69-13.13h18.9Q1040.52,66.37,1040.52,78.22Zm25.15-14.5a6,6,0,0,1,1.76,4.25,9.06,9.06,0,0,1-.48,2.88c-1.07,3.1-3.36,4.65-6.89,4.65a14.81,14.81,0,0,1-4.32-.64q-18.26-5.3-30.75-14.74A119.58,119.58,0,0,1,1007.69,44a79.79,79.79,0,0,1-12.33-18,9.13,9.13,0,0,1-1.12-4q0-3.19,3.52-4.64a6,6,0,0,1,2.72-.64c2.14,0,4.06,1.5,5.77,4.48a93.19,93.19,0,0,0,10.25,14.9,124.76,124.76,0,0,0,11.37-14.26q2.4-3.36,5.29-3.36a6.38,6.38,0,0,1,3.84,1.44q2.71,1.92,2.72,4.33a7.7,7.7,0,0,1-2.08,4.64A81.67,81.67,0,0,1,1023.23,43a77.21,77.21,0,0,0,8.32,6.89,155.64,155.64,0,0,0,16-13.77q3-3,5.61-3.05a5.69,5.69,0,0,1,4,1.93,5.66,5.66,0,0,1,1.92,4q0,2.57-3.2,5.29a140.15,140.15,0,0,1-14.74,11c2.67,1.06,5.77,2.11,9.29,3.12s6.89,1.9,10.09,2.64A10.28,10.28,0,0,1,1065.67,63.72Z" transform="translate(-430.31 -15.92)"/><rect class="cls-2" x="0.34" width="637.74" height="146.86"/></svg>