<svg id="ad2ed0ce-d6c9-416a-83b1-8b73824008a1" data-name="圖層 1" xmlns="http://www.w3.org/2000/svg" viewBox="0 0 1500 200"><defs><style>.a6588b0f-579b-494c-9cc1-3c0d015cdaec{fill:none;}.a39434ba-ac49-4b68-9ed8-c53ae607857b{fill:#2c3e50;}</style></defs><rect class="a6588b0f-579b-494c-9cc1-3c0d015cdaec" width="1500" height="200"/><path id="e4a37efa-f2c6-4cc3-a546-cc8ae48d0221" data-name="icon" class="a39434ba-ac49-4b68-9ed8-c53ae607857b" d="M152.23,155.14H122.39a2.91,2.91,0,0,1,0-5.82h26.93V50.68H92.4V60.92a2.91,2.91,0,0,1-5.82,0V47.77a2.91,2.91,0,0,1,2.91-2.91h62.74a2.91,2.91,0,0,1,2.91,2.91h0V152.23a2.91,2.91,0,0,1-2.91,2.91Zm-62.74,0H68.64a2.91,2.91,0,0,1,0-5.82H86.58V136H47.77a2.91,2.91,0,0,1-2.91-2.91h0V73.37a2.91,2.91,0,0,1,2.91-2.91h83.45a2.9,2.9,0,0,1,2.9,2.9h0v59.69a2.9,2.9,0,0,1-2.89,2.91H92.4v13.35h17.95a2.91,2.91,0,1,1,0,5.82H89.49Zm0-25h38.82V76.27H50.68v53.88Zm22.86-18.55H66.63a2.91,2.91,0,0,1,0-5.82h45.72a2.91,2.91,0,1,1,0,5.82Zm-10.29-11H76.92a2.91,2.91,0,1,1-.34-5.81,1.93,1.93,0,0,1,.34,0h25.14a2.91,2.91,0,1,1,.34,5.81Z"/><path class="a39434ba-ac49-4b68-9ed8-c53ae607857b" d="M270.85,134.75v-40a76.71,76.71,0,0,1-5.74,14.71q-3.53,7.14-5.94,7.15-3.63,0-3.63-4.23c0-1.08.67-2.55,2-4.43A80.61,80.61,0,0,0,270,80.56h-9.16q-4.74,0-4.74-3.82c0-2.55,1.58-3.82,4.74-3.83h10V59.11a105.7,105.7,0,0,1-11.08,1.21q-3.63,0-3.63-4.23a2.68,2.68,0,0,1,1.61-2.72A33.74,33.74,0,0,1,265,52.06a117.19,117.19,0,0,0,19.23-3.32l2-.3a3.8,3.8,0,0,1,3.37.85,4.59,4.59,0,0,1,1.16,3.38A3.43,3.43,0,0,1,289,55.49q-1.9,1.3-10.37,2.61V72.91h7.25q4.74,0,4.74,3.83c0,2.55-1.58,3.83-4.74,3.82H278.6v13A3,3,0,0,1,281.32,92a5,5,0,0,1,2.62,1.51A31.07,31.07,0,0,1,287.87,98c2.95,4,4.42,6.48,4.43,7.55q0,3.53-3.43,3.52-1.71,0-3.72-3.22a77.12,77.12,0,0,0-5.54-7.65l-1-1.71v38.27q0,4.53-3.93,4.53T270.85,134.75Zm14.8-3.43c0-2.42,1.31-3.62,3.93-3.62h23.56V115.81H297q-3.93,0-3.93-3.52c0-2.35,1.31-3.52,3.93-3.53h16.11V98.39L296.93,99.5a5.07,5.07,0,0,1-3.52-.91,3.7,3.7,0,0,1-1.21-3,3.17,3.17,0,0,1,1.31-2.82c.87-.67,3.56-1,8.05-1.11A230,230,0,0,0,335,88.52l1.31-.2a3.51,3.51,0,0,1,3.17.85,4.48,4.48,0,0,1,1.16,3.28c0,1.61-1.48,2.79-4.43,3.52q-1.62.41-15,1.81v11H338q3.83,0,3.83,3.53t-3.83,3.5H321.2V127.7h22.36c2.68,0,4,1.24,4,3.72s-1.35,3.63-4,3.63h-54C287,135.05,285.65,133.8,285.65,131.32Zm9.06-48.94c-1.41-1.33-2-3.52-1.81-6.55V61q0-4.64,2.07-6.75c1.37-1.41,3.54-2,6.49-1.81h31.62c3.09,0,5.34.68,6.75,2.06s2,3.54,1.82,6.5V75.8c0,3.16-.68,5.42-2,6.8s-3.52,2-6.55,1.76H301.46Q296.83,84.39,294.71,82.38Zm39.18-8.56V63q0-3.12-3.32-3.32H303.78c-2.08,0-3.19,1.1-3.32,3.32V73.82c0,2.08,1.1,3.19,3.32,3.32h26.79c2.15,0,3.25-1.14,3.32-3.32Z"/><path class="a39434ba-ac49-4b68-9ed8-c53ae607857b" d="M410.68,118.38a4.55,4.55,0,0,1,1,3.17,3.34,3.34,0,0,1-1.41,2.72c-.81.61-2.92,1.21-6.35,1.81L388.78,129,366,132.43l-2.82.3a3.49,3.49,0,0,1-3.08-1,5,5,0,0,1-1.05-3.47c0-1.68.5-2.82,1.51-3.42a16.92,16.92,0,0,1,5.44-1.21q3.92-.41,14.5-1.82V95.07H367.1q-4.83,0-4.83-3.93t4.83-3.93h34.95c3.22,0,4.84,1.31,4.84,3.93s-1.62,3.93-4.84,3.93H388.58v25.68l19.33-3.13A2.87,2.87,0,0,1,410.68,118.38Zm39.63-1.76a39.51,39.51,0,0,1-2.72,14.7Q445,138,440.84,138q-5.54,0-13-10.07A76.81,76.81,0,0,1,416.37,104a140.77,140.77,0,0,1-5.24-32.23H364.3q-4.83,0-4.83-4c0-2.62,1.61-3.92,4.83-3.92h46.43l-.3-11.49c-.07-3.15,1.34-4.72,4.23-4.73s4.13,2,4.13,6V63.85h25.68c3.42,0,5.14,1.34,5.14,4s-1.72,3.93-5.14,3.93H419.29q1.11,18.43,5.54,31.82t11.48,21.26c1.28,1.47,2.28,2.21,3,2.21s1.48-.89,2-2.67a47.07,47.07,0,0,0,1.31-8.51,3.55,3.55,0,0,1,1-2.62,4.28,4.28,0,0,1,2.77-.8C449,112.48,450.3,113.87,450.31,116.62ZM431.38,56.8c-2-2.49-3-4-3-4.64,0-2.35,1.37-3.52,4.13-3.52,1.2,0,2.95,1.27,5.23,3.83,2.15,2.35,3.22,4.1,3.22,5.23,0,2.35-1.37,3.52-4.12,3.53Q435,61.23,431.38,56.8Z"/><path class="a39434ba-ac49-4b68-9ed8-c53ae607857b" d="M461.69,68.88c0-2.48,1.48-3.73,4.43-3.73h27.09c3,0,4.54,1.25,4.54,3.73s-1.52,3.73-4.54,3.73H466.12C463.17,72.61,461.7,71.37,461.69,68.88Zm3.63-13.59c0-2.49,1.44-3.74,4.33-3.73h20.44q4.43,0,4.43,3.73c0,2.49-1.48,3.72-4.43,3.71H469.65Q465.32,59,465.32,55.29Zm2.21,78q-2.11-2-2.11-6v-13.9q0-8.15,8.36-8.15h12q8.46,0,8.46,8.15v13.7a8.18,8.18,0,0,1-2.17,6.14c-1.44,1.41-3.54,2.11-6.29,2.12h-12q-4.14,0-6.25-2Zm-1.91-51.16a3.31,3.31,0,0,1,1.11-2.71,4.92,4.92,0,0,1,3.22-.91h19.84a5.22,5.22,0,0,1,3.27.91,3.23,3.23,0,0,1,1.16,2.71q0,3.74-4.43,3.73H470q-4.38,0-4.38-3.69Zm0,13.4q0-3.63,4.33-3.63h19.84c2.95,0,4.43,1.25,4.43,3.73a3.26,3.26,0,0,1-1.16,2.72,5.21,5.21,0,0,1-3.27.9H470.15q-4.53,0-4.53-3.68Zm20.75,30.21v-11a2.13,2.13,0,0,0-1.81-2.41,2.08,2.08,0,0,0-.61,0h-8.26c-1.68,0-2.52.8-2.52,2.41v11.08a2.23,2.23,0,0,0,1.9,2.52,2.15,2.15,0,0,0,.62,0H484c1.56,0,2.37-.84,2.37-2.52Zm8.35,8.36q0-3.12,5.95-4.73a57.22,57.22,0,0,0,16.61-7.15V122a44.84,44.84,0,0,1-6.95-9.37,42.53,42.53,0,0,1-2.51-4.83,8.76,8.76,0,0,1-.81-3.33c0-1.94,1.41-2.92,4.23-2.92,1.75,0,3.09,1.41,4,4.23a38.16,38.16,0,0,0,8.26,11.48h.2a60.63,60.63,0,0,0,9-10q2-2.61,3.32-4.58a6.89,6.89,0,0,0,1.31-2.57c0-.94-.63-1.41-1.91-1.41H503.69a5.46,5.46,0,0,1-3.43-1A3.44,3.44,0,0,1,499.05,95q0-3.72,4.64-3.72H539q8.76,0,8.76,5.54,0,3-6,11.68A75.8,75.8,0,0,1,530.17,122v.3q7.16,4.13,19.64,7.15,3.83.9,3.83,4.13c0,3.08-1.41,4.63-4.23,4.63q-4.53,0-12-3.12a84.08,84.08,0,0,1-13.89-7.56h-.2a90.77,90.77,0,0,1-14,7.46q-7.67,3.31-10.88,3.32c-2.44,0-3.72-1.42-3.72-4.17Zm3.63-50a4,4,0,0,1,1.81-3.22,13.68,13.68,0,0,0,5.44-7.46q1-3.72,1-15.41,0-7.24,7.85-7.25h14.61q7.76,0,7.75,7.56V75.23q0,3,3.63,3a12.44,12.44,0,0,0,2.92-.25,1.82,1.82,0,0,0,1.21-.86,15.47,15.47,0,0,0,.9-5.84c.14-3.09,1.34-4.63,3.63-4.63,2.62,0,3.92,1.24,3.92,3.72,0,7.66-1.17,12.15-3.52,13.5-1.81,1-5.14,1.51-10,1.51q-10.17,0-10.17-5.94V61.73q0-3.23-3.43-3.42H517c-1.41,0-2.28.37-2.62,1.1q-.6,1.41-.6,6.45,0,8.76-2.42,13.19-4.83,8.86-9.47,8.87-3.57,0-3.58-3.83Z"/><path class="a39434ba-ac49-4b68-9ed8-c53ae607857b" d="M569,72.81q-4.23,0-4.23-3.83T569,65.05h32q4.23,0,4.23,3.93T601,72.81Zm-.41-17.73q0-3.82,4.13-3.82H597a4.5,4.5,0,0,1,3.13,1,3.78,3.78,0,0,1,1.1,2.92c0,2.56-1.41,3.83-4.23,3.83H572.67q-4.12,0-4.13-3.93Zm32.13,58.31V128.1q0,8.06-8.16,8.05H576.8q-8.16,0-8.16-8.05V113.39q0-8.06,8.16-8h15.71q8.16,0,8.16,8Zm-4-34.64q4.13,0,4.13,3.73t-4.13,3.72H572.87q-4,0-4-3.72t4-3.73Zm4.43,16.92c0,2.48-1.37,3.73-4.13,3.73H572.87c-2.68,0-4-1.25-4-3.73s1.34-3.73,4-3.73h24.07c2.76,0,4.13,1.25,4.13,3.73ZM593,115.31a2.83,2.83,0,0,0-.61-2,2.77,2.77,0,0,0-2-.6H579a2.68,2.68,0,0,0-1.92.6,3.09,3.09,0,0,0-.7,2v10.87a2.77,2.77,0,0,0,.6,2,3.09,3.09,0,0,0,2,.7H590.3a2.45,2.45,0,0,0,1.91-.65,3.37,3.37,0,0,0,.71-2.07Zm63.54-31.62q0,3.72-4.33,3.72h-17.9V134a6.59,6.59,0,0,1-1,4.08,5,5,0,0,1-6.65,0,6.59,6.59,0,0,1-1-4.08V87.41h-17c-3,0-4.44-1.27-4.44-3.83s1.48-3.82,4.44-3.82h17V52.87a6.44,6.44,0,0,1,1.05-4,4.88,4.88,0,0,1,6.6,0,6.59,6.59,0,0,1,1,4.08V79.76h17.82q4.33,0,4.33,3.93Z"/><path class="a39434ba-ac49-4b68-9ed8-c53ae607857b" d="M741.46,125.28a54.75,54.75,0,0,1-9.77-32.13A56,56,0,0,1,743.07,59q8.76-11.88,13.5-11.88,3.72,0,3.72,3.52c0,1.35-1.1,2.82-3.32,4.43A45.21,45.21,0,0,0,744.08,71.6a50.23,50.23,0,0,0-4.93,21.85q0,23.37,18.53,38.58,2.61,2.31,2.61,3.72c0,2.49-1.2,3.73-3.62,3.73Q751.33,139.48,741.46,125.28Z"/><path class="a39434ba-ac49-4b68-9ed8-c53ae607857b" d="M771.78,92.14c0-3.08,1.87-4.63,5.64-4.63h79.66c3.75,0,5.64,1.58,5.64,4.74s-1.89,4.53-5.64,4.53H777.42C773.65,96.78,771.78,95.23,771.78,92.14Z"/><path class="a39434ba-ac49-4b68-9ed8-c53ae607857b" d="M874.1,135.85q0-1.71,3.22-4.33A46,46,0,0,0,890.21,115a50.27,50.27,0,0,0,4.93-21.86q0-24-18.63-38.77-2.41-1.92-2.41-3.73,0-3.53,3.72-3.52,5.23,0,15.11,14.2a55.63,55.63,0,0,1,9.67,31.82,56.63,56.63,0,0,1-11.18,34.24q-9.06,12.09-13.7,12.09C875.3,139.48,874.1,138.27,874.1,135.85Z"/><rect class="a6588b0f-579b-494c-9cc1-3c0d015cdaec" width="1000" height="200"/></svg>