<svg id="b404b0aa-c8c3-4d82-8d00-2adf89ae0b18" data-name="圖層 1" xmlns="http://www.w3.org/2000/svg" viewBox="0 0 1500 200"><defs><style>.a04bc309-b6a4-4424-b6c6-b83e673296d3,.b29777ff-bf6d-4122-a476-a26c8132f75e{fill:#2c3e50;}.b29777ff-bf6d-4122-a476-a26c8132f75e{stroke:#2c3e50;stroke-miterlimit:10;stroke-width:2px;}.e4d64828-4597-4ded-b2d1-071e22cac4c2{fill:none;}</style></defs><path id="b003e3d3-a260-461a-b395-afaa16c92989" data-name="icon" class="b29777ff-bf6d-4122-a476-a26c8132f75e" d="M152.23,155.14H122.39a2.91,2.91,0,0,1,0-5.82h26.93V50.68H92.4V60.92a2.91,2.91,0,0,1-5.82,0V47.77a2.91,2.91,0,0,1,2.91-2.91h62.74a2.91,2.91,0,0,1,2.91,2.91h0V152.23a2.91,2.91,0,0,1-2.91,2.91Zm-62.74,0H68.64a2.91,2.91,0,0,1,0-5.82H86.58V136H47.77a2.91,2.91,0,0,1-2.91-2.91h0V73.37a2.91,2.91,0,0,1,2.91-2.91h83.45a2.9,2.9,0,0,1,2.9,2.9h0v59.69a2.9,2.9,0,0,1-2.89,2.91H92.4v13.35h17.95a2.91,2.91,0,1,1,0,5.82H89.49Zm0-25h38.82V76.27H50.68v53.88Zm22.86-18.55H66.63a2.91,2.91,0,0,1,0-5.82h45.72a2.91,2.91,0,1,1,0,5.82Zm-10.29-11H76.92a2.91,2.91,0,1,1-.34-5.81,1.93,1.93,0,0,1,.34,0h25.14a2.91,2.91,0,1,1,.34,5.81Z"/><path class="a04bc309-b6a4-4424-b6c6-b83e673296d3" d="M294.92,128.2q-7.16,4.94-9.17,4.93c-3.36,0-5-2.18-5-6.54V110.47h-5.54q-.92,11.9-6.55,18.84-5.75,7.24-9.36,7.25c-2.49,0-3.73-1.25-3.73-3.73,0-1.07.8-2.18,2.42-3.32q7.74-5.64,9.26-12.29c.07-.47.27-1.41.61-2.82a23.22,23.22,0,0,0,.6-3.93c-3.16.14-5.42-.41-6.8-1.66s-2-3.27-1.86-6.09V93.86q0-4.23,1.86-6.15t6-1.61h21.46q4.32,0,6.24,1.82t1.61,5.94v8.86q0,4.23-1.86,6.09c-1.25,1.25-3.24,1.8-6,1.66h-1.31v11.38c0,.94.36,1.41,1.1,1.41.34,0,2.55-1.44,6.65-4.33a7.83,7.83,0,0,1,3.22-1.51q3.22,0,3.23,3.23Q302,123.26,294.92,128.2ZM255.64,77.84q0-3.32,3.73-3.32h6.84q-1-5.94-2.61-12.08h-3q-3.72,0-3.72-3.33t3.72-3.32h14.1V50.85q0-3.42,3.83-3.42t3.83,3.42v4.94h12.38q3.44,0,3.43,3.32t-3.43,3.33H292.1l-2.62,12.08h5.44q3.61,0,3.62,3.32t-3.62,3.43H259.37Q255.64,81.27,255.64,77.84Zm31.22,26.09c1.81,0,2.72-.94,2.72-2.82V95.47a2.83,2.83,0,0,0-.66-2.07,3.18,3.18,0,0,0-2.06-.75h-17c-1.81,0-2.72.94-2.72,2.82v5.64a2.57,2.57,0,0,0,2.72,2.82ZM270.44,62.44a77.28,77.28,0,0,1,2.62,12.08h9.77a118.93,118.93,0,0,0,2.32-12.08ZM347.49,123q0,7.86-2.12,11t-10.57,3.22q-10.68,0-10.68-6V110.47h-5.94q-1,11.9-6.75,18.33-8.55,9.57-14.8,9.57-3.44,0-3.43-3.73a3.77,3.77,0,0,1,2.72-3.62q14-5.75,15.21-20.55-4.53.21-6.55-1.71c-1.34-1.27-1.94-3.29-1.81-6V93.86q0-4.23,1.86-6.15c1.25-1.27,3.24-1.81,6-1.61H335c2.88,0,4.95.61,6.19,1.82s1.8,3.18,1.66,5.94v8.86q0,4.23-1.86,6.09t-6,1.66h-3.73v16.62q0,2.92,4.23,2.92c2.22,0,3.56-.4,4-1.21s.81-2.28.81-4.43q0-5.24,3.52-5.24T347.49,123ZM299.65,77.84q0-3.32,3.63-3.32h7.35q-.92-5.74-2.12-11.08l-.2-1h-4.23q-3.52,0-3.52-3.33t3.52-3.32h15.21V50.85q0-3.42,3.93-3.42T327,50.85v4.94h15.21c2.48,0,3.73,1.11,3.73,3.32s-1.25,3.33-3.73,3.33h-5.14a109.89,109.89,0,0,1-2.21,12.08h8.76q3.82,0,3.83,3.32t-3.83,3.43H303.28Q299.65,81.27,299.65,77.84Zm33,26.09q2.63,0,2.82-2.82V95.47a2.71,2.71,0,0,0-.7-2.07,3.45,3.45,0,0,0-2.12-.75H312.84c-1.81,0-2.72.94-2.72,2.82v5.64a2.57,2.57,0,0,0,2.72,2.82ZM315.06,62.44l2.62,12.08h10.47a103.1,103.1,0,0,0,1.91-12.08Z"/><path class="a04bc309-b6a4-4424-b6c6-b83e673296d3" d="M360.58,134.14c0-2.89,1.37-4.33,4.13-4.33h3.72c2.35,0,3.59-1.27,3.73-3.83V104.73L364.91,107l-2.62.5c-2.42,0-3.62-1.44-3.62-4.33,0-2.41,2.08-4.06,6.24-4.93l7.25-1.92V74.42h-9.37q-3.82,0-3.82-4,0-3.83,3.82-3.83h9.37V51.16c0-2.76,1.34-4.13,4-4.13s4.13,1.37,4.13,4.13v15.4h5.74q3.93,0,3.93,3.93a3.43,3.43,0,0,1-3.93,3.93h-5.74V94.16l3.82-1.31a15.61,15.61,0,0,1,3.53-.91c2.21,0,3.32,1.35,3.32,4q0,2.41-2.92,3.53l-7.75,2.72V128.4c.26,3.49-.47,6.09-2.22,7.81s-4.4,2.46-8,2.26h-5.44C362,138.47,360.58,137,360.58,134.14Zm24.07-.4c0-2.35,1.84-4,5.54-4.94a66.82,66.82,0,0,0,21.75-9.56,55.21,55.21,0,0,1-8.76-11.79c-1.28-2.41-2.23-4.41-2.87-6a11.2,11.2,0,0,1-1-4.08q0-3.61,3.83-3.62c2.08,0,3.56,1.37,4.43,4.13a38.68,38.68,0,0,0,10.68,16.31A53.89,53.89,0,0,0,428.15,102q5-8.36,5-10.07c0-1.07-.67-1.61-2-1.61H398q-4.73,0-4.73-3.82T398,82.78h15.81V69.49H395.12c-3.29,0-4.93-1.35-4.93-4s1.64-3.93,4.93-3.93h18.73V52.37q0-4.93,4.13-4.94t4,4.94v9.16h21.35c3.16,0,4.73,1.34,4.73,4s-1.57,3.93-4.73,3.93H422V82.78h13.4q3.91,0,5.79,1.26a4.36,4.36,0,0,1,1.86,3.88q0,4-6.24,14.8-6.45,11.09-12.19,16.52,7.65,5.33,19.74,8.76a12,12,0,0,1,4.58,2.11,3.7,3.7,0,0,1,1.56,2.82q0,4.53-4.23,4.53-2.82,0-12-3.52a70,70,0,0,1-16.12-9,89.73,89.73,0,0,1-16.81,9.46q-9.27,3.74-12.59,3.73C386,138.17,384.65,136.69,384.65,133.74Z"/><path class="a04bc309-b6a4-4424-b6c6-b83e673296d3" d="M477.1,134.75v-40a76.72,76.72,0,0,1-5.74,14.71q-3.53,7.14-5.94,7.15-3.63,0-3.63-4.23c0-1.08.67-2.55,2-4.43a80.58,80.58,0,0,0,12.48-27.4h-9.16c-3.16,0-4.73-1.27-4.73-3.82s1.57-3.83,4.73-3.83h10V59.11A104.15,104.15,0,0,1,466,60.32c-2.42,0-3.62-1.41-3.62-4.23A2.68,2.68,0,0,1,464,53.37a33.13,33.13,0,0,1,7.25-1.31,118.06,118.06,0,0,0,19.23-3.32l2-.3a3.8,3.8,0,0,1,3.37.85A4.6,4.6,0,0,1,497,52.67a3.42,3.42,0,0,1-1.81,2.82q-1.92,1.3-10.38,2.62v14.8h7.26q4.72,0,4.73,3.83t-4.73,3.82h-7.26v13A3,3,0,0,1,487.57,92a4.87,4.87,0,0,1,2.62,1.52A30.72,30.72,0,0,1,494.12,98q4.42,5.94,4.43,7.55,0,3.52-3.42,3.52-1.72,0-3.73-3.22a76.3,76.3,0,0,0-5.54-7.65l-1-1.71v38.27q0,4.53-3.92,4.53C478.37,139.28,477.1,137.77,477.1,134.75Zm14.8-3.43c0-2.42,1.31-3.62,3.93-3.62H519.4V115.81H503.28q-3.91,0-3.92-3.52t3.92-3.53H519.4V98.39L503.18,99.5a5.05,5.05,0,0,1-3.52-.91,3.69,3.69,0,0,1-1.21-3,3.19,3.19,0,0,1,1.31-2.82q1.31-1,8.06-1.11a230.19,230.19,0,0,0,33.43-3.12l1.31-.2a3.5,3.5,0,0,1,3.17.85,4.47,4.47,0,0,1,1.16,3.28q0,2.42-4.43,3.52-1.61.41-15,1.82v11h16.82q3.83,0,3.83,3.53t-3.83,3.52H527.45V127.7h22.36q4,0,4,3.72t-4,3.63h-54C493.21,135.05,491.9,133.8,491.9,131.32ZM501,82.38c-1.41-1.35-2-3.53-1.81-6.55V61c0-3.09.68-5.34,2.06-6.75s3.54-2,6.5-1.81h31.62c3.09,0,5.34.68,6.75,2.06s2,3.54,1.81,6.5v14.8c0,3.16-.67,5.42-2,6.8s-3.52,2-6.54,1.76H507.72Q503.09,84.39,501,82.38Zm39.17-8.56V63c0-2.08-1.1-3.19-3.32-3.32H510c-2.08,0-3.19,1.1-3.32,3.32V73.82q0,3.12,3.32,3.32h26.79Q540,77.14,540.14,73.82Z"/><path class="a04bc309-b6a4-4424-b6c6-b83e673296d3" d="M616.93,118.38a4.57,4.57,0,0,1,1,3.17,3.34,3.34,0,0,1-1.41,2.72c-.8.61-2.92,1.21-6.34,1.81L595,129l-22.76,3.43-2.82.3a3.46,3.46,0,0,1-3.07-1,5,5,0,0,1-1.06-3.47c0-1.68.5-2.82,1.51-3.42a17,17,0,0,1,5.44-1.21q3.93-.4,14.5-1.82V95.07H573.38c-3.22,0-4.84-1.31-4.84-3.93s1.62-3.93,4.84-3.93h34.94q4.84,0,4.84,3.93t-4.84,3.93H594.83v25.68l19.34-3.13A2.83,2.83,0,0,1,616.93,118.38Zm39.63-1.76a39.32,39.32,0,0,1-2.72,14.7Q651.23,138,647.1,138q-5.55,0-13-10.07A76.42,76.42,0,0,1,622.62,104a140.75,140.75,0,0,1-5.23-32.23H570.56q-4.84,0-4.84-4t4.84-3.92H617l-.3-11.48c-.06-3.16,1.34-4.74,4.23-4.74s4.13,2,4.13,6V63.85h25.68q5.14,0,5.14,4t-5.14,3.93H625.54q1.11,18.44,5.54,31.83t11.48,21.25c1.28,1.47,2.29,2.21,3,2.21s1.47-.89,2-2.67a46.07,46.07,0,0,0,1.31-8.51,3.52,3.52,0,0,1,1.06-2.62,4.22,4.22,0,0,1,2.77-.8Q656.57,112.49,656.56,116.62ZM637.63,56.8c-2-2.49-3-4-3-4.64,0-2.35,1.37-3.52,4.13-3.52q1.82,0,5.23,3.83,3.22,3.53,3.23,5.23,0,3.52-4.13,3.53Q641.26,61.23,637.63,56.8Z"/><path class="a04bc309-b6a4-4424-b6c6-b83e673296d3" d="M667.94,68.88q0-3.72,4.44-3.72h27.09q4.53,0,4.53,3.72t-4.53,3.73H672.38Q667.94,72.61,667.94,68.88Zm3.63-13.59q0-3.74,4.33-3.73h20.44q4.44,0,4.44,3.73T696.34,59H675.9Q671.57,59,671.57,55.29Zm2.22,78q-2.12-2-2.12-6v-13.9q0-8.15,8.36-8.15h12q8.46,0,8.46,8.15v13.7a8.2,8.2,0,0,1-2.16,6.14c-1.45,1.41-3.54,2.12-6.3,2.12H680Q675.91,135.35,673.79,133.33Zm-1.92-51.16A3.29,3.29,0,0,1,673,79.46a4.94,4.94,0,0,1,3.22-.91H696a5.2,5.2,0,0,1,3.28.91,3.23,3.23,0,0,1,1.15,2.71c0,2.49-1.47,3.73-4.43,3.73H676.2Q671.86,85.9,671.87,82.17Zm0,13.4q0-3.63,4.33-3.63H696c3,0,4.43,1.25,4.43,3.73a3.24,3.24,0,0,1-1.15,2.72,5.27,5.27,0,0,1-3.28.91H676.4C673.38,99.3,671.87,98.05,671.87,95.57Zm20.75,30.21V114.7a2.13,2.13,0,0,0-2.42-2.41h-8.26c-1.68,0-2.52.8-2.52,2.41v11.08a2.23,2.23,0,0,0,2.52,2.52h8.26C691.81,128.3,692.62,127.46,692.62,125.78Zm8.36,8.36q0-3.12,5.94-4.73a57.48,57.48,0,0,0,16.62-7.15v-.2a43.93,43.93,0,0,1-6.95-9.37,43.12,43.12,0,0,1-2.52-4.83,8.81,8.81,0,0,1-.81-3.33c0-1.94,1.41-2.92,4.23-2.92q2.63,0,4,4.23a38.2,38.2,0,0,0,8.26,11.48h.2a60.78,60.78,0,0,0,9-10c1.35-1.74,2.45-3.27,3.33-4.58a7,7,0,0,0,1.31-2.57q0-1.41-1.92-1.41H709.94a5.42,5.42,0,0,1-3.42-1A3.44,3.44,0,0,1,705.31,95q0-3.73,4.63-3.73h35.35q8.76,0,8.76,5.54,0,3-6,11.68A76.6,76.6,0,0,1,736.43,122v.3q7.14,4.13,19.63,7.15c2.56.6,3.83,2,3.83,4.13,0,3.08-1.41,4.63-4.23,4.63q-4.53,0-12-3.12a84.27,84.27,0,0,1-13.9-7.56h-.2a90.66,90.66,0,0,1-14,7.46q-7.65,3.31-10.88,3.32Q701,138.27,701,134.14Zm3.62-50a4,4,0,0,1,1.82-3.22,13.71,13.71,0,0,0,5.43-7.46q1-3.72,1-15.41,0-7.24,7.86-7.25h14.6q7.75,0,7.75,7.56V75.23q0,3,3.63,3a12.47,12.47,0,0,0,2.92-.25,1.82,1.82,0,0,0,1.21-.86,15.36,15.36,0,0,0,.9-5.84q.21-4.64,3.63-4.63,3.93,0,3.93,3.72c0,7.66-1.18,12.15-3.53,13.5-1.81,1-5.13,1.51-10,1.51q-10.17,0-10.17-5.94V61.73q0-3.23-3.42-3.42h-8.87c-1.41,0-2.28.37-2.61,1.1-.41,1-.61,3.09-.61,6.45q0,8.76-2.42,13.19-4.83,8.86-9.46,8.87Q704.6,87.92,704.6,84.09Z"/><path class="a04bc309-b6a4-4424-b6c6-b83e673296d3" d="M775.2,72.81Q771,72.81,771,69t4.23-3.93h32c2.82,0,4.24,1.31,4.24,3.93s-1.42,3.83-4.24,3.83Zm-.4-17.73c0-2.55,1.37-3.82,4.13-3.82H803.3a4.48,4.48,0,0,1,3.12,1,3.77,3.77,0,0,1,1.11,2.93q0,3.83-4.23,3.82H778.93C776.17,59,774.8,57.7,774.8,55.08Zm32.12,58.31V128.1q0,8.06-8.15,8.05H783.05q-8.14,0-8.15-8.05V113.39q0-8.06,8.15-8h15.72Q806.92,105.34,806.92,113.39Zm-4-34.64c2.76,0,4.13,1.24,4.13,3.73s-1.37,3.72-4.13,3.72H779.13q-4,0-4-3.72t4-3.73Zm4.44,16.92c0,2.48-1.38,3.73-4.13,3.73H779.13c-2.69,0-4-1.25-4-3.73s1.34-3.73,4-3.73H803.2C806,91.94,807.33,93.19,807.33,95.67Zm-8.16,19.64a2.22,2.22,0,0,0-2.62-2.62H785.27a2.62,2.62,0,0,0-1.91.6,3.12,3.12,0,0,0-.71,2v10.87a2.74,2.74,0,0,0,.61,2,3.07,3.07,0,0,0,2,.7h11.28a2.47,2.47,0,0,0,1.91-.65,3.32,3.32,0,0,0,.71-2.07Zm63.55-31.62q0,3.72-4.34,3.72H840.56V134a6.57,6.57,0,0,1-1,4.08,5,5,0,0,1-6.64,0,6.5,6.5,0,0,1-1-4.08V87.41h-17c-3,0-4.43-1.27-4.43-3.83s1.47-3.82,4.43-3.82h17V52.87a6.32,6.32,0,0,1,1.06-4,4,4,0,0,1,3.27-1.31,4,4,0,0,1,3.32,1.26,6.57,6.57,0,0,1,1,4.08V79.76h17.82Q862.71,79.76,862.72,83.69Z"/><rect class="e4d64828-4597-4ded-b2d1-071e22cac4c2" width="1500" height="200"/></svg>