<svg id="圖層_1" data-name="圖層 1" xmlns="http://www.w3.org/2000/svg" viewBox="0 0 801.62 147.22"><defs><style>.cls-1{fill:#2c3e50;stroke:#2c3e50;stroke-miterlimit:10;}.cls-2{fill:none;}</style></defs><path class="cls-1" d="M426.32,106.89v47.56q0,7.53-6.56,7.53a6.5,6.5,0,0,1-5.05-1.84c-1.12-1.23-1.68-3.12-1.68-5.69v-46.6q-36,2.24-56.21,2.88-6.26.17-6.25-6.89,0-4.16,3-5.6,2.25-1.12,17.3-1.12,13.93,0,27.07-.8l7.52-7.53,1-.48q-20.18-14.41-32.83-21-9.93-5.13-9.93-8.65a6.31,6.31,0,0,1,1.68-4.8c1.13-1.07,2.91-1.61,5.37-1.61,1.49,0,3.42.75,5.77,2.25l7,3.84,5.13,3L405,38.34l-18.57,1.6L361,41.06q-6.41.16-6.41-6.56,0-6.26,9.77-6.25h7.37q58.46-2.23,91-9.61,8-1.92,9.93-1.92,7.36,0,7.37,7.37,0,3.36-3.69,5.12a32,32,0,0,1-6.8,1.68q-5.06.88-11.61,1.84-19.06,2.73-37.16,4.33L397.5,67.33l2.08,1.12L414.79,79Q427,65.9,436.73,53.39,446,41.71,449.87,41.7q7.36,0,7.36,6.57,0,3-10.89,15.37-11,12.49-31.07,30.59l-1.92,1.93q29-.81,54.45-2.57l-1.28-1.28L459,84c-2.46-2.66-3.69-4.75-3.69-6.24q0-5.3,5-5.29,2.24,0,6.8,3.85t12.58,12.17a127.31,127.31,0,0,1,11.21,13q3.84,5.37,3.84,7.93,0,5.92-6.89,5.93-3.36,0-7.84-5.77L475.17,103Q451.47,105.29,426.32,106.89Zm-35.23,15.53q0,2.25-3.6,7.29A129.27,129.27,0,0,1,377.16,142q-13.94,14.89-20.5,14.9a5.91,5.91,0,0,1-4.49-1.53q-1.44-1.52-1.44-4.88,0-3.84,5.45-7.53a79.11,79.11,0,0,0,19.05-18.74q5.61-7.52,9.29-7.52Q391.09,116.66,391.09,122.42Zm102.18,26.75q0,7.05-6.89,7T463.8,141.32q-16-15.21-16-19.86a5.18,5.18,0,0,1,1.52-4.08q1.51-1.36,4.88-1.36,3,0,9.29,6.88a93.23,93.23,0,0,0,24,19.22Q493.28,145.17,493.27,149.17Z" transform="translate(-350.07 -15.74)"/><path class="cls-1" d="M538.27,155.09V88.63a161.66,161.66,0,0,1-9.61,24.18q-5.76,11.53-9.61,11.53-6.24,0-6.24-6.56,0-2.4,4-8.33A137.37,137.37,0,0,0,537.15,61.4h-16q-7.53,0-7.53-6.08,0-6.26,7.53-6.25h17.13V23.77c0-2.57.51-4.46,1.52-5.69a5.78,5.78,0,0,1,4.73-1.84q6.09,0,6.09,7.53v25.3h11.85q7.68,0,7.68,6.25,0,6.09-7.68,6.08H550.61V82.06a5.35,5.35,0,0,1,3.84-1.76q2.71,0,9.77,9.93,6.88,9.93,6.89,12.65,0,5.13-5.45,5.13-3,0-6.25-5.61l-8-13.77-.8-1.6v68.06q0,7.36-6.09,7.37T538.27,155.09Zm28.35-29.63q0-3.36,5.93-6.88,15.86-9.14,25.46-17.94A204.58,204.58,0,0,0,576.07,80c-3.1-2.56-4.64-4.59-4.64-6.09Q571.43,68,578,68q3.36,0,9.93,5.6,6.57-7.68,14.1-22.42H575.75q-7.53,0-7.53-6.72t7.53-6.57h28.67V24.73q0-8.49,6.88-8.49t6.89,8.49V37.86h32q7.37,0,7.37,6.57t-7.37,6.72H617.71q-12,20.5-21.14,30.11L607.3,91.83a148.37,148.37,0,0,0,18.58-24.18q3.84-6.41,7.37-6.41,6.88,0,6.88,5.29,0,5.93-13.93,22.58a192.3,192.3,0,0,1-31.07,30Q578,132.19,572.39,132.19,566.62,132.19,566.62,125.46Zm.48,30.27q0-4,7.69-6.88Q612.11,135.23,639.17,97q4-5.77,7.37-5.77,7.53,0,7.53,6.09,0,7.36-23.55,30,28.66,21.46,28.67,28.34,0,6.41-7.05,6.41-4.32,0-13.13-9.93a131.25,131.25,0,0,0-17.3-16.82,157.36,157.36,0,0,1-28.5,19.86q-14.1,7.36-19.54,7.37Q567.1,162.46,567.1,155.73Z" transform="translate(-350.07 -15.74)"/><path class="cls-1" d="M680.81,133.23a4.92,4.92,0,0,1-2.4-3.44,18.41,18.41,0,0,1,1.28-7.69,124.39,124.39,0,0,0,5.93-21.3q1.92-10.58,3.2-24.82a7.75,7.75,0,0,1,2-4.89,6.4,6.4,0,0,1,4.73-1.68,7.1,7.1,0,0,1,5.36,1.92,6.82,6.82,0,0,1,1.68,5.29A218.84,218.84,0,0,1,700,102.8a148.51,148.51,0,0,1-5.68,24,14.55,14.55,0,0,1-3.45,5.76,6.69,6.69,0,0,1-4.72,2.08A9.47,9.47,0,0,1,680.81,133.23Zm48.93,23.87q-7.44-1-10.73-4.49t-3.28-10.81V56.6c0-3,.58-5.18,1.76-6.57s3-2.08,5.44-2.08q7.22,0,7.21,8.65v78.79q0,4.81,2,6.81t6.49,2.56a139,139,0,0,0,15.21.56q18.58,0,21.78-1.76c1.5-.85,2.62-2.59,3.37-5.2a49.48,49.48,0,0,0,1.28-11.61,7.54,7.54,0,0,1,1.76-5.29,6.62,6.62,0,0,1,5.13-1.92q3.68,0,5.28,1.92a9.15,9.15,0,0,1,1.76,5.61q.16,13-2.64,19.94t-8.89,8.88q-7.2,2.25-29.95,2.25Q737.2,158.14,729.74,157.1ZM760.41,45.55q-8-5.61-21.94-14.9a8.12,8.12,0,0,1-3-3,7.22,7.22,0,0,1-.64-3.84A7,7,0,0,1,737,19.68a6.48,6.48,0,0,1,4.64-1.84,7.5,7.5,0,0,1,3,.64,97.87,97.87,0,0,1,12.74,6.41q7.13,4.16,13.37,8.65A12,12,0,0,1,774.58,37a7.55,7.55,0,0,1,1,4.08,7.28,7.28,0,0,1-1.68,5,6.4,6.4,0,0,1-4.08,2.24A14,14,0,0,1,760.41,45.55Zm49.33,79.59q-1.77-1.59-6.25-14.89a168,168,0,0,0-11-24.82q-6.24-11.54-6.24-14.1,0-6.08,7.2-6.08,5,0,17.14,23.06,12,22.57,12,31.87a6.06,6.06,0,0,1-2.4,4.64,8.71,8.71,0,0,1-5.61,2.09A7.18,7.18,0,0,1,809.74,125.14Z" transform="translate(-350.07 -15.74)"/><path class="cls-1" d="M840.81,50.51q0-5.76,6.73-5.76H888.7q6.72,0,6.72,5.76t-6.72,5.77H847.54Q840.81,56.28,840.81,50.51Zm5.6,21.14q0-5.59,6.73-5.6h29.31q6.57,0,6.57,5.6,0,5.77-6.57,5.77H853.14Q846.42,77.42,846.41,71.65Zm0,21.3q0-5.6,6.73-5.6h29.31q6.57,0,6.57,5.76,0,5.61-6.57,5.61H853.14Q846.42,98.72,846.41,93Zm.16-64.06q0-5.76,6.89-5.77h30.27q7,0,7,5.77t-7,5.77H853.46Q846.58,34.66,846.57,28.89Zm3.45,124c-2.19-2.14-3.29-5.28-3.29-9.45V121.14q0-12.65,13-12.65H876.2q13,0,13,12.65v21.94q0,13-13,13H859.71Q853.31,156.05,850,152.85ZM878,140.68v-17c0-2.66-1.38-4-4.16-4H862.11c-2.78,0-4.16,1.34-4.16,4v17c0,2.78,1.38,4.16,4.16,4.16H873.8C876.58,144.84,878,143.46,878,140.68Zm55.1,15.53V121.62a55.46,55.46,0,0,1-7.53,10q-4.32,4.56-11.53,11-12,10.58-16.5,10.57-6.4,0-6.4-6.4,0-3,8.33-8.49A115.7,115.7,0,0,0,916.16,125a70,70,0,0,0,12.25-14.73H899.75q-7.05,0-7-5.93,0-5.59,7-5.6h33.31V87.35H914.8q-16.17,1.28-14.89-14.9V38.34q-1.29-16.17,14.89-14.89h48.69q16.17-1.12,14.89,14.89V72.45q1.29,16-14.89,14.9H944.27V98.72H979q7.22,0,7.21,5.6,0,5.94-7.21,5.93H947.63a77.56,77.56,0,0,0,34.12,29q5.44,2.4,5.44,6.72,0,6.89-6.57,6.89-5.11,0-17-9.29-9.45-7.2-19.38-22.26v34.91q0,6.25-5.61,6.25T933.06,156.21Zm0-121.23H917.2c-3.74,0-5.6,1.87-5.6,5.6v8.81h21.46Zm0,25.62H911.6v9.61c0,3.74,1.86,5.61,5.6,5.61h15.86Zm33.47-20q0-5.59-5.6-5.6H944.27V49.39h22.26Zm0,29.63V60.6H944.27V75.82h16.66Q966.53,75.82,966.53,70.21Z" transform="translate(-350.07 -15.74)"/><path class="cls-1" d="M1029.15,155.25V91.67a121,121,0,0,1-9.13,23.38q-5.6,11.39-9.45,11.38-5.76,0-5.76-6.73,0-2.57,3.2-7a128.2,128.2,0,0,0,19.86-43.56H1013.3q-7.53,0-7.53-6.09t7.53-6.08h15.85V35q-13.61,1.92-17.61,1.92-5.77,0-5.77-6.73a4.27,4.27,0,0,1,2.56-4.32q2.73-1.12,11.53-2.08a187.23,187.23,0,0,0,30.59-5.29l3.21-.48c2.34-.32,4.13.14,5.36,1.36a7.27,7.27,0,0,1,1.84,5.37q0,2.57-2.88,4.48-3,2.09-16.5,4.17V56.92H1053q7.51,0,7.52,6.08T1053,69.09h-11.54V89.75a4.74,4.74,0,0,1,4.33-2.4q1.44,0,4.16,2.4a48.87,48.87,0,0,1,6.25,7q7,9.45,7,12c0,3.74-1.82,5.6-5.45,5.6-1.82,0-3.79-1.7-5.93-5.12a120.66,120.66,0,0,0-8.8-12.17l-1.61-2.73v60.86q0,7.22-6.24,7.21Q1029.15,162.46,1029.15,155.25Zm23.55-5.44q0-5.77,6.24-5.77h37.48v-18.9h-25.63c-4.16,0-6.24-1.86-6.24-5.6s2.08-5.61,6.24-5.61h25.63V97.44l-25.79,1.76a8,8,0,0,1-5.6-1.44,5.91,5.91,0,0,1-1.92-4.81,5.07,5.07,0,0,1,2.08-4.48c1.38-1.07,5.66-1.66,12.81-1.76q31.07-1,53.17-5l2.08-.32a5.59,5.59,0,0,1,5,1.36,7,7,0,0,1,1.84,5.21q0,3.84-7.05,5.6-2.56.64-23.86,2.89v17.45H1136q6.07,0,6.08,5.61c0,3.74-2,5.6-6.08,5.6h-26.75V144h35.56q6.39,0,6.4,5.93,0,5.76-6.4,5.76h-85.85Q1052.7,155.73,1052.7,149.81ZM1067.11,72q-3.36-3.19-2.88-10.41V38q0-7.37,3.28-10.73t10.33-2.88h50.29q7.36,0,10.73,3.28T1141.74,38V61.56q0,7.53-3.2,10.81t-10.41,2.81h-50.29Q1070.48,75.18,1067.11,72Zm62.3-13.61V41.22q0-5-5.29-5.28h-42.6q-5,0-5.28,5.28V58.36q0,5,5.28,5.28h42.6Q1129.25,63.64,1129.41,58.36Z" transform="translate(-350.07 -15.74)"/><rect class="cls-2" x="0.5" y="0.18" width="800.62" height="146.86"/></svg>