<svg id="圖層_1" data-name="圖層 1" xmlns="http://www.w3.org/2000/svg" viewBox="0 0 1500 200"><defs><style>.cls-1,.cls-2{fill:#2c3e50;}.cls-2{stroke:#2c3e50;stroke-miterlimit:10;stroke-width:3px;}.cls-3{fill:none;}</style></defs><path class="cls-1" d="M345.77,126.61q0,9-3.13,24.71-1.58,8.19-3.74,12.18c-1.46,2.67-3.22,4-5.31,4q-6.27,0-6.27-5.75a17.49,17.49,0,0,1,1.57-6.09q4.53-11.49,5.05-27.84.17-7.67,6.09-7.66Q345.78,120.17,345.77,126.61ZM366.3,109.9v67.7q0,7.13-6.26,7.13t-6.27-7.13V111.3l-19.31,2.08c-2.32.24-4.06-.26-5.22-1.47a7.42,7.42,0,0,1-1.74-5.31c0-3.71,2.14-5.75,6.44-6.09l7.83-.35L353.6,82.41h.17a164.09,164.09,0,0,0-19.66-15.84c-3.25-2.2-4.87-4.41-4.87-6.61q0-6.27,6.44-6.27,2.43,0,6.09,3Q349.95,42.21,353.25,33c1.63-4.76,4.29-7.14,8-7.14q7,0,7,6.44,0,5.57-17.23,31.15l9.4,8.18,10.27-18.1q3.3-5.75,7.48-5.74,6.78,0,6.79,6.26,0,3.14-10.79,19.49-11.67,17.41-18.8,26.11l19.49-1-2.26-7.13-.35-2.27a3.79,3.79,0,0,1,1-3.56,5.62,5.62,0,0,1,4-1.31q1.91,0,3.83,2.87A54.77,54.77,0,0,1,385.45,96q4.69,11.49,4.7,14.27c0,4-2,5.92-6.09,5.92-2.68,0-4.7-2.49-6.1-7.48Zm8.53,32.37L372.74,125q-.51-4.52,5.92-4.52c2.44,0,4,1.68,4.7,5q3.83,19.31,3.83,22.27,0,5.74-6.27,5.74C377.56,153.58,375.53,149.82,374.83,142.27ZM475.94,93.81c-2.21,2.26-5.74,3.28-10.62,3H406.16q-.53,40.2-9.23,64.39-6.78,19.14-12.18,19.14-7,0-7-6.09,0-1.92,3.13-7.65,12.36-21.93,12.88-66.31l-.17-28.89Q393.63,57,408.07,57h57.25q7.49,0,10.88,3.31t3.05,10.61v12Q479.25,90.42,475.94,93.81ZM486.73,38.9q0,6.27-7.66,6.27H391.19q-7.49,0-7.48-6.27t7.48-6.26h87.88Q486.74,32.64,486.73,38.9ZM464.89,83.8a5.37,5.37,0,0,0,1.3-3.83V73.88a5.39,5.39,0,0,0-1.3-3.83,4.87,4.87,0,0,0-3.74-1.39H411.72c-3.59,0-5.39,1.63-5.39,4.87l.17,8.88-.17,2.78h54.82A4.87,4.87,0,0,0,464.89,83.8Zm16.79,36v50.64q0,12.71-12.7,13.06h-4.53q-6.09,0-6.09-6.27,0-6.09,5.22-6.09h1.74c3,0,4.53-1.63,4.53-4.87V148.36h-12v28c0,3.36-1.68,5.05-5,5.05s-5-1.69-5-5.05v-28h-10.1v28c0,3.36-1.68,5.05-5,5.05s-4.88-1.69-4.88-5.05v-28H417.64v30.28q0,5.93-5.57,5.92a5.65,5.65,0,0,1-4.26-1.39c-.87-.93-1.31-2.44-1.31-4.53V119.82q0-13.21,12.88-13.22h49.08Q481.67,106.6,481.68,119.82Zm-53.95-2.26h-6.09a3.65,3.65,0,0,0-4,4V137.4h10.09Zm20,19.84V117.56h-10.1V137.4Zm22.1-15.84c0-2.43-1.39-3.77-4.18-4h-7.83V137.4h12Z"/><path class="cls-1" d="M505.52,63.09q0-6.62,7.66-6.61h42.64q7.83,0,7.83,6.61t-7.83,6.61H513.18Q505.52,69.7,505.52,63.09Zm5.57-23.49q0-6.62,7.66-6.61h33.41Q560,33,560,39.6t-7.83,6.61H518.75Q511.09,46.21,511.09,39.6Zm.7,46.46q0-6.25,7.48-6.26h32q7.31,0,7.31,6.26,0,6.45-7.31,6.44h-32Q511.79,92.5,511.79,86.06Zm0,23.15q0-6.27,7.48-6.27h32q7.31,0,7.31,6.44,0,6.27-7.31,6.27h-32Q511.79,115.65,511.79,109.21Zm3.39,65.26q-3.57-3.5-3-11V140.18q0-8,3.39-11.48t11.05-2.79h17.75q8,0,11.57,3.4t2.87,10.87V163.5q0,7.67-3.39,11.23t-11,3.22H526.58Q518.75,178,515.18,174.47Zm31.59-12.36V141.75a4.11,4.11,0,0,0-.87-3,3.65,3.65,0,0,0-3-.69H528a4.43,4.43,0,0,0-3,.78,3.36,3.36,0,0,0-.69,2.87v20.36q0,3.82,3.65,3.66h15Q546.77,165.77,546.77,162.11Zm59,16V161.94H574.09q-7,0-7-5.75,0-5.56,7-5.57h31.67V138.79h-35.5q-6.62,0-6.61-5.57t6.61-5.57H585.4l-3.48-14.27h-13q-6.61,0-6.61-5.56t6.61-5.57h36.89V91.46H576.18q-6.61,0-6.62-5.57t6.62-5.57h29.58V70.4h-27q-12.54,0-12.53-12.36V44.12q0-12.34,12.53-12.35h68.39q12.52,0,12.53,12.53V57.7q0,12.7-12.53,12.7H618.64v9.92h30.63q6.78,0,6.78,5.57t-6.78,5.57H618.64v10.79h39.5q6.79,0,6.79,5.57t-6.79,5.56h-15l-3.83,14.27h17.57q6.8,0,6.79,5.57t-6.79,5.57H618.64v11.83h32.72c4.63,0,7,1.92,7,5.75s-2.33,5.57-7,5.57H618.64v16.18q0,6.62-6.44,6.61T605.76,178.12ZM592.88,42.21H581.57q-4,0-4.17,4.35v9q0,4,4.17,4.35h11.31ZM627,127.65l3.66-14.27H594.1l3.48,14.27ZM619.86,60V42.21h-16V60Zm28.36-4.35v-9a4.19,4.19,0,0,0-1-3.22,5.47,5.47,0,0,0-3.31-1.13H631V60h12.88Q648.22,60,648.22,55.61Z"/><path class="cls-1" d="M768.3,124.35V176q0,8.17-7.14,8.18a7.08,7.08,0,0,1-5.48-2c-1.22-1.33-1.82-3.39-1.82-6.18V125.39q-39.17,2.44-61.09,3.13Q686,128.7,686,121c0-3,1.1-5.05,3.3-6.09q2.44-1.22,18.8-1.22,15.13,0,29.41-.87l8.18-8.18,1-.52Q724.79,88.5,711,81.36,700.26,75.8,700.26,72a6.91,6.91,0,0,1,1.82-5.22Q703.91,65,707.91,65c1.63,0,3.71.81,6.27,2.43l7.65,4.18,5.57,3.31,17.75-25.06L725,51.61,697.3,52.82q-7,.18-7-7.13,0-6.8,10.61-6.79h8q63.51-2.43,98.84-10.44,8.7-2.09,10.79-2.09,8,0,8,8,0,3.65-4,5.57a35.25,35.25,0,0,1-7.39,1.82q-5.49,1-12.62,2-20.72,3-40.37,4.7L737,81.36l2.27,1.22,16.53,11.49Q769,79.81,779.61,66.22q10.1-12.69,14.27-12.7c5.33,0,8,2.38,8,7.14q0,3.3-11.84,16.7-12,13.58-33.76,33.24l-2.09,2.09q31.5-.87,59.17-2.79L812,108.51l-8.18-9.05q-4-4.35-4-6.78,0-5.75,5.39-5.75c1.63,0,4.09,1.39,7.4,4.18s7.86,7.19,13.66,13.22a136.89,136.89,0,0,1,12.18,14.19q4.17,5.83,4.18,8.61,0,6.45-7.49,6.44c-2.43,0-5.28-2.09-8.52-6.26l-5.22-7.14Q795.63,122.62,768.3,124.35ZM730,141.23q0,2.43-3.91,7.92a138.21,138.21,0,0,1-11.23,13.31q-15.14,16.18-22.27,16.18-3.32,0-4.87-1.65t-1.57-5.31q0-4.17,5.92-8.18a86.16,86.16,0,0,0,20.71-20.36q6.09-8.17,10.09-8.18Q730,135,730,141.23Zm111,29.06q0,7.65-7.48,7.66T809,161.76q-17.4-16.53-17.4-21.58a5.63,5.63,0,0,1,1.65-4.43q1.65-1.49,5.31-1.48,3.3,0,10.09,7.48,12.54,13.58,26.11,20.88Q841,165.95,841,170.29Z"/><path class="cls-1" d="M863.58,166.37a5.85,5.85,0,0,1-1.66-4.61,16.48,16.48,0,0,1,1.57-6.26q4.51-11,5-27.67.16-7.67,6.09-7.66c2.2,0,3.8.44,4.78,1.31s1.48,2.29,1.48,4.26l-.17,4.7q-2.61,37.41-12,37.41Q865.23,167.85,863.58,166.37Zm25.49,11V111.3l-20,2.08c-2.32.24-4.06-.26-5.22-1.47a7.42,7.42,0,0,1-1.74-5.31c0-3.25,1.68-5.16,5-5.75l8.71-.69h2.08l10.62-16a195.8,195.8,0,0,0-20.71-17.06c-3.13-2.08-4.7-4.29-4.7-6.61q0-6.43,6.27-6.44,2.08,0,6.61,3.48l1,.7A162.58,162.58,0,0,0,889.42,33q2.77-7.14,8-7.14,6.8,0,6.79,6.44T885.94,65.18l9.4,8,12.18-21.06a6.88,6.88,0,0,1,6.09-3.66q6.61,0,6.61,6.44,0,7.83-28.71,44.55l2.09-.17,16.7-.7.87-.17-1.74-4.7a14.66,14.66,0,0,1-.87-4.53c0-3.24,1.68-4.87,5.05-4.87q3.48,0,8.18,11.66,4.51,11.14,4.52,14.27,0,5.93-6.09,5.92a4.56,4.56,0,0,1-3.65-2,13.13,13.13,0,0,1-2.27-5.66l-11.66,1.39v67.52q0,7.67-6.78,7.66T889.07,177.42Zm25.58-18.79-.52-2.44-4.18-31a3.86,3.86,0,0,1,1.22-3.83,7.61,7.61,0,0,1,4.7-1.22q5.22,0,7.31,11.66,3.3,19,3.31,23,0,6.45-6.44,6.44A6,6,0,0,1,914.65,158.63Zm4.7,16.53q0-3.3,4.18-6.09,24-14.79,26.1-59.69l-15.14,1.05q-6.43.51-6.44-6.44,0-6.8,16.19-6.79l.34-.17a307.59,307.59,0,0,0,9.75-33.94v-1H931q-7,0-7-6.27,0-6.09,7-6.09h32.2V34.55Q963.21,26,970,26t6.79,8.53V49.69h35.5q7.65,0,7.66,6.09,0,6.27-7.66,6.27H968.43A182.42,182.42,0,0,1,956.59,96.5l39.85-2.78-6.09-9.22q-3.83-5.75-3.83-7.31,0-5.22,6.1-5.22,2.77,0,8.7,7.65a219.88,219.88,0,0,1,14.61,22.63,46.06,46.06,0,0,1,2.61,4.52,8,8,0,0,1,1.05,3.31q0,6.09-6.61,6.09-3.66,0-8-7.66l-2.61-4.7-12.53,1.57v53.77c0,3.48.64,5.75,1.92,6.79.81.7,3.36,1,7.65,1,3.71,0,6-.69,6.79-2.08q1.74-3.14,1.91-11.14.18-4.87,1.66-7.22a5.21,5.21,0,0,1,4.78-2.35q6.44,0,6.44,6.61,0,12.52-3.13,20.71-3.14,8-21.06,8-10.62,0-14.44-2.26-4.53-2.61-4.53-10.61V106.77l-15,1.57H962l-.35,9q-1.21,29.58-14.1,47.68-12.18,17.22-21.92,17.23Q919.35,182.3,919.35,175.16Z"/><path class="cls-2" d="M134.76,137.66A15.86,15.86,0,1,0,123.54,133a15.82,15.82,0,0,0,11.22,4.64Zm-8.34-24.21a11.8,11.8,0,1,1,0,16.69,11.76,11.76,0,0,1,0-16.69Z"/><path class="cls-2" d="M116.29,103.32A26,26,0,0,0,110.71,132a2,2,0,1,0,3.75-1.59,22.06,22.06,0,1,1,20.43,13.43h-.13a21.9,21.9,0,0,1-15.39-6.26,2,2,0,1,0-2.84,2.91,26,26,0,0,0,18.23,7.42h.16a26.13,26.13,0,1,0-18.63-44.6Z"/><path class="cls-2" d="M183.61,112.6h-7.23a42.17,42.17,0,0,0-5.68-13.68l5.1-5.09a3.87,3.87,0,0,0,0-5.49L168.47,81a4,4,0,0,0-2.18-1.15A3.89,3.89,0,0,0,162.9,81l-5.11,5.1a42.32,42.32,0,0,0-13.73-5.67V73.06a3.9,3.9,0,0,0-3.89-3.9h-9.81a3.7,3.7,0,0,0-2.87,1.36h-2.55a34.25,34.25,0,0,0-4.39-10.62l3.9-3.9a3.54,3.54,0,0,0,0-5l-6-6a3.54,3.54,0,0,0-5,0l-3.89,3.9A34.29,34.29,0,0,0,99,44.55V39a3.53,3.53,0,0,0-3.53-3.53H87.06A3.55,3.55,0,0,0,83.52,39v5.54A34,34,0,0,0,72.9,49L69,45.07a3.54,3.54,0,0,0-5,0l-6,6a3.53,3.53,0,0,0,0,5l3.9,3.9a34.29,34.29,0,0,0-4.39,10.61H52a3.55,3.55,0,0,0-3.54,3.54v8.4A3.55,3.55,0,0,0,52,86h5.44s2.36,7.52,4.42,10.8L58,100.72a3.54,3.54,0,0,0,0,5l6,6a3.55,3.55,0,0,0,5,0l3.91-3.91a34.75,34.75,0,0,0,10.63,4.41v1.33a3.88,3.88,0,0,0-1.36,3V127c0,2.15,3.87,4,3.87,4h6.88a41.84,41.84,0,0,0,5.75,13.73l-5.17,5.11a3.86,3.86,0,0,0,0,5.5l7.44,7.36a4,4,0,0,0,5.62.05l5.16-5.11a43.1,43.1,0,0,0,13.89,5.68v7.22a3.9,3.9,0,0,0,3.9,3.9h10.66a3.89,3.89,0,0,0,3.9-3.9V163a42.3,42.3,0,0,0,13.73-5.66l5.11,5.09a3.88,3.88,0,0,0,3.4,1.08,4,4,0,0,0,2.16-1.14l7.34-7.32a3.86,3.86,0,0,0,0-5.48l-5.1-5.1a42,42,0,0,0,5.68-13.68h7.22a3.89,3.89,0,0,0,3.9-3.9V116.48a3.89,3.89,0,0,0-3.89-3.88ZM84.8,107.9a30.29,30.29,0,0,1-10-4.13,3.56,3.56,0,0,0-4.41.46L66.52,108l-5.22-5.18,3.83-3.8a3.51,3.51,0,0,0,.46-4.38,29.82,29.82,0,0,1-4.15-10A3.55,3.55,0,0,0,58,81.92H52.57V74.59H58.2a3.53,3.53,0,0,0,3.42-2.79,30.29,30.29,0,0,1,4.13-10,3.58,3.58,0,0,0-.46-4.41l-3.8-3.83,5.18-5.22,3.8,3.83a3.51,3.51,0,0,0,4.38.46,29.85,29.85,0,0,1,10-4.15A3.54,3.54,0,0,0,87.59,45V39.57h7.33V45a3.55,3.55,0,0,0,2.77,3.45,29.82,29.82,0,0,1,10,4.15,3.51,3.51,0,0,0,4.38-.46l3.8-3.83L121,53.52l-3.8,3.83a3.56,3.56,0,0,0-.46,4.41,30.29,30.29,0,0,1,4.13,10,3.52,3.52,0,0,0,3.42,2.79h1.28v5.65a42,42,0,0,0-13.75,5.69l-5.12-5.12-.19-.17A15.42,15.42,0,0,0,85.89,63.85a2,2,0,1,0,1.43,3.81A11.35,11.35,0,0,1,102.53,80a3.78,3.78,0,0,0-1.31.86l-7.41,7.41a4.05,4.05,0,0,0-.87,1.31,11.11,11.11,0,0,1-1.64.13,11.37,11.37,0,0,1-9.91-16.92,2,2,0,0,0-1.17-2.94,2.08,2.08,0,0,0-2.43,1A15.42,15.42,0,0,0,91.3,93.72a15.14,15.14,0,0,0,2.33-.18l.18.2,5.11,5.11a42.25,42.25,0,0,0-5.69,13.75H87.59v-1.28a3.52,3.52,0,0,0-2.79-3.42Zm98.63,18.82h-7.75a3.89,3.89,0,0,0-3.77,3.1,38.67,38.67,0,0,1-5.18,12.7,4,4,0,0,0,.5,4.89l5.05,5.12-7.1,7.21-5.05-5.12a3.83,3.83,0,0,0-4.83-.52,37.36,37.36,0,0,1-12.52,5.25,3.93,3.93,0,0,0-3.06,3.83v7.25H129.67v-7.74a3.89,3.89,0,0,0-3.08-3.78A38.35,38.35,0,0,1,114,153.73a3.93,3.93,0,0,0-4.86.5L104,159.28l-7.16-7.1,5.09-5.05a3.86,3.86,0,0,0,.51-4.83,37.71,37.71,0,0,1-5.22-12.52,3.89,3.89,0,0,0-3.8-3.06h-7.2v-10h7.17s3.42-1.24,3.81-3A38.08,38.08,0,0,1,102.45,101a3.93,3.93,0,0,0-.52-4.88L96.84,91,104,83.87,109.1,89a3.92,3.92,0,0,0,4.87.51,38.34,38.34,0,0,1,12.64-5.23,3.87,3.87,0,0,0,3.06-3.81v-7.2H140v7.47a3.9,3.9,0,0,0,3.08,3.77,38.07,38.07,0,0,1,12.62,5.19,4,4,0,0,0,4.87-.51l5.08-5,7.16,7.1-5.09,5.05a3.87,3.87,0,0,0-.51,4.83,37.46,37.46,0,0,1,5.22,12.53,3.92,3.92,0,0,0,3.81,3h7.2v10Z"/><rect class="cls-3" width="1500" height="200"/></svg>