<svg id="e4c4cc9c-aafd-4315-8fd3-e7800ba9b2a5" data-name="圖層 1" xmlns="http://www.w3.org/2000/svg" viewBox="0 0 1500 200"><defs><style>.b8bbd07a-6d3a-4d0a-b9b6-4ba5b087c9f8,.e119a21b-50ae-44e8-86cb-8a6faf27f7e7{fill:#2c3e50;}.b8bbd07a-6d3a-4d0a-b9b6-4ba5b087c9f8{stroke:#2c3e50;stroke-miterlimit:10;stroke-width:2px;}.a395794e-6d07-4296-9464-8dc162b1816b{fill:none;}</style></defs><path id="e4793e6b-8d25-4681-9220-573d51a7c00e" data-name="icon" class="b8bbd07a-6d3a-4d0a-b9b6-4ba5b087c9f8" d="M152.23,155.14H122.39a2.91,2.91,0,0,1,0-5.82h26.93V50.68H92.4V60.92a2.91,2.91,0,0,1-5.82,0V47.77a2.91,2.91,0,0,1,2.91-2.91h62.74a2.91,2.91,0,0,1,2.91,2.91h0V152.23a2.91,2.91,0,0,1-2.91,2.91Zm-62.74,0H68.64a2.91,2.91,0,0,1,0-5.82H86.58V136H47.77a2.91,2.91,0,0,1-2.91-2.91h0V73.37a2.91,2.91,0,0,1,2.91-2.91h83.45a2.9,2.9,0,0,1,2.9,2.9h0v59.69a2.9,2.9,0,0,1-2.89,2.91H92.4v13.35h17.95a2.91,2.91,0,1,1,0,5.82H89.49Zm0-25h38.82V76.27H50.68v53.88Zm22.86-18.55H66.63a2.91,2.91,0,0,1,0-5.82h45.72a2.91,2.91,0,1,1,0,5.82Zm-10.29-11H76.92a2.91,2.91,0,1,1-.34-5.81,1.93,1.93,0,0,1,.34,0h25.14a2.91,2.91,0,1,1,.34,5.81Z"/><path class="e119a21b-50ae-44e8-86cb-8a6faf27f7e7" d="M266.21,105.74a61.2,61.2,0,0,1-1.91,14.7q-2.12,9-5.34,9-3.61,0-3.62-3.12a10.21,10.21,0,0,1,.9-3.63q2.63-6.34,2.93-16.32c.06-3,1.24-4.43,3.52-4.43S266.21,103.19,266.21,105.74ZM289,87.92c1.88,4.56,2.82,7.35,2.82,8.35q0,3.33-3.42,3.33c-1.68,0-2.95-1.45-3.83-4.33l-6.64.7v39.18q0,4.13-3.63,4.13c-2.42,0-3.62-1.38-3.62-4.13V96.68l-11.28,1.11A3.28,3.28,0,0,1,256.5,97a4.08,4.08,0,0,1-1-2.92q0-3.33,3.73-3.63l3.92-.2h.61l6.74-10.07-12.48-10A4.19,4.19,0,0,1,256.14,67a3.4,3.4,0,0,1,1-2.67,4.37,4.37,0,0,1,3-.86,7,7,0,0,1,3.63,1.72v-.11a139.8,139.8,0,0,0,6.54-13.59q1.41-4,4.64-4,4,0,4,3.93,0,2.93-10.07,17.42h-.1L274,73.41l.6.41,4.54-8.06a21.58,21.58,0,0,1,2.71-4,3.56,3.56,0,0,1,2.62-1.31,3.52,3.52,0,0,1,2.67,1,4.06,4.06,0,0,1,1,2.92q0,4.34-16.72,25.58l11.18-.5-.81-2.52c-.13-.34-.3-.81-.5-1.41a4.86,4.86,0,0,1-.3-1.31,3,3,0,0,1,.8-2.22,3.17,3.17,0,0,1,2.32-.8Q286.15,81.17,289,87.92Zm2.72,34.74a3.12,3.12,0,0,1-.65,2.87,3.61,3.61,0,0,1-2.67,1c-2,0-3.26-1.18-3.73-3.53l-2.21-15.41-.2-2.72q-.11-3,3.12-3c1.95,0,3.12,1.45,3.52,4.33Zm55.9-48c0,2.76-1.11,4.13-3.33,4.13q-3.72,0-13.09-7.55c.07.07-.57-.47-1.91-1.61a4.71,4.71,0,0,1,.4,1.71q0,3-3.73,3H308.21c-2.48,0-3.73-1-3.73-3a3.85,3.85,0,0,1,.1-1Q293,80.46,290.28,80.46q-3.52,0-3.52-3.72c0-1.28,1.27-2.72,3.83-4.33a61.25,61.25,0,0,0,21.25-22.36q1.61-2.92,4.23-2.92c2.81,0,4.22.9,4.22,2.72a5.79,5.79,0,0,1-.5,1.51Q332.89,65.46,343.06,70,347.59,71.91,347.59,74.62Zm-4.53,12v11q0,7.86-7.66,7.86H301.16q-7.76,0-7.75-7.65V86.51q0-7.67,7.75-7.66H335.4Q343.05,78.85,343.06,86.61Zm-3.13,30.71V128.9q0,7.86-7.85,7.86h-28q-7.86,0-7.85-7.76V117.22q0-7.86,7.85-7.85h28Q339.94,109.37,339.93,117.32ZM314.86,84.79H302.77A2.49,2.49,0,0,0,300,87.61v9c0,1.94.94,2.92,2.82,2.92h12.09Zm-10.38,8.77a14.45,14.45,0,0,1-1.41-4.23,2.48,2.48,0,0,1,.76-2,3.22,3.22,0,0,1,2.16-.65,3.17,3.17,0,0,1,2.47,1.56,20.29,20.29,0,0,1,2.37,4.88l.3,1.11a2.67,2.67,0,0,1-3,3Q306.1,97.28,304.48,93.56Zm27.9,24.37a2.5,2.5,0,0,0-2.72-2.82H306.09a2.65,2.65,0,0,0-2,.65,3,3,0,0,0-.6,2.07v2.41h28.9Zm0,7.85h-28.9v2.72a2.37,2.37,0,0,0,2.61,2.62h23.57a2.41,2.41,0,0,0,2.72-2.72Zm-4.23-57.1A89.74,89.74,0,0,1,316.27,56.8q-2.62,3.53-5.19,6.64a58.06,58.06,0,0,1-4.58,5l1-.2h18.43A5,5,0,0,1,328.15,68.68Zm8.36,19a2.58,2.58,0,0,0-2.92-2.92H321V99.5h12.59a2.65,2.65,0,0,0,2.92-2.92Zm-4.43,1.41a11.73,11.73,0,0,1-1.31,4.64c-1.21,2.62-2.52,3.92-3.93,3.92-2,0-3-.9-3-2.71a29.69,29.69,0,0,1,1.51-4.84c.94-2.48,2.18-3.73,3.73-3.73C331.07,86.4,332.08,87.31,332.08,89.12Z"/><path class="e119a21b-50ae-44e8-86cb-8a6faf27f7e7" d="M365.11,135.3q-2.52-2.56-2.52-8.31V62q0-5.84,2.52-8.41t8.16-2.56h63q5.64,0,8.16,2.56T447,62v65q0,5.74-2.52,8.31t-8.16,2.57h-63Q367.63,137.87,365.11,135.3Zm73.72-9.62V63.14c0-3.36-1.71-5-5.14-5h-57.8c-3.43,0-5.14,1.67-5.14,5v62.64q0,5,5.14,5h57.8Q438.84,130.82,438.83,125.68ZM372.76,86.1q0-3,3.53-3h24.87V78.85h-14.3q-7.46,0-7.45-6V68.68A5.7,5.7,0,0,1,381.32,64a7.85,7.85,0,0,1,5.54-1.36h36.46q7.46,0,7.45,6.44v3.53q0,6.24-7.45,6.24h-14.6v4.23H434c2.34,0,3.52,1,3.52,3.12s-1.18,3-3.52,3H376.29Q372.77,89.22,372.76,86.1Zm5.85,37.67q-1.92-1.81-1.72-5.84V100.4q0-4.12,1.87-5.94c1.24-1.21,3.24-1.74,6-1.61h40.58q4.14,0,6.1,1.81c1.31,1.21,1.89,3.13,1.76,5.74v17.53q0,4.13-1.86,6c-1.25,1.24-3.24,1.8-6,1.66H384.75Q380.52,125.58,378.61,123.77ZM426,117V101.21a2.41,2.41,0,0,0-2.72-2.72H386.76a2.41,2.41,0,0,0-2.72,2.72V117c0,2,.91,2.92,2.72,2.92h36.56C425.13,119.94,426,119,426,117Zm-3.17-44.21a6,6,0,0,0,0-4,1.46,1.46,0,0,0-1.26-.5h-33a1.43,1.43,0,0,0-1.26.5,3.82,3.82,0,0,0-.36,2,3.84,3.84,0,0,0,.36,2,1.41,1.41,0,0,0,1.26.5h33A1.43,1.43,0,0,0,422.87,72.81Zm-33.69,38.27v-3.63c0-3.62,2-5.44,5.94-5.44h19.64c4,0,6,1.82,6,5.44v3.63q0,5.34-5.84,5.34H395.22Q389.17,116.42,389.18,111.08Zm25-.2a3.9,3.9,0,0,0,0-3.23,1.67,1.67,0,0,0-1.26-.4H397a1.64,1.64,0,0,0-1.26.4,3.8,3.8,0,0,0,0,3.23,1.6,1.6,0,0,0,1.26.4H413A1.63,1.63,0,0,0,414.21,110.88Z"/><path class="e119a21b-50ae-44e8-86cb-8a6faf27f7e7" d="M463.71,134.14q0-4.33,4.12-4.33h3.73c2.35,0,3.59-1.27,3.73-3.83V104.73L468,107l-2.62.5q-3.63,0-3.63-4.33c0-2.41,2.08-4.06,6.25-4.93l7.25-1.92V74.42h-9.37q-3.82,0-3.83-4,0-3.83,3.83-3.83h9.37V51.16c0-2.76,1.34-4.13,4-4.13s4.12,1.37,4.12,4.13v15.4h5.74q3.93,0,3.93,3.93a3.42,3.42,0,0,1-3.93,3.93h-5.74V94.16l3.83-1.31a15.49,15.49,0,0,1,3.53-.91c2.21,0,3.32,1.35,3.32,4q0,2.41-2.92,3.53l-7.76,2.72V128.4q.4,5.23-2.21,7.81t-8,2.26h-5.44Q463.71,138.47,463.71,134.14Zm24.07-.4q0-3.53,5.53-4.94a67,67,0,0,0,21.76-9.56,55.21,55.21,0,0,1-8.76-11.79,63.8,63.8,0,0,1-2.87-6,11.2,11.2,0,0,1-1-4.08c0-2.41,1.27-3.62,3.83-3.62,2.08,0,3.55,1.37,4.43,4.13a38.75,38.75,0,0,0,10.67,16.31A53.66,53.66,0,0,0,531.28,102q5-8.36,5-10.07c0-1.07-.68-1.61-2-1.61H501.17c-3.16,0-4.73-1.27-4.73-3.82s1.57-3.73,4.73-3.73H517V69.49H498.25c-3.29,0-4.94-1.35-4.94-4s1.65-3.93,4.94-3.93H517V52.37q0-4.93,4.13-4.94c2.68,0,4,1.65,4,4.94v9.16h21.35q4.72,0,4.73,4t-4.73,3.93H525.14V82.78h13.39q3.93,0,5.79,1.26a4.36,4.36,0,0,1,1.87,3.88q0,4-6.25,14.8-6.45,11.09-12.18,16.52,7.65,5.33,19.74,8.76a12,12,0,0,1,4.58,2.11,3.7,3.7,0,0,1,1.56,2.82q0,4.53-4.23,4.53-2.82,0-12-3.52a70.18,70.18,0,0,1-16.11-9,89.78,89.78,0,0,1-16.82,9.46q-9.27,3.74-12.59,3.73Q487.78,138.17,487.78,133.74Z"/><path class="e119a21b-50ae-44e8-86cb-8a6faf27f7e7" d="M590.6,75q0,2.63-7.15,12v47.63q0,4.63-3.93,4.64t-3.93-4.64V96.78q-5.13,6.45-7.25,6.44-3.42,0-3.42-4.23,0-1.9,2.52-4.43a87.27,87.27,0,0,0,15-20.14q1.71-3.12,4.13-3.12C589.25,71.3,590.6,72.54,590.6,75Zm-25.38-8.86q0-2.31,5.34-5.84a61.85,61.85,0,0,0,9.16-7.75c3.16-3.23,5.37-4.84,6.65-4.84q4.13,0,4.13,3.93,0,2.93-9.17,10.78T569,70.29C566.46,70.29,565.22,68.92,565.22,66.16Zm35.1,19a6.48,6.48,0,0,1,.95,3.82q-.3,21.77-3.12,31.93-2.82,9.76-6.75,9.77t-3.92-3.93a7.45,7.45,0,0,1,1.1-3.43q4.63-8.85,5.44-31.82V88.32c0-3,1.21-4.43,3.63-4.43A3.11,3.11,0,0,1,600.32,85.2Zm13.95-10.28v59.72q0,4.34-3.93,4.33t-3.93-4.33V74.92h-9.47q-4.94,0-4.93-4A3.51,3.51,0,0,1,593.27,68a5.71,5.71,0,0,1,3.67-1h9.47V52.06q0-4.53,3.93-4.53t3.93,4.53V67h10.47q4.63,0,4.63,4a3.52,3.52,0,0,1-1.26,2.92,5.6,5.6,0,0,1-3.57,1Zm6-14.2A53.53,53.53,0,0,1,616.58,55c0-2,1.08-3,3.22-3,1.35,0,3.09,1.35,5.24,4s3.12,4.3,3.12,5.24q0,3.12-3.42,3.12Q622.73,64.35,620.31,60.72ZM628,123.26a3.33,3.33,0,0,1-2.92,1.41q-3.93,0-3.72-6.74.09-3.33-2-28.2l-.3-3a2.76,2.76,0,0,1,.75-2.32,3.47,3.47,0,0,1,2.47-.81c1.95,0,3.19,1.89,3.73,5.64l1,7,1.81,23A6.05,6.05,0,0,1,628,123.26ZM656.66,84q0,3.83-3.82,3.82H648v41q.81,10.88-10.07,10.17h-5.34q-4.94,0-4.93-4.12c0-2.56,1.41-3.83,4.23-3.83h4a4.22,4.22,0,0,0,3.12-1.11,4.36,4.36,0,0,0,1.11-3.22V87.81H632q-4.23,0-4.23-3.82T632,80.06h20.85Q656.67,80.06,656.66,84Zm-26-23.67a3.76,3.76,0,0,1-1-2.92,3.76,3.76,0,0,1,1-2.92,4.76,4.76,0,0,1,3.22-.91h16.92a4.18,4.18,0,0,1,3,.91,4,4,0,0,1,.91,2.92,4,4,0,0,1-.91,2.92,4.13,4.13,0,0,1-3,.91H633.9A4.71,4.71,0,0,1,630.68,60.32Z"/><path class="e119a21b-50ae-44e8-86cb-8a6faf27f7e7" d="M667.94,68.88q0-3.72,4.44-3.72h27.09q4.53,0,4.53,3.72t-4.53,3.73H672.38Q667.94,72.61,667.94,68.88Zm3.63-13.59q0-3.74,4.33-3.73h20.44q4.44,0,4.44,3.73T696.34,59H675.9Q671.57,59,671.57,55.29Zm2.22,78q-2.12-2-2.12-6v-13.9q0-8.15,8.36-8.15h12q8.46,0,8.46,8.15v13.7a8.2,8.2,0,0,1-2.16,6.14c-1.45,1.41-3.54,2.12-6.3,2.12H680Q675.91,135.35,673.79,133.33Zm-1.92-51.16A3.29,3.29,0,0,1,673,79.46a4.94,4.94,0,0,1,3.22-.91H696a5.2,5.2,0,0,1,3.28.91,3.23,3.23,0,0,1,1.15,2.71c0,2.49-1.47,3.73-4.43,3.73H676.2Q671.86,85.9,671.87,82.17Zm0,13.4q0-3.63,4.33-3.63H696c3,0,4.43,1.25,4.43,3.73a3.24,3.24,0,0,1-1.15,2.72,5.27,5.27,0,0,1-3.28.91H676.4C673.38,99.3,671.87,98.05,671.87,95.57Zm20.75,30.21V114.7a2.13,2.13,0,0,0-2.42-2.41h-8.26c-1.68,0-2.52.8-2.52,2.41v11.08a2.23,2.23,0,0,0,2.52,2.52h8.26C691.81,128.3,692.62,127.46,692.62,125.78Zm8.36,8.36q0-3.12,5.94-4.73a57.48,57.48,0,0,0,16.62-7.15v-.2a43.93,43.93,0,0,1-6.95-9.37,43.12,43.12,0,0,1-2.52-4.83,8.81,8.81,0,0,1-.81-3.33c0-1.94,1.41-2.92,4.23-2.92q2.63,0,4,4.23a38.2,38.2,0,0,0,8.26,11.48h.2a60.78,60.78,0,0,0,9-10c1.35-1.74,2.45-3.27,3.33-4.58a7,7,0,0,0,1.31-2.57q0-1.41-1.92-1.41H709.94a5.42,5.42,0,0,1-3.42-1A3.44,3.44,0,0,1,705.31,95q0-3.73,4.63-3.73h35.35q8.76,0,8.76,5.54,0,3-6,11.68A76.6,76.6,0,0,1,736.43,122v.3q7.14,4.13,19.63,7.15c2.56.6,3.83,2,3.83,4.13,0,3.08-1.41,4.63-4.23,4.63q-4.53,0-12-3.12a84.27,84.27,0,0,1-13.9-7.56h-.2a90.66,90.66,0,0,1-14,7.46q-7.65,3.31-10.88,3.32Q701,138.27,701,134.14Zm3.62-50a4,4,0,0,1,1.82-3.22,13.71,13.71,0,0,0,5.43-7.46q1-3.72,1-15.41,0-7.24,7.86-7.25h14.6q7.75,0,7.75,7.56V75.23q0,3,3.63,3a12.47,12.47,0,0,0,2.92-.25,1.82,1.82,0,0,0,1.21-.86,15.36,15.36,0,0,0,.9-5.84q.21-4.64,3.63-4.63,3.93,0,3.93,3.72c0,7.66-1.18,12.15-3.53,13.5-1.81,1-5.13,1.51-10,1.51q-10.17,0-10.17-5.94V61.73q0-3.23-3.42-3.42h-8.87c-1.41,0-2.28.37-2.61,1.1-.41,1-.61,3.09-.61,6.45q0,8.76-2.42,13.19-4.83,8.86-9.46,8.87Q704.6,87.92,704.6,84.09Z"/><path class="e119a21b-50ae-44e8-86cb-8a6faf27f7e7" d="M775.2,72.81Q771,72.81,771,69t4.23-3.93h32c2.82,0,4.24,1.31,4.24,3.93s-1.42,3.83-4.24,3.83Zm-.4-17.73c0-2.55,1.37-3.82,4.13-3.82H803.3a4.48,4.48,0,0,1,3.12,1,3.77,3.77,0,0,1,1.11,2.93q0,3.83-4.23,3.82H778.93C776.17,59,774.8,57.7,774.8,55.08Zm32.12,58.31V128.1q0,8.06-8.15,8.05H783.05q-8.14,0-8.15-8.05V113.39q0-8.06,8.15-8h15.72Q806.92,105.34,806.92,113.39Zm-4-34.64c2.76,0,4.13,1.24,4.13,3.73s-1.37,3.72-4.13,3.72H779.13q-4,0-4-3.72t4-3.73Zm4.44,16.92c0,2.48-1.38,3.73-4.13,3.73H779.13c-2.69,0-4-1.25-4-3.73s1.34-3.73,4-3.73H803.2C806,91.94,807.33,93.19,807.33,95.67Zm-8.16,19.64a2.22,2.22,0,0,0-2.62-2.62H785.27a2.62,2.62,0,0,0-1.91.6,3.12,3.12,0,0,0-.71,2v10.87a2.74,2.74,0,0,0,.61,2,3.07,3.07,0,0,0,2,.7h11.28a2.47,2.47,0,0,0,1.91-.65,3.32,3.32,0,0,0,.71-2.07Zm63.55-31.62q0,3.72-4.34,3.72H840.56V134a6.57,6.57,0,0,1-1,4.08,5,5,0,0,1-6.64,0,6.5,6.5,0,0,1-1-4.08V87.41h-17c-3,0-4.43-1.27-4.43-3.83s1.47-3.82,4.43-3.82h17V52.87a6.32,6.32,0,0,1,1.06-4,4,4,0,0,1,3.27-1.31,4,4,0,0,1,3.32,1.26,6.57,6.57,0,0,1,1,4.08V79.76h17.82Q862.71,79.76,862.72,83.69Z"/><path class="e119a21b-50ae-44e8-86cb-8a6faf27f7e7" d="M909.85,124q0,3.12-13,8.66-13.3,5.64-17.93,5.64-3.82,0-3.83-4.33c0-2.28,1.92-3.83,5.74-4.63A71.21,71.21,0,0,0,901,121.65q3.62-2,4.43-2Q909.85,119.64,909.85,124ZM875.2,113.19c0-2.62,1.11-3.92,3.33-3.92h4l-1.11-48.45q-.11-6,4.43-7.85l6.75-2.52,3.72-1.51a17.29,17.29,0,0,1,3.73-1.31q3.93,0,3.93,4.53a2.8,2.8,0,0,1-1.21,2.32l-7,2.92a36.89,36.89,0,0,0-4.63,2.22c-1,.6-1.55,1.2-1.62,1.81l.31,8.86h11.07q3.33,0,3.33,3.83t-3.33,3.72H890l.3,11h10.57q3.33,0,3.33,3.83c0,2.42-1.11,3.62-3.33,3.62H890.51l.3,13h34v-27a3,3,0,0,0-.7-2.22,3.38,3.38,0,0,0-2.22-.81h-6.44q-7.15,0-7.15-7.25V50.75q0-3.53,3.62-3.52t3.63,3.52V54h12.59a5.44,5.44,0,0,1,3.42,1,3.44,3.44,0,0,1,1.21,2.87c0,2.49-1.55,3.73-4.63,3.73H915.59v7.65a2.58,2.58,0,0,0,2.92,2.92h6.34q7.46,0,7.46,7.36v29.81h17.42l.3-13H939.36c-2.29,0-3.43-1.2-3.43-3.62s1.14-3.83,3.43-3.83h10.77l.41-11H939.36q-3.43,0-3.43-3.82t3.43-3.73h11.38l.2-8c.13-2.22-1-3.33-3.53-3.33h-8.66c-2.42,0-3.62-1.31-3.62-3.93s1.2-3.92,3.62-3.92h12.19q4.23,0,6.34,1.71a5.87,5.87,0,0,1,2,5l-1.51,51.37h5c2.35,0,3.53,1.3,3.53,3.92s-1.18,3.73-3.53,3.73H878.53Q875.2,116.92,875.2,113.19Zm33.14-11.88V87.21q0-3.93,3.82-3.93,3.63,0,3.63,3.93v14.1q0,3.93-3.63,3.93Q908.34,105.24,908.34,101.31Zm56.14,29.61a4.16,4.16,0,0,1,1,2.82q0,4.42-4.53,4.43-6.55,0-18.73-5.64-12-5.44-12-8.56,0-4.12,4.43-4.13a7.33,7.33,0,0,1,3.53,1.41q9.66,5.75,23.56,8.26A4.48,4.48,0,0,1,964.48,130.92Z"/><path class="e119a21b-50ae-44e8-86cb-8a6faf27f7e7" d="M977.32,132.43a9.37,9.37,0,0,1,1.21-3.73q6.94-14.19,7-47.43V65.36q0-10,9.17-10h27V51.06c0-2.56,1.55-3.83,4.64-3.83s4.63,1.27,4.63,3.83v4.33h33.84q3.93,0,3.93,3.52t-3.93,3.63H997.26a4,4,0,0,0-2.92.9,3.88,3.88,0,0,0-.9,2.82v6.25q0,23.35-.91,34.14a95.82,95.82,0,0,1-4,21.55q-2.82,9-7,9T977.32,132.43Zm15-.2a15.6,15.6,0,0,1,1.61-4.53,67.06,67.06,0,0,0,2.52-7.76q1-3.93,3.93-3.93c2.35,0,3.52,1.15,3.52,3.43q0,2.61-2.32,9.77-2.12,6.73-5.33,6.74Q992.33,136,992.33,132.23Zm10-23.57V85q-3.33,4.33-5.14,4.34-3.12,0-3.12-3.63,0-1.52,2.12-4,3.92-4.53,9.66-15.11,1.92-3.32,4-3.32,3.82,0,3.83,3,0,1.21-4.13,8.06l-.2.3v34q0,3.82-3.53,3.83T1002.3,108.66Zm16.92-4.93V83.48c-2.49,3.09-4.33,4.64-5.54,4.64q-3.12,0-3.12-3.53a4.25,4.25,0,0,1,1-2.06c.64-.91,1.73-2.33,3.28-4.28a73.37,73.37,0,0,0,8-12.09c1.08-2,2.45-3,4.13-3q3.63,0,3.63,2.82c0,.67-.78,2.25-2.32,4.73l.2.1h11.79l2.31-4.43c1.08-2,2.35-3,3.83-3,2.42,0,3.62,1,3.62,3,0,1.08-.63,2.56-1.91,4.43h15.11c2.35,0,3.52,1,3.52,3.13s-1.17,3-3.52,3h-15.91v5.34h13.19q3.31,0,3.32,2.92T1060.41,88h-13.19v5.43h13.19q3.31,0,3.32,2.93c0,1.94-1.11,2.92-3.32,2.92h-13.19v5.43H1064q3.53,0,3.53,3t-3.53,3.13h-37.56Q1019.21,110.88,1019.22,103.73Zm-5.24,32a5,5,0,0,1-2.92-4.93V118.33q0-4.23,3.63-4.23,3.82,0,3.82,4.23V127c0,1.34.17,2.12.51,2.32a7.66,7.66,0,0,0,2.46.5c1.31.13,2.81.23,4.49.3l3.12.2c.87.07,2.08.1,3.62.1a39.36,39.36,0,0,0,5.79-.35,12.33,12.33,0,0,0,3.38-.85,3,3,0,0,0,1.16-1.36,6.35,6.35,0,0,0,.55-2.17q.3-4.53,4.13-4.53,4.13,0,4.13,4.53,0,7.15-3.53,9.37-3.72,2.31-20.14,2.31Q1017.41,137.36,1014,135.75Zm15-13.49-1.92-2.52a17.62,17.62,0,0,1-1-1.46,2.29,2.29,0,0,1-.41-1.16q0-3.32,4.13-3.32c1,0,2.55,1.11,4.64,3.32s3.12,3.86,3.12,5.14c0,2.28-1.25,3.42-3.73,3.42Q1031.71,125.68,1029,122.26Zm11.28-45.32h-12.49c-1.08,0-1.61.57-1.61,1.71v3.63h14.1Zm0,16.51V88h-14.1v5.43Zm0,5.85h-14.1v2.61a3.18,3.18,0,0,0,.6,2.17,2.62,2.62,0,0,0,2,.65h11.48ZM1061,130.62q-1.3-1.81-2.72-3.53-1.5-1.91-3.92-5.34a5.18,5.18,0,0,1-1.31-3c0-2.28,1.2-3.42,3.62-3.42q2.41,0,7.76,6.44t5.23,8.36c0,2.69-1.37,4-4.13,4C1064.13,134.14,1062.62,133,1061,130.62Z"/><path class="e119a21b-50ae-44e8-86cb-8a6faf27f7e7" d="M1143.59,133.94q0-4.12,4.13-4.13h5.34a4.26,4.26,0,0,0,3.22-1.16,4.39,4.39,0,0,0,1.11-3.17V105.64H1130.6v26.69q0,4.53-3.92,4.53t-4-4.53V105.64h-25.89q-1.6,15.7-4.53,23.92t-7,8.21q-4.23,0-4.23-4.54a9.82,9.82,0,0,1,1.31-3.42q3.93-7.05,5.64-19.24t1.71-41.19l-.2-9.46q-.09-8.76,10.28-8.76h55.49c3.69-.27,6.38.43,8,2.11s2.39,4.37,2.12,8.06v65.76q.71,11.79-10.78,11h-7Q1143.6,138.07,1143.59,133.94Zm-20.94-35.65V81.77h-25.08l-.4,16.52Zm0-39.78H1102.4a4,4,0,0,0-3.62,1.86,9.36,9.36,0,0,0-1.11,5.39v8.66h25Zm34.74,4.63a4.64,4.64,0,0,0-1.21-3.37,4.37,4.37,0,0,0-3.32-1.26H1130.6V74.42h26.79Zm0,35.15V81.77H1130.6V98.29Z"/><rect class="a395794e-6d07-4296-9464-8dc162b1816b" width="1500" height="200"/></svg>