<svg id="a8e1458a-cb92-4d33-a327-74240261dac7" data-name="圖層 1" xmlns="http://www.w3.org/2000/svg" viewBox="0 0 1500 200"><defs><style>.b6056722-26b9-4adb-8c69-a8ac955f3c18{fill:none;}.e87431cb-4a5e-4317-909d-75862a6a0642{fill:#2c3e50;}</style></defs><rect class="b6056722-26b9-4adb-8c69-a8ac955f3c18" width="1500" height="200"/><path class="e87431cb-4a5e-4317-909d-75862a6a0642" d="M265.51,88.52V100.2q0,14.31-1.66,21.91t-4.89,7.6a4.18,4.18,0,0,1-2.82-.81,3.35,3.35,0,0,1-.9-2.61,10.6,10.6,0,0,1,1-3.83A32.06,32.06,0,0,0,258,113.8q.5-5.64.5-16.52V88.52c0-2.75,1.14-4.12,3.42-4.13S265.51,85.77,265.51,88.52ZM278.4,78.45v56.09c0,3-1.31,4.43-3.93,4.43s-3.93-1.47-3.93-4.43V78.45h-9.87q-4.73,0-4.73-3.93t4.73-3.83h27.5q4.43,0,4.43,3.83t-4.43,3.93ZM258.16,55.69c0-2.55,1.44-3.82,4.33-3.83h23.77c2.95,0,4.42,1.28,4.43,3.83s-1.47,3.86-4.43,3.93H262.49Q258.16,59.62,258.16,55.69Zm29,71.5c-2.35,0-3.53-1.33-3.52-4v-35q0-4,3.52-4c2.35,0,3.52,1.33,3.53,4v35C290.69,125.86,289.51,127.2,287.16,127.19Zm57.91,7.05a7,7,0,0,1-4,2.82,26.08,26.08,0,0,1-7.25.81c-4.83,0-8-.31-9.47-.91-2.21-.87-3.32-3-3.32-6.24V107.65l-6.34-.1q-.72,13.5-6.9,21t-17.78,10a10.9,10.9,0,0,1-1.61.2,3,3,0,0,1-2.47-1,3.91,3.91,0,0,1-.75-2.47A3.09,3.09,0,0,1,286,133a6.16,6.16,0,0,1,2.77-1.36q8.86-2.61,13.2-8.51t5-15.66h-4.23a6.85,6.85,0,0,1-7.55-6,6.27,6.27,0,0,1,0-1.5V59.21a6.84,6.84,0,0,1,6-7.55,6.27,6.27,0,0,1,1.5,0H334a6.84,6.84,0,0,1,7.55,6.05,6.27,6.27,0,0,1,0,1.5V100.1a6.84,6.84,0,0,1-6.05,7.55,6.27,6.27,0,0,1-1.5,0h-5.24v19.84q0,3,2.82,3h3q3.72,0,4.53-1.71c.4-.73.63-2.65.7-5.74.07-2.68,1.28-4,3.63-4a3,3,0,0,1,2.77,1.21,8,8,0,0,1,.75,4Q347,131.32,345.07,134.24Zm-42.2-65.86h30.92V61.83a3.2,3.2,0,0,0-.86-2.37,3.36,3.36,0,0,0-2.46-.85H306q-3.12,0-3.12,3.12Zm0,6.85v9h30.92v-9ZM306,100.81h24.48a3.33,3.33,0,0,0,2.46-.86,3.2,3.2,0,0,0,.86-2.37V91H302.87v6.64Q302.87,100.82,306,100.81Z"/><path class="e87431cb-4a5e-4317-909d-75862a6a0642" d="M447.34,58.26c1.58,1.51,2.27,4,2.06,7.3v6c0,2.89-1.41,4.34-4.23,4.33S441,74.45,441,71.6V66.26c0-2.08-1.1-3.15-3.32-3.22H416v7.35q0,3,3.52,3h5a21.91,21.91,0,0,0,4.28-.3A2.71,2.71,0,0,0,430.67,72a6.48,6.48,0,0,0,.71-2.62q.3-3,3.72-3,3.93,0,3.93,4.23c0,3.63-.8,6.21-2.42,7.76q-1.91,1.91-8.15,1.91h-6.75q-9.27,0-11.08-1.21c-1.21-.81-1.87-2.22-2-4.23V63H397.24a25.8,25.8,0,0,1-3.83,10.37c-1.75,2.56-5,4.7-9.77,6.45-4.57,1.68-7.85,2.52-9.87,2.52q-4,0-4-3.93,0-2.93,4.43-3.43,14.4-1.71,15.31-12H372.66c-2.15,0-3.23,1.07-3.22,3.22v5.4c0,2.89-1.38,4.34-4.13,4.33s-4.13-1.45-4.13-4.33v-6q0-5.14,2.27-7.5c1.51-1.57,3.95-2.26,7.3-2.07h29.31V51.66q0-4.33,4.63-4.33t4.53,4.33V56h30.52Q445,56,447.34,58.26ZM443,86.35a8.15,8.15,0,0,1,2.06,6V127.9a7.23,7.23,0,0,1-6.34,8,7.52,7.52,0,0,1-1.71,0H373.57a7.23,7.23,0,0,1-8.05-6.3,7.43,7.43,0,0,1,0-1.7V92.35a7.23,7.23,0,0,1,6.29-8.06,7.49,7.49,0,0,1,1.77,0h19.74c.67-1.88,1.35-3.61,2.06-5.19a16,16,0,0,1,1.36-2.67,3.57,3.57,0,0,1,2.72-1.2q3.93,0,3.93,3.22,0,1.41-2.12,5.84H437A8.15,8.15,0,0,1,443,86.35ZM436.92,95c0-2.62-1.35-4-4-4.13H377.7c-2.55,0-3.9,1.37-4,4.13v30.41c0,2.55,1.33,3.89,4,4h55.19c2.55,0,3.89-1.33,4-4ZM430,116.37q2.31,1.56,2.31,2.76a3.93,3.93,0,0,1-1,3,4.61,4.61,0,0,1-3.23,1q-1.31,0-11.07-4.83l-1.72,1.61q-2.91,2.63-6.64,5.54a6.17,6.17,0,0,1-3.83,1.51,3.31,3.31,0,0,1-2.37-.91,3,3,0,0,1-.95-2.31q0-2.33,2.61-4.23a39.74,39.74,0,0,0,5.34-4.43q-3.42-1.41-12-4.44l-1.21,1.21a39.22,39.22,0,0,1-7.86,6.25,5,5,0,0,1-2.71.8,3.36,3.36,0,0,1-2.47-1,3.23,3.23,0,0,1-1-2.37q0-2.41,2.72-4.13,2.4-1.55,4.63-3.32l-2.11-.71-5.64-1.51a11.72,11.72,0,0,1-3.48-1.31,2,2,0,0,1-1.05-1.71,3.28,3.28,0,0,1,.9-2.47,3.11,3.11,0,0,1,2.22-.85q2.52,0,12.69,3l1.71.5a80.42,80.42,0,0,0,5.44-7c1.61-2.28,3.16-3.42,4.63-3.42a4.23,4.23,0,0,1,1.31.3c1.54.61,2.32,1.55,2.32,2.82a4,4,0,0,1-.51,1.71,39.7,39.7,0,0,1-5.54,7.76L415,109.47l2.82-3.43a93.69,93.69,0,0,0,5.44-7.75A5.18,5.18,0,0,1,425,96.58a3.76,3.76,0,0,1,2-.61,3.11,3.11,0,0,1,1.41.3c1.61.81,2.41,1.82,2.41,3a4.28,4.28,0,0,1-.6,2,51.67,51.67,0,0,1-5.64,8.56c-.94,1.21-1.68,2.11-2.22,2.72A47.68,47.68,0,0,1,430,116.37Z"/><path class="e87431cb-4a5e-4317-909d-75862a6a0642" d="M477.1,134.75v-40a76.71,76.71,0,0,1-5.74,14.71q-3.53,7.14-5.94,7.15-3.63,0-3.63-4.23c0-1.08.67-2.55,2-4.43a80.62,80.62,0,0,0,12.48-27.4h-9.16c-3.16,0-4.73-1.27-4.73-3.82s1.57-3.83,4.73-3.83h10V59.11A103.64,103.64,0,0,1,466,60.32c-2.42,0-3.62-1.41-3.62-4.23A2.68,2.68,0,0,1,464,53.37a33.65,33.65,0,0,1,7.25-1.31,117.19,117.19,0,0,0,19.23-3.32l2-.3a3.8,3.8,0,0,1,3.37.85A4.6,4.6,0,0,1,497,52.67a3.43,3.43,0,0,1-1.81,2.82q-1.92,1.3-10.38,2.62v14.8h7.26c3.15,0,4.72,1.28,4.73,3.83s-1.57,3.83-4.73,3.82h-7.26v13A3,3,0,0,1,487.57,92a4.93,4.93,0,0,1,2.62,1.52A30.47,30.47,0,0,1,494.12,98c2.95,4,4.42,6.48,4.43,7.55q0,3.53-3.42,3.52-1.72,0-3.73-3.22a77.12,77.12,0,0,0-5.54-7.65l-1-1.71v38.27q0,4.53-3.92,4.53C478.37,139.28,477.1,137.77,477.1,134.75Zm14.8-3.43c0-2.42,1.31-3.62,3.93-3.62H519.4V115.81H503.28c-2.61,0-3.91-1.17-3.92-3.52s1.3-3.52,3.92-3.53H519.4V98.39L503.18,99.5a5.07,5.07,0,0,1-3.52-.91,3.7,3.7,0,0,1-1.21-3,3.19,3.19,0,0,1,1.31-2.82q1.31-1,8.06-1.11a229.87,229.87,0,0,0,33.43-3.12l1.31-.2a3.51,3.51,0,0,1,3.17.85,4.48,4.48,0,0,1,1.16,3.28c0,1.61-1.48,2.79-4.43,3.52q-1.61.41-15,1.82v11h16.82q3.83,0,3.83,3.53c0,2.35-1.28,3.53-3.83,3.52H527.45V127.7h22.36q4,0,4,3.72t-4,3.63h-54C493.21,135.05,491.9,133.8,491.9,131.32ZM501,82.38c-1.41-1.35-2-3.53-1.81-6.55V61c0-3.09.68-5.34,2.06-6.75s3.54-2,6.5-1.81h31.62c3.09,0,5.34.68,6.75,2.06s2,3.54,1.81,6.5V75.8c0,3.16-.67,5.42-2,6.8s-3.52,2-6.54,1.76H507.72Q503.09,84.39,501,82.38Zm39.17-8.56V63c0-2.08-1.1-3.19-3.32-3.32H510c-2.08,0-3.19,1.1-3.32,3.32V73.82q0,3.12,3.32,3.32h26.79q3.21,0,3.35-3.32Z"/><path class="e87431cb-4a5e-4317-909d-75862a6a0642" d="M616.93,118.38a4.55,4.55,0,0,1,1,3.17,3.34,3.34,0,0,1-1.41,2.72c-.8.61-2.92,1.21-6.34,1.81L595,129l-22.76,3.43-2.82.3a3.47,3.47,0,0,1-3.07-1,5,5,0,0,1-1.06-3.47c0-1.68.5-2.82,1.51-3.42a16.92,16.92,0,0,1,5.44-1.21q3.93-.41,14.5-1.82V95.07H573.38c-3.22,0-4.84-1.31-4.84-3.93s1.62-3.93,4.84-3.93h34.94q4.84,0,4.84,3.93t-4.84,3.93H594.83v25.68l19.34-3.13A2.85,2.85,0,0,1,616.93,118.38Zm39.63-1.76a39.31,39.31,0,0,1-2.72,14.7Q651.23,138,647.1,138q-5.55,0-13-10.07A76.45,76.45,0,0,1,622.62,104a140.75,140.75,0,0,1-5.23-32.23H570.56q-4.84,0-4.84-4c0-2.67,1.61-4,4.84-3.92H617l-.3-11.48c-.06-3.16,1.34-4.74,4.23-4.74s4.13,2,4.13,6V63.85h25.68q5.14,0,5.14,4t-5.14,3.93h-25.2q1.11,18.43,5.54,31.83t11.48,21.25c1.28,1.47,2.29,2.21,3,2.21s1.47-.89,2-2.67a46.2,46.2,0,0,0,1.31-8.51,3.54,3.54,0,0,1,1.06-2.62,4.22,4.22,0,0,1,2.77-.8C655.28,112.48,656.57,113.87,656.56,116.62ZM637.63,56.8c-2-2.49-3-4-3-4.64,0-2.35,1.37-3.52,4.13-3.52,1.21,0,3,1.28,5.23,3.83,2.15,2.35,3.22,4.1,3.23,5.23,0,2.35-1.38,3.52-4.13,3.53Q641.26,61.23,637.63,56.8Z"/><path class="e87431cb-4a5e-4317-909d-75862a6a0642" d="M667.94,68.88q0-3.72,4.44-3.72h27.09q4.53,0,4.53,3.72t-4.53,3.73H672.38Q667.94,72.61,667.94,68.88Zm3.63-13.59c0-2.49,1.44-3.74,4.33-3.73h20.44q4.44,0,4.44,3.73c0,2.49-1.48,3.72-4.44,3.71H675.9Q671.57,59,671.57,55.29Zm2.22,78q-2.12-2-2.12-6v-13.9q0-8.15,8.36-8.15h12q8.46,0,8.46,8.15v13.7a8.17,8.17,0,0,1-2.16,6.14c-1.45,1.41-3.54,2.12-6.3,2.12H680q-4.1,0-6.21-2Zm-1.92-51.16A3.28,3.28,0,0,1,673,79.46a4.92,4.92,0,0,1,3.22-.91H696a5.24,5.24,0,0,1,3.28.91,3.23,3.23,0,0,1,1.15,2.71c0,2.49-1.47,3.73-4.43,3.73H676.2c-2.89,0-4.34-1.24-4.33-3.73Zm0,13.4q0-3.63,4.33-3.63H696c3,0,4.43,1.25,4.43,3.73a3.22,3.22,0,0,1-1.15,2.72,5.24,5.24,0,0,1-3.28.91H676.4c-3,0-4.53-1.21-4.53-3.69Zm20.75,30.21v-11a2.13,2.13,0,0,0-1.81-2.41,2.08,2.08,0,0,0-.61,0h-8.26c-1.68,0-2.52.8-2.52,2.41v11.08a2.23,2.23,0,0,0,1.9,2.52,2.15,2.15,0,0,0,.62,0h8.26c1.61,0,2.42-.84,2.42-2.52ZM701,134.1q0-3.12,5.94-4.73a57.39,57.39,0,0,0,16.62-7.15V122a44,44,0,0,1-6.95-9.37,44.29,44.29,0,0,1-2.52-4.83,8.76,8.76,0,0,1-.81-3.33c0-1.94,1.41-2.92,4.23-2.92,1.75,0,3.09,1.41,4,4.23a38.16,38.16,0,0,0,8.26,11.48h.2a60.63,60.63,0,0,0,9-10c1.35-1.74,2.45-3.27,3.33-4.58a7,7,0,0,0,1.31-2.57q0-1.41-1.92-1.41H709.94a5.42,5.42,0,0,1-3.42-1A3.44,3.44,0,0,1,705.31,95q0-3.73,4.63-3.73h35.35q8.76,0,8.76,5.54,0,3-6,11.68A76.38,76.38,0,0,1,736.43,122v.3q7.14,4.13,19.63,7.15c2.56.6,3.83,2,3.83,4.13,0,3.08-1.41,4.63-4.23,4.63q-4.53,0-12-3.12a84.58,84.58,0,0,1-13.9-7.56h-.2a90.32,90.32,0,0,1-14,7.46q-7.65,3.31-10.88,3.32-3.67,0-3.68-4.17Zm3.62-50a4,4,0,0,1,1.82-3.22,13.66,13.66,0,0,0,5.43-7.46q1-3.72,1-15.41,0-7.24,7.86-7.25h14.6q7.76,0,7.75,7.56V75.23q0,3,3.63,3a12.44,12.44,0,0,0,2.92-.25,1.79,1.79,0,0,0,1.21-.86,15.27,15.27,0,0,0,.9-5.84c.14-3.09,1.35-4.64,3.63-4.63q3.93,0,3.93,3.72c0,7.66-1.18,12.15-3.53,13.5-1.81,1-5.13,1.51-10,1.51q-10.17,0-10.17-5.94V61.73q0-3.23-3.42-3.42h-8.87c-1.41,0-2.28.37-2.61,1.1-.41,1-.61,3.09-.61,6.45q0,8.76-2.42,13.19-4.83,8.86-9.46,8.87-3.59,0-3.59-3.83Z"/><path class="e87431cb-4a5e-4317-909d-75862a6a0642" d="M775.2,72.81q-4.2,0-4.2-3.81t4.23-3.93h32c2.82,0,4.24,1.31,4.24,3.93s-1.42,3.83-4.24,3.83Zm-.4-17.73c0-2.55,1.37-3.82,4.13-3.82H803.3a4.47,4.47,0,0,1,3.12,1,3.77,3.77,0,0,1,1.11,2.93c0,2.55-1.41,3.83-4.23,3.82H778.93C776.17,59,774.8,57.7,774.8,55.08Zm32.12,58.31V128.1q0,8.06-8.15,8.05H783.05q-8.14,0-8.15-8.05V113.39q0-8.06,8.15-8h15.72Q806.92,105.35,806.92,113.39Zm-4-34.64c2.76,0,4.13,1.24,4.13,3.73s-1.37,3.72-4.13,3.72H779.13q-4,0-4-3.72t4-3.73Zm4.44,16.92c0,2.48-1.38,3.73-4.13,3.73h-24.1c-2.69,0-4-1.25-4-3.73s1.34-3.73,4-3.73H803.2c2.8,0,4.13,1.25,4.13,3.73Zm-8.16,19.64a2.22,2.22,0,0,0-2.62-2.62H785.27a2.64,2.64,0,0,0-1.91.6,3.15,3.15,0,0,0-.71,2v10.87a2.74,2.74,0,0,0,.61,2,3.09,3.09,0,0,0,2,.7h11.28a2.45,2.45,0,0,0,1.91-.65,3.37,3.37,0,0,0,.71-2.07Zm63.55-31.62q0,3.72-4.34,3.72H840.56V134a6.59,6.59,0,0,1-1,4.08,5,5,0,0,1-6.64,0,6.46,6.46,0,0,1-1-4.08V87.41h-17c-3,0-4.43-1.27-4.43-3.83s1.47-3.82,4.43-3.82h17V52.87a6.32,6.32,0,0,1,1.06-4,4.87,4.87,0,0,1,6.59,0,6.59,6.59,0,0,1,1,4.08V79.76h17.82q4.32,0,4.33,3.93Z"/><rect class="b6056722-26b9-4adb-8c69-a8ac955f3c18" width="1093.05" height="200"/><path class="e87431cb-4a5e-4317-909d-75862a6a0642" d="M57,126.08a31.45,31.45,0,0,1-12.74-12.69,38.74,38.74,0,0,1-4.59-19.13A38.59,38.59,0,0,1,44.26,75,31.64,31.64,0,0,1,56.8,62.44,36.79,36.79,0,0,1,75,58a43.8,43.8,0,0,1,12,1.52,48.91,48.91,0,0,1,11,4.73,4,4,0,0,1,2.31,3.93,3.88,3.88,0,0,1-1.16,2.72,3.92,3.92,0,0,1-3,1.2,3.56,3.56,0,0,1-1.81-.4,45,45,0,0,0-8.86-3.57A35.68,35.68,0,0,0,75.88,67q-8.67,0-14.6,3.52a23.67,23.67,0,0,0-9.12,9.62A30.31,30.31,0,0,0,49,94.26a29.67,29.67,0,0,0,3.12,14,22.39,22.39,0,0,0,9.27,9.82,29,29,0,0,0,14.5,3.47,36.3,36.3,0,0,0,9.57-1.16,45,45,0,0,0,8.86-3.57,3.56,3.56,0,0,1,1.81-.4,4,4,0,0,1,3,1.15,3.82,3.82,0,0,1,1.16,2.77A4.11,4.11,0,0,1,98,124.27,48.76,48.76,0,0,1,87,129a44.18,44.18,0,0,1-12,1.51A36.27,36.27,0,0,1,57,126.08Z"/><path class="e87431cb-4a5e-4317-909d-75862a6a0642" d="M117.62,129a3.47,3.47,0,0,1-1.05-2.56L119,111.18h-7.65a3.8,3.8,0,0,1-3.63-3.63,3.8,3.8,0,0,1,3.63-3.62h8.76l2.42-15.11h-7.66a3.63,3.63,0,0,1,0-7.25h8.77l2.51-15.81a3.31,3.31,0,0,1,1.21-2.12,3.79,3.79,0,0,1,2.42-.8,3.45,3.45,0,0,1,2.62,1.06,3.6,3.6,0,0,1,1,2.56q0,.92-2.42,15.11h12.59l2.51-15.81a3.31,3.31,0,0,1,1.21-2.12,3.79,3.79,0,0,1,2.42-.8,3.45,3.45,0,0,1,2.62,1.06,3.6,3.6,0,0,1,1,2.56q0,.92-2.42,15.11h7.65a3.8,3.8,0,0,1,3.63,3.63,3.8,3.8,0,0,1-3.63,3.62H149.8l-2.42,15.11H155a3.63,3.63,0,0,1,0,7.25h-8.76L143.76,127a3.65,3.65,0,0,1-7.25-.6l2.41-15.21H126.34L123.82,127a3.67,3.67,0,0,1-6.2,2Zm24.83-40.13H129.86L127.44,104H140Z"/></svg>