<svg id="b3489c20-4058-41b1-980a-11045507f23a" data-name="圖層 1" xmlns="http://www.w3.org/2000/svg" viewBox="0 0 1500 200"><defs><style>.a302e53a-a7bd-41e9-96e4-7d2fe8bc5bff{fill:none;}.ab716379-6d11-45bf-9c55-706360759a26,.b6dc35a4-400a-4c81-a73e-24c0310821e2{fill:#2c3e50;}.ab716379-6d11-45bf-9c55-706360759a26{stroke:#2c3e50;stroke-miterlimit:10;stroke-width:2px;}</style></defs><rect class="a302e53a-a7bd-41e9-96e4-7d2fe8bc5bff" width="1500" height="200"/><path class="b6dc35a4-400a-4c81-a73e-24c0310821e2" d="M278.35,78.4q-1.67,3-4.78,7.5v48.54a5.77,5.77,0,0,1-1,3.63,3.71,3.71,0,0,1-3.07,1.21q-3.93,0-3.93-4.84V97.28q-4.44,5.94-6.55,5.94-3.61,0-3.62-4.23a6.36,6.36,0,0,1,2-4A83.35,83.35,0,0,0,272,73.43a4.07,4.07,0,0,1,4-2.84q4,0,4,3.83A11,11,0,0,1,278.35,78.4ZM255.64,66q0-2.11,3.42-4.63,4.53-3.42,5.85-4.53a42.12,42.12,0,0,0,5.53-6q2.82-3.53,5.24-3.52,3.93,0,3.93,3.83,0,4.13-9,11.48-9.27,7.54-11.18,7.55C256.91,70.19,255.64,68.78,255.64,66ZM291,100.3a4,4,0,0,1,.91,2.72,109,109,0,0,1-1.36,16.92,25.45,25.45,0,0,1-4.79,11c-2.35,3.08-4.4,4.63-6.14,4.63-2.49,0-3.74-1.21-3.73-3.63a3.08,3.08,0,0,1,.71-1.76c.47-.64,1.27-1.59,2.41-2.87a18.41,18.41,0,0,0,4.23-9.21,100.47,100.47,0,0,0,1.2-15.1,3.69,3.69,0,0,1,1-2.72,4,4,0,0,1,2.92-1A3.35,3.35,0,0,1,291,100.3Zm-8.76-11.58h29c2.48,0,3.73,1.18,3.73,3.53s-1.25,3.52-3.73,3.52h-29q-4.23,0-4.23-3.52c0-2.35,1.41-3.52,4.22-3.53Zm-1.82-14.5V58.31q0-3.93,3.53-3.93a3.22,3.22,0,0,1,2.52,1,4.27,4.27,0,0,1,.9,2.92V72.5a2.59,2.59,0,0,0,.71,2,2.68,2.68,0,0,0,1.91.66h2.92l-.1-23.27q0-4.23,3.63-4.23t3.62,4.23l.1,23.27h3.13a2.68,2.68,0,0,0,1.91-.66,2.54,2.54,0,0,0,.7-2V58.31q0-4,3.63-4,3.42,0,3.42,4V74.22Q313,82,305.3,82H288.07q-7.67,0-7.66-7.75ZM319,118.63a4.57,4.57,0,0,1-1.61,3.12,38.43,38.43,0,0,1-6.7,5.29q-3.37,2.07-5.49,2.07-4.33,0-4.33-5.54V103.22c0-2.62,1.27-3.92,3.83-3.92a3.46,3.46,0,0,1,2.66,1,4.09,4.09,0,0,1,1,2.92v15.41c0,.67.23,1,.71,1s1.61-1,3.82-2.92a4.3,4.3,0,0,1,2.92-1.31,3.29,3.29,0,0,1,2.32,1.11A3.11,3.11,0,0,1,319,118.63Zm28.4,15.91a3.68,3.68,0,0,1-1,2.52,4,4,0,0,1-3.32,1.81,4.16,4.16,0,0,1-3-1.31,42.73,42.73,0,0,1-11-15,55.54,55.54,0,0,1-10.33,11.58q-5.58,4.63-8.71,4.63a2.61,2.61,0,0,1-2.26-1.05A4.6,4.6,0,0,1,307,135q0-1.73,2.82-3.43,8.06-5.13,15.31-15.41a86.3,86.3,0,0,1-4.08-15.56,109.58,109.58,0,0,1-1.56-18.88c-1.33,2.67-2.11,4.18-2.32,4.53a3.52,3.52,0,0,1-3.12,2,3.6,3.6,0,0,1-3.42-3.12,5.45,5.45,0,0,1,.7-2.22,80.85,80.85,0,0,0,6.25-14.35,164.79,164.79,0,0,0,4.93-17.88,3.93,3.93,0,0,1,1.26-2.31,3.54,3.54,0,0,1,2.37-.81,4.12,4.12,0,0,1,2.87,1,3.32,3.32,0,0,1,1.05,2.57,5.36,5.36,0,0,1-.1,1.2,78.35,78.35,0,0,1-4.53,15.82H344a4,4,0,0,1,2.82,1,4.3,4.3,0,0,1,0,5.54,3.94,3.94,0,0,1-2.82,1h-1.91q-.51,27.09-8.76,40.79,3.32,5,5.94,8.3a46.28,46.28,0,0,0,6.14,6.3,4.84,4.84,0,0,1,2,3.46Zm-17.73-25.68q4.83-13.08,5-33.33H325.5q0,20.48,4.16,33.33Z"/><path class="b6dc35a4-400a-4c81-a73e-24c0310821e2" d="M450.71,118.73q0,3.33-3.82,3.33H425v12.69a4.77,4.77,0,0,1-1,3.37,4,4,0,0,1-3,1.06q-4,0-4-4.43V122.06H392.4q-1.41,7.65-9.67,12.28A33.84,33.84,0,0,1,366,138.77a4.35,4.35,0,0,1-3.07-.9,3.76,3.76,0,0,1-1-2.82c0-2.09,1.31-3.26,3.93-3.53q15.9-2,18.43-9.46h-22q-3.72,0-3.72-3.33t3.72-3.32h23.37l.1-2.72a32,32,0,0,1,.1-3.52H377.6c-3,0-5.24-.73-6.65-2.17s-2.05-3.68-1.91-6.7V80q-.71-9.36,8.56-8.86h53.88q4.72,0,6.9,2.11T440.14,80v20.3q0,4.64-2.07,6.8t-6.59,2.07H425v6.24h21.86C449.43,115.41,450.72,116.52,450.71,118.73ZM359.17,66.46a3,3,0,0,1,.8-1.86,20.92,20.92,0,0,1,2.52-2.37,47.14,47.14,0,0,0,10.38-12,5.18,5.18,0,0,1,4.53-2.62q4.23,0,4.23,3A6.86,6.86,0,0,1,380,54.08h20.14q3.72,0,3.72,3.32c0,2.21-1.24,3.29-3.72,3.22H390c1.27,3,1.91,4.9,1.91,5.84q0,3.23-4,3.23c-2,0-3.22-1-3.83-3.13L382.63,62l-.3-1.41h-7.45q-8.36,9.57-12,9.57C360.45,70.16,359.22,68.93,359.17,66.46ZM376.79,82h55.49V80.06c0-1.81-1-2.72-2.92-2.72H379.51c-1.68,0-2.58.91-2.72,2.72Zm0,5.64v4.74h55.49V87.61Zm2.72,15.21h49.85c1.88,0,2.86-.91,2.92-2.72V98H376.79v2.11c0,1.67.91,2.58,2.72,2.71ZM417,115.41v-6.24H393.61a16.28,16.28,0,0,1-.1,2.21c-.13,1.75-.2,3.09-.2,4ZM401.16,66.06c0-.74,1.25-2.45,3.73-5.13a51.21,51.21,0,0,0,7.05-10.28q1.9-3.42,4.23-3.42,4.13,0,4.13,3a8,8,0,0,1-1.51,3.83h27.49q3.83,0,3.83,3.32c0,2.21-1.28,3.29-3.83,3.22h-15.1c1.27,2.82,1.9,4.7,1.91,5.64,0,2.15-1.38,3.22-4.13,3.23q-3.22,0-4.33-3.83l-1.51-5h-8.46q-6.75,9.08-9.77,9.07C402.41,69.69,401.16,68.48,401.16,66.06Z"/><path class="b6dc35a4-400a-4c81-a73e-24c0310821e2" d="M553.84,124.47a19.58,19.58,0,0,1-1.61,8.06q-2.52,5.94-6.14,5.94-7.76,0-16.12-12.08-15.51,10.26-20.74,10.27-3.63,0-3.63-3.83c0-1.75,1.61-3.12,4.83-4.13a48.57,48.57,0,0,0,8.26-3.62,81.67,81.67,0,0,0,7.46-4.74,57.7,57.7,0,0,1-5.85-16.71H505v3.82a35.08,35.08,0,0,1-.1,3.63,2.94,2.94,0,0,1,2.31-1.21,6.82,6.82,0,0,1,2.92.86,15.31,15.31,0,0,1,3.53,2.56c2.55,2.49,3.82,4.23,3.82,5.24a3.17,3.17,0,0,1-2.76,3.53,3.22,3.22,0,0,1-.76,0q-2.82,0-9.27-7.86a33.1,33.1,0,0,1-5.33,14.6q-4.55,7-8.26,6.95c-2.47,0-3.72-1.28-3.73-3.75,0-1,1.18-2.67,3.53-5q7.35-7.16,7.35-19.84l-.1-3.52h-2.62c-2.49,0-3.76-1.14-3.83-3.43q-.4,1.92-2.82,1.92c-1.14,0-2.21-1.35-3.22-4L483,92.35l-.4-.81v44.21q0,3.63-3.63,3.63t-3.52-3.63v-44q-2.71,12-5.29,17.88c-1.71,3.93-3.41,5.89-5.08,5.89a3.08,3.08,0,0,1-3.42-2.7,3.2,3.2,0,0,1,0-.62c0-1.62.77-3.83,2.32-6.65a104.88,104.88,0,0,0,10.67-29.61h-8.26q-4.12,0-4.12-3.93t4.12-4h9.07V50.75c0-2.35,1.17-3.53,3.52-3.52s3.56,1.18,3.63,3.52V68h5.84c2.55,0,3.83,1.3,3.83,3.92s-1.28,4-3.83,4H482.6v12.4a2.72,2.72,0,0,1,2-.71q1.81,0,4.64,5.34c1.87,3.49,2.75,5.57,2.61,6.24q.61-2.31,3.63-2.31H519.2q-1.73-13.29-1.92-39.38V54.88l-.1-3.32a4.92,4.92,0,0,1,.86-3.22,3.44,3.44,0,0,1,2.77-1q3.72,0,3.72,4.13l-.1,4.53-.1,4.43v2.32l.2,6.64.31,8,.4,8.06.1,1.91a2.71,2.71,0,0,1,1.46-2.21,8.61,8.61,0,0,1,3.68-1L534.71,76a32.16,32.16,0,0,0-3.48-3.12l-2.67-2.12-1.91-1.51A4,4,0,0,1,524.84,66a3.56,3.56,0,0,1,.85-2.52,3.24,3.24,0,0,1,2.47-.9,4.77,4.77,0,0,1,2.32.9l2.82-7.65q1.61-6.24,4.53-6.24c2.62,0,3.92,1.1,3.92,3.32q0,2.82-6.54,14.3l2.72,2.32q4.64-9.16,6.75-9.17,3.72,0,3.72,3.12,0,1.41-6.14,12.19l-5.14,7.65,7.56-1L544,80.66c-.07-.13-.2-.46-.4-1a4.29,4.29,0,0,1-.3-1.41q0-2.82,3.22-2.82T553,86.3l.51,1.62a3,3,0,0,1-.91,2.41,3.61,3.61,0,0,1-2.52.81c-1.47,0-2.72-1.14-3.72-3.43L540,89.33l-9,1.51-2.32.3a2.52,2.52,0,0,1-2.16-.56,3.31,3.31,0,0,1-1.06-2.06c.2,2.89.5,5.67.91,8.36h12.08l-.2-.3Q536,93.46,536,92.15a1.85,1.85,0,0,1,.76-1.57,3.48,3.48,0,0,1,2.06-.55c1.21,0,2.39.74,3.53,2.22A6,6,0,0,1,544,95.57a1.83,1.83,0,0,1-.6,1.31H550c2.55,0,3.82,1.11,3.83,3.32s-1.27,3.36-3.83,3.43H527.66a58.3,58.3,0,0,0,4.13,12.18,53.8,53.8,0,0,0,8-7.75c1.21-1.48,2.45-2.22,3.73-2.22q3.62,0,3.62,3.53,0,1.6-2.31,3.72l-1.41,1.61-8.06,7.46q5.64,8.06,9.27,8.05c.53,0,1-.38,1.46-1.16a9.94,9.94,0,0,0,1-3.37q.6-4.53,3.33-4.53Q553.84,121.15,553.84,124.47ZM490.39,65.76a3.63,3.63,0,0,1,.91-2.57,3.41,3.41,0,0,1,2.62-1,5.8,5.8,0,0,1,2.41.91l3.73-9.87q1.41-3.72,3.83-3.72a4,4,0,0,1,2.77.85,3.18,3.18,0,0,1,.95,2.47,12.74,12.74,0,0,1-1.46,4.58q-1.45,3.18-4.78,9.22L505,69.28l1.21-2.51c1.81-3.76,3.47-5.64,5-5.64a3.67,3.67,0,0,1,2.62.85,3.28,3.28,0,0,1,.9,2.47q0,3.42-11.58,20.54l6.05-1-.51-1a5,5,0,0,1-.6-2.42c0-1.67,1-2.51,2.92-2.51a2.86,2.86,0,0,1,2.06,1.2,18.67,18.67,0,0,1,2.37,3.83q2.92,5.94,2.92,7.76c0,1.94-1.07,2.92-3.22,2.92q-2.32,0-4-4.23L495,92.85l-1.31.1a2.64,2.64,0,0,1-2.37-1,4.23,4.23,0,0,1-.86-2.77q0-3,5.34-3.52h-.1l5.94-10-8.46-5.94C491.33,68.45,490.39,67.1,490.39,65.76Z"/><path class="b6dc35a4-400a-4c81-a73e-24c0310821e2" d="M647.1,106c-1.41,1.38-3.62,2.07-6.65,2.07H623.83v21.55c0,3.35-.74,5.79-2.21,7.3s-3.83,2.17-7,2h-6.15q-4.83,0-4.83-4.12c0-2.76,1.34-4.13,4-4.13h4.83c2.08,0,3.13-1.15,3.13-3.43V108.06H598.25q-4.63,0-6.69-2c-1.37-1.33-1.93-3.45-1.67-6.34V77.64q-.79-8.65,8.36-8.36h13.3l2.62-10.07H584.76c-1.88,0-3,.51-3.33,1.51a25.94,25.94,0,0,0-.6,6.75v15q0,11.48-.45,19.69a113.23,113.23,0,0,1-2.17,16.51A75.71,75.71,0,0,1,573,134.75c-.87,1.87-2.15,2.81-3.82,2.81A4.51,4.51,0,0,1,567,137a3.59,3.59,0,0,1-2-3.32,6.6,6.6,0,0,1,.7-2.82,67.05,67.05,0,0,0,5.69-21.3,272,272,0,0,0,1.36-29.66V62.74c0-3.83.81-6.64,2.42-8.41s4.13-2.66,7.55-2.67H650.9q4.64,0,4.64,3.73t-4.64,3.82H622.6l-3,10.07h20.85q4.53,0,6.65,2.07t1.71,6.39V99.6C649.08,102.49,648.51,104.63,647.1,106Zm-42.6,10q0,3.23-7.66,10.88a50.41,50.41,0,0,1-7.3,6.14c-2.38,1.61-4,2.41-5,2.42-2.76,0-4.13-1.21-4.13-3.63a4.12,4.12,0,0,1,1-2.66,14.49,14.49,0,0,1,3.23-2.77,46.51,46.51,0,0,0,5.94-5,57.48,57.48,0,0,0,6-6.85,4.75,4.75,0,0,1,3.63-2.11Q604.5,112.39,604.5,116Zm-6.75-30.9H641V79.66a3.08,3.08,0,0,0-.75-2.32,3.75,3.75,0,0,0-2.37-.8h-37q-3.12,0-3.12,3.12ZM641,97.68V91.94H597.8v5.85q0,3,3.12,3h37C639.94,100.8,641,99.77,641,97.68Zm15.71,31.83c0,3.22-1.47,4.83-4.43,4.83q-3.31,0-11.38-8t-8-10.48a3.29,3.29,0,0,1,1-2.67,5,5,0,0,1,3.23-.85c1.2,0,2.55.84,4,2.51a78.17,78.17,0,0,0,12.68,11q2.85,2.06,2.85,3.66Z"/><path class="b6dc35a4-400a-4c81-a73e-24c0310821e2" d="M668,124q0-3.42,5-4.73l8.36-2.22V90h-7.15c-3.16,0-4.73-1.24-4.73-3.73s1.57-3.82,4.73-3.82h7.15V60.72H673q-4.63,0-4.63-3.72,0-3.93,4.63-3.93h24q4.63,0,4.63,3.93,0,3.72-4.63,3.72h-7.4V82.48h6q4.73,0,4.73,3.82T695.64,90h-6v24.88l8.66-2.42c2.35,0,3.52,1.27,3.52,3.83a3.58,3.58,0,0,1-1.81,3.42l-13.6,4.63q-5.73,1.92-9.56,2.92a29.51,29.51,0,0,1-4.64,1Q668,128.31,668,124Zm23.47,8.36c0-2.49,1.51-3.74,4.53-3.73h29.21V115.11H706.82q-4.53,0-4.53-3.73c0-2.48,1.51-3.73,4.53-3.73h18.43V96.88H713.57q-10.08.81-9.27-9.37V60.82q-.81-10.17,9.27-9.36h32.22q10.17-.81,9.37,9.36V87.51q.81,10.08-9.37,9.37H733.51v10.77h18.63c3,0,4.43,1.25,4.43,3.73s-1.48,3.73-4.43,3.73H733.51V128.6h22q4.63,0,4.63,3.73t-4.63,3.72H696q-4.49,0-4.49-3.72Zm33.84-73.62h-9.17c-2.67,0-4,1.31-3.92,3.93v7.45h13.09Zm0,18.63h-13V85.8q0,3.93,3.92,3.83h9.17Zm21.75-14.7c0-2.69-1.27-4-3.83-3.93h-9.76V70.09H747.1Zm0,23.16V77.34H733.51V89.63h9.76q3.93,0,3.83-3.83Z"/><path class="b6dc35a4-400a-4c81-a73e-24c0310821e2" d="M806.72,124q0,3.12-13,8.66-13.29,5.64-17.93,5.64Q772,138.3,772,134c0-2.28,1.91-3.83,5.74-4.63a71.39,71.39,0,0,0,20.14-7.66c2.42-1.34,3.89-2,4.43-2Q806.72,119.64,806.72,124Zm-34.64-10.78c0-2.62,1.1-3.92,3.32-3.92h4l-1.11-48.45q-.1-6,4.43-7.85l6.75-2.52L793.2,49a17.7,17.7,0,0,1,3.8-1.34q3.93,0,3.93,4.53a2.76,2.76,0,0,1-1.21,2.32l-7,2.92A37.58,37.58,0,0,0,788,59.62c-1,.6-1.55,1.2-1.61,1.81l.3,8.86h11.08q3.32,0,3.32,3.83t-3.32,3.72H786.88l.3,11h10.58q3.32,0,3.32,3.83c0,2.42-1.11,3.62-3.32,3.62H787.38l.31,13h34v-27a3,3,0,0,0-.71-2.22,3.39,3.39,0,0,0-2.21-.81h-6.45q-7.16,0-7.15-7.25V50.75c0-2.35,1.21-3.53,3.63-3.52s3.63,1.18,3.62,3.52V54H825a5.42,5.42,0,0,1,3.42,1,3.44,3.44,0,0,1,1.21,2.87q0,3.74-4.63,3.73H812.46v7.65a2.58,2.58,0,0,0,2.19,2.92,3,3,0,0,0,.73,0h6.35q7.44,0,7.45,7.36v29.81H846.6l.3-13H836.23c-2.28,0-3.43-1.2-3.43-3.62s1.15-3.83,3.43-3.83H847l.41-11H836.23c-2.28,0-3.43-1.27-3.43-3.82s1.15-3.73,3.43-3.73h11.38l.2-8c.13-2.23-1-3.34-3.52-3.34h-8.67Q832,59,832,55.08t3.62-3.92h12.19q4.23,0,6.35,1.71a5.84,5.84,0,0,1,2,5l-1.51,51.37h5c2.35,0,3.53,1.3,3.53,3.92s-1.18,3.73-3.53,3.73H775.4c-2.22,0-3.32-1.21-3.32-3.7Zm33.13-11.88V87.21q0-3.93,3.83-3.93c2.42,0,3.62,1.31,3.62,3.93v14.1c0,2.62-1.2,3.93-3.62,3.93s-3.83-1.31-3.83-3.93ZM861.36,131a4.19,4.19,0,0,1,.95,2.82c0,2.95-1.51,4.42-4.53,4.43q-6.54,0-18.73-5.64-12-5.44-12-8.56c0-2.75,1.48-4.12,4.44-4.13a7.29,7.29,0,0,1,3.52,1.41q9.68,5.75,23.57,8.26a4.49,4.49,0,0,1,2.78,1.38Z"/><path class="b6dc35a4-400a-4c81-a73e-24c0310821e2" d="M874.2,132.43a9.11,9.11,0,0,1,1.21-3.73q6.95-14.19,6.94-47.43V65.36q0-10,9.17-10h27v-4.3c0-2.56,1.54-3.83,4.63-3.83s4.63,1.27,4.63,3.83v4.33h33.84q3.93,0,3.93,3.52t-3.93,3.63H894.14a4,4,0,0,0-2.92.9,3.82,3.82,0,0,0-.91,2.82v6.25q0,23.35-.91,34.14a96.36,96.36,0,0,1-4,21.55q-2.82,9-7,9T874.2,132.43Zm15-.2a15.61,15.61,0,0,1,1.61-4.53,65.65,65.65,0,0,0,2.52-7.76q1-3.93,3.93-3.93c2.35,0,3.52,1.15,3.52,3.43q0,2.61-2.31,9.77-2.12,6.73-5.34,6.74Q889.2,136,889.2,132.23Zm10-23.57V85c-2.21,2.89-3.92,4.33-5.13,4.34q-3.12,0-3.12-3.63c0-1,.7-2.35,2.11-4q3.93-4.53,9.67-15.11c1.27-2.21,2.62-3.32,4-3.32q3.82,0,3.82,3,0,1.22-4.13,8.06l-.2.3v34c0,2.55-1.17,3.82-3.52,3.83s-3.52-1.26-3.53-3.81Zm16.92-4.93V83.48c-2.48,3.09-4.33,4.63-5.54,4.64q-3.12,0-3.12-3.53a4.19,4.19,0,0,1,1-2.06c.64-.91,1.73-2.33,3.27-4.28a73.6,73.6,0,0,0,8-12.09q1.6-3,4.13-3,3.61,0,3.62,2.82c0,.67-.77,2.24-2.31,4.73l.2.1H937l2.32-4.43c1.07-2,2.35-3,3.82-3q3.63,0,3.63,3,0,1.62-1.91,4.43H960c2.35,0,3.53,1,3.53,3.13s-1.18,3-3.53,3H944.09v5.34h13.19q3.33,0,3.33,2.92T957.28,88H944.09v5.43h13.19q3.33,0,3.33,2.93c0,1.94-1.11,2.92-3.33,2.92H944.09v5.43h16.82q3.52,0,3.52,3t-3.52,3.13H923.34q-7.25,0-7.25-7.11Zm-5.23,32A5,5,0,0,1,908,130.8V118.33q0-4.23,3.63-4.23,3.82,0,3.83,4.23V127c0,1.34.16,2.12.5,2.32a7.76,7.76,0,0,0,2.47.5c1.31.13,2.8.23,4.48.3l3.12.2c.87.07,2.08.1,3.63.1a38.64,38.64,0,0,0,5.79-.35,12.27,12.27,0,0,0,3.37-.85,3,3,0,0,0,1.16-1.36,6.26,6.26,0,0,0,.55-2.17c.21-3,1.58-4.53,4.13-4.53q4.13,0,4.13,4.53,0,7.16-3.52,9.37-3.74,2.31-20.14,2.31-10.82,0-14.23-1.62Zm15-13.49-1.89-2.5a13.25,13.25,0,0,1-1-1.46,2.19,2.19,0,0,1-.4-1.16c0-2.21,1.37-3.32,4.13-3.32,1,0,2.55,1.11,4.63,3.32s3.12,3.86,3.12,5.14q0,3.42-3.72,3.42c-1.47,0-3.09-1.14-4.9-3.42Zm11.28-45.32H924.65c-1.07,0-1.61.57-1.61,1.71v3.63h14.1Zm0,16.51V88H923v5.43Zm0,5.85H923v2.61a3.13,3.13,0,0,0,.61,2.17,2.62,2.62,0,0,0,2,.65h11.48Zm20.75,31.32c-.88-1.21-1.78-2.39-2.72-3.53s-2.32-3-3.93-5.34a5.24,5.24,0,0,1-1.31-3q0-3.42,3.63-3.42,2.42,0,7.75,6.44t5.24,8.36q0,4-4.13,4c-1.45,0-3-1.11-4.56-3.49Z"/><path class="b6dc35a4-400a-4c81-a73e-24c0310821e2" d="M1040.47,133.94c0-2.75,1.37-4.13,4.13-4.13h5.33a4.29,4.29,0,0,0,3.23-1.16,4.39,4.39,0,0,0,1.1-3.17V105.64h-26.78v26.69q0,4.53-3.93,4.53t-4-4.53V105.64H993.64q-1.62,15.7-4.53,23.92t-7,8.21q-4.23,0-4.23-4.54a9.64,9.64,0,0,1,1.31-3.42q3.93-7.05,5.64-19.24t1.71-41.19l-.2-9.46q-.11-8.76,10.27-8.76h55.49c3.69-.27,6.37.44,8.06,2.11s2.38,4.37,2.11,8.06v65.76q.7,11.79-10.77,11h-7C1041.84,138.07,1040.47,136.69,1040.47,133.94Zm-21-35.65V81.77h-25L994,98.29Zm0-39.78H999.28a4,4,0,0,0-3.63,1.86,9.53,9.53,0,0,0-1.11,5.39v8.66h25Zm34.74,4.63a4.69,4.69,0,0,0-1.2-3.37,4.39,4.39,0,0,0-3.33-1.26h-22.25V74.42h26.78Zm0,35.15V81.77h-26.78V98.29Z"/><rect class="a302e53a-a7bd-41e9-96e4-7d2fe8bc5bff" width="1093.05" height="200"/><path class="ab716379-6d11-45bf-9c55-706360759a26" d="M155,58.09a7.58,7.58,0,0,0-7.29-7.83H52.29A7.58,7.58,0,0,0,45,58.09v70.75a7.58,7.58,0,0,0,7.29,7.83H92.07l-2.9,8.71H83.55a2.18,2.18,0,1,0,0,4.36h32.9a2.18,2.18,0,0,0,0-4.36h-5.62l-2.9-8.71h39.78a7.58,7.58,0,0,0,7.29-7.83V58.09Zm-105.64,0a3.23,3.23,0,0,1,2.93-3.47h95.42a3.23,3.23,0,0,1,2.93,3.47v52.09H49.36Zm56.88,87.29H93.76l2.91-8.71h6.66Zm44.4-16.54a3.24,3.24,0,0,1-2.93,3.47H52.29a3.24,3.24,0,0,1-2.93-3.47V114.53H150.64v14.31Z"/><path class="ab716379-6d11-45bf-9c55-706360759a26" d="M100,129.44a6.13,6.13,0,1,0-6.13-6.13h0A6.15,6.15,0,0,0,100,129.44Zm0-7.9a1.77,1.77,0,1,1-1.77,1.77h0A1.77,1.77,0,0,1,100,121.54Z"/><path class="ab716379-6d11-45bf-9c55-706360759a26" d="M55.65,75.16a2.19,2.19,0,0,0-2.18,2.18h0V104a2.18,2.18,0,1,0,4.36,0V77.34A2.2,2.2,0,0,0,55.65,75.16Z"/><path class="ab716379-6d11-45bf-9c55-706360759a26" d="M55.65,58.6a2.19,2.19,0,0,0-2.18,2.18h0v8.6a2.18,2.18,0,0,0,4.36,0v-8.6A2.2,2.2,0,0,0,55.65,58.6Z"/></svg>