<svg id="f263d789-6ca7-436d-8c12-4506dfd8c760" data-name="圖層 1" xmlns="http://www.w3.org/2000/svg" viewBox="0 0 1500 200"><defs><style>.b2f23d99-7314-412f-a453-f623f120b7d4{fill:none;}.a44fb2df-5416-4e98-9977-15725b9574d0,.f1de392e-3213-4de9-8e1b-41543e9e0608{fill:#2c3e50;}.a44fb2df-5416-4e98-9977-15725b9574d0{stroke:#2c3e50;stroke-miterlimit:10;stroke-width:2px;}</style></defs><rect class="b2f23d99-7314-412f-a453-f623f120b7d4" width="1500" height="200"/><path class="f1de392e-3213-4de9-8e1b-41543e9e0608" d="M259.57,72.81q-4.23,0-4.23-3.83t4.23-3.93h32q4.23,0,4.23,3.93t-4.23,3.83Zm-.4-17.73q0-3.82,4.12-3.82h24.38a4.47,4.47,0,0,1,3.12,1,3.75,3.75,0,0,1,1.11,2.92c0,2.56-1.41,3.83-4.23,3.83H263.29Q259.17,59,259.17,55.08Zm32.12,58.31V128.1q0,8.06-8.16,8.05H267.42q-8.16,0-8.15-8.05V113.39q0-8.06,8.15-8h15.71Q291.29,105.35,291.29,113.39Zm-4-34.64q4.13,0,4.13,3.73t-4.13,3.72H263.5q-4,0-4-3.72t4-3.73Zm4.43,16.92c0,2.48-1.37,3.73-4.13,3.73H263.5c-2.69,0-4-1.25-4-3.73s1.34-3.73,4-3.73h24.06c2.76,0,4.13,1.25,4.13,3.73Zm-8.15,19.64a2.83,2.83,0,0,0-.61-2,2.77,2.77,0,0,0-2-.6H269.64a2.68,2.68,0,0,0-1.92.6,3.16,3.16,0,0,0-.7,2v10.87a2.77,2.77,0,0,0,.6,2,3.09,3.09,0,0,0,2,.7H280.9a2.45,2.45,0,0,0,1.91-.65,3.37,3.37,0,0,0,.71-2.07Zm63.54-31.62q0,3.72-4.33,3.72H324.93V134a6.59,6.59,0,0,1-1,4.08,5,5,0,0,1-6.65,0,6.59,6.59,0,0,1-1-4.08V87.41h-17c-3,0-4.43-1.27-4.43-3.83s1.47-3.82,4.43-3.82h17V52.87a6.44,6.44,0,0,1,1.05-4,4.88,4.88,0,0,1,6.6,0,6.59,6.59,0,0,1,1,4.08V79.76h17.82c2.89,0,4.34,1.31,4.33,3.93Z"/><path class="f1de392e-3213-4de9-8e1b-41543e9e0608" d="M450.71,118.73q0,3.33-3.82,3.33H425v12.69a4.77,4.77,0,0,1-1,3.37,4,4,0,0,1-3,1.06q-4,0-4-4.43V122.06H392.4q-1.41,7.65-9.67,12.28A33.84,33.84,0,0,1,366,138.77a4.35,4.35,0,0,1-3.07-.9,3.76,3.76,0,0,1-1-2.82c0-2.09,1.31-3.26,3.93-3.53q15.9-2,18.43-9.46h-22q-3.72,0-3.72-3.33t3.72-3.32h23.37l.1-2.72a32,32,0,0,1,.1-3.52H377.6c-3,0-5.24-.73-6.65-2.17s-2.05-3.68-1.91-6.7V80q-.71-9.37,8.56-8.86h53.88q4.72,0,6.9,2.11T440.14,80v20.3q0,4.64-2.07,6.8t-6.59,2.07H425v6.24h21.86C449.43,115.41,450.72,116.52,450.71,118.73ZM359.17,66.46a3,3,0,0,1,.8-1.86,20.92,20.92,0,0,1,2.52-2.37,47.14,47.14,0,0,0,10.38-12,5.18,5.18,0,0,1,4.53-2.62q4.23,0,4.23,3A6.86,6.86,0,0,1,380,54.08h20.14c2.48,0,3.72,1.1,3.72,3.32s-1.24,3.22-3.72,3.22H390c1.27,3,1.91,4.9,1.91,5.84q0,3.23-4,3.23c-2,0-3.22-1-3.83-3.13L382.63,62l-.3-1.41h-7.45q-8.36,9.57-12,9.57C360.45,70.16,359.22,68.93,359.17,66.46ZM376.79,82h55.49V80.06c0-1.81-1-2.72-2.92-2.72H379.51c-1.68,0-2.58.91-2.72,2.72Zm0,5.64v4.74h55.49V87.61Zm2.72,15.21h49.85c1.88,0,2.86-.91,2.92-2.72V98H376.79v2.11c0,1.67.91,2.58,2.72,2.71ZM417,115.41v-6.24H393.61a16.28,16.28,0,0,1-.1,2.21c-.13,1.75-.2,3.09-.2,4ZM401.16,66.06c0-.74,1.25-2.45,3.73-5.14a50.86,50.86,0,0,0,7.05-10.27q1.9-3.42,4.23-3.42,4.13,0,4.13,3a8,8,0,0,1-1.51,3.83h27.49c2.55,0,3.83,1.1,3.83,3.32s-1.28,3.22-3.83,3.22h-15.1c1.27,2.82,1.9,4.7,1.91,5.64,0,2.15-1.38,3.22-4.13,3.23q-3.22,0-4.33-3.83l-1.51-5h-8.46q-6.75,9.08-9.77,9.07C402.41,69.69,401.16,68.48,401.16,66.06Z"/><path class="f1de392e-3213-4de9-8e1b-41543e9e0608" d="M553.84,124.47a19.58,19.58,0,0,1-1.61,8.06q-2.52,5.94-6.14,5.94-7.76,0-16.12-12.08-15.51,10.26-20.74,10.27-3.63,0-3.63-3.83c0-1.75,1.61-3.12,4.83-4.13a48.57,48.57,0,0,0,8.26-3.62,81.67,81.67,0,0,0,7.46-4.74,57.76,57.76,0,0,1-5.85-16.72H505v3.83a35.08,35.08,0,0,1-.1,3.63,2.94,2.94,0,0,1,2.31-1.21,6.82,6.82,0,0,1,2.92.86,15.31,15.31,0,0,1,3.53,2.56c2.55,2.49,3.82,4.23,3.82,5.24a3.17,3.17,0,0,1-2.76,3.53,3.22,3.22,0,0,1-.76,0q-2.82,0-9.27-7.86a33.1,33.1,0,0,1-5.33,14.6q-4.55,7-8.26,6.95c-2.47,0-3.72-1.28-3.73-3.75,0-1,1.18-2.67,3.53-5q7.35-7.16,7.35-19.84l-.1-3.53h-2.62c-2.49,0-3.76-1.14-3.83-3.42q-.4,1.92-2.82,1.92c-1.14,0-2.21-1.35-3.22-4L483,92.35l-.4-.81v44.21q0,3.63-3.63,3.63t-3.52-3.63v-44q-2.71,12-5.29,17.88c-1.71,3.93-3.41,5.89-5.08,5.89a3.08,3.08,0,0,1-3.42-2.7,3.2,3.2,0,0,1,0-.62c0-1.62.77-3.83,2.32-6.65a104.88,104.88,0,0,0,10.67-29.61h-8.26q-4.12,0-4.12-3.93c0-2.68,1.37-4,4.12-4h9.07V50.75c0-2.35,1.17-3.53,3.52-3.52s3.56,1.18,3.63,3.52V68h5.84c2.55,0,3.82,1.31,3.83,3.93s-1.27,3.95-3.83,4H482.6V88.32a2.72,2.72,0,0,1,2-.71q1.81,0,4.64,5.34c1.87,3.49,2.75,5.57,2.61,6.24q.61-2.31,3.63-2.31H519.2q-1.73-13.29-1.92-39.38V54.88l-.1-3.32a4.92,4.92,0,0,1,.86-3.22,3.44,3.44,0,0,1,2.77-1q3.72,0,3.72,4.13l-.1,4.53-.1,4.43v2.32l.2,6.64.31,8,.4,8.06.1,1.91a2.71,2.71,0,0,1,1.46-2.21,8.61,8.61,0,0,1,3.68-1L534.71,76a32.16,32.16,0,0,0-3.48-3.12l-2.67-2.12-1.91-1.51A4,4,0,0,1,524.84,66a3.56,3.56,0,0,1,.85-2.52,3.24,3.24,0,0,1,2.47-.9,4.77,4.77,0,0,1,2.32.9l2.82-7.65q1.61-6.24,4.53-6.24c2.62,0,3.92,1.1,3.92,3.32q0,2.82-6.54,14.3l2.72,2.32q4.64-9.16,6.75-9.17,3.72,0,3.72,3.12,0,1.41-6.14,12.19l-5.14,7.65,7.56-1L544,80.66c-.07-.13-.2-.47-.4-1a4.29,4.29,0,0,1-.3-1.41q0-2.82,3.22-2.82T553,86.3l.51,1.62a3,3,0,0,1-.91,2.41,3.61,3.61,0,0,1-2.52.81c-1.47,0-2.72-1.14-3.72-3.43L540,89.32l-9,1.52-2.32.3a2.52,2.52,0,0,1-2.16-.56,3.31,3.31,0,0,1-1.06-2.06c.2,2.89.5,5.67.91,8.36h12.08l-.2-.3Q536,93.46,536,92.14a1.85,1.85,0,0,1,.76-1.56,3.48,3.48,0,0,1,2.06-.55c1.21,0,2.39.74,3.53,2.22A6,6,0,0,1,544,95.57a1.83,1.83,0,0,1-.6,1.31H550c2.55,0,3.82,1.11,3.83,3.32s-1.27,3.35-3.83,3.42H527.66a58.38,58.38,0,0,0,4.13,12.19,53.8,53.8,0,0,0,8-7.75c1.21-1.48,2.45-2.22,3.73-2.22q3.62,0,3.62,3.53,0,1.6-2.31,3.72l-1.41,1.61-8.06,7.46q5.64,8.06,9.27,8.05c.53,0,1-.38,1.46-1.16a9.94,9.94,0,0,0,1-3.37q.6-4.53,3.33-4.53Q553.84,121.15,553.84,124.47ZM490.39,65.76a3.63,3.63,0,0,1,.91-2.57,3.41,3.41,0,0,1,2.62-1,5.8,5.8,0,0,1,2.41.91l3.73-9.87c.94-2.48,2.22-3.73,3.83-3.73a4,4,0,0,1,2.77.86,3.17,3.17,0,0,1,.95,2.47,12.74,12.74,0,0,1-1.46,4.58q-1.45,3.18-4.78,9.22L505,69.28l1.21-2.51c1.81-3.76,3.47-5.64,5-5.64a3.67,3.67,0,0,1,2.62.85,3.28,3.28,0,0,1,.9,2.47q0,3.42-11.58,20.54l6.05-1-.51-1a5,5,0,0,1-.6-2.42c0-1.67,1-2.51,2.92-2.51a2.86,2.86,0,0,1,2.06,1.2,18.67,18.67,0,0,1,2.37,3.83q2.92,5.94,2.92,7.76c0,1.94-1.07,2.92-3.22,2.92q-2.32,0-4-4.23L495,92.85l-1.31.1a2.64,2.64,0,0,1-2.37-1,4.23,4.23,0,0,1-.86-2.77q0-3,5.34-3.52h-.1l5.94-10-8.46-5.94Q490.39,67.76,490.39,65.76Z"/><path class="f1de392e-3213-4de9-8e1b-41543e9e0608" d="M564.72,125.78a17.15,17.15,0,0,1,1.41-4.53,52.3,52.3,0,0,0,3.42-15.71q.3-3.63,3.53-3.63a3.78,3.78,0,0,1,2.76.86,3.65,3.65,0,0,1,.86,2.67,59.64,59.64,0,0,1-2.21,14.6c-1.62,6.31-3.56,9.47-5.85,9.47Q564.72,129.51,564.72,125.78ZM582,135.05V96.58q-11,.9-11.78,1.2l-1.41.11c-2.56.2-3.83-1.11-3.83-3.93,0-2.15,1.33-3.42,4-3.83l6.34-.4,5.94-8.36-.8-.71-13-9.76a4.36,4.36,0,0,1-1.92-3.43c0-2.48,1.14-3.73,3.43-3.73.87,0,2.42.81,4.63,2.42a160.51,160.51,0,0,0,8.26-15.41c.94-1.94,2.25-2.92,3.93-2.92,2.82,0,4.23,1.35,4.23,4q0,3.42-11,18.23l6.54,5q5.24-8,7.56-12.28,2-3.73,4.43-3.73,3.93,0,3.93,4.23,0,1.71-5.64,9.77Q590,81.41,583.55,89.26l13.6-1a32.37,32.37,0,0,1-1.82-5.14,2.89,2.89,0,0,1,.86-2.21,3.47,3.47,0,0,1,2.47-.81c1.87,0,3.69,2.28,5.43,6.85s2.72,7.55,2.72,8.56c0,2.35-1.2,3.52-3.62,3.52q-2.52,0-4-4.63l-9.47,1.41V135c0,2.95-1.31,4.42-3.92,4.43S582,138,582,135.05Zm15.81-16q-.81-5.33-2.62-12.69l-.2-1.61a2.57,2.57,0,0,1,.76-2.26,3.74,3.74,0,0,1,2.56-.76q4.14,0,6.85,15.91l.51,2.82a2.6,2.6,0,0,1-.76,2.62,4.57,4.57,0,0,1-3.07.91c-2.19,0-3.52-1.66-4-5Zm1.06,15.82a4,4,0,0,1-.86-2.82c0-2.36,1.21-3.53,3.63-3.53h8.66V61.73q0-4.73,2-6.9c1.33-1.45,3.57-2,6.7-1.76h20.44q4.93,0,7.2,2.06c1.51,1.37,2.18,3.61,2,6.7V128.5h4.13q3.62,0,3.62,3.63t-3.62,3.62H601.68a3.68,3.68,0,0,1-2.77-.9Zm41.84-71.11q0-3.32-3.32-3.32h-16a3.47,3.47,0,0,0-2.52.86,3.21,3.21,0,0,0-.91,2.46V77h22.76Zm0,37.87V84.29H618v17.32Zm0,26.89V108.86H618V128.5Z"/><path class="f1de392e-3213-4de9-8e1b-41543e9e0608" d="M677.81,105.74A72.8,72.8,0,0,1,676,121.85q-1.82,8.16-4.73,8.16-3.43,0-3.43-3.52a6.85,6.85,0,0,1,.36-2c.23-.77.38-1.32.45-1.66a77.44,77.44,0,0,0,1.76-7.85,69.38,69.38,0,0,0,1-8c.2-3.49,1.31-5.23,3.32-5.24S677.77,103.07,677.81,105.74ZM702,96.27a2.81,2.81,0,0,1-.65,2.67,3.89,3.89,0,0,1-2.87,1c-1.55,0-2.75-1.44-3.63-4.33l-5.84.6v39.18q0,3.93-3.52,3.93c-2.35,0-3.52-1.31-3.53-3.93V97l-10.17,1.11A3,3,0,0,1,669,97.2a4.41,4.41,0,0,1-1-3,3,3,0,0,1,1.57-2.67,9.19,9.19,0,0,1,4.48-1.06l1.41-.1,6-9.87a114.14,114.14,0,0,0-10.27-9.26c-1.81-1.41-2.71-2.78-2.72-4.13q0-3.63,3.22-3.63A7.11,7.11,0,0,1,675.3,65q1.41-2.91,4.63-11a19.21,19.21,0,0,1,2.57-4.89,3.46,3.46,0,0,1,2.67-1.56c2.75,0,4.13,1.28,4.12,3.83q0,3.52-8.86,18.23l3.12,2.82,1.72,1.41,5.23-10a8.26,8.26,0,0,1,1.87-2.62,3.5,3.5,0,0,1,2.36-.81c2.49,0,3.74,1.14,3.73,3.43q0,4-15.71,26.28l10.17-.7a25,25,0,0,1-1.71-5.34c0-2,1-2.93,3.12-2.92q2.42,0,4.73,6.44l2.72,7.46Zm-.3,28A3,3,0,0,1,701,127a3.64,3.64,0,0,1-2.77,1c-2.08,0-3.33-2.12-3.73-6.35l-2.32-17a2.11,2.11,0,0,1,.71-2.11,3.87,3.87,0,0,1,2.42-.71,2.88,2.88,0,0,1,2.82,2.12l.7,3.12Zm58.41-5.14q0,8.87-2.31,14.31c-1.41,3.42-3.33,5.13-5.74,5.13q-6.45,0-11.18-12.39a59.65,59.65,0,0,1-8.76,8.57q-5,4-7.56,4-3,0-3-3.42c0-1.35.91-2.52,2.72-3.53A47.69,47.69,0,0,0,738.64,119Q736,109.18,735,87.51H702.39c-2.49,0-3.74-1.17-3.73-3.52s1.25-3.52,3.73-3.53h4.43q-.51-7.45-1.61-15.31h-1.82q-3.42,0-3.42-3.52t3.42-3.42h9.87V52c0-2.88,1.21-4.33,3.63-4.33s3.73,1.45,3.73,4.33v6.25h9.66q3.33,0,3.33,3.52t-3.33,3.42h-2.21L726.56,79.7l-.2.8h8.46l-.21-22q-.09-7.95.61-9.47a3.06,3.06,0,0,1,3.12-1.81c2.48,0,3.73,1.48,3.73,4.43l.1,28.8h13.29q4.13,0,4.13,3.53c0,2.35-1.38,3.53-4.13,3.52H742.27v2.92a124.72,124.72,0,0,0,1.61,20.24,59.92,59.92,0,0,0,4.93-13.49q1.11-4.23,4-4.23c2.28,0,3.43,1,3.43,3.12q0,2.52-3.53,10.38a108.12,108.12,0,0,1-6.85,12.89Q749,129,751.53,129c1.14,0,1.82-2,2-6.14.2-4.83,1.31-7.24,3.32-7.25s3.24,1.18,3.24,3.52Zm-37.36,10.28h-10.9q-7.35,0-7.55-7V100q0-7.05,6.75-7h12.79q6.74,0,6.74,7v22q0,7.22-7.85,7.41Zm-11.48-21.55h12.29V102a2.31,2.31,0,0,0-2-2.61,2.43,2.43,0,0,0-.66,0H714c-1.81,0-2.72.87-2.72,2.61Zm9.67,15.2a2.32,2.32,0,0,0,2.62-2,2.36,2.36,0,0,0,0-.65V114.1H711.25v6.34c0,1.75.91,2.62,2.72,2.62Zm.5-57.91h-9.87q1.41,10.68,1.61,15.31H720Zm24.37-3.32a2.2,2.2,0,0,1,.71-2.16,3.89,3.89,0,0,1,2.62-.76c1.33,0,2.67,1.38,4,4.13q3.63,7.35,3.63,9.16c0,2.22-1.18,3.33-3.52,3.33-1.62,0-3.09-1.78-4.44-5.34L746,62.94Z"/><rect class="b2f23d99-7314-412f-a453-f623f120b7d4" width="1000" height="200"/><path class="a44fb2df-5416-4e98-9977-15725b9574d0" d="M155,58.09a7.58,7.58,0,0,0-7.29-7.83H52.29A7.58,7.58,0,0,0,45,58.09v70.75a7.58,7.58,0,0,0,7.29,7.83H92.07l-2.9,8.71H83.55a2.18,2.18,0,1,0,0,4.36h32.9a2.18,2.18,0,0,0,0-4.36h-5.62l-2.9-8.71h39.78a7.58,7.58,0,0,0,7.29-7.83V58.09Zm-105.64,0a3.23,3.23,0,0,1,2.93-3.47h95.42a3.23,3.23,0,0,1,2.93,3.47v52.09H49.36Zm56.88,87.29H93.76l2.91-8.71h6.66Zm44.4-16.54a3.24,3.24,0,0,1-2.93,3.47H52.29a3.24,3.24,0,0,1-2.93-3.47V114.53H150.64v14.31Z"/><path class="a44fb2df-5416-4e98-9977-15725b9574d0" d="M100,129.44a6.13,6.13,0,1,0-6.13-6.13h0A6.15,6.15,0,0,0,100,129.44Zm0-7.9a1.77,1.77,0,1,1-1.77,1.77h0A1.77,1.77,0,0,1,100,121.54Z"/><path class="a44fb2df-5416-4e98-9977-15725b9574d0" d="M55.65,75.16a2.19,2.19,0,0,0-2.18,2.18h0V104a2.18,2.18,0,1,0,4.36,0V77.34A2.2,2.2,0,0,0,55.65,75.16Z"/><path class="a44fb2df-5416-4e98-9977-15725b9574d0" d="M55.65,58.6a2.19,2.19,0,0,0-2.18,2.18h0v8.6a2.18,2.18,0,0,0,4.36,0v-8.6A2.2,2.2,0,0,0,55.65,58.6Z"/></svg>