<svg id="fdcd917c-235b-4bed-b623-a63062b5165a" data-name="圖層 1" xmlns="http://www.w3.org/2000/svg" viewBox="0 0 1500 200"><defs><style>.b1416a21-27a6-48b3-8e7e-c4b3fe36bfa3,.f6a58f51-0716-4b91-955e-340bf1727850{fill:#2c3e50;}.f6a58f51-0716-4b91-955e-340bf1727850{stroke:#2c3e50;stroke-miterlimit:10;stroke-width:2px;}.a6496a79-402a-4869-9884-0c7c8a2b6955{fill:none;}</style></defs><path id="aa33fedc-e0f8-468a-ac18-7e2c4787b472" data-name="icon" class="f6a58f51-0716-4b91-955e-340bf1727850" d="M152.23,155.14H122.39a2.91,2.91,0,0,1,0-5.82h26.93V50.68H92.4V60.92a2.91,2.91,0,0,1-5.82,0V47.77a2.91,2.91,0,0,1,2.91-2.91h62.74a2.91,2.91,0,0,1,2.91,2.91h0V152.23a2.91,2.91,0,0,1-2.91,2.91Zm-62.74,0H68.64a2.91,2.91,0,0,1,0-5.82H86.58V136H47.77a2.91,2.91,0,0,1-2.91-2.91h0V73.37a2.91,2.91,0,0,1,2.91-2.91h83.45a2.9,2.9,0,0,1,2.9,2.9h0v59.69a2.9,2.9,0,0,1-2.89,2.91H92.4v13.35h17.95a2.91,2.91,0,1,1,0,5.82H89.49Zm0-25h38.82V76.27H50.68v53.88Zm22.86-18.55H66.63a2.91,2.91,0,0,1,0-5.82h45.72a2.91,2.91,0,1,1,0,5.82Zm-10.29-11H76.92a2.91,2.91,0,1,1-.34-5.81,1.93,1.93,0,0,1,.34,0h25.14a2.91,2.91,0,1,1,.34,5.81Z"/><path class="b1416a21-27a6-48b3-8e7e-c4b3fe36bfa3" d="M256.24,84.19q0-1.92,5.24-5.94,6.54-5,9.37-7.56a5.56,5.56,0,0,1,3.72-1.81q3.93,0,3.93,3.63c0,1.47-2.69,4.5-8.06,9.06s-8.76,7-10.37,7Q256.25,88.52,256.24,84.19Zm.1,51c0-1.35.37-2.22,1.11-2.62a18.19,18.19,0,0,1,3.73-.61l3.93-.4a118.66,118.66,0,0,0,15-2.62l8.86-1.81c2.56,0,3.83,1.24,3.83,3.73q0,2.61-4.63,3.72-18.44,4.64-28.5,4.64C257.45,139.18,256.34,137.83,256.34,135.15Zm12.59-77-4-2.42q-2.84-1.61-2.83-3.53,0-3.72,3.93-3.72,1.22,0,7.35,3.32t6.25,5.64a4.41,4.41,0,0,1-1,3.22,4.26,4.26,0,0,1-3.12,1Q274.27,61.63,268.93,58.11ZM266,116.92V95.17q-.7-10.17,9.37-9.37h52.37q10.06-.81,9.36,9.37v21.75q.7,10.06-9.36,9.37H275.38Q265.3,127,266,116.92ZM329,95.17q0-3.44-3.33-3.43H277.49q-3.42,0-3.42,3.43v2.21H329Zm0,13.69V103H274.07v5.84Zm0,8.06V114.5H274.07v2.42q0,3.42,3.42,3.42h48.14Q329,120.34,329,116.92ZM310.12,71h-.2q-4,6.14-12.79,10t-15.31,3.92a3.44,3.44,0,0,1-2.61-.85,3.62,3.62,0,0,1-.81-2.57c0-2,1.07-3.16,3.22-3.42q11.08-1.71,17.38-5.9a15.85,15.85,0,0,0,7.4-10.82h-13l-1,1.11q-5.44,6-8.06,6-3.52,0-3.52-3.63c0-1,.77-2.18,2.31-3.52l2-1.71a31,31,0,0,0,2.52-2.42c2.48-2.89,4.23-4.94,5.23-6.14,2-2.42,3.66-3.63,4.94-3.63,2.68,0,4,.94,4,2.82q0,1.52-2.93,4.83h37.47c4.56,0,6.85,1.51,6.85,4.54q0,1.91-6.35,8.05a42.73,42.73,0,0,1-5,4.38,6.78,6.78,0,0,1-3.07,1.56,3.77,3.77,0,0,1-2.67-.8,3.47,3.47,0,0,1-.86-2.62c0-.94.71-2,2.12-3,3.22-2.62,4.83-4.26,4.83-4.94a.82.82,0,0,0-.3-.65,1.06,1.06,0,0,0-.71-.25H313.75l-.71,3q8.67,11.88,30,14.8,3.62.41,3.62,3.63,0,4-3.93,4l-2.21-.3Q318.08,82.58,310.12,71Zm8,64.35a20.39,20.39,0,0,1-5.44-2.07c-1.27-.77-1.91-1.56-1.91-2.36q0-3.63,4-3.63l1.91.41a148.73,148.73,0,0,0,24.47,4.12,11.75,11.75,0,0,1,4.43,1.11,2.62,2.62,0,0,1,1.41,2.42q0,3.83-3.72,3.83Q332.48,139.18,318.08,135.35Z"/><path class="b1416a21-27a6-48b3-8e7e-c4b3fe36bfa3" d="M377.6,135.05V99a108.78,108.78,0,0,1-7.86,14.61q-4.83,7.45-7.45,7.45c-2.42,0-3.62-1.51-3.62-4.53q0-1.71,2.41-4.64A73.31,73.31,0,0,0,376.29,85.1H363q-4,0-4-3.83c0-2.48,1.34-3.73,4-3.73h14.6V51.46q0-4.12,3.93-4.13t3.92,4.13V77.54h11.08c3.09,0,4.63,1.25,4.63,3.73a3.46,3.46,0,0,1-1.2,2.87,5.41,5.41,0,0,1-3.43,1H385.45V96.38A3.94,3.94,0,0,1,388.58,95c1.2,0,2.92,1.44,5.13,4.33l2.12,2.61a44,44,0,0,1,3.12,4.38,6,6,0,0,1,.91,3,2.71,2.71,0,0,1-.91,2.11,3.51,3.51,0,0,1-2.42.81q-2,0-3.72-2.42l-6.45-9.17-.91-1.2v35.65q0,4.13-3.92,4.13T377.6,135.05Zm-9.27-61.94a3.53,3.53,0,0,1-2.16-.7,3.31,3.31,0,0,1-1.26-2Q363.8,65.66,362,59.72a5.18,5.18,0,0,1-.2-1.11,2.7,2.7,0,0,1,1-2.17,4,4,0,0,1,2.57-.85A3.61,3.61,0,0,1,368.84,58q.6,1.43,1.71,4.84a62.65,62.65,0,0,1,1.71,6.24,3,3,0,0,1-.55,2.62A4,4,0,0,1,369.54,73,5.22,5.22,0,0,1,368.33,73.11Zm31.58-16.62a3,3,0,0,1,.55,2.62,63.53,63.53,0,0,1-1.71,6.25q-1.11,3.42-1.71,4.83a3.52,3.52,0,0,1-3.43,2.42,4,4,0,0,1-2.57-.86A2.67,2.67,0,0,1,390,69.59a5.08,5.08,0,0,1,.2-1.11q1.81-5.94,2.92-10.68a3.31,3.31,0,0,1,1.26-2,3.54,3.54,0,0,1,2.16-.71,5.11,5.11,0,0,1,1.21.11A4,4,0,0,1,399.91,56.49Zm30.76,77.45V109.47l-23.16,6.24a9,9,0,0,1-2.12.3,3,3,0,0,1-2.72-1.21,5.37,5.37,0,0,1-.8-3,4,4,0,0,1,3.32-4.13l25.48-6.54V52.67q0-5.23,4.23-5.24t4.23,5.24V98.89l6-1.71a5.52,5.52,0,0,1,1.72-.3,3.2,3.2,0,0,1,2.51,1,4.19,4.19,0,0,1,.91,2.92q0,3.12-3.32,4l-7.86,2.42v26.69a6.11,6.11,0,0,1-1.06,4,4,4,0,0,1-3.27,1.26Q430.68,139.18,430.67,133.94ZM416.17,92.6a42.71,42.71,0,0,1-4.33-3.27l-3.12-2.42Q405,84,405,82.38a4.19,4.19,0,0,1,.91-2.92,3.21,3.21,0,0,1,2.52-1,7.66,7.66,0,0,1,3.42,1.06A42.53,42.53,0,0,1,417,82.88q6,4.34,6,6.65,0,4.23-4.23,4.23A6,6,0,0,1,416.17,92.6Zm3.93-22a13,13,0,0,1-2.52-1.91c-1.41-1.34-3.32-3-5.74-4.93-2.08-1.68-3.12-3-3.12-4a4.22,4.22,0,0,1,.85-2.82,3,3,0,0,1,2.37-1,6.09,6.09,0,0,1,3.22.91,52.63,52.63,0,0,1,5.44,3.92,25.53,25.53,0,0,1,4.23,4,4.56,4.56,0,0,1,1.11,2.82,3.38,3.38,0,0,1-3.53,3.63A4.7,4.7,0,0,1,420.1,70.59Z"/><path class="b1416a21-27a6-48b3-8e7e-c4b3fe36bfa3" d="M462.09,93.56q0-1.82,4.13-5.64a61.16,61.16,0,0,0,9.67-12.19q3-4.83,4.73-7.91a34.53,34.53,0,0,0,2.62-5.69c1.14-3.42,2.86-5.13,5.14-5.13a4.75,4.75,0,0,1,3.22.9,3.77,3.77,0,0,1,1,2.92q0,4.63-10.58,21.25a65.86,65.86,0,0,1-9.21,12c-2.79,2.68-5.05,4-6.8,4Q462.09,98.09,462.09,93.56Zm47.24,40q0-4,5.23-4.33,9-.51,10.68-2.32T528.06,115q1.11-10.28,1.11-13.1,0-4.72-4.43-4.73H500.87q-1.51,16.11-6.35,24.37-4.33,7.35-13.59,12.29Q473.07,138,468.64,138q-4,0-4-4.43A3.17,3.17,0,0,1,466,131a12.39,12.39,0,0,1,4.28-1.86Q480.83,126,486.06,119q5.64-7.35,6.55-21.85H482.13q-5.13,0-5.13-4c0-2.68,1.71-4,5.13-4h45.73q9.76,0,9.77,8.06A192.12,192.12,0,0,1,536.12,119q-1.62,13.8-7,16.42t-15.11,2.62C510.9,138.07,509.33,136.56,509.33,133.54Zm35.29-38.17a38,38,0,0,1-6.29-5.24A68.26,68.26,0,0,1,526.45,75q-4.53-7.84-5.14-12.48-.6-4.44-3.62-4.54H506.21q-4.74,0-4.74-4.12a4,4,0,0,1,1.11-3.13,5.34,5.34,0,0,1,3.63-1h12.28a11.07,11.07,0,0,1,6.65,1.71q1.71,1.41,3.82,8.46a47.82,47.82,0,0,0,20,26.89,14.54,14.54,0,0,1,3.32,2.92,4.72,4.72,0,0,1,1.21,2.92c0,3-1.45,4.53-4.33,4.53A9.53,9.53,0,0,1,544.62,95.37Z"/><path class="b1416a21-27a6-48b3-8e7e-c4b3fe36bfa3" d="M589.79,91.54v43.71a4.8,4.8,0,0,1-.95,3.27,3.8,3.8,0,0,1-3,1.06,3.62,3.62,0,0,1-2.92-1.06,4.91,4.91,0,0,1-.91-3.27v-42a86.41,86.41,0,0,1-7,15q-4.12,7.15-6.24,7.15-3.63,0-3.63-4.43a5.7,5.7,0,0,1,1.41-3.43A80,80,0,0,0,574.89,93a116.69,116.69,0,0,0,6.54-17.27H569.85c-2.68,0-4-1.27-4-3.83s1.35-3.72,4-3.72H582V51.36a4.94,4.94,0,0,1,.91-3.28,3.65,3.65,0,0,1,2.92-1,3.84,3.84,0,0,1,3,1,4.83,4.83,0,0,1,.95,3.28V68.18h8.87a4.57,4.57,0,0,1,3.17.9,3.77,3.77,0,0,1,.95,2.82c0,2.56-1.37,3.83-4.12,3.83h-8.87V89.22a3.24,3.24,0,0,1,3-1.91c1.62,0,4,2.22,7.26,6.65s4.73,7.45,4.73,8.86a3.33,3.33,0,0,1-.91,2.62,4.32,4.32,0,0,1-2.92.8q-2.12,0-5.64-6.54Zm66.77-7.25q0,3.83-4.83,3.83h-9v46.73q0,4.72-4.13,4.73t-4-4.73V88.12H615q0,16.92-2.92,28.4-2.41,9.57-6.24,14.9-3.93,5.54-6.65,5.54a3.88,3.88,0,0,1-3-1.11,5.14,5.14,0,0,1-1-3.52,5.51,5.51,0,0,1,1.61-3.22,37.48,37.48,0,0,0,7.61-13.25,55.94,55.94,0,0,0,2.77-17.47c.06-2.82.1-6.31.1-10.47l-.1-11.69c0-1.67,0-3-.11-3.92s0-2.07,0-3.78,0-3.27,0-4.68q.21-5,2-6.85t7.45-2.42A195.42,195.42,0,0,0,646,48.94l2.42-.4a4.26,4.26,0,0,1,3.22,1.16A4.53,4.53,0,0,1,652.74,53c0,2.15-1.35,3.49-4,4a237.78,237.78,0,0,1-25.28,4.13,29.93,29.93,0,0,0-5.09.8,6,6,0,0,0-2.56,1.31,3.83,3.83,0,0,0-.71,2.12,61.41,61.41,0,0,0-.2,6.14q0,5.13.1,9h36.76Q656.56,80.46,656.56,84.29Z"/><path class="b1416a21-27a6-48b3-8e7e-c4b3fe36bfa3" d="M703.6,124q0,3.12-13,8.66-13.29,5.64-17.92,5.64c-2.56,0-3.83-1.44-3.83-4.33,0-2.28,1.91-3.83,5.74-4.63a71,71,0,0,0,20.14-7.66q3.63-2,4.43-2Q703.6,119.64,703.6,124ZM669,113.19c0-2.62,1.11-3.92,3.32-3.92h4l-1.1-48.45q-.11-6,4.43-7.85l6.74-2.52,3.73-1.51a17.11,17.11,0,0,1,3.73-1.31c2.62,0,3.92,1.51,3.92,4.53a2.79,2.79,0,0,1-1.2,2.32l-7,2.92a37.17,37.17,0,0,0-4.64,2.22c-1,.6-1.54,1.2-1.61,1.81l.3,8.86h11.08q3.33,0,3.33,3.83t-3.33,3.72H683.76l.3,11h10.57q3.33,0,3.33,3.83c0,2.42-1.11,3.62-3.33,3.62H684.26l.3,13h34v-27a3,3,0,0,0-.7-2.22,3.38,3.38,0,0,0-2.22-.81h-6.44q-7.15,0-7.16-7.25V50.75q0-3.53,3.63-3.52t3.63,3.52V54h12.58a5.47,5.47,0,0,1,3.43,1,3.46,3.46,0,0,1,1.21,2.87q0,3.73-4.64,3.73H709.34v7.65a2.58,2.58,0,0,0,2.92,2.92h6.34q7.46,0,7.45,7.36v29.81h17.43l.3-13H733.1c-2.28,0-3.42-1.2-3.42-3.62s1.14-3.83,3.42-3.83h10.78l.4-11H733.1q-3.42,0-3.42-3.82t3.42-3.73h11.38l.2-8c.14-2.22-1-3.33-3.52-3.33H732.5q-3.63,0-3.63-3.93t3.63-3.92h12.18q4.23,0,6.35,1.71a5.83,5.83,0,0,1,2,5l-1.51,51.37h5c2.35,0,3.52,1.3,3.52,3.92s-1.17,3.73-3.52,3.73h-84.3Q669,116.92,669,113.19Zm33.13-11.88V87.21q0-3.93,3.83-3.93,3.63,0,3.63,3.93v14.1q0,3.93-3.63,3.93Q702.09,105.24,702.08,101.31Zm56.15,29.61a4.16,4.16,0,0,1,1,2.82q0,4.42-4.53,4.43-6.55,0-18.74-5.64-12-5.44-12-8.56,0-4.12,4.43-4.13a7.27,7.27,0,0,1,3.52,1.41q9.68,5.75,23.57,8.26A4.48,4.48,0,0,1,758.23,130.92Z"/><path class="b1416a21-27a6-48b3-8e7e-c4b3fe36bfa3" d="M862.51,118.83c0,2.22-1.37,3.33-4.13,3.33H820.12v7.15c0,3.62-.78,6.24-2.32,7.85s-4,2.28-7.35,2H804.3a6,6,0,0,1-3.67-.91,3.49,3.49,0,0,1-1.16-2.92q0-3.73,4.83-3.73h4c2.49,0,3.79-1.31,3.93-3.92v-5.54H776q-4,0-4-3.33t4-3.32h36.26v-2.82a3.55,3.55,0,0,1,1.71-3.32c1.08-.67,3.76-1.51,8.06-2.52l10.47-2.72v-.2H788q-3.93,0-3.93-3.12a3.05,3.05,0,0,1,.91-2.42,4.49,4.49,0,0,1,3-.81h53.88a15.52,15.52,0,0,1,5.84.86,2.77,2.77,0,0,1,2,2.57q0,1.6-6.94,4.53A176.78,176.78,0,0,1,823.34,112c-2.15.61-3.22,1.58-3.22,2.93v.6h38.26C861.14,115.51,862.51,116.62,862.51,118.83Zm-89.33-17V94.06c0-2.75.54-4.77,1.62-6s2.82-2,5.23-2h1.41l-2.11-28.9a6.27,6.27,0,0,1,1.16-4.18,6.5,6.5,0,0,1,3.87-2.27l10.38-1.71,3.22-.8,1.16-.31a5.21,5.21,0,0,1,1.26-.2q3.12,0,3.12,3.53,0,1.61-2.82,2.67a46.24,46.24,0,0,1-9.47,1.86A6.59,6.59,0,0,0,788,56.75a2.36,2.36,0,0,0-.86,2.16l.1,2.82h12.29c2.48,0,3.73,1,3.73,3.12S802.05,68,799.57,68H787.79l.4,5.53h11.38c2.48,0,3.73,1.08,3.73,3.23s-1.25,3.12-3.73,3.12h-11L789,86h56.8l.4-6.14H834.11q-3.42,0-3.42-3.12t3.42-3.23H846.7l.2-5.53H834.11a3.75,3.75,0,0,1-2.61-.76,3.09,3.09,0,0,1-.81-2.37q0-3.12,3.42-3.12h13.5V59.62a3.5,3.5,0,0,0-.61-2.37,2.93,2.93,0,0,0-2.21-.66H833.21q-3.23,0-3.22-2.92a3.23,3.23,0,0,1,.75-2.36,3.37,3.37,0,0,1,2.47-.76h14.3q7.86,0,7.85,6L853.25,86h1.11q7.35,0,6.74,8.06v8.16q0,4.73-4,4.73a3.88,3.88,0,0,1-3-1.11,5.33,5.33,0,0,1-1-3.62V96q0-3.12-3.33-3.32h-65q-3.22,0-3.43,3.32v5.94q0,4.74-4,4.74T773.18,101.81Zm31.33-38.27q0-1.71,5.94-5.23l2.21-1.21q-6.35-4.44-6.34-5.74a2.52,2.52,0,0,1,.75-1.92,3.13,3.13,0,0,1,2.17-.7q1.2,0,8.06,4.73l2.92-3q2.12-2.31,3.82-2.31a3.21,3.21,0,0,1,2.27.7,2.5,2.5,0,0,1,.75,1.91c0,1.15-1.67,3.19-5,6.15l1.11.6c2.82,2,4.23,3.69,4.23,5a3.11,3.11,0,0,1-.81,2.31,3,3,0,0,1-2.21.81c-1,0-2.09-.64-3.43-1.91l-3.52-3.33q-7.67,6-10,6A2.58,2.58,0,0,1,804.51,63.54ZM811.15,77l2-1.21-1.11-.7q-5.14-3.33-5.14-4.74c0-1.74,1-2.62,2.92-2.62a8.4,8.4,0,0,1,3.33,1.51l3.12,1.82,1.61,1.1,2.72-2.61q2.42-2.22,3.63-2.22c2.08,0,3.12.91,3.12,2.72q0,1.81-4.64,5.44c4,2.68,5.95,4.7,5.95,6q0,3.12-3,3.12c-.8,0-1.94-.63-3.42-1.91l-4.33-3.63a57,57,0,0,1-6.34,4.38,9.63,9.63,0,0,1-3.83,1.57c-2,0-2.92-.94-2.92-2.82C804.81,81.13,806.92,79.39,811.15,77Z"/><path class="b1416a21-27a6-48b3-8e7e-c4b3fe36bfa3" d="M909,87.56a5,5,0,0,1-1-3.37V62.13c0-2.88-1.41-4.33-4.23-4.33H879.54q-4.34,0-4.34-3.52c0-2.28,1.45-3.43,4.34-3.43h27.89c3.16,0,5.44.68,6.85,2s2,3.52,1.81,6.54V84.19A4.71,4.71,0,0,1,915,87.51a3.86,3.86,0,0,1-3,1.21A3.64,3.64,0,0,1,909,87.56Zm-33.33-.15c0-1.54.9-2.65,2.72-3.32q12.48-4.53,20.34-8.16a6.38,6.38,0,0,1,2.11-.5,3,3,0,0,1,3,2.21,3.58,3.58,0,0,1,.3,1.41q0,2.11-2.82,3.33Q891.52,87,881.45,91a4.92,4.92,0,0,1-2,.4,3.3,3.3,0,0,1-3.32-2.32A6.23,6.23,0,0,1,875.71,87.41Zm4.83-22.66q0,2.22,2.82,3.63a71.7,71.7,0,0,1,7.35,4.13,4.73,4.73,0,0,0,2.72.9,3.42,3.42,0,0,0,3.12-2,3.56,3.56,0,0,0,.41-1.61c0-1.28-.84-2.55-2.52-3.83a43.58,43.58,0,0,0-7.55-4.23,7.85,7.85,0,0,0-2.82-.7,3,3,0,0,0-3,1.81A5.43,5.43,0,0,0,880.54,64.75ZM886.79,134q-2.43-2.32-2-7.35V106q0-5,2.32-7.4c1.54-1.58,4-2.3,7.45-2.16h17.83l2.21-4.94a4.78,4.78,0,0,1,4.63-2.92c2.62,0,3.93,1.08,3.93,3.22,0,.61-.77,2.15-2.31,4.64h26.08q5.24,0,7.7,2.31c1.65,1.55,2.34,4,2.07,7.25v20.65c0,3.56-.77,6.12-2.32,7.7s-4,2.23-7.45,2H894.54C891,136.36,888.4,135.58,886.79,134Zm62.13-26.69a3.64,3.64,0,0,0-1-2.77,4.33,4.33,0,0,0-2.82-1H896.35a3.64,3.64,0,0,0-2.77,1,4.24,4.24,0,0,0-1.05,2.82v5.44h56.39Zm0,18.13v-5.84H892.53v5.84q0,3.52,3.82,3.73H945.1C947.51,129.21,948.79,128,948.92,125.48ZM954.76,92a4.71,4.71,0,0,1-1.1-3.37V62.13a3.78,3.78,0,0,0-4.33-4.33H923.44c-2.88,0-4.33-1.17-4.33-3.52s1.45-3.43,4.33-3.43h29.91q4.64,0,6.75,2.07t1.82,6.49V88.62A4.85,4.85,0,0,1,960.86,92a3.81,3.81,0,0,1-3,1.16A4.1,4.1,0,0,1,954.76,92Zm-31.42-5.38c0-1.41.84-2.49,2.52-3.23q11.48-4.83,18.23-8.15a5.12,5.12,0,0,1,2.32-.61,3,3,0,0,1,2.92,2,3.65,3.65,0,0,1,.4,1.61c0,1.27-.87,2.38-2.62,3.32q-11.39,5.75-17.93,8.56a6.26,6.26,0,0,1-2.21.5,3.28,3.28,0,0,1-3.12-2.11A5.32,5.32,0,0,1,923.34,86.61ZM926,65.05q0,2.22,2.82,3.63a60.32,60.32,0,0,1,7.45,3.93,5.32,5.32,0,0,0,2.62.8,3.51,3.51,0,0,0,3.23-2,4.05,4.05,0,0,0,.5-1.71q0-1.92-2.62-3.73a58.28,58.28,0,0,0-7.65-4,8.46,8.46,0,0,0-2.82-.7,3.13,3.13,0,0,0-3,1.91A5.54,5.54,0,0,0,926,65.05Z"/><path class="b1416a21-27a6-48b3-8e7e-c4b3fe36bfa3" d="M977.42,119.34c0-1.75,1.35-3.29,4-4.64q8.76-4.42,15.81-14.6h-14.7q-4.12,0-4.13-3.42t4.13-3.53h14.1V63.34h-11q-4.12,0-4.13-3.52c0-2.28,1.38-3.43,4.13-3.43h11V52.26c0-3.28,1.37-4.93,4.13-4.93s4,1.65,4,4.93v4.13H1042V52.26c0-3.28,1.37-4.93,4.13-4.93s4,1.65,4,4.93v4.13h11.07q4,0,4,3.53t-4,3.42h-11.07V93.15h14.3q3.91,0,3.92,3.53a3.11,3.11,0,0,1-.95,2.51,4.89,4.89,0,0,1-3,.91h-15.51a44.63,44.63,0,0,0,17.32,14.2q3.23,1.52,3.22,4.23,0,4.34-4,4.33-2.82,0-10.57-6a68.36,68.36,0,0,1-14.8-16.72h-33.64a74.84,74.84,0,0,1-14.6,17.12q-7.56,6.34-10.68,6.35C978.67,123.57,977.42,122.16,977.42,119.34Zm6.45,13c0-2.35,1.37-3.53,4.13-3.53h30.92V118.63h-17.53q-3.93,0-3.93-3.42t3.93-3.53h17.53v-4.83c0-3.22,1.41-4.84,4.23-4.84s4,1.62,4,4.84v4.83H1045c2.68,0,4,1.18,4,3.53s-1.35,3.42-4,3.42h-17.83V128.8h31.63q4.23,0,4.23,3.63c0,2.42-1.41,3.62-4.23,3.62H988C985.24,136.05,983.87,134.81,983.87,132.33ZM1042,69.18V63.34h-37.16v5.84ZM1042,81V75h-37.16v6Zm0,12.18V86.81h-37.16v6.34Z"/><path class="b1416a21-27a6-48b3-8e7e-c4b3fe36bfa3" d="M1103.76,132.73c-1.78-1.75-2.56-4.6-2.36-8.56V97.89q-12.09,17-16.32,17t-4.13-4.64q0-1.9,3.93-5.44,18.52-16.51,27.6-44.41H1087q-5.14,0-5.14-4t5.14-4h80.06c3.42,0,5.14,1.37,5.14,4.12s-1.72,3.93-5.14,3.93h-45.62Q1115.29,77,1109,86.71h45q6.24,0,8.91,2.67c1.78,1.78,2.53,4.61,2.27,8.51v26.28q.8,11.79-11.18,11.18h-41.39Q1106.43,135.35,1103.76,132.73Zm51.42-6.75a6,6,0,0,0,1.41-4.43v-21a5.06,5.06,0,0,0-5.84-5.84H1115.4a5.06,5.06,0,0,0-5.85,5.84v21c0,3.9,1.88,5.84,5.64,5.84h35.56A6.06,6.06,0,0,0,1155.18,126Z"/><rect class="a6496a79-402a-4869-9884-0c7c8a2b6955" width="1500" height="200"/></svg>