<svg id="e4985273-eb78-4952-9d1b-e06be90b1c8e" data-name="圖層 1" xmlns="http://www.w3.org/2000/svg" viewBox="0 0 1500 200"><defs><style>.bd02b443-e6fc-4d47-b1b5-d9499bdfa625{fill:none;}.e9828206-31ac-4d46-abeb-2e5fae3cb554{fill:#2c3e50;}</style></defs><rect class="bd02b443-e6fc-4d47-b1b5-d9499bdfa625" width="1500" height="200"/><path class="e9828206-31ac-4d46-abeb-2e5fae3cb554" d="M256.24,84.19q0-1.92,5.24-5.94,6.54-5,9.37-7.56a5.54,5.54,0,0,1,3.72-1.81q3.93,0,3.93,3.63c0,1.47-2.69,4.5-8.06,9.06s-8.76,7-10.37,7C257.52,88.54,256.25,87.08,256.24,84.19Zm.1,51c0-1.35.37-2.22,1.11-2.62a18.15,18.15,0,0,1,3.73-.61l3.93-.4a119.14,119.14,0,0,0,15-2.62l8.86-1.81c2.56,0,3.83,1.24,3.83,3.73q0,2.61-4.63,3.72-18.44,4.63-28.5,4.64c-2.22,0-3.33-1.39-3.33-4.07ZM268.93,58.1l-4-2.41c-1.89-1.08-2.83-2.25-2.83-3.53q0-3.72,3.93-3.72c.81,0,3.26,1.1,7.35,3.32s6.25,4,6.25,5.64a4.39,4.39,0,0,1-1,3.22,4.23,4.23,0,0,1-3.12,1C274.67,61.63,272.49,60.46,268.93,58.1ZM266,116.92V95.17q-.71-10.17,9.37-9.37h52.37q10.06-.81,9.36,9.37v21.75q.7,10.06-9.36,9.37H275.38Q265.3,127,266,116.92Zm63-21.75c0-2.29-1.11-3.44-3.33-3.43H277.49q-3.42,0-3.42,3.43v2.21H329Zm0,13.69V103H274.07v5.84Zm0,8.06V114.5H274.07v2.42q0,3.42,3.42,3.42h48.14Q329,120.34,329,116.92ZM310.12,71h-.2q-4,6.14-12.79,10t-15.31,3.92a3.45,3.45,0,0,1-2.61-.85,3.62,3.62,0,0,1-.81-2.57c0-2,1.07-3.16,3.22-3.42q11.08-1.72,17.38-5.9a15.85,15.85,0,0,0,7.4-10.82h-13l-1,1.11q-5.44,6-8.06,6-3.52,0-3.52-3.63c0-1,.77-2.18,2.31-3.52l2-1.71a32,32,0,0,0,2.52-2.42c2.48-2.89,4.23-4.94,5.23-6.14,2-2.42,3.66-3.63,4.94-3.63,2.68,0,4,.94,4,2.82q0,1.51-2.93,4.83h37.47c4.56,0,6.85,1.51,6.85,4.54q0,1.91-6.35,8a42.49,42.49,0,0,1-5,4.38,6.86,6.86,0,0,1-3.07,1.56,3.79,3.79,0,0,1-2.67-.8,3.46,3.46,0,0,1-.86-2.62c0-.94.71-2,2.12-3,3.22-2.62,4.83-4.26,4.83-4.94a.85.85,0,0,0-.3-.65,1,1,0,0,0-.71-.25H313.75l-.71,3q8.67,11.88,30,14.8,3.61.4,3.62,3.63c0,2.68-1.31,4-3.93,4l-2.21-.31Q318.08,82.59,310.12,71Zm8,64.35a20.5,20.5,0,0,1-5.44-2.07c-1.27-.77-1.91-1.56-1.91-2.36q0-3.63,4-3.63l1.91.41a149.07,149.07,0,0,0,24.47,4.12,11.72,11.72,0,0,1,4.43,1.11,2.62,2.62,0,0,1,1.41,2.42q0,3.83-3.72,3.83-10.78,0-25.19-3.83Z"/><path class="e9828206-31ac-4d46-abeb-2e5fae3cb554" d="M377.6,135.05V99a109.22,109.22,0,0,1-7.86,14.61q-4.83,7.45-7.45,7.45c-2.42,0-3.62-1.51-3.62-4.53q0-1.71,2.41-4.64A73.34,73.34,0,0,0,376.29,85.1H363q-4,0-4-3.83c0-2.48,1.34-3.73,4-3.73h14.6V51.46c0-2.75,1.31-4.12,3.93-4.13s3.93,1.37,3.92,4.13V77.54h11.08c3.09,0,4.63,1.25,4.63,3.73a3.46,3.46,0,0,1-1.2,2.87,5.46,5.46,0,0,1-3.43,1H385.45V96.37A4,4,0,0,1,388.58,95c1.2,0,2.92,1.45,5.13,4.33l2.12,2.62a44.62,44.62,0,0,1,3.12,4.38,6,6,0,0,1,.91,3,2.73,2.73,0,0,1-.91,2.11,3.55,3.55,0,0,1-2.42.81q-2,0-3.72-2.42l-6.45-9.17-.91-1.2v35.65q0,4.13-3.92,4.13T377.6,135.05Zm-9.27-61.94a3.55,3.55,0,0,1-2.16-.7,3.32,3.32,0,0,1-1.26-2Q363.8,65.66,362,59.72a5.17,5.17,0,0,1-.2-1.11,2.72,2.72,0,0,1,1-2.17,4,4,0,0,1,2.57-.85A3.6,3.6,0,0,1,368.84,58c.4,1,1,2.57,1.71,4.84a61.23,61.23,0,0,1,1.71,6.24,3,3,0,0,1-.55,2.62,4,4,0,0,1-2.17,1.3,5.45,5.45,0,0,1-1.21.11Zm31.58-16.62a3,3,0,0,1,.55,2.62,61.42,61.42,0,0,1-1.71,6.25q-1.11,3.42-1.71,4.83a3.52,3.52,0,0,1-3.43,2.42,4,4,0,0,1-2.57-.86,2.69,2.69,0,0,1-1-2.16,5.17,5.17,0,0,1,.2-1.11q1.82-5.94,2.92-10.68a3.32,3.32,0,0,1,1.26-2,3.5,3.5,0,0,1,2.16-.71,5.45,5.45,0,0,1,1.21.1A4,4,0,0,1,399.91,56.49Zm30.76,77.45V109.47l-23.16,6.24a9.43,9.43,0,0,1-2.12.3,3,3,0,0,1-2.72-1.21,5.37,5.37,0,0,1-.8-3,4,4,0,0,1,3.32-4.13l25.48-6.54V52.67c0-3.49,1.41-5.23,4.23-5.24s4.23,1.74,4.23,5.24V98.89l6-1.71a5.55,5.55,0,0,1,1.72-.3,3.18,3.18,0,0,1,2.51,1,4.17,4.17,0,0,1,.91,2.92q0,3.12-3.32,4l-7.86,2.42v26.69a6.11,6.11,0,0,1-1.06,4,4,4,0,0,1-3.27,1.26C432,139.18,430.68,137.43,430.67,133.94ZM416.17,92.6a43.18,43.18,0,0,1-4.33-3.28l-3.12-2.41Q405,84,405,82.38a4.17,4.17,0,0,1,.91-2.92,3.18,3.18,0,0,1,2.52-1,7.65,7.65,0,0,1,3.42,1.06A41.75,41.75,0,0,1,417,82.88q6,4.34,6,6.65,0,4.23-4.23,4.23A6,6,0,0,1,416.17,92.6Zm3.93-22a13,13,0,0,1-2.52-1.91q-2.11-2-5.74-4.94-3.12-2.51-3.12-4a4.27,4.27,0,0,1,.85-2.82,3,3,0,0,1,2.37-1,6.1,6.1,0,0,1,3.22.91,53.55,53.55,0,0,1,5.44,3.92,25,25,0,0,1,4.23,4,4.58,4.58,0,0,1,1.11,2.82,3.38,3.38,0,0,1-3.12,3.62,2.77,2.77,0,0,1-.41,0,4.67,4.67,0,0,1-2.31-.62Z"/><path class="e9828206-31ac-4d46-abeb-2e5fae3cb554" d="M476.9,134.54v-38l-11.68,1.2a3.13,3.13,0,0,1-2.72-1,4.42,4.42,0,0,1-.91-3q0-4.33,7.45-4l.81.1,6.85-10a100.52,100.52,0,0,0-12.09-9.06c-1.61-1-2.42-2.19-2.42-3.53,0-2.48,1.25-3.73,3.73-3.73a8.41,8.41,0,0,1,3.63,1.62,100.65,100.65,0,0,0,7.25-14.41Q478.3,47,481.23,47q4.23,0,4.23,3.82,0,3.54-10.47,18.23l-.11.1,5.95,4.54q4.13-6.45,6.24-10.58Q488.78,60,491.2,60c2.68,0,4,1.24,4,3.72,0,1-2.15,4.6-6.45,11a166.31,166.31,0,0,1-11,15l11.69-.61h.4l-1.41-5.23c0-2,1-3,3.12-3q2.73,0,5.24,7c1.67,4.67,2.51,7.55,2.52,8.66q0,3.42-3.53,3.42c-1.75,0-3.12-1.71-4.13-5.14l-1.81.21-5.14.8V134.5c0,3-1.31,4.43-3.92,4.43S476.9,137.5,476.9,134.54Zm-14.4-5.69a3.45,3.45,0,0,1-.91-2.67,12.29,12.29,0,0,1,.91-3.72,61.7,61.7,0,0,0,3.12-16.32q.3-4.23,3.52-4.23a3.53,3.53,0,0,1,2.67.91,4,4,0,0,1,.86,2.82,74.5,74.5,0,0,1-2.42,17,15.49,15.49,0,0,1-2,5.34,3.52,3.52,0,0,1-2.92,1.71,4,4,0,0,1-2.83-.84Zm30.21-2.67a11.14,11.14,0,0,1-1.31-4.43q-1.31-11.07-2.11-13.59l-.51-3.43a2.1,2.1,0,0,1,.71-2.11,4,4,0,0,1,2.51-.71q2.82,0,3.83,4.13,3.33,13.39,3.33,18c0,2.35-1.25,3.52-3.73,3.52A3,3,0,0,1,492.71,126.18Zm8.16-39c0-2.42,1.47-3.63,4.43-3.63h15.91V69.18H502.58c-3,0-4.43-1.24-4.43-3.72s1.47-3.63,4.43-3.63h18.63V52.26a5.34,5.34,0,0,1,1.06-3.62,4.26,4.26,0,0,1,5.94,0,5.34,5.34,0,0,1,1.06,3.62v9.57H549c3.08,0,4.63,1.24,4.63,3.73s-1.55,3.62-4.63,3.62H529.27v14.4H547q4.53,0,4.53,3.63c0,2.48-1.51,3.73-4.53,3.73H505.3c-3,0-4.43-1.25-4.43-3.73Zm4.48,47c-1.45-1.41-2.1-3.66-2-6.75V109.37q0-4.74,2.12-6.9c1.41-1.45,3.66-2.1,6.75-2h27.29q4.83,0,7,2.07c1.44,1.38,2.06,3.64,1.86,6.8v18.12c0,3.23-.69,5.57-2.06,7s-3.64,2.06-6.8,1.87H512.25q-4.74,0-6.9-2.09ZM539.59,128a3.8,3.8,0,0,0,1-2.72v-13.8a3.64,3.64,0,0,0-1-2.77,3.8,3.8,0,0,0-2.72-1h-22c-2.49,0-3.74,1.24-3.73,3.72v13.8c0,2.48,1.24,3.73,3.73,3.73h22a3.66,3.66,0,0,0,2.72-.9Z"/><path class="e9828206-31ac-4d46-abeb-2e5fae3cb554" d="M578.92,135.15v-45q-6,25.18-10.78,25.18c-2.15,0-3.23-1.31-3.22-3.93a6.65,6.65,0,0,1,1.21-3.52q8.05-12.9,12-32.63h-9.06c-2.55,0-3.82-1.28-3.83-3.83s1.28-3.73,3.83-3.73h9.87V51.46c0-2.75,1.24-4.12,3.72-4.13a3.44,3.44,0,0,1,2.77,1,4.75,4.75,0,0,1,.86,3.12V67.67h7c2.55,0,3.82,1.25,3.82,3.73s-1.27,3.83-3.82,3.83h-7V88.92a2.84,2.84,0,0,1,2.21-1c1.14,0,3,2.18,5.44,6.54s3.73,7.08,3.73,8.16q0,3.12-3.43,3.12c-1.14,0-2-.77-2.61-2.32l-2.22-5-3.12-5.94v42.7c0,2.68-1.24,4-3.73,4S578.92,137.83,578.92,135.15Zm21.45.2V122.26h-4q-3.63,0-3.63-3.23,0-3.42,3.63-3.42h4V99.8q0-4.53,2-6.6t6.45-1.76h12.59V86.71H597.85c-2.48,0-3.73-1.11-3.73-3.33S595.37,80,597.85,80h12.49V74.12h-7.45c-2.42,0-3.63-1.08-3.63-3.22s1.21-3.13,3.63-3.13h7.45V62.44H599.46c-2.55,0-3.83-1.15-3.83-3.43s1.28-3.32,3.83-3.32h10.88V50.75c0-2.41,1.24-3.61,3.72-3.62s3.83,1.21,3.83,3.62v4.94H633V50.75c0-2.41,1.27-3.61,3.82-3.62s3.83,1.21,3.83,3.62v4.94h11c2.55,0,3.82,1.14,3.83,3.42s-1.27,3.39-3.83,3.33h-11v5.33h7.76q3.62,0,3.62,3.13c0,2.14-1.21,3.22-3.62,3.22h-7.76V80h12.79c2.48,0,3.73,1.14,3.73,3.42s-1.25,3.33-3.73,3.33H628.77v4.73h13.59c3.09,0,5.33.67,6.7,2s1.93,3.45,1.66,6.4v15.81h2.82q3.63,0,3.63,3.42,0,3.23-3.63,3.23h-2.82V130q0,4.83-2.16,7.1t-7,2h-6.15c-2.88,0-4.33-1.25-4.33-3.73,0-2.75,1.45-4.13,4.33-4.13h4.34a3.07,3.07,0,0,0,2.36-.91,3.79,3.79,0,0,0,1-2.41v-5.64H608v13.09c0,2.75-1.27,4.13-3.83,4.13s-3.8-1.4-3.8-4.15Zm21-37.57h-11c-1.48,0-2.28.84-2.42,2.52v3.23h13.4Zm0,17.83v-6.24H608v6.24ZM633,67.77V62.44H617.89v5.33ZM633,80V74.12H617.89V80Zm10.07,20.44a2.33,2.33,0,0,0-2-2.61,2.18,2.18,0,0,0-.51,0H628.77v5.75h14.3Zm0,15.21v-6.24h-14.3v6.24Z"/><rect class="bd02b443-e6fc-4d47-b1b5-d9499bdfa625" width="1000" height="200"/><path class="e9828206-31ac-4d46-abeb-2e5fae3cb554" d="M100,72.29c-5.67,0-55.42-.39-55.42-13.85S94.33,44.58,100,44.58s55.42.39,55.42,13.86S105.67,72.29,100,72.29ZM51.92,58.44c3.38,2.62,19.6,6.92,48.08,6.92s44.7-4.3,48.08-6.92c-3.38-2.63-19.6-6.93-48.08-6.93S55.3,55.81,51.92,58.44Zm96.69.53Z"/><path class="e9828206-31ac-4d46-abeb-2e5fae3cb554" d="M100,100c-5.67,0-55.42-.39-55.42-13.85a3.47,3.47,0,0,1,6.91-.4C53.62,88.3,70,93.07,100,93.07s46.38-4.77,48.51-7.32a3.47,3.47,0,0,1,6.91.4C155.42,99.61,105.67,100,100,100Z"/><path class="e9828206-31ac-4d46-abeb-2e5fae3cb554" d="M100,127.71c-5.67,0-55.42-.39-55.42-13.86a3.47,3.47,0,0,1,6.91-.39C53.62,116,70,120.78,100,120.78s46.38-4.77,48.51-7.32a3.47,3.47,0,0,1,6.91.39C155.42,127.32,105.67,127.71,100,127.71Z"/><path class="e9828206-31ac-4d46-abeb-2e5fae3cb554" d="M100,155.42c-5.67,0-55.42-.39-55.42-13.86V58.44a3.47,3.47,0,0,1,6.93-.37,2.29,2.29,0,0,1,0,.37v82.75c2.22,2.57,18.61,7.3,48.49,7.3s46.27-4.73,48.49-7.3V58.44a3.47,3.47,0,0,1,6.93-.37,2.29,2.29,0,0,1,0,.37v83.12C155.42,155,105.67,155.42,100,155.42Z"/><circle class="e9828206-31ac-4d46-abeb-2e5fae3cb554" cx="67.67" cy="109.24" r="4.62"/><circle class="e9828206-31ac-4d46-abeb-2e5fae3cb554" cx="67.67" cy="81.53" r="4.62"/><circle class="e9828206-31ac-4d46-abeb-2e5fae3cb554" cx="67.67" cy="136.94" r="4.62"/></svg>