<svg id="e6846e66-93ae-41d0-aeac-6f4c9f145eb6" data-name="圖層 1" xmlns="http://www.w3.org/2000/svg" viewBox="0 0 1500 200"><defs><style>.a899b757-9b89-4dbd-ad05-0f56ad10dc26{fill:none;}.b65ef327-2859-42ed-970c-80b7cc3e54b9,.e95ee047-e995-4acb-9774-e1a22bafe374{fill:#2c3e50;}.e95ee047-e995-4acb-9774-e1a22bafe374{stroke:#2c3e50;stroke-miterlimit:10;stroke-width:2px;}</style></defs><rect class="a899b757-9b89-4dbd-ad05-0f56ad10dc26" width="1500" height="200"/><path id="bf086d55-96d5-4964-9e3d-e89de0c8be12" data-name="edbdf9c8-289b-49fd-8c54-306da47ec4ad" class="e95ee047-e995-4acb-9774-e1a22bafe374" d="M152.23,155.14H122.39a2.91,2.91,0,0,1,0-5.82h26.93V50.68H92.4V60.92a2.91,2.91,0,0,1-5.82,0V47.77a2.91,2.91,0,0,1,2.91-2.91h62.74a2.91,2.91,0,0,1,2.91,2.91h0V152.23a2.91,2.91,0,0,1-2.91,2.91Zm-62.74,0H68.64a2.91,2.91,0,0,1,0-5.82H86.58V136H47.77a2.91,2.91,0,0,1-2.91-2.91h0V73.37a2.91,2.91,0,0,1,2.91-2.91h83.45a2.9,2.9,0,0,1,2.9,2.9h0v59.69a2.9,2.9,0,0,1-2.89,2.91H92.4v13.35h17.95a2.91,2.91,0,1,1,0,5.82H89.49Zm0-25h38.82V76.27H50.68v53.88Zm22.86-18.55H66.63a2.91,2.91,0,0,1,0-5.82h45.72a2.91,2.91,0,1,1,0,5.82Zm-10.29-11H76.92a2.91,2.91,0,0,1-.37-5.81h0a1.93,1.93,0,0,1,.34,0h25.14a2.91,2.91,0,1,1,.37,5.81h-.37Z"/><path class="b65ef327-2859-42ed-970c-80b7cc3e54b9" d="M256.24,84.19q0-1.92,5.24-5.94,6.54-5,9.37-7.56a5.54,5.54,0,0,1,3.72-1.81q3.93,0,3.93,3.63c0,1.47-2.69,4.5-8.06,9.06s-8.76,7-10.37,7C257.52,88.54,256.25,87.08,256.24,84.19Zm.1,51c0-1.35.37-2.22,1.11-2.62a18.15,18.15,0,0,1,3.73-.61l3.93-.4a119.14,119.14,0,0,0,15-2.62l8.86-1.81c2.56,0,3.83,1.24,3.83,3.73q0,2.61-4.63,3.72-18.44,4.63-28.5,4.64c-2.22,0-3.33-1.39-3.33-4.07Zm12.59-77-4-2.42c-1.89-1.07-2.84-2.25-2.83-3.53q0-3.72,3.93-3.72,1.22,0,7.35,3.32t6.25,5.64a4.39,4.39,0,0,1-1,3.22,4.23,4.23,0,0,1-3.12,1c-.83-.05-3-1.24-6.58-3.59ZM266,116.92V95.17q-.71-10.17,9.37-9.37h52.37q10.06-.81,9.36,9.37v21.75q.7,10.06-9.36,9.37H275.38Q265.3,127,266,116.92Zm63-21.75c0-2.29-1.11-3.44-3.33-3.43H277.49q-3.42,0-3.42,3.43v2.21H329Zm0,13.69V103H274.07v5.84Zm0,8.06V114.5H274.07v2.42q0,3.42,3.42,3.42h48.14Q329,120.34,329,116.92ZM310.12,71h-.2q-4,6.14-12.79,10t-15.31,3.92a3.45,3.45,0,0,1-2.61-.85,3.62,3.62,0,0,1-.81-2.57c0-2,1.07-3.16,3.22-3.42q11.08-1.71,17.38-5.9a15.85,15.85,0,0,0,7.4-10.82h-13l-1,1.11q-5.44,6-8.06,6-3.52,0-3.52-3.63c0-1,.77-2.18,2.31-3.52l2-1.71a32,32,0,0,0,2.52-2.42c2.48-2.89,4.23-4.94,5.23-6.14,2-2.42,3.66-3.63,4.94-3.63,2.68,0,4,.94,4,2.82q0,1.51-2.93,4.83h37.47c4.56,0,6.85,1.51,6.85,4.54q0,1.91-6.35,8a42.49,42.49,0,0,1-5,4.38,6.76,6.76,0,0,1-3.07,1.56,3.79,3.79,0,0,1-2.67-.8,3.46,3.46,0,0,1-.86-2.62c0-.94.71-2,2.12-3,3.22-2.62,4.83-4.26,4.83-4.94a.85.85,0,0,0-.3-.65,1,1,0,0,0-.71-.25H313.75l-.71,3q8.67,11.88,30,14.8,3.61.4,3.62,3.63,0,4-3.93,4l-2.21-.3Q318.08,82.59,310.12,71Zm8,64.35a20.5,20.5,0,0,1-5.44-2.07c-1.27-.77-1.91-1.56-1.91-2.36q0-3.63,4-3.63l1.91.41a149.07,149.07,0,0,0,24.47,4.12,11.72,11.72,0,0,1,4.43,1.11,2.62,2.62,0,0,1,1.41,2.42q0,3.83-3.72,3.83-10.78,0-25.19-3.83Z"/><path class="b65ef327-2859-42ed-970c-80b7cc3e54b9" d="M395.12,68.88q0,3.63-4.43,3.63H363q-4.33,0-4.33-3.63c0-2.42,1.44-3.62,4.33-3.62h27.69C393.64,65.26,395.12,66.46,395.12,68.88ZM362,55.29q0-3.63,4.23-3.63h21.25c2.95,0,4.42,1.21,4.43,3.63s-1.47,3.63-4.43,3.62H366.22Q362,58.91,362,55.29Zm29.41,27q0,3.42-4.23,3.42H366.42c-2.75,0-4.13-1.17-4.13-3.53s1.38-3.42,4.13-3.42h20.75c2.82,0,4.23,1.17,4.23,3.52Zm0,13.39q0,3.42-4.23,3.42H366.62q-4.33,0-4.33-3.42t4.13-3.52h20.75q4.23,0,4.23,3.51Zm0,17.72V129q0,8.07-8.26,8.06h-12.5a8.58,8.58,0,0,1-6.14-2,7.7,7.7,0,0,1-2.12-5.84V113.39q0-8,8.26-8h12.49q8.25,0,8.26,8Zm-7.26,1.31a2.32,2.32,0,0,0-1.95-2.62,2.43,2.43,0,0,0-.66,0h-9.27a2.38,2.38,0,0,0-2.62,2.11,2.18,2.18,0,0,0,0,.51v13c0,1.81.87,2.71,2.62,2.71h9.27c1.67,0,2.55-.9,2.61-2.71Zm66.57,1.41a60.24,60.24,0,0,1,0,7.36q-.81,8.05-2.92,11.12a6.45,6.45,0,0,1-5.54,3.08,5.85,5.85,0,0,1-4.38-2.42,17.86,17.86,0,0,1-3.27-7.15q-3-11.39-3.12-28.91l-.3-31.32.1-3.72a3.89,3.89,0,0,0-1.21-3.38,5.09,5.09,0,0,0-3.73-.85H415.87v26H422q4.23,0,4.23,3.73a3.35,3.35,0,0,1-1.11,2.67,4.62,4.62,0,0,1-3.12,1h-6.14V134q0,4.53-3.83,4.53a3.65,3.65,0,0,1-2.92-1.16,5,5,0,0,1-1-3.37V93.25h-6.95c-2.88,0-4.33-1.24-4.33-3.72s1.45-3.63,4.33-3.63h6.95v-26h-9.46q-4.74,0-4.74-3.73t4.74-3.72h30.71q9.87,0,9.87,8.15l-.1,2,.2,41.19a119.32,119.32,0,0,0,1.06,17c.64,3.86,1.49,5.79,2.57,5.79.54,0,.87-.91,1-2.72s.23-5.1.3-9.87q0-3.33,3.22-3.33c2,0,3,1.15,3.12,3.43a15.11,15.11,0,0,0,.11,2Z"/><path class="b65ef327-2859-42ed-970c-80b7cc3e54b9" d="M537.22,136.05q-7.25-4.23-21.05-10.57-16.6,12.69-44.31,12.69a7.38,7.38,0,0,1-4.48-1.11,4,4,0,0,1-1.46-3.42,3.34,3.34,0,0,1,1.71-3.23q1.31-.6,9-.8a74.6,74.6,0,0,0,17.47-2.27,48.9,48.9,0,0,0,13.34-5.49,213.15,213.15,0,0,0-22-7.45,10.42,10.42,0,0,1-4.23-2.11A4.34,4.34,0,0,1,479.8,109a10.3,10.3,0,0,1,1.21-4.33l5.74-11.38H468.24q-4.74,0-4.74-3.72t4.74-3.83h22.25l6.05-14.3c.87-2.15,2.18-3.23,3.92-3.22a5.07,5.07,0,0,1,3.43,1,3.91,3.91,0,0,1,1.21,3.08q0,1.41-5.34,13.39H547.7c3.15,0,4.72,1.28,4.73,3.83s-1.57,3.79-4.73,3.72h-13Q531.39,109,522.82,119a228.39,228.39,0,0,1,22.56,10.48q3.42,1.82,3.42,4.63a4.56,4.56,0,0,1-4.27,4.84,4.85,4.85,0,0,1-.66,0C542.79,139,540.58,138,537.22,136.05ZM464.11,76.74V67.87c-.27-3.62.39-6.24,2-7.85s4.24-2.29,7.89-2h28.9V51.76c0-2.88,1.48-4.33,4.43-4.33s4.33,1.45,4.33,4.33V58h30.22q5.43-.39,7.85,2t2,7.85v8.87a5.15,5.15,0,0,1-1,3.52,4.66,4.66,0,0,1-6,0,5.1,5.1,0,0,1-1-3.52V69.59a4.4,4.4,0,0,0-1.11-3.23,3.93,3.93,0,0,0-3.12-1H476.39c-2.88,0-4.26,1.41-4.12,4.23v7.15c0,3.09-1.35,4.63-4,4.63S464.11,79.83,464.11,76.74Zm25.78,29.5c0,1.15.7,1.92,2.11,2.32q6.75,1.81,20.35,6.55c.74.2,1.57.47,2.52.8q8.25-7.95,11.28-22.66h-30l-5.84,11.38a3.64,3.64,0,0,0-.42,1.61Z"/><path class="b65ef327-2859-42ed-970c-80b7cc3e54b9" d="M656.56,81.37a7.37,7.37,0,0,1-.2,1.41q-.81,3.42-3.93,3.42a7.69,7.69,0,0,1-1.91-.3,76.46,76.46,0,0,1-21.85-11.13,74.94,74.94,0,0,1-16.42-16.36,93.38,93.38,0,0,1-17.92,16.87,98.86,98.86,0,0,1-22.56,12.43,8.36,8.36,0,0,1-2.42.51,3.61,3.61,0,0,1-3.73-2.62,4.32,4.32,0,0,1-.3-1.51c0-1.81,1.07-3.16,3.22-4a92.81,92.81,0,0,0,36.16-24.6H585.76q-4.83,0-4.83-3.93t4.83-3.93h21.46a12.91,12.91,0,0,1,4.88.81,9.06,9.06,0,0,1,3.58,2.82,77.23,77.23,0,0,0,15.86,15.41,80.72,80.72,0,0,0,21.2,10.47C655.29,78,656.56,79.35,656.56,81.37Zm-3.92,50.35q0,3.83-4.94,3.83H574.18q-4.93,0-4.93-3.93c0-2.62,1.64-3.92,4.93-3.92h32.33V111.78H584.66c-3.29,0-4.93-1.31-4.94-3.92s1.64-3.92,4.94-3.93h21.85V90.13H585q-4.63,0-4.63-3.62c0-2.56,1.54-3.83,4.63-3.83h52.27c3.08,0,4.63,1.27,4.63,3.83a3.25,3.25,0,0,1-1.11,2.76,5.73,5.73,0,0,1-3.52.86h-22.6v13.8h22.66q4.83,0,4.83,3.93t-4.83,3.92H614.67V127.7h33Q652.64,127.7,652.64,131.72Z"/><rect class="a899b757-9b89-4dbd-ad05-0f56ad10dc26" width="1093.05" height="200"/></svg>