<svg id="圖層_1" data-name="圖層 1" xmlns="http://www.w3.org/2000/svg" viewBox="0 0 638.74 147.86"><defs><style>.cls-1{fill:#2c3e50;stroke:#2c3e50;stroke-miterlimit:10;}.cls-2{fill:none;}</style></defs><path class="cls-1" d="M494.71,136.52H470.85v19.86c0,2.24-.43,3.86-1.28,4.88a6,6,0,0,1-8,0c-.86-1-1.28-2.64-1.28-4.88V136.52H437.21q-6.56,0-6.56-5.77,0-5.61,6.56-5.61h23.07V115.05H449.07q-6.09,0-9.29-3.2t-3.21-9.45v-36q0-12.81,12.5-12.82h11.21V44.11H438.5q-6.42,0-6.41-5.77t6.41-5.77h21.78V21.68a6.27,6.27,0,0,1,1.28-4.4,6.58,6.58,0,0,1,8,0,6.32,6.32,0,0,1,1.28,4.4V32.57h22.58q6.4,0,6.41,5.77t-6.41,5.77H470.85v9.44h11.21q12.81,0,12.81,12.82v36q0,6.09-3.28,9.29t-9.53,3.36H470.85v10.09h23.86q6.57,0,6.57,5.61T494.71,136.52ZM447.79,78.86h12.49V64h-8.65c-2.56,0-3.84,1.29-3.84,3.85Zm3.84,25.78h8.65V89H447.79v12C447.79,103.42,449.07,104.64,451.63,104.64ZM480,64h-9.13v14.9h13v-11C483.82,65.25,482.54,64,480,64Zm3.84,25h-13v15.69H480a4.09,4.09,0,0,0,3-.88,3.85,3.85,0,0,0,.88-2.8Zm93.05,64.54q0,7-6.41,7t-18.89-15.22a85.34,85.34,0,0,1-10.49-17,146.09,146.09,0,0,1-8.25-21.38q-6.26,33.95-27.39,49.32-6.88,5.13-11.05,5.13c-2.14,0-3.66-.54-4.56-1.6s-1.37-2.78-1.37-5.13,2.09-4.64,6.25-6.88q29.63-16.18,31.07-78.8V65.57q0-6.57,5.93-6.57,5.76,0,5.76,7.69,0,4.49-.48,10.09l-.32,5.28q6.57,42.6,33,62.14Q576.88,149.5,576.87,153.49Zm-78-82q11.69-20.34,16.65-47.88a10.69,10.69,0,0,1,2.32-5.37,5.68,5.68,0,0,1,4.41-1.84c4,0,6.08,1.82,6.08,5.44a26.71,26.71,0,0,1-1.44,7.53l-4.64,14.42h43.56q9,0,9,7.68,0,2.88-7.37,21a72,72,0,0,1-6.32,12.74q-3,4.4-4.89,4.4a7.56,7.56,0,0,1-4.72-1.2A4.5,4.5,0,0,1,550,84.62a10.43,10.43,0,0,1,1.61-5.28q8.8-16.65,8.81-21c0-1.92-1.29-2.88-3.85-2.88H518.25l-7.84,18.25c-2.35,5.67-4.92,8.49-7.69,8.49q-5.93,0-5.93-5.76C496.79,75.6,497.49,74,498.88,71.49Z" transform="translate(-430.15 -15.42)"/><path class="cls-1" d="M596.09,87.83V73.89q0-4.64,2-7.2a7.9,7.9,0,0,1,5.85-2.89V33.38q0-11.87,12-11.86h25q12,0,12,11.86V63.8a8.26,8.26,0,0,1,5.84,2.89,11.46,11.46,0,0,1,2.32,7.2V85.11q0,6.4-5.28,6.4t-5.29-6.4V78.86q0-4-4-4H610.82c-2.67,0-4.05,1.33-4.16,4v9q0,6.24-5.28,6.24T596.09,87.83ZM609,160.7a6.77,6.77,0,0,1-1.52-4.81V94.71q0-11.37,11.69-11.37h20.18q11.53,0,11.53,11.37v53.34q0,6.88-3.2,10.33t-9.93,3.44h-5.44a6.08,6.08,0,0,1-4.33-1.36,5.6,5.6,0,0,1-1.44-4.25q0-5.76,5.6-5.76h2.73a4.77,4.77,0,0,0,3.52-1.28,5,5,0,0,0,1.28-3.69V134.75H619v21.14q0,6.41-5.76,6.41A5.58,5.58,0,0,1,609,160.7Zm13.7-108.59q0-9.76,9.61-9.77h10.57V37.06q0-4-4.17-4.17H618.51c-2.67,0-4.11,1.45-4.32,4.33V63.64h8.49Zm17,46q0-4.17-4.16-4.17H623.16q-4.17,0-4.17,4.17v6.24h20.66Zm0,26.42v-9.93H619v9.93Zm3.21-72.07h-6.09q-3.84,0-3.84,3.69v7.52h9.93Zm11.53,101.86q0-5.28,5.28-5.28h18.9l-2.88-12.33q-5.61,0-8.65-2.49t-3-7.28V116.66q0-5,2.8-7.61t8.25-2.64H722q11.21,0,11.21,9.93v10.09q0,10.24-11.69,10.25L718.77,149h17.14q5.28,0,5.28,5.28t-5.28,5.29H659.67Q654.39,159.58,654.39,154.29Zm7.2-56.45a4.94,4.94,0,0,1-1.44-3.77q0-5.28,5.61-5.28h70.31q5.11,0,5.12,5.28t-5.12,5.13H665.76A5.83,5.83,0,0,1,661.59,97.84ZM665,78.38q-3.12-3-2.65-9.77V42.66q0-7,3.05-10.25t9.77-2.72h8.33v-8a5.39,5.39,0,0,1,1.2-3.92,4.89,4.89,0,0,1,3.6-1.2q5,0,5,5.12v8H704v-8q0-5.12,5-5.12,4.8,0,4.8,5.12v8h9.29q7,0,10.17,3t2.81,9.93v26q0,6.89-3.13,10.09t-9.85,2.72H675.21Q668.16,81.42,665,78.38ZM683.7,39.94h-6.57q-3.36,0-3.68,3.68v7.21H683.7Zm0,20H673.45v7.69c0,2.35,1.22,3.58,3.68,3.68h6.57Zm37.63,63.58v-4q0-3.53-3.52-3.68H679.37c-2.35,0-3.52,1.22-3.52,3.68v4c0,2.25,1.17,3.47,3.52,3.69h38.44C719.94,127.23,721.12,126,721.33,123.54ZM707.88,149l2.24-11.85v-.48H686.74l2.56,11.21.16,1.12ZM704.2,50.83V39.94H693.14V50.83Zm0,20.5V60H693.14V71.33Zm20.66-27.71q0-3.67-3.69-3.68h-7.53V50.83h11.22Zm0,24V60H713.64V71.33h7.53C723.63,71.33,724.86,70.11,724.86,67.65Z" transform="translate(-430.15 -15.42)"/><path class="cls-1" d="M758.65,50.51q0-5.92,7.05-5.92h43.08q7.2,0,7.2,5.92t-7.2,5.93H765.7Q758.65,56.44,758.65,50.51Zm5.76-21.62q0-5.92,6.89-5.93h32.51q7.05,0,7.05,5.93t-7.05,5.93H771.3Q764.42,34.82,764.41,28.89ZM767.94,153q-3.36-3.19-3.37-9.61V121.3q0-13,13.3-13h19.06q13.44,0,13.45,13v21.78q0,6.4-3.44,9.77t-10,3.36H777.87Q771.3,156.21,767.94,153Zm-3.05-81.36a5.24,5.24,0,0,1,1.77-4.32,7.91,7.91,0,0,1,5.12-1.44h31.55a8.3,8.3,0,0,1,5.21,1.44,5.17,5.17,0,0,1,1.84,4.32q0,5.92-7,5.93H771.78Q764.9,77.58,764.89,71.65Zm0,21.3q0-5.76,6.89-5.76h31.55q7,0,7,5.92a5.17,5.17,0,0,1-1.84,4.33,8.3,8.3,0,0,1-5.21,1.44H772.1Q764.9,98.88,764.89,93Zm33,48.05V123.38q0-3.84-3.85-3.84H780.91q-4,0-4,3.84V141q0,4,4,4H794Q797.9,145,797.89,141Zm13.29,13.29q0-5,9.45-7.52,16.17-4.49,26.42-11.38v-.32a70.06,70.06,0,0,1-11-14.89,69,69,0,0,1-4-7.69,13.88,13.88,0,0,1-1.28-5.28q0-4.65,6.73-4.65,4.15,0,6.4,6.73,6.09,12,13.13,18.26h.32a96.88,96.88,0,0,0,14.26-15.86c2.13-2.77,3.9-5.2,5.28-7.29s2.09-3.44,2.09-4.08c0-1.49-1-2.24-3-2.24H825.43A8.59,8.59,0,0,1,820,96.56,5.49,5.49,0,0,1,818.07,92q0-5.92,7.36-5.92h56.22q13.94,0,13.93,8.81,0,4.8-9.61,18.57-9.93,14.1-18.42,21.46v.48q11.37,6.57,31.24,11.38,6.08,1.44,6.08,6.56,0,7.36-6.73,7.37-7.2,0-19-5a134,134,0,0,1-22.11-12h-.32a142.83,142.83,0,0,1-22.26,11.85q-12.17,5.3-17.29,5.29Q811.17,160.86,811.18,154.29ZM817,74.7a6.45,6.45,0,0,1,2.88-5.13q6.88-5.13,8.65-11.85,1.59-5.92,1.6-24.51,0-11.52,12.49-11.53h23.22q12.33,0,12.33,12V60.6c0,3.2,1.93,4.81,5.77,4.81a19.6,19.6,0,0,0,4.65-.4,2.83,2.83,0,0,0,1.92-1.37c.85-1.7,1.33-4.8,1.44-9.28q.32-7.36,5.76-7.37,6.26,0,6.25,5.92,0,18.27-5.61,21.47-4.32,2.4-15.85,2.4-16.19,0-16.18-9.45V39.14q0-5.13-5.44-5.44h-14.1c-2.24,0-3.63.58-4.16,1.76q-1,2.24-1,10.25,0,13.93-3.84,21-7.69,14.09-15.06,14.09Q817,80.78,817,74.7Z" transform="translate(-430.15 -15.42)"/><path class="cls-1" d="M929.21,56.76q-6.72,0-6.72-6.09,0-6.24,6.72-6.24h50.93q6.74,0,6.73,6.24,0,6.09-6.73,6.09Zm-.64-28.19q0-6.09,6.57-6.09H973.9a7.1,7.1,0,0,1,5,1.61,5.92,5.92,0,0,1,1.76,4.64q0,6.09-6.72,6.09H935.14Q928.57,34.82,928.57,28.57Zm51.09,92.73v23.38q0,12.81-13,12.82h-25q-13,0-13-12.82V121.3q0-12.81,13-12.81h25Q979.67,108.49,979.66,121.3Zm-6.4-55.09q6.56,0,6.56,5.92t-6.56,5.93h-37.8q-6.4,0-6.41-5.93t6.41-5.92Zm7,26.9q0,5.92-6.56,5.93H935.46q-6.4,0-6.41-5.93t6.41-5.92h38.28Q980.31,87.19,980.3,93.11Zm-13,31.23a3.52,3.52,0,0,0-4.16-4.16H945.23a4.15,4.15,0,0,0-3,1,4.91,4.91,0,0,0-1.12,3.2v17.3a4.4,4.4,0,0,0,1,3.2,4.89,4.89,0,0,0,3.2,1.12h17.94a3.94,3.94,0,0,0,3-1,5.31,5.31,0,0,0,1.12-3.28Zm101.06-50.29q0,5.94-6.89,5.93h-28.34v74.15q0,4.49-1.61,6.49c-1.06,1.33-2.83,2-5.28,2s-4.22-.67-5.29-2-1.6-3.5-1.6-6.49V80H992.32q-7.05,0-7.05-6.09t7.05-6.08h27.06V25.05c0-2.89.56-5,1.68-6.41a6.31,6.31,0,0,1,5.21-2.08c2.45,0,4.22.67,5.28,2s1.61,3.5,1.61,6.49V67.81h28.34Q1068.38,67.81,1068.39,74.05Z" transform="translate(-430.15 -15.42)"/><rect class="cls-2" x="0.5" y="0.5" width="637.74" height="146.86"/></svg>