<svg id="fe2992ae-e75d-4fe7-8d36-ad7c3d5ed9b3" data-name="圖層 1" xmlns="http://www.w3.org/2000/svg" viewBox="0 0 1500 200"><defs><style>.aa7fd17e-036c-4e86-ac56-bf4c0a691efd,.bc126b1f-47ed-4273-9620-655a71b5f77f{fill:#2c3e50;}.bc126b1f-47ed-4273-9620-655a71b5f77f{stroke:#2c3e50;stroke-miterlimit:10;stroke-width:2px;}.bd4aa5d8-d950-40fa-a03e-1a5864fd75f1{fill:none;}</style></defs><path id="a93ac04c-24fb-4a8e-a4b0-3dc43989ea57" data-name="icon" class="bc126b1f-47ed-4273-9620-655a71b5f77f" d="M152.23,155.14H122.39a2.91,2.91,0,0,1,0-5.82h26.93V50.68H92.4V60.92a2.91,2.91,0,0,1-5.82,0V47.77a2.91,2.91,0,0,1,2.91-2.91h62.74a2.91,2.91,0,0,1,2.91,2.91h0V152.23a2.91,2.91,0,0,1-2.91,2.91Zm-62.74,0H68.64a2.91,2.91,0,0,1,0-5.82H86.58V136H47.77a2.91,2.91,0,0,1-2.91-2.91h0V73.37a2.91,2.91,0,0,1,2.91-2.91h83.45a2.9,2.9,0,0,1,2.9,2.9h0v59.69a2.9,2.9,0,0,1-2.89,2.91H92.4v13.35h17.95a2.91,2.91,0,1,1,0,5.82H89.49Zm0-25h38.82V76.27H50.68v53.88Zm22.86-18.55H66.63a2.91,2.91,0,0,1,0-5.82h45.72a2.91,2.91,0,1,1,0,5.82Zm-10.29-11H76.92a2.91,2.91,0,1,1-.34-5.81,1.93,1.93,0,0,1,.34,0h25.14a2.91,2.91,0,1,1,.34,5.81Z"/><path class="aa7fd17e-036c-4e86-ac56-bf4c0a691efd" d="M295.72,123h-15v12.49a4.72,4.72,0,0,1-.81,3.07,3.12,3.12,0,0,1-2.52,1,3.08,3.08,0,0,1-2.51-1,4.72,4.72,0,0,1-.81-3.07V123h-14.5c-2.76,0-4.13-1.21-4.13-3.62s1.37-3.53,4.13-3.53h14.5v-6.34H267a7.88,7.88,0,0,1-5.84-2c-1.35-1.34-2-3.32-2-5.94V78.85q0-8.05,7.85-8.06h7.05V64.85h-13.7c-2.68,0-4-1.21-4-3.62s1.35-3.63,4-3.63h13.7V50.75a4,4,0,0,1,.81-2.77,3.28,3.28,0,0,1,2.51-.85,3.32,3.32,0,0,1,2.52.85,4,4,0,0,1,.81,2.77V57.6h14.2q4,0,4,3.63t-4,3.62h-14.2v5.94h7q8.06,0,8.05,8.06v22.66a7.81,7.81,0,0,1-2.06,5.84,8.57,8.57,0,0,1-6,2.12h-7v6.34h15q4.13,0,4.13,3.53T295.72,123ZM266.21,86.71h7.86V77.34h-5.44a2.14,2.14,0,0,0-2.42,2.42Zm2.42,16.21h5.44V93.05h-7.86v7.55C266.21,102.15,267,102.92,268.63,102.92Zm17.83-25.58h-5.74v9.37h8.15V79.76A2.13,2.13,0,0,0,286.46,77.34Zm2.41,15.71h-8.15v9.87h5.74a2.57,2.57,0,0,0,1.86-.55,2.42,2.42,0,0,0,.55-1.77Zm58.52,40.59c0,3-1.35,4.43-4,4.43s-6.72-3.19-11.89-9.57a53.48,53.48,0,0,1-6.59-10.72,92.27,92.27,0,0,1-5.19-13.45q-3.93,21.36-17.22,31c-2.89,2.15-5.2,3.22-7,3.22a3.56,3.56,0,0,1-2.87-1,4.92,4.92,0,0,1-.86-3.22q0-2.22,3.93-4.33,18.63-10.17,19.54-49.55V78.35q0-4.12,3.73-4.13t3.62,4.83q0,2.82-.3,6.35l-.2,3.32q4.13,26.79,20.74,39.08Q347.4,131.11,347.39,133.64ZM298.34,82.07Q305.69,69.29,308.81,52a6.75,6.75,0,0,1,1.46-3.37A3.59,3.59,0,0,1,313,47.43q3.82,0,3.83,3.42a16.7,16.7,0,0,1-.91,4.74L313,64.65h27.4q5.64,0,5.64,4.84,0,1.8-4.64,13.19a45.59,45.59,0,0,1-4,8c-1.25,1.84-2.27,2.76-3.08,2.76a4.81,4.81,0,0,1-3-.75,2.85,2.85,0,0,1-.95-2.37,6.55,6.55,0,0,1,1-3.32Q337,76.54,337,73.82c0-1.21-.8-1.82-2.41-1.82H310.53l-4.94,11.48q-2.22,5.34-4.83,5.34-3.74,0-3.73-3.62A8.66,8.66,0,0,1,298.34,82.07Z"/><path class="aa7fd17e-036c-4e86-ac56-bf4c0a691efd" d="M359.47,92.35V83.58a7.22,7.22,0,0,1,1.26-4.53,5,5,0,0,1,3.68-1.81V58.11q0-7.45,7.55-7.46h15.71q7.56,0,7.55,7.46V77.24a5.22,5.22,0,0,1,3.68,1.81,7.31,7.31,0,0,1,1.46,4.53v7q0,4-3.32,4t-3.33-4V86.71a2.23,2.23,0,0,0-2.52-2.52H368.74a2.33,2.33,0,0,0-2.62,2.52v5.64c0,2.62-1.11,3.92-3.33,3.92S359.47,95,359.47,92.35Zm8.11,45.82a4.23,4.23,0,0,1-1-3V96.68q0-7.16,7.35-7.15h12.69q7.26,0,7.25,7.15v33.53c0,2.89-.67,5-2,6.5s-3.43,2.16-6.24,2.16h-3.43a3.84,3.84,0,0,1-2.72-.85,3.53,3.53,0,0,1-.9-2.67q0-3.63,3.52-3.63h1.71a3,3,0,0,0,2.22-.8,3.17,3.17,0,0,0,.8-2.32v-6.75h-13v13.3c0,2.68-1.21,4-3.62,4A3.49,3.49,0,0,1,367.58,138.17Zm8.61-68.28q0-6.15,6-6.14h6.65V60.42a2.38,2.38,0,0,0-2.62-2.62H373.57c-1.68,0-2.59.91-2.72,2.72V77.14h5.34Zm10.67,28.9a2.31,2.31,0,0,0-2.61-2.62h-7.76a2.32,2.32,0,0,0-2.62,2.62v3.93h13Zm0,16.62v-6.24h-13v6.24Zm2-45.32h-3.83c-1.61,0-2.42.77-2.42,2.32v4.73h6.25Zm7.25,64c0-2.22,1.11-3.32,3.32-3.32h11.89l-1.82-7.76a8.41,8.41,0,0,1-5.44-1.56,5.58,5.58,0,0,1-1.91-4.58v-6.45a6.27,6.27,0,0,1,1.76-4.78,7.31,7.31,0,0,1,5.19-1.66h29.51q7,0,7.05,6.24v6.35q0,6.45-7.35,6.44l-1.72,7.76h10.78c2.22,0,3.32,1.1,3.32,3.32s-1.1,3.32-3.32,3.32H399.45C397.24,137.46,396.13,136.36,396.13,134.14Zm4.53-35.5a3.12,3.12,0,0,1-.91-2.37q0-3.31,3.53-3.32h44.21q3.22,0,3.22,3.32t-3.22,3.23H403.28A3.68,3.68,0,0,1,400.66,98.64Zm2.17-12.24q-2-1.91-1.67-6.14V64c0-3,.64-5.1,1.92-6.45s3.32-1.91,6.14-1.71h5.24v-5a3.38,3.38,0,0,1,.75-2.46,3.07,3.07,0,0,1,2.27-.76c2.08,0,3.12,1.08,3.12,3.22v5h6.75v-5c0-2.14,1-3.22,3.12-3.22s3,1.08,3,3.22v5h5.84q4.44,0,6.4,1.91C447,59,447.62,61.06,447.49,64V80.26c0,2.89-.65,5-2,6.35s-3.38,1.91-6.2,1.71H409.22Q404.79,88.32,402.83,86.4Zm11.73-24.17h-4.13c-1.41,0-2.18.78-2.32,2.32v4.53h6.45Zm0,12.59h-6.45v4.84A2.1,2.1,0,0,0,410.43,82h4.13Zm23.67,40v-2.51A2.06,2.06,0,0,0,436,110H411.84c-1.48,0-2.22.77-2.22,2.32v2.51a2.12,2.12,0,0,0,2.22,2.32H436C437.35,117.12,438.09,116.35,438.23,114.8Zm-8.46,16,1.41-7.46v-.3H416.47l1.61,7.05.1.71Zm-2.32-61.74V62.23H420.5v6.85Zm0,12.89V74.82H420.5V82Zm13-17.42a2.05,2.05,0,0,0-2.32-2.32h-4.73v6.85h7.05Zm0,15.11V74.82h-7.05V82h4.73A2,2,0,0,0,440.44,79.66Z"/><path class="aa7fd17e-036c-4e86-ac56-bf4c0a691efd" d="M462.3,127.59q0-4.12,5.13-4.12h35.75V62.94h-29.3q-5.14,0-5.14-4.13t5.14-4.23h67.77q5.34,0,5.34,4.23t-5.34,4.13H511.84v60.53H548.1q5.24,0,5.24,4.12t-5.24,4.23H467.43Q462.3,131.82,462.3,127.59Z"/><path class="aa7fd17e-036c-4e86-ac56-bf4c0a691efd" d="M580.23,134.75v-40a76.72,76.72,0,0,1-5.74,14.71c-2.36,4.76-4.33,7.15-6,7.15q-3.62,0-3.62-4.23c0-1.08.67-2.55,2-4.43a80.6,80.6,0,0,0,12.49-27.4h-9.16q-4.74,0-4.74-3.82t4.74-3.83h10V59.11a104.15,104.15,0,0,1-11.08,1.21q-3.63,0-3.63-4.23a2.69,2.69,0,0,1,1.61-2.72,33.13,33.13,0,0,1,7.25-1.31,118.38,118.38,0,0,0,19.24-3.32l2-.3a3.81,3.81,0,0,1,3.38.85,4.6,4.6,0,0,1,1.16,3.38,3.43,3.43,0,0,1-1.82,2.82q-1.9,1.3-10.37,2.62v14.8h7.25c3.16,0,4.73,1.28,4.73,3.83s-1.57,3.82-4.73,3.82H588v13A3,3,0,0,1,590.7,92a4.91,4.91,0,0,1,2.62,1.52A30.72,30.72,0,0,1,597.25,98q4.43,5.94,4.43,7.55c0,2.35-1.15,3.52-3.43,3.52q-1.71,0-3.72-3.22A76.3,76.3,0,0,0,589,98.19l-1-1.71v38.27q0,4.53-3.93,4.53T580.23,134.75Zm14.8-3.43c0-2.42,1.31-3.62,3.93-3.62h23.56V115.81H606.41q-3.93,0-3.93-3.52t3.93-3.53h16.11V98.39L606.31,99.5a5.08,5.08,0,0,1-3.53-.91,3.72,3.72,0,0,1-1.2-3,3.17,3.17,0,0,1,1.31-2.82q1.3-1,8.05-1.11a230.35,230.35,0,0,0,33.44-3.12l1.31-.2a3.5,3.5,0,0,1,3.17.85A4.47,4.47,0,0,1,650,92.45q0,2.42-4.43,3.52-1.62.41-15,1.82v11H647.4q3.83,0,3.83,3.53t-3.83,3.52H630.58V127.7h22.36c2.68,0,4,1.24,4,3.72s-1.35,3.63-4,3.63H599C596.34,135.05,595,133.8,595,131.32Zm9.06-48.94q-2.12-2-1.81-6.55V61q0-4.64,2.07-6.75c1.37-1.41,3.54-2,6.49-1.81h31.62c3.09,0,5.34.68,6.75,2.06s2,3.54,1.81,6.5v14.8c0,3.16-.67,5.42-2,6.8s-3.52,2-6.55,1.76H610.84Q606.2,84.39,604.09,82.38Zm39.18-8.56V63q0-3.12-3.32-3.32H613.16c-2.08,0-3.19,1.1-3.33,3.32V73.82q0,3.12,3.33,3.32H640Q643.16,77.14,643.27,73.82Z"/><rect class="bd4aa5d8-d950-40fa-a03e-1a5864fd75f1" width="1500" height="200"/></svg>