<svg id="圖層_1" data-name="圖層 1" xmlns="http://www.w3.org/2000/svg" viewBox="0 0 639.54 147.22"><defs><style>.cls-1{fill:#2c3e50;stroke:#2c3e50;stroke-miterlimit:10;}.cls-2{fill:none;}</style></defs><path class="cls-1" d="M477.57,154.29A43.8,43.8,0,0,1,458,143.4l-.33-.16q-15.52,13.45-20.33,13.46-6.25,0-6.25-7.37,0-5.13,7.21-8A98.42,98.42,0,0,0,451,134.75V105.12c0-3.3-1.66-5-5-5h-8.64q-6.74,0-6.73-5.93,0-5.76,6.73-5.76h12.49q6.88,0,10.09,3t2.88,9.37v32.51l4.48,4.17q10.41,8.33,46.61,8.32l56.86-.64q6.08,0,6.08,5.93,0,6.57-9.29,6.57l-49.49-.16Q489.43,157.5,477.57,154.29Zm-25.78-86L438.5,62.52q-5-2.24-5-6.24,0-6.26,6.25-6.25c1.7,0,6.14,1.5,13.29,4.49Q463.48,59,463.48,63.8q0,6.57-6.25,6.57Q455.31,70.37,451.79,68.29Zm8.41-28.91c-1.66-.8-2.65-1.31-3-1.52l-10.57-5.45q-5.6-2.88-5.6-6.72,0-6.26,6.08-6.25,2.08,0,12.66,4.65a26.53,26.53,0,0,1,7.52,4.72,7.15,7.15,0,0,1,2.57,5.05q0,6.72-6.25,6.72A9.9,9.9,0,0,1,460.2,39.38ZM468,111.53q0-5.44,5.45-5.44h22.1V95.52H478.86c-3.64,0-5.45-1.77-5.45-5.29S475.22,85,478.86,85h16.65V80.62a5.77,5.77,0,0,1,1.6-4.4,6.48,6.48,0,0,1,4.65-1.52,6.77,6.77,0,0,1,4.72,1.52,5.63,5.63,0,0,1,1.68,4.4V85h25.63V80.62q0-5.93,6.25-5.92,6.08,0,6.08,5.92V85h17q5.45,0,5.44,5.28c0,3.52-1.81,5.29-5.44,5.29h-17v10.57h22.74a5,5,0,0,1,5.61,5.6,5.44,5.44,0,0,1-1.44,4,5.65,5.65,0,0,1-4.17,1.44H473.41Q468,117.14,468,111.53ZM473.41,133c0-3,1.81-4.86,5.45-5.6l15.21-4.65,9.77-3.68,1.28-.16a4.94,4.94,0,0,1,4.33,1.2,6.43,6.43,0,0,1,1.44,4.56q0,2.09-3.29,4.33a59.36,59.36,0,0,1-10.33,5.12q-12.81,5.13-18.09,5.13Q473.41,139.24,473.41,133Zm7.85-61.18a8.45,8.45,0,0,1-4.65-3,9,9,0,0,1-1.44-5.37V32.25A12,12,0,0,1,477.25,25q2.08-2.8,9.61-2.81h19.38q12.66,0,12.65,10.41v8.49q0,5-3,7.61c-2,1.76-5,2.7-8.81,2.8l-19.7.16v7.69c0,1.5.38,2.46,1.12,2.88a13.93,13.93,0,0,0,5.93,1q11.69,0,13-1c.86-.64,1.6-2,2.25-4.16s2.66-3.36,6.08-3.36A7.64,7.64,0,0,1,520.42,56a4.18,4.18,0,0,1,1.68,3.52q0,8-5.61,11.21-4.17,2.25-17.78,2.24T481.26,71.81ZM507,38.66V35q0-3-4.16-3H491.51q-4.17,0-4.17,3.37v6.88h15.54Q506.72,42.18,507,38.66Zm26.75,67.43V95.52H508.16v10.57Zm-3.52-34.28a7,7,0,0,1-4.41-2.8,9.41,9.41,0,0,1-1.52-5.53V32.25q0-10.08,12.33-10.09H558q6.4,0,9.53,2.57t3.12,8.16v8.17q0,5-3,7.61c-2,1.76-5,2.7-8.81,2.8L536,51.63v7.53q0,3.36,4.17,3.84l10.09.16q10.56.33,11.53-2.72,2.07-5.76,7.36-5.76A7.62,7.62,0,0,1,573.91,56a4.34,4.34,0,0,1,1.68,3.68q0,6.89-4.32,10.09-4.65,3.21-22.11,3.2Q534.74,72.93,530.27,71.81Zm15.37,63.26q-15.06-6.56-15-10.41,0-6.07,6.24-6.08a13.32,13.32,0,0,1,4.81,1.44,157.08,157.08,0,0,0,21.46,7.69q9.93,2.72,9.93,7.52,0,6.26-6.73,6.25Q560.38,141.48,545.64,135.07Zm13.13-96.41V35q0-3-4-3H540.68q-4.33,0-4.33,3.37v6.88h18.42C557.22,42.18,558.56,41,558.77,38.66Z" transform="translate(-430.15 -15.74)"/><path class="cls-1" d="M612.59,155.41v-74Q603.94,100,599.77,100c-3.31,0-5-2.13-5-6.41q0-2.72,2.4-7,13.93-24.51,24.67-65,1.44-5.28,6.24-5.28c4.27,0,6.41,1.82,6.41,5.44q0,3-9.93,30.91V155.41q0,7.05-5.93,7.05Q612.58,162.46,612.59,155.41Zm22.26-16.65V44.43q0-6.41,5.6-6.41a5.19,5.19,0,0,1,4.17,1.68,7.06,7.06,0,0,1,1.44,4.73v94.33q0,6.41-5.77,6.4Q634.85,145.16,634.85,138.76Zm13.37,19.7a6.72,6.72,0,0,1-1.52-4.81q0-5.28,10.41-6.4A153.83,153.83,0,0,0,726,121.46q4.15-2.88,6.56-2.88,6.26,0,6.25,6.08,0,6.57-25.47,18.42-25,11.53-55.89,16.18l-4.64.48A5.25,5.25,0,0,1,648.22,158.46Zm.4-71.91a5.68,5.68,0,0,1,3.52-5.61l8.17-2.4a106.32,106.32,0,0,0,23.23-9.93Q675.2,60.77,668.64,47q-9.28,15.06-14.57,15t-5.29-5.76q0-1.92,3.68-5.93Q661.28,41.23,668.8,23q2.88-6.72,7.53-6.72c3.73,0,5.6,1.66,5.6,5q0,2.25-4,9.93h53.33q6.4,0,6.41,5.61,0,5.44-6.41,5.44h-8.33a85.91,85.91,0,0,1-20.18,26.59q11.06,6.41,31.23,9.77,7.21,1.13,7.21,6.08,0,7-6.73,7-5.44,0-18.41-4.48A108.27,108.27,0,0,1,692.82,76.3Q665.76,93,654.55,93,648.63,93,648.62,86.55Zm7.29,26a5.7,5.7,0,0,1-1.52-4.24q0-4.65,9.13-6.73a131.61,131.61,0,0,0,31.39-12.33q5.28-2.88,7.36-2.88,6.09,0,6.09,5.76,0,2.25-5.21,5.61a104.24,104.24,0,0,1-15,7.53q-21,8.8-28,8.8A5.7,5.7,0,0,1,655.91,112.57Zm-.08,16.58q0-4.65,6.72-5.77,24.83-4.32,48.85-18.74a9.75,9.75,0,0,1,4.65-1.6,7,7,0,0,1,4.72,1.36,5.42,5.42,0,0,1,1.52,4.25q0,4.17-10.89,9.29l-4.8,2.24Q696,125,690.74,126.91q-11.54,4.16-23.86,7.36a23.23,23.23,0,0,1-5.13,1.12Q655.83,135.39,655.83,129.15Zm53.49-87H677.45q6.88,13.62,15.37,20.5Q702.92,55.17,709.32,42.18Z" transform="translate(-430.15 -15.74)"/><path class="cls-1" d="M758.81,50.51q0-5.76,6.73-5.76H806.7q6.72,0,6.72,5.76t-6.72,5.77H765.54Q758.81,56.28,758.81,50.51Zm5.6,21.14q0-5.59,6.73-5.6h29.31q6.57,0,6.57,5.6,0,5.77-6.57,5.77H771.14Q764.42,77.42,764.41,71.65Zm0,21.3q0-5.6,6.73-5.6h29.31q6.57,0,6.57,5.76,0,5.61-6.57,5.61H771.14Q764.42,98.72,764.41,93Zm.16-64.06q0-5.76,6.89-5.77h30.27q7,0,7,5.77t-7,5.77H771.46Q764.58,34.66,764.57,28.89Zm3.45,124c-2.19-2.14-3.29-5.28-3.29-9.45V121.14q0-12.65,13-12.65H794.2q13,0,13,12.65v21.94q0,13-13,13H777.71Q771.31,156.05,768,152.85ZM796,140.68v-17c0-2.66-1.38-4-4.16-4H780.11c-2.78,0-4.16,1.34-4.16,4v17c0,2.78,1.38,4.16,4.16,4.16H791.8C794.58,144.84,796,143.46,796,140.68Zm55.1,15.53V121.62a55.46,55.46,0,0,1-7.53,10q-4.32,4.56-11.53,11-12,10.58-16.5,10.57-6.4,0-6.4-6.4,0-3,8.33-8.49A115.7,115.7,0,0,0,834.16,125a70,70,0,0,0,12.25-14.73H817.75q-7.05,0-7-5.93,0-5.59,7-5.6h33.31V87.35H832.8q-16.17,1.28-14.89-14.9V38.34q-1.29-16.17,14.89-14.89h48.69q16.17-1.12,14.89,14.89V72.45q1.29,16-14.89,14.9H862.27V98.72H897q7.22,0,7.21,5.6,0,5.94-7.21,5.93H865.63a77.56,77.56,0,0,0,34.12,29q5.44,2.4,5.44,6.72,0,6.89-6.57,6.89-5.11,0-17-9.29-9.45-7.2-19.38-22.26v34.91q0,6.25-5.61,6.25T851.06,156.21Zm0-121.23H835.2c-3.74,0-5.6,1.87-5.6,5.6v8.81h21.46Zm0,25.62H829.6v9.61c0,3.74,1.86,5.61,5.6,5.61h15.86Zm33.47-20q0-5.59-5.6-5.6H862.27V49.39h22.26Zm0,29.63V60.6H862.27V75.82h16.66Q884.53,75.82,884.53,70.21Z" transform="translate(-430.15 -15.74)"/><path class="cls-1" d="M947.15,155.25V91.67A121,121,0,0,1,938,115.05q-5.6,11.39-9.45,11.38-5.76,0-5.76-6.73,0-2.57,3.2-7a128.2,128.2,0,0,0,19.86-43.56H931.3q-7.53,0-7.53-6.09t7.53-6.08h15.85V35q-13.6,1.92-17.61,1.92-5.77,0-5.77-6.73a4.27,4.27,0,0,1,2.56-4.32q2.73-1.12,11.53-2.08a187.23,187.23,0,0,0,30.59-5.29l3.21-.48c2.34-.32,4.13.14,5.36,1.36a7.27,7.27,0,0,1,1.84,5.37q0,2.57-2.88,4.48-3,2.09-16.5,4.17V56.92H971q7.51,0,7.52,6.08T971,69.09H959.48V89.75a4.74,4.74,0,0,1,4.33-2.4q1.44,0,4.16,2.4a48.87,48.87,0,0,1,6.25,7q7,9.45,7,12c0,3.74-1.82,5.6-5.45,5.6-1.82,0-3.79-1.7-5.93-5.12a120.66,120.66,0,0,0-8.8-12.17l-1.61-2.73v60.86q0,7.22-6.24,7.21T947.15,155.25Zm23.55-5.44q0-5.77,6.24-5.77h37.48v-18.9H988.79c-4.16,0-6.24-1.86-6.24-5.6s2.08-5.61,6.24-5.61h25.63V97.44L988.63,99.2a8,8,0,0,1-5.6-1.44A5.91,5.91,0,0,1,981.11,93a5.07,5.07,0,0,1,2.08-4.48c1.38-1.07,5.66-1.66,12.81-1.76q31.07-1,53.17-5l2.08-.32a5.59,5.59,0,0,1,5,1.36,7,7,0,0,1,1.84,5.21q0,3.84-7.05,5.6-2.56.64-23.86,2.89v17.45H1054q6.07,0,6.08,5.61c0,3.74-2,5.6-6.08,5.6h-26.75V144h35.56q6.39,0,6.4,5.93,0,5.76-6.4,5.76H976.94Q970.7,155.73,970.7,149.81ZM985.11,72q-3.36-3.19-2.88-10.41V38q0-7.37,3.28-10.73t10.33-2.88h50.29q7.36,0,10.73,3.28T1059.74,38V61.56q0,7.53-3.2,10.81t-10.41,2.81H995.84Q988.47,75.18,985.11,72Zm62.3-13.61V41.22q0-5-5.29-5.28h-42.6q-5,0-5.28,5.28V58.36q0,5,5.28,5.28h42.6Q1047.25,63.64,1047.41,58.36Z" transform="translate(-430.15 -15.74)"/><rect class="cls-2" x="0.5" y="0.18" width="637.74" height="146.86"/></svg>