<svg id="f2faf436-329d-444a-855d-acc8b69af435" data-name="圖層 1" xmlns="http://www.w3.org/2000/svg" viewBox="0 0 1500 200"><defs><style>.aa906557-4fc2-4a4d-9980-385f605fcb13,.baba5bbd-81c8-4656-8b4b-68dc86242462{fill:#2c3e50;}.aa906557-4fc2-4a4d-9980-385f605fcb13{stroke:#2c3e50;stroke-miterlimit:10;stroke-width:2px;}.ae259058-ad7e-41fb-acd0-3c3137176d35{fill:none;}</style></defs><path id="bc88804d-2f9e-4eb1-8e85-e5b683471f10" data-name="icon" class="aa906557-4fc2-4a4d-9980-385f605fcb13" d="M152.23,155.14H122.39a2.91,2.91,0,0,1,0-5.82h26.93V50.68H92.4V60.92a2.91,2.91,0,0,1-5.82,0V47.77a2.91,2.91,0,0,1,2.91-2.91h62.74a2.91,2.91,0,0,1,2.91,2.91h0V152.23a2.91,2.91,0,0,1-2.91,2.91Zm-62.74,0H68.64a2.91,2.91,0,0,1,0-5.82H86.58V136H47.77a2.91,2.91,0,0,1-2.91-2.91h0V73.37a2.91,2.91,0,0,1,2.91-2.91h83.45a2.9,2.9,0,0,1,2.9,2.9h0v59.69a2.9,2.9,0,0,1-2.89,2.91H92.4v13.35h17.95a2.91,2.91,0,1,1,0,5.82H89.49Zm0-25h38.82V76.27H50.68v53.88Zm22.86-18.55H66.63a2.91,2.91,0,0,1,0-5.82h45.72a2.91,2.91,0,1,1,0,5.82Zm-10.29-11H76.92a2.91,2.91,0,1,1-.34-5.81,1.93,1.93,0,0,1,.34,0h25.14a2.91,2.91,0,1,1,.34,5.81Z"/><path class="baba5bbd-81c8-4656-8b4b-68dc86242462" d="M347.29,96.17a2.69,2.69,0,0,1,1,2.22q0,2.82-3.72,2.82h-32v3.32h20q4.34,0,6.3,1.92c1.31,1.27,1.86,3.29,1.66,6v16.72c0,2.88-.64,5-1.92,6.34s-3.29,1.91-6,1.71H270.85q-4.34,0-6.3-1.91c-1.31-1.28-1.86-3.32-1.66-6.14V112.49q0-4.33,1.91-6.3c1.28-1.31,3.29-1.86,6.05-1.66h16.71l.21-3.32H259a4.18,4.18,0,0,1-2.77-.81,2.71,2.71,0,0,1-.95-2.21q0-2.82,3.72-2.82h85.61A4.29,4.29,0,0,1,347.29,96.17ZM260,90.38q-2-1.86-1.66-6V56.9q0-4.34,1.86-6.25c1.24-1.27,3.28-1.81,6.09-1.61h32.53c2.29,0,3.43,1,3.43,2.92s-1.14,2.82-3.43,2.82H268.33c-1.68,0-2.52.88-2.52,2.62V84c0,1.81.84,2.72,2.52,2.72h29.31c2.41,0,3.62.9,3.62,2.72a2.48,2.48,0,0,1-1,2.06,4.19,4.19,0,0,1-2.66.76H266.31Q262,92.25,260,90.38Zm26-16.56a13.33,13.33,0,0,1-1.1,2.31,3.76,3.76,0,0,1,1-.1q1.82,0,7.76,2.42,5.24,2.11,5.23,4.13c0,1.74-1,2.62-3.12,2.62q-1.6,0-4.83-2.12a43.4,43.4,0,0,0-5.64-2.92c-1.14-.4-1.75-1-1.81-1.81a22.88,22.88,0,0,1-8.77,6.54,9.74,9.74,0,0,1-3.62,1,3,3,0,0,1-2.12-.75,2.87,2.87,0,0,1-.8-2.17c0-1.41.8-2.32,2.42-2.72,5-1.34,8.09-3.49,9.36-6.44h-8.76a3.42,3.42,0,0,1-2.22-.66,2.56,2.56,0,0,1,0-3.72,3.42,3.42,0,0,1,2.22-.66h10a33.88,33.88,0,0,0,.5-4.43h-6.54q-2.22,2.72-3.83,2.72a2.31,2.31,0,0,1-2.62-2.62,3.5,3.5,0,0,1,.3-1.16,4.33,4.33,0,0,1,.91-1.36c.87-1.07,2.05-2.65,3.52-4.73a3.4,3.4,0,0,1,2.72-1.71c1.88,0,2.82.64,2.82,1.91a5.4,5.4,0,0,1-.7,2.12h17c1.95,0,2.92.8,2.92,2.41s-1,2.42-2.92,2.42h-7.55a37.48,37.48,0,0,1-.41,4.43h10.38a3.39,3.39,0,0,1,2.21.66,2.54,2.54,0,0,1,0,3.72,3.39,3.39,0,0,1-2.21.66Zm26.49,36.35v2.32c0,1.41,1.14,2.11,3.42,2.11h4.23c2,0,3.16-.43,3.43-1.31a3.46,3.46,0,0,1,3.52-2.51q3.23,0,3.23,2.92,0,5.94-8.87,5.94H314a13.09,13.09,0,0,1-6.29-1.21,3.76,3.76,0,0,1-2.17-3.42v-4.84H293.2q-1.71,4.64-7.45,7.86t-9.06,3.32q-3.12,0-3.12-3.22a2.35,2.35,0,0,1,.65-1.76,4.7,4.7,0,0,1,2.07-1.06q7.65-1.82,9.76-5.14H273.36c-1.81,0-2.71.87-2.71,2.62v9.47h62.13v-9.47a2.71,2.71,0,0,0-.65-1.91,2.56,2.56,0,0,0-2-.71Zm20.14,17.32h-62v1.31a2.4,2.4,0,0,0,2.71,2.72h56.7c1.75,0,2.62-.9,2.62-2.72Zm-27.19-23v-3.32H294.71l-.2,3.32Zm-3.42-39q0-1.31,2.82-3.53a10.3,10.3,0,0,0,2.21-6.74q.21-5.74,6-5.74h12.19q6.24,0,6.24,6.24v3.32c0,1.28,1.05,2,3.13,2.12h1.71c2,0,3.09-1.34,3.22-4,.13-1.75,1.24-2.62,3.33-2.62s3.12.94,3.12,2.82q0,9.47-8.87,9.57H333q-7.55,0-7.75-4.53V58c0-1.54-.87-2.38-2.62-2.51h-7.55q-1.81,0-2.32,3.82a11.82,11.82,0,0,1-2.92,6.45q-2.62,2.92-4.53,2.92Q302.06,68.68,302.07,65.56Zm.85,23.06a5.63,5.63,0,0,1,2.57-1.11,31.08,31.08,0,0,0,9.06-2.82q-6.74-4.23-6.74-6.14a2.17,2.17,0,0,1,.7-1.66,2.55,2.55,0,0,1,1.82-.66,4.67,4.67,0,0,1,2.06.46A16.07,16.07,0,0,1,315,78.35a42.3,42.3,0,0,0,6.14,3.82,50.62,50.62,0,0,0,9.47-5.74,1.38,1.38,0,0,0,.5-.8c0-.47-.37-.71-1.11-.71H306.09c-2.14,0-3.22-.9-3.22-2.72s1.08-2.71,3.22-2.71H335.3q6,0,6,3.72T328.05,84.59a68.06,68.06,0,0,0,14.4,2.22c2.48.07,3.73,1.07,3.73,3q0,3.32-3.63,3.32-8.46,0-21.35-5a75.1,75.1,0,0,1-9.52,3.82,23,23,0,0,1-6.19,1.31,3.93,3.93,0,0,1-2.57-.65,2.48,2.48,0,0,1-.75-2A2.62,2.62,0,0,1,302.92,88.62Z"/><path class="baba5bbd-81c8-4656-8b4b-68dc86242462" d="M450,118.83q0,3.33-4.13,3.33H407.61v7.15q0,5.43-2.32,7.85t-7.35,2H391.8a6,6,0,0,1-3.68-.91,3.49,3.49,0,0,1-1.16-2.92c0-2.49,1.62-3.73,4.84-3.73h4q3.72,0,3.92-3.92v-5.54H363.5q-4,0-4-3.33t4-3.32h36.25v-2.82a3.54,3.54,0,0,1,1.72-3.32c1.07-.67,3.76-1.51,8-2.52L420,104.13v-.2H375.48q-3.92,0-3.92-3.12a3.08,3.08,0,0,1,.9-2.42,4.51,4.51,0,0,1,3-.81h53.88a15.52,15.52,0,0,1,5.84.86,2.77,2.77,0,0,1,2,2.57q0,1.6-7,4.53A175.34,175.34,0,0,1,410.83,112c-2.15.61-3.22,1.58-3.22,2.93v.6h38.27Q450,115.51,450,118.83Zm-89.33-17V94.06c0-2.75.54-4.77,1.61-6s2.82-2,5.24-2h1.41l-2.12-28.9A6.27,6.27,0,0,1,368,52.92a6.5,6.5,0,0,1,3.88-2.27l10.37-1.71,3.22-.8,1.16-.31a5.29,5.29,0,0,1,1.26-.2q3.12,0,3.12,3.53,0,1.61-2.82,2.67a46.11,46.11,0,0,1-9.46,1.86,6.64,6.64,0,0,0-3.18,1.06,2.34,2.34,0,0,0-.85,2.16l.1,2.82h12.29q3.72,0,3.72,3.12T387.07,68H375.28l.4,5.53h11.39q3.72,0,3.72,3.23t-3.72,3.12h-11l.4,6.14h56.8l.4-6.14H421.61c-2.28,0-3.43-1-3.43-3.12s1.15-3.23,3.43-3.23H434.2l.2-5.53H421.61a3.78,3.78,0,0,1-2.62-.76,3.09,3.09,0,0,1-.81-2.37c0-2.08,1.15-3.12,3.43-3.12H435.1V59.62a3.56,3.56,0,0,0-.6-2.37,2.94,2.94,0,0,0-2.22-.66H420.7q-3.22,0-3.22-2.92a3.23,3.23,0,0,1,.75-2.36,3.38,3.38,0,0,1,2.47-.76H435q7.86,0,7.86,6L440.74,86h1.11q7.35,0,6.75,8.06v8.16c0,3.15-1.35,4.73-4,4.73a3.88,3.88,0,0,1-3-1.11,5.33,5.33,0,0,1-1-3.62V96q0-3.12-3.32-3.32h-65q-3.22,0-3.42,3.32v5.94c0,3.16-1.35,4.74-4,4.74S360.68,105,360.68,101.81ZM392,63.54q0-1.71,5.94-5.23l2.22-1.21q-6.35-4.44-6.35-5.74a2.49,2.49,0,0,1,.76-1.92,3.08,3.08,0,0,1,2.16-.7q1.22,0,8.06,4.73l2.92-3c1.41-1.54,2.68-2.31,3.83-2.31a3.2,3.2,0,0,1,2.26.7,2.47,2.47,0,0,1,.76,1.91c0,1.15-1.68,3.19-5,6.15l1.11.6c2.82,2,4.23,3.69,4.23,5a3.11,3.11,0,0,1-.81,2.31,3,3,0,0,1-2.21.81c-.94,0-2.08-.64-3.42-1.91l-3.53-3.33q-7.65,6-10,6A2.58,2.58,0,0,1,392,63.54ZM398.65,77l2-1.21-1.11-.7q-5.13-3.33-5.13-4.74c0-1.74,1-2.62,2.92-2.62a8.44,8.44,0,0,1,3.32,1.51l3.12,1.82,1.61,1.1,2.72-2.61q2.42-2.22,3.63-2.22c2.08,0,3.12.91,3.12,2.72q0,1.81-4.63,5.44c4,2.68,5.94,4.7,5.94,6q0,3.12-3,3.12c-.81,0-1.95-.63-3.43-1.91l-4.33-3.63a56.1,56.1,0,0,1-6.34,4.38,9.58,9.58,0,0,1-3.83,1.57c-2,0-2.92-.94-2.92-2.82C392.3,81.13,394.42,79.39,398.65,77Z"/><path class="baba5bbd-81c8-4656-8b4b-68dc86242462" d="M462.5,84.19q0-1.92,5.23-5.94,6.56-5,9.37-7.56a5.58,5.58,0,0,1,3.73-1.81q3.92,0,3.92,3.63c0,1.47-2.68,4.5-8.05,9.06s-8.76,7-10.38,7Q462.5,88.52,462.5,84.19Zm.1,51c0-1.35.37-2.22,1.11-2.62a17.89,17.89,0,0,1,3.72-.61l3.93-.4a119.09,119.09,0,0,0,15-2.62l8.86-1.81q3.82,0,3.82,3.73,0,2.61-4.63,3.72-18.44,4.64-28.5,4.64C463.71,139.18,462.6,137.83,462.6,135.15Zm12.59-77-4-2.42q-2.82-1.61-2.82-3.53,0-3.72,3.93-3.72,1.2,0,7.35,3.32t6.24,5.64a4.41,4.41,0,0,1-1,3.22,4.26,4.26,0,0,1-3.12,1C480.93,61.63,478.74,60.46,475.19,58.11Zm-2.92,58.81V95.17q-.72-10.17,9.36-9.37H534q10.07-.81,9.37,9.37v21.75q.71,10.06-9.37,9.37H481.63Q471.57,127,472.27,116.92Zm62.94-21.75q0-3.44-3.32-3.43H483.75q-3.44,0-3.43,3.43v2.21h54.89Zm0,13.69V103H480.32v5.84Zm0,8.06V114.5H480.32v2.42q0,3.42,3.43,3.42h48.14Q535.21,120.34,535.21,116.92ZM516.38,71h-.21q-4,6.14-12.79,10t-15.3,3.92a3.47,3.47,0,0,1-2.62-.85,3.62,3.62,0,0,1-.81-2.57c0-2,1.08-3.16,3.23-3.42q11.07-1.71,17.37-5.9a15.85,15.85,0,0,0,7.4-10.82h-13l-1,1.11q-5.43,6-8.06,6-3.52,0-3.52-3.63c0-1,.77-2.18,2.32-3.52l2-1.71a31,31,0,0,0,2.52-2.42q3.72-4.34,5.24-6.14,3-3.63,4.93-3.63c2.68,0,4,.94,4,2.82,0,1-1,2.62-2.92,4.83h37.46q6.86,0,6.85,4.54,0,1.91-6.34,8.05a42.72,42.72,0,0,1-5,4.38,6.73,6.73,0,0,1-3.07,1.56,3.77,3.77,0,0,1-2.67-.8,3.47,3.47,0,0,1-.86-2.62c0-.94.71-2,2.12-3,3.22-2.62,4.83-4.26,4.83-4.94a.82.82,0,0,0-.3-.65,1.06,1.06,0,0,0-.7-.25H520l-.7,3q8.66,11.88,30,14.8c2.42.27,3.62,1.48,3.62,3.63q0,4-3.92,4l-2.22-.3Q524.34,82.58,516.38,71Zm8,64.35a20.39,20.39,0,0,1-5.44-2.07c-1.27-.77-1.91-1.56-1.91-2.36q0-3.63,4-3.63l1.91.41a148.92,148.92,0,0,0,24.47,4.12,11.86,11.86,0,0,1,4.44,1.11,2.62,2.62,0,0,1,1.41,2.42c0,2.55-1.25,3.83-3.73,3.83Q538.74,139.18,524.33,135.35Z"/><path class="baba5bbd-81c8-4656-8b4b-68dc86242462" d="M601.38,68.88q0,3.63-4.44,3.63H569.25q-4.34,0-4.33-3.63c0-2.42,1.44-3.62,4.33-3.62h27.69C599.9,65.26,601.38,66.46,601.38,68.88ZM568.24,55.29q0-3.63,4.23-3.63h21.25q4.42,0,4.43,3.63t-4.43,3.62H572.47Q568.24,58.91,568.24,55.29Zm29.41,27q0,3.42-4.23,3.42H572.67c-2.75,0-4.13-1.17-4.13-3.53s1.38-3.42,4.13-3.42h20.75Q597.65,78.75,597.65,82.28Zm0,13.39q0,3.42-4.23,3.42H572.87c-2.88,0-4.33-1.14-4.33-3.42s1.38-3.52,4.13-3.52h20.75Q597.65,92.15,597.65,95.67Zm0,17.72V129q0,8.07-8.26,8.06H576.9a8.59,8.59,0,0,1-6.14-2,7.7,7.7,0,0,1-2.12-5.84V113.39q0-8,8.26-8h12.49Q597.64,105.44,597.65,113.39Zm-7.25,1.31a2.32,2.32,0,0,0-2.62-2.62h-9.27a2.36,2.36,0,0,0-2.61,2.62v13c0,1.81.87,2.71,2.61,2.71h9.27c1.68,0,2.55-.9,2.62-2.71ZM657,116.11a66,66,0,0,1,0,7.36q-.81,8.06-2.92,11.12a6.46,6.46,0,0,1-5.54,3.08,5.82,5.82,0,0,1-4.38-2.42,17.78,17.78,0,0,1-3.28-7.15q-3-11.38-3.12-28.91l-.3-31.32.1-3.72a3.86,3.86,0,0,0-1.21-3.38,5.08,5.08,0,0,0-3.73-.85H622.12v26h6.14q4.23,0,4.23,3.73a3.37,3.37,0,0,1-1.1,2.67,4.63,4.63,0,0,1-3.13,1h-6.14v40.69q0,4.53-3.83,4.53a3.67,3.67,0,0,1-2.92-1.16,5,5,0,0,1-1-3.37V93.25h-7q-4.33,0-4.33-3.72t4.33-3.63h7v-26H604.9c-3.16,0-4.73-1.24-4.73-3.73s1.57-3.72,4.73-3.72h30.72q9.87,0,9.87,8.15l-.11,2,.21,41.19a117.57,117.57,0,0,0,1,17q1,5.79,2.57,5.79c.54,0,.87-.91,1-2.72s.23-5.1.3-9.87q0-3.33,3.22-3.33c2,0,3.06,1.15,3.13,3.43A13.42,13.42,0,0,0,657,116.11Z"/><path class="baba5bbd-81c8-4656-8b4b-68dc86242462" d="M703.6,124q0,3.12-13,8.66-13.29,5.64-17.92,5.64c-2.56,0-3.83-1.44-3.83-4.33,0-2.28,1.91-3.83,5.74-4.63a71,71,0,0,0,20.14-7.66q3.63-2,4.43-2Q703.6,119.64,703.6,124ZM669,113.19c0-2.62,1.11-3.92,3.32-3.92h4l-1.1-48.45q-.11-6,4.43-7.85l6.74-2.52,3.73-1.51a17.11,17.11,0,0,1,3.73-1.31c2.62,0,3.92,1.51,3.92,4.53a2.79,2.79,0,0,1-1.2,2.32l-7,2.92a37.17,37.17,0,0,0-4.64,2.22c-1,.6-1.54,1.2-1.61,1.81l.3,8.86h11.08q3.33,0,3.33,3.83t-3.33,3.72H683.76l.3,11h10.57q3.33,0,3.33,3.83c0,2.42-1.11,3.62-3.33,3.62H684.26l.3,13h34v-27a3,3,0,0,0-.7-2.22,3.38,3.38,0,0,0-2.22-.81h-6.44q-7.15,0-7.16-7.25V50.75q0-3.53,3.63-3.52t3.63,3.52V54h12.58a5.47,5.47,0,0,1,3.43,1,3.46,3.46,0,0,1,1.21,2.87q0,3.73-4.64,3.73H709.34v7.65a2.58,2.58,0,0,0,2.92,2.92h6.34q7.46,0,7.45,7.36v29.81h17.43l.3-13H733.1c-2.28,0-3.42-1.2-3.42-3.62s1.14-3.83,3.42-3.83h10.78l.4-11H733.1q-3.42,0-3.42-3.82t3.42-3.73h11.38l.2-8c.14-2.22-1-3.33-3.52-3.33H732.5q-3.63,0-3.63-3.93t3.63-3.92h12.18q4.23,0,6.35,1.71a5.83,5.83,0,0,1,2,5l-1.51,51.37h5c2.35,0,3.52,1.3,3.52,3.92s-1.17,3.73-3.52,3.73h-84.3Q669,116.92,669,113.19Zm33.13-11.88V87.21q0-3.93,3.83-3.93,3.63,0,3.63,3.93v14.1q0,3.93-3.63,3.93Q702.09,105.24,702.08,101.31Zm56.15,29.61a4.16,4.16,0,0,1,1,2.82q0,4.42-4.53,4.43-6.55,0-18.74-5.64-12-5.44-12-8.56,0-4.12,4.43-4.13a7.27,7.27,0,0,1,3.52,1.41q9.68,5.75,23.57,8.26A4.48,4.48,0,0,1,758.23,130.92Z"/><path class="baba5bbd-81c8-4656-8b4b-68dc86242462" d="M790,121.35q0,2.22-6.24,7.86-6.45,5.83-9.37,5.84-3.23,0-3.22-3.83,0-1.92,3.42-4a35,35,0,0,0,7.66-6.44q2.52-2.62,4.23-2.62Q790,118.13,790,121.35ZM772.38,88.52q0-3.22,3.73-3.22h20.44V80.87H786.18q-4.33,0-6.35-2c-1.34-1.34-2-3.42-1.81-6.24v-14q0-4.34,2-6.3t6.2-1.76h28.3c2.88,0,5,.64,6.34,1.92s1.95,3.32,1.81,6.14v14c0,2.89-.64,5-1.91,6.29s-3.36,2-6.24,2H804.2V85.3h19.94a4.26,4.26,0,0,1,2.72.8,2.93,2.93,0,0,1,1,2.42c0,2.22-1.24,3.32-3.73,3.32h-48C773.62,91.84,772.38,90.74,772.38,88.52Zm32.13,28V130c0,3.09-.68,5.39-2,6.9s-3.42,2.27-6.24,2.27h-4.94q-4.42,0-4.43-3.83c0-2.49,1.08-3.73,3.22-3.73h3.73q3.12,0,3.12-3.52V116.52H786.58q-8,0-8-7.25v-6.15q0-3.83,2-5.59c1.31-1.17,3.3-1.76,6-1.76h29.1q3.93,0,5.9,1.76c1.3,1.18,2,3,2,5.59v6.15c0,2.48-.66,4.31-2,5.48s-3.28,1.77-5.9,1.77Zm-18.84-54h29.41V59.31a2.62,2.62,0,0,0-.75-2,2.94,2.94,0,0,0-2.07-.71H788.39a2.41,2.41,0,0,0-2.72,2.72Zm2.72,12.28h23.87A2.49,2.49,0,0,0,815.08,72V68.48H785.67V72C785.67,73.88,786.58,74.82,788.39,74.82Zm.71,35.35h24c2.08,0,3.12-1,3.12-3v-2a3,3,0,0,0-.81-2.22,3.12,3.12,0,0,0-2.31-.8h-24a2.77,2.77,0,0,0-3,3v2C786.08,109.17,787.08,110.17,789.1,110.17ZM822,125.88q0,3.93-4,3.93a3.12,3.12,0,0,1-1.66-.55,17.71,17.71,0,0,1-2.17-1.77l-2.61-2.31a19.31,19.31,0,0,1-2.22-2.17,2.72,2.72,0,0,1-.81-1.46c0-2.28,1.25-3.42,3.73-3.42,1.07,0,3,1,5.74,2.92S822,124.54,822,125.88Zm41.69-13.29a6.24,6.24,0,0,1-1.91,3.78,48.84,48.84,0,0,1-6.55,5.69,133.67,133.67,0,0,1-18.12,11.68q-9.17,4.83-12.09,4.83-3.82,0-3.83-4.33a3.69,3.69,0,0,1,1.06-2.62,9.37,9.37,0,0,1,3.37-2,90.76,90.76,0,0,0,15.67-8,103.11,103.11,0,0,0,13.94-11q2.52-2.31,3.93-2.31Q863.72,108.26,863.72,112.59ZM825,69.18c0-1.81,1.11-3.18,3.32-4.13a54.1,54.1,0,0,0,9.42-5.38q5-3.48,11.43-8.71,2.71-2.22,4.13-2.22,4.43,0,4.43,3.93,0,2.92-12.39,11.78t-16.51,9C826.22,73.41,825,72,825,69.18Zm30.21,8.06c2.76,0,4.13,1.24,4.13,3.73q0,2.91-12,12.48t-16.22,9.47c-2.48,0-3.72-1.37-3.72-4.13a3.83,3.83,0,0,1,1.21-2.52,11.42,11.42,0,0,1,3.52-2.41,63.12,63.12,0,0,0,9.37-5.64,55.05,55.05,0,0,0,8.25-7.15C852.07,78.52,853.89,77.24,855.16,77.24Z"/><path class="baba5bbd-81c8-4656-8b4b-68dc86242462" d="M900.38,53.27,894,70.9v63.64q0,4.74-3.93,4.74t-3.93-4.74V88.42q-5.83,11.47-8.36,11.48-3.52,0-3.52-4c0-1.21.7-3,2.11-5.24q9.57-15.3,15.61-38,1.51-5.34,4.84-5.34c2.62,0,3.92,1.28,3.92,3.83Zm66.07,74.63c0,2.88-1.41,4.33-4.23,4.33q-3.83,0-9.87-5.44a64.23,64.23,0,0,1-10.48-12.29,33.87,33.87,0,0,1,.61,6.55q0,9.36-3.53,14-3.32,4.32-12.59,4.33-4.93,0-4.93-4.43c0-2.35,1.58-3.7,4.73-4a19.63,19.63,0,0,0,6.25-1.41c1.94-.94,2.92-3.93,2.92-9l-.41-3.32a100.48,100.48,0,0,1-17.52,12.29q-11.48,6.65-15.81,6.64c-2.48,0-3.73-1.27-3.73-3.82,0-1.55,1.92-3.06,5.74-4.53a97.41,97.41,0,0,0,29.71-16.92l-2.11-4.43a122.49,122.49,0,0,1-18,10.87q-6.34,3.23-8.56,3.22-3.42,0-3.42-3.52,0-2.62,4.23-4a90.64,90.64,0,0,0,22.76-11.48l-2.92-3.72Q906.93,108,902,108a3.32,3.32,0,0,1-3.62-3.63q0-2.31,5.44-4.23a110,110,0,0,0,21.45-10H912.47c-2.76,0-4.8-.64-6.15-1.91s-2-3.23-2-5.84V74.92a10.68,10.68,0,0,1,.81-4.53q-2.93,2.22-4.64,2.22-3.22,0-3.22-3.43c0-1.41,1.61-3.25,4.83-5.54a71.9,71.9,0,0,0,13.7-13.49q2.22-2.92,4.53-2.92,3.93,0,3.93,2.62c0,.87-.71,2.11-2.12,3.72H942q6.85,0,6.85,4.23c0,1.15-2.55,4.23-7.65,9.27h12.89c2.75,0,4.82.62,6.19,1.86s2.07,3.17,2.07,5.79v7.66q0,8.06-8.26,7.75H935.93L931.1,94a40.7,40.7,0,0,1,8,11.78q4.23-2.92,12.29-11.18,2.22-2.2,4-2.21,4.42,0,4.43,3.82T945,109q7.44,9.17,16.11,13.4Q966.45,125,966.45,127.9ZM911.36,67.07h21.45l4.73-4.73c.67-.67,1-1.15,1-1.41,0-.54-.44-.81-1.31-.81H916.5a83.66,83.66,0,0,1-7.66,7.35Zm3.72,16.62h14.1V73.51h-15.1a2,2,0,0,0-2.22,2.22v4.83C911.86,82.51,912.94,83.55,915.08,83.69Zm21.36-10.18V83.69h15.1q3.12,0,3.12-3.13V76.74c0-2-1-3.09-3.12-3.23Z"/><path class="baba5bbd-81c8-4656-8b4b-68dc86242462" d="M1026.17,104.33v29.91c0,3.16-1.38,4.73-4.13,4.73a4.08,4.08,0,0,1-3.17-1.15,5.17,5.17,0,0,1-1.06-3.58v-29.3q-22.66,1.41-35.35,1.81c-2.62.07-3.93-1.38-3.93-4.33a3.52,3.52,0,0,1,1.92-3.53c.93-.47,4.56-.7,10.87-.7q8.76,0,17-.51l4.74-4.73.6-.3A182.62,182.62,0,0,0,993,79.46q-6.24-3.22-6.24-5.44a4,4,0,0,1,1.06-3,4.76,4.76,0,0,1,3.37-1,7.36,7.36,0,0,1,3.63,1.41l4.43,2.42,3.22,1.91,10.27-14.5-11.68,1-16,.71q-4,.11-4-4.13,0-3.93,6.14-3.93h4.64q36.75-1.41,57.2-6a39.27,39.27,0,0,1,6.24-1.21c3.09,0,4.63,1.55,4.63,4.63a3.5,3.5,0,0,1-2.31,3.23,20.71,20.71,0,0,1-4.28,1q-3.18.55-7.3,1.16-12,1.72-23.37,2.72l-14.6,19,1.31.7,9.57,6.65q7.65-8.27,13.79-16.12,5.85-7.35,8.26-7.35,4.63,0,4.63,4.13,0,1.92-6.84,9.67a258.57,258.57,0,0,1-19.54,19.24l-1.21,1.2q18.23-.49,34.24-1.61l-.8-.8-4.74-5.24q-2.31-2.52-2.31-3.93,0-3.31,3.12-3.32c.94,0,2.36.8,4.28,2.42s4.55,4.16,7.9,7.65a78.51,78.51,0,0,1,7,8.21q2.41,3.38,2.42,5,0,3.74-4.33,3.73-2.11,0-4.94-3.63l-3-4.13Q1042,103.32,1026.17,104.33ZM1004,114.1q0,1.41-2.26,4.58a82.21,82.21,0,0,1-6.5,7.71q-8.76,9.36-12.89,9.36a3.7,3.7,0,0,1-2.82-1,4.32,4.32,0,0,1-.91-3.07c0-1.61,1.14-3.18,3.43-4.73a49.82,49.82,0,0,0,12-11.78q3.53-4.74,5.84-4.74Q1004,110.47,1004,114.1Zm64.25,16.82q0,4.43-4.33,4.43t-14.2-9.37q-10.07-9.56-10.07-12.48a3.26,3.26,0,0,1,1-2.57,4.54,4.54,0,0,1,3.07-.86c1.27,0,3.22,1.45,5.84,4.33a58.62,58.62,0,0,0,15.11,12.09Q1068.25,128.4,1068.26,130.92Z"/><path class="baba5bbd-81c8-4656-8b4b-68dc86242462" d="M1081.31,128.65a3.4,3.4,0,0,1-1-2.67,9.43,9.43,0,0,1,.91-3.62q2.61-6.35,2.92-16c.06-3,1.24-4.43,3.52-4.43a4.15,4.15,0,0,1,2.77.76,3.15,3.15,0,0,1,.86,2.47l-.1,2.72q-1.51,21.64-7,21.65A4.34,4.34,0,0,1,1081.31,128.65Zm14.75,6.4V96.78L1084.48,98a3.46,3.46,0,0,1-3-.86,4.29,4.29,0,0,1-1-3.07,3.08,3.08,0,0,1,2.92-3.32l5-.41h1.2l6.15-9.26a112.55,112.55,0,0,0-12-9.87q-2.71-1.82-2.72-3.83c0-2.48,1.21-3.73,3.63-3.73.81,0,2.08.68,3.83,2l.6.4a94.22,94.22,0,0,0,7.15-14.6c1.07-2.75,2.62-4.13,4.63-4.13q3.93,0,3.93,3.73t-10.57,19l5.44,4.63,7-12.18a4,4,0,0,1,3.52-2.12c2.55,0,3.83,1.25,3.83,3.73q0,4.53-16.62,25.78l1.21-.1,9.67-.4.5-.1-1-2.72a8.65,8.65,0,0,1-.5-2.62c0-1.88,1-2.82,2.92-2.82q2,0,4.73,6.75c1.75,4.29,2.62,7,2.62,8.25q0,3.43-3.52,3.43a2.66,2.66,0,0,1-2.12-1.16,7.63,7.63,0,0,1-1.31-3.27l-6.74.8v39.08q0,4.42-3.93,4.43T1096.06,135.05Zm14.8-10.88-.3-1.41-2.41-17.93a2.22,2.22,0,0,1,.7-2.21,4.38,4.38,0,0,1,2.72-.71q3,0,4.23,6.75,1.9,11,1.91,13.3,0,3.72-3.72,3.72A3.49,3.49,0,0,1,1110.86,124.17Zm2.72,9.57c0-1.28.81-2.45,2.42-3.53q13.9-8.55,15.11-34.54l-8.77.6c-2.48.21-3.72-1-3.72-3.72s3.12-3.93,9.36-3.93l.21-.1a182.81,182.81,0,0,0,5.64-19.64v-.6h-13.5q-4,0-4-3.63t4-3.52H1139V52.37q0-4.93,3.93-4.94t3.93,4.94v8.76h20.54c3,0,4.43,1.17,4.43,3.52s-1.47,3.63-4.43,3.63H1142a104.48,104.48,0,0,1-6.85,19.94l23.07-1.61-3.53-5.34q-2.2-3.33-2.21-4.23c0-2,1.17-3,3.52-3,1.08,0,2.75,1.48,5,4.43a127.34,127.34,0,0,1,8.46,13.09c.6.94,1.1,1.81,1.51,2.62a4.7,4.7,0,0,1,.6,1.91c0,2.35-1.27,3.53-3.83,3.53-1.4,0-3-1.48-4.63-4.43l-1.51-2.72-7.25.9v31.12q0,3,1.11,3.93c.47.4,1.94.6,4.43.6q3.22,0,3.93-1.2,1-1.81,1.11-6.45a8.56,8.56,0,0,1,1-4.18,3,3,0,0,1,2.77-1.36c2.48,0,3.73,1.28,3.73,3.83a33.78,33.78,0,0,1-1.82,12c-1.2,3.09-5.27,4.64-12.18,4.64-4.1,0-6.88-.44-8.36-1.31q-2.62-1.51-2.62-6.15V94.16l-8.66.91h-.5l-.2,5.23q-.72,17.13-8.16,27.6-7.05,10-12.69,10Q1113.58,137.87,1113.58,133.74Z"/><path class="baba5bbd-81c8-4656-8b4b-68dc86242462" d="M1235,135.35q0-4,4.63-4h5.74c2.22,0,3.39-1.17,3.53-3.52v-6.65h-60.53c-2.69,0-4-1.17-4-3.53s1.34-3.52,4-3.52h60.53v-4.93h-3.53q-20.34,0-28.6-1.52a22.27,22.27,0,0,1-12.89-7.45q-6.64,4.83-10.27,7t-5.44,2.12a3.52,3.52,0,0,1-2.62-1.16,4,4,0,0,1-1.11-2.87,2.82,2.82,0,0,1,.56-1.87,11.47,11.47,0,0,1,1.56-1.46,62.38,62.38,0,0,1,6.24-3.12q5.75-2.72,6.85-3.32V89.12a3.05,3.05,0,0,0-3.22-3.42h-7.35q-4.55,0-4.54-3.73t4.54-3.62h10q4.34,0,6.3,2t1.86,6.2v7.95a14.19,14.19,0,0,0,6.65,5.24q7,2.92,18.83,2.92l32.63-.1,6.65-.2c2.48-.07,3.73,1.07,3.73,3.42s-1.85,3.53-5.54,3.53h-13.4v4.83H1271q4.13,0,4.13,3.52c0,2.36-1.38,3.53-4.13,3.53h-14.2v9q0,4.94-2.21,7.2t-7,2h-7.86Q1235,139.28,1235,135.35Zm-36.46-62.64-2.41-1.11a53.08,53.08,0,0,0-4.84-2.22,3.82,3.82,0,0,1-1.76-6,3,3,0,0,1,2.26-.9q2.22,0,7.56,2.51a26.09,26.09,0,0,1,4.58,2.67,3.25,3.25,0,0,1,1.46,2.47,4.18,4.18,0,0,1-.76,2.67,2.37,2.37,0,0,1-2,1A10.56,10.56,0,0,1,1198.58,72.71Zm2.92-14.3q-1.2-.81-5.64-3.12c-2.21-1.08-3.32-2.35-3.32-3.83a3.5,3.5,0,0,1,1-2.52,2.91,2.91,0,0,1,2.16-1q1.81,0,7.35,2.72c3.69,1.82,5.54,3.66,5.54,5.54q0,3.73-3.42,3.73A7.59,7.59,0,0,1,1201.5,58.41Zm8.36,72.71-2.21-2.42a14.75,14.75,0,0,1-1.62-2,3.23,3.23,0,0,1-.5-1.71,3,3,0,0,1,1-2.17,3.07,3.07,0,0,1,2.26-1,6.35,6.35,0,0,1,3.13,1,21.52,21.52,0,0,1,4,3.32c3,2.82,4.43,5,4.43,6.65,0,2.55-1.3,3.83-3.92,3.83Q1214.38,136.66,1209.86,131.12Zm8.21-34.34q-2-1.92-1.76-6V73.31c0-2.82.63-4.88,1.91-6.19s3.29-1.9,6-1.76h11.58l.81-3.93h-23.36c-2.36,0-3.53-1-3.53-2.92s1.17-3,3.53-3h13.19a40.86,40.86,0,0,1-2.32-3.63,4.8,4.8,0,0,1-.7-2.11,2,2,0,0,1,.85-1.72,4.29,4.29,0,0,1,2.47-.6,5.1,5.1,0,0,1,3.47,2,37.14,37.14,0,0,1,4.39,6.1h13.19l2.72-4.84a10.53,10.53,0,0,1,2.06-2.62,3.71,3.71,0,0,1,2.47-.9,5.82,5.82,0,0,1,3.12.7,2.1,2.1,0,0,1,1.11,1.82,4.35,4.35,0,0,1-.71,2.11,42.48,42.48,0,0,1-2.61,3.73h15.3c2.29,0,3.43,1,3.43,3s-1.14,2.92-3.43,2.92H1245l-1.61,3.93h17.72q4.23,0,6.15,1.91t1.81,6V90.43q0,8.67-8,8.26h-36.86Q1220,98.69,1218.07,96.78Zm43.25-23.17a2.53,2.53,0,0,0-2.61-2.82h-32c-1.81,0-2.72.95-2.72,2.82v1.52h37.36Zm0,10.38V79.86H1224V84Zm0,6.44V88.72H1224v1.71a2.4,2.4,0,0,0,2.72,2.72h32C1260.45,93.15,1261.32,92.25,1261.32,90.43Z"/><path class="baba5bbd-81c8-4656-8b4b-68dc86242462" d="M1291,72.71q-4.42,0-4.43-3.83t4.43-3.83h25.38c3,0,4.43,1.28,4.43,3.83s-1.47,3.83-4.43,3.83Zm-1.51-17.42c0-2.56,1.51-3.83,4.53-3.83h19c3,0,4.43,1.27,4.43,3.83s-1.48,3.82-4.43,3.82h-19Q1289.52,59.11,1289.52,55.29Zm89.23,25.78a4.61,4.61,0,0,1-1.16,3.32,4.29,4.29,0,0,1-3.27,1.21q-3,0-11.68-7.76a3,3,0,0,1,.4,1.51q0,3.63-4.33,3.63h-24q-4.12,0-4.13-3.63a2.9,2.9,0,0,1,.4-1.4q-4.42,4.32-7,6.39c-1.75,1.38-3.06,2.06-3.93,2.06-1.61,0-2.76-.9-3.43-2.71-.47,1.41-1.81,2.14-4,2.21h-18.32q-4.23,0-4.23-3.62t4.23-3.73h18.32a5.12,5.12,0,0,1,2.62.65,3.33,3.33,0,0,1,1.51,1.77,6.94,6.94,0,0,1,1.46-1.62c.71-.6,1.2-1,1.46-1.2q11.89-9.77,22.16-28A7.41,7.41,0,0,1,1343.6,48a3.93,3.93,0,0,1,2.32-.65q4.23,0,4.23,3.22a3.31,3.31,0,0,1-.4,1.41q11.07,17.22,26.08,25C1377.78,78,1378.75,79.32,1378.75,81.07Zm-61.83,14.6a3.34,3.34,0,0,1-1.11,2.67,4.79,4.79,0,0,1-3.23,1h-18.32q-4.23,0-4.23-3.63c0-2.48,1.41-3.73,4.23-3.73h18.32C1315.47,91.94,1316.92,93.19,1316.92,95.67Zm-1.82,11.68c1.35,1.28,1.92,3.32,1.72,6.15V127q0,4.42-2,6.45t-6.29,1.71h-10.28q-4.53,0-6.54-2c-1.35-1.3-1.88-3.37-1.61-6.19V113.5c0-3,.63-5.09,1.91-6.4s3.36-1.86,6.24-1.66h10.28Q1313.09,105.44,1315.1,107.35Zm-5.74,18.83V114.4c0-1.61-.77-2.38-2.31-2.32h-7.15a2.77,2.77,0,0,0-1.92.56,2,2,0,0,0-.5,1.76v11.78a2,2,0,0,0,2.42,2.32h7.15C1308.66,128.5,1309.43,127.73,1309.36,126.18Zm64.15-28.6v31.53c0,3.15-.68,5.53-2.06,7.15s-3.51,2.41-6.4,2.41h-3.12q-3.42,0-3.42-3.82t3.42-3.73h1.51c1.68,0,2.52-1,2.52-3V115.51h-8.36v18.33a3.75,3.75,0,0,1-.9,2.67,3.48,3.48,0,0,1-2.62,1,3.32,3.32,0,0,1-2.52-1,3.76,3.76,0,0,1-.91-2.67V115.51H1343v18.33c0,2.42-1.18,3.62-3.53,3.62a3.31,3.31,0,0,1-2.51-1,3.71,3.71,0,0,1-.91-2.67V115.51h-7.75V135a4.28,4.28,0,0,1-1,3,3.7,3.7,0,0,1-2.87,1.05,3.56,3.56,0,0,1-2.77-1.05,4.28,4.28,0,0,1-1-3V97.48q0-8.16,8.46-8.15h35.85Q1373.51,89.33,1373.51,97.58Zm-37.46-1.31h-5.14c-1.74,0-2.61,1-2.61,2.82v9.77h7.75Zm24.88-20a92.67,92.67,0,0,1-14.61-17.62l-.2-.3-1.31,2.11a106.25,106.25,0,0,1-12.08,15.81l1.41-.3h24.57Zm-10.28,32.63V96.27H1343v12.59ZM1366,99.19a3.18,3.18,0,0,0-.65-2.26,3,3,0,0,0-2.17-.66h-5.54v12.59H1366Z"/><rect class="ae259058-ad7e-41fb-acd0-3c3137176d35" width="1500" height="200"/></svg>