<svg id="b9c273db-2ed3-45a8-9fc5-56d07319776a" data-name="圖層 1" xmlns="http://www.w3.org/2000/svg" viewBox="0 0 1500 200"><defs><style>.e8b561a7-891b-431c-993b-c7c5ee911c98{fill:none;}.a0ca3f08-3875-4c66-9fee-a14e17a0b388,.a56030fd-7789-4122-a1c0-3509091af817{fill:#2c3e50;}.a56030fd-7789-4122-a1c0-3509091af817{stroke:#2c3e50;stroke-miterlimit:10;stroke-width:2.5px;}</style></defs><rect class="e8b561a7-891b-431c-993b-c7c5ee911c98" width="1500" height="200"/><path class="a0ca3f08-3875-4c66-9fee-a14e17a0b388" d="M259.47,62.84c-2.56,0-3.83-1.11-3.83-3.32a3.19,3.19,0,0,1,.91-2.52,4.29,4.29,0,0,1,2.92-.81h17.22v-5q0-3.63,3.82-3.63t3.93,3.63v5h16.82q3.83,0,3.83,3.33t-3.83,3.32Zm44.31,43.61V128.2c0,3.49-.77,6-2.32,7.6s-4,2.26-7.35,2.07h-4.63c-2.49,0-3.74-1.28-3.73-3.83s1.25-3.8,3.73-3.73h3.42c2.22,0,3.33-1.1,3.33-3.32V108.36a2.93,2.93,0,0,0-.76-2.22,3.75,3.75,0,0,0-2.37-.8H280.72l-2.42,9.87,8.16-1.21-1.61-4c0-1.61,1-2.42,2.92-2.42,1.41,0,3.06,2,4.93,6s2.81,6.45,2.82,7.35q0,2.92-3.12,2.92c-1.35,0-2.45-1.21-3.32-3.63l-.11-.6-3.22.6-8.26,1.61a67.72,67.72,0,0,1-7.35,1.31q-3.52,0-3.52-3.52c0-2,1.84-3.22,5.54-3.83L274,105.34h-5.24a3,3,0,0,0-2.21.7,3.55,3.55,0,0,0-.81,2.32v25.48a4.84,4.84,0,0,1-1,3.32,3.6,3.6,0,0,1-2.82,1.11q-3.72,0-3.72-4.43V106.45q0-7.76,7.85-7.76h9.17l.2-1.31.3-1.41.3-2.72h-8.76q-7.54,0-7.55-7.45V69.49q0-4.23,3.62-4.23T267,69.49V85c0,1,.64,1.48,1.91,1.62H292.1a1.57,1.57,0,0,0,1.79-1.33,1.42,1.42,0,0,0,0-.29V69.49c0-2.76,1.21-4.13,3.63-4.13s3.62,1.37,3.62,4.13V85.8q0,7.45-7.65,7.45H283.33l-.4,1.92-.6,3.52h13.59Q303.78,98.69,303.78,106.45ZM271,78.25l2.41-1.41a26.46,26.46,0,0,0,3.13-2.12L271.6,71.2a14,14,0,0,1-1.71-1.46,1.84,1.84,0,0,1-.5-1.26c0-1.81,1-2.72,3-2.72q1.41,0,8.86,5.14l4-3.93c1.41-1.41,2.55-2.12,3.42-2.12,2,0,3,.88,3,2.62q0,1.41-5.74,6.85v.2q6.26,4.53,6.25,6.45,0,3-3.12,3a2.62,2.62,0,0,1-1.31-.51,20.35,20.35,0,0,1-1.72-1.2L284.44,81a29.12,29.12,0,0,0-3.12-2.52h-.2q-8,6.24-10,6.24c-2,0-3-1-3-2.92Q268.14,80.06,271,78.25Zm76.64,54c0,2.35-1.48,3.53-4.43,3.52H317.78q-9.37.81-8.56-8.46V77H309q-2.92,5.75-4.74,5.74c-1.74,0-2.62-1-2.62-3.12a9.8,9.8,0,0,1,1.51-4,76.47,76.47,0,0,0,8.56-23.26c.68-3.29,2.12-4.94,4.34-4.94q3.82,0,3.82,3.12l-.2,1.21-3.22,9.06L313.85,67h11.78l2.92-11.08a24.06,24.06,0,0,1,2.32-6c.81-1.31,1.71-2,2.72-2,2.55,0,3.82,1.18,3.83,3.53q0,2.11-4.74,15.51h9.37q4.43,0,4.43,3.52T342.05,74h-8.86V86.81h7.05q4.23,0,4.23,3.52c0,2.35-1.41,3.52-4.23,3.53h-7.05v12.79h7.05q4.23,0,4.23,3.52c0,2.35-1.41,3.52-4.23,3.53h-7.05v15h10q4.4,0,4.4,3.53ZM316,76V86.81h10.38V74h-8.46C316.64,74,316,74.67,316,76Zm10.38,30.62V93.86H316v12.79Zm-7.15,22h7.15v-15H316V125.4q0,3.41,3.19,3.3Z"/><path class="a0ca3f08-3875-4c66-9fee-a14e17a0b388" d="M405.29,83.38h-42.6q-4,0-4-3.42t4-3.42h9.07V66.16h-6.45c-2.75,0-4.12-1.17-4.13-3.52s1.38-3.43,4.13-3.43h6.45V51.76c0-2.68,1.24-4,3.72-4s3.63,1.35,3.63,4v7.45H391V51.76c0-2.68,1.24-4,3.73-4s3.62,1.35,3.62,4v7.45h5.54c2.62,0,3.93,1.15,3.93,3.43s-1.31,3.52-3.93,3.52h-5.54V76.54h7q4,0,4,3.42T405.29,83.38Zm-1.51,13V128.3q0,4.63-2.11,6.9T395,137.56h-3.5q-4.54,0-4.54-3.82a3.56,3.56,0,0,1,1.21-3,6.11,6.11,0,0,1,3.83-1,4.69,4.69,0,0,0,3-.76,3.44,3.44,0,0,0,1-2.56v-6.15H373.77v13.3q0,4.53-3.93,4.53T366,133.64V96.38q0-8,8.15-8h21.56Q403.8,88.43,403.78,96.38ZM396,98.19a2.72,2.72,0,0,0-.71-2.07,3.44,3.44,0,0,0-2.11-.75H376.59q-2.71,0-2.82,2.82v3.42H396ZM396,114v-6.14H373.77V114Zm-5-37.46V66.16H379.11V76.54Zm59.62,57a4.62,4.62,0,0,1-1.31,3.22,3.67,3.67,0,0,1-2.62,1.41c-1.33,0-3.23-.77-5.68-2.32a55.66,55.66,0,0,1-8.51-6.95l-4.13-4.33a60.31,60.31,0,0,1-10.58,9.67q-6,4.33-9.26,4.33c-2.76,0-4.13-1.44-4.13-4.33a3.35,3.35,0,0,1,.75-2.21,8.57,8.57,0,0,1,2.37-1.82q10.67-5.43,16.31-12.49a59.67,59.67,0,0,1-4.48-13.59A182,182,0,0,1,416.07,85q-4.23,9.27-6.45,9.27-4,0-4-3.42a7.83,7.83,0,0,1,1-2.72c.71-1.35,1.19-2.29,1.46-2.82q7.16-13.4,11.08-32.23,1.21-5.74,4.53-5.74c3,0,4.43,1.14,4.43,3.42s-1.64,7.83-4.93,16.62h24.27c2.35,0,3.52,1.28,3.53,3.83s-1.18,3.61-3.53,3.62h-4.63q-1.21,29.31-9.57,43.21a46.17,46.17,0,0,0,13.39,10.67q4,2.11,4,4.83ZM434.7,74.82H422.31q1.51,25.79,6.05,35.65Q434.39,98.59,434.7,74.82Z"/><path class="a0ca3f08-3875-4c66-9fee-a14e17a0b388" d="M507.87,129.21c1.44.94,2.16,1.87,2.16,2.82,0,2.41-1.24,3.61-3.72,3.62q-1.32,0-5.64-2.32L496,131.22q-4.23,3-12.59,5.44a52.75,52.75,0,0,1-14.6,2.31q-4.53,0-4.53-3.52c0-2.15,2.35-3.32,7.05-3.53q10.17-.39,16.82-3.62l-11.38-3a13.11,13.11,0,0,1-4.48-1.92,3.25,3.25,0,0,1-1.46-2.71c0-.88.6-2.25,1.81-4.13L474,114.4h-8.66c-2.35,0-3.52-1.07-3.53-3.22s1.17-3.19,3.53-3.12H477.4l2.62-4.94h-4.73a10.9,10.9,0,0,1-6.05-1.36,5.24,5.24,0,0,1-2.11-4.48V91.54q0-6.65,8.16-6.14h10.57V81.47h-9.77c-2.88,0-5-.64-6.34-1.91s-1.88-3.33-1.61-6.15V70.09h-3.33c-2.21,0-3.31-1-3.32-3.12s1.11-2.93,3.32-2.92h3.33V61.13c0-2.89.62-5,1.86-6.35s3.27-1.91,6.09-1.71h9.77V50.65q0-3.72,3.53-3.72c2.35,0,3.53,1.24,3.52,3.72v2.42h10.37q4.34,0,6.35,1.91c1.34,1.28,1.95,3.33,1.81,6.15v2.92h2.62q3.42,0,3.42,3a2.79,2.79,0,0,1-.9,2.26,3.86,3.86,0,0,1-2.52.76h-2.62v3.32q0,4.33-2,6.35t-6.2,1.71H492.91v4h11.38a10.37,10.37,0,0,1,5.89,1.36,5.29,5.29,0,0,1,2.07,4.48V97q0,6.65-8,6.14H487.37l-2.31,4.94h29.5q3.53,0,3.53,3.22t-3.53,3.12h-8.15a32.39,32.39,0,0,1-5.24,11.78A34.16,34.16,0,0,1,507.87,129.21Zm-33-32.58a2.49,2.49,0,0,0,1.72.55h9.26V91.34H476.6a2.12,2.12,0,0,0-1.77.7,4.26,4.26,0,0,0-.55,2.52,2.77,2.77,0,0,0,.6,2.07Zm.31-32.58h10.67V59.11H477.6c-1.47,0-2.28.81-2.41,2.42Zm10.67,11.38V70.09H475.19V73a2.19,2.19,0,0,0,1.93,2.42,1.93,1.93,0,0,0,.48,0Zm13.19,39H481.63l-.7,1.11a18.3,18.3,0,0,1-1,1.56,3.93,3.93,0,0,0-.76,1.66c0,.88.81,1.48,2.42,1.81L494.32,124a20.4,20.4,0,0,0,4.73-9.6ZM492.9,64.08h11.28V61.53a2.43,2.43,0,0,0-.55-1.76,3,3,0,0,0-1.87-.66H492.9Zm0,11.38h8.86a2.13,2.13,0,0,0,2.43-1.8,1.83,1.83,0,0,0,0-.66V70.09H492.91Zm0,21.75h9.87a2.09,2.09,0,0,0,1.71-.6,5.53,5.53,0,0,0,0-4.64,2.09,2.09,0,0,0-1.71-.6H492.9ZM553.74,134q0,4.42-4,4.43-5.43,0-16.72-13.59a51.19,51.19,0,0,1-10.17,9.66q-6,4.23-8.46,4.23a3.92,3.92,0,0,1-2.92-1,4.22,4.22,0,0,1-.9-3c0-1.75,1.54-3.39,4.63-4.94a36.54,36.54,0,0,0,13.39-11.38q-2.72-5.13-4.73-14.6a175.55,175.55,0,0,1-3-21.65q-3.63,7.14-5.84,7.15c-2.22,0-3.33-1.35-3.33-4a8.92,8.92,0,0,1,1.61-3.83q6.26-9.76,10.38-26.69c.87-3.62,1.5-5.7,1.91-6.24a3.69,3.69,0,0,1,3.12-1.31q4,0,4,3.32,0,2.82-5.13,16.32H550c2.55,0,3.82,1.33,3.83,4s-1.27,4-3.83,4.12h-3.52l-.3,6.15a145.82,145.82,0,0,1-2.42,21.35,55.35,55.35,0,0,1-6.45,16,55.38,55.38,0,0,0,11.89,10.07C552.23,130.41,553.74,132.23,553.74,134ZM539,76.64l.1-1.62H526.45l.5,8.46q1,17.63,5.84,28.1Q538,100.81,539,76.64Z"/><path class="a0ca3f08-3875-4c66-9fee-a14e17a0b388" d="M656.26,118.83q0,3.33-4.13,3.33H613.86v7.15q0,5.43-2.31,7.85t-7.36,2h-6.14a6,6,0,0,1-3.67-.91,3.48,3.48,0,0,1-1.16-2.92q0-3.74,4.83-3.73h4q3.72,0,3.93-3.92v-5.54H569.75c-2.68,0-4-1.11-4-3.33s1.35-3.32,4-3.32H606v-2.82a3.54,3.54,0,0,1,1.71-3.32c1.07-.67,3.75-1.51,8.06-2.52l10.47-2.72v-.2h-44.5q-3.93,0-3.93-3.12a3.08,3.08,0,0,1,.9-2.42,4.57,4.57,0,0,1,3-.81h53.88a15.46,15.46,0,0,1,5.84.86,2.77,2.77,0,0,1,2,2.57c0,1.07-2.31,2.58-7,4.53A175.72,175.72,0,0,1,617.08,112c-2.14.61-3.22,1.58-3.22,2.93v.6h38.27Q656.26,115.51,656.26,118.83Zm-89.33-17V94.06c0-2.75.54-4.77,1.61-6a6.67,6.67,0,0,1,5.24-2h1.41l-2.11-28.9A6.23,6.23,0,0,1,574.23,53a6.51,6.51,0,0,1,3.88-2.27L588.48,49l3.23-.8,1.16-.31a5.34,5.34,0,0,1,1.25-.2c2.08,0,3.13,1.18,3.13,3.53,0,1.07-1,2-2.82,2.67a46.47,46.47,0,0,1-9.43,1.8,6.54,6.54,0,0,0-3.17,1.06,2.34,2.34,0,0,0-.86,2.16l.1,2.82h12.29q3.72,0,3.72,3.12T593.32,68H581.54l.4,5.53h11.38q3.72,0,3.72,3.23t-3.72,3.12h-11l.4,6.14h56.8l.41-6.14H627.86q-3.42,0-3.42-3.12t3.42-3.23h12.59l.2-5.53H627.86a3.79,3.79,0,0,1-2.62-.76,3.15,3.15,0,0,1-.8-2.37q0-3.12,3.42-3.12h13.5V59.62a3.5,3.5,0,0,0-.61-2.37,3,3,0,0,0-2.21-.66H627q-3.22,0-3.23-2.92a3.17,3.17,0,0,1,.76-2.36,3.36,3.36,0,0,1,2.47-.76h14.3q7.85,0,7.85,6L647,86h1.1q7.35,0,6.75,8.06v8.16q0,4.73-4,4.73a3.89,3.89,0,0,1-3-1.11,5.33,5.33,0,0,1-1-3.62V96c0-2.08-1.1-3.19-3.32-3.32h-65q-3.22,0-3.42,3.32v5.94q0,4.74-4,4.74t-4.18-4.87Zm31.32-38.27q0-1.71,5.94-5.23l2.22-1.21q-6.35-4.44-6.34-5.74a2.5,2.5,0,0,1,.75-1.92,3.1,3.1,0,0,1,2.17-.7q1.2,0,8,4.73l2.92-3q2.12-2.31,3.83-2.31a3.26,3.26,0,0,1,2.27.7,2.53,2.53,0,0,1,.75,1.91c0,1.15-1.68,3.19-5,6.15l1.1.6c2.82,2,4.23,3.69,4.23,5a3.11,3.11,0,0,1-.8,2.31,3,3,0,0,1-2.22.81c-.94,0-2.08-.64-3.42-1.91l-3.53-3.33q-7.65,6-10,6a2.58,2.58,0,0,1-2.87-2.25,2.22,2.22,0,0,1,0-.63ZM604.9,77l2-1.21-1.1-.7q-5.14-3.33-5.14-4.74c0-1.74,1-2.62,2.92-2.62a8.5,8.5,0,0,1,3.32,1.51L610,71.1l1.61,1.1,2.72-2.61c1.61-1.48,2.82-2.22,3.62-2.22,2.08,0,3.12.91,3.12,2.72q0,1.81-4.63,5.44c4,2.68,5.94,4.7,5.94,6q0,3.12-3,3.12c-.8,0-2-.63-3.42-1.91l-4.33-3.63a56.37,56.37,0,0,1-6.35,4.38,9.65,9.65,0,0,1-3.82,1.57c-2,0-2.93-.94-2.93-2.82C598.55,81.13,600.67,79.39,604.9,77Z"/><rect class="e8b561a7-891b-431c-993b-c7c5ee911c98" width="1093.05" height="200"/><path class="a56030fd-7789-4122-a1c0-3509091af817" d="M140.81,89.45C139.36,60.24,138.27,45,131.17,45c-5.21,0-7.94,8.85-12.48,23.51-2,6.48-4.3,13.91-7.16,21.57,0-.43-.07-.87-.1-1.31C109.34,60.82,107.77,45,100,45S90.66,60.82,88.57,88.77c0,.44-.06.88-.1,1.32-2.86-7.67-5.16-15.1-7.16-21.58C76.77,53.85,74,45,68.83,45c-7.1,0-8.19,15.24-9.64,44.45C58,114,56.31,147.67,46.83,147.67H45v3.66h3.67V155h3.66v-3.67h7.34V155h3.66v-3.67h7.34V155h3.66v-3.67h7.34V155h3.66v-3.67h7.34V155h3.66v-3.67h7.34V155h3.66v-3.67h7.34V155h3.66v-3.67h7.34V155h3.66v-3.67h7.34V155h3.66v-3.67h7.34V155h3.66v-3.67H155v-3.66h-1.83C143.69,147.67,142,114,140.81,89.45ZM122.2,69.59c3-9.81,6.47-20.92,9-20.92,4,0,5.17,24.65,6,41,1.37,27.62,3,49.06,9,57.63a54.36,54.36,0,0,1-28.5-11.73c-2.93-9.57-4.41-23.52-5.51-37.06,4.24-10.19,7.38-20.34,10-28.88ZM72.5,147.67H68.4A58,58,0,0,0,79.73,142C77.81,145.56,75.45,147.67,72.5,147.67Zm12.92-9.82A76.91,76.91,0,0,0,100,121.56a76.91,76.91,0,0,0,14.58,16.29,27.85,27.85,0,0,0,5.21,9.82H80.21A27.85,27.85,0,0,0,85.42,137.85Zm1.85-6.74a200,200,0,0,0,3.64-25.67,125.47,125.47,0,0,0,6.88,12.7A79.48,79.48,0,0,1,87.27,131.11Zm15-13a125.39,125.39,0,0,0,6.87-12.7,201.79,201.79,0,0,0,3.64,25.67,79,79,0,0,1-10.56-12.94Zm18,23.86a58,58,0,0,0,11.33,5.67h-4.1c-3,0-5.31-2.08-7.23-5.64ZM92.27,89c1.27-17,3-40.38,7.77-40.38S106.54,72,107.81,89c.22,2.92.44,5.85.67,8.77a131.9,131.9,0,0,1-8.44,16.8,135.27,135.27,0,0,1-8.44-16.8c.23-2.91.45-5.85.67-8.77Zm-29.38.58c.81-16.31,2-41,6-41,2.5,0,5.94,11.11,9,20.92,2.64,8.54,5.78,18.69,10,28.88-1.17,13.6-2.65,27.6-5.58,37.13a54.33,54.33,0,0,1-28.49,11.73c6-8.57,7.67-30,9-57.63Z"/></svg>