<svg id="e547f948-9126-4b94-a839-b85919c8da06" data-name="圖層 1" xmlns="http://www.w3.org/2000/svg" viewBox="0 0 1500 200"><defs><style>.b59e0c0d-6cab-4a1b-b233-ab1133285e1e{fill:none;}.b98d9e72-50e7-459e-925e-4d29de15542e,.ee16d093-94d7-46ce-8280-38323009b342{fill:#2c3e50;}.b98d9e72-50e7-459e-925e-4d29de15542e{stroke:#2c3e50;stroke-miterlimit:10;stroke-width:2px;}</style></defs><rect class="b59e0c0d-6cab-4a1b-b233-ab1133285e1e" width="1500" height="200"/><path id="a48094cd-6b36-44d6-a3f6-13cafd2c644d" data-name="b7cacd47-499f-41c6-8f4a-d3361fea87a0" class="b98d9e72-50e7-459e-925e-4d29de15542e" d="M152.23,155.14H122.39a2.91,2.91,0,0,1,0-5.82h26.93V50.68H92.4V60.92a2.91,2.91,0,0,1-5.82,0V47.77a2.91,2.91,0,0,1,2.91-2.91h62.74a2.91,2.91,0,0,1,2.91,2.91h0V152.23a2.91,2.91,0,0,1-2.91,2.91Zm-62.74,0H68.64a2.91,2.91,0,0,1,0-5.82H86.58V136H47.77a2.91,2.91,0,0,1-2.91-2.91h0V73.37a2.91,2.91,0,0,1,2.91-2.91h83.45a2.9,2.9,0,0,1,2.9,2.9h0v59.69a2.9,2.9,0,0,1-2.89,2.91H92.4v13.35h17.95a2.91,2.91,0,1,1,0,5.82H89.49Zm0-25h38.82V76.27H50.68v53.88Zm22.86-18.55H66.63a2.91,2.91,0,0,1,0-5.82h45.72a2.91,2.91,0,1,1,0,5.82Zm-10.29-11H76.92a2.91,2.91,0,0,1-.37-5.81h0a1.93,1.93,0,0,1,.34,0h25.14a2.91,2.91,0,1,1,.37,5.81h-.37Z"/><path class="ee16d093-94d7-46ce-8280-38323009b342" d="M261.68,87.51q-3.82,0-3.82-4.33V70.9q0-4.64,2.11-6.75c1.41-1.41,3.62-2.05,6.65-1.92h31.52V57.5H267.42c-2.68,0-4-1.21-4-3.62s1.35-3.53,4-3.53h69.19q4.13,0,4.13,3.53t-4.13,3.62H305.39v4.73h32.13q4.73,0,6.9,2.07c1.44,1.38,2.06,3.57,1.86,6.6V82.78q0,4.13-3.93,4.13t-3.83-4.13v-10a3.89,3.89,0,0,0-.95-2.92,4.53,4.53,0,0,0-3-1H305.39V87.21q0,3.63-3.63,3.63a3.11,3.11,0,0,1-3.62-2.5,3.07,3.07,0,0,1,0-1.13V68.88h-28.7a3.68,3.68,0,0,0-2.82,1,4.53,4.53,0,0,0-1,3v10.3Q265.61,87.51,261.68,87.51Zm86.41,37.37q0,7.14-3.32,9.87t-22.56,2.71l-14.4-.3q-7.05-.1-8.76-2.31a7,7,0,0,1-1.41-4.64v-5.64h-25c-3,0-5.1-.65-6.45-2s-1.91-3.37-1.71-6.19V101.31q0-4.34,1.92-6.29t6.24-1.87h58.61c3,0,5.1.66,6.45,2s1.91,3.37,1.71,6.19v15.11q0,4.42-1.91,6.39c-1.27,1.31-3.36,1.9-6.25,1.76H305v2.32q0,2.62,1.41,3a46.84,46.84,0,0,0,6.8.5q5.69.21,15,.21c5,0,8.2-.33,9.67-1,1.21-.61,1.91-2.18,2.11-4.73s1.61-3.93,4.23-3.93S348.09,122.26,348.09,124.88ZM294.51,75.93a2.68,2.68,0,0,1-.9,2.17,3.87,3.87,0,0,1-2.52.75H272.46q-3.33,0-3.33-2.92t3.33-3h18.63Q294.51,72.91,294.51,75.93Zm-3.42,6.85q3.42,0,3.42,3a2.68,2.68,0,0,1-.9,2.17,3.87,3.87,0,0,1-2.52.75H272.46q-3.33,0-3.33-2.92t3.33-3Zm6.55,16.82H275.08q-2.82,0-2.82,3v2.92h25.38Zm0,12.08H272.26v3.53c0,2,.94,2.92,2.82,2.92h22.56Zm7.35-6.14h26.69v-2.92c0-2-.95-3-2.82-3H305Zm0,12.59h23.87c1.87,0,2.82-1,2.82-2.92v-3.53H305Zm30-42.2q0,2.92-3.43,2.92H312.24a3.87,3.87,0,0,1-2.52-.75,2.69,2.69,0,0,1-.91-2.17c0-2,1.15-3,3.43-3h19.33q3.44,0,3.43,3Zm-3.43,6.85c2.29,0,3.44,1,3.43,3s-1.15,3-3.43,2.92H312.24a3.87,3.87,0,0,1-2.52-.75,2.69,2.69,0,0,1-.91-2.17c0-2,1.15-3,3.43-3Z"/><path class="ee16d093-94d7-46ce-8280-38323009b342" d="M373.92,137.51a3.51,3.51,0,0,1-1.16-2.87c0-2.61,1.48-3.91,4.44-3.92h2.51c2.22,0,3.39-1.28,3.53-3.83V104.13H372.56q-.49,16.62-3.32,24.77-3.12,9-6.55,9c-2.75,0-4.13-1.35-4.13-4,0-.67.64-2.39,1.92-5.14a34.73,34.73,0,0,0,2.92-9,87.62,87.62,0,0,0,1.6-13.31q.5-9.57.5-21l-.1-12.69L365.31,60q0-9.16,8.56-9.17h8.36q4.53,0,6.6,2.12t1.86,6.44V128.5c.27,3.49-.44,6.06-2.11,7.71s-4.27,2.39-7.76,2.26H377.2A5,5,0,0,1,373.92,137.51ZM383.24,97V81.17H372.56V97Zm0-35.25c0-2.21-1.11-3.36-3.32-3.42h-4q-3.23,0-3.23,3V74h10.58Zm19,22-4.73-10q-2.42-5-2.42-6.75t2.82-9l1.51-4.53c1.14-3.29,2.65-4.94,4.53-4.93q3.93,0,3.93,3.62a51.72,51.72,0,0,1-2.62,7q-3.42,6.56-3.42,7.66c0,.8,1.27,3.29,3.83,7.45s3.82,6.61,3.82,7.55q0,3.83-4,3.83a3.86,3.86,0,0,1-3.22-2ZM397.14,135c-1.35-1.35-1.95-3.43-1.82-6.25V99c0-3,.66-5.12,2-6.49s3.4-2,6.29-1.76h6.85l1.41-3.13A13.82,13.82,0,0,1,414.24,84a3.65,3.65,0,0,1,2.67-1.16,5,5,0,0,1,3.17.91,3.1,3.1,0,0,1,1.16,2.61q0,1.11-2.22,4.44h20.24q4.53,0,6.6,2t1.76,6.44V128.5q0,4.53-2,6.6c-1.33,1.38-3.47,2-6.4,1.86H403.58C400.63,137,398.49,136.33,397.14,135Zm43-8.26V100.91q0-2.93-3.12-3.12H405.39q-2.82,0-3,3v26a2.67,2.67,0,0,0,2.29,3,2.81,2.81,0,0,0,.71,0H437q3,0,3.14-3.1Zm-34.34-.4a3,3,0,0,1-.81-2.22q0-2.52,4.43-5a43.87,43.87,0,0,0,7.46-5.23,80.61,80.61,0,0,1-9-5.74c-1.48-1.21-2.21-2.25-2.21-3.12a2.19,2.19,0,0,1,1-1.77,4,4,0,0,1,2.42-.75q2.31,0,12.89,7l5.24-5.64c2-2.22,3.56-3.33,4.63-3.33,2.42,0,3.63,1.15,3.63,3.43q0,2-7.56,9.16,10.38,6.95,10.38,9.37c0,2.42-1.28,3.62-3.83,3.62a6,6,0,0,1-3.12-1.51l-8.76-7q-11.79,9.48-14.51,9.47a3.16,3.16,0,0,1-2.28-.84Zm13.79-46.53-3.42-6.15c-.81-1.47-1.51-2.8-2.12-4a6.87,6.87,0,0,1-.9-2.47q0-1.11,2.31-6.24a57,57,0,0,0,3-8c.94-3,2.41-4.43,4.43-4.43q4.13,0,4.13,3.42a8,8,0,0,1-.76,2.37q-.75,1.75-1.86,4.08l-2.72,5.74a10.21,10.21,0,0,0-1,2.82,5.9,5.9,0,0,0,1.11,2.31q3.93,6.15,5.29,8.51a8.4,8.4,0,0,1,1.36,3.48q0,3.72-3.83,3.72c-1.73,0-3.4-1.72-5-5.21Zm17.83.1a68.3,68.3,0,0,0-4.53-7.76c-1.41-1.94-2.11-3.55-2.12-4.83q0-1.3,3.12-7.65l2.62-6.85q1.62-4.23,4.53-4.23c2.76,0,4.13,1.14,4.13,3.42,0,1.55-1.1,4.2-3.32,8s-3.42,6.18-3.42,6.85a6.17,6.17,0,0,0,1.51,2.92q6.94,9.06,6.95,11.88,0,3.93-4.13,3.93-2.42-.09-5.34-5.73Z"/><path class="ee16d093-94d7-46ce-8280-38323009b342" d="M553.74,132.13q0,4.23-5.94,4.23l-31.12-.1q-18.54,0-25.58-2a27.15,27.15,0,0,1-12.19-7h-.2q-9.66,8.46-12.79,8.46a3.89,3.89,0,0,1-3-1.11,5.31,5.31,0,0,1-1-3.62c0-2.15,1.51-3.87,4.53-5.14a78.55,78.55,0,0,0,8-4.13V101.21a2.78,2.78,0,0,0-2.52-3H466a4.36,4.36,0,0,1-3.07-.91,3.87,3.87,0,0,1-1-2.92,3.76,3.76,0,0,1,1-2.82,4.36,4.36,0,0,1,3.07-.91h7.86q4.42,0,6.39,1.92c1.31,1.27,1.93,3.26,1.86,5.94v22.36l2.72,2.62q6.86,5.33,29.31,5.33,20.25,0,34.54-.5h1.21C552.43,128.3,553.74,129.57,553.74,132.13ZM463.5,72.51q0-3.93,3.93-3.93c1.07,0,3.85.94,8.36,2.82q6.54,2.82,6.55,5.84,0,4.13-3.93,4.13A7.51,7.51,0,0,1,475,80.06l-8.36-3.63Q463.51,75,463.5,72.51Zm4.74-19.24q0-3.93,3.82-3.93c.88,0,3.53,1,8,2.92a16.87,16.87,0,0,1,4.73,3,4.46,4.46,0,0,1,1.62,3.17q0,4.23-3.93,4.23a6,6,0,0,1-2.17-.76,13.93,13.93,0,0,1-1.86-1l-6.65-3.43Q468.25,55.69,468.24,53.27ZM489.94,57a3.1,3.1,0,0,1-1.16-2.72c0-2.22,1.55-3.32,4.64-3.32h46.72c4.7,0,7.05,1.3,7.05,3.92,0,1.28-1.39,2.92-4.18,4.94a105.46,105.46,0,0,1-13.64,7.75q3,1.22,3,3a2.92,2.92,0,0,1-.5,1.51h8.76c3,0,5.07.64,6.34,1.92s1.92,3.39,1.92,6.34V114.6c0,3.43-.76,5.91-2.27,7.46s-4,2.28-7.3,2.21l-6.25-.1c-2.61,0-3.92-1.27-3.92-3.83s1.31-3.72,3.92-3.72H538c2.35,0,3.53-1.18,3.52-3.53V108H523.83v11.78q0,3.93-3.53,3.93c-2.35,0-3.53-1.31-3.52-3.93V108H499.56v12.18c0,2.76-1.25,4.13-3.73,4.13s-3.62-1.37-3.62-4.13v-40q0-8.06,8.05-8.06H523l-10.67-4-7-2.22q-3.22-1-3.22-2.92c0-2.22,1.27-3.32,3.82-3.32a9.24,9.24,0,0,1,2.92.7l12.79,4.23.21-.1c2.14-1.07,5.37-2.75,9.66-5,.47-.26.71-.56.71-.9s-.37-.71-1.11-.71H493.42A6.1,6.1,0,0,1,489.94,57Zm26.84,22.15h-14.1q-3.12,0-3.12,3v4.44h17.22Zm0,22.06V93.35H499.56v7.86Zm21.65-22.06h-14.6v7.46h17.72V82.28c0-2.08-1-3.13-3.12-3.13Zm3.12,22.06V93.35H523.83v7.86Z"/><path class="ee16d093-94d7-46ce-8280-38323009b342" d="M601.38,68.88q0,3.63-4.44,3.63H569.25c-2.89,0-4.34-1.21-4.33-3.63s1.44-3.62,4.33-3.62h27.69C599.9,65.26,601.38,66.46,601.38,68.88ZM568.24,55.29q0-3.63,4.23-3.63h21.25c2.95,0,4.42,1.21,4.43,3.63s-1.47,3.63-4.43,3.62H572.47Q568.24,58.91,568.24,55.29Zm29.41,27q0,3.42-4.23,3.42H572.67c-2.75,0-4.13-1.17-4.13-3.53s1.38-3.42,4.13-3.42h20.75c2.82,0,4.23,1.17,4.23,3.52Zm0,13.39q0,3.42-4.23,3.42H572.87c-2.88,0-4.33-1.14-4.33-3.42s1.38-3.52,4.13-3.52h20.75q4.23,0,4.23,3.51Zm0,17.72V129q0,8.07-8.26,8.06H576.9a8.58,8.58,0,0,1-6.14-2,7.7,7.7,0,0,1-2.12-5.84V113.39q0-8,8.26-8h12.49q8.25,0,8.26,8Zm-7.25,1.31a2.32,2.32,0,0,0-2-2.62,2.36,2.36,0,0,0-.65,0h-9.27a2.35,2.35,0,0,0-2.61,2.08,2.44,2.44,0,0,0,0,.54v13c0,1.81.87,2.71,2.61,2.71h9.27c1.68,0,2.55-.9,2.62-2.71Zm66.6,1.4a64.54,64.54,0,0,1,0,7.36q-.81,8.06-2.92,11.12a6.47,6.47,0,0,1-5.54,3.08,5.82,5.82,0,0,1-4.38-2.42,17.88,17.88,0,0,1-3.28-7.15q-3-11.38-3.12-28.91l-.3-31.32.1-3.72a3.86,3.86,0,0,0-1.21-3.38,5.09,5.09,0,0,0-3.73-.85h-10.5v26h6.14q4.23,0,4.23,3.73a3.37,3.37,0,0,1-1.1,2.67,4.67,4.67,0,0,1-3.13,1h-6.14V134q0,4.53-3.83,4.53a3.68,3.68,0,0,1-2.92-1.16,5,5,0,0,1-1-3.37V93.25h-7q-4.33,0-4.33-3.72t4.33-3.63h7v-26H604.9c-3.16,0-4.73-1.24-4.73-3.73s1.57-3.72,4.73-3.72h30.72q9.87,0,9.87,8.15l-.11,2,.21,41.19a117.91,117.91,0,0,0,1,17c.67,3.86,1.52,5.79,2.57,5.79.54,0,.87-.91,1-2.72s.23-5.1.3-9.87q0-3.33,3.22-3.33c2,0,3.06,1.15,3.13,3.43A13.67,13.67,0,0,0,657,116.11Z"/><path class="ee16d093-94d7-46ce-8280-38323009b342" d="M678.12,106q0,5.15-2.42,17.12-1.31,6.75-4.43,6.75-3.43,0-3.43-3.32a10.32,10.32,0,0,1,.91-3.63q2.52-6.75,2.82-17.12c.07-2.68,1.17-4,3.32-4S678.12,103.22,678.12,106Zm20-22q4.32,9.57,4.33,12.69t-3.33,3q-2,0-3.72-4.73l-5.44.7-.3.1V135q0,4.13-3.63,4.13T682.41,135V96.58l-10.88,1.1a2.92,2.92,0,0,1-2.67-.85,4.32,4.32,0,0,1-1-3q0-2.82,3.13-3.53l4.63-.3L682,80.36l-1.21-1.21A82,82,0,0,0,671.47,71q-2.82-2.11-2.82-3.93c0-2.35,1.07-3.52,3.22-3.53a6.83,6.83,0,0,1,3.53,1.62,87.87,87.87,0,0,0,6.14-12.79c1.27-3.49,2.84-5.23,4.73-5.24,2.89,0,4.34,1.17,4.33,3.52q0,1.82-2.41,6.3t-7.66,12.33l5.34,4.84L692.62,62a6.13,6.13,0,0,1,1.71-1.91,3.47,3.47,0,0,1,2-.71c2.76,0,4.13,1.18,4.13,3.53q0,1.92-12.79,20.75l-3.92,5.53-.71.71,10.47-.6-.9-2.52a9.55,9.55,0,0,1-.71-2.52c0-1.75,1-2.62,3-2.62a3.4,3.4,0,0,1,3.26,2.45Zm3.66,40a3,3,0,0,1-.7,2.62,3.7,3.7,0,0,1-2.72.9,2.87,2.87,0,0,1-2.82-1.61l-2.92-21.15q-.3-2.61,2.92-2.61a3.11,3.11,0,0,1,2.52,1.1,13.67,13.67,0,0,1,1,3.18q.66,2.76,1.46,7.1Zm55-63.15v68.59q0,9.17-8.66,9.16h-6.45q-4.53,0-4.53-3.82t4.33-3.73H746q3.22,0,3.43-3.43V62.54a3.33,3.33,0,0,0-3.63-3.63H715.28a3.57,3.57,0,0,0-2.57.91,3.41,3.41,0,0,0-1,2.62v72.41q0,4-3.62,4t-3.53-4v-74q-.81-9.76,9.07-9h34q9.64-.8,9.14,9ZM744.49,123.7a6.41,6.41,0,0,1-3.72,1.1l-8.36.11c-5.44.06-9.07-.47-10.88-1.62s-2.58-2.92-2.72-5.54v-15.6H716.6q-3.63,0-3.63-3.53t3.63-3.42h10.57V89.93c0-2.28,1.17-3.42,3.53-3.42s3.42,1.14,3.42,3.42v5.24h9.77c2.55,0,3.82,1.17,3.83,3.52s-1.28,3.43-3.83,3.43h-18V113.9a3.31,3.31,0,0,0,3,3.62,3.42,3.42,0,0,0,.64,0l7.45.1,4.94-.2c2.61-.13,3.92,1,3.92,3.53a3.26,3.26,0,0,1-1.35,2.72ZM716.79,78H732.3l4-14.1c.6-2.08,1.84-3.13,3.72-3.13,2.49,0,3.74,1,3.73,3q0,2.71-4.94,14.2h4.84c2.68,0,4,1.17,4,3.52s-1.35,3.42-4,3.42H716.59c-2.35,0-3.52-1.17-3.53-3.52S714.3,77.91,716.79,78Zm2.82-4.74Q717,66.38,717,65.05c0-2.14,1.24-3.22,3.73-3.22q2.12,0,4.23,4.53a17.49,17.49,0,0,1,2,6.85c0,2.15-1.33,3.23-4,3.22-1.43,0-2.54-1.07-3.35-3.22Z"/><path class="ee16d093-94d7-46ce-8280-38323009b342" d="M771.17,131.72q0-3,5-4.23V93.66q0-4,3.52-4c2.35,0,3.52,1.33,3.53,4V126l4.93-1.1,1.31-.41V83.18h-5.94q-8,0-8-8V59q0-7.95,8-8h14.8q8,0,8,8V75.23q0,7.84-7.76,8h-1.81v13.2h5q4.53,0,4.53,3.72T801.75,104h-5v18.73l8.16-2.22,1.81-.4q3.22,0,3.22,3.73,0,2.82-3.82,4-25.89,8.06-30.92,8Q771.17,135.87,771.17,131.72ZM798.87,73V61.23c0-1.82-1-2.79-2.92-2.92H786a2.83,2.83,0,0,0-2.07.75,3.36,3.36,0,0,0-.86,2.17V73a2.84,2.84,0,0,0,.76,2.07,3.3,3.3,0,0,0,2.17.85h10C797.76,75.93,798.73,75,798.87,73Zm9.21,31a4.8,4.8,0,0,1-.75-3,4,4,0,0,1,1-2.62,6,6,0,0,1,3-1.81,57.57,57.57,0,0,0,18.43-11v-.2a45.1,45.1,0,0,1-8.66-14.91h-.2Q814.76,82,811.23,82t-3.52-3.52a3.81,3.81,0,0,1,.6-1.76c.41-.71,1.08-1.73,2-3.07a92.3,92.3,0,0,0,11.68-23c.74-2.21,2-3.32,3.83-3.32q3.82,0,3.82,3.53c0,.73-.7,2.65-2.11,5.74h20.74q4.44,0,6.55,1.36A4.62,4.62,0,0,1,857,62.23q0,2.43-4.84,9.67a89.88,89.88,0,0,1-11.38,13.7l-.3.3a55.38,55.38,0,0,0,17.32,8.76c3.56,1,5.34,2.63,5.34,4.84q0,4.23-3.93,4.23c-2.21,0-5.81-1.35-10.77-4a71.66,71.66,0,0,1-13.3-9.07h-.2a99.2,99.2,0,0,1-14.2,9.87Q813,105,810.57,105A3,3,0,0,1,808.08,104Zm6.09,22.91V111.38q-.7-9.87,9.07-9.06h24.37q9.87-.81,9.06,9.06v15.51q.81,9.87-9.06,9.06H823.24q-9.78.81-9.07-9.06ZM849,125.58V112.69q0-3.42-3.32-3.32H825c-2.28,0-3.39,1.1-3.32,3.32v12.89c0,2.22,1.1,3.29,3.32,3.22h20.7C848,128.8,849.08,127.73,849,125.58Zm-5.44-54c2.62-3.29,3.93-5.5,3.93-6.65,0-.8-.51-1.2-1.51-1.2H825.65a39.45,39.45,0,0,0,9.27,17.12h.2a98.79,98.79,0,0,0,8.46-9.25Z"/><rect class="b59e0c0d-6cab-4a1b-b233-ab1133285e1e" width="1500" height="200"/></svg>