<svg id="圖層_1" data-name="圖層 1" xmlns="http://www.w3.org/2000/svg" viewBox="0 0 1000.5 200.5"><defs><style>.cls-1{fill:#3b5875;}.cls-2{fill:none;}</style></defs><path class="cls-1" d="M291.64,133v-35a130,130,0,0,1-22.15,22.15q-11.89,9.33-15.48,9.33a4.09,4.09,0,0,1-3.18-1.13,5.06,5.06,0,0,1-1-3.48q0-2.67,4.82-5.23a101.56,101.56,0,0,0,34.25-28.51H255.44q-5,0-5-4.1t5-4.1h36.2V66.58H262.52c-3.42,0-5.13-1.36-5.13-4.1s1.71-4.1,5.13-4.1h29.12V49.87q0-4.73,4.31-4.72t4.2,4.72v8.51H330q4.92,0,4.92,4.1c0,2.74-1.64,4.1-4.92,4.1H300.15V83h37c3.42,0,5.12,1.37,5.12,4.1s-1.7,4.1-5.12,4.1H302.92q4.81,7.49,15.28,16a85.52,85.52,0,0,0,20.4,12.1q4.31,1.84,4.31,4.92c0,3.08-1.47,4.61-4.41,4.61q-4.92,0-17.84-9.94a92.65,92.65,0,0,1-20.1-20.41l-.41.1V133a6,6,0,0,1-1.08,4,4,4,0,0,1-3.23,1.23C293,138.26,291.64,136.51,291.64,133Z"/><path class="cls-1" d="M478.57,125.85a5,5,0,0,1-1.38,3.59,3.55,3.55,0,0,1-3,1.23q-6-.82-17.23-8.41-13.43-9-21-17.64v29q0,4.73-4.3,4.72t-4.31-4.72V105a101.77,101.77,0,0,1-16.87,15,81.52,81.52,0,0,1-19.12,10.61,5.72,5.72,0,0,1-1.74.31,3.3,3.3,0,0,1-2.67-1.23,4.68,4.68,0,0,1-1-3.08,3.63,3.63,0,0,1,.77-2.31,6.12,6.12,0,0,1,2.52-1.69,121.34,121.34,0,0,0,20.14-12A104.88,104.88,0,0,0,427.3,95v-30H392.74q-4.92,0-4.92-3.9t4.92-3.89H427.3V49.77q0-4.73,4.31-4.72t4.3,4.72v7.38h34.66q4.81,0,4.82,3.89t-4.82,3.9H435.91V95.5a106.27,106.27,0,0,0,17.49,14.66A118.85,118.85,0,0,0,475.6,122Q478.57,123.18,478.57,125.85ZM408.43,80.53a102.47,102.47,0,0,1,12.31,9.53,5.05,5.05,0,0,1,1.74,3.49,3.57,3.57,0,0,1-1.13,2.77,4.25,4.25,0,0,1-3,1,4.11,4.11,0,0,1-2.26-.66,17.33,17.33,0,0,1-2.46-2.1l-8.41-8.31Q400,95.3,395.1,99.6a5.44,5.44,0,0,1-3.79,1.64,3.61,3.61,0,0,1-2.67-1.13,3,3,0,0,1-.92-2.15,6.84,6.84,0,0,1,2-4.21,75.19,75.19,0,0,0,12.82-21.63q1.34-3.28,4.41-3.28A3.7,3.7,0,0,1,409.82,70a3.62,3.62,0,0,1,1.07,2.56C410.89,74.24,410.07,76.9,408.43,80.53Zm51.37-.31a121,121,0,0,1,13.85,10.87,4.38,4.38,0,0,1,1.74,3.49,3.94,3.94,0,0,1-1.08,2.92,4.2,4.2,0,0,1-3.12,1.07,4.09,4.09,0,0,1-2.26-.66,17.27,17.27,0,0,1-2.56-2.21l-1.64-1.64q-4-4.09-8.31-8a38.54,38.54,0,0,1-8.71,10.57,5.36,5.36,0,0,1-3.29,1.43,3.51,3.51,0,0,1-2.56-1.13,3.32,3.32,0,0,1-1.13-2.35,5.9,5.9,0,0,1,1.85-3.7,51.14,51.14,0,0,0,6.77-8.81,69.48,69.48,0,0,0,5.12-10.77,4.05,4.05,0,0,1,4-3,4,4,0,0,1,2.87,1.07,3.39,3.39,0,0,1,1.13,2.51Q462.47,74.9,459.8,80.22Z"/><path class="cls-1" d="M610.74,100.62v21.85q0,5.53-2.66,8.3c-1.85,1.85-4.62,2.73-8.31,2.67H536.2c-3.7,0-6.43-.89-8.21-2.67s-2.77-4.61-2.77-8.3V100.62q0-5.22,4.21-5.22c2.87,0,4.31,1.7,4.31,5.12v20c0,3,1.53,4.51,4.61,4.51h24.92V88.53H539.89c-3.69,0-6.38-.79-8-2.36s-2.38-4.14-2.1-7.69V58.38q0-5.13,4.3-5.13a3.94,3.94,0,0,1,3.13,1.23,5.29,5.29,0,0,1,1.08,3.59V75.61c0,3,1.47,4.51,4.41,4.51h20.61V50.59q0-5.64,4.41-5.64t4.3,5.64V80.12h21.33c3,0,4.51-1.51,4.51-4.51V58.17q0-4.92,4.21-4.92c2.87,0,4.3,1.75,4.3,5.23v20q.72,10.76-10.15,10H572V125h25.74q4.31,0,4.51-4.51v-20c0-3.48,1.44-5.23,4.31-5.23S610.74,97.07,610.74,100.62Z"/><path class="cls-1" d="M656.78,130.87q0-3.08,5.13-4.3V92.11c0-2.73,1.19-4.1,3.59-4.1s3.59,1.37,3.59,4.1V125l5-1.13,1.33-.41v-42h-6.05q-8.1,0-8.1-8.1V56.84q0-8.1,8.1-8.1h15.08q8.1,0,8.1,8.1V73.35q0,8-7.9,8.1h-1.84V94.88H688q4.62,0,4.62,3.8c0,2.6-1.54,3.89-4.62,3.89h-5.12v19.08l8.3-2.26L693,119c2.19,0,3.28,1.27,3.28,3.79,0,1.92-1.3,3.28-3.9,4.11q-26.36,8.19-31.48,8.2Q656.79,135.08,656.78,130.87ZM685,71.09v-12c0-1.85-1-2.84-3-3H671.86a2.88,2.88,0,0,0-2.11.77,3.36,3.36,0,0,0-.87,2.21v12a2.88,2.88,0,0,0,.77,2.11,3.36,3.36,0,0,0,2.21.87H682C683.85,74.07,684.84,73.08,685,71.09Zm9.38,31.53a4.84,4.84,0,0,1-.77-3,4.06,4.06,0,0,1,1-2.67,6.17,6.17,0,0,1,3.08-1.84,58.73,58.73,0,0,0,18.76-11.18v-.2a45.81,45.81,0,0,1-8.82-15.18h-.2q-6.26,11.79-9.85,11.79c-2.39,0-3.59-1.19-3.59-3.59a3.89,3.89,0,0,1,.62-1.79c.41-.72,1.09-1.76,2-3.13a93.3,93.3,0,0,0,11.89-23.38q1.14-3.37,3.9-3.38,3.9,0,3.9,3.59,0,1.13-2.16,5.84h21.13c3,0,5.23.46,6.66,1.39a4.69,4.69,0,0,1,2.16,4.25q0,2.46-4.93,9.85a92.06,92.06,0,0,1-11.58,13.94l-.31.31A56.34,56.34,0,0,0,745,93.14q5.43,1.55,5.43,4.92,0,4.31-4,4.31-3.37,0-11-4.1A73.62,73.62,0,0,1,721.89,89h-.2a103.12,103.12,0,0,1-14.46,10q-7.89,4.51-10.35,4.51A3,3,0,0,1,694.36,102.62ZM700.57,126V110.16q-.72-10.05,9.22-9.23h24.82q10-.81,9.23,9.23V126q.81,10-9.23,9.23H709.79Q699.85,136,700.57,126ZM736,124.62V111.49c0-2.32-1.12-3.45-3.38-3.38H711.54q-3.49,0-3.39,3.38v13.13q0,3.39,3.39,3.28h21.12Q736.14,127.9,736,124.62Zm-5.53-55c2.66-3.35,4-5.61,4-6.77,0-.82-.52-1.23-1.54-1.23H712.26a40.13,40.13,0,0,0,9.43,17.43h.2A101.25,101.25,0,0,0,730.51,69.66Z"/><rect class="cls-2" width="1000.5" height="200.5"/></svg>