<svg id="圖層_1" data-name="圖層 1" xmlns="http://www.w3.org/2000/svg" viewBox="0 0 1000 200"><defs><style>.cls-1{fill:#3b5875;}.cls-2{fill:none;}</style></defs><path class="cls-1" d="M250,92.27q-1.66-1.62-1.41-5.11V69.32q-3.31,7.22-5.4,7.22-2.82,0-2.82-3.65a6.49,6.49,0,0,1,1.25-3.41q8.29-12.95,10.7-32.12h-7.38q-4.06,0-4.07-3.16c0-2.26,1.36-3.4,4.07-3.4H266.5c2.71,0,4.07,1.14,4.07,3.4q0,3.16-4.07,3.16H259a150.63,150.63,0,0,1-5.07,18.84h8.05q3.74,0,5.4,1.62t1.41,5.11V87.16c0,2.38-.54,4.13-1.62,5.23s-2.81,1.61-5.19,1.5h-6.64Q251.65,93.89,250,92.27Zm12.7-7V64.67a2.1,2.1,0,0,0-2.41-2.33h-4.06A1.61,1.61,0,0,0,254.46,64V85.25q0,2.32,2.49,2.49h3.32C261.77,87.74,262.57,86.91,262.68,85.25ZM300,97.37V64.59h-13Q286.1,81,280.44,90.82q-5.38,9.45-9.38,9.46-3.22,0-3.23-3.65c0-1.06.72-2.24,2.16-3.57q9.87-9.8,10.87-28.47h-7.55a3.17,3.17,0,0,1-2.33-.75A4.25,4.25,0,0,1,271,59a3.21,3.21,0,0,1,2.33-.74h7.88V37.11h-5.64q-3.07,0-3.07-3.15a3.3,3.3,0,0,1,.74-2.41,3.18,3.18,0,0,1,2.33-.75h36.77a3.34,3.34,0,0,1,2.37.75,3.35,3.35,0,0,1,.78,2.49q0,3.08-3.15,3.07h-6.14V58.28h6.64q3.15,0,3.15,3.15c0,2.1-1.05,3.16-3.15,3.16h-6.64V97.37c0,2.6-1.06,3.91-3.16,3.91S300,100,300,97.37Zm0-60.26H287.5v5.23c0,5.15-.08,10.26-.25,15.36v.58H300Z"/><path class="cls-1" d="M351.58,97.12q0-2.33,3-3.07,10.62-2.56,16.35-7.88a23.76,23.76,0,0,0,7.14-13.78H359.55q-3,0-3-3.16,0-3,3.57-3h18.6q.33-4,.33-6.56a3.35,3.35,0,0,1,.87-2.41,3.22,3.22,0,0,1,2.45-.91q3.31,0,3.32,3.32a52.29,52.29,0,0,1-.33,6.47h14.36a5.87,5.87,0,0,1,4.52,1.66,6.75,6.75,0,0,1,1.54,4.73V89.74a5.94,5.94,0,0,0,.41,2.61,2.35,2.35,0,0,0,1.7,1.08,22.24,22.24,0,0,0,4.28.29,12.27,12.27,0,0,0,5-.7,3.4,3.4,0,0,0,1.78-2.54,42.87,42.87,0,0,0,.46-6.64q.08-3.23,3.32-3.23a2.83,2.83,0,0,1,2.28.91,3.67,3.67,0,0,1,.79,2.49,51.51,51.51,0,0,1-.41,8.76A9.31,9.31,0,0,1,423.72,97c-1.39,1.61-4.49,2.46-9.3,2.57H411.6a42.55,42.55,0,0,1-7.43-.49,7,7,0,0,1-3.95-2,6.32,6.32,0,0,1-1.32-4.36V74.38a2.24,2.24,0,0,0-.54-1.58,2,2,0,0,0-1.54-.58H384.7a33.13,33.13,0,0,1-5.81,14.94,32.21,32.21,0,0,1-12.53,9.72q-7.56,3.48-11.71,3.48C352.61,100.36,351.58,99.28,351.58,97.12Zm8-37.1a2.78,2.78,0,0,1-.7-2,2.7,2.7,0,0,1,.74-2,5.57,5.57,0,0,1,2.49-1.12q8.22-1.9,11.13-7a12.25,12.25,0,0,0,1.41-3.69,30.49,30.49,0,0,0,.66-4.44h-13.2c-2.21,0-3.29,1.1-3.23,3.32v6.64c0,2.82-1.17,4.23-3.49,4.23s-3.49-1.41-3.49-4.23V41.18q0-7.56,7.56-7.56H384V29.89c0-2.44,1.27-3.65,3.81-3.65s3.66,1.21,3.66,3.65v3.73h25.4q7.55,0,7.55,7.56v8q0,4.16-3.49,4.15t-3.4-4.15V43.09q0-3.41-3.32-3.32h-16.6V50.39a4.62,4.62,0,0,0,.37,2.16,2,2,0,0,0,1.5.87,21.8,21.8,0,0,0,3.61.21,20.6,20.6,0,0,0,4.36-.33,2.71,2.71,0,0,0,1.82-1.12,6.1,6.1,0,0,0,.54-2.62,2.94,2.94,0,0,1,.87-2,3.2,3.2,0,0,1,2.28-.75,2.67,2.67,0,0,1,2.08.83,3.23,3.23,0,0,1,.75,2.24,12.78,12.78,0,0,1-1.12,6.1A5.07,5.07,0,0,1,411,58.44a46.61,46.61,0,0,1-8.64.67,42.91,42.91,0,0,1-4.89-.25q-3.74-.42-5.07-1.62c-.88-.8-1.33-2.31-1.33-4.52V39.77H381.8A27.36,27.36,0,0,1,378.73,51a19.13,19.13,0,0,1-8.06,7.22,19.47,19.47,0,0,1-9,2.58A2.78,2.78,0,0,1,359.59,60Z"/><path class="cls-1" d="M460.32,96.71a11.5,11.5,0,0,1,1.25-3.82q3.74-7.89,3.73-33.7l-.08-5.64q-.09-3.82,1.62-5.82a6.35,6.35,0,0,1,5.1-2h16.6c2.44,0,4.22.54,5.36,1.62s1.62,2.81,1.45,5.19v13.7q0,3.65-1.62,5.27c-1.08,1.08-2.81,1.53-5.19,1.37h-16.6a73.91,73.91,0,0,1-3.07,19.34q-2.33,7.63-5.23,7.63Q460.33,99.86,460.32,96.71Zm1.58-63.58q0-3.24,3.32-3.24h29.14q3.31,0,3.32,3.32t-3.32,3.24H465.22Q461.91,36.45,461.9,33.13Zm26.81,30.79V54.71q0-2.66-2.82-2.82h-11c-1.94,0-2.9,1.1-2.9,3.32V66.74h13.86Q488.55,66.74,488.71,63.92Zm31.63,33.62V59.85H506.81q-.49,15.95-3,22.83a37.23,37.23,0,0,1-7.47,12.2q-5,5.4-7.64,5.4-3.57,0-3.57-3.9,0-1.57,2.82-3.65,9.39-7,11.38-19.68a117.9,117.9,0,0,0,1.16-18.26V45q0-9.39,1.33-11a5.79,5.79,0,0,1,2.28-1.41,25,25,0,0,1,4.27-1.08q14.37-2.65,17.85-4a8.38,8.38,0,0,1,3.07-.66q3.74,0,3.74,3.74c0,1.55-1.11,2.62-3.32,3.23a116.51,116.51,0,0,1-18,3.49,6.31,6.31,0,0,0-3.19,1.12,3.16,3.16,0,0,0-1.29,2.12L507,53.3h26.15c1.88,0,2.82,1.1,2.82,3.32s-.94,3.23-2.82,3.23h-6V97.54q0,4.06-3.4,4.07T520.34,97.54Z"/><path class="cls-1" d="M557.73,106.34a6.24,6.24,0,0,1-1.28-1.16,48,48,0,0,1-8.68-16.36,67.34,67.34,0,0,1-3-20.5,67.39,67.39,0,0,1,3-20.5,47.83,47.83,0,0,1,8.68-16.35,6.05,6.05,0,0,1,1.28-1.17,3,3,0,0,1,1.54-.33,3.38,3.38,0,0,1,2.36,1,3.07,3.07,0,0,1,1,2.36,5.14,5.14,0,0,1-.5,1.91A69.08,69.08,0,0,0,555,51.26a58.78,58.78,0,0,0,0,34.12,68.89,68.89,0,0,0,7.18,16.06,5.14,5.14,0,0,1,.5,1.91,3.11,3.11,0,0,1-1,2.37,3.41,3.41,0,0,1-2.36,1A3,3,0,0,1,557.73,106.34Z"/><path class="cls-1" d="M573.05,92.68a4.22,4.22,0,0,1-1.25-3.19,13.64,13.64,0,0,1,2.58-8A28.56,28.56,0,0,1,580,75.33a115.91,115.91,0,0,1,10-6.93q4.82-3.06,8-5.47,7-5.24,7-10.46c0-3.32-1.09-5.86-3.27-7.6s-5.44-2.61-9.76-2.61a34.56,34.56,0,0,0-14.19,3,4.41,4.41,0,0,1-1.58.42,3.13,3.13,0,0,1-2.28-.95,3.22,3.22,0,0,1-1-2.37,3.42,3.42,0,0,1,1.91-3.15A40.56,40.56,0,0,1,593.3,35,21.7,21.7,0,0,1,603,37a16.72,16.72,0,0,1,7,6,16,16,0,0,1,2.49,8.85A15.67,15.67,0,0,1,609.65,61a33.82,33.82,0,0,1-6.35,7,116.72,116.72,0,0,1-10.91,7.72q-6.32,4.32-9,6.51a13.55,13.55,0,0,0-3.78,4.45h28.73A3.67,3.67,0,0,1,612,90.32a3.38,3.38,0,0,1-1.08,2.53,3.6,3.6,0,0,1-2.57,1H576.28A4.43,4.43,0,0,1,573.05,92.68Z"/><path class="cls-1" d="M651.86,93.18a3.7,3.7,0,0,1-1.12-2.7V79.28H625.51a4.79,4.79,0,0,1-3.45-1.41,4.57,4.57,0,0,1-1.45-3.41v-.74a4.92,4.92,0,0,1,1-3.07l26.06-33.29a5.55,5.55,0,0,1,4.23-2h1.66a4.7,4.7,0,0,1,3.53,1.41,4.81,4.81,0,0,1,1.37,3.48V72.39h6.23a3.54,3.54,0,0,1,3.48,3.48,3.24,3.24,0,0,1-1,2.45,3.47,3.47,0,0,1-2.49,1h-6.23v11.2a3.62,3.62,0,0,1-1.16,2.7,3.82,3.82,0,0,1-2.74,1.12A3.68,3.68,0,0,1,651.86,93.18Zm-1.28-47.6c-.12-.17-.23-.25-.34-.25s-.38.16-.66.5l-19.76,25.4a.9.9,0,0,0-.33.58c0,.38.31.58.92.58h20.33V46.16A1,1,0,0,0,650.58,45.58Z"/><path class="cls-1" d="M677.8,60.1q-3.57-4.14-3.57-10.79t3.57-10.79q3.57-4.16,9.88-4.15t9.88,4.15q3.57,4.15,3.57,10.79T697.56,60.1q-3.57,4.15-9.88,4.15T677.8,60.1Zm15.32-3.94a10.67,10.67,0,0,0,2-6.85,10.69,10.69,0,0,0-2-6.85,7.11,7.11,0,0,0-10.88,0,10.69,10.69,0,0,0-2,6.85,10.67,10.67,0,0,0,2,6.85,7.11,7.11,0,0,0,10.88,0Zm-7.39,37.73a2.67,2.67,0,0,1-.87-2,2.81,2.81,0,0,1,.41-1.5l33.79-54a2.81,2.81,0,0,1,2.4-1.33,3.07,3.07,0,0,1,2.12.71,2.37,2.37,0,0,1,.79,1.87,3.5,3.5,0,0,1-.58,1.91l-33.54,53.7a2.85,2.85,0,0,1-2.57,1.5A2.77,2.77,0,0,1,685.73,93.89Zm25.77-2.66q-3.57-4.16-3.57-10.79t3.57-10.79q3.57-4.16,9.88-4.15t9.88,4.15q3.57,4.16,3.57,10.79t-3.57,10.79q-3.57,4.15-9.88,4.15T711.5,91.23Zm15.32-3.94a10.67,10.67,0,0,0,2-6.85,10.67,10.67,0,0,0-2-6.85,7.11,7.11,0,0,0-10.88,0,10.67,10.67,0,0,0-2,6.85,10.67,10.67,0,0,0,2,6.85,7.11,7.11,0,0,0,10.88,0Z"/><path class="cls-1" d="M743.25,105.72a3.1,3.1,0,0,1-1-2.37,5.09,5.09,0,0,1,.49-1.91,68.93,68.93,0,0,0,7.19-16.06,58.78,58.78,0,0,0,0-34.12,69.11,69.11,0,0,0-7.19-16.06,5.09,5.09,0,0,1-.49-1.91,3.06,3.06,0,0,1,1-2.36,3.4,3.4,0,0,1,2.37-1,3,3,0,0,1,1.54.33,6.58,6.58,0,0,1,1.28,1.17,47.83,47.83,0,0,1,8.68,16.35,67.39,67.39,0,0,1,3,20.5,67.34,67.34,0,0,1-3,20.5,48,48,0,0,1-8.68,16.36,6.8,6.8,0,0,1-1.28,1.16,3,3,0,0,1-1.54.33A3.44,3.44,0,0,1,743.25,105.72Z"/><path class="cls-1" d="M150.56,173.05a3.19,3.19,0,0,1-.62-.56,23.23,23.23,0,0,1-4.19-7.89,34.23,34.23,0,0,1,0-19.78,23.09,23.09,0,0,1,4.19-7.88,2.89,2.89,0,0,1,.62-.56,1.37,1.37,0,0,1,.74-.17,1.65,1.65,0,0,1,1.14.46,1.51,1.51,0,0,1,.5,1.15,2.5,2.5,0,0,1-.24.92,33.28,33.28,0,0,0-3.46,7.74,28.37,28.37,0,0,0,0,16.46,33.35,33.35,0,0,0,3.46,7.75,2.45,2.45,0,0,1,.24.92,1.51,1.51,0,0,1-.5,1.14,1.61,1.61,0,0,1-1.14.46A1.38,1.38,0,0,1,150.56,173.05Z"/><path class="cls-1" d="M157.27,149c0-.51.69-1.3,2.08-2.37q2.6-2,3.72-3a2.21,2.21,0,0,1,1.48-.72q1.56,0,1.56,1.44c0,.59-1.06,1.79-3.2,3.61s-3.48,2.76-4.12,2.76C157.77,150.75,157.27,150.18,157.27,149Zm0,20.26c0-.54.14-.88.44-1a6.87,6.87,0,0,1,1.48-.24l1.56-.16a47,47,0,0,0,6-1l3.53-.72a1.33,1.33,0,0,1,1.52,1.48c0,.7-.61,1.19-1.84,1.49a50.68,50.68,0,0,1-11.33,1.84C157.75,170.89,157.31,170.35,157.31,169.29Zm5-30.63-1.6-1c-.75-.43-1.12-.9-1.12-1.41,0-1,.52-1.48,1.56-1.48a11.38,11.38,0,0,1,2.92,1.32c1.66.86,2.48,1.61,2.48,2.25a1.75,1.75,0,0,1-.4,1.28,1.67,1.67,0,0,1-1.24.4A8.6,8.6,0,0,1,162.31,138.66ZM161.15,162v-8.65q-.28-4,3.72-3.72h20.82q4-.31,3.73,3.72V162q.27,4-3.73,3.72H164.87Q160.86,166,161.15,162Zm25-8.65a1.18,1.18,0,0,0-1.32-1.36H165.71a1.2,1.2,0,0,0-1.36,1.36v.88h21.82Zm0,5.45v-2.33H164.35v2.33Zm0,3.2v-1H164.35v1a1.2,1.2,0,0,0,1.36,1.36h19.14A1.18,1.18,0,0,0,186.17,162Zm-7.48-18.26h-.08a11.29,11.29,0,0,1-5.09,4,15.27,15.27,0,0,1-6.08,1.56,1.44,1.44,0,0,1-1.05-.34,1.47,1.47,0,0,1-.32-1,1.27,1.27,0,0,1,1.29-1.37,17.21,17.21,0,0,0,6.9-2.34,6.33,6.33,0,0,0,3-4.3H172l-.4.44c-1.44,1.6-2.51,2.4-3.2,2.4a1.25,1.25,0,0,1-1.4-1.44c0-.4.3-.87.92-1.4l.8-.68a13.21,13.21,0,0,0,1-1c1-1.15,1.68-2,2.08-2.45.8-1,1.45-1.44,2-1.44,1.07,0,1.6.38,1.6,1.12a3.85,3.85,0,0,1-1.16,1.93h14.9c1.81,0,2.72.6,2.72,1.8,0,.51-.84,1.57-2.52,3.2a16.81,16.81,0,0,1-2,1.74,2.69,2.69,0,0,1-1.23.62,1.48,1.48,0,0,1-1.06-.32,1.4,1.4,0,0,1-.34-1q0-.56.84-1.2c1.28-1,1.93-1.69,1.93-2a.32.32,0,0,0-.12-.26.45.45,0,0,0-.29-.1h-7l-.28,1.2q3.43,4.73,11.93,5.89,1.44.15,1.44,1.44a1.4,1.4,0,0,1-1.56,1.6l-.88-.12Q181.86,148.39,178.69,143.78Zm3.16,25.59a8,8,0,0,1-2.16-.83c-.51-.3-.76-.61-.76-.93,0-1,.53-1.45,1.6-1.45l.76.16A58.37,58.37,0,0,0,191,168a4.48,4.48,0,0,1,1.76.45,1,1,0,0,1,.56,1,1.33,1.33,0,0,1-1.48,1.52A39.89,39.89,0,0,1,181.85,169.37Z"/><path class="cls-1" d="M205.51,169.25V154.91a43.51,43.51,0,0,1-3.12,5.81c-1.28,2-2.27,3-3,3q-1.44,0-1.44-1.8a3.36,3.36,0,0,1,1-1.84,29.14,29.14,0,0,0,6-10.65h-5.28c-1.07,0-1.6-.51-1.6-1.52s.53-1.49,1.6-1.49h5.8V136c0-1.09.52-1.64,1.56-1.64s1.57.55,1.57,1.64v10.37H213c1.23,0,1.84.5,1.84,1.49a1.38,1.38,0,0,1-.48,1.14,2.16,2.16,0,0,1-1.36.38h-4.4v4.48a1.56,1.56,0,0,1,1.24-.56c.48,0,1.16.57,2,1.72l.84,1a16.87,16.87,0,0,1,1.24,1.74,2.39,2.39,0,0,1,.36,1.19,1.09,1.09,0,0,1-.36.84,1.41,1.41,0,0,1-1,.32,1.87,1.87,0,0,1-1.48-1L209,155.55l-.36-.48v14.18c0,1.09-.52,1.64-1.57,1.64S205.51,170.34,205.51,169.25Zm-3.68-24.63a1.39,1.39,0,0,1-.86-.28,1.27,1.27,0,0,1-.5-.8c-.3-1.25-.68-2.67-1.16-4.24a1.85,1.85,0,0,1-.08-.44,1,1,0,0,1,.42-.86,1.55,1.55,0,0,1,1-.34,1.44,1.44,0,0,1,1.36,1c.16.37.39,1,.68,1.92s.52,1.73.68,2.48a1.18,1.18,0,0,1-.22,1,1.54,1.54,0,0,1-.86.52A2,2,0,0,1,201.83,144.62Zm12.55-6.6a1.17,1.17,0,0,1,.22,1c-.16.74-.39,1.57-.68,2.48s-.52,1.55-.68,1.92a1.39,1.39,0,0,1-1.36,1,1.55,1.55,0,0,1-1-.34,1,1,0,0,1-.42-.86,1.77,1.77,0,0,1,.08-.44c.48-1.57.86-3,1.16-4.24a1.31,1.31,0,0,1,.5-.8,1.39,1.39,0,0,1,.86-.28,2,2,0,0,1,.48,0A1.54,1.54,0,0,1,214.38,138Zm12.23,30.79v-9.73l-9.21,2.48a3.53,3.53,0,0,1-.84.12,1.22,1.22,0,0,1-1.08-.48,2.14,2.14,0,0,1-.32-1.2,1.58,1.58,0,0,1,1.32-1.64l10.13-2.61V136.49c0-1.38.56-2.08,1.68-2.08s1.69.7,1.69,2.08v18.38l2.4-.68a2.17,2.17,0,0,1,.68-.12,1.29,1.29,0,0,1,1,.4,1.7,1.7,0,0,1,.36,1.16,1.56,1.56,0,0,1-1.32,1.6l-3.12,1v10.61a2.45,2.45,0,0,1-.42,1.58,1.63,1.63,0,0,1-1.31.5C227.16,170.89,226.61,170.19,226.61,168.81Zm-5.76-16.44a16.88,16.88,0,0,1-1.72-1.3l-1.25-1c-1-.78-1.48-1.38-1.48-1.8a1.71,1.71,0,0,1,.36-1.17,1.31,1.31,0,0,1,1-.4,3.1,3.1,0,0,1,1.37.42,17.9,17.9,0,0,1,2,1.35c1.6,1.14,2.4,2,2.4,2.64a1.48,1.48,0,0,1-1.68,1.68A2.32,2.32,0,0,1,220.85,152.37Zm1.56-8.75a5.07,5.07,0,0,1-1-.76c-.56-.53-1.32-1.19-2.28-2s-1.25-1.2-1.25-1.6a1.65,1.65,0,0,1,.35-1.12,1.15,1.15,0,0,1,.94-.4,2.46,2.46,0,0,1,1.28.36,20.5,20.5,0,0,1,2.16,1.56,9.82,9.82,0,0,1,1.68,1.6,1.83,1.83,0,0,1,.44,1.12,1.34,1.34,0,0,1-1.4,1.44A1.89,1.89,0,0,1,222.41,143.62Z"/><path class="cls-1" d="M249.56,135.77c0,.72-.82,3.13-2.45,7.21v26.07c0,1.25-.5,1.88-1.52,1.88s-1.52-.63-1.52-1.88V149.91c-1.76,3.57-3,5.36-3.76,5.36s-1.32-.6-1.32-1.8a6.11,6.11,0,0,1,1.16-2.6,63.1,63.1,0,0,0,5.92-14.3,5.61,5.61,0,0,1,.78-1.66,1.33,1.33,0,0,1,1.1-.54C249,134.37,249.56,134.84,249.56,135.77Zm26.06,32.48c0,.9-.59,1.36-1.76,1.36H250.48c-1.18,0-1.77-.46-1.77-1.36s.59-1.37,1.77-1.37h9.77v-2.12h-7.73c-1.15,0-1.72-.41-1.72-1.24s.57-1.28,1.72-1.28h7.73v-2H251.6c-1.15,0-1.72-.43-1.72-1.28s.57-1.29,1.72-1.29h8.65v-2h-6.53a3.67,3.67,0,0,1-2.48-.7,2.76,2.76,0,0,1-.8-2.22v-2.16q0-3,3.28-2.92h6.53v-2.05H258a3.74,3.74,0,0,1-2.5-.68,2.58,2.58,0,0,1-.7-2.2v-2.4H251q-1.8,0-1.8-1.32t1.8-1.32h3.8v-1.89c0-.9.52-1.36,1.56-1.36s1.52.46,1.52,1.36v1.89H266v-1.89c0-.9.54-1.36,1.6-1.36s1.56.46,1.56,1.36v1.89h4.17c1.17,0,1.76.44,1.76,1.32s-.59,1.32-1.76,1.32h-4.17v2.4a2.92,2.92,0,0,1-.76,2.26,3.24,3.24,0,0,1-2.44.62h-2.56v2.05h6.81a3.65,3.65,0,0,1,2.46.72,2.76,2.76,0,0,1,.82,2.2v2.16c0,2-1.1,3-3.28,2.92h-6.81v2h8.73c1.15,0,1.72.43,1.72,1.29a1.14,1.14,0,0,1-.44.94,2.12,2.12,0,0,1-1.28.34h-8.73v2H271c1.17,0,1.76.43,1.76,1.28s-.59,1.24-1.76,1.24h-7.65v2.12h10.49C275,166.88,275.62,167.34,275.62,168.25Zm-15.37-18.14h-5.53a1,1,0,0,0-1.12,1v1c0,.64.37,1,1.12,1h5.53Zm-1.13-6.85h5.65a1.07,1.07,0,0,0,1.2-1.12v-1.88h-8.09v1.88C257.88,142.83,258.3,143.21,259.12,143.26Zm4.25,6.85v3h5.76c.73,0,1.1-.32,1.13-1v-1c0-.67-.38-1-1.13-1Z"/><path class="cls-1" d="M285,169V150.43q-2.56,4.84-3.56,4.84c-.94,0-1.4-.65-1.4-2a2,2,0,0,1,.22-.84,9.31,9.31,0,0,1,.74-1.28,55,55,0,0,0,6.4-14.49c.48-1.55,1.15-2.33,2-2.33,1.23,0,1.85.5,1.85,1.48,0,.78-1,3.47-3.09,8.09V169q0,1.92-1.56,1.92C285.48,170.93,285,170.29,285,169Zm4.6-12.26c0-1.09.67-1.64,2-1.64h4.36v-9.33H292.4c-1.28,0-1.92-.54-1.92-1.64s.64-1.64,1.92-1.64h3.52v-5.93c0-1.3.55-2,1.64-2s1.64.66,1.64,2v5.93h7.13v-5.85q0-2,1.68-2t1.68,2v5.85h4.13c1.31,0,2,.55,2,1.64s-.65,1.64-2,1.64h-4.13v9.33h4.89c1.33,0,2,.55,2,1.64s-.67,1.65-2,1.65h-23Q289.55,158.4,289.55,156.75Zm.12,11.94c0-.62.45-1.24,1.33-1.89a19,19,0,0,0,4.56-5.2c.64-1,1.3-1.48,2-1.48,1.07,0,1.6.48,1.6,1.44q0,1.16-3.12,5c-2.08,2.57-3.62,3.85-4.6,3.85A1.53,1.53,0,0,1,289.67,168.69Zm16.66-13.58v-9.33H299.2v9.33Zm3.2,11.65Q306,163,306,161.6t1.68-1.44c.7,0,1.36.49,2,1.48a18.62,18.62,0,0,0,2.33,2.72,18,18,0,0,0,2.68,2.24c1.07.75,1.6,1.43,1.6,2.05,0,1.22-.56,1.84-1.68,1.84S311.91,169.25,309.53,166.76Z"/><path class="cls-1" d="M357,156.21a1.57,1.57,0,0,1,.58,1.23,1.61,1.61,0,0,1-1.84,1.8q-1.61,0-5.89-1.8A31.6,31.6,0,0,1,338.84,150a36.09,36.09,0,0,1-9.45,6.16c-3.76,1.74-6.1,2.61-7,2.61a1.29,1.29,0,0,1-1.48-1.44,1.48,1.48,0,0,1,.58-1.25,5.38,5.38,0,0,1,1.82-.76,32.78,32.78,0,0,0,11.85-5.8,1.09,1.09,0,0,1-.72-.34,5.33,5.33,0,0,1-.64-.9l-.88.2-2.69.56a59.51,59.51,0,0,1-7.48,1.32,1.29,1.29,0,0,1-1-.42,1.83,1.83,0,0,1-.36-1.22c0-.88.65-1.39,2-1.53l1.48-.11,1.76-3.57a1.83,1.83,0,0,1,1.64-1.2c1.07,0,1.6.41,1.6,1.24a2.16,2.16,0,0,1-.36,1c-.24.42-.73,1.18-1.48,2.3l4.65-.6a9.23,9.23,0,0,1-.6-1.06,1.57,1.57,0,0,1-.2-.66.91.91,0,0,1,.34-.7,1.18,1.18,0,0,1,.82-.3,1.52,1.52,0,0,1,1,.48,11.6,11.6,0,0,1,1.32,1.6,7.44,7.44,0,0,1,1.4,2.53v.12L338,147a2,2,0,0,1,1.32-.73c.94,0,1.4.43,1.4,1.29a1.17,1.17,0,0,1-.16.6,29.93,29.93,0,0,0,14.86,7.36A3.29,3.29,0,0,1,357,156.21Zm-3,6.71c0,.8-1.28,1.74-3.85,2.8A63.71,63.71,0,0,1,325.15,171a1.56,1.56,0,0,1-1.16-.38,1.68,1.68,0,0,1-.36-1.18,1.22,1.22,0,0,1,.52-1.08,1.91,1.91,0,0,1,.78-.18c.39-.05.76-.08,1.12-.1s.66-.05.9-.05q13.14-.51,22.86-5.72a7.63,7.63,0,0,1,2.41-1C353.44,161.32,354.06,161.85,354.06,162.92ZM341.71,154a1.45,1.45,0,0,1,.34,1.22c-.06.62-1.39,1.55-4,2.81a44.27,44.27,0,0,1-7.93,2.8,29.74,29.74,0,0,1-4.68,1,1.34,1.34,0,0,1-.94-.32,1.24,1.24,0,0,1-.34-1,1.14,1.14,0,0,1,.66-1,7.71,7.71,0,0,1,2.22-.7,34.21,34.21,0,0,0,5.53-1.68,41.3,41.3,0,0,0,5.84-2.77,5.06,5.06,0,0,1,2.08-.84A1.67,1.67,0,0,1,341.71,154Zm-16.94-12.29a1.66,1.66,0,0,1-.42-1.22c0-1,.6-1.52,1.8-1.52h5.33l2.24-3.57a2.21,2.21,0,0,1,1.92-1.12,1.76,1.76,0,0,1,1.2.42,1.27,1.27,0,0,1,.48,1,2.5,2.5,0,0,1-.7,1.46,14.09,14.09,0,0,1-1.9,1.87l11.93-.36-2.36-1.2c-.56-.3-.84-.63-.84-1a1.14,1.14,0,0,1,.36-.89,1.24,1.24,0,0,1,.84-.32,7.33,7.33,0,0,1,2.22.68,30.51,30.51,0,0,1,3.7,1.93,35.28,35.28,0,0,1,3.31,2.14c.68.52,1,.94,1,1.26a1.54,1.54,0,0,1-.44,1.08,1.51,1.51,0,0,1-1,.36,4.08,4.08,0,0,1-2.33-1.08l-1-.84-24,1.32A1.53,1.53,0,0,1,324.77,141.72Zm3.5,21.8c1.1-.21,2-.39,2.56-.52,2.09-.51,4.08-1.07,6-1.68a44.26,44.26,0,0,0,5.83-2.36c.77-.38,1.4-.68,1.9-.91a3.2,3.2,0,0,1,1-.34c1.12.06,1.67.59,1.64,1.61,0,.48-.53,1-1.52,1.58a31.88,31.88,0,0,1-4.61,2,58.14,58.14,0,0,1-12.53,3.24l-1.2.12a1.08,1.08,0,0,1-.9-.3,1.18,1.18,0,0,1-.34-.9,1.25,1.25,0,0,1,.84-1.28Zm26.87-18.22c1.36,1.63,2,2.69,2,3.17a1.39,1.39,0,0,1-.4,1.06,1.41,1.41,0,0,1-1,.38,1.53,1.53,0,0,1-1-.38,7.78,7.78,0,0,1-1.14-1.3l-2,.24-1.77.12c-.74,0-1.33.1-1.76.16l-2.76.28-2.76.24a1.31,1.31,0,0,1-1.06-.36,1.61,1.61,0,0,1-.38-1.16c0-.78.7-1.21,2.12-1.29h.36c.05-.1.26-.61.64-1.52s.68-1.63.92-2.16a3,3,0,0,1,.66-.94,1.25,1.25,0,0,1,.86-.3,1.78,1.78,0,0,1,1.2.38,1.17,1.17,0,0,1,.44.94c0,.45-.58,1.59-1.76,3.4l5.37-.36-.36-.4a2.34,2.34,0,0,1-.81-1.52q0-1.08,1.29-1.08Q353.1,142.9,355.14,145.3Z"/><path class="cls-1" d="M382.89,148.27q-2.56,1.88-6.53,4.32h19.5c1.09,0,1.64.48,1.64,1.44s-.55,1.44-1.64,1.44H373.6c0,.43-.14,1.28-.32,2.57a.94.94,0,0,0,.28.82,1.29,1.29,0,0,0,.92.3h17.33c2.17,0,3.25.84,3.25,2.52a16.3,16.3,0,0,1-.76,4.88,5.32,5.32,0,0,1-2.69,3.33q-1.83.92-7.52.92c-1.44,0-2.17-.58-2.17-1.72s.74-1.69,2.21-1.69l3.36,0A4.94,4.94,0,0,0,390,167a2.48,2.48,0,0,0,1.26-1.46,7.69,7.69,0,0,0,.52-2.52c0-.61-.38-.92-1.16-.92H373.16a4.2,4.2,0,0,1-2.51-.62,2,2,0,0,1-.74-1.86c.11-1.12.2-2,.28-2.53,0-.26.1-.66.2-1.2q-6,3.09-6.92,3.09c-.94,0-1.4-.51-1.4-1.52,0-.75.64-1.35,1.92-1.81a64.94,64.94,0,0,0,6.76-3l.08-.08c.24-1.55.83-2.32,1.77-2.32a1.4,1.4,0,0,1,1.28.8l4.48-2.72H363.75a1.58,1.58,0,0,1-1.16-.36,1.49,1.49,0,0,1-.36-1.09,1.47,1.47,0,0,1,.36-1.08,1.58,1.58,0,0,1,1.16-.36h11.49V141h-8.77a1.72,1.72,0,0,1-1.18-.34,1.42,1.42,0,0,1-.38-1.1,1.36,1.36,0,0,1,.38-1.06,1.72,1.72,0,0,1,1.18-.34h8.77V136a1.38,1.38,0,0,1,1.56-1.56,1.4,1.4,0,0,1,1.6,1.56v2.17h7.29a1.7,1.7,0,0,1,1.2.34,1.39,1.39,0,0,1,.36,1.06,1.46,1.46,0,0,1-.36,1.1,1.7,1.7,0,0,1-1.2.34H378.4v4.36h3.89a77.45,77.45,0,0,0,9.56-8.76,2.35,2.35,0,0,1,1.57-.89c1.06,0,1.6.48,1.6,1.45,0,.58-.51,1.33-1.52,2.24l-1.65,1.52q-2.52,2.33-5.24,4.44h10.25c1.07,0,1.6.48,1.6,1.44s-.53,1.45-1.6,1.45Z"/><path class="cls-1" d="M418.72,167.08c0-.32.2-.58.6-.8a5.58,5.58,0,0,0,2-1.7,3.34,3.34,0,0,0,.68-1.94.21.21,0,0,0-.24-.24l-.2,0-.28,0q-3,0-3-2.76a3.13,3.13,0,0,1,.84-2.17,3,3,0,0,1,2.32-.92q3.29,0,3.29,4a7.21,7.21,0,0,1-1.93,5.12c-1.38,1.53-2.46,2.28-3.24,2.28Q418.72,168,418.72,167.08Zm.58-21.1a3,3,0,0,1-.94-2.28,3.07,3.07,0,0,1,.94-2.26,3.13,3.13,0,0,1,2.3-.94,3,3,0,0,1,2.25.94,3.13,3.13,0,0,1,.92,2.26,3.1,3.1,0,0,1-.92,2.28,3.06,3.06,0,0,1-2.25.92A3.15,3.15,0,0,1,419.3,146Z"/><path class="cls-1" d="M444.27,149c0-.51.69-1.3,2.08-2.37q2.59-2,3.72-3a2.21,2.21,0,0,1,1.48-.72q1.56,0,1.56,1.44c0,.59-1.06,1.79-3.2,3.61s-3.48,2.76-4.12,2.76C444.77,150.75,444.27,150.18,444.27,149Zm0,20.26c0-.54.14-.88.44-1a6.87,6.87,0,0,1,1.48-.24l1.56-.16a47,47,0,0,0,6-1l3.53-.72a1.33,1.33,0,0,1,1.52,1.48c0,.7-.61,1.19-1.84,1.49a50.68,50.68,0,0,1-11.33,1.84C444.75,170.89,444.31,170.35,444.31,169.29Zm5-30.63-1.6-1c-.75-.43-1.12-.9-1.12-1.41,0-1,.52-1.48,1.56-1.48a11.38,11.38,0,0,1,2.92,1.32c1.66.86,2.48,1.61,2.48,2.25a1.75,1.75,0,0,1-.4,1.28,1.67,1.67,0,0,1-1.24.4A8.6,8.6,0,0,1,449.31,138.66ZM448.15,162v-8.65q-.28-4,3.72-3.72h20.82q4-.31,3.73,3.72V162q.27,4-3.73,3.72H451.87Q447.87,166,448.15,162Zm25-8.65a1.18,1.18,0,0,0-1.32-1.36H452.71a1.2,1.2,0,0,0-1.36,1.36v.88h21.82Zm0,5.45v-2.33H451.35v2.33Zm0,3.2v-1H451.35v1a1.2,1.2,0,0,0,1.36,1.36h19.14A1.18,1.18,0,0,0,473.17,162Zm-7.48-18.26h-.08a11.29,11.29,0,0,1-5.09,4,15.27,15.27,0,0,1-6.08,1.56,1.44,1.44,0,0,1-1.05-.34,1.47,1.47,0,0,1-.32-1,1.27,1.27,0,0,1,1.29-1.37,17.21,17.21,0,0,0,6.9-2.34,6.33,6.33,0,0,0,2.95-4.3H459l-.4.44c-1.44,1.6-2.51,2.4-3.2,2.4a1.25,1.25,0,0,1-1.4-1.44c0-.4.3-.87.92-1.4l.8-.68a13.21,13.21,0,0,0,1-1c1-1.15,1.68-2,2.08-2.45.8-1,1.45-1.44,2-1.44,1.07,0,1.6.38,1.6,1.12a3.85,3.85,0,0,1-1.16,1.93h14.9c1.81,0,2.72.6,2.72,1.8,0,.51-.84,1.57-2.52,3.2a16.81,16.81,0,0,1-2,1.74,2.69,2.69,0,0,1-1.23.62,1.48,1.48,0,0,1-1.06-.32,1.4,1.4,0,0,1-.34-1q0-.56.84-1.2c1.28-1,1.93-1.69,1.93-2a.32.32,0,0,0-.12-.26.45.45,0,0,0-.29-.1h-7l-.28,1.2q3.43,4.73,11.93,5.89,1.44.15,1.44,1.44a1.4,1.4,0,0,1-1.56,1.6l-.88-.12Q468.86,148.39,465.69,143.78Zm3.16,25.59a8,8,0,0,1-2.16-.83c-.51-.3-.76-.61-.76-.93,0-1,.53-1.45,1.6-1.45l.76.16A58.37,58.37,0,0,0,478,168a4.48,4.48,0,0,1,1.76.45,1,1,0,0,1,.56,1,1.33,1.33,0,0,1-1.48,1.52A39.89,39.89,0,0,1,468.85,169.37Z"/><path class="cls-1" d="M492.51,169.25V154.91a43.51,43.51,0,0,1-3.12,5.81c-1.28,2-2.27,3-3,3q-1.44,0-1.44-1.8a3.36,3.36,0,0,1,1-1.84,29.14,29.14,0,0,0,6-10.65h-5.28c-1.07,0-1.6-.51-1.6-1.52s.53-1.49,1.6-1.49h5.8V136c0-1.09.52-1.64,1.56-1.64s1.57.55,1.57,1.64v10.37H500c1.23,0,1.84.5,1.84,1.49a1.38,1.38,0,0,1-.48,1.14,2.16,2.16,0,0,1-1.36.38h-4.4v4.48a1.56,1.56,0,0,1,1.24-.56c.48,0,1.16.57,2,1.72l.84,1a16.87,16.87,0,0,1,1.24,1.74,2.39,2.39,0,0,1,.36,1.19,1.09,1.09,0,0,1-.36.84,1.41,1.41,0,0,1-1,.32,1.87,1.87,0,0,1-1.48-1L496,155.55l-.36-.48v14.18c0,1.09-.52,1.64-1.57,1.64S492.51,170.34,492.51,169.25Zm-3.68-24.63a1.39,1.39,0,0,1-.86-.28,1.27,1.27,0,0,1-.5-.8c-.3-1.25-.68-2.67-1.16-4.24a1.85,1.85,0,0,1-.08-.44,1,1,0,0,1,.42-.86,1.55,1.55,0,0,1,1-.34,1.44,1.44,0,0,1,1.36,1c.16.37.39,1,.68,1.92s.52,1.73.68,2.48a1.18,1.18,0,0,1-.22,1,1.54,1.54,0,0,1-.86.52A2,2,0,0,1,488.83,144.62Zm12.55-6.6a1.17,1.17,0,0,1,.22,1c-.16.74-.39,1.57-.68,2.48s-.52,1.55-.68,1.92a1.39,1.39,0,0,1-1.36,1,1.55,1.55,0,0,1-1-.34,1,1,0,0,1-.42-.86,1.77,1.77,0,0,1,.08-.44c.48-1.57.86-3,1.16-4.24a1.31,1.31,0,0,1,.5-.8,1.39,1.39,0,0,1,.86-.28,2,2,0,0,1,.48,0A1.54,1.54,0,0,1,501.38,138Zm12.23,30.79v-9.73l-9.2,2.48a3.67,3.67,0,0,1-.85.12,1.22,1.22,0,0,1-1.08-.48,2.14,2.14,0,0,1-.32-1.2,1.58,1.58,0,0,1,1.32-1.64l10.13-2.61V136.49c0-1.38.56-2.08,1.69-2.08s1.68.7,1.68,2.08v18.38l2.4-.68a2.17,2.17,0,0,1,.68-.12,1.29,1.29,0,0,1,1,.4,1.7,1.7,0,0,1,.36,1.16,1.56,1.56,0,0,1-1.32,1.6l-3.12,1v10.61a2.45,2.45,0,0,1-.42,1.58,1.63,1.63,0,0,1-1.31.5C514.16,170.89,513.61,170.19,513.61,168.81Zm-5.76-16.44a16.88,16.88,0,0,1-1.72-1.3l-1.24-1c-1-.78-1.49-1.38-1.49-1.8a1.71,1.71,0,0,1,.36-1.17,1.31,1.31,0,0,1,1-.4,3.1,3.1,0,0,1,1.37.42,17.9,17.9,0,0,1,2,1.35c1.6,1.14,2.4,2,2.4,2.64a1.48,1.48,0,0,1-1.68,1.68A2.32,2.32,0,0,1,507.85,152.37Zm1.56-8.75a5.07,5.07,0,0,1-1-.76c-.56-.53-1.32-1.19-2.28-2s-1.24-1.2-1.24-1.6a1.65,1.65,0,0,1,.34-1.12,1.15,1.15,0,0,1,.94-.4,2.46,2.46,0,0,1,1.28.36,20.5,20.5,0,0,1,2.16,1.56,9.82,9.82,0,0,1,1.68,1.6,1.83,1.83,0,0,1,.44,1.12,1.34,1.34,0,0,1-1.4,1.44A1.89,1.89,0,0,1,509.41,143.62Z"/><path class="cls-1" d="M562.42,166a2,2,0,0,1-.54,1.41,1.38,1.38,0,0,1-1.18.48c-1.55-.22-3.79-1.31-6.73-3.29a42.63,42.63,0,0,1-8.2-6.88V169c0,1.22-.56,1.84-1.69,1.84s-1.68-.62-1.68-1.84V157.84a39.82,39.82,0,0,1-6.58,5.86,32.53,32.53,0,0,1-7.47,4.15,2.14,2.14,0,0,1-.68.11,1.28,1.28,0,0,1-1-.48,1.79,1.79,0,0,1-.4-1.2,1.44,1.44,0,0,1,.3-.9,2.39,2.39,0,0,1,1-.66,47.23,47.23,0,0,0,7.87-4.7,41.58,41.58,0,0,0,7-6.11V142.18H528.91c-1.28,0-1.92-.51-1.92-1.52s.64-1.52,1.92-1.52H542.4v-2.89c0-1.22.56-1.84,1.68-1.84s1.69.62,1.69,1.84v2.89H559.3c1.25,0,1.88.5,1.88,1.52s-.63,1.52-1.88,1.52H545.77v11.93a41.37,41.37,0,0,0,6.82,5.73,46.37,46.37,0,0,0,8.67,4.6A1.61,1.61,0,0,1,562.42,166ZM535,148.27a39.58,39.58,0,0,1,4.8,3.72,2,2,0,0,1,.68,1.36,1.39,1.39,0,0,1-.44,1.08,1.64,1.64,0,0,1-1.16.4,1.52,1.52,0,0,1-.88-.26,6,6,0,0,1-1-.82l-3.29-3.24a20.74,20.74,0,0,1-4,5.2,2.11,2.11,0,0,1-1.48.64,1.39,1.39,0,0,1-1-.44,1.15,1.15,0,0,1-.36-.84,2.62,2.62,0,0,1,.8-1.64,29.31,29.31,0,0,0,5-8.45,1.79,1.79,0,0,1,1.72-1.28,1.48,1.48,0,0,1,1.11.44,1.43,1.43,0,0,1,.42,1A8.8,8.8,0,0,1,535,148.27Zm20.05-.12a47.48,47.48,0,0,1,5.41,4.24,1.71,1.71,0,0,1,.68,1.36,1.54,1.54,0,0,1-.42,1.14,1.66,1.66,0,0,1-1.22.42,1.52,1.52,0,0,1-.88-.26,6.36,6.36,0,0,1-1-.86l-.64-.64c-1-1.07-2.13-2.11-3.25-3.12a15,15,0,0,1-3.4,4.12,2,2,0,0,1-1.28.56,1.34,1.34,0,0,1-1-.44,1.27,1.27,0,0,1-.44-.92,2.28,2.28,0,0,1,.72-1.44,19.59,19.59,0,0,0,2.64-3.44,26.7,26.7,0,0,0,2-4.21,1.66,1.66,0,0,1,2.69-.74,1.33,1.33,0,0,1,.44,1A8,8,0,0,1,555.09,148.15Z"/><path class="cls-1" d="M569.83,149.35c-1.52-.7-2.28-1.36-2.28-2a1.5,1.5,0,0,1,1.72-1.69,9.56,9.56,0,0,1,2.88.84c1.36.54,2,1.23,2,2.09,0,1.17-.49,1.76-1.48,1.76A11.3,11.3,0,0,1,569.83,149.35Zm-2.2,19.22a7.67,7.67,0,0,1,.76-2.41q.39-.84,1.68-4.8l.8-2.48.48-1.44c.13-.46.27-.85.4-1.19a2.17,2.17,0,0,1,.32-.62,1.3,1.3,0,0,1,1-.36,1.42,1.42,0,0,1,1.6,1.61q0,1.32-2.64,9.44c-.83,2.65-1.69,4-2.6,4A1.54,1.54,0,0,1,567.63,168.57Zm3.12-29.83c-1-.51-1.48-1.08-1.48-1.72a1.5,1.5,0,0,1,1.72-1.69,7.17,7.17,0,0,1,3,1c1.26.69,1.88,1.38,1.88,2.08,0,1.17-.54,1.76-1.64,1.76A19.56,19.56,0,0,1,570.75,138.74Zm15.17,30.63a1.44,1.44,0,0,1,1.61-1.65h1.4a1.23,1.23,0,0,0,1-.35,1.51,1.51,0,0,0,.32-1v-8.08h-4.13a3.49,3.49,0,0,1-2.56-.81,3.18,3.18,0,0,1-.72-2.48v-8.65a3.54,3.54,0,0,1,.8-2.56,3.19,3.19,0,0,1,2.48-.72h3.29l1-3.68h-8.21c-.85,0-1.35.34-1.48,1l-.12,3.76-.12,5.21c-.05,3.63-.15,6.16-.28,7.6a34.37,34.37,0,0,1-1.88,8.53c-.91,2.51-2,3.77-3.17,3.77s-1.68-.6-1.68-1.81a3,3,0,0,1,.64-1.56q2.89-4.15,3.25-13.21l.08-12.29q0-4.17,3.88-4.17H601.7c1.25,0,1.88.53,1.88,1.57s-.63,1.56-1.88,1.56h-8l-1.2,3.68h5.81a3.52,3.52,0,0,1,2.56.8,3.19,3.19,0,0,1,.72,2.48V155a3.56,3.56,0,0,1-.8,2.55,3.14,3.14,0,0,1-2.48.74h-5v8.8a4.33,4.33,0,0,1-.82,2.89,3.39,3.39,0,0,1-2.62,1h-2C586.58,171,585.92,170.43,585.92,169.37Zm-6.44-2c0-.37.53-1.16,1.6-2.36a19.29,19.29,0,0,0,2.68-4c.46-.91,1-1.36,1.6-1.36,1,0,1.49.47,1.49,1.4s-.79,2.39-2.37,4.6-2.76,3.41-3.48,3.41C580,169.05,579.48,168.5,579.48,167.4Zm19-20.5a1.09,1.09,0,0,0-1.2-1.2H587c-.75,0-1.15.4-1.21,1.2v2.37h12.7Zm0,7.53v-2.6h-12.7v2.6c0,.75.41,1.15,1.21,1.2h10.29Q598.37,155.63,598.46,154.43Zm-.12,11q-2.49-3.41-2.49-4.36c0-.91.54-1.36,1.61-1.36a2,2,0,0,1,1.72,1.28,15.08,15.08,0,0,0,3,3.84,5.29,5.29,0,0,1,1,1.18,2,2,0,0,1,.34,1c0,1.15-.55,1.73-1.64,1.73C601.17,168.73,600,167.63,598.34,165.44Z"/><path class="cls-1" d="M624.12,145.58a3.13,3.13,0,0,1-.88-2.12,3.17,3.17,0,0,1,.92-2.16,3,3,0,0,1,2.2-.88,2.84,2.84,0,0,1,2.09.88,3.15,3.15,0,0,1,.88,2.16,2.86,2.86,0,0,1-.92,2.16,2.9,2.9,0,0,1-2.13.88A2.86,2.86,0,0,1,624.12,145.58Zm0,18.3a3.21,3.21,0,0,1-.88-2.16,2.92,2.92,0,0,1,.92-2.12,3,3,0,0,1,2.2-.88,2.63,2.63,0,0,1,2.09.92,2.86,2.86,0,0,1,.88,2.08,2.94,2.94,0,0,1-.92,2.2,3.07,3.07,0,0,1-2.13.88A3.12,3.12,0,0,1,624.12,163.88Z"/><path class="cls-1" d="M652.65,166.54a1.67,1.67,0,0,1-.5-1.22,1.75,1.75,0,0,1,.5-1.24,1.61,1.61,0,0,1,1.22-.52h4.73V144a.45.45,0,0,0-.14-.38.4.4,0,0,0-.42.06l-3.49,1.68a2.24,2.24,0,0,1-.92.24,1.67,1.67,0,0,1-1.26-.5,1.71,1.71,0,0,1-.5-1.26,1.75,1.75,0,0,1,1.08-1.68l5.45-2.84a2,2,0,0,1,1.12-.28h.84a1.88,1.88,0,0,1,1.38.58,1.91,1.91,0,0,1,.58,1.38v22.58h3.92a1.78,1.78,0,0,1,1.76,1.76,1.61,1.61,0,0,1-.52,1.22,1.69,1.69,0,0,1-1.24.5H653.87A1.63,1.63,0,0,1,652.65,166.54Z"/><path class="cls-1" d="M676.43,163.6q-2.82-3.84-2.82-10.57t2.82-10.57a10.39,10.39,0,0,1,16.1,0q2.87,3.81,2.86,10.61t-2.86,10.61a10.37,10.37,0,0,1-16.1,0Zm13.36-2.46q1.88-2.87,1.88-8.11T689.79,145a6.31,6.31,0,0,0-10.57,0q-1.89,2.86-1.89,8.07t1.89,8.11a6.31,6.31,0,0,0,10.57,0Z"/><path class="cls-1" d="M713.11,166.7a1.77,1.77,0,0,1-.54-1.3V160H700.4a2.3,2.3,0,0,1-1.66-.68,2.21,2.21,0,0,1-.71-1.64v-.37a2.41,2.41,0,0,1,.48-1.48l12.58-16.05a2.66,2.66,0,0,1,2-1h.8a2.25,2.25,0,0,1,1.7.68,2.31,2.31,0,0,1,.66,1.68v15.49h3a1.71,1.71,0,0,1,1.69,1.69,1.57,1.57,0,0,1-.48,1.18,1.7,1.7,0,0,1-1.21.46h-3v5.4a1.75,1.75,0,0,1-.56,1.3,1.83,1.83,0,0,1-1.32.54A1.77,1.77,0,0,1,713.11,166.7Zm-.62-23c-.06-.08-.11-.12-.16-.12s-.19.08-.32.24l-9.53,12.25a.43.43,0,0,0-.16.28c0,.19.14.28.44.28h9.81V144A.54.54,0,0,0,712.49,143.74Z"/><path class="cls-1" d="M724.88,166.76a2,2,0,0,1-.42-1.4,2.08,2.08,0,0,1,1.36-1.88,91.9,91.9,0,0,0,10.89-6.41,3.36,3.36,0,0,1,1.4-.68c1,0,1.56.57,1.56,1.69,0,.61-.42,1.21-1.28,1.8q-10.8,7.32-12.21,7.33A1.69,1.69,0,0,1,724.88,166.76Zm10.67,2.41c0-1.15.71-1.72,2.12-1.72h1.56a1.62,1.62,0,0,0,1.23-.45,1.93,1.93,0,0,0,.46-1.28V144.58H726.78c-1.33,0-2-.53-2-1.6s.67-1.64,2-1.64h14.14v-4.93c0-1.33.56-2,1.68-2s1.64.67,1.64,2v4.93h14.37c1.34,0,2,.55,2,1.64s-.67,1.6-2,1.6H744.24v3.21a36.75,36.75,0,0,0,3.76,6.52c2.33-2.21,4.3-4.18,5.93-5.88a2.49,2.49,0,0,1,1.6-.92,1.59,1.59,0,0,1,1.8,1.8q0,1.6-7.69,7.12a29.19,29.19,0,0,0,8.93,6.93c1.6.83,2.41,1.62,2.41,2.36q0,1.92-1.77,1.92-.87,0-4-2a28.75,28.75,0,0,1-10.85-12.73h-.08v13.81q.32,4.53-4.2,4.21h-2.33C736.27,170.89,735.55,170.31,735.55,169.17Zm-4.44-16.58-.56-.6c-1-1.09-1.66-1.71-1.85-1.84a1.75,1.75,0,0,1-.76-1.36c0-1,.56-1.57,1.68-1.57a2.68,2.68,0,0,1,1.21.61,17.24,17.24,0,0,1,2,1.8c1.63,1.63,2.44,2.69,2.44,3.2,0,1.18-.56,1.76-1.68,1.76C733.2,154.59,732.36,153.93,731.11,152.59Zm20.26-14q-2.25-1.77-2.25-2.37c0-.9.55-1.36,1.65-1.36.5,0,1.49.55,3,1.65s2.12,1.84,2.12,2.4c0,1-.53,1.52-1.6,1.52C753.88,140.46,752.91,139.85,751.37,138.62Z"/><path class="cls-1" d="M774.23,169.41v-5.93c-3.69,1.63-6.1,2.44-7.25,2.44a1.4,1.4,0,0,1-1.56-1.6c0-.85.71-1.44,2.12-1.76l.12,0V138.9h-.92c-.91,0-1.36-.48-1.36-1.44s.45-1.49,1.36-1.49H778a1.28,1.28,0,0,1,1.44,1.45A1.29,1.29,0,0,1,778,138.9h-1v8.85h3.36q-.27-4.25-.56-6.13h-.52c-1,0-1.48-.45-1.48-1.36s.5-1.4,1.48-1.4H783v-2.77c0-1.09.52-1.64,1.56-1.64s1.56.55,1.56,1.64v2.77H790c.86,0,1.29.45,1.29,1.36s-.42,1.4-1.25,1.4h-.68l-.6,6.13H792l-.08-11.62c0-1.17.49-1.76,1.48-1.76s1.48.66,1.48,2l0,11.42h5.16c1.2,0,1.81.48,1.81,1.44s-.61,1.44-1.81,1.44h-5.12l0,1c.08,1.79.16,3.26.24,4.4a28.58,28.58,0,0,0,.4,3.25,23.47,23.47,0,0,0,2-5.29c.29-1.12.83-1.68,1.6-1.68.94,0,1.4.44,1.4,1.32a14.75,14.75,0,0,1-1.52,4.37,44.11,44.11,0,0,1-2.6,4.92q1.08,3.84,2,3.84c.59,0,.88-1.05.88-3.16q0-1.8,1.32-1.8c.86,0,1.29.61,1.29,1.84a12,12,0,0,1-1,5c-.61,1.33-1.38,2-2.32,2q-2.21,0-4.24-5a24.09,24.09,0,0,1-3.69,3.49c-1.41,1.09-2.44,1.64-3.08,1.64a1.22,1.22,0,0,1-1.36-1.4c0-.54.47-1.07,1.4-1.6a20.4,20.4,0,0,0,5.81-5,62.19,62.19,0,0,1-1.48-12.13H777v18.78c0,1-.45,1.56-1.36,1.56S774.23,170.45,774.23,169.41Zm0-25V138.9H770.3v5.52Zm0,8.17V147.3H770.3v5.29Zm0,8v-5.17H770.3v6.37Zm4.88,3.52v-8.89c0-1.84.9-2.76,2.69-2.76h5.64a2.44,2.44,0,0,1,2.76,2.76v8.53a3.11,3.11,0,0,1-.78,2.3,3.06,3.06,0,0,1-2.26.78h-5.28C780,166.88,779.11,166,779.11,164.16Zm8.37-8a1,1,0,0,0-1.08-1.08h-3.48a1,1,0,0,0-1.08,1.08v2.21h5.64Zm0,7.05V161h-5.64v2.28q0,1,1.08,1.08h3.48A1,1,0,0,0,787.48,163.24Zm-1.24-15.49.56-6.13h-4.48l.56,6v.16ZM797.93,144l-.56-1.24a10.37,10.37,0,0,1-.92-2.56c0-.83.45-1.24,1.36-1.24.59,0,1.2.68,1.84,2l1,2.12a3.27,3.27,0,0,1,.32,1.24c0,.94-.49,1.4-1.48,1.4C798.83,145.78,798.3,145.2,797.93,144Z"/><path class="cls-1" d="M810.42,157.71a39.58,39.58,0,0,1-1,6.81c-.34,1.79-.93,2.69-1.76,2.69a1.19,1.19,0,0,1-1.36-1.33,4,4,0,0,1,.36-1.44,21.47,21.47,0,0,0,1.12-6.81c0-1.06.47-1.6,1.32-1.6S810.42,156.59,810.42,157.71Zm8-8.72a16.37,16.37,0,0,1,1.72,5q0,1.2-1.32,1.2c-.53,0-1-.62-1.48-1.88l-2.16.28-.12,0v15.62c0,1.09-.48,1.64-1.44,1.64s-1.44-.55-1.44-1.64V154l-4.33.44a1.14,1.14,0,0,1-1.06-.34,1.71,1.71,0,0,1-.38-1.18,1.36,1.36,0,0,1,1.24-1.4l1.84-.12,2.53-3.84-.49-.48a31.72,31.72,0,0,0-3.72-3.25c-.75-.56-1.12-1.08-1.12-1.56,0-.93.43-1.4,1.28-1.4a2.67,2.67,0,0,1,1.4.64,35.41,35.41,0,0,0,2.45-5.08c.5-1.39,1.13-2.09,1.88-2.09,1.14,0,1.72.47,1.72,1.4a6.63,6.63,0,0,1-1,2.51c-.64,1.18-1.66,2.82-3,4.9l2.13,1.92,2.68-4.8a2.29,2.29,0,0,1,.68-.76,1.37,1.37,0,0,1,.8-.28c1.09,0,1.64.46,1.64,1.4q0,.76-5.08,8.25l-1.56,2.2-.28.28,4.16-.24-.36-1a3.76,3.76,0,0,1-.28-1c0-.7.4-1,1.2-1A1.34,1.34,0,0,1,818.39,149Zm1.44,15.85a1.17,1.17,0,0,1-.28,1,1.47,1.47,0,0,1-1.08.36,1.14,1.14,0,0,1-1.12-.64l-1.16-8.4c-.08-.7.31-1,1.16-1a1.23,1.23,0,0,1,1,.44,5.44,5.44,0,0,1,.38,1.27c.18.73.37,1.67.58,2.82Zm21.86-25.1V167c0,2.43-1.14,3.65-3.44,3.65h-2.56c-1.2,0-1.8-.51-1.8-1.52s.57-1.49,1.72-1.49h1.8a1.25,1.25,0,0,0,1.36-1.36V140.42a1.43,1.43,0,0,0-.38-1.06,1.41,1.41,0,0,0-1.06-.38H825.2a1.41,1.41,0,0,0-1,.36,1.35,1.35,0,0,0-.38,1v28.79c0,1.06-.48,1.6-1.44,1.6s-1.41-.54-1.41-1.6V139.74q-.32-3.88,3.61-3.57h13.53Q841.9,135.86,841.69,139.74Zm-4.88,25a2.5,2.5,0,0,1-1.48.44l-3.33,0c-2.16,0-3.6-.18-4.32-.64a2.57,2.57,0,0,1-1.08-2.2v-6.21h-.88a1.25,1.25,0,0,1-1.44-1.4c0-.9.48-1.36,1.44-1.36h4.2v-2.08a1.22,1.22,0,0,1,1.4-1.36,1.21,1.21,0,0,1,1.37,1.36v2.08h3.88c1,0,1.52.47,1.52,1.4s-.51,1.36-1.52,1.36H829.4v4.69a1.45,1.45,0,0,0,.38,1.06,1.46,1.46,0,0,0,1.06.38l3,0,2-.08c1-.05,1.56.41,1.56,1.4A1.27,1.27,0,0,1,836.81,164.72Zm-11-18.18H832l1.61-5.6a1.47,1.47,0,0,1,1.48-1.24c1,0,1.48.4,1.48,1.2s-.65,2.6-2,5.64h1.92c1.07,0,1.6.47,1.6,1.41s-.53,1.36-1.6,1.36H825.72a1.24,1.24,0,0,1-1.4-1.4C824.32,147,824.81,146.54,825.8,146.54Zm1.12-1.88a16.08,16.08,0,0,1-1-3.24c0-.85.49-1.28,1.48-1.28q.84,0,1.68,1.8a6.94,6.94,0,0,1,.8,2.72c0,.86-.53,1.28-1.6,1.28C827.68,145.94,827.24,145.52,826.92,144.66Z"/><path class="cls-1" d="M847.6,172.75a1.51,1.51,0,0,1-.5-1.14,2.45,2.45,0,0,1,.24-.92,33.35,33.35,0,0,0,3.46-7.75,28.37,28.37,0,0,0,0-16.46,33.28,33.28,0,0,0-3.46-7.74,2.5,2.5,0,0,1-.24-.92,1.51,1.51,0,0,1,.5-1.15,1.65,1.65,0,0,1,1.14-.46,1.37,1.37,0,0,1,.74.17,2.67,2.67,0,0,1,.62.56,23.09,23.09,0,0,1,4.19,7.88,34.23,34.23,0,0,1,0,19.78,23.23,23.23,0,0,1-4.19,7.89,2.92,2.92,0,0,1-.62.56,1.38,1.38,0,0,1-.74.16A1.61,1.61,0,0,1,847.6,172.75Z"/><rect class="cls-2" width="1000" height="200"/></svg>