<svg id="圖層_1" data-name="圖層 1" xmlns="http://www.w3.org/2000/svg" viewBox="0 0 1000 200"><defs><style>.cls-1{fill:#3b5875;}.cls-2{fill:none;}</style></defs><path class="cls-1" d="M177.35,92.68a4.22,4.22,0,0,1-1.25-3.19,13.64,13.64,0,0,1,2.58-8,28.82,28.82,0,0,1,5.64-6.11,115.91,115.91,0,0,1,10-6.93q4.82-3.06,8.05-5.47,7-5.24,7-10.46c0-3.32-1.1-5.86-3.28-7.6s-5.44-2.61-9.76-2.61a34.56,34.56,0,0,0-14.19,3,4.36,4.36,0,0,1-1.58.42,3.14,3.14,0,0,1-2.28-.95,3.21,3.21,0,0,1-.95-2.37,3.41,3.41,0,0,1,1.9-3.15A40.56,40.56,0,0,1,197.6,35,21.7,21.7,0,0,1,207.31,37a16.72,16.72,0,0,1,7,6,16,16,0,0,1,2.49,8.85A15.66,15.66,0,0,1,214,61a33.87,33.87,0,0,1-6.36,7,116.72,116.72,0,0,1-10.91,7.72q-6.31,4.32-9,6.51a13.38,13.38,0,0,0-3.77,4.45h28.72a3.67,3.67,0,0,1,3.65,3.65,3.38,3.38,0,0,1-1.08,2.53,3.6,3.6,0,0,1-2.57,1h-32A4.44,4.44,0,0,1,177.35,92.68Z"/><path class="cls-1" d="M232.26,86.75q-5.85-8-5.85-21.92t5.85-21.91q5.85-8,16.72-8,10.71,0,16.65,7.89t5.93,22q0,14.11-5.93,22T249,94.72Q238.11,94.72,232.26,86.75Zm27.68-5.11q3.9-5.92,3.9-16.81t-3.9-16.72a13.07,13.07,0,0,0-21.91,0q-3.9,5.94-3.9,16.72T238,81.64a13.07,13.07,0,0,0,21.91,0Z"/><path class="cls-1" d="M281.61,92.68a4.22,4.22,0,0,1-1.25-3.19,13.7,13.7,0,0,1,2.57-8,28.87,28.87,0,0,1,5.65-6.11,115.91,115.91,0,0,1,10-6.93q4.81-3.06,8-5.47,7-5.24,7-10.46c0-3.32-1.09-5.86-3.27-7.6s-5.44-2.61-9.76-2.61a34.56,34.56,0,0,0-14.19,3,4.41,4.41,0,0,1-1.58.42,3.13,3.13,0,0,1-2.28-.95,3.22,3.22,0,0,1-1-2.37,3.42,3.42,0,0,1,1.91-3.15A40.56,40.56,0,0,1,301.86,35,21.7,21.7,0,0,1,311.57,37a16.69,16.69,0,0,1,7,6,15.9,15.9,0,0,1,2.5,8.85A15.67,15.67,0,0,1,318.21,61a33.82,33.82,0,0,1-6.35,7A116.72,116.72,0,0,1,301,75.71q-6.31,4.32-9,6.51a13.55,13.55,0,0,0-3.78,4.45h28.72a3.67,3.67,0,0,1,3.66,3.65,3.38,3.38,0,0,1-1.08,2.53,3.6,3.6,0,0,1-2.58,1h-32A4.43,4.43,0,0,1,281.61,92.68Z"/><path class="cls-1" d="M339.34,92.85a3.46,3.46,0,0,1-1-2.53,3.6,3.6,0,0,1,1-2.58,3.39,3.39,0,0,1,2.53-1.07h9.8V46.07a.88.88,0,0,0-.3-.78q-.28-.21-.87.12l-7.22,3.49a4.72,4.72,0,0,1-1.91.5,3.56,3.56,0,0,1-3.65-3.66A3.63,3.63,0,0,1,340,42.26l11.29-5.9a4.31,4.31,0,0,1,2.32-.58h1.75a4.12,4.12,0,0,1,4.06,4.07V86.67h8.14a3.67,3.67,0,0,1,3.65,3.65,3.38,3.38,0,0,1-1.08,2.53,3.58,3.58,0,0,1-2.57,1H341.87A3.44,3.44,0,0,1,339.34,92.85Z"/><path class="cls-1" d="M469.29,97a54.88,54.88,0,0,1-8.22-10.46,64.41,64.41,0,0,1-13.7,10.29Q440.07,101,436.83,101c-2.16,0-3.24-1.17-3.24-3.49a2.87,2.87,0,0,1,.83-2.24,45.18,45.18,0,0,1,5.9-2.49q9.38-3.41,17.51-12.37-6.3-13.2-7.88-33.78H424.3c-1.33,0-2.19.36-2.58,1.07s-.49,4.07-.49,10.21h16.51q6.81,0,6.81,7.14,0,15.69-2.07,19.43-2.75,4.81-13,4.81-3.4,0-3.41-3.57,0-3.41,3.41-3.4h3.07c3,0,4.67-1.5,5.06-4.48a74.28,74.28,0,0,0,.67-10.79,2.61,2.61,0,0,0-.79-2,3.19,3.19,0,0,0-2.2-.7H421.23q0,15.93-2.16,25.06a31.73,31.73,0,0,1-3,8.39q-1.66,2.82-3.65,2.82-3.49,0-3.49-3.82,0-1.16,1.83-4.89t2.82-11.13a129,129,0,0,0,.91-17.26l-.16-16q-.18-7.64,7.47-7.64h27.8l-.16-10q0-3.57,3.4-3.57c2.33,0,3.49,1.32,3.49,4v9.63h23.32q4.15,0,4.15,3.4t-4.15,3.41H456.75q1.08,16.26,5.56,27.89l.83-1a57.81,57.81,0,0,0,7.14-14.36q1.41-4.32,4-4.32,3.32,0,3.32,2.91,0,1.83-3.74,9.54a102.13,102.13,0,0,1-8.13,14,51.36,51.36,0,0,0,4.9,7q3.15,3.9,4.64,3.9,2,0,2.41-5.56c.28-3.48,1.36-5.23,3.24-5.23q3.57,0,3.57,3.57a28.67,28.67,0,0,1-2.24,10.88q-2.16,5.31-5.32,5.31C474.6,101.11,472.05,99.73,469.29,97Zm-4.15-65a4.57,4.57,0,0,1-.92-1.74q0-3.07,3.66-3.07c.94,0,2.4,1.08,4.4,3.24a13.08,13.08,0,0,1,1.9,2.49,4,4,0,0,1,.67,1.74q0,3.15-3.74,3.15C469.79,37.77,467.79,35.84,465.14,32Z"/><path class="cls-1" d="M494.19,97.21a2.88,2.88,0,0,1,1-2.08,13.31,13.31,0,0,1,3.19-2.07q24.82-12,27.81-39.18H499.17a5.12,5.12,0,0,1-3.2-.83,3.11,3.11,0,0,1-1-2.58,3,3,0,0,1,1-2.53,5.34,5.34,0,0,1,3.2-.79H527q.4-3.74.41-16.43c0-2.82,1.14-4.24,3.41-4.24a3.27,3.27,0,0,1,2.74,1.17,4.88,4.88,0,0,1,.91,3.07q0,5-.42,16.43h30.14q4.23,0,4.23,3.32t-4.23,3.41H535A56.89,56.89,0,0,0,546,76a64,64,0,0,0,20.17,16.52c2,1.1,3.07,2.46,3.07,4.06q0,4.06-3.74,4.07a8.8,8.8,0,0,1-3.36-1.41q-2.45-1.41-7.26-4.73a61.87,61.87,0,0,1-23.16-31.13q-5.9,22-24.9,33.7-6.31,3.9-9.05,3.9Q494.19,100.94,494.19,97.21Z"/><path class="cls-1" d="M579.36,56.53c0-1.05,1.43-2.68,4.31-4.89q5.4-4.16,7.72-6.23a4.56,4.56,0,0,1,3.07-1.49q3.24,0,3.24,3,0,1.83-6.64,7.48t-8.55,5.72Q579.36,60.1,579.36,56.53Zm.08,42c0-1.11.3-1.83.91-2.16a14.4,14.4,0,0,1,3.07-.5l3.24-.33A98.61,98.61,0,0,0,599,93.39l7.3-1.49q3.17,0,3.16,3.07c0,1.43-1.28,2.46-3.82,3.07q-15.2,3.81-23.49,3.82Q579.44,101.86,579.44,98.54ZM589.82,35l-3.32-2c-1.55-.88-2.33-1.85-2.33-2.9q0-3.08,3.24-3.07,1,0,6.06,2.74t5.14,4.64a3.61,3.61,0,0,1-.83,2.66,3.51,3.51,0,0,1-2.57.83Q594.22,37.94,589.82,35Zm-2.41,48.48V65.58q-.58-8.38,7.72-7.72h43.16q8.31-.66,7.72,7.72V83.51q.59,8.31-7.72,7.72H595.13Q586.82,91.82,587.41,83.51Zm51.88-17.93c0-1.88-.91-2.82-2.74-2.82H596.87a2.49,2.49,0,0,0-2.82,2.82v1.83h45.24Zm0,11.29V72.06H594.05v4.81Zm0,6.64v-2H594.05v2a2.49,2.49,0,0,0,2.82,2.82h39.68C638.38,86.33,639.29,85.39,639.29,83.51ZM623.77,45.66h-.17q-3.32,5.07-10.54,8.22t-12.62,3.23a2.85,2.85,0,0,1-2.16-.7,3,3,0,0,1-.66-2.12,2.62,2.62,0,0,1,2.65-2.82q9.13-1.41,14.32-4.86a13,13,0,0,0,6.1-8.92H610l-.83.91c-3,3.32-5.21,5-6.64,5-1.94,0-2.91-1-2.91-3,0-.83.64-1.8,1.91-2.91l1.66-1.41a23.33,23.33,0,0,0,2.07-2q3.07-3.57,4.32-5.07,2.49-3,4.07-3c2.21,0,3.32.77,3.32,2.32q0,1.25-2.41,4h30.88c3.76,0,5.65,1.25,5.65,3.74,0,1-1.75,3.27-5.23,6.64a35.22,35.22,0,0,1-4.11,3.61,5.66,5.66,0,0,1-2.53,1.29,3.11,3.11,0,0,1-2.21-.67,2.84,2.84,0,0,1-.7-2.15q0-1.17,1.74-2.49,4-3.24,4-4.07a.69.69,0,0,0-.25-.54.88.88,0,0,0-.58-.21H626.75l-.58,2.49q7.14,9.8,24.74,12.2c2,.22,3,1.22,3,3,0,2.22-1.08,3.32-3.24,3.32l-1.83-.25Q630.32,55.2,623.77,45.66Zm6.55,53a17.11,17.11,0,0,1-4.48-1.7c-1.05-.64-1.58-1.29-1.58-2q0-3,3.32-3l1.58.33a122.53,122.53,0,0,0,20.17,3.41,9.54,9.54,0,0,1,3.65.91,2.15,2.15,0,0,1,1.17,2c0,2.1-1,3.16-3.07,3.16A82.52,82.52,0,0,1,630.32,98.7Z"/><path class="cls-1" d="M693.82,43.92c0,2-1.21,3-3.65,3H667.34c-2.38,0-3.56-1-3.56-3s1.18-3,3.56-3h22.83C692.61,40.93,693.82,41.92,693.82,43.92ZM666.51,32.71c0-2,1.17-3,3.49-3h17.52q3.65,0,3.65,3t-3.65,3H670C667.68,35.7,666.51,34.7,666.51,32.71ZM690.75,55q0,2.82-3.48,2.82h-17.1q-3.4,0-3.41-2.91t3.41-2.82h17.1Q690.75,52.05,690.75,55Zm0,11q0,2.82-3.48,2.82H670.33q-3.57,0-3.57-2.82t3.41-2.91h17.1Q690.75,63.09,690.75,66Zm0,14.61V93.47q0,6.65-6.8,6.64h-10.3a7,7,0,0,1-5.06-1.66,6.33,6.33,0,0,1-1.74-4.81v-13q0-6.57,6.8-6.56H684Q690.75,74.05,690.75,80.61Zm-6,1.08a1.91,1.91,0,0,0-2.16-2.16H675a2,2,0,0,0-2.16,2.16v10.7c0,1.5.72,2.24,2.16,2.24h7.64c1.38,0,2.1-.74,2.16-2.24Zm54.86,1.16a52.86,52.86,0,0,1,0,6.06q-.66,6.63-2.4,9.17a5.32,5.32,0,0,1-4.57,2.53,4.79,4.79,0,0,1-3.61-2,14.77,14.77,0,0,1-2.7-5.89q-2.49-9.39-2.57-23.83l-.25-25.81.08-3.07a3.18,3.18,0,0,0-1-2.79,4.21,4.21,0,0,0-3.07-.7h-8.64V57.94H716q3.48,0,3.48,3.08a2.75,2.75,0,0,1-.91,2.2A3.85,3.85,0,0,1,716,64h-5.07V97.54q0,3.73-3.15,3.74a3,3,0,0,1-2.41-1,4.14,4.14,0,0,1-.83-2.78V64H698.8c-2.38,0-3.56-1-3.56-3.07s1.18-3,3.56-3h5.73V36.53h-7.8q-3.9,0-3.9-3.07t3.9-3.07h25.32q8.13,0,8.13,6.72l-.08,1.66.16,33.95a97.69,97.69,0,0,0,.88,14c.52,3.18,1.23,4.77,2.11,4.77.45,0,.72-.75.83-2.24s.2-4.21.25-8.14c0-1.82.89-2.74,2.66-2.74s2.52,1,2.57,2.83A12.46,12.46,0,0,0,739.64,82.85Z"/><path class="cls-1" d="M821.74,54.5c1.27,1.25,1.83,3.2,1.66,5.85v6.31c0,2.32-1.11,3.49-3.32,3.49s-3.32-1.17-3.32-3.49V61.27c0-2-1-3.05-3.07-3.16H760.81q-3.07,0-3.24,3.16v5.39c0,2.32-1.07,3.49-3.23,3.49S751,69,751,66.66V60.35c0-2.76.6-4.78,1.82-6.06s3.18-1.82,5.9-1.66h56.94Q819.84,52.63,821.74,54.5Zm-68.69-3.57a3,3,0,0,1-.79-2.2c0-1.33,1-2.24,2.91-2.74,3.7-.88,6.42-2.35,8.13-4.4s2.41-5.84,2.41-11.7q0-3.74,3.15-3.74T772,29.56q0,8.13-1.91,12.45a3.44,3.44,0,0,1,1.58-.5q1.9,0,7.13,2.66,5.32,2.82,5.32,4.31c0,1.77-1.06,2.66-3.16,2.66-.83,0-2.27-.67-4.31-2a17.64,17.64,0,0,0-2.49-1.54,5.6,5.6,0,0,1-.92-.46c-1.55-.83-2.63-1.45-3.23-1.86A2.49,2.49,0,0,1,769,44.08a19.23,19.23,0,0,1-6.06,5.23,15.32,15.32,0,0,1-7.56,2.41A3.08,3.08,0,0,1,753.05,50.93Zm-.62-11.58a6.73,6.73,0,0,1,1.24-2.82l2-4a8.32,8.32,0,0,1,1.41-2.07,2.14,2.14,0,0,1,1.57-.66c1.77,0,2.66.8,2.66,2.4,0,1.28-.69,3.1-2.08,5.48-1.55,2.71-2.87,4.07-4,4.07C753.37,41.76,752.43,41,752.43,39.35Zm65.82,49.89v4.23q0,6.72-6.8,6.31H763a7.39,7.39,0,0,1-5.06-1.49,6,6,0,0,1-1.66-4.65v-4.4q0-6.72,6.72-6.31h16.77l.91-4.81H768.28a7.23,7.23,0,0,1-5-1.5c-1.11-1-1.66-2.6-1.66-4.81V68.32q0-6.72,6.64-6.31H806a7.35,7.35,0,0,1,5.06,1.5c1.11,1,1.66,2.6,1.66,4.81v3.49q0,6.63-6.72,6.31H787.71l-1.66,4.81h25.4Q818.25,82.93,818.25,89.24Zm-7,1a2.33,2.33,0,0,0-.54-1.7,2.63,2.63,0,0,0-1.7-.62h-43.5a2,2,0,0,0-2.24,2.32v2.16a2.2,2.2,0,0,0,.54,1.62,2.56,2.56,0,0,0,1.7.62H809a2,2,0,0,0,2.24-2.24Zm-7.56-17.09c1.5,0,2.24-.72,2.24-2.16V69.15c0-1.38-.74-2.1-2.24-2.16h-33a2.08,2.08,0,0,0-2.33,2.16V71c0,1.38.78,2.1,2.33,2.16Zm-28.3-35.53a3.67,3.67,0,0,1,.58-1.45c.39-.7.86-1.51,1.41-2.45q2.32-3.83,3.9-3.82c1.83,0,2.74.8,2.74,2.41q0,1.25-2.16,4.64c-1.38,2.16-2.63,3.24-3.73,3.24C776.25,40.18,775.34,39.32,775.34,37.61ZM786.46,49q0-2.16,2.82-2.82,6.81-1.74,9.72-5.31,2.07-2.58,2.07-8.14V29.14q0-3,3.15-3t3.16,3.32q0,8.55-1.91,12.12a9.9,9.9,0,0,1,1.41-.08q2.58,0,8,2.74c3.93,1.94,5.9,3.48,5.9,4.65,0,1.93-.89,2.9-2.66,2.9q-.66,0-4.73-2.07l-7.06-3.49q-2.16-1-2.49-2.16a21.79,21.79,0,0,1-2.9,3,20.21,20.21,0,0,1-3.82,2.41,17.57,17.57,0,0,1-7.8,2.41A2.57,2.57,0,0,1,786.46,49Zm.5-9.13A6,6,0,0,1,788.12,37a29.3,29.3,0,0,0,1.91-3.9c.94-2.22,2.08-3.32,3.4-3.32,1.77,0,2.66.77,2.66,2.32q0,1.57-2.24,5.81-2.25,4.39-4.15,4.4C787.87,42.34,787,41.51,787,39.85Zm24.82-1.41q0-.75,2.57-4.57,3-4.65,4.73-4.65c1.94,0,2.91.89,2.91,2.66q0,1.57-2.74,5.31T814.52,41C812.69,41,811.78,40.15,811.78,38.44Z"/><path class="cls-1" d="M372.78,173.05a2.92,2.92,0,0,1-.62-.56A23.23,23.23,0,0,1,368,164.6a34.23,34.23,0,0,1,0-19.78,23.09,23.09,0,0,1,4.19-7.88,2.67,2.67,0,0,1,.62-.56,1.37,1.37,0,0,1,.74-.17,1.69,1.69,0,0,1,1.14.46,1.51,1.51,0,0,1,.5,1.15,2.5,2.5,0,0,1-.24.92,33.32,33.32,0,0,0-3.47,7.74,28.37,28.37,0,0,0,0,16.46,33.39,33.39,0,0,0,3.47,7.75,2.45,2.45,0,0,1,.24.92,1.51,1.51,0,0,1-.5,1.14,1.65,1.65,0,0,1-1.14.46A1.38,1.38,0,0,1,372.78,173.05Z"/><path class="cls-1" d="M396.66,150.27a3.83,3.83,0,0,1-.16,1.16,18.63,18.63,0,0,1-1,2.82,33.64,33.64,0,0,1-1.54,3.06,1.37,1.37,0,0,1-1.16.81,1.71,1.71,0,0,1-.73-.2,1.14,1.14,0,0,1-.68-1,1.93,1.93,0,0,1,.2-.85c.67-1.41,1.23-2.76,1.69-4a1.4,1.4,0,0,0,.08-.36c0-.27-.2-.4-.6-.4h-3.49v15.33a4.27,4.27,0,0,1-.88,3,3.64,3.64,0,0,1-2.8,1h-2.84a1.73,1.73,0,0,1-1.15-.4,1.49,1.49,0,0,1-.46-1.16,1.43,1.43,0,0,1,1.61-1.61h2.48a.88.88,0,0,0,1-1V151.23h-5a2,2,0,0,1-1.34-.36,1.6,1.6,0,0,1,0-2.16,2,2,0,0,1,1.34-.36h7q-1.12-1-3.64-3L382.93,144a1.46,1.46,0,0,1-.64-1.12,1.29,1.29,0,0,1,.24-.72,1.16,1.16,0,0,1,1-.56,1.71,1.71,0,0,1,.72.2,39,39,0,0,1,3.36,2.24,23.59,23.59,0,0,0,3.48-4.24.71.71,0,0,0,.12-.32.36.36,0,0,0-.16-.32.7.7,0,0,0-.44-.12h-8.89c-1.17,0-1.76-.48-1.76-1.44s.59-1.45,1.76-1.45H392.5a3.11,3.11,0,0,1,1.86.52,1.69,1.69,0,0,1,.7,1.41,3.18,3.18,0,0,1-.44,1.48,19.89,19.89,0,0,1-2.31,3.22,24.56,24.56,0,0,1-2.7,2.7l.88.76a1.31,1.31,0,0,1,.48,1.05,1.74,1.74,0,0,1-.4,1.08h3.69Q396.66,148.35,396.66,150.27Zm7.29,15c0,.7-.72,1.52-2.17,2.48a30.65,30.65,0,0,1-3.72,2.25,6,6,0,0,1-2.48.72q-1.44,0-1.44-1.68a1.13,1.13,0,0,1,.44-.87,4.74,4.74,0,0,1,1.36-.74,19.39,19.39,0,0,0,3.72-2,26.25,26.25,0,0,1,2.2-1.44,1.42,1.42,0,0,1,.56-.16Q404,163.88,404,165.32Zm-7.53-27.7c0-.94.49-1.41,1.48-1.41h15.7q1.56,0,1.56,1.41t-1.56,1.44h-6.41l-.84,3.68h4.44a3,3,0,0,1,2.23.78,3,3,0,0,1,.78,2.22v14.5a3,3,0,0,1-.78,2.22,3,3,0,0,1-2.23.78H400.42a2.72,2.72,0,0,1-3-3v-14.5a2.72,2.72,0,0,1,3-3h2.93l.64-3.68H397.9A1.29,1.29,0,0,1,396.42,137.62Zm5.2,7.76a1.24,1.24,0,0,0-.92.34,1.29,1.29,0,0,0-.32.9v2h10.45v-1.93a1.13,1.13,0,0,0-1.28-1.28Zm9.21,9v-3.16H400.38v3.16Zm0,2.65H400.38v2.32a1.1,1.1,0,0,0,1.24,1.24h7.93a1.13,1.13,0,0,0,1.28-1.28Zm4.45,11a1.48,1.48,0,0,1,.48,1,1.66,1.66,0,0,1-.4,1.22,1.77,1.77,0,0,1-1.24.38c-.62,0-1.94-.74-4-2.2s-3-2.54-3-3.21q0-1.44,1.56-1.44a2,2,0,0,1,1.28.64,17.19,17.19,0,0,0,4,2.72A4.59,4.59,0,0,1,415.28,168.06Z"/><path class="cls-1" d="M421.8,144.5c-1.12,0-1.68-.5-1.68-1.52s.56-1.56,1.68-1.56h12.74q1.68,0,1.68,1.56c0,1-.56,1.52-1.68,1.52Zm-.16-7q0-1.53,1.65-1.53H433a1.84,1.84,0,0,1,1.25.4,1.52,1.52,0,0,1,.44,1.17c0,1-.56,1.52-1.69,1.52h-9.68Q421.64,139,421.64,137.46Zm12.78,23.18v5.84c0,2.14-1.09,3.21-3.25,3.21h-6.24q-3.26,0-3.25-3.21v-5.84c0-2.14,1.08-3.2,3.25-3.2h6.24C433.33,157.44,434.42,158.5,434.42,160.64Zm-1.61-13.77c1.1,0,1.65.49,1.65,1.48s-.55,1.48-1.65,1.48h-9.44c-1.07,0-1.61-.5-1.61-1.48s.54-1.48,1.61-1.48Zm1.77,6.72c0,1-.55,1.48-1.65,1.48h-9.56c-1.07,0-1.61-.49-1.61-1.48s.54-1.48,1.61-1.48h9.56C434,152.11,434.58,152.6,434.58,153.59Zm-3.25,7.81a1.11,1.11,0,0,0-.24-.8,1.09,1.09,0,0,0-.8-.24h-4.48a1,1,0,0,0-.76.24,1.21,1.21,0,0,0-.28.8v4.32a1.09,1.09,0,0,0,.24.8,1.19,1.19,0,0,0,.8.28h4.48a1,1,0,0,0,.76-.26,1.27,1.27,0,0,0,.28-.82Zm25.27-12.57c0,1-.58,1.48-1.72,1.48h-7.09v18.54a2.61,2.61,0,0,1-.4,1.62,1.61,1.61,0,0,1-1.32.5,1.59,1.59,0,0,1-1.32-.5,2.61,2.61,0,0,1-.4-1.62V150.31h-6.77c-1.18,0-1.76-.51-1.76-1.52s.58-1.52,1.76-1.52h6.77v-10.7a2.53,2.53,0,0,1,.42-1.6,1.59,1.59,0,0,1,1.3-.52,1.61,1.61,0,0,1,1.32.5,2.61,2.61,0,0,1,.4,1.62v10.7h7.09C456,147.27,456.6,147.79,456.6,148.83Z"/><path class="cls-1" d="M476.26,150v13.77a2.14,2.14,0,0,0,.44,1.32c.37.46,1.29.68,2.76.68.93,0,1.64,0,2.12,0l2.12,0c4.49,0,7-.25,7.49-.76s.79-1.79,1-4a2,2,0,0,1,.5-1.28,1.75,1.75,0,0,1,1.26-.4q1.89,0,1.89,1.8,0,6.33-2.65,7.17-2.81.87-11.45.88-5.76,0-7.32-.84a2.74,2.74,0,0,1-1.25-1.33,5.51,5.51,0,0,1-.4-2.24V150.31l-9.21,1.16a1.68,1.68,0,0,1-.44,0,1.5,1.5,0,0,1-1.18-.44,1.72,1.72,0,0,1-.38-1.16,1.54,1.54,0,0,1,.48-1.22,3.22,3.22,0,0,1,1.52-.62l9.21-1.17V137a2.78,2.78,0,0,1,.42-1.7,1.56,1.56,0,0,1,1.31-.54,1.6,1.6,0,0,1,1.34.54,2.78,2.78,0,0,1,.42,1.7v9.49l19.18-2.36a1.8,1.8,0,0,1,1.44.32,1.57,1.57,0,0,1,.52,1.24c0,1.05-.68,1.64-2,1.8Z"/><path class="cls-1" d="M533.35,140v26a4.94,4.94,0,0,1-1.16,3.53,4.65,4.65,0,0,1-3.56,1.16H524.5a2.38,2.38,0,0,1-1.54-.42,1.67,1.67,0,0,1-.5-1.34c0-1.21.68-1.81,2-1.81H528a1.73,1.73,0,0,0,2-2v-7.24H511.37a26.37,26.37,0,0,1-1.24,5.2,20.41,20.41,0,0,1-2,4q-2.32,3.57-3.73,3.57a2.07,2.07,0,0,1-1.4-.42,1.54,1.54,0,0,1-.48-1.22,2.32,2.32,0,0,1,.34-1.17,10.71,10.71,0,0,1,.94-1.26c.41-.46.68-.79.84-1a14.58,14.58,0,0,0,3.13-6.64c0-.16.12-.56.28-1.21a28.21,28.21,0,0,0,.5-3.84c.09-1.39.15-4.48.18-9.29,0-.74,0-1.3,0-1.68a25.41,25.41,0,0,0,0-2.76q-.24-4.72,4.2-4.49h16.18a4.22,4.22,0,0,1,3.12,1.08A4.17,4.17,0,0,1,533.35,140ZM530,154.55v-6.24H512.09q0,3.31-.28,6.24Zm-17.34-14.93a2,2,0,0,0-.52,1.48v3.84H530v-3.56a2.38,2.38,0,0,0-.56-1.68,2.14,2.14,0,0,0-1.64-.6H514.09A2,2,0,0,0,512.61,139.62Z"/><path class="cls-1" d="M578.16,146v8.93a4.87,4.87,0,0,1-1,3.45,4.08,4.08,0,0,1-3.33.92H563.26V169c0,1.3-.59,2-1.76,2s-1.76-.66-1.76-2v-9.69H549.61c-3.07.18-4.53-1.27-4.36-4.37V146a4.91,4.91,0,0,1,1-3.48,4,4,0,0,1,3.34-.92h10.13v-5.25c0-1.33.59-2,1.76-2s1.76.67,1.76,2v5.25h10.53Q578.4,141.29,578.16,146Zm-18.42,10.09V144.78H551a2.66,2.66,0,0,0-1.82.46,2.71,2.71,0,0,0-.46,1.87v6.68a1.83,1.83,0,0,0,2.28,2.28Zm14.89-9a2.71,2.71,0,0,0-.46-1.87,2.64,2.64,0,0,0-1.82-.46h-9.09v11.29h9.09a1.83,1.83,0,0,0,2.28-2.28Z"/><path class="cls-1" d="M606.83,168.57c0-1.2.65-1.81,2-1.81l.84,0a6.4,6.4,0,0,0,3.22-.54,2.53,2.53,0,0,0,1.46-1.82A81.93,81.93,0,0,0,615.47,152q0-.88.16-5.89c0-.29,0-.68,0-1.16l0-1a1.64,1.64,0,0,0-1.88-1.88H592.21l-.08,0a47.41,47.41,0,0,1-3.48,4.89c-1.31,1.54-2.24,2.32-2.81,2.32-1,0-1.52-.58-1.52-1.73a2.81,2.81,0,0,1,1-1.8,32.06,32.06,0,0,0,6-9.36c.56-1.31,1.25-2,2.08-2,1.1,0,1.64.47,1.64,1.4a6.6,6.6,0,0,1-.84,2.33l-.32.68h21.58q3.89,0,3.89,3.6l0,1v1q0,6.5-.6,14.38a49,49,0,0,1-.92,7.4q-1.2,4.25-8.65,4.25C607.57,170.45,606.83,169.82,606.83,168.57Zm-16.42-4.27a3.37,3.37,0,0,1-.76-2.74V149.67a4.12,4.12,0,0,1,.84-2.87,3.28,3.28,0,0,1,2.72-.78h11.61a4,4,0,0,1,2.85.86,3.5,3.5,0,0,1,.76,2.79v11.89a4,4,0,0,1-.86,2.84,3.39,3.39,0,0,1-2.75.76H593.21A3.86,3.86,0,0,1,590.41,164.3Zm14.69-13.91c0-.8-.44-1.23-1.32-1.28h-9.53a1.19,1.19,0,0,0-1.32,1.28v3.68H605.1Zm0,10.37V157H592.93v3.72c0,.8.44,1.23,1.32,1.28h9.53A1.19,1.19,0,0,0,605.1,160.76Z"/><path class="cls-1" d="M625.38,172.75a1.51,1.51,0,0,1-.5-1.14,2.45,2.45,0,0,1,.24-.92,33.39,33.39,0,0,0,3.47-7.75,28.37,28.37,0,0,0,0-16.46,33.32,33.32,0,0,0-3.47-7.74,2.5,2.5,0,0,1-.24-.92,1.51,1.51,0,0,1,.5-1.15,1.69,1.69,0,0,1,1.14-.46,1.37,1.37,0,0,1,.74.17,2.68,2.68,0,0,1,.63.56,23.25,23.25,0,0,1,4.18,7.88,34.23,34.23,0,0,1,0,19.78,23.39,23.39,0,0,1-4.18,7.89,2.93,2.93,0,0,1-.63.56,1.38,1.38,0,0,1-.74.16A1.65,1.65,0,0,1,625.38,172.75Z"/><rect class="cls-2" width="1000" height="200"/></svg>