<svg id="圖層_1" data-name="圖層 1" xmlns="http://www.w3.org/2000/svg" viewBox="0 0 1046 1046"><defs><style>.cls-1{fill:#2c3e50;}.cls-2{fill:none;stroke:#ffeaac;stroke-miterlimit:10;stroke-width:46px;}.cls-3{fill:#ffeaac;}.cls-4{fill:#fff;}</style></defs><rect class="cls-1" x="23" y="23" width="1000" height="1000"/><rect class="cls-2" x="23" y="23" width="1000" height="1000" rx="42.15"/><path class="cls-3" d="M754.15,330.74c-1.2-27.16-5.59-45.82-11.88-62A130.93,130.93,0,0,0,667.5,194c-16.26-6.29-34.83-10.68-62-11.88-27.36-1.3-36-1.6-105.42-1.6s-78.06.3-105.32,1.5-45.81,5.59-62,11.88a124.54,124.54,0,0,0-45.33,29.55A125.8,125.8,0,0,0,258,268.65c-6.29,16.27-10.68,34.83-11.88,62-1.3,27.36-1.6,36-1.6,105.42s.3,78.06,1.5,105.32,5.59,45.81,11.88,62a130.78,130.78,0,0,0,74.77,74.76c16.27,6.29,34.83,10.68,62,11.88s35.93,1.5,105.31,1.5,78.06-.3,105.32-1.5,45.81-5.59,62-11.88a130.67,130.67,0,0,0,74.78-74.76c6.28-16.27,10.68-34.84,11.87-62s1.5-35.94,1.5-105.32S755.35,358,754.15,330.74Zm-46,208.63c-1.1,25-5.3,38.43-8.79,47.42a84.76,84.76,0,0,1-48.52,48.51c-9,3.5-22.55,7.69-47.41,8.78-27,1.2-35,1.5-103.22,1.5s-76.36-.3-103.22-1.5c-25-1.09-38.43-5.28-47.42-8.78a78.52,78.52,0,0,1-29.34-19.07,79.32,79.32,0,0,1-19.07-29.34c-3.49-9-7.69-22.57-8.78-47.42-1.2-27-1.5-35-1.5-103.22s.3-76.37,1.5-103.22c1.09-24.95,5.29-38.43,8.78-47.41a77.45,77.45,0,0,1,19.17-29.35,79.2,79.2,0,0,1,29.35-19.07c9-3.49,22.56-7.68,47.41-8.78,26.95-1.2,35-1.5,103.22-1.5s76.36.3,103.22,1.5c25,1.1,38.43,5.29,47.42,8.78a84.29,84.29,0,0,1,48.41,48.42c3.49,9,7.69,22.55,8.79,47.41,1.19,27,1.49,35,1.49,103.22S709.33,512.42,708.14,539.37Z" transform="translate(23 23)"/><path class="cls-3" d="M500.1,304.78A131.27,131.27,0,1,0,631.37,436.05,131.31,131.31,0,0,0,500.1,304.78Zm0,216.42a85.15,85.15,0,1,1,85.15-85.15A85.16,85.16,0,0,1,500.1,521.2Z" transform="translate(23 23)"/><path class="cls-3" d="M667.21,299.59A30.65,30.65,0,1,1,636.56,269,30.65,30.65,0,0,1,667.21,299.59Z" transform="translate(23 23)"/><path class="cls-4" d="M261.13,849a32.36,32.36,0,0,1-12-12.4,34.37,34.37,0,0,1-4.3-16.8,39.54,39.54,0,0,1,5.67-20.7,42.22,42.22,0,0,1,15.28-15.33,39.82,39.82,0,0,1,20.56-5.67,41.06,41.06,0,0,1,18.65,4.3,34.93,34.93,0,0,1,13.67,12.25,31.46,31.46,0,0,1,5,17.34,34.46,34.46,0,0,1-1.85,11.62,19.72,19.72,0,0,1-6.16,9.18,15.68,15.68,0,0,1-10.25,3.42,12.78,12.78,0,0,1-7.47-2,8.23,8.23,0,0,1-3.56-5.12,18.68,18.68,0,0,1-7.08,5.42,22.24,22.24,0,0,1-8.94,1.8q-7.71,0-12.21-4.78T261.62,819a24.18,24.18,0,0,1,3.32-12.79,21.51,21.51,0,0,1,8.5-8.16,23.82,23.82,0,0,1,11.42-2.88,17,17,0,0,1,12.41,4.88l.29-1.46a3.44,3.44,0,0,1,1.27-2.25,3.77,3.77,0,0,1,2.44-.88,3.43,3.43,0,0,1,2.59,1.08,3.69,3.69,0,0,1,1,2.64l-.09,1.07-3.23,18.55a33,33,0,0,0-.68,6.35,7.37,7.37,0,0,0,1.27,4.59,4.16,4.16,0,0,0,3.51,1.66,10.38,10.38,0,0,0,9.18-5.13q3.33-5.12,3.32-14.3a26.17,26.17,0,0,0-4.59-15.43,29.13,29.13,0,0,0-11.76-9.72,36.49,36.49,0,0,0-15.48-3.37,34.46,34.46,0,0,0-17.87,5,38.58,38.58,0,0,0-13.38,13.43,34.4,34.4,0,0,0-5,17.92,29.48,29.48,0,0,0,3.51,13.77,27.65,27.65,0,0,0,10.21,10.74,29,29,0,0,0,15.38,4,44.08,44.08,0,0,0,10-1,74,74,0,0,0,10.4-3.47,5.29,5.29,0,0,1,1.07-.19,2.45,2.45,0,0,1,1.81.73,2.34,2.34,0,0,1,.73,1.71,2.78,2.78,0,0,1-.39,1.37,2.23,2.23,0,0,1-1.07,1,49.74,49.74,0,0,1-22.56,5.18A35.68,35.68,0,0,1,261.13,849Zm33.5-33.2,1.56-9.09a14.43,14.43,0,0,0-10.94-4.39,16.07,16.07,0,0,0-7.81,1.86,14.47,14.47,0,0,0-6,5.56,16,16,0,0,0-2.14,8.3c0,3.58,1,6.37,3,8.35a11,11,0,0,0,8.16,3Q292.29,829.38,294.63,815.81Z" transform="translate(23 23)"/><path class="cls-4" d="M366.06,844.66a4.33,4.33,0,0,1-1.31-3.17V799.6a4.54,4.54,0,0,1,1.31-3.23,4.26,4.26,0,0,1,3.18-1.36,4.66,4.66,0,0,1,4.59,4.59v3.71a31.22,31.22,0,0,1,8.3-6.55,20.83,20.83,0,0,1,9.76-2.24,17.6,17.6,0,0,1,9.48,2.54,16.61,16.61,0,0,1,6,6.93,22.38,22.38,0,0,1,2.1,9.77v27.73a4.22,4.22,0,0,1-1.36,3.17,4.51,4.51,0,0,1-3.23,1.32,4.51,4.51,0,0,1-4.49-4.49V814.73q0-11.81-10.64-11.81a15.64,15.64,0,0,0-8.45,2.34,30.76,30.76,0,0,0-7.47,6.93v29.3a4.23,4.23,0,0,1-1.37,3.17,4.49,4.49,0,0,1-3.22,1.32A4.33,4.33,0,0,1,366.06,844.66Z" transform="translate(23 23)"/><path class="cls-4" d="M434.38,843.35a23.82,23.82,0,0,1-9.67-9.18,28.38,28.38,0,0,1,.09-27.54,24.47,24.47,0,0,1,9.43-8.94,29.57,29.57,0,0,1,21.73-2,36.12,36.12,0,0,1,7.42,3.47,4.13,4.13,0,0,1,1.95,3.51,4,4,0,0,1-1.17,2.74,3.53,3.53,0,0,1-2.64,1.26,4.82,4.82,0,0,1-2.14-.58,35.51,35.51,0,0,0-5.67-2.44,19.22,19.22,0,0,0-5.57-.69q-8.19,0-13,4.74t-4.84,12.74q0,8,4.84,12.75t13,4.73a19.25,19.25,0,0,0,5.57-.68,35.51,35.51,0,0,0,5.67-2.44,4.85,4.85,0,0,1,2.14-.59,3.54,3.54,0,0,1,2.64,1.27,4,4,0,0,1,1.17,2.74,4.13,4.13,0,0,1-1.95,3.51,36.12,36.12,0,0,1-7.42,3.47,29.44,29.44,0,0,1-21.58-1.9Z" transform="translate(23 23)"/><path class="cls-4" d="M477.59,844.66a4.3,4.3,0,0,1-1.32-3.17V778.11a4.49,4.49,0,0,1,1.32-3.22,4.25,4.25,0,0,1,3.17-1.37,4.68,4.68,0,0,1,4.59,4.59v39.75l23-21.39a4.84,4.84,0,0,1,3-1.27,4.33,4.33,0,0,1,3.27,1.17,4.47,4.47,0,0,1,1.12,3.23,5.33,5.33,0,0,1-1.66,3.41l-14.06,12.5,17.67,23.34a5,5,0,0,1,1,2.74,4.11,4.11,0,0,1-1.32,3.17,4.84,4.84,0,0,1-7-.63l-16.7-22.85-8.4,7.61v12.6a4.2,4.2,0,0,1-1.37,3.17,4.47,4.47,0,0,1-3.22,1.32A4.31,4.31,0,0,1,477.59,844.66Z" transform="translate(23 23)"/><path class="cls-4" d="M537.21,843.93a16.89,16.89,0,0,1-6.06-6.93,22,22,0,0,1-2.15-9.77V799.5a4.27,4.27,0,0,1,1.37-3.18,4.52,4.52,0,0,1,3.22-1.31,4.49,4.49,0,0,1,4.5,4.49v26.76q0,11.81,10.64,11.81a15.66,15.66,0,0,0,8.45-2.34,31,31,0,0,0,7.47-6.94V799.5a4.23,4.23,0,0,1,1.37-3.18,4.5,4.5,0,0,1,3.22-1.31,4.49,4.49,0,0,1,4.49,4.49v41.89a4.51,4.51,0,0,1-1.32,3.23,4.25,4.25,0,0,1-3.17,1.36,4.66,4.66,0,0,1-4.59-4.59v-3.71a31.13,31.13,0,0,1-8.3,6.54,20.76,20.76,0,0,1-9.77,2.25A17.45,17.45,0,0,1,537.21,843.93Z" transform="translate(23 23)"/><path class="cls-4" d="M599.12,843.35a23.94,23.94,0,0,1-9.67-9.18,28.41,28.41,0,0,1,.1-27.54,24.44,24.44,0,0,1,9.42-8.94,29.57,29.57,0,0,1,21.73-2,35.64,35.64,0,0,1,7.42,3.47,4.11,4.11,0,0,1,2,3.51,4,4,0,0,1-1.17,2.74,3.55,3.55,0,0,1-2.64,1.26,4.86,4.86,0,0,1-2.15-.58,35.86,35.86,0,0,0-5.66-2.44,19.27,19.27,0,0,0-5.57-.69q-8.21,0-13,4.74T595,820.49q0,8,4.83,12.75t13,4.73a19.3,19.3,0,0,0,5.57-.68,35.86,35.86,0,0,0,5.66-2.44,4.89,4.89,0,0,1,2.15-.59,3.56,3.56,0,0,1,2.64,1.27,4,4,0,0,1,1.17,2.74,4.11,4.11,0,0,1-2,3.51,35.64,35.64,0,0,1-7.42,3.47,27.61,27.61,0,0,1-8.59,1.22A28,28,0,0,1,599.12,843.35Z" transform="translate(23 23)"/><path class="cls-4" d="M639.36,842.08a3.83,3.83,0,0,1-1.66-3.32,4,4,0,0,1,1.12-2.79,3.63,3.63,0,0,1,2.78-1.22,3.89,3.89,0,0,1,1.76.39,36.66,36.66,0,0,0,6.44,2.2,30,30,0,0,0,6.84.73q10.74,0,10.74-6.83a3.62,3.62,0,0,0-2.34-3.32,48.16,48.16,0,0,0-8.2-2.64,60.44,60.44,0,0,1-9.48-2.83,15.43,15.43,0,0,1-6.74-4.69,11.84,11.84,0,0,1-2.53-7.72,14,14,0,0,1,5.07-11.23q5.08-4.29,14.07-4.29A39.18,39.18,0,0,1,671.39,797a4,4,0,0,1,2.93,3.81,3.87,3.87,0,0,1-1.18,2.78,3.75,3.75,0,0,1-2.83,1.22l-1.27-.19a38.42,38.42,0,0,0-11.13-1.76,15.48,15.48,0,0,0-8.11,1.85,5.58,5.58,0,0,0-3,4.89,4.47,4.47,0,0,0,2.63,4.2,52.48,52.48,0,0,0,8.5,2.63q5.28,1.36,9.38,2.83a14.83,14.83,0,0,1,6.44,4.74,12.67,12.67,0,0,1,2.44,8,12.85,12.85,0,0,1-5.08,10.45q-5.07,4.1-13.86,4.1A37.2,37.2,0,0,1,639.36,842.08Z" transform="translate(23 23)"/><path class="cls-4" d="M688.62,784a4.87,4.87,0,0,1-1.51-3.56v-.4a5.16,5.16,0,0,1,5.08-5.07h.58a5.16,5.16,0,0,1,5.08,5.07v.4a5.16,5.16,0,0,1-5.08,5.07h-.58A4.88,4.88,0,0,1,688.62,784Zm.59,60.64a4.3,4.3,0,0,1-1.32-3.17V799.6a4.51,4.51,0,0,1,1.32-3.23,4.25,4.25,0,0,1,3.17-1.36A4.49,4.49,0,0,1,697,799.6v41.89a4.22,4.22,0,0,1-1.36,3.17,4.51,4.51,0,0,1-3.23,1.32A4.33,4.33,0,0,1,689.21,844.66Z" transform="translate(23 23)"/><path class="cls-4" d="M715.87,839.63q-6.69-6.82-6.69-19.14a33.28,33.28,0,0,1,2.54-12.79,21.34,21.34,0,0,1,8-9.67,23,23,0,0,1,12.89-3.51,23.4,23.4,0,0,1,12.59,3.32,22.52,22.52,0,0,1,7.91,8.93A27.27,27.27,0,0,1,756,819.22a4.43,4.43,0,0,1-4.59,4.5h-33q.89,6.93,5.22,10.59T735.35,838a30.11,30.11,0,0,0,7-.73,29.15,29.15,0,0,0,6.21-2.29,3.49,3.49,0,0,1,1.75-.39,4,4,0,0,1,2.79,1.12,3.65,3.65,0,0,1,1.22,2.78q0,2.25-2.64,3.71a37.05,37.05,0,0,1-7.81,3.28,35.7,35.7,0,0,1-9.28,1Q722.55,846.47,715.87,839.63Zm31-24.6a13.05,13.05,0,0,0-2.35-6.55,13.94,13.94,0,0,0-5.32-4.69,14.77,14.77,0,0,0-6.59-1.56,16.56,16.56,0,0,0-6.55,1.47,12.77,12.77,0,0,0-5.42,4.93,16.56,16.56,0,0,0-2.29,7.66H745.7C746.55,816.29,746.94,815.87,746.88,815Z" transform="translate(23 23)"/></svg>