<svg id="圖層_1" data-name="圖層 1" xmlns="http://www.w3.org/2000/svg" viewBox="0 0 1000 200"><defs><style>.cls-1{fill:#3b5875;}.cls-2{fill:none;}</style></defs><path class="cls-1" d="M218.11,73.14V97.79q0,3.9-3.41,3.9a3.38,3.38,0,0,1-2.61-1,4.28,4.28,0,0,1-.87-2.95V73.63q-18.69,1.17-29.14,1.5-3.24.08-3.24-3.57a2.91,2.91,0,0,1,1.58-2.91c.77-.38,3.76-.58,9-.58q7.23,0,14-.41l3.9-3.9.5-.25a151.43,151.43,0,0,0-17-10.88c-3.44-1.77-5.15-3.26-5.15-4.48a3.28,3.28,0,0,1,.87-2.49,4,4,0,0,1,2.78-.83,6.09,6.09,0,0,1,3,1.16l3.65,2,2.66,1.58,8.47-12-9.63.83-13.2.58c-2.22,0-3.32-1.08-3.32-3.4q0-3.24,5.06-3.24h3.82q30.3-1.17,47.15-5a32.17,32.17,0,0,1,5.14-1c2.55,0,3.82,1.28,3.82,3.82A2.87,2.87,0,0,1,244,32.88a17.93,17.93,0,0,1-3.52.87c-1.75.3-3.75.62-6,1q-9.89,1.41-19.26,2.24l-12,15.69,1.08.58,7.89,5.48q6.3-6.81,11.37-13.28,4.81-6.06,6.81-6.06c2.54,0,3.82,1.14,3.82,3.4q0,1.59-5.65,8a213.61,213.61,0,0,1-16.1,15.86l-1,1q15-.41,28.22-1.32l-.66-.67L235,61.27c-1.27-1.39-1.91-2.47-1.91-3.24,0-1.83.86-2.74,2.57-2.74.78,0,2,.66,3.53,2s3.75,3.43,6.52,6.31a67.09,67.09,0,0,1,5.81,6.76q2,2.79,2,4.11,0,3.08-3.57,3.07-1.74,0-4.07-3l-2.49-3.41Q231.14,72.31,218.11,73.14Zm-18.27,8c0,.77-.62,2-1.86,3.77a65.35,65.35,0,0,1-5.36,6.35Q185.41,99,182,99a3.11,3.11,0,0,1-2.33-.78,3.6,3.6,0,0,1-.74-2.54q0-2,2.82-3.9a41.25,41.25,0,0,0,9.88-9.71c1.93-2.6,3.54-3.9,4.81-3.9C198.71,78.2,199.84,79.19,199.84,81.19Zm53,13.86q0,3.65-3.57,3.65T237.53,91q-8.29-7.87-8.3-10.29a2.69,2.69,0,0,1,.79-2.12,3.73,3.73,0,0,1,2.53-.7c1,0,2.66,1.19,4.81,3.57a48.75,48.75,0,0,0,12.45,10C251.81,92.45,252.8,93.67,252.8,95.05Z"/><path class="cls-1" d="M338.22,85.09c0,1.82-1.14,2.74-3.41,2.74H303.27v5.89q0,4.48-1.91,6.48c-1.27,1.32-3.29,1.88-6.06,1.66h-5.06a4.93,4.93,0,0,1-3-.75,2.87,2.87,0,0,1-1-2.41q0-3.08,4-3.07h3.32q3.07,0,3.24-3.24V87.83H266.91c-2.21,0-3.32-.92-3.32-2.74s1.11-2.74,3.32-2.74H296.8V80a2.91,2.91,0,0,1,1.41-2.73c.88-.56,3.1-1.25,6.64-2.08L313.48,73V72.8H276.79c-2.16,0-3.24-.85-3.24-2.57a2.52,2.52,0,0,1,.75-2,3.75,3.75,0,0,1,2.49-.67H321.2a12.85,12.85,0,0,1,4.82.71,2.3,2.3,0,0,1,1.66,2.12c0,.88-1.91,2.13-5.73,3.73a143,143,0,0,1-16,5.31c-1.77.5-2.66,1.3-2.66,2.41v.5h31.54Q338.22,82.35,338.22,85.09Zm-73.63-14V64.67q0-3.41,1.33-5A5.53,5.53,0,0,1,270.23,58h1.17L269.65,34.2a5.21,5.21,0,0,1,1-3.44,5.32,5.32,0,0,1,3.19-1.87l8.55-1.41,2.66-.66.95-.25a4.27,4.27,0,0,1,1-.17q2.58,0,2.58,2.91c0,.88-.78,1.62-2.33,2.2a37.56,37.56,0,0,1-7.8,1.53,5.65,5.65,0,0,0-2.62.87,2,2,0,0,0-.7,1.79l.08,2.32h10.13c2,0,3.07.86,3.07,2.58s-1,2.57-3.07,2.57h-9.71l.33,4.56h9.38c2,0,3.07.89,3.07,2.66s-1,2.57-3.07,2.57h-9l.33,5.07h46.82l.33-5.07h-10c-1.88,0-2.82-.85-2.82-2.57s.94-2.66,2.82-2.66h10.38l.16-4.56H314.81a3.11,3.11,0,0,1-2.16-.62A2.58,2.58,0,0,1,312,40.6Q312,38,314.81,38h11.12V36.28a2.86,2.86,0,0,0-.5-2,2.43,2.43,0,0,0-1.82-.54h-9.55c-1.77,0-2.65-.8-2.65-2.41a2.66,2.66,0,0,1,.62-1.95,2.8,2.8,0,0,1,2-.62h11.79c4.32,0,6.47,1.66,6.47,5L330.58,58h.91q6.06,0,5.57,6.64v6.72q0,3.9-3.32,3.9a3.18,3.18,0,0,1-2.49-.91,4.35,4.35,0,0,1-.83-3V66.25c0-1.72-.92-2.63-2.74-2.74H274.14a2.55,2.55,0,0,0-2.83,2.74v4.89c0,2.6-1.1,3.9-3.32,3.9S264.59,73.72,264.59,71.06Zm25.82-31.54q0-1.41,4.89-4.32l1.83-1q-5.24-3.65-5.23-4.73a2,2,0,0,1,.62-1.57,2.52,2.52,0,0,1,1.79-.59c.66,0,2.87,1.31,6.64,3.91l2.4-2.49c1.17-1.28,2.22-1.91,3.16-1.91a2.65,2.65,0,0,1,1.87.58A2.07,2.07,0,0,1,309,29c0,.94-1.38,2.62-4.15,5.06l.91.5q3.5,2.49,3.49,4.15a2.57,2.57,0,0,1-.67,1.91,2.46,2.46,0,0,1-1.82.66,4.58,4.58,0,0,1-2.82-1.58L301,36.94q-6.31,5-8.22,5A2.12,2.12,0,0,1,290.41,39.52Zm5.47,11.12,1.66-1-.91-.58q-4.23-2.73-4.23-3.9,0-2.16,2.4-2.16a6.84,6.84,0,0,1,2.74,1.25l2.58,1.49,1.33.92,2.24-2.16c1.32-1.22,2.32-1.83,3-1.83,1.72,0,2.58.75,2.58,2.24,0,1-1.28,2.49-3.82,4.49,3.26,2.21,4.9,3.87,4.9,5,0,1.71-.83,2.57-2.49,2.57A5.25,5.25,0,0,1,305,55.37l-3.56-3A46.62,46.62,0,0,1,296.22,56a8,8,0,0,1-3.16,1.29c-1.6,0-2.41-.77-2.41-2.32C290.65,54,292.4,52.58,295.88,50.64Z"/><path class="cls-1" d="M347.93,46a2.65,2.65,0,0,1,.83-1.91,5.2,5.2,0,0,1,2.49-1.24Q368.94,38,380.88,28.31a21.71,21.71,0,0,1,2.95-2.07,4.56,4.56,0,0,1,2.2-.67,4.27,4.27,0,0,1,2.53.79,2.27,2.27,0,0,1,1.12,1.87,2.19,2.19,0,0,1-.58,1.49l1.25.83A69.8,69.8,0,0,0,403.71,37,84.15,84.15,0,0,0,419,41.68q4.81.74,4.82,3.32c0,2.65-1.14,4-3.4,4q-4,0-14.61-4.4l-.25-.08a3.35,3.35,0,0,1-.67,2.57,3.14,3.14,0,0,1-2.32.75H369c-2,0-3-.89-3-2.66l.08-.66Q354.16,50,351.25,50,347.94,50,347.93,46Zm7.72,23.91q-1.57-1.58-1.49-5V57.86q0-3.57,1.57-5.14t5-1.42h50.22c2.38,0,4.1.52,5.15,1.54s1.52,2.7,1.41,5v7.06q0,3.48-1.54,5.1t-5,1.46H360.71Q357.23,71.48,355.65,69.9Zm3.61,27.93q-1.62-1.62-1.45-5.1V81.52q0-3.57,1.62-5.23c1.08-1.11,2.8-1.63,5.18-1.58H407c2.44,0,4.21.56,5.31,1.66s1.61,2.82,1.5,5.15V92.73c0,2.37-.54,4.12-1.62,5.22s-2.81,1.61-5.19,1.5H364.61Q360.88,99.45,359.26,97.83Zm23.28-41.38H363c-1.72,0-2.58.89-2.58,2.66v4.56A2.41,2.41,0,0,0,363,66.33h19.5Zm24.74,26a2.46,2.46,0,0,0-.66-1.87,2.91,2.91,0,0,0-1.83-.7H366.94c-1.55,0-2.38.86-2.49,2.57v2.33h42.83Zm-.71,11.37a2.87,2.87,0,0,0,.71-1.82V89.24H364.45V92q0,2.33,2.49,2.49h37.85A2.29,2.29,0,0,0,406.57,93.8ZM369.68,63.42c-1.16-1.66-1.75-2.87-1.75-3.65q0-2.07,2.49-2.07c1,0,2,.72,3,2.15a6.66,6.66,0,0,1,1.5,2.91c0,1.6-.92,2.41-2.74,2.41C371.34,65.17,370.51,64.59,369.68,63.42ZM385,33.37a96.2,96.2,0,0,1-14.86,9.14H401.3A99.34,99.34,0,0,1,385,33.37Zm26.23,30.3V59.11a2.39,2.39,0,0,0-2.65-2.66H388.44v9.88h20.09C410.19,66.33,411.07,65.44,411.18,63.67Zm-15.11-.5a6.56,6.56,0,0,1,1.5-3.65c.94-1.33,1.88-2,2.82-2q2.82,0,2.82,2.16a6.22,6.22,0,0,1-1.33,3.48q-1.49,2.16-3.15,2.16C397,65.33,396.07,64.61,396.07,63.17Z"/><path class="cls-1" d="M437.45,93.18a3.7,3.7,0,0,1-1.12-2.7V39.27a3.84,3.84,0,0,1,1.12-2.74,3.6,3.6,0,0,1,2.7-1.16,4,4,0,0,1,3.9,3.9V90.48a3.59,3.59,0,0,1-1.16,2.7,3.8,3.8,0,0,1-2.74,1.12A3.68,3.68,0,0,1,437.45,93.18Z"/><path class="cls-1" d="M458.79,93.18a3.66,3.66,0,0,1-1.12-2.7V54.87a3.82,3.82,0,0,1,1.12-2.74A3.6,3.6,0,0,1,461.48,51a4,4,0,0,1,3.91,3.9V58a26.37,26.37,0,0,1,7.05-5.56,17.57,17.57,0,0,1,8.3-1.91,14.94,14.94,0,0,1,8.05,2.16,14,14,0,0,1,5.11,5.89,19,19,0,0,1,1.78,8.3V90.48a3.59,3.59,0,0,1-1.16,2.7,3.8,3.8,0,0,1-2.74,1.12A3.82,3.82,0,0,1,488,90.48V67.74q0-10-9-10a13.27,13.27,0,0,0-7.18,2,26.14,26.14,0,0,0-6.35,5.89v24.9a3.6,3.6,0,0,1-1.17,2.7,3.78,3.78,0,0,1-2.74,1.12A3.64,3.64,0,0,1,458.79,93.18Z"/><path class="cls-1" d="M506.81,91a3.24,3.24,0,0,1-1.41-2.82,3.39,3.39,0,0,1,1-2.37,3.08,3.08,0,0,1,2.37-1,3.3,3.3,0,0,1,1.49.33A31.74,31.74,0,0,0,515.69,87a25.76,25.76,0,0,0,5.81.62q9.13,0,9.13-5.81a3.07,3.07,0,0,0-2-2.82,41,41,0,0,0-7-2.25,50.68,50.68,0,0,1-8.06-2.4,13,13,0,0,1-5.72-4,10,10,0,0,1-2.16-6.55A11.94,11.94,0,0,1,510,54.21q4.32-3.66,12-3.65a33.34,33.34,0,0,1,12,2.07,3.28,3.28,0,0,1,1.83,1.25,3.33,3.33,0,0,1-.33,4.36,3.23,3.23,0,0,1-2.41,1L532,59.11a32.8,32.8,0,0,0-9.46-1.5,13.09,13.09,0,0,0-6.89,1.58,4.72,4.72,0,0,0-2.57,4.15,3.77,3.77,0,0,0,2.24,3.57,43.4,43.4,0,0,0,7.22,2.24c3,.78,5.64,1.58,8,2.41a12.51,12.51,0,0,1,5.48,4,11.6,11.6,0,0,1-2.25,15.65q-4.31,3.49-11.78,3.49A31.67,31.67,0,0,1,506.81,91Z"/><path class="cls-1" d="M570.39,88.08a2.93,2.93,0,0,1,.91,2.15,3.29,3.29,0,0,1-2,3,16.18,16.18,0,0,1-6.89,1.5q-12.2,0-12.2-11V58.44h-4.15a3.33,3.33,0,1,1,0-6.64h4.15V45.91a3.84,3.84,0,0,1,1-2.91,4,4,0,0,1,2.86-1,3.72,3.72,0,0,1,2.82,1,4,4,0,0,1,1,2.87V51.8h9.3a3.28,3.28,0,0,1,3.32,3.32,3.26,3.26,0,0,1-1,2.33,3.15,3.15,0,0,1-2.36,1h-9.3V83c0,1.94.44,3.24,1.33,3.9a6.54,6.54,0,0,0,4,1,11,11,0,0,0,3.32-.5.32.32,0,0,0,.25-.08,7.42,7.42,0,0,1,1.41-.17A3,3,0,0,1,570.39,88.08Z"/><path class="cls-1" d="M583.59,93.22a11.43,11.43,0,0,1-5.06-4.4,12.18,12.18,0,0,1-1.83-6.64,11.5,11.5,0,0,1,5-10q5-3.53,14.15-3.53h10v-.58q0-5.31-2.61-7.76t-8.43-2.45a28.51,28.51,0,0,0-5.39.46,45.07,45.07,0,0,0-5.65,1.53l-1.07.17a3,3,0,0,1-2.2-1,3.12,3.12,0,0,1-1-2.29,3.25,3.25,0,0,1,2.24-3.23,36,36,0,0,1,14.36-3,19.44,19.44,0,0,1,9.8,2.32,14.66,14.66,0,0,1,5.73,5.94,17.53,17.53,0,0,1,1.9,8.17V90.48a3.59,3.59,0,0,1-1.16,2.7,3.8,3.8,0,0,1-2.74,1.12,3.84,3.84,0,0,1-3.82-3.82v-2q-6,6.23-15.52,6.23A15.43,15.43,0,0,1,583.59,93.22Zm16.48-7a19,19,0,0,0,5.76-4.44V74.88h-9q-12.45,0-12.45,6.47t8.71,6.56A15.26,15.26,0,0,0,600.07,86.21Z"/><path class="cls-1" d="M636.34,112.56a33.32,33.32,0,0,1-8.18-3.07,3.29,3.29,0,0,1-1.57-3,3.47,3.47,0,0,1,1-2.4A3.17,3.17,0,0,1,630,103a4.08,4.08,0,0,1,1.49.33,31,31,0,0,0,13.7,3.15q12.62,0,12.62-13.44V87.74a18.52,18.52,0,0,1-14.11,6.15,19.23,19.23,0,0,1-9.47-2.49,19.44,19.44,0,0,1-7.8-7.52,22.54,22.54,0,0,1-2.9-11.66,22.81,22.81,0,0,1,3-11.95A19.7,19.7,0,0,1,634,53.05a20,20,0,0,1,9.67-2.49A18.51,18.51,0,0,1,657.8,56.7V54.87a3.82,3.82,0,0,1,1.12-2.74,3.62,3.62,0,0,1,2.7-1.16,4,4,0,0,1,3.9,3.9V92q0,10.45-5.07,16.14t-14.52,5.69A39.17,39.17,0,0,1,636.34,112.56ZM651.86,85.3a24.81,24.81,0,0,0,5.94-4.53V63.67a24.5,24.5,0,0,0-5.94-4.52,14,14,0,0,0-6.6-1.54q-6.39,0-10.21,3.82t-3.81,10.79q0,7,3.81,10.79t10.21,3.82A14.08,14.08,0,0,0,651.86,85.3Z"/><path class="cls-1" d="M679.59,93.18a3.66,3.66,0,0,1-1.12-2.7V54.87a3.82,3.82,0,0,1,1.12-2.74,3.61,3.61,0,0,1,2.7-1.16,4,4,0,0,1,3.9,3.9v3.32q5.73-7.63,12.95-7.63h.41a3.54,3.54,0,0,1,2.66,1.12,3.73,3.73,0,0,1,1.08,2.7A3.42,3.42,0,0,1,702.17,57a4,4,0,0,1-2.78,1H699a14.22,14.22,0,0,0-7.18,1.87,16.57,16.57,0,0,0-5.6,5.35V90.48a3.62,3.62,0,0,1-1.16,2.7,3.82,3.82,0,0,1-2.74,1.12A3.65,3.65,0,0,1,679.59,93.18Z"/><path class="cls-1" d="M714.41,93.22a11.43,11.43,0,0,1-5.06-4.4,12.18,12.18,0,0,1-1.83-6.64,11.5,11.5,0,0,1,5-10q5-3.53,14.15-3.53h10v-.58c0-3.54-.88-6.13-2.62-7.76s-4.55-2.45-8.42-2.45a28.55,28.55,0,0,0-5.4.46,44.52,44.52,0,0,0-5.64,1.53L713.5,60a3,3,0,0,1-2.2-1,3.12,3.12,0,0,1-1-2.29,3.25,3.25,0,0,1,2.24-3.23,36,36,0,0,1,14.36-3,19.44,19.44,0,0,1,9.8,2.32,14.66,14.66,0,0,1,5.73,5.94A17.54,17.54,0,0,1,744.38,67V90.48a3.6,3.6,0,0,1-1.17,2.7,3.8,3.8,0,0,1-2.74,1.12,3.82,3.82,0,0,1-3.81-3.82v-2q-6,6.23-15.53,6.23A15.43,15.43,0,0,1,714.41,93.22Zm16.48-7a19.15,19.15,0,0,0,5.77-4.44V74.88h-9q-12.45,0-12.45,6.47T724,87.91A15.25,15.25,0,0,0,730.89,86.21Z"/><path class="cls-1" d="M819,58.77a20,20,0,0,1,1.54,7.81v23.9a3.6,3.6,0,0,1-1.17,2.7,3.78,3.78,0,0,1-2.74,1.12,3.82,3.82,0,0,1-3.81-3.82V68.07c0-3.71-.65-6.36-2-8s-3.45-2.4-6.44-2.4a10.94,10.94,0,0,0-6.72,2,21.5,21.5,0,0,0-5.15,5.85v24.9a3.62,3.62,0,0,1-1.16,2.7,3.8,3.8,0,0,1-2.74,1.12,3.82,3.82,0,0,1-3.82-3.82V68.07c0-3.71-.65-6.36-2-8s-3.44-2.4-6.43-2.4a10.9,10.9,0,0,0-6.72,2,21.34,21.34,0,0,0-5.15,5.85v24.9a3.62,3.62,0,0,1-1.16,2.7,3.82,3.82,0,0,1-2.74,1.12,3.82,3.82,0,0,1-3.82-3.82V54.87A3.82,3.82,0,0,1,758,52.13a3.64,3.64,0,0,1,2.7-1.16,4,4,0,0,1,3.9,3.9v3.07a19.83,19.83,0,0,1,5.89-5.43,15.85,15.85,0,0,1,8.14-1.95,13.31,13.31,0,0,1,7.84,2.36,13.48,13.48,0,0,1,4.86,6.1q5.14-8.46,15.27-8.46a12.72,12.72,0,0,1,7.89,2.32A14,14,0,0,1,819,58.77Z"/><path class="cls-1" d="M311.28,173.05a2.92,2.92,0,0,1-.62-.56,23.23,23.23,0,0,1-4.19-7.89,34.23,34.23,0,0,1,0-19.78,23.09,23.09,0,0,1,4.19-7.88,2.67,2.67,0,0,1,.62-.56,1.37,1.37,0,0,1,.74-.17,1.69,1.69,0,0,1,1.14.46,1.51,1.51,0,0,1,.5,1.15,2.5,2.5,0,0,1-.24.92,33.32,33.32,0,0,0-3.47,7.74,28.37,28.37,0,0,0,0,16.46,33.39,33.39,0,0,0,3.47,7.75,2.45,2.45,0,0,1,.24.92,1.51,1.51,0,0,1-.5,1.14,1.65,1.65,0,0,1-1.14.46A1.38,1.38,0,0,1,311.28,173.05Z"/><path class="cls-1" d="M354.18,140.18c0,1-.64,1.52-1.92,1.52H331.08l-1.93,4.12h16.3a4.36,4.36,0,0,1,3.08.92,3.73,3.73,0,0,1,.84,3V166.4q.33,4.48-4.16,4.25h-3.48q-1.89,0-1.89-1.68c0-1.15.63-1.73,1.89-1.73h2.52a1.83,1.83,0,0,0,1.4-.5,2.08,2.08,0,0,0,.48-1.5v-2.88H329.19v6.37c0,1.3-.54,2-1.64,2s-1.64-.66-1.64-2V151.11l-.12,0q-4.77,6.41-6.45,6.4c-1,0-1.56-.58-1.56-1.76a2.76,2.76,0,0,1,1.12-1.88,34,34,0,0,0,8.89-12.13h-7.57q-1.92,0-1.92-1.56c0-1,.64-1.52,1.92-1.52H329l.64-2.37c.32-1.22.92-1.84,1.81-1.84,1.25,0,1.88.54,1.88,1.6a3.6,3.6,0,0,1-.18,1.09c-.12.37-.32.88-.58,1.52h19.74Q354.18,138.62,354.18,140.18Zm-25,12.41h16.94v-2a1.76,1.76,0,0,0-.44-1.26,1.67,1.67,0,0,0-1.28-.46H330.19c-.66,0-1,.34-1,1Zm0,3v3.85h16.94v-3.85Z"/><path class="cls-1" d="M360.46,169.17V139.34a3.8,3.8,0,0,1,.84-2.72,3.33,3.33,0,0,1,2.65-.81h7.76a3.63,3.63,0,0,1,2.63.81,3.33,3.33,0,0,1,.74,2.6v8.08a3.68,3.68,0,0,1-.8,2.65,3.33,3.33,0,0,1-2.57.72h-8.12v18.5c0,1.14-.52,1.72-1.56,1.72S360.46,170.31,360.46,169.17Zm11.78-29.11c0-1-.51-1.47-1.53-1.52h-5.56a1.4,1.4,0,0,0-1.56,1.52v2h8.65Zm0,6.48v-2.12h-8.65v3.69h7.12C371.67,148.11,372.18,147.59,372.24,146.54Zm-3.55,18.6a3.15,3.15,0,0,1-.7-2.46v-5.53a3.63,3.63,0,0,1,.76-2.56,3.05,3.05,0,0,1,2.44-.72h11.42a3.49,3.49,0,0,1,2.54.78,3.22,3.22,0,0,1,.7,2.5v5.53a3.64,3.64,0,0,1-.76,2.56,3,3,0,0,1-2.48.68H371.19A3.44,3.44,0,0,1,368.69,165.14Zm14-3.7v-3c0-1-.51-1.47-1.53-1.52h-8.6a1.47,1.47,0,0,0-1.11.4,1.73,1.73,0,0,0-.42,1.12v3c0,.93.51,1.43,1.53,1.48h8.6A1.38,1.38,0,0,0,382.73,161.44Zm2.68,7.69a1.44,1.44,0,0,1,1.6-1.65h1.8c1.23,0,1.87-.66,1.92-2V150.67h-8.56a3.75,3.75,0,0,1-2.67-.8,3.3,3.3,0,0,1-.74-2.57v-8.08a3.71,3.71,0,0,1,.82-2.67,3.36,3.36,0,0,1,2.59-.74h8.2a3.73,3.73,0,0,1,2.71.86,3.46,3.46,0,0,1,.78,2.67v27.22a4.68,4.68,0,0,1-1,3.31,3.9,3.9,0,0,1-3.19.86h-2.6C386,170.73,385.41,170.19,385.41,169.13Zm5.32-29.07c0-1-.52-1.47-1.56-1.52h-6a1.41,1.41,0,0,0-1.57,1.52v2h9.13Zm0,4.36H381.6v2.12c0,1,.52,1.51,1.57,1.57h7.56Z"/><path class="cls-1" d="M410.07,168.12a11.33,11.33,0,0,1-5.64-4.88c-.88,4.43-2,6.65-3.25,6.65-1,0-1.48-.56-1.48-1.68a5.88,5.88,0,0,1,.56-1.49,24,24,0,0,0,2.12-9c.08-1.49.59-2.24,1.53-2.24s1.32.4,1.32,1.2l-.16,2.21-.08.44.24.56a10.59,10.59,0,0,0,3,4.08V153.87h-6.89c-1.06,0-1.6-.45-1.6-1.36s.54-1.36,1.6-1.36h15c1.07,0,1.6.45,1.6,1.36s-.53,1.36-1.6,1.36h-5.21v4h4.37c1,0,1.56.45,1.56,1.36s-.52,1.4-1.56,1.4h-4.37v4.92q3.4,1.2,13.54,1.2l10.05-.28c1.06,0,1.6.5,1.6,1.64s-.72,1.81-2.16,1.81l-10.61-.12Q413.87,169.69,410.07,168.12Zm-8-19.93a3,3,0,0,1-.68-2.37v-6.76a3.54,3.54,0,0,1,.74-2.47,2.87,2.87,0,0,1,2.39-.66h8.77a3.5,3.5,0,0,1,2.48.74,2.94,2.94,0,0,1,.64,2.39v6.76a3.43,3.43,0,0,1-.74,2.45,2.93,2.93,0,0,1-2.38.64h-8.77A3.5,3.5,0,0,1,402.06,148.19Zm11.58-8.61a1,1,0,0,0-1.05-1.08h-7.36a1,1,0,0,0-1.08,1.08v1.48h9.49Zm0,5.68v-1.68h-9.49v1.68q0,1,1.08,1.08h7.36A.94.94,0,0,0,413.64,145.26Zm2.28,19.3c0-.48.34-.86,1-1.16a25.36,25.36,0,0,0,4.12-2,5.74,5.74,0,0,1,1.92-1c1,0,1.49.47,1.49,1.4,0,.56-1,1.41-3.05,2.56S418,166,417.24,166,415.92,165.55,415.92,164.56Zm3.8-5.5a3,3,0,0,1-.68-2.39V145.26a3.36,3.36,0,0,1,.74-2.4,3,3,0,0,1,2.38-.68h2l.68-2.92h-5.73c-1.07,0-1.6-.47-1.6-1.4s.53-1.37,1.6-1.37h15.42c1.06,0,1.6.47,1.6,1.41s-.54,1.36-1.6,1.36h-6.49l-1,2.92h4.16a3.6,3.6,0,0,1,2.51.74,2.91,2.91,0,0,1,.7,2.34v11.41a3.41,3.41,0,0,1-.76,2.45,3.19,3.19,0,0,1-2.45.68h-9.09A3.42,3.42,0,0,1,419.72,159.06Zm11.85-13.32a1,1,0,0,0-1.08-1.08h-7.61a1,1,0,0,0-1.08,1.08v1.4h9.77Zm0,6.41v-2.6H421.8v2.6Zm0,4.08v-1.68H421.8v1.68a1,1,0,0,0,1.08,1.08h7.61A1,1,0,0,0,431.57,156.23Zm-.68,7.93q-2.88-1.64-2.88-2.52,0-1.32,1.44-1.32a3,3,0,0,1,.8.4l1,.6a24.09,24.09,0,0,0,3.65,1.64c.77.29,1.16.74,1.16,1.32a1.29,1.29,0,0,1-1.44,1.48A10.3,10.3,0,0,1,430.89,164.16Z"/><path class="cls-1" d="M477.08,167.71a1.69,1.69,0,0,1,.3.94c0,1.33-.59,2-1.76,2a3,3,0,0,1-1.75-.9,23.28,23.28,0,0,1-2.5-2.75,21.33,21.33,0,0,1-2.48-3.92,22.35,22.35,0,0,1-1.52-4.48,26.59,26.59,0,0,1-1.72,5.8,14.91,14.91,0,0,1-3,4.41c-1.28,1.33-2.28,2-3,2-1.15,0-1.72-.55-1.72-1.64V169H446.67c-2.06,0-3.09-1-3.09-3.13v-8.52c-.82,1.09-1.46,1.64-1.92,1.64-.77,0-1.16-.48-1.16-1.45a2.68,2.68,0,0,1,.76-1.68,20.75,20.75,0,0,0,3-4.48,2.24,2.24,0,0,1,1.16-1.32h-1.24a2.25,2.25,0,0,1-2.53-2.56v-2.57a2.66,2.66,0,0,1,.64-1.9,2.53,2.53,0,0,1,1.89-.66h3.48c1.71,0,2.56.88,2.56,2.64v2.49a2.26,2.26,0,0,1-2.56,2.56h-1a1.17,1.17,0,0,1,.68,1.16,3,3,0,0,1-.6,1.36h4.36l.68-1.36A2.39,2.39,0,0,1,453,150a2.26,2.26,0,0,1-1.84-2.56v-2.49a2.31,2.31,0,0,1,2.56-2.56h3.61a2.24,2.24,0,0,1,2.52,2.56v2.57a3.12,3.12,0,0,1,0,.6,56.08,56.08,0,0,0,3.4-11.78c.27-1.3.8-2,1.61-2,1.09,0,1.64.44,1.64,1.32l-.12.88-1.12,4.61h8.68c2.06,0,3.09.73,3.09,2.2a6.33,6.33,0,0,1-.72,2.24l-.92,2.13a27.91,27.91,0,0,1-1.91,3.76q-.78,1.2-1.38,1.2c-1,0-1.52-.41-1.52-1.24A4,4,0,0,1,471,150c.48-1.07,1-2.32,1.52-3.77l.44-1.16a1.07,1.07,0,0,0,.08-.36c0-.29-.24-.44-.72-.44h-8q-.65,1.68-1.85,5.05c-.4,1.15-.93,1.72-1.6,1.72a1.33,1.33,0,0,1-1.52-1.48.79.79,0,0,1,0-.28,2.3,2.3,0,0,1-2,.8h-3.2a1,1,0,0,1,.76,1,2.89,2.89,0,0,1-.72,1.48H459c.91,0,1.36.41,1.36,1.24s-.45,1.24-1.36,1.24h-5.29v2.08h5a1.33,1.33,0,0,1,.94.31,1,1,0,0,1,.34.82c0,.74-.43,1.12-1.28,1.12h-5v2.2h4.73c.85,0,1.28.37,1.28,1.12s-.43,1.12-1.28,1.12h-4.73v2.6h4c.91,0,1.43.27,1.56.8a14.45,14.45,0,0,0,4.76-7.6,33.87,33.87,0,0,0,1-5.23,47.73,47.73,0,0,0,.34-5.54V147a1.6,1.6,0,1,1,3.2,0l0,1.12c-.08,2.05-.16,3.48-.24,4.28q1.92,9.61,7.89,14.37A4.69,4.69,0,0,1,477.08,167.71Zm-36.46-29.33c0-.91.51-1.36,1.52-1.36H446v-1.25c0-1.06.49-1.6,1.48-1.6s1.48.54,1.48,1.6V137h3.88v-1.25c0-1.06.51-1.6,1.53-1.6s1.48.54,1.48,1.6V137h3.8a1.64,1.64,0,0,1,1.14.36,1.24,1.24,0,0,1,.42,1c0,.93-.52,1.4-1.56,1.4h-3.8v.84a1.78,1.78,0,0,1-.38,1.22,1.42,1.42,0,0,1-1.1.42c-1,0-1.53-.55-1.53-1.64v-.84H449v.84c0,1.09-.49,1.64-1.48,1.64s-1.48-.55-1.48-1.64v-.84h-3.89C441.13,139.78,440.62,139.31,440.62,138.38Zm3.77,9.1a.8.8,0,0,0,.56.14h2a.62.62,0,0,0,.46-.14.87.87,0,0,0,.18-.5V145.5a.73.73,0,0,0-.14-.5.87.87,0,0,0-.5-.18h-2a.73.73,0,0,0-.52.16.81.81,0,0,0-.2.52V147A.63.63,0,0,0,444.39,147.48Zm2.22,7.75a1,1,0,0,0-.18.56v1.36h4.44v-2.08h-3.72A.72.72,0,0,0,446.61,155.23Zm4.26,6.37v-2.2h-4.44v2.2Zm-3.56,4.84h3.56v-2.6h-4.44v1.76C446.43,166.14,446.72,166.42,447.31,166.44ZM453.75,147a.63.63,0,0,0,.15.47.81.81,0,0,0,.5.17h2.2a.57.57,0,0,0,.64-.64V145.5a.74.74,0,0,0-.14-.48.83.83,0,0,0-.5-.2h-2.2c-.43,0-.65.23-.65.68Z"/><path class="cls-1" d="M493.35,168.93a10.85,10.85,0,0,1-4.84-2.77h-.08q-3.84,3.38-5.09,3.37a1.56,1.56,0,0,1-1.2-.44,2.18,2.18,0,0,1-.4-1.45q0-1.27,1.8-2c.91-.42,1.94-1,3.09-1.64v-7.25a1.11,1.11,0,0,0-1.2-1.2h-2a1.8,1.8,0,0,1-1.28-.38,1.64,1.64,0,0,1-.4-1.22,1.52,1.52,0,0,1,.4-1.16,1.9,1.9,0,0,1,1.28-.36h3.13a3.54,3.54,0,0,1,2.54.76,3.05,3.05,0,0,1,.74,2.36v8.09l1,1q2.73,2.13,11.65,2.12l14.22-.2a1.37,1.37,0,0,1,1.56,1.53c0,1.12-.79,1.68-2.36,1.68l-12.38,0Q496.16,169.73,493.35,168.93ZM487,147.38l-3.33-1.44a1.74,1.74,0,0,1-1.24-1.56,1.38,1.38,0,0,1,1.56-1.56,13.8,13.8,0,0,1,3.33,1.12c1.73.75,2.6,1.52,2.6,2.32q0,1.65-1.56,1.65A3,3,0,0,1,487,147.38Zm2.1-7.22c-.41-.2-.66-.33-.74-.38l-2.64-1.36c-.94-.48-1.41-1-1.41-1.69a1.37,1.37,0,0,1,1.53-1.56,14.18,14.18,0,0,1,3.16,1.16,6.63,6.63,0,0,1,1.88,1.19,1.76,1.76,0,0,1,.64,1.26q0,1.68-1.56,1.68A2.46,2.46,0,0,1,489.05,140.16Zm2.18,20.8a1.41,1.41,0,0,1,1-1.44l1.68-.6V141.14a4.24,4.24,0,0,1,.56-2.36,2.74,2.74,0,0,1,.95-.76c.46-.27,1.11-.59,1.94-1l2.68-1.12,1.12-.48,1-.44a4.67,4.67,0,0,1,.8-.28c1.18,0,1.76.56,1.76,1.68,0,.46-.46,1-1.4,1.49a36.74,36.74,0,0,1-4.68,2,1.69,1.69,0,0,0-1.28,1.64v16.21l2.68-1,1.12-.44a11,11,0,0,1,1.48-.52c.86,0,1.28.48,1.28,1.44,0,.75-1.12,1.59-3.36,2.53-4.54,1.87-7.15,2.8-7.85,2.8C491.74,162.56,491.23,162,491.23,161Zm13.45,2.64V141.26a3.61,3.61,0,0,1,.81-2.62,3.19,3.19,0,0,1,2.56-.74h5.64a3.63,3.63,0,0,1,2.63.8,3.16,3.16,0,0,1,.7,2.56V157c.21,2.69-1,4-3.77,3.84h-2.16c-1.15,0-1.72-.55-1.72-1.64s.57-1.61,1.72-1.61h1.44a1.25,1.25,0,0,0,.94-.34,1.3,1.3,0,0,0,.34-1V142.22a1.26,1.26,0,0,0-.34-.94,1.25,1.25,0,0,0-.94-.34h-3.2a1.24,1.24,0,0,0-1,.34,1.34,1.34,0,0,0-.32.94V163.6q0,2-1.68,2C505.25,165.64,504.68,165,504.68,163.6Z"/><path class="cls-1" d="M530.75,169V153.79a48.1,48.1,0,0,1-3.48,7.09q-2,3.36-3,3.36a1.53,1.53,0,0,1-1.18-.42,2,2,0,0,1-.38-1.34,2.93,2.93,0,0,1,.84-1.76A39.61,39.61,0,0,0,530.43,148h-5.52c-1.31,0-2-.54-2-1.61s.66-1.56,2-1.56h5.84v-5.36l-1.24.16a37.56,37.56,0,0,1-4.48.4c-1.23,0-1.85-.55-1.85-1.64s.74-1.53,2.21-1.53a42.44,42.44,0,0,0,12-1.84l1.12-.24c1.07,0,1.6.56,1.6,1.68q0,1.32-2,1.77l-4.21.76v5.84h5.49c1.31,0,2,.52,2,1.56s-.65,1.61-2,1.61h-5.49v4.6a1.89,1.89,0,0,1,1.37-.56c.5,0,1.53.95,3.08,2.84s2.28,3,2.28,3.53c0,1-.56,1.48-1.68,1.48-.51,0-1.12-.59-1.84-1.76l-2.73-3.77-.48-.72V169c0,1.28-.53,1.92-1.6,1.92S530.75,170.29,530.75,169Zm25.07-.24-.69-2.41q-4.44,1-9.8,1.76l-3.41.49a33.31,33.31,0,0,1-3.6.48c-1.15,0-1.72-.55-1.72-1.64a1.43,1.43,0,0,1,1-1.49,19,19,0,0,1,3-.36l.2-.08c.93-3.55,1.86-8,2.76-13.29s1.66-10.4,2.17-15c.16-1.41.78-2.12,1.88-2.12s1.72.52,1.72,1.56l-.08,1-1.52,8.76q-2.13,12.22-3.81,18.58l.16.2c4.65-.56,7.9-1,9.77-1.36l.48-.08c-.82-2.51-1.6-4.6-2.32-6.28a13.33,13.33,0,0,1-1.08-3c0-.77.52-1.16,1.56-1.16.64,0,1.24.63,1.8,1.88.62,1.42,1.71,4.1,3.29,8a23.2,23.2,0,0,1,1.6,4.85,1.65,1.65,0,0,1-.42,1.26,2,2,0,0,1-1.34.38A1.57,1.57,0,0,1,555.82,168.77Z"/><path class="cls-1" d="M578.2,142.94c0,1-.59,1.44-1.76,1.44h-11c-1.14,0-1.72-.48-1.72-1.44s.58-1.44,1.72-1.44h11C577.61,141.5,578.2,142,578.2,142.94ZM565,137.54c0-1,.56-1.45,1.69-1.45h8.44c1.18,0,1.77.48,1.77,1.45s-.59,1.44-1.77,1.44h-8.44C565.58,139,565,138.5,565,137.54Zm11.7,10.73c0,.9-.56,1.36-1.69,1.36h-8.24c-1.1,0-1.65-.47-1.65-1.4s.55-1.36,1.65-1.36H575C576.16,146.87,576.72,147.33,576.72,148.27Zm0,5.32c0,.91-.56,1.36-1.69,1.36h-8.16c-1.15,0-1.73-.45-1.73-1.36s.55-1.4,1.65-1.4H575C576.16,152.19,576.72,152.66,576.72,153.59Zm0,7v6.2q0,3.21-3.29,3.21h-5a3.41,3.41,0,0,1-2.44-.8,3,3,0,0,1-.85-2.33v-6.28q0-3.16,3.29-3.17h5Q576.72,157.47,576.72,160.64Zm-2.89.52a.91.91,0,0,0-1-1h-3.68a.93.93,0,0,0-1,1v5.16c0,.72.34,1.08,1,1.08h3.68c.67,0,1-.36,1-1.08Zm26.47.56a27,27,0,0,1,0,2.92,10.27,10.27,0,0,1-1.16,4.43,2.58,2.58,0,0,1-2.2,1.22,2.33,2.33,0,0,1-1.75-1,7.15,7.15,0,0,1-1.3-2.85A47,47,0,0,1,592.65,155l-.12-12.45,0-1.48a1.52,1.52,0,0,0-.48-1.34,2,2,0,0,0-1.48-.34h-4.16v10.33h2.44c1.12,0,1.68.49,1.68,1.48a1.34,1.34,0,0,1-.44,1.06,1.87,1.87,0,0,1-1.24.38h-2.44v16.18q0,1.8-1.53,1.8a1.49,1.49,0,0,1-1.16-.46,2,2,0,0,1-.4-1.34V152.63H580.6c-1.15,0-1.72-.49-1.72-1.48s.57-1.44,1.72-1.44h2.76V139.38H579.6c-1.26,0-1.88-.5-1.88-1.48s.62-1.49,1.88-1.49h12.21c2.62,0,3.92,1.09,3.92,3.25l0,.8.08,16.37a48.17,48.17,0,0,0,.42,6.75c.26,1.54.6,2.3,1,2.3.21,0,.34-.36.4-1.08s.09-2,.12-3.92c0-.88.42-1.32,1.28-1.32s1.21.45,1.24,1.36A5.09,5.09,0,0,0,600.3,161.72Z"/><path class="cls-1" d="M613.35,166.64c.19,2.81-1.16,4.14-4,4h-2a1.68,1.68,0,0,1,0-3.36h1.32c1,0,1.46-.51,1.52-1.53v-8.93l-1.28.48a16.65,16.65,0,0,1-2.57.85,1.44,1.44,0,0,1-1.64-1.61c0-.9.55-1.52,1.64-1.84l3.85-1.16v-8.37h-3.61q-1.8,0-1.8-1.56t1.8-1.56h3.61V136c0-1.12.53-1.68,1.6-1.68s1.56.56,1.56,1.68v6.05h3c1.21,0,1.81.52,1.81,1.56s-.6,1.56-1.81,1.56h-3v7.29l.36-.12a10.37,10.37,0,0,0,1.3-.44,6.19,6.19,0,0,1,.78-.28c.94,0,1.41.51,1.41,1.52a1.43,1.43,0,0,1-.93,1.28l-2.92,1.2Zm27.95,1.65c0,1.06-.79,1.6-2.36,1.6l-3.69-.08a32.34,32.34,0,0,1-9.33-1.2,8.12,8.12,0,0,1-4.24-3.81,13.35,13.35,0,0,1-2.72,3.77c-1.23,1.22-2.18,1.84-2.85,1.84-1,0-1.48-.52-1.48-1.56,0-.56.43-1.15,1.28-1.77a11.12,11.12,0,0,0,4.41-8.8,1.34,1.34,0,0,1,1.48-1.45c1,0,1.48.46,1.48,1.37a14.24,14.24,0,0,1-.56,3.4,8,8,0,0,0,4.85,4.44V155.19h-8.29c-1,0-1.56-.45-1.56-1.36a1.33,1.33,0,0,1,.38-1.06,1.7,1.7,0,0,1,1.18-.34h20.18c1.06,0,1.6.47,1.6,1.4s-.54,1.36-1.6,1.36h-8.77V159h6.56c1,0,1.53.45,1.53,1.36s-.51,1.4-1.53,1.4h-6.56v4.72l.76.08a46.81,46.81,0,0,0,4.84.16h2.41l1.08,0C640.79,166.67,641.3,167.19,641.3,168.29ZM620,147v-7.89q0-3.13,3.12-3.13h11.89a3.39,3.39,0,0,1,2.46.77,3,3,0,0,1,.71,2.44v7.76a3.46,3.46,0,0,1-.76,2.49,3.12,3.12,0,0,1-2.41.68H623.16Q620,150.07,620,147Zm3.12-5.33h11.93v-1.84a1.08,1.08,0,0,0-1.2-1.2h-9.57a1,1,0,0,0-1.16,1.16Zm0,4.64c0,.72.39,1.11,1.16,1.17h9.57a1.06,1.06,0,0,0,1.2-1.21v-2H623.16Z"/><path class="cls-1" d="M647.46,169.17V139.34a3.8,3.8,0,0,1,.85-2.72,3.29,3.29,0,0,1,2.64-.81h7.77a3.62,3.62,0,0,1,2.62.81,3.33,3.33,0,0,1,.74,2.6v8.08a3.68,3.68,0,0,1-.8,2.65,3.32,3.32,0,0,1-2.56.72h-8.13v18.5c0,1.14-.52,1.72-1.56,1.72S647.46,170.31,647.46,169.17Zm11.78-29.11c0-1-.51-1.47-1.53-1.52h-5.56a1.4,1.4,0,0,0-1.56,1.52v2h8.65Zm0,6.48v-2.12h-8.65v3.69h7.12C658.68,148.11,659.18,147.59,659.24,146.54Zm-3.55,18.6a3.15,3.15,0,0,1-.7-2.46v-5.53a3.68,3.68,0,0,1,.76-2.56,3.07,3.07,0,0,1,2.45-.72h11.41a3.49,3.49,0,0,1,2.54.78,3.22,3.22,0,0,1,.7,2.5v5.53a3.59,3.59,0,0,1-.76,2.56,3,3,0,0,1-2.48.68H658.2A3.45,3.45,0,0,1,655.69,165.14Zm14-3.7v-3a1.39,1.39,0,0,0-1.52-1.52H659.6a1.43,1.43,0,0,0-1.1.4,1.63,1.63,0,0,0-.42,1.12v3c0,.93.5,1.43,1.52,1.48h8.61A1.37,1.37,0,0,0,669.73,161.44Zm2.68,7.69a1.44,1.44,0,0,1,1.6-1.65h1.8c1.23,0,1.87-.66,1.92-2V150.67h-8.56a3.75,3.75,0,0,1-2.67-.8,3.3,3.3,0,0,1-.74-2.57v-8.08a3.71,3.71,0,0,1,.82-2.67,3.36,3.36,0,0,1,2.59-.74h8.2a3.73,3.73,0,0,1,2.71.86,3.46,3.46,0,0,1,.78,2.67v27.22a4.68,4.68,0,0,1-1,3.31,3.9,3.9,0,0,1-3.19.86h-2.6C673,170.73,672.41,170.19,672.41,169.13Zm5.32-29.07c0-1-.52-1.47-1.56-1.52h-6a1.4,1.4,0,0,0-1.56,1.52v2h9.12Zm0,4.36h-9.12v2.12a1.43,1.43,0,0,0,1.56,1.57h7.56Z"/><path class="cls-1" d="M686.88,172.75a1.51,1.51,0,0,1-.5-1.14,2.45,2.45,0,0,1,.24-.92,33.39,33.39,0,0,0,3.47-7.75,28.37,28.37,0,0,0,0-16.46,33.32,33.32,0,0,0-3.47-7.74,2.5,2.5,0,0,1-.24-.92,1.51,1.51,0,0,1,.5-1.15,1.69,1.69,0,0,1,1.14-.46,1.37,1.37,0,0,1,.74.17,2.68,2.68,0,0,1,.63.56,23.25,23.25,0,0,1,4.18,7.88,34.23,34.23,0,0,1,0,19.78,23.39,23.39,0,0,1-4.18,7.89,2.93,2.93,0,0,1-.63.56,1.38,1.38,0,0,1-.74.16A1.65,1.65,0,0,1,686.88,172.75Z"/><rect class="cls-2" width="1000" height="200"/></svg>