<svg id="圖層_1" data-name="圖層 1" xmlns="http://www.w3.org/2000/svg" viewBox="0 0 1000 1000"><defs><style>.cls-1{fill:#3b5875;}.cls-2{fill:none;}.cls-3{fill:#f40000;}</style></defs><path class="cls-1" d="M113.8,140.23v-21a50.2,50.2,0,0,1-4,9.44c-1.71,3.15-3,4.73-4,4.73-1.3,0-2-.87-2-2.61a5.23,5.23,0,0,1,1.25-2.5,55.41,55.41,0,0,0,8.26-16.77h-6.79c-1.7,0-2.55-.72-2.55-2.17s.85-2.12,2.55-2.12h7.27V99.84q-6.08.7-7,.7a1.94,1.94,0,0,1-2.23-2.17,1.54,1.54,0,0,1,.9-1.41,6.64,6.64,0,0,1,2.68-.6,59.63,59.63,0,0,0,13.79-2.44,4.67,4.67,0,0,1,1.41-.33c1.42,0,2.12.75,2.12,2.23s-2.44,2.53-7.33,3.37v8h5.11c1.66,0,2.49.72,2.49,2.17s-.83,2.12-2.49,2.12h-5.11v5.7a1.57,1.57,0,0,1,1.41-.82,3,3,0,0,1,1.55.82,14.89,14.89,0,0,1,2.2,2.33q2.61,3.25,2.61,4.13a1.88,1.88,0,0,1-2.12,2.12,1.84,1.84,0,0,1-1.47-1c-.68-1-1.43-2.08-2.22-3.1a22.67,22.67,0,0,1-2-2.71v21.23c0,1.55-.72,2.33-2.17,2.33S113.8,141.78,113.8,140.23Zm28.72-.22V127.2l-17,3.42a1.9,1.9,0,0,1-2.12-2.17c0-1.16.71-1.87,2.12-2.12l17-3.48V95.55c0-1.63.73-2.45,2.17-2.45s2.12.82,2.12,2.45V122l3.53-.76,1.09-.11c1.26-.11,1.9.56,1.9,2a2.05,2.05,0,0,1-.52,1.46,3.26,3.26,0,0,1-1.6.82l-4.4,1V140c0,1.59-.7,2.39-2.12,2.39S142.52,141.6,142.52,140Zm-10.09-23.13a24.63,24.63,0,0,0-3.43-2.77c-1.19-.83-1.79-1.59-1.79-2.28,0-1.33.76-2,2.28-2a7,7,0,0,1,3.15,1.57c1.31.94,2.46,1.85,3.48,2.71a3.07,3.07,0,0,1,1.3,2.12c0,1.49-.78,2.23-2.33,2.23C134.47,118.46,133.58,117.93,132.43,116.88Zm1.68-12.59c-1.09-.91-2.43-2-4-3.2a2.78,2.78,0,0,1-1.36-2c0-1.38.75-2.07,2.23-2.07q1,0,4.51,2.55t3.42,3.86c0,1.45-.8,2.17-2.39,2.17A4.55,4.55,0,0,1,134.11,104.29Z"/><path class="cls-1" d="M166.68,140a6.51,6.51,0,0,1-1.46-4.67v-34c0-2.17.48-3.72,1.46-4.67a6.48,6.48,0,0,1,4.62-1.41h26.11q3.26,0,4.67,1.41c.94,1,1.41,2.5,1.41,4.67v34c0,2.28-.47,3.83-1.41,4.67a6.81,6.81,0,0,1-4.67,1.41H171.3C169.12,141.37,167.59,140.9,166.68,140Zm32.14-37.35c0-2-1-3-2.93-3h-23c-2,0-3,1-3,2.94v6.19h28.94Zm0,20.14v-9.88H169.88v9.88Zm0,11.34v-7.16H169.88v7c0,2,1,3,2.94,3h23C197.81,137,198.82,136.05,198.82,134.09Z"/><rect class="cls-2" width="1000" height="1000"/><path class="cls-1" d="M367.55,121.39l-2.5-5v24.1c0,1.42-.65,2.12-1.95,2.12s-2-.7-2-2.12V117.81q-2.92,11.67-5.64,11.67a1.49,1.49,0,0,1-1.22-.49,1.85,1.85,0,0,1-.41-1.25,4.72,4.72,0,0,1,.7-2.44,50.07,50.07,0,0,0,6.14-17.1h-4.13c-1.62,0-2.44-.69-2.44-2.07s.82-2,2.44-2h4.56v-9c0-1.41.66-2.11,2-2.11s1.95.7,1.95,2.11v9h3.37c1.7,0,2.55.67,2.55,2s-.85,2.07-2.55,2.07h-3.37v7a1.52,1.52,0,0,1,1.36-.81c.29,0,.71.29,1.25.87a14.28,14.28,0,0,1,1.74,2.44c1.37,2.32,2.06,3.78,2.06,4.4,0,1.19-.56,1.79-1.68,1.79C369.12,123.94,368.38,123.09,367.55,121.39Zm16.42,16a1.63,1.63,0,0,1-1.27.51,3.39,3.39,0,0,1-1.66-.7c-.71-.47-1.82-1.32-3.34-2.55a20.14,20.14,0,0,1-4.07,4.88c-1.63,1.41-2.77,2.12-3.42,2.12a2.06,2.06,0,0,1-1.49-.49,1.77,1.77,0,0,1-.52-1.36,2.07,2.07,0,0,1,.33-1.22,4.46,4.46,0,0,1,1.08-1,16,16,0,0,0,6.63-9.18,4.51,4.51,0,0,1-3-1.14,3.93,3.93,0,0,1-.95-2.87v-6q0-4.12,4.18-4.13h4.61a4.24,4.24,0,0,1,3.12,1.06,4.15,4.15,0,0,1,1.06,3.07v6q0,4.06-4.18,4.07h-1l-.87,3c3.48,2,5.21,3.44,5.21,4.45A2.17,2.17,0,0,1,384,137.38Zm19.57-27.55c0,1.59-.76,2.38-2.28,2.38a5.58,5.58,0,0,1-2.55-.84,43.06,43.06,0,0,1-4.07-2.68,2.06,2.06,0,0,1,.11.65c0,1.26-.76,1.9-2.28,1.9H379.6c-1.52,0-2.28-.64-2.28-1.9a3.25,3.25,0,0,1,.11-.71l-.11.11c-3.07,3-5.14,4.45-6.19,4.45A1.92,1.92,0,0,1,369,111a2.17,2.17,0,0,1,.54-1.25,6.64,6.64,0,0,1,1.52-1.36A35.41,35.41,0,0,0,382.7,94.73c.72-1.41,1.52-2.11,2.39-2.11a2.54,2.54,0,0,1,1.65.51,1.54,1.54,0,0,1,.63,1.22,2.61,2.61,0,0,1-.38,1.09,36.67,36.67,0,0,0,14.87,12.16A2.42,2.42,0,0,1,403.54,109.83Zm-27.3,13.62c0,.84.36,1.29,1.08,1.36h2.77a1.32,1.32,0,0,0,1-.33,1.53,1.53,0,0,0,.29-1v-4.18a1.54,1.54,0,0,0-.29-1,1.5,1.5,0,0,0-1-.38h-2.77q-1.08,0-1.08,1.41Zm16.88-16a34.9,34.9,0,0,1-7.93-8.63,50.06,50.06,0,0,1-6.73,8.74,3.61,3.61,0,0,1,1.14-.16h12.71A4.6,4.6,0,0,1,393.12,107.49Zm9.61,32.19a2,2,0,0,1-2.23,2.23,3,3,0,0,1-2.11-1.3,48.25,48.25,0,0,0-5.81-5.43,24.44,24.44,0,0,1-4,4.61q-2.43,2.28-3.8,2.28a2.44,2.44,0,0,1-1.65-.49,1.62,1.62,0,0,1-.57-1.3,2.07,2.07,0,0,1,.49-1.36,8.18,8.18,0,0,1,1.73-1.41,15.23,15.23,0,0,0,6.41-9.12,4.8,4.8,0,0,1-3.18-.87,3.71,3.71,0,0,1-1.05-2.87v-6.36a4.1,4.1,0,0,1,1.05-3,4.36,4.36,0,0,1,3.13-1h5.21c2.71,0,4.07,1.4,4.07,4.18v5.92c0,2.72-1.32,4.07-4,4.07h-1.42a16.09,16.09,0,0,1-1,3.48l1.95,1.3Q402.73,137.63,402.73,139.68Zm-11.62-15.3a1.11,1.11,0,0,0,.71.43h3.25a1.25,1.25,0,0,0,1.42-1.41v-4.13a1.3,1.3,0,0,0-1.42-1.46h-3.2a1.31,1.31,0,0,0-1,1.46v4.13A1.85,1.85,0,0,0,391.11,124.38Z"/><path class="cls-1" d="M458.92,138.65c0,1.52-1,2.28-3,2.28q-12.92,0-18.67-.59a28.75,28.75,0,0,1-10.21-2.88,16.51,16.51,0,0,1-6.46-6.08l-.11.05a29.21,29.21,0,0,1-4.29,7q-2.6,3.19-4.34,3.2a2,2,0,0,1-2.23-2.23q0-.91,2.34-3.09,5.6-5.22,6.89-15.69a3.61,3.61,0,0,1,.79-2,2.08,2.08,0,0,1,1.6-.67,2,2,0,0,1,2.23,2.22,29.53,29.53,0,0,1-1.41,6.79q4.17,6.73,10,8.36V112.76H419.18c-1.67,0-2.5-.69-2.5-2.07s.83-2,2.5-2h30.13q2.55,0,2.55,2t-2.55,2.07H436.44v8.63h13c1.74,0,2.61.71,2.61,2.12s-.87,2.11-2.61,2.11h-13V136a95.37,95.37,0,0,0,11,.55l8.69-.17Q458.92,136.32,458.92,138.65Zm-48.37-29.8v-4.78c0-2,.41-3.35,1.25-4.07a5.87,5.87,0,0,1,4.12-1.3h15.53V95.38c0-1.55.81-2.33,2.44-2.33s2.44.78,2.44,2.33V98.7h16.45a5.65,5.65,0,0,1,3.91,1.3,5.15,5.15,0,0,1,1.25,3.85v5a2.91,2.91,0,0,1-.54,1.93,2.21,2.21,0,0,1-1.74.62c-1.45,0-2.17-.85-2.17-2.55V105a2.32,2.32,0,0,0-.57-1.71,2.07,2.07,0,0,0-1.66-.51h-34a1.89,1.89,0,0,0-2.11,2.22v3.86q0,2.55-2.28,2.55T410.55,108.85Z"/><path class="cls-1" d="M687.28,104.67,686.14,101H681.8c-2.86,3.36-5,5-6.3,5a1.8,1.8,0,0,1-2-2.07c0-.61.53-1.32,1.58-2.11a21.25,21.25,0,0,0,6.19-7.06,2.81,2.81,0,0,1,2.55-1.74c1.48,0,2.23.53,2.23,1.57a6.74,6.74,0,0,1-1.47,2.83H695.7c1.41,0,2.12.59,2.12,1.79s-.71,1.74-2.12,1.74h-5.43a11.51,11.51,0,0,1,1.3,4c0,1.16-.69,1.74-2.06,1.74C688.35,106.73,687.61,106,687.28,104.67Zm-11.83,31.87V114.17q0-4.19,4.18-4.18h1.19l.71-3.31c.22-.94.92-1.41,2.12-1.41,1.41,0,2.11.48,2.11,1.46a13.87,13.87,0,0,1-1.19,3.26h3.64q4.29,0,4.29,4.29V119c0,2.78-1.4,4.18-4.18,4.18h-9.13v3.47H689q4.13,0,4.13,4.34v5.7q0,4.19-4.13,4.18h-9.39Q675.45,140.82,675.45,136.54ZM688.59,118v-2.93c0-.94-.51-1.45-1.52-1.52h-6.3a1.44,1.44,0,0,0-1.58,1.52v4.45h7.88A1.38,1.38,0,0,0,688.59,118Zm.7,17.7v-4c0-.94-.5-1.44-1.52-1.52h-8.58v5.54c0,.94.53,1.45,1.58,1.52h7A1.34,1.34,0,0,0,689.29,135.72ZM706,140.34V121.12h-4.39a1.59,1.59,0,0,0-1.74,1.73v13.2c0,1.63-.67,2.44-2,2.44s-2-.81-2-2.44V121.77a5,5,0,0,1,1.06-3.56,4,4,0,0,1,3.34-.95H706v-5.21h-9.44c-1.67,0-2.5-.67-2.5-2s.83-2,2.5-2h23.88c1.63,0,2.45.65,2.45,2s-.82,2-2.45,2H710v5.21h6.46a4.87,4.87,0,0,1,3.5,1.09,4.31,4.31,0,0,1,1,3.42v11.4a5.53,5.53,0,0,1-1.19,3.91,4.78,4.78,0,0,1-3.8,1.14h-2.12a1.85,1.85,0,0,1-2.12-2.06c0-1.49.64-2.23,1.9-2.23h1.47c1.16,0,1.75-.62,1.79-1.85v-9.23a1.61,1.61,0,0,0-.46-1.24,2,2,0,0,0-1.28-.49H710v19.22q0,2.22-2,2.22C706.67,142.56,706,141.82,706,140.34Zm3.7-34.53a17.73,17.73,0,0,1-1.14-3.26l-.49-1.57h-4.67q-3.25,4.72-5,4.72c-1.34,0-2-.63-2-1.9a2.31,2.31,0,0,1,.82-1.57,22,22,0,0,0,4.94-7.5A2.29,2.29,0,0,1,704.38,93c1.45,0,2.18.56,2.18,1.68a9.81,9.81,0,0,1-1.14,2.77h15c1.42,0,2.12.59,2.12,1.79s-.7,1.74-2.12,1.74h-8a18.13,18.13,0,0,1,1.25,3.91c0,1.15-.72,1.73-2.17,1.73A2.12,2.12,0,0,1,709.71,105.81Z"/><path class="cls-1" d="M744.72,139.79a14.8,14.8,0,0,1-6.62-3.69l-.11,0q-5.26,4.56-6.9,4.56c-1.41,0-2.11-.84-2.11-2.5,0-1.16.81-2.06,2.44-2.71a33.87,33.87,0,0,0,4.29-2.23v-10a1.49,1.49,0,0,0-1.68-1.69h-2.94c-1.52,0-2.28-.67-2.28-2s.76-2,2.28-2h4.24a5,5,0,0,1,3.42,1,3.89,3.89,0,0,1,1,3.18v11l1.52,1.41q3.53,2.83,15.79,2.83l19.28-.22a1.8,1.8,0,0,1,2.06,2q0,2.22-3.15,2.22l-16.77-.05Q748.74,140.88,744.72,139.79ZM736,110.64l-4.51-2a2.37,2.37,0,0,1-1.68-2.12,1.88,1.88,0,0,1,2.12-2.12,18.49,18.49,0,0,1,4.51,1.52q3.52,1.52,3.52,3.15c0,1.48-.7,2.23-2.11,2.23A4.13,4.13,0,0,1,736,110.64Zm2.85-9.8c-.56-.27-.89-.44-1-.51l-3.59-1.85c-1.26-.65-1.9-1.41-1.9-2.28a1.85,1.85,0,0,1,2.07-2.12,19,19,0,0,1,4.29,1.58,8.91,8.91,0,0,1,2.55,1.6,2.41,2.41,0,0,1,.87,1.71c0,1.52-.71,2.28-2.12,2.28A3.41,3.41,0,0,1,738.83,100.84Zm2.63,24.46a1.64,1.64,0,0,1,1.85-1.85h7.49v-3.58h-5.64a1.61,1.61,0,0,1-1.85-1.79c0-1.2.61-1.79,1.85-1.79h5.64v-1.47a2,2,0,0,1,.54-1.49,2.2,2.2,0,0,1,1.58-.52,2.27,2.27,0,0,1,1.6.52,1.9,1.9,0,0,1,.57,1.49v1.47h8.69v-1.47c0-1.34.7-2,2.11-2a1.8,1.8,0,0,1,2.07,2v1.47h5.75a1.79,1.79,0,1,1,0,3.58H768v3.58h7.71a1.71,1.71,0,0,1,1.9,1.9,1.87,1.87,0,0,1-.49,1.36,1.91,1.91,0,0,1-1.41.49H743.31A1.66,1.66,0,0,1,741.46,125.3Zm1.85,7.27c0-1,.61-1.64,1.85-1.9l5.15-1.57,3.31-1.25.44,0a1.63,1.63,0,0,1,1.46.4,2.17,2.17,0,0,1,.49,1.55q0,.7-1.11,1.47a20.5,20.5,0,0,1-3.5,1.73,19.85,19.85,0,0,1-6.14,1.74C744,134.69,743.31,134,743.31,132.57ZM746,111.83a2.83,2.83,0,0,1-1.57-1,3,3,0,0,1-.49-1.82V98.43a4,4,0,0,1,.7-2.47c.47-.64,1.56-1,3.26-1h6.57q4.29,0,4.29,3.53v2.88a3.26,3.26,0,0,1-1,2.58,4.66,4.66,0,0,1-3,1L748,105v2.61c0,.51.13.83.38,1a4.87,4.87,0,0,0,2,.32c2.64,0,4.11-.11,4.4-.32a2.82,2.82,0,0,0,.76-1.41c.22-.76.9-1.14,2.06-1.14a2.58,2.58,0,0,1,1.6.43,1.42,1.42,0,0,1,.57,1.19,4,4,0,0,1-1.9,3.8q-1.41.76-6,.76A27.1,27.1,0,0,1,746,111.83Zm8.74-11.23V99.35c0-.69-.47-1-1.41-1h-3.86q-1.41,0-1.41,1.14v2.33h5.27A1.22,1.22,0,0,0,754.71,100.6Zm9.07,22.85v-3.58h-8.69v3.58Zm-1.2-11.62a2.34,2.34,0,0,1-1.49-1,3.18,3.18,0,0,1-.52-1.87V98.43c0-2.28,1.4-3.43,4.18-3.43H772a5,5,0,0,1,3.23.87,3.38,3.38,0,0,1,1.06,2.77v2.77a3.23,3.23,0,0,1-1,2.58,4.63,4.63,0,0,1-3,1l-7.71,0v2.56c0,.76.47,1.19,1.41,1.3l3.42.05c2.39.08,3.69-.23,3.91-.92a2.54,2.54,0,0,1,2.49-2,2.61,2.61,0,0,1,1.61.43,1.48,1.48,0,0,1,.57,1.25,4,4,0,0,1-1.47,3.42q-1.58,1.08-7.49,1.08A32.78,32.78,0,0,1,762.58,111.83Zm5.21,21.45c-3.4-1.49-5.1-2.66-5.1-3.53a1.85,1.85,0,0,1,2.12-2.06,4.47,4.47,0,0,1,1.63.49,53.77,53.77,0,0,0,7.27,2.6c2.25.62,3.37,1.47,3.37,2.55,0,1.41-.76,2.12-2.28,2.12Q772.79,135.45,767.79,133.28Zm4.46-32.68V99.35c0-.69-.46-1-1.36-1h-4.78c-1,0-1.46.38-1.46,1.14v2.33h6.24A1.2,1.2,0,0,0,772.25,100.6Z"/><path class="cls-1" d="M792,139.68V114c-1.48,2.61-2.59,4.41-3.31,5.4s-1.34,1.55-1.85,1.66a1.49,1.49,0,0,1-.48,0,1.65,1.65,0,0,1-1.33-.59,2.32,2.32,0,0,1-.52-1.58,3.29,3.29,0,0,1,.65-2,83,83,0,0,0,10.26-21.17,5.53,5.53,0,0,1,1.06-2,2,2,0,0,1,1.49-.67c1.74,0,2.61.7,2.61,2.11a12.11,12.11,0,0,1-1.11,3.67q-1.12,2.68-3.12,6.49v34.41c0,1.78-.73,2.66-2.18,2.66S792,141.46,792,139.68Zm6.46-24.48c0-1.37.84-2.06,2.5-2.06h6.62l-1.73-9.88h-2.72c-1.66,0-2.5-.71-2.5-2.12s.84-2.06,2.5-2.06h11V95.44c0-1.63.78-2.44,2.33-2.44s2.28.81,2.28,2.44v3.64h11.13c1.7,0,2.55.68,2.55,2.06s-.85,2.12-2.55,2.12h-2.44a81.13,81.13,0,0,1-2.06,9.88h6.24c1.7,0,2.55.7,2.55,2.11s-.85,2-2.55,2H800.91C799.25,117.26,798.41,116.58,798.41,115.2Zm5.43,25a5.28,5.28,0,0,1-1.36-4v-8.58a6.09,6.09,0,0,1,1.36-4.18,5.2,5.2,0,0,1,3.91-1.3H825c2,0,3.33.45,4.13,1.36a5.73,5.73,0,0,1,1.35,4V136a5.82,5.82,0,0,1-1.35,4.18,5.21,5.21,0,0,1-3.91,1.31H808A5.77,5.77,0,0,1,803.84,140.17Zm21.93-5v-6.62a2.41,2.41,0,0,0-.51-1.69,2.31,2.31,0,0,0-1.71-.54H809.16a2.33,2.33,0,0,0-1.68.52,2,2,0,0,0-.49,1.65v6.68c0,1.48.72,2.21,2.17,2.17h14.39C825.07,137.35,825.81,136.63,825.77,135.18Zm-3-31.92H810c.72,3.15,1.34,6.44,1.84,9.88H821C821.43,111.15,822,107.85,822.79,103.26Z"/><path class="cls-1" d="M889.46,129.91c0,1.34-.85,2-2.56,2h-20v7.93c0,1.81-.74,2.71-2.22,2.71s-2.18-.9-2.18-2.71v-7.93H842.93c-1.66,0-2.5-.67-2.5-2s.84-2.06,2.5-2.06h19.54V123l-.86,0-.82.11-6.95.65a1.89,1.89,0,0,1-1.57-.51,2.32,2.32,0,0,1-.54-1.66c0-.9.52-1.45,1.57-1.63l5.1-.27,3.42-3.91q-4.67-3.69-6.29-4.72c-1.6-1-2.39-1.79-2.39-2.44a1.65,1.65,0,0,1,1.84-1.9,6.67,6.67,0,0,1,2.83,1.46,57.37,57.37,0,0,0,3.8-5.92H844.5c-1.7,0-2.55-.72-2.55-2.17s.85-2.06,2.55-2.06h17.65V95.55A2.25,2.25,0,0,1,864.7,93c1.63,0,2.44.85,2.44,2.55V98.1h18c1.73,0,2.6.71,2.6,2.12s-.87,2.11-2.6,2.11h-19a52.39,52.39,0,0,1-5.6,7.82l3.7,2.82,3.69-4.88a22.31,22.31,0,0,1,1.76-2.09,1.86,1.86,0,0,1,1.17-.68c1.45,0,2.17.65,2.17,2s-3.47,5.27-10.42,12.22l8.79-.6a10.51,10.51,0,0,1-1.46-3.31q0-1.47,1.68-1.47a2,2,0,0,1,1.63.87l2.28,3.64a26.33,26.33,0,0,1,1.63,2.85,5.27,5.27,0,0,1,.54,1.49c0,1.2-.73,1.8-2.17,1.8-.87,0-1.76-1-2.66-2.88l-6,.7v5.27h20C888.61,127.85,889.46,128.54,889.46,129.91Zm-46.26-9.33c1.16-1,2.53-2.32,4.13-3.91,1.44-1.45,2.4-2.18,2.88-2.18a1.68,1.68,0,0,1,1.9,1.9,4.37,4.37,0,0,1-1.36,2.28q-5.81,6.74-7.39,6.74a1.92,1.92,0,0,1-2.17-2.17C841.19,122.62,841.86,121.73,843.2,120.58Zm2-11.79c-1.12-.9-1.68-1.68-1.68-2.33a1.66,1.66,0,0,1,1.9-1.85q.87,0,3.85,2.34c2,1.55,2.93,2.57,2.93,3a1.94,1.94,0,0,1-2.17,2.22,3.55,3.55,0,0,1-1.95-1.08Zm33.23,4.35a1.73,1.73,0,0,1-2-2,1.57,1.57,0,0,1,.44-1,8.87,8.87,0,0,1,1.41-1.36,40.3,40.3,0,0,0,3.25-3,3.48,3.48,0,0,1,2.5-1.41,1.89,1.89,0,0,1,2.17,2.11q0,1.26-3.36,3.91T878.44,113.14Zm1.84,7.27c-.83-.94-1.44-1.65-1.82-2.14a2.22,2.22,0,0,1-.57-1.06c0-1.23.65-1.85,2-1.85q.81,0,4.45,3.15c2.42,2.14,3.64,3.59,3.64,4.34,0,1.42-.8,2.12-2.39,2.12-.55,0-1.79-1-3.75-2.93Z"/><path class="cls-1" d="M107.29,290.5c-.87-.87-1.3-2.3-1.3-4.29V250.43c0-2,.44-3.43,1.33-4.31a5.8,5.8,0,0,1,4.26-1.33h34.2c2,0,3.42.44,4.29,1.33s1.3,2.32,1.3,4.31v35.78c0,2-.44,3.42-1.33,4.29a5.92,5.92,0,0,1-4.26,1.3h-34.2C109.59,291.8,108.16,291.37,107.29,290.5ZM147.08,285V251.57c0-1.88-1-2.82-2.87-2.82H113.15c-1.92,0-2.87.94-2.87,2.82V285a2.54,2.54,0,0,0,2.87,2.88h31.06A2.54,2.54,0,0,0,147.08,285Zm-35.31-2.6a2.47,2.47,0,0,1-.41-1.58,1.6,1.6,0,0,1,.76-1.52,18.13,18.13,0,0,1,4.62-1,21,21,0,0,0,2.71-.46c1-.23,1.77-.39,2.17-.46l2.72-.6,2.55-.54,1.25-.27a1,1,0,0,1,1.14.33,2.15,2.15,0,0,1,.38,1.35,1.48,1.48,0,0,1-1.2,1.47l-.81.27-2.88.87c-.43.14-1.07.31-1.9.49s-1.5.34-2,.49l-2.77.59q-4.56,1-5,1A1.57,1.57,0,0,1,111.77,282.36Zm12.46,1.95a1.84,1.84,0,0,1,.7-1.22,7.55,7.55,0,0,1,1.74-1.22,21.29,21.29,0,0,0,6.46-4.94q-2.82-6.8-3.31-17.27H114a3.16,3.16,0,0,1-1.85-.43,1.69,1.69,0,0,1-.6-1.47,1.86,1.86,0,0,1,.6-1.52,2.92,2.92,0,0,1,1.85-.49h15.58v-2.87c0-1.63.67-2.45,2-2.45a1.63,1.63,0,0,1,1.46.76,4,4,0,0,1,.49,2.18v2.38h9.61a2.94,2.94,0,0,1,1.85.49,1.89,1.89,0,0,1,.59,1.52,1.72,1.72,0,0,1-.59,1.47,3.18,3.18,0,0,1-1.85.43h-9.39a59.94,59.94,0,0,0,.62,8.2,18.78,18.78,0,0,0,1.5,5.1,48.94,48.94,0,0,0,3.58-8.25c.43-1.26,1.08-1.9,1.95-1.9a2.86,2.86,0,0,1,1.69.41,1.62,1.62,0,0,1,.54,1.38q0,.76-2,5a37.73,37.73,0,0,1-4,7.28V277a17,17,0,0,0,2,3c.67.76,1.22,1.14,1.66,1.14s.64-.35.95-1a10.19,10.19,0,0,0,.68-2.83,2.14,2.14,0,0,1,.51-1.19,1.39,1.39,0,0,1,1.06-.44q1.68,0,1.68,1.8a13.94,13.94,0,0,1-1.19,5.7q-1.25,2.92-3.15,2.93-3.36,0-6.78-5.7h-.17a13.89,13.89,0,0,1-2.17,2.22,21.91,21.91,0,0,1-2.71,1.85q-1.8,1-2.61,1.44a3.2,3.2,0,0,1-1.36.4C124.84,286.26,124.23,285.61,124.23,284.31Zm-10.86-13.68V266q0-3.69,3.85-3.69h6.68a3.92,3.92,0,0,1,2.82.89,3.74,3.74,0,0,1,.93,2.8v4.67q0,3.75-3.75,3.75h-6.68Q113.37,274.38,113.37,270.63Zm10.59-.92v-2.77a1.45,1.45,0,0,0-.28-1,1.26,1.26,0,0,0-1-.3h-4.24a1.15,1.15,0,0,0-1.3,1.31v2.77a1.15,1.15,0,0,0,1.3,1.3h4.24C123.54,271,124,270.58,124,269.71Zm15.63-15.07a14.21,14.21,0,0,1-1.19-1.38,4,4,0,0,1-1.09-2.07,1.36,1.36,0,0,1,.49-1.14,2.09,2.09,0,0,1,1.3-.38c.55,0,1.25.49,2.12,1.47a4.16,4.16,0,0,1,1.3,2.23q0,1.62-2,1.62A1.36,1.36,0,0,1,139.59,254.64Z"/><path class="cls-1" d="M159.62,289.47a1.92,1.92,0,0,1,.79-1.55,6.2,6.2,0,0,1,2.47-1,43.67,43.67,0,0,0,18-7.88v-.1a35.16,35.16,0,0,1-8.14-11c-1.88-4.09-2.83-6.75-2.83-8s.78-1.9,2.34-1.9a2.25,2.25,0,0,1,1.52.57,3.52,3.52,0,0,1,1,1.65,35.57,35.57,0,0,0,9.5,15.64h.11q7.32-7.87,9.28-20.25H163c-1.88,0-2.82-.72-2.82-2.17s.94-2.23,2.82-2.23h18.57v-5.21c0-2,.8-3,2.39-3a2.16,2.16,0,0,1,1.82.73,3.77,3.77,0,0,1,.57,2.31v5.21H205.5c1.84,0,2.77.74,2.77,2.23s-.93,2.17-2.77,2.17h-6.9q-3,14.49-10.91,22.86v.1a47.89,47.89,0,0,0,18.24,7.82c2,.44,3,1.3,3,2.61,0,1.81-.8,2.71-2.39,2.71a4.4,4.4,0,0,1-1-.16c-.44-.11-.76-.2-1-.27q-12.37-3.37-20.19-9.56h-.11A44.84,44.84,0,0,1,172.44,289q-6.84,3-10.48,3Q159.62,292,159.62,289.47Z"/><path class="cls-1" d="M104.9,441.72a2.61,2.61,0,0,1-.6-1.87,2,2,0,0,1,.79-1.58,4.66,4.66,0,0,1,2.31-.87q13.89-1.89,17-10.47h-18c-1.6,0-2.39-.64-2.39-1.9s.79-2,2.39-2h4.29V415a5.17,5.17,0,0,1,1.11-3.66,4.51,4.51,0,0,1,3.61-1.06h10.48v-2.33c0-2.1.72-3.15,2.17-3.15s2.17,1,2.17,2.93l0,2.55h11.78a5.13,5.13,0,0,1,3.71,1.14,4.37,4.37,0,0,1,1,3.58v8.09h4.29c1.63,0,2.44.65,2.44,2s-.81,1.9-2.44,1.9H131.23q4.67,7.71,18.51,10.2a5.41,5.41,0,0,1,2.47.93,1.85,1.85,0,0,1,.85,1.46c0,1.74-.84,2.61-2.5,2.61q-3.26,0-9.29-2.45-9.12-3.69-13.08-11.07H128a18.31,18.31,0,0,1-6.89,8.52q-4.45,3-13.14,4.94l-1.3.17A2,2,0,0,1,104.9,441.72Zm12.84-34.53a2.77,2.77,0,0,1-.52-1.87v-2.71H106.75a2.79,2.79,0,0,1-1.82-.49,1.84,1.84,0,0,1-.57-1.47,1.81,1.81,0,0,1,.57-1.46,2.73,2.73,0,0,1,1.82-.49h10.47v-3.21c0-1.63.69-2.44,2.07-2.44s2.06.81,2.06,2.44v3.21h14.28v-3.21a2.85,2.85,0,0,1,.49-1.84,1.9,1.9,0,0,1,1.57-.6c1.34,0,2,.81,2,2.44v3.21h10.86c1.63,0,2.44.65,2.44,1.95s-.81,2-2.44,2H139.7v2.71a2.83,2.83,0,0,1-.49,1.87,1.88,1.88,0,0,1-1.52.57,2,2,0,0,1-1.57-.57,2.83,2.83,0,0,1-.49-1.87v-2.71H121.35v2.71a2.71,2.71,0,0,1-.52,1.87,2.38,2.38,0,0,1-3.09,0Zm8.06,6.92h-8.74a2.14,2.14,0,0,0-1.52.47,2,2,0,0,0-.49,1.49v7h10.32A79.5,79.5,0,0,0,125.8,414.11Zm16.45,2c0-1.41-.67-2.06-2-2H130c-.19,4.31-.38,7.3-.6,9h12.81Z"/><path class="cls-1" d="M159.62,439.47a1.92,1.92,0,0,1,.79-1.55,6.2,6.2,0,0,1,2.47-1,43.67,43.67,0,0,0,18-7.88v-.1a35.16,35.16,0,0,1-8.14-11c-1.88-4.09-2.83-6.75-2.83-8s.78-1.9,2.34-1.9a2.25,2.25,0,0,1,1.52.57,3.52,3.52,0,0,1,1,1.65,35.57,35.57,0,0,0,9.5,15.64h.11q7.32-7.87,9.28-20.25H163c-1.88,0-2.82-.72-2.82-2.17s.94-2.23,2.82-2.23h18.57v-5.21c0-2,.8-3,2.39-3a2.16,2.16,0,0,1,1.82.73,3.77,3.77,0,0,1,.57,2.31v5.21H205.5c1.84,0,2.77.74,2.77,2.23s-.93,2.17-2.77,2.17h-6.9q-3,14.49-10.91,22.86v.1a47.89,47.89,0,0,0,18.24,7.82c2,.44,3,1.3,3,2.61,0,1.81-.8,2.71-2.39,2.71a4.4,4.4,0,0,1-1-.16c-.44-.11-.76-.2-1-.27q-12.37-3.37-20.19-9.56h-.11A44.84,44.84,0,0,1,172.44,439q-6.84,3-10.48,3Q159.62,442,159.62,439.47Z"/><path class="cls-1" d="M128.71,587.13c.77.51,1.16,1,1.16,1.52a1.75,1.75,0,0,1-2,2,9.18,9.18,0,0,1-3-1.25l-2.5-1.14a23,23,0,0,1-6.79,2.93,28.43,28.43,0,0,1-7.87,1.25c-1.63,0-2.44-.63-2.44-1.9s1.26-1.79,3.8-1.9a22.93,22.93,0,0,0,9.06-2L112,585a7.11,7.11,0,0,1-2.42-1,1.77,1.77,0,0,1-.78-1.46,5,5,0,0,1,1-2.23l.71-1.14h-4.67c-1.27,0-1.9-.58-1.9-1.73s.63-1.69,1.9-1.69h6.51l1.42-2.66h-2.56a5.84,5.84,0,0,1-3.25-.73,2.79,2.79,0,0,1-1.14-2.42v-3.09q0-3.58,4.39-3.31h5.7V561.4h-5.26a4.81,4.81,0,0,1-3.42-1,3.85,3.85,0,0,1-.87-3.31v-1.79H105.5c-1.2,0-1.79-.56-1.79-1.69s.59-1.57,1.79-1.57h1.79v-1.58a4.94,4.94,0,0,1,1-3.42,3.92,3.92,0,0,1,3.29-.92h5.26v-1.3c0-1.34.64-2,1.9-2s1.91.67,1.91,2v1.3h5.59a4.89,4.89,0,0,1,3.42,1,4.09,4.09,0,0,1,1,3.31V552h1.42c1.23,0,1.84.54,1.84,1.63a1.49,1.49,0,0,1-.49,1.22,2.05,2.05,0,0,1-1.35.41h-1.42v1.79a4.8,4.8,0,0,1-1,3.42,4.08,4.08,0,0,1-3.34.92h-5.59v2.12h6.13a5.62,5.62,0,0,1,3.18.73,2.87,2.87,0,0,1,1.11,2.42v3.09q0,3.59-4.29,3.31h-9.12l-1.25,2.66h15.91c1.26,0,1.9.58,1.9,1.74s-.64,1.68-1.9,1.68h-4.4a17.5,17.5,0,0,1-2.82,6.35A18.5,18.5,0,0,1,128.71,587.13Zm-17.78-17.56a1.29,1.29,0,0,0,.92.3h5v-3.15h-5a1.15,1.15,0,0,0-.95.38,2.27,2.27,0,0,0-.3,1.36A1.47,1.47,0,0,0,110.93,569.57Zm.16-17.56h5.75v-2.66h-4.45c-.79,0-1.23.43-1.3,1.3Zm5.75,6.13v-2.87h-5.75v1.57a1.18,1.18,0,0,0,1.3,1.3Zm7.12,21h-9.4l-.38.6a8.39,8.39,0,0,1-.51.84,2.12,2.12,0,0,0-.41.9c0,.47.44.79,1.3,1l6.84,1.85A11,11,0,0,0,124,579.15ZM120.65,552h6.08v-1.36a1.35,1.35,0,0,0-.3-.95,1.55,1.55,0,0,0-1-.35h-4.77Zm0,6.13h4.77a1.15,1.15,0,0,0,1.31-1.3v-1.57h-6.08Zm0,11.73H126a1.13,1.13,0,0,0,.92-.33,3,3,0,0,0,0-2.49,1.13,1.13,0,0,0-.92-.33h-5.32Zm32.79,19.87c0,1.59-.73,2.39-2.18,2.39q-2.92,0-9-7.33a27.61,27.61,0,0,1-5.48,5.21q-3.26,2.28-4.56,2.28a2.11,2.11,0,0,1-1.58-.51,2.31,2.31,0,0,1-.48-1.61c0-.94.83-1.82,2.49-2.66a19.59,19.59,0,0,0,7.22-6.13,31.93,31.93,0,0,1-2.55-7.87,94,94,0,0,1-1.63-11.68c-1.3,2.58-2.35,3.86-3.15,3.86-1.19,0-1.79-.72-1.79-2.17a4.72,4.72,0,0,1,.87-2.06,48.38,48.38,0,0,0,5.59-14.39,15.15,15.15,0,0,1,1-3.37,2,2,0,0,1,1.69-.7c1.44,0,2.17.59,2.17,1.79q0,1.51-2.77,8.79h12.11c1.37,0,2.06.73,2.06,2.17s-.69,2.18-2.06,2.18h-1.9l-.17,3.31a77.45,77.45,0,0,1-1.3,11.51,29.89,29.89,0,0,1-3.47,8.63,30.17,30.17,0,0,0,6.4,5.43C152.62,587.79,153.44,588.76,153.44,589.74Zm-7.93-31,.05-.86h-6.84l.27,4.56q.56,9.5,3.15,15.14Q145,571.83,145.51,558.79Z"/><path class="cls-1" d="M208.7,581.54c0,1.2-.74,1.79-2.22,1.79H185.85v3.86a6,6,0,0,1-1.25,4.23,4.76,4.76,0,0,1-4,1.09h-3.31a3.27,3.27,0,0,1-2-.49,1.87,1.87,0,0,1-.62-1.57c0-1.34.87-2,2.6-2h2.17a1.94,1.94,0,0,0,2.12-2.12v-3H162.07c-1.45,0-2.17-.59-2.17-1.79s.72-1.79,2.17-1.79h19.54v-1.52a1.92,1.92,0,0,1,.92-1.79,18.42,18.42,0,0,1,4.35-1.36l5.64-1.46v-.11h-24c-1.41,0-2.12-.56-2.12-1.69a1.65,1.65,0,0,1,.49-1.3,2.43,2.43,0,0,1,1.63-.43h29a8.31,8.31,0,0,1,3.15.46,1.5,1.5,0,0,1,1.09,1.38q0,.87-3.75,2.45a95.85,95.85,0,0,1-10.48,3.47c-1.16.33-1.73.85-1.73,1.57v.33h20.63C208,579.75,208.7,580.35,208.7,581.54Zm-48.15-9.17v-4.18a5,5,0,0,1,.87-3.26,3.63,3.63,0,0,1,2.82-1.09H165l-1.14-15.58a3.38,3.38,0,0,1,.62-2.25,3.47,3.47,0,0,1,2.09-1.22l5.6-.92,1.73-.44.63-.16a2.79,2.79,0,0,1,.68-.11c1.12,0,1.68.63,1.68,1.9,0,.58-.51,1.06-1.52,1.44a24.86,24.86,0,0,1-5.1,1,3.7,3.7,0,0,0-1.72.57,1.3,1.3,0,0,0-.46,1.17l.06,1.52h6.62q2,0,2,1.68c0,1.13-.67,1.69-2,1.69h-6.35l.22,3h6.13q2,0,2,1.74t-2,1.68h-5.92l.22,3.31h30.62l.22-3.31h-6.52c-1.23,0-1.84-.56-1.84-1.68s.61-1.74,1.84-1.74h6.79l.11-3h-6.9a2,2,0,0,1-1.41-.41,1.68,1.68,0,0,1-.43-1.28c0-1.12.61-1.68,1.84-1.68h7.28v-1.14a1.89,1.89,0,0,0-.33-1.28,1.61,1.61,0,0,0-1.19-.35H192.9c-1.16,0-1.73-.52-1.73-1.57a1.75,1.75,0,0,1,.4-1.28,1.84,1.84,0,0,1,1.33-.41h7.71q4.24,0,4.24,3.26l-1.14,15.85h.59q4,0,3.64,4.35v4.39c0,1.71-.72,2.56-2.17,2.56a2.09,2.09,0,0,1-1.63-.6,2.89,2.89,0,0,1-.54-2v-3.36c0-1.12-.6-1.72-1.79-1.79h-35a1.67,1.67,0,0,0-1.85,1.79v3.2c0,1.7-.72,2.55-2.17,2.55S160.55,574.1,160.55,572.37Zm16.88-20.63q0-.93,3.2-2.83l1.2-.65q-3.42-2.38-3.42-3.09a1.3,1.3,0,0,1,.41-1,1.61,1.61,0,0,1,1.16-.38c.44,0,1.88.85,4.35,2.55l1.57-1.63a3.1,3.1,0,0,1,2.06-1.25,1.73,1.73,0,0,1,1.22.38,1.31,1.31,0,0,1,.41,1q0,.93-2.71,3.31l.59.33c1.52,1.09,2.28,2,2.28,2.71a1.68,1.68,0,0,1-.43,1.25,1.62,1.62,0,0,1-1.19.44,3,3,0,0,1-1.85-1l-1.9-1.8c-2.75,2.18-4.54,3.26-5.37,3.26A1.39,1.39,0,0,1,177.43,551.74ZM181,559l1.09-.65-.6-.38c-1.84-1.19-2.77-2-2.77-2.55,0-.94.53-1.41,1.58-1.41a4.54,4.54,0,0,1,1.79.81l1.68,1,.87.6,1.47-1.42a3.74,3.74,0,0,1,1.95-1.19q1.68,0,1.68,1.47c0,.65-.83,1.62-2.49,2.93,2.13,1.45,3.2,2.53,3.2,3.26a1.46,1.46,0,0,1-1.63,1.68,3.45,3.45,0,0,1-1.84-1l-2.34-2a29,29,0,0,1-3.42,2.36,5.06,5.06,0,0,1-2.06.84c-1,0-1.58-.5-1.58-1.52Q177.59,560.92,181,559Z"/><path class="cls-1" d="M148.87,705.86v28.67a6.94,6.94,0,0,1-1.68,5.1c-1.08,1.09-2.77,1.63-5.05,1.63H115.38q-3.64,0-5.1-1.63a7.36,7.36,0,0,1-1.58-5.1V705.86a7.49,7.49,0,0,1,1.58-5.1q1.41-1.63,5.1-1.63h8.25c.36-1,.81-2.53,1.36-4.56a2.36,2.36,0,0,1,2.33-2,2.74,2.74,0,0,1,1.93.63,2.08,2.08,0,0,1,.68,1.6,4.4,4.4,0,0,1-.16,1,23,23,0,0,1-1.58,3.31h13.95q3.54,0,5.11,1.63A7.1,7.1,0,0,1,148.87,705.86Zm-4.45.22c0-1.81-.88-2.71-2.66-2.71H115.92c-1.84,0-2.77.86-2.77,2.6v5.54h31.27Zm0,17.92v-8.26H113.15V724Zm0,4.23H113.15v6.08c0,1.85.89,2.77,2.66,2.77h25.84c1.85,0,2.77-.89,2.77-2.66Z"/><path class="cls-1" d="M159.9,726.66c0-1,.79-1.87,2.38-2.45a26.42,26.42,0,0,0,8.58-5.05,54.14,54.14,0,0,0-4.29-3.31c-.76-.54-1.14-1.06-1.14-1.57,0-1.2.64-1.79,1.9-1.79q1.3,0,6.08,3.85l2.45-3.75a40.59,40.59,0,0,0-5-3.36,1.73,1.73,0,0,1-1.08-1.47c0-1.26.54-1.9,1.62-1.9q1.36,0,6.08,3.26a20.19,20.19,0,0,0,1.74-6.68c0-.61-.47-.92-1.41-.92h-7.33l-.87,2.06a35,35,0,0,1-4.34,7.33,18.5,18.5,0,0,1-2.2,2.55,2.5,2.5,0,0,1-1.55.82c-1.34,0-2-.71-2-2.12a3.29,3.29,0,0,1,1.19-2.17,32.7,32.7,0,0,0,7.76-14.77c.36-1.44,1.12-2.17,2.28-2.17q2.34,0,2.34,1.68a10.89,10.89,0,0,1-.87,2.94h7.27c2.57,0,3.86,1.06,3.86,3.2q0,5.48-3.58,12.76a29.2,29.2,0,0,1-10.37,11.72c-3.7,2.43-6.21,3.64-7.55,3.64S159.9,728.21,159.9,726.66Zm.54,13.24a3.07,3.07,0,0,1,.49-1.36,35.72,35.72,0,0,0,2.93-5.91c.54-1.41,1.34-2.12,2.39-2.12,1.55,0,2.33.67,2.33,2s-1.07,4.09-3.2,7.82c-.69,1.23-1.5,1.84-2.44,1.84C161.27,742.18,160.44,741.42,160.44,739.9Zm15.74-1-1.3-5.15-.16-.76a1.9,1.9,0,0,1,2.17-2.12c1.05,0,1.92.94,2.6,2.82a29.52,29.52,0,0,1,1.58,5.32,2.48,2.48,0,0,1-.57,1.82,2.41,2.41,0,0,1-1.77.57C177.36,741.42,176.51,740.59,176.18,738.92Zm.27-11.94c0-1,.64-1.72,1.9-2.22q10.82-4.25,12.6-15.21h-5.59c-1.7,0-2.55-.68-2.55-2.06s.85-2.06,2.55-2.06h6l.06-4.07c0-.91,0-1.56,0-2s0-.68,0-.87v-3.31a1.89,1.89,0,0,1,2.17-2.22,1.89,1.89,0,0,1,2.17,2.11c0,1.74-.05,3.48-.16,5.22-.07,1.08-.14,2.78-.22,5.1h10.21c1.74,0,2.61.69,2.61,2.06s-.87,2.06-2.61,2.06H195.4a27.84,27.84,0,0,0,11.89,14.72q1.74,1.08,1.74,2.22c0,1.63-.76,2.45-2.28,2.45a5.3,5.3,0,0,1-2.91-1.17,28.38,28.38,0,0,1-3.88-3.5,26,26,0,0,1-6-10h-.1a22.87,22.87,0,0,1-9.4,12.54c-2.71,1.78-4.63,2.66-5.75,2.66C177.19,729.42,176.45,728.61,176.45,727ZM189,739.36a29.16,29.16,0,0,0-1.52-4.29,9.4,9.4,0,0,1-.76-2.33,1.9,1.9,0,0,1,2.18-2.12q1.52,0,3.25,3.8a18.73,18.73,0,0,1,1.74,4.83,2.13,2.13,0,0,1-2.39,2.44C190.26,741.69,189.43,740.92,189,739.36Zm14.17.92q-.81-1.74-2.93-5.53a12.37,12.37,0,0,0-.6-1.15,3.58,3.58,0,0,1-.54-1.35c0-1.45.78-2.17,2.34-2.17q1.29,0,4.07,4.18c1.81,2.67,2.71,4.47,2.71,5.37a2.23,2.23,0,0,1-2.55,2.5A2.73,2.73,0,0,1,203.16,740.28Zm-2.39-39.9-.65-1.09c-.07-.1-.22-.36-.46-.76a2.05,2.05,0,0,1-.35-.92c0-1.19.69-1.79,2.06-1.79.69,0,1.61.81,2.77,2.44s1.68,2.7,1.68,3.31c0,1.27-.7,1.9-2.11,1.9Q202.68,703.47,200.77,700.38Z"/><path class="cls-1" d="M109.19,866.39v6.14a52.2,52.2,0,0,1-.92,11.35q-.93,3.79-2.66,3.8a1.71,1.71,0,0,1-1.9-1.9,5.84,5.84,0,0,1,.54-2.07c.87-2.2,1.28-7.42,1.25-15.63v-2.55c0-1.63.6-2.45,1.79-2.45S109.19,864.19,109.19,866.39Zm7-7.11v31.17c0,1.41-.65,2.11-2,2.11s-2-.7-2-2.11V859.28H106.8c-1.74,0-2.6-.68-2.6-2.06s.86-2,2.6-2h15.37c1.62,0,2.44.67,2.44,2s-.82,2.06-2.44,2.06Zm-10.09-12c0-1.42.81-2.12,2.44-2.12h12.11c1.55,0,2.33.7,2.33,2.12s-.78,2.17-2.33,2.17H108.54C106.91,849.46,106.1,848.73,106.1,847.29Zm14.87,37c-1.23,0-1.85-.69-1.85-2.06v-17c0-1.41.62-2.12,1.85-2.12s1.9.71,1.9,2.12v17C122.87,883.62,122.24,884.31,121,884.31Zm32.52,3.53c0,1.55-.94,2.33-2.82,2.33H123.41c-1.91,0-2.87-.78-2.87-2.33s1-2.34,2.87-2.34h12.22V863.08h-9.12c-1.85,0-2.77-.78-2.77-2.33s.92-2.28,2.77-2.28h9.12V845.82c0-1.81.78-2.71,2.33-2.71s2.34.9,2.34,2.71v12.65h8.79c1.85,0,2.77.76,2.77,2.28s-.92,2.33-2.77,2.33H140.3V885.5h10.37Q153.49,885.5,153.49,887.84Z"/><path class="cls-1" d="M159.46,856a1.72,1.72,0,0,1,.54-1.25,3.51,3.51,0,0,1,1.63-.81,52,52,0,0,0,19.38-9.5,13.94,13.94,0,0,1,1.93-1.36,3,3,0,0,1,1.44-.43,2.84,2.84,0,0,1,1.66.51,1.5,1.5,0,0,1,.73,1.22,1.45,1.45,0,0,1-.38,1l.81.54a46.38,46.38,0,0,0,8.74,4.24,55,55,0,0,0,10,3c2.1.32,3.15,1.05,3.15,2.17q0,2.61-2.22,2.61-2.61,0-9.56-2.88l-.16-.06a2.22,2.22,0,0,1-.44,1.69,2.09,2.09,0,0,1-1.52.49H173.25q-2,0-1.95-1.74l0-.44q-7.82,3.59-9.72,3.59C160.19,858.58,159.46,857.71,159.46,856Zm5,15.64a4.33,4.33,0,0,1-1-3.26v-4.62a4.66,4.66,0,0,1,1-3.36,4.13,4.13,0,0,1,3.26-.92h32.85a4.7,4.7,0,0,1,3.36,1,4.14,4.14,0,0,1,.93,3.28v4.62a4.73,4.73,0,0,1-1,3.34,4.1,4.1,0,0,1-3.28.95H167.82A4.57,4.57,0,0,1,164.51,871.61Zm2.36,18.27a4.3,4.3,0,0,1-1-3.34v-7.33a4.72,4.72,0,0,1,1.06-3.42,4.39,4.39,0,0,1,3.39-1h27.75a4.76,4.76,0,0,1,3.47,1.08,4.33,4.33,0,0,1,1,3.37v7.33a4.8,4.8,0,0,1-1.06,3.42,4.27,4.27,0,0,1-3.39,1H170.37A4.87,4.87,0,0,1,166.87,889.88Zm15.23-27.07H169.34a1.51,1.51,0,0,0-1.68,1.74v3a1.57,1.57,0,0,0,1.68,1.73H182.1Zm16.18,17a1.6,1.6,0,0,0-.44-1.22,1.89,1.89,0,0,0-1.19-.46H171.89q-1.51,0-1.62,1.68v1.52h28Zm-.46,7.44a1.92,1.92,0,0,0,.46-1.19v-1.79h-28v1.79c0,1,.54,1.55,1.62,1.63h24.76A1.52,1.52,0,0,0,197.82,887.24Zm-24.13-19.87a5.14,5.14,0,0,1-1.15-2.39c0-.9.55-1.35,1.63-1.35.66,0,1.31.47,2,1.41a4.34,4.34,0,0,1,1,1.9c0,1-.6,1.57-1.8,1.57Q174.5,868.51,173.69,867.37Zm10-19.65a62.51,62.51,0,0,1-9.71,6h20.41A64.76,64.76,0,0,1,183.67,847.72Zm17.16,19.82v-3a1.57,1.57,0,0,0-1.74-1.74H186v6.46h13.14A1.59,1.59,0,0,0,200.83,867.54Zm-9.88-.33a4.25,4.25,0,0,1,1-2.39c.61-.87,1.23-1.3,1.84-1.3,1.23,0,1.85.47,1.85,1.41a4.09,4.09,0,0,1-.87,2.28,2.66,2.66,0,0,1-2.06,1.41Q191,868.62,191,867.21Z"/><path class="cls-1" d="M374.93,278.23c0,1.09-1.06,1.95-3.2,2.61q-9.89,3-12.32,3a2.64,2.64,0,0,1-1.71-.44,2,2,0,0,1-.52-1.57,2.15,2.15,0,0,1,.65-1.74,5.2,5.2,0,0,1,1.66-.62c.88-.24,1.93-.48,3.12-.74l1.25-.32V260.31h-4.24c-1.73,0-2.6-.7-2.6-2.11s.87-2.17,2.6-2.17h4.24v-10.1a2.89,2.89,0,0,1,.54-2,2.18,2.18,0,0,1,1.68-.59,2.22,2.22,0,0,1,1.69.59,2.89,2.89,0,0,1,.54,2V256h3.37c1.77,0,2.66.72,2.66,2.17s-.89,2.11-2.66,2.11h-3.37v17.11l3.37-.82a7.55,7.55,0,0,1,1.46-.27C374.34,276.33,374.93,277,374.93,278.23ZM405.61,256q-.17,7.59-.6,15.2-.37,7.27-.84,11.15A22.82,22.82,0,0,1,403,288a5.84,5.84,0,0,1-3,3,15.75,15.75,0,0,1-6.19,1c-.87,0-1.54,0-2-.05a3.76,3.76,0,0,1-2-.63,2,2,0,0,1-.65-1.65,2,2,0,0,1,.79-1.77,4.36,4.36,0,0,1,2.52-.57,21.29,21.29,0,0,0,4.29-.32,3.19,3.19,0,0,0,2-1.09,9.18,9.18,0,0,0,.78-2.55,32.72,32.72,0,0,0,.57-5.16q.71-11.34.93-20.41a2.42,2.42,0,0,0-.57-1.93,2.71,2.71,0,0,0-1.88-.57h-16a49.79,49.79,0,0,1-4.09,7.52c-1.22,1.72-2.24,2.58-3.07,2.58a1.8,1.8,0,0,1-2.07-2,3.38,3.38,0,0,1,.87-1.84A40.87,40.87,0,0,0,380.8,247l.59-2.38a2,2,0,0,1,2.18-1.58c1.48,0,2.22.63,2.22,1.9a22.9,22.9,0,0,1-1.63,6h15.91Q405.71,251,405.61,256Zm-11,21.93A119.25,119.25,0,0,1,380,281.27a1.9,1.9,0,0,1-1.77-.46,2.37,2.37,0,0,1-.57-1.66,1.81,1.81,0,0,1,.6-1.41,4.73,4.73,0,0,1,2.12-.87l10.42-2.22,3.53-.71a4.3,4.3,0,0,1,.7-.05c.95,0,1.51.58,1.69,1.73S396.14,277.52,394.59,278Zm-12.92-10.15c-1.71,0-2.56-.67-2.56-2s.85-2.12,2.56-2.12h11.67c1.7,0,2.55.71,2.55,2.12s-.85,2-2.55,2Z"/><path class="cls-1" d="M426.07,270.09q-.75-1.8-2-4.24v24.54c0,1.45-.68,2.17-2.06,2.17s-2.06-.72-2.06-2.17V267.1a70.5,70.5,0,0,1-3.1,9.15c-.9,2-1.73,3-2.49,3-1.27,0-1.9-.76-1.9-2.28a3.44,3.44,0,0,1,.7-1.9q4.25-6.24,6.57-16.94h-4.56c-1.63,0-2.44-.67-2.44-2s.81-2,2.44-2h4.78v-9a1.94,1.94,0,0,1,2.12-2.17c1.33,0,2,.72,2,2.17v9h2.34c1.63,0,2.44.67,2.44,2s-.81,2-2.44,2h-2.34v5a2,2,0,0,1,1-.38q1.14,0,3.21,3.69t2.06,4.4a1.71,1.71,0,0,1-.54,1.35,2.12,2.12,0,0,1-1.47.49C427.54,272.69,426.8,271.82,426.07,270.09Zm11,12a3.61,3.61,0,0,1-.92,2,34.37,34.37,0,0,1-2.77,3q-3.59,3.53-4.78,3.53a1.75,1.75,0,0,1-1.95-2,3.37,3.37,0,0,1,1.41-2.33,44.91,44.91,0,0,0,4.45-4.24c1-1.16,1.85-1.74,2.5-1.74C436.35,280.29,437,280.89,437,282.08Zm23-2.93H446.7v8.26a5.55,5.55,0,0,1-1.22,4,4.88,4.88,0,0,1-3.93,1.09h-2.66a2.15,2.15,0,1,1,0-4.29h1.79c1.15,0,1.77-.62,1.84-1.85v-7.22H429.6c-1.34,0-2-.59-2-1.79s.67-1.74,2-1.74h30.46q2,0,2,1.74C462.07,278.56,461.4,279.15,460.06,279.15Zm-32.14-32.52c0-1.19.67-1.79,2-1.79h29.86c1.34,0,2,.6,2,1.79s-.67,1.8-2,1.8h-9.12v3.9h5q4,0,4,4.08v5.15q0,4.08-4,4.08H433.57q-3.92,0-3.91-4v-5.27q0-4,3.91-4h4.88v-3.9h-8.52Q427.92,248.43,427.92,246.63Zm28.18,22.15c1.26,0,1.9.58,1.9,1.74s-.64,1.79-1.9,1.79h-23c-1.3,0-1.95-.59-1.95-1.79s.65-1.74,1.95-1.74Zm-17.65-12.92h-3.2q-1.37,0-1.47,1.47v3.26a1.39,1.39,0,0,0,1.47,1.52h3.2Zm3.69-7.43v3.9H447v-3.9Zm0,7.43v6.25H447v-6.25Zm8.53,6.25h3.42c1,0,1.46-.51,1.46-1.52v-3.26a1.33,1.33,0,0,0-1.46-1.47h-3.42Zm10.66,25.05a2.19,2.19,0,0,1,.63,1.38,1.8,1.8,0,0,1-2,2.07q-1.36,0-5-3.37l-.87-.81a21.77,21.77,0,0,1-2.5-2.66,2.11,2.11,0,0,1-.44-1.25,1.59,1.59,0,0,1,.6-1.3,1.88,1.88,0,0,1,1.2-.49,2.72,2.72,0,0,1,1.46.54c-.14-.07.85.76,3,2.5l2.06,1.63A14.49,14.49,0,0,1,461.33,287.16Z"/><path class="cls-1" d="M378.08,428.23c0,1.09-1.07,1.95-3.2,2.61q-9.88,3-12.32,3a2.64,2.64,0,0,1-1.71-.44,2,2,0,0,1-.52-1.57,2.15,2.15,0,0,1,.65-1.74,5.2,5.2,0,0,1,1.66-.62c.88-.24,1.92-.48,3.12-.74l1.25-.32V410.31h-4.24c-1.73,0-2.6-.7-2.6-2.11s.87-2.17,2.6-2.17H367v-10.1a2.89,2.89,0,0,1,.54-2,2.18,2.18,0,0,1,1.68-.59,2.22,2.22,0,0,1,1.69.59,2.89,2.89,0,0,1,.54,2V406h3.37c1.77,0,2.66.72,2.66,2.17s-.89,2.11-2.66,2.11h-3.37v17.11l3.37-.82a7.55,7.55,0,0,1,1.46-.27C377.49,426.33,378.08,427,378.08,428.23ZM408.76,406q-.17,7.59-.6,15.2c-.25,4.85-.54,8.57-.84,11.15a22.82,22.82,0,0,1-1.17,5.57,5.84,5.84,0,0,1-3,3,15.75,15.75,0,0,1-6.19,1c-.87,0-1.54,0-2-.05a3.76,3.76,0,0,1-2-.63,2,2,0,0,1-.65-1.65,2,2,0,0,1,.79-1.77,4.34,4.34,0,0,1,2.52-.57,21.29,21.29,0,0,0,4.29-.32,3.22,3.22,0,0,0,2-1.09,9.18,9.18,0,0,0,.78-2.55,32.72,32.72,0,0,0,.57-5.16q.7-11.34.93-20.41a2.42,2.42,0,0,0-.57-1.93,2.71,2.71,0,0,0-1.88-.57h-16a49.3,49.3,0,0,1-4.1,7.52q-1.81,2.58-3.06,2.58a1.8,1.8,0,0,1-2.07-2,3.43,3.43,0,0,1,.87-1.85A40.74,40.74,0,0,0,384,397l.59-2.39a2,2,0,0,1,2.17-1.57c1.49,0,2.23.63,2.23,1.9a22.9,22.9,0,0,1-1.63,6h15.91Q408.86,401,408.76,406Zm-11,21.93a119.25,119.25,0,0,1-14.55,3.31,1.9,1.9,0,0,1-1.77-.46,2.37,2.37,0,0,1-.57-1.66,1.81,1.81,0,0,1,.6-1.41,4.73,4.73,0,0,1,2.12-.87L394,424.65l3.53-.71a4.3,4.3,0,0,1,.7-.05c.94,0,1.51.58,1.69,1.73S399.29,427.52,397.74,428Zm-12.93-10.15q-2.55,0-2.55-2c0-1.41.85-2.12,2.55-2.12h11.68c1.7,0,2.55.71,2.55,2.12s-.85,2-2.55,2Z"/><path class="cls-1" d="M429.22,420.09q-.75-1.8-2-4.24v24.54c0,1.45-.68,2.17-2.06,2.17s-2.06-.72-2.06-2.17V417.1a70.5,70.5,0,0,1-3.1,9.15c-.9,2-1.73,3-2.49,3-1.27,0-1.9-.76-1.9-2.28a3.44,3.44,0,0,1,.7-1.9q4.23-6.24,6.57-16.94h-4.56c-1.63,0-2.44-.67-2.44-2s.81-2,2.44-2h4.78v-9a1.94,1.94,0,0,1,2.12-2.17c1.33,0,2,.72,2,2.17v9h2.34c1.63,0,2.44.67,2.44,2s-.81,2-2.44,2h-2.34v5a1.94,1.94,0,0,1,1-.38q1.14,0,3.2,3.69t2.07,4.4a1.69,1.69,0,0,1-.55,1.35,2.08,2.08,0,0,1-1.46.49C430.69,422.69,430,421.82,429.22,420.09Zm11,12a3.61,3.61,0,0,1-.92,2,35.86,35.86,0,0,1-2.77,3q-3.58,3.53-4.78,3.53a1.75,1.75,0,0,1-2-2,3.39,3.39,0,0,1,1.41-2.34,43.89,43.89,0,0,0,4.45-4.23c1-1.16,1.84-1.74,2.5-1.74C439.5,430.29,440.19,430.89,440.19,432.08Zm23-2.93H449.85v8.25a5.56,5.56,0,0,1-1.22,4,4.88,4.88,0,0,1-3.93,1.09H442a2.15,2.15,0,1,1,0-4.29h1.79c1.15,0,1.77-.62,1.84-1.85v-7.22H432.75c-1.34,0-2-.59-2-1.79s.67-1.74,2-1.74h30.46q2,0,2,1.74C465.22,428.56,464.55,429.15,463.21,429.15Zm-32.14-32.52c0-1.19.67-1.79,2-1.79h29.86c1.33,0,2,.6,2,1.79s-.67,1.8-2,1.8h-9.12v3.9h5q4,0,4,4.08v5.15c0,2.72-1.34,4.07-4,4.07h-22.1c-2.6,0-3.9-1.33-3.9-4v-5.27q0-4,3.9-4h4.89v-3.9h-8.52Q431.07,398.43,431.07,396.63Zm28.17,22.15c1.27,0,1.9.58,1.9,1.74s-.63,1.79-1.9,1.79h-23c-1.3,0-1.95-.6-1.95-1.79s.65-1.74,1.95-1.74ZM441.6,405.86h-3.2q-1.36,0-1.47,1.47v3.26a1.39,1.39,0,0,0,1.47,1.52h3.2Zm3.69-7.43v3.9h4.83v-3.9Zm0,7.43v6.25h4.83v-6.25Zm8.53,6.25h3.42c1,0,1.46-.51,1.46-1.52v-3.26a1.33,1.33,0,0,0-1.46-1.47h-3.42Zm10.66,25.05a2.19,2.19,0,0,1,.63,1.38,1.8,1.8,0,0,1-2,2.07c-.91,0-2.57-1.12-5-3.37l-.86-.81a21.77,21.77,0,0,1-2.5-2.66,2.11,2.11,0,0,1-.44-1.25,1.59,1.59,0,0,1,.6-1.3,1.88,1.88,0,0,1,1.2-.49,2.72,2.72,0,0,1,1.46.54c-.14-.07.85.76,3,2.5l2.06,1.63A14.49,14.49,0,0,1,464.48,437.16Z"/><path class="cls-1" d="M381.23,578.23c0,1.09-1.07,1.95-3.2,2.61q-9.88,3-12.32,3a2.64,2.64,0,0,1-1.71-.44,2,2,0,0,1-.52-1.57,2.15,2.15,0,0,1,.65-1.74,5.2,5.2,0,0,1,1.66-.62c.88-.24,1.92-.48,3.12-.74l1.25-.32V560.31h-4.24c-1.73,0-2.6-.7-2.6-2.11s.87-2.17,2.6-2.17h4.24v-10.1a2.89,2.89,0,0,1,.54-2,2.18,2.18,0,0,1,1.68-.59,2.22,2.22,0,0,1,1.69.59,2.89,2.89,0,0,1,.54,2V556H378c1.78,0,2.66.72,2.66,2.17s-.88,2.11-2.66,2.11h-3.36v17.11l3.36-.82a7.73,7.73,0,0,1,1.47-.27C380.63,576.33,381.23,577,381.23,578.23ZM411.91,556q-.17,7.59-.6,15.2-.39,7.28-.84,11.15A22.82,22.82,0,0,1,409.3,588a5.84,5.84,0,0,1-3,3,15.78,15.78,0,0,1-6.19.95c-.87,0-1.54,0-2,0a3.76,3.76,0,0,1-2-.63,2,2,0,0,1-.65-1.65,2,2,0,0,1,.79-1.77,4.34,4.34,0,0,1,2.52-.57,21.29,21.29,0,0,0,4.29-.32,3.22,3.22,0,0,0,2-1.09,9.18,9.18,0,0,0,.78-2.55,32.72,32.72,0,0,0,.57-5.16q.7-11.34.93-20.41a2.42,2.42,0,0,0-.57-1.93,2.71,2.71,0,0,0-1.88-.57h-16a49.3,49.3,0,0,1-4.1,7.52q-1.82,2.58-3.06,2.58a1.8,1.8,0,0,1-2.07-2,3.38,3.38,0,0,1,.87-1.84A40.87,40.87,0,0,0,387.1,547l.59-2.39a2,2,0,0,1,2.17-1.57c1.49,0,2.23.63,2.23,1.9a22.9,22.9,0,0,1-1.63,6h15.91Q412,551,411.91,556Zm-11,21.93a118.76,118.76,0,0,1-14.54,3.31,1.9,1.9,0,0,1-1.77-.46,2.37,2.37,0,0,1-.57-1.66,1.81,1.81,0,0,1,.6-1.41,4.73,4.73,0,0,1,2.12-.87l10.42-2.22,3.53-.71a4.3,4.3,0,0,1,.7-.05c.94,0,1.5.58,1.69,1.73S402.44,577.52,400.88,578ZM388,567.81q-2.55,0-2.55-2c0-1.41.85-2.12,2.55-2.12h11.68c1.7,0,2.55.71,2.55,2.12s-.85,2-2.55,2Z"/><path class="cls-1" d="M432.37,570.09c-.51-1.2-1.17-2.61-2-4.24v24.54c0,1.45-.68,2.17-2.06,2.17s-2.06-.72-2.06-2.17V567.1a70.5,70.5,0,0,1-3.1,9.15c-.9,2-1.73,3-2.49,3-1.27,0-1.9-.76-1.9-2.28a3.44,3.44,0,0,1,.7-1.9q4.23-6.24,6.57-16.94h-4.56c-1.63,0-2.44-.67-2.44-2s.81-2,2.44-2h4.78v-9a1.94,1.94,0,0,1,2.11-2.17c1.34,0,2,.72,2,2.17v9h2.34c1.63,0,2.44.67,2.44,2s-.81,2-2.44,2h-2.34v5a1.94,1.94,0,0,1,1-.38q1.14,0,3.2,3.69t2.07,4.4a1.69,1.69,0,0,1-.55,1.35,2.08,2.08,0,0,1-1.46.49C433.84,572.69,433.1,571.82,432.37,570.09Zm11,12a3.61,3.61,0,0,1-.92,2,35.86,35.86,0,0,1-2.77,3q-3.58,3.52-4.78,3.53a1.75,1.75,0,0,1-1.95-2,3.41,3.41,0,0,1,1.41-2.34,43.89,43.89,0,0,0,4.45-4.23c1-1.16,1.84-1.74,2.5-1.74C442.65,580.29,443.34,580.89,443.34,582.08Zm23-2.93H453v8.26a5.59,5.59,0,0,1-1.22,4,4.9,4.9,0,0,1-3.94,1.09h-2.66a1.9,1.9,0,0,1-2.17-2.12,1.92,1.92,0,0,1,2.17-2.17H447c1.15,0,1.77-.62,1.84-1.85v-7.22H435.9c-1.34,0-2-.59-2-1.79s.67-1.74,2-1.74h30.46q2,0,2,1.74C468.37,578.56,467.7,579.15,466.36,579.15Zm-32.14-32.52c0-1.19.67-1.79,2-1.79h29.86c1.33,0,2,.6,2,1.79s-.67,1.8-2,1.8H457v3.9h5q4,0,4,4.08v5.15c0,2.72-1.34,4.07-4,4.07h-22.1c-2.6,0-3.9-1.33-3.9-4v-5.27q0-4,3.9-4h4.89v-3.9h-8.52Q434.22,548.43,434.22,546.63Zm28.17,22.15c1.27,0,1.9.58,1.9,1.74s-.63,1.79-1.9,1.79h-23c-1.3,0-1.95-.6-1.95-1.79s.65-1.74,1.95-1.74Zm-17.64-12.92h-3.2q-1.37,0-1.47,1.47v3.26a1.39,1.39,0,0,0,1.47,1.52h3.2Zm3.69-7.43v3.9h4.83v-3.9Zm0,7.43v6.25h4.83v-6.25Zm8.52,6.25h3.43c1,0,1.46-.51,1.46-1.52v-3.26a1.33,1.33,0,0,0-1.46-1.47H457Zm10.67,25a2.19,2.19,0,0,1,.63,1.38,1.8,1.8,0,0,1-2,2.07c-.91,0-2.57-1.12-5-3.37l-.86-.81a21,21,0,0,1-2.5-2.66,2.11,2.11,0,0,1-.44-1.25,1.59,1.59,0,0,1,.6-1.3,1.88,1.88,0,0,1,1.2-.49,2.72,2.72,0,0,1,1.46.54c-.14-.07.85.76,3,2.5l2.06,1.63A14.49,14.49,0,0,1,467.63,587.16Z"/><path class="cls-3" d="M366.3,702.71c0-1.44.87-2.17,2.61-2.17h10.48l-1.31-2.93-.54-1.19a11,11,0,0,1-.65-1.63c0-1.16.78-1.74,2.33-1.74,1.31,0,2.46,1.16,3.48,3.48l1.74,4H396.6l2.11-5.7a2.64,2.64,0,0,1,2.66-1.9c1.7,0,2.55.69,2.55,2.06a9.2,9.2,0,0,1-1.46,3.75l-1,1.79h11.78c1.78,0,2.66.73,2.66,2.17s-.88,2.17-2.66,2.17H368.91C367.17,704.88,366.3,704.16,366.3,702.71Zm3.26,37.41V713.19a4.8,4.8,0,0,1,1.06-3.47,4.34,4.34,0,0,1,3.45-1h11.56a5,5,0,0,1,3.56,1.06,4.12,4.12,0,0,1,.95,3.39v23.56q.38,5.65-5.22,5.43h-2.6q-2.61,0-2.61-2.22a2,2,0,0,1,2.23-2.23h1.9c1.16,0,1.77-.63,1.84-1.9V730H374v9.93c0,1.81-.71,2.72-2.12,2.72S369.56,741.78,369.56,740.12Zm16.12-25.63a1.52,1.52,0,0,0-1.62-1.68h-8.47c-1,0-1.56.56-1.63,1.68v3.1h11.72Zm0,11.62V721.5H374v4.61Zm9.94,4.94v-19a2.23,2.23,0,1,1,4.45,0v19a2.23,2.23,0,0,1-4.45,0Zm4.61,8.74c0-1.55.85-2.33,2.56-2.33h2.55c1.41,0,2.13-.76,2.17-2.28V710.64c0-1.66.76-2.5,2.28-2.5s2.22.84,2.22,2.5v25.9a6.15,6.15,0,0,1-1.35,4.42,5.37,5.37,0,0,1-4.29,1.22h-3.58C401.08,742.18,400.23,741.38,400.23,739.79Z"/><path class="cls-3" d="M435.52,720.09q-.76-1.8-2-4.24v24.54c0,1.45-.69,2.17-2.06,2.17s-2.06-.72-2.06-2.17V717.1a70.5,70.5,0,0,1-3.1,9.15c-.9,2-1.74,3-2.5,3-1.26,0-1.9-.76-1.9-2.28a3.46,3.46,0,0,1,.71-1.9q4.23-6.24,6.57-16.94h-4.56c-1.63,0-2.44-.67-2.44-2s.81-2,2.44-2h4.78v-9A1.94,1.94,0,0,1,431.5,693c1.34,0,2,.72,2,2.17v9h2.34c1.63,0,2.44.67,2.44,2s-.81,2-2.44,2h-2.34v5a1.94,1.94,0,0,1,1-.38q1.14,0,3.2,3.69t2.07,4.4a1.72,1.72,0,0,1-.55,1.35,2.08,2.08,0,0,1-1.46.49C437,722.69,436.24,721.82,435.52,720.09Zm11,12a3.57,3.57,0,0,1-.93,2,33.82,33.82,0,0,1-2.76,3c-2.39,2.35-4,3.53-4.78,3.53a1.76,1.76,0,0,1-2-2,3.39,3.39,0,0,1,1.42-2.34,43.89,43.89,0,0,0,4.45-4.23q1.51-1.74,2.49-1.74C445.8,730.29,446.49,730.89,446.49,732.08Zm23-2.93H456.15v8.25a5.6,5.6,0,0,1-1.22,4,4.9,4.9,0,0,1-3.94,1.09h-2.66a1.9,1.9,0,0,1-2.17-2.12,1.92,1.92,0,0,1,2.17-2.17h1.79a1.7,1.7,0,0,0,1.85-1.85v-7.22H439.05c-1.34,0-2-.59-2-1.79s.67-1.74,2-1.74h30.46c1.33,0,2,.58,2,1.74S470.84,729.15,469.51,729.15Zm-32.14-32.52c0-1.19.67-1.79,2-1.79h29.85c1.34,0,2,.6,2,1.79s-.67,1.8-2,1.8h-9.12v3.9h5q4,0,4,4.08v5.15c0,2.72-1.34,4.07-4,4.07H443c-2.6,0-3.91-1.33-3.91-4v-5.27c0-2.68,1.31-4,3.91-4h4.89v-3.9h-8.52Q437.37,698.43,437.37,696.63Zm28.17,22.15c1.27,0,1.9.58,1.9,1.74s-.63,1.79-1.9,1.79h-23c-1.3,0-2-.6-2-1.79s.66-1.74,2-1.74ZM447.9,705.86h-3.2q-1.36,0-1.47,1.47v3.26a1.39,1.39,0,0,0,1.47,1.52h3.2Zm3.69-7.43v3.9h4.83v-3.9Zm0,7.43v6.25h4.83v-6.25Zm8.52,6.25h3.42a1.32,1.32,0,0,0,1.47-1.52v-3.26a1.33,1.33,0,0,0-1.47-1.47h-3.42Zm10.67,25a2.19,2.19,0,0,1,.63,1.38,1.8,1.8,0,0,1-2,2.07c-.91,0-2.57-1.12-5-3.37l-.87-.81a21.53,21.53,0,0,1-2.49-2.66,2.11,2.11,0,0,1-.44-1.25,1.59,1.59,0,0,1,.6-1.3,1.88,1.88,0,0,1,1.19-.49,2.72,2.72,0,0,1,1.47.54q-.23-.1,3,2.5l2.06,1.63A14.49,14.49,0,0,1,470.78,737.16Z"/><path class="cls-1" d="M403.38,878.94a2.17,2.17,0,0,1-.65-1.58,2.26,2.26,0,0,1,.63-1.63,2.12,2.12,0,0,1,1.6-.65h10.26a2.32,2.32,0,0,1,2.28,2.28,2.12,2.12,0,0,1-.65,1.6,2.26,2.26,0,0,1-1.63.63H405A2.17,2.17,0,0,1,403.38,878.94Z"/><path class="cls-1" d="M425.53,878.94a2.17,2.17,0,0,1-.65-1.58,2.26,2.26,0,0,1,.63-1.63,2.12,2.12,0,0,1,1.6-.65h10.26a2.32,2.32,0,0,1,2.28,2.28A2.12,2.12,0,0,1,439,879a2.26,2.26,0,0,1-1.63.63H427.11A2.17,2.17,0,0,1,425.53,878.94Z"/><path class="cls-1" d="M792.31,720.85a9.18,9.18,0,0,1,2.19,6.46,9,9,0,0,1-3.88,7.73c-2.58,1.87-6,2.8-10.23,2.8A28.92,28.92,0,0,1,769,735.67a2.14,2.14,0,0,1-1.46-2.12,2.41,2.41,0,0,1,.62-1.66,2.08,2.08,0,0,1,1.6-.67,2.83,2.83,0,0,1,1,.21,23.21,23.21,0,0,0,8.64,1.58,15.3,15.3,0,0,0,7.24-1.47,4.8,4.8,0,0,0,2.75-4.5q0-6.79-12-6.79h-.87a2.25,2.25,0,0,1-1.63-.71,2.24,2.24,0,0,1,0-3.25,2.25,2.25,0,0,1,1.63-.71H777q5.47,0,8.31-1.66a5.3,5.3,0,0,0,2.82-4.85,4.66,4.66,0,0,0-2.23-4.13,11.36,11.36,0,0,0-6.29-1.47,19.41,19.41,0,0,0-8.42,1.8,2.75,2.75,0,0,1-1,.21,2,2,0,0,1-1.44-.6,1.94,1.94,0,0,1-.62-1.46,2.07,2.07,0,0,1,1.14-1.9A22.39,22.39,0,0,1,780,698.75q6.24,0,9.69,2.55a8.51,8.51,0,0,1,3.45,7.28q0,6.61-6.46,9.06A10.87,10.87,0,0,1,792.31,720.85Z"/><path class="cls-1" d="M769.1,873.62a2.14,2.14,0,0,1-.65-1.58,2.26,2.26,0,0,1,.62-1.63,2.14,2.14,0,0,1,1.6-.65h10.26a2.19,2.19,0,0,1,1.6.68,2.16,2.16,0,0,1,.68,1.6,2.09,2.09,0,0,1-.65,1.6,2.25,2.25,0,0,1-1.63.63H770.67A2.15,2.15,0,0,1,769.1,873.62Z"/><path class="cls-1" d="M791.25,873.62a2.14,2.14,0,0,1-.65-1.58,2.26,2.26,0,0,1,.62-1.63,2.12,2.12,0,0,1,1.6-.65h10.26a2.19,2.19,0,0,1,1.6.68,2.16,2.16,0,0,1,.68,1.6,2.12,2.12,0,0,1-.65,1.6,2.25,2.25,0,0,1-1.63.63H792.82A2.15,2.15,0,0,1,791.25,873.62Z"/><path class="cls-1" d="M792.31,420.85a9.18,9.18,0,0,1,2.19,6.46,9,9,0,0,1-3.88,7.73c-2.58,1.87-6,2.8-10.23,2.8A28.92,28.92,0,0,1,769,435.67a2.14,2.14,0,0,1-1.46-2.12,2.41,2.41,0,0,1,.62-1.66,2.08,2.08,0,0,1,1.6-.67,2.83,2.83,0,0,1,1,.21,23.21,23.21,0,0,0,8.64,1.58,15.3,15.3,0,0,0,7.24-1.47,4.8,4.8,0,0,0,2.75-4.5q0-6.8-12-6.79h-.87a2.25,2.25,0,0,1-1.63-.71,2.24,2.24,0,0,1,0-3.25,2.25,2.25,0,0,1,1.63-.71H777q5.47,0,8.31-1.66a5.3,5.3,0,0,0,2.82-4.85,4.66,4.66,0,0,0-2.23-4.13,11.36,11.36,0,0,0-6.29-1.47,19.41,19.41,0,0,0-8.42,1.8,2.75,2.75,0,0,1-1,.21,2.06,2.06,0,0,1-1.44-.59,2,2,0,0,1-.62-1.47,2.07,2.07,0,0,1,1.14-1.9A22.39,22.39,0,0,1,780,398.75q6.24,0,9.69,2.55a8.51,8.51,0,0,1,3.45,7.28q0,6.62-6.46,9.06A10.87,10.87,0,0,1,792.31,420.85Z"/><path class="cls-1" d="M792.31,570.85a9.18,9.18,0,0,1,2.19,6.46,9,9,0,0,1-3.88,7.73c-2.58,1.87-6,2.8-10.23,2.8A28.92,28.92,0,0,1,769,585.67a2.14,2.14,0,0,1-1.46-2.12,2.41,2.41,0,0,1,.62-1.66,2.08,2.08,0,0,1,1.6-.67,2.83,2.83,0,0,1,1,.21,23.21,23.21,0,0,0,8.64,1.58,15.3,15.3,0,0,0,7.24-1.47,4.8,4.8,0,0,0,2.75-4.5q0-6.79-12-6.79h-.87a2.25,2.25,0,0,1-1.63-.71,2.24,2.24,0,0,1,0-3.25,2.25,2.25,0,0,1,1.63-.71H777q5.47,0,8.31-1.66a5.3,5.3,0,0,0,2.82-4.85,4.66,4.66,0,0,0-2.23-4.13,11.36,11.36,0,0,0-6.29-1.47,19.41,19.41,0,0,0-8.42,1.8,2.75,2.75,0,0,1-1,.21,2.06,2.06,0,0,1-1.44-.59,2,2,0,0,1-.62-1.47,2.07,2.07,0,0,1,1.14-1.9A22.39,22.39,0,0,1,780,548.75q6.24,0,9.69,2.55a8.51,8.51,0,0,1,3.45,7.28q0,6.61-6.46,9.06A10.87,10.87,0,0,1,792.31,570.85Z"/><path class="cls-1" d="M792.31,270.85a9.18,9.18,0,0,1,2.19,6.46,9,9,0,0,1-3.88,7.73c-2.58,1.87-6,2.8-10.23,2.8A28.92,28.92,0,0,1,769,285.67a2.14,2.14,0,0,1-1.46-2.12,2.41,2.41,0,0,1,.62-1.66,2.08,2.08,0,0,1,1.6-.67,2.83,2.83,0,0,1,1,.21,23.21,23.21,0,0,0,8.64,1.58,15.3,15.3,0,0,0,7.24-1.47,4.8,4.8,0,0,0,2.75-4.5q0-6.8-12-6.79h-.87a2.25,2.25,0,0,1-1.63-.71,2.24,2.24,0,0,1,0-3.25,2.25,2.25,0,0,1,1.63-.71H777q5.47,0,8.31-1.66a5.3,5.3,0,0,0,2.82-4.85,4.66,4.66,0,0,0-2.23-4.13,11.36,11.36,0,0,0-6.29-1.47,19.41,19.41,0,0,0-8.42,1.8,2.75,2.75,0,0,1-1,.21,2.06,2.06,0,0,1-1.44-.59,2,2,0,0,1-.62-1.47,2.07,2.07,0,0,1,1.14-1.9A22.39,22.39,0,0,1,780,248.75q6.24,0,9.69,2.55a8.51,8.51,0,0,1,3.45,7.28q0,6.62-6.46,9.06A10.87,10.87,0,0,1,792.31,270.85Z"/></svg>