<svg id="圖層_1" data-name="圖層 1" xmlns="http://www.w3.org/2000/svg" viewBox="0 0 1000 1000"><defs><style>.cls-1{fill:#3b5875;}.cls-2{fill:none;}.cls-3{fill:#f40000;}</style></defs><path class="cls-1" d="M98.89,146.07V116.59a69.59,69.59,0,0,1-5.64,13.25c-2.39,4.42-4.26,6.63-5.64,6.63-1.82,0-2.74-1.22-2.74-3.66,0-.76.59-1.93,1.75-3.5A77.57,77.57,0,0,0,98.2,105.77H88.68q-3.59,0-3.58-3c0-2,1.19-3,3.58-3H98.89V89.4q-8.53,1-9.9,1-3.13,0-3.13-3a2.16,2.16,0,0,1,1.26-2,9.22,9.22,0,0,1,3.77-.84,83.56,83.56,0,0,0,19.35-3.43,6.59,6.59,0,0,1,2-.45q3,0,3,3.12,0,3-10.28,4.72V99.75h7.16q3.5,0,3.5,3t-3.5,3h-7.16v8a2.17,2.17,0,0,1,2-1.14,4.15,4.15,0,0,1,2.17,1.14,20.46,20.46,0,0,1,3.08,3.28q3.66,4.56,3.66,5.78c0,2-1,3-3,3a2.55,2.55,0,0,1-2.06-1.38c-1-1.47-2-2.91-3.12-4.34a30.73,30.73,0,0,1-2.74-3.81v29.79q0,3.27-3,3.27T98.89,146.07Zm40.29-.31v-18l-23.84,4.79q-3,0-3-3,0-2.44,3-3l23.84-4.88V83.38q0-3.43,3-3.43t3,3.43v37.09l5-1.06,1.52-.16q2.67-.23,2.67,2.82a2.87,2.87,0,0,1-.72,2.06,4.54,4.54,0,0,1-2.25,1.14l-6.17,1.37v19.12c0,2.24-1,3.35-3,3.35S139.18,148,139.18,145.76ZM125,113.31a34.63,34.63,0,0,0-4.79-3.88c-1.68-1.17-2.52-2.24-2.52-3.2q0-2.82,3.2-2.82c.86,0,2.34.74,4.42,2.21q2.75,2,4.87,3.81,1.83,1.6,1.83,3,0,3.12-3.27,3.12C127.88,115.52,126.64,114.79,125,113.31Zm2.37-17.67q-2.3-1.9-5.64-4.49c-1.27-1-1.91-1.91-1.91-2.82,0-1.93,1-2.9,3.13-2.9.91,0,3,1.2,6.32,3.58s4.8,4.09,4.8,5.41q0,3-3.35,3C130,97.47,128.85,96.86,127.38,95.64Z"/><path class="cls-1" d="M173.08,145.69q-2.06-2.15-2.06-6.55V91.45c0-3,.69-5.23,2.06-6.55s3.53-2,6.47-2h36.64q4.58,0,6.55,2c1.32,1.32,2,3.51,2,6.55v47.69c0,3.19-.66,5.38-2,6.55q-2.2,2-6.55,2H179.55Q175,147.67,173.08,145.69Zm45.09-52.41c0-2.84-1.37-4.27-4.11-4.27H181.84c-2.85,0-4.27,1.38-4.27,4.12v8.68h40.6Zm0,28.26V107.68h-40.6v13.86Zm0,15.92V127.41h-40.6v9.9q0,4.26,4.12,4.26h32.22Q218.17,141.57,218.17,137.46Z"/><rect class="cls-2" width="1000" height="1000"/><path class="cls-1" d="M354.14,119.64l-3.5-7.09v33.82c0,2-.91,3-2.74,3s-2.74-1-2.74-3V114.61Q341,131,337.23,131a2.09,2.09,0,0,1-1.71-.69,2.65,2.65,0,0,1-.57-1.75,6.67,6.67,0,0,1,1-3.43,70.52,70.52,0,0,0,8.61-24h-5.79q-3.43,0-3.43-2.9t3.43-2.82h6.4V82.77c0-2,.91-3,2.74-3s2.74,1,2.74,3V95.41h4.72q3.58,0,3.58,2.82t-3.58,2.9h-4.72V111a2.12,2.12,0,0,1,1.9-1.14c.41,0,1,.4,1.76,1.21a19.86,19.86,0,0,1,2.43,3.43q2.89,4.88,2.9,6.17c0,1.68-.79,2.52-2.36,2.52C356.35,123.22,355.31,122,354.14,119.64Zm23.05,22.43a2.3,2.3,0,0,1-1.79.72,4.77,4.77,0,0,1-2.33-1q-1.49-1-4.68-3.58a28.19,28.19,0,0,1-5.72,6.86q-3.42,3-4.79,3a2.92,2.92,0,0,1-2.1-.69,2.49,2.49,0,0,1-.72-1.9,3,3,0,0,1,.45-1.72,6.73,6.73,0,0,1,1.53-1.41,22.26,22.26,0,0,0,9.29-12.87,6.27,6.27,0,0,1-4.15-1.6,5.55,5.55,0,0,1-1.33-4v-8.46q0-5.79,5.86-5.79h6.48a5.94,5.94,0,0,1,4.38,1.49,5.82,5.82,0,0,1,1.48,4.3v8.46c0,3.8-1.95,5.71-5.86,5.71h-1.45l-1.22,4.19q7.32,4.11,7.31,6.24A3.05,3.05,0,0,1,377.19,142.07Zm27.46-38.66c0,2.24-1.07,3.35-3.2,3.35a7.75,7.75,0,0,1-3.58-1.18,57.86,57.86,0,0,1-5.72-3.77,3,3,0,0,1,.16.92c0,1.77-1.07,2.66-3.2,2.66H371.05c-2.13,0-3.2-.89-3.2-2.66a3.85,3.85,0,0,1,.16-1l-.16.15q-6.47,6.24-8.68,6.24-3,0-3.05-3a3.07,3.07,0,0,1,.77-1.76,8.79,8.79,0,0,1,2.13-1.9A49.81,49.81,0,0,0,375.4,82.24q1.52-3,3.35-3a3.54,3.54,0,0,1,2.32.73A2.17,2.17,0,0,1,382,81.7a3.58,3.58,0,0,1-.54,1.53q9.07,12,20.87,17.06Q404.65,101.35,404.65,103.41Zm-38.32,19.12c0,1.17.51,1.8,1.52,1.9h3.89a1.86,1.86,0,0,0,1.41-.45,2.11,2.11,0,0,0,.42-1.45v-5.86a1.7,1.7,0,0,0-1.83-2h-3.89c-1,0-1.52.67-1.52,2ZM390,100.14a53.3,53.3,0,0,1-5.9-5.41A52.38,52.38,0,0,1,378.9,88a70.55,70.55,0,0,1-9.45,12.27,5.14,5.14,0,0,1,1.6-.23h17.83A5.5,5.5,0,0,1,390,100.14Zm13.48,45.17q0,3.12-3.12,3.12-1.36,0-3-1.83a69.33,69.33,0,0,0-8.15-7.62,34.35,34.35,0,0,1-5.56,6.48q-3.43,3.19-5.33,3.2A3.48,3.48,0,0,1,376,148a2.29,2.29,0,0,1-.8-1.83,2.91,2.91,0,0,1,.69-1.9,11,11,0,0,1,2.44-2,21.39,21.39,0,0,0,9-12.8,6.67,6.67,0,0,1-4.45-1.22,5.26,5.26,0,0,1-1.49-4v-8.92A5.69,5.69,0,0,1,382.9,111a6,6,0,0,1,4.38-1.45h7.31q5.71,0,5.71,5.87v8.3q0,5.72-5.56,5.71h-2a22.61,22.61,0,0,1-1.37,4.88l2.74,1.83Q403.51,142.41,403.5,145.31Zm-16.3-21.48a1.54,1.54,0,0,0,1,.6h4.57a1.75,1.75,0,0,0,2-2v-5.78a1.83,1.83,0,0,0-2-2.06h-4.49a1.84,1.84,0,0,0-1.37,2.06v5.78A2.57,2.57,0,0,0,387.2,123.83Z"/><path class="cls-1" d="M482.34,143.86q0,3.19-4.19,3.2-18.13,0-26.2-.84a40.08,40.08,0,0,1-14.32-4,23.17,23.17,0,0,1-9.07-8.53l-.15.08a41.27,41.27,0,0,1-6,9.82c-2.43,3-4.47,4.5-6.09,4.5q-3.12,0-3.12-3.13,0-1.29,3.27-4.34,7.85-7.31,9.68-22a5.05,5.05,0,0,1,1.1-2.86,2.92,2.92,0,0,1,2.25-.95q3.12,0,3.12,3.12c0,1.78-.66,5-2,9.53q5.86,9.43,14,11.73V107.52H426.58q-3.49,0-3.5-2.89t3.5-2.74h42.28c2.38,0,3.58.91,3.58,2.74s-1.2,2.89-3.58,2.89H450.81v12.12h18.28q3.65,0,3.65,3t-3.65,3H450.81v14.55a138.14,138.14,0,0,0,15.38.76l12.19-.23Q482.34,140.59,482.34,143.86ZM414.47,102v-6.7c0-2.8.58-4.7,1.75-5.72A8.32,8.32,0,0,1,422,87.8H443.8V83.15c0-2.18,1.14-3.28,3.43-3.28s3.42,1.1,3.42,3.28V87.8h23.08a8,8,0,0,1,5.49,1.82Q481,91.3,481,95v7a4.07,4.07,0,0,1-.76,2.7,3.06,3.06,0,0,1-2.44.88q-3,0-3-3.58V96.63a3.25,3.25,0,0,0-.8-2.4,2.92,2.92,0,0,0-2.32-.72H423.84q-3,0-3,3.12V102q0,3.58-3.2,3.58T414.47,102Z"/><path class="cls-1" d="M674,96.17,672.41,91h-6.09q-6,7.08-8.84,7.08c-1.88,0-2.82-1-2.82-2.9,0-.86.74-1.85,2.21-3a29.64,29.64,0,0,0,8.68-9.9,4,4,0,0,1,3.58-2.44c2.09,0,3.13.74,3.13,2.21q0,1.07-2.06,4h15.62q3,0,3,2.52c0,1.62-1,2.44-3,2.44H678.2Q680,95,680,96.63c0,1.63-1,2.44-2.9,2.44C675.51,99.07,674.47,98.11,674,96.17ZM657.4,140.89V109.5c0-3.9,2-5.86,5.87-5.86h1.67l1-4.65c.31-1.32,1.3-2,3-2,2,0,3,.69,3,2.06a19.8,19.8,0,0,1-1.68,4.57h5.1q6,0,6,6v6.55q0,5.87-5.86,5.86h-12.8V127h13.79c3.85,0,5.79,2,5.79,6.09v8c0,3.91-1.94,5.87-5.79,5.87H663.27Q657.41,146.91,657.4,140.89Zm18.44-26V110.8c0-1.32-.72-2-2.14-2.13h-8.83a2,2,0,0,0-2.21,2.13v6.25h11A1.93,1.93,0,0,0,675.84,114.91Zm1,24.84v-5.64c0-1.32-.71-2-2.14-2.13h-12v7.77c0,1.32.73,2,2.21,2.13h9.82A1.89,1.89,0,0,0,676.83,139.75Zm23.46,6.47v-27h-6.17c-1.53,0-2.34.82-2.44,2.44V140.2q0,3.44-2.82,3.43T686,140.2v-20q0-3.44,1.49-5c1-1,2.55-1.49,4.68-1.33h8.08v-7.32H687c-2.33,0-3.5-.93-3.5-2.81S684.7,101,687,101h33.52c2.28,0,3.43.92,3.43,2.75s-1.15,2.81-3.43,2.81h-14.7v7.32h9.06c2.24,0,3.88.5,4.92,1.52s1.51,2.62,1.41,4.8v16q0,3.72-1.68,5.48c-1.12,1.17-2.89,1.7-5.33,1.6h-3c-2,0-3-1-3-2.9s.88-3.12,2.66-3.12H713c1.62,0,2.46-.86,2.51-2.59V121.69a2.3,2.3,0,0,0-.64-1.75,2.85,2.85,0,0,0-1.8-.69h-7.23v27q0,3.12-2.82,3.12C701.2,149.34,700.29,148.3,700.29,146.22Zm5.18-48.45a24.62,24.62,0,0,1-1.6-4.57l-.69-2.2h-6.55q-4.57,6.61-7,6.62c-1.87,0-2.81-.89-2.81-2.66A3.24,3.24,0,0,1,688,92.75a30.71,30.71,0,0,0,6.93-10.51A3.21,3.21,0,0,1,698,79.8c2,0,3,.79,3,2.36a13.46,13.46,0,0,1-1.6,3.88h21.1q3,0,3,2.52c0,1.62-1,2.44-3,2.44h-11.2a25.92,25.92,0,0,1,1.75,5.48c0,1.63-1,2.44-3,2.44A3,3,0,0,1,705.47,97.77Z"/><path class="cls-1" d="M754.6,145.46a20.83,20.83,0,0,1-9.29-5.18l-.16-.08q-7.38,6.41-9.67,6.4-3,0-3-3.5,0-2.44,3.43-3.81a47.71,47.71,0,0,0,6-3.12v-14.1a2.08,2.08,0,0,0-2.36-2.36h-4.11q-3.19,0-3.2-2.82c0-1.82,1.07-2.74,3.2-2.74h5.94a6.92,6.92,0,0,1,4.8,1.41c1,.94,1.47,2.43,1.37,4.46v15.46l2.13,2q4.95,4,22.17,4l27-.3c1.93,0,2.9.94,2.9,2.81,0,2.09-1.48,3.13-4.42,3.13L773.87,147Q760.23,147,754.6,145.46Zm-12.27-40.91L736,101.81c-1.57-.71-2.36-1.7-2.36-3a2.63,2.63,0,0,1,3-3q1.21,0,6.32,2.13t5,4.42q0,3.12-3,3.12A5.81,5.81,0,0,1,742.33,104.55Zm4-13.75q-1.17-.57-1.41-.72l-5-2.59c-1.78-.91-2.67-2-2.67-3.2,0-2,1-3,2.9-3q1,0,6,2.21a12.43,12.43,0,0,1,3.58,2.25,3.37,3.37,0,0,1,1.22,2.4q0,3.19-3,3.2A4.66,4.66,0,0,1,746.33,90.8Zm3.7,34.32a2.29,2.29,0,0,1,2.59-2.59h10.51v-5h-7.92c-1.73,0-2.59-.83-2.59-2.51s.86-2.51,2.59-2.51h7.92v-2.06a2.76,2.76,0,0,1,.76-2.1,3.11,3.11,0,0,1,2.21-.72,3.27,3.27,0,0,1,2.25.72,2.71,2.71,0,0,1,.8,2.1v2.06h12.18v-2.06c0-1.88,1-2.82,3-2.82s2.89.94,2.89,2.82v2.06h8.07c1.73,0,2.59.83,2.59,2.51s-.86,2.51-2.59,2.51H787.2v5H798a2.4,2.4,0,0,1,2.66,2.67,2.6,2.6,0,0,1-.68,1.9,2.68,2.68,0,0,1-2,.69h-45.4C750.89,127.79,750,126.9,750,125.12Zm2.59,10.21c0-1.42.86-2.31,2.59-2.67l7.23-2.21,4.65-1.75.61-.08a2.32,2.32,0,0,1,2.06.58,3.07,3.07,0,0,1,.68,2.17c0,.66-.52,1.34-1.56,2a28,28,0,0,1-4.91,2.44c-4.07,1.63-6.93,2.44-8.61,2.44C753.53,138.3,752.62,137.31,752.62,135.33Zm3.73-29.1a4,4,0,0,1-2.21-1.41,4.26,4.26,0,0,1-.68-2.55V87.42a5.67,5.67,0,0,1,1-3.47c.66-.89,2.18-1.33,4.57-1.33h9.21q6,0,6,4.95v4a4.52,4.52,0,0,1-1.45,3.62,6.47,6.47,0,0,1-4.19,1.34l-9.36.07v3.66c0,.71.17,1.17.53,1.37a6.67,6.67,0,0,0,2.82.46c3.7,0,5.76-.16,6.17-.46a3.91,3.91,0,0,0,1.06-2c.31-1.07,1.27-1.6,2.9-1.6a3.59,3.59,0,0,1,2.24.61,2,2,0,0,1,.8,1.67c0,2.54-.88,4.32-2.66,5.34q-2,1.06-8.46,1.06C760.34,106.76,757.57,106.59,756.35,106.23Zm12.26-15.77V88.71c0-1-.66-1.45-2-1.45h-5.4c-1.33,0-2,.54-2,1.6v3.28h7.38A1.72,1.72,0,0,0,768.61,90.46Zm12.72,32.07v-5H769.15v5Zm-1.67-16.3a3.38,3.38,0,0,1-2.1-1.33,4.51,4.51,0,0,1-.72-2.63V87.42c0-3.2,1.95-4.8,5.87-4.8h10.13a7.06,7.06,0,0,1,4.53,1.21,4.76,4.76,0,0,1,1.48,3.89V91.6a4.54,4.54,0,0,1-1.44,3.62,6.49,6.49,0,0,1-4.19,1.34l-10.82.07v3.58q0,1.61,2,1.83l4.8.08q5,.15,5.49-1.3a3.55,3.55,0,0,1,3.5-2.74,3.65,3.65,0,0,1,2.25.61,2.08,2.08,0,0,1,.8,1.75,5.59,5.59,0,0,1-2.06,4.8q-2.2,1.53-10.51,1.52A46.38,46.38,0,0,1,779.66,106.23ZM787,136.32c-4.77-2.08-7.16-3.74-7.16-4.95,0-1.93,1-2.9,3-2.9a6.31,6.31,0,0,1,2.29.69,73.65,73.65,0,0,0,10.2,3.65q4.72,1.31,4.73,3.58,0,3-3.2,3Q794,139.36,787,136.32Zm6.25-45.86V88.71c0-1-.64-1.45-1.91-1.45h-6.7c-1.37,0-2.06.54-2.06,1.6v3.28h8.76A1.68,1.68,0,0,0,793.22,90.46Z"/><path class="cls-1" d="M820.87,145.31V109.2q-3.12,5.49-4.65,7.58c-1,1.4-1.88,2.17-2.59,2.32a2.28,2.28,0,0,1-.68.08,2.34,2.34,0,0,1-1.87-.84,3.27,3.27,0,0,1-.72-2.21,4.6,4.6,0,0,1,.91-2.82,116.89,116.89,0,0,0,14.4-29.7,7.68,7.68,0,0,1,1.48-2.86,2.77,2.77,0,0,1,2.1-1q3.64,0,3.65,3a17.06,17.06,0,0,1-1.56,5.14Q829.78,91.68,827,97v48.3c0,2.48-1,3.73-3,3.73S820.87,147.79,820.87,145.31ZM829.93,111q0-2.9,3.51-2.89h9.29l-2.44-13.87h-3.81q-3.5,0-3.5-3t3.5-2.89h15.39v-5.1q0-3.44,3.28-3.43t3.19,3.43v5.1H874q3.59,0,3.58,2.89t-3.58,3h-3.43a111.77,111.77,0,0,1-2.89,13.87h8.76c2.38,0,3.58,1,3.58,3s-1.2,2.82-3.58,2.82h-43Q829.93,113.85,829.93,111Zm7.62,35q-1.9-1.83-1.9-5.56v-12a8.5,8.5,0,0,1,1.9-5.87q1.76-1.83,5.48-1.83h24.15q4.11,0,5.79,1.91a8,8,0,0,1,1.9,5.56v12q0,3.88-1.9,5.86t-5.48,1.83H843.34Q839.46,147.82,837.55,146Zm30.77-7v-9.29a3.33,3.33,0,0,0-.72-2.36,3.18,3.18,0,0,0-2.4-.76H845a3.35,3.35,0,0,0-2.36.72,2.91,2.91,0,0,0-.68,2.32V139c0,2.09,1,3.1,3,3.05H865.2C867.33,142,868.37,141,868.32,139Zm-4.19-44.79h-18q1.51,6.63,2.59,13.87h12.87Q862.54,103.88,864.13,94.19Z"/><path class="cls-1" d="M957.67,131.59q0,2.82-3.58,2.82H926v11.12c0,2.54-1,3.81-3.13,3.81s-3-1.27-3-3.81V134.41H892.39q-3.5,0-3.5-2.82c0-1.92,1.17-2.89,3.5-2.89h27.43v-6.78l-1.22.08-1.15.15-9.75.91a2.69,2.69,0,0,1-2.2-.72,3.23,3.23,0,0,1-.77-2.32c0-1.27.74-2,2.21-2.29l7.16-.38,4.8-5.48q-6.55-5.19-8.83-6.63-3.36-2.05-3.36-3.43c0-1.78.87-2.66,2.59-2.66q1.07,0,4,2a77.89,77.89,0,0,0,5.34-8.3h-24q-3.58,0-3.58-3.05Q891,87,894.6,87h24.76V83.38q0-3.59,3.58-3.58c2.28,0,3.43,1.19,3.43,3.58V87h25.29q3.65,0,3.65,3t-3.65,3H925a74.77,74.77,0,0,1-7.85,11l5.18,4,5.18-6.86A32.42,32.42,0,0,1,930,98a2.66,2.66,0,0,1,1.64-1c2,0,3,.91,3,2.74S929.79,107.22,920,117l12.34-.84c-1.37-2.44-2-4-2-4.64,0-1.38.78-2.06,2.36-2.06a2.76,2.76,0,0,1,2.28,1.22l3.2,5.1a35.16,35.16,0,0,1,2.29,4,7.51,7.51,0,0,1,.76,2.09c0,1.68-1,2.52-3.05,2.52q-1.83,0-3.73-4l-8.45,1v7.39h28.1C956.48,128.7,957.67,129.67,957.67,131.59Zm-64.9-13.1q2.44-2.13,5.79-5.48,3-3,4-3.05a2.36,2.36,0,0,1,2.67,2.67c0,.71-.64,1.78-1.91,3.2q-8.15,9.44-10.36,9.44-3,0-3-3C890,121.36,890.9,120.12,892.77,118.49ZM895.59,102c-1.57-1.26-2.36-2.36-2.36-3.27,0-1.73.89-2.59,2.67-2.59q1.22,0,5.41,3.27t4.11,4.27q0,3.12-3,3.12a5,5,0,0,1-2.74-1.52Zm46.62,6.1a2.42,2.42,0,0,1-2.74-2.74,2.3,2.3,0,0,1,.61-1.38,14.26,14.26,0,0,1,2-1.9,54,54,0,0,0,4.57-4.27,4.84,4.84,0,0,1,3.5-2q3,0,3,3c0,1.17-1.58,3-4.72,5.49S943.12,108.06,942.21,108.06Zm2.59,10.2q-1.75-2-2.55-3a3.06,3.06,0,0,1-.8-1.49c0-1.73.91-2.59,2.74-2.59q1.14,0,6.25,4.42t5.1,6.09q0,3-3.35,3c-.76,0-2.52-1.37-5.26-4.11Z"/><path class="cls-1" d="M89.75,296.45q-1.83-1.83-1.83-6v-50.2q0-4.18,1.87-6t6-1.87h48q4.19,0,6,1.87t1.83,6v50.2q0,4.19-1.87,6t-6,1.83h-48Q91.57,298.28,89.75,296.45Zm55.83-7.77V241.83q0-4-4-4H98q-4,0-4,4v46.85q0,4,4,4h43.57Q145.57,292.72,145.58,288.68ZM96,285a3.43,3.43,0,0,1-.57-2.21,2.24,2.24,0,0,1,1.07-2.13c.66-.41,2.81-.86,6.47-1.37a31,31,0,0,0,3.81-.65c1.47-.33,2.49-.54,3-.65l3.81-.83,3.58-.76L119,276a1.47,1.47,0,0,1,1.6.46,3.08,3.08,0,0,1,.53,1.91,2,2,0,0,1-.46,1.33,2,2,0,0,1-1.22.72l-1.14.38c-.61.21-2,.61-4,1.22a26,26,0,0,1-2.66.69c-1.17.25-2.11.48-2.82.68l-3.88.84q-6.41,1.46-7.09,1.45A2.19,2.19,0,0,1,96,285Zm17.48,2.74a2.62,2.62,0,0,1,1-1.71,11,11,0,0,1,2.44-1.71,29.58,29.58,0,0,0,9.06-6.93q-4-9.53-4.64-24.23H99.12a4.38,4.38,0,0,1-2.59-.61,2.36,2.36,0,0,1-.84-2,2.6,2.6,0,0,1,.84-2.14,4.07,4.07,0,0,1,2.59-.68H121v-4c0-2.28.94-3.43,2.82-3.43a2.27,2.27,0,0,1,2,1.07,5.62,5.62,0,0,1,.69,3v3.35H140a4.09,4.09,0,0,1,2.59.68,2.6,2.6,0,0,1,.84,2.14,2.36,2.36,0,0,1-.84,2,4.4,4.4,0,0,1-2.59.61H126.84a83.63,83.63,0,0,0,.88,11.5,26.37,26.37,0,0,0,2.09,7.16,67.23,67.23,0,0,0,5-11.57c.61-1.78,1.52-2.67,2.74-2.67a3.92,3.92,0,0,1,2.36.57,2.27,2.27,0,0,1,.77,1.94q0,1.08-2.75,7.09a53.16,53.16,0,0,1-5.63,10.21v.07a24,24,0,0,0,2.85,4.19c.94,1.07,1.72,1.6,2.33,1.6.45,0,.9-.48,1.33-1.45a14,14,0,0,0,.95-4,2.9,2.9,0,0,1,.73-1.67,1.92,1.92,0,0,1,1.48-.61c1.57,0,2.36.84,2.36,2.51a19.78,19.78,0,0,1-1.67,8q-1.75,4.11-4.42,4.11-4.72,0-9.52-8h-.23a20.19,20.19,0,0,1-3.05,3.13,31,31,0,0,1-3.81,2.59c-1.67,1-2.89,1.63-3.65,2a4.5,4.5,0,0,1-1.91.57C114.38,290.51,113.51,289.59,113.51,287.76ZM98.28,268.57V262q0-5.17,5.41-5.18h9.37a5.51,5.51,0,0,1,4,1.26,5.24,5.24,0,0,1,1.29,3.92v6.55c0,3.5-1.75,5.26-5.25,5.26h-9.37C100.08,273.83,98.28,272.07,98.28,268.57Zm14.85-1.3v-3.88a2.11,2.11,0,0,0-.38-1.41,1.79,1.79,0,0,0-1.37-.42h-5.94a1.62,1.62,0,0,0-1.83,1.83v3.88a1.62,1.62,0,0,0,1.83,1.83h5.94C112.55,269.1,113.13,268.49,113.13,267.27Zm21.94-21.13a19.65,19.65,0,0,1-1.68-1.95,5.6,5.6,0,0,1-1.52-2.89,1.9,1.9,0,0,1,.69-1.6,2.9,2.9,0,0,1,1.82-.53c.77,0,1.76.68,3,2.05s1.83,2.42,1.83,3.13c0,1.52-.91,2.28-2.74,2.28A1.92,1.92,0,0,1,135.07,246.14Z"/><path class="cls-1" d="M163.18,295a2.65,2.65,0,0,1,1.1-2.17,8.92,8.92,0,0,1,3.47-1.41q14.92-3.12,25.21-11v-.16a49.37,49.37,0,0,1-11.43-15.38q-4-8.61-4-11.2c0-1.78,1.09-2.67,3.28-2.67a3.15,3.15,0,0,1,2.13.8,4.84,4.84,0,0,1,1.37,2.33A49.94,49.94,0,0,0,197.68,276h.15q10.29-11,13-28.41H168q-4,0-4-3t4-3.13H194v-7.31c0-2.84,1.11-4.27,3.35-4.27a3,3,0,0,1,2.55,1,5.32,5.32,0,0,1,.8,3.24v7.31h26.81q3.89,0,3.89,3.13t-3.89,3h-9.67Q213.6,268,202.56,279.69v.15a67.39,67.39,0,0,0,25.59,11q4.18.92,4.19,3.66,0,3.81-3.35,3.81a6.49,6.49,0,0,1-1.45-.23c-.61-.15-1.06-.28-1.37-.38q-17.37-4.73-28.34-13.41h-.15a62.91,62.91,0,0,1-16.53,10.13q-9.6,4.19-14.7,4.19Q163.18,298.58,163.18,295Z"/><path class="cls-1" d="M86.4,448.16a3.66,3.66,0,0,1-.84-2.63,2.76,2.76,0,0,1,1.1-2.2,6.46,6.46,0,0,1,3.24-1.22q19.5-2.67,23.84-14.7H88.45q-3.35,0-3.35-2.67T88.45,422h6V410.65q0-3.51,1.56-5.14c1-1.1,2.73-1.59,5.07-1.49h14.7v-3.27c0-2.95,1-4.42,3-4.42s3,1.37,3,4.11l-.07,3.58h16.53q3.57,0,5.21,1.6c1.09,1.07,1.56,2.74,1.41,5V422h6c2.28,0,3.43.91,3.43,2.74s-1.15,2.67-3.43,2.67H123.34q6.55,10.81,26,14.32a7.69,7.69,0,0,1,3.47,1.29,2.6,2.6,0,0,1,1.18,2.06q0,3.65-3.5,3.65-4.58,0-13-3.42-12.8-5.19-18.36-15.54h-.3a25.78,25.78,0,0,1-9.67,12q-6.25,4.18-18.44,6.93l-1.83.23A2.79,2.79,0,0,1,86.4,448.16Zm18-48.44a3.9,3.9,0,0,1-.72-2.63v-3.81H89a3.9,3.9,0,0,1-2.56-.69,3,3,0,0,1,0-4.11A3.9,3.9,0,0,1,89,387.8h14.7v-4.5c0-2.28,1-3.43,2.89-3.43s2.9,1.15,2.9,3.43v4.5h20v-4.5a4.09,4.09,0,0,1,.68-2.59,2.7,2.7,0,0,1,2.21-.84c1.88,0,2.82,1.15,2.82,3.43v4.5h15.24q3.42,0,3.42,2.74t-3.42,2.74H135.22v3.81a4.09,4.09,0,0,1-.68,2.63,2.68,2.68,0,0,1-2.14.8,2.79,2.79,0,0,1-2.21-.8,4.09,4.09,0,0,1-.68-2.63v-3.81h-20v3.81a3.9,3.9,0,0,1-.73,2.63,3.34,3.34,0,0,1-4.34,0Zm11.31,9.71H103.46a3,3,0,0,0-2.13.65,2.75,2.75,0,0,0-.69,2.09V422h14.47A111,111,0,0,0,115.72,409.43Zm23.08,2.74q0-3-2.82-2.74H121.66q-.37,9.06-.83,12.57h18Z"/><path class="cls-1" d="M163.18,445a2.65,2.65,0,0,1,1.1-2.17,8.92,8.92,0,0,1,3.47-1.41q14.92-3.12,25.21-11v-.16a49.37,49.37,0,0,1-11.43-15.38q-4-8.61-4-11.2c0-1.78,1.1-2.67,3.28-2.67a3.15,3.15,0,0,1,2.13.8,4.84,4.84,0,0,1,1.37,2.33A49.94,49.94,0,0,0,197.68,426h.16q10.28-11,13-28.41H168c-2.65,0-4-1-4-3s1.31-3.13,4-3.13H194v-7.31c0-2.84,1.11-4.27,3.35-4.27a3,3,0,0,1,2.55,1,5.32,5.32,0,0,1,.8,3.24v7.31h26.81q3.89,0,3.89,3.13t-3.89,3h-9.67Q213.6,418,202.56,429.69v.15a67.39,67.39,0,0,0,25.59,11q4.18.92,4.19,3.66,0,3.81-3.35,3.81a6.49,6.49,0,0,1-1.45-.23c-.61-.15-1.06-.28-1.37-.38q-17.37-4.73-28.33-13.41h-.16a62.91,62.91,0,0,1-16.53,10.13q-9.59,4.19-14.7,4.19Q163.18,448.58,163.18,445Z"/><path class="cls-1" d="M119.8,591.73c1.09.71,1.64,1.42,1.64,2.13,0,1.83-1,2.74-2.82,2.74-.66,0-2.09-.58-4.27-1.75l-3.5-1.6a32.37,32.37,0,0,1-9.52,4.11,39.78,39.78,0,0,1-11,1.75c-2.28,0-3.43-.88-3.43-2.66s1.78-2.52,5.34-2.67A32,32,0,0,0,104.91,591l-8.61-2.29a9.73,9.73,0,0,1-3.39-1.44,2.51,2.51,0,0,1-1.11-2.06,7,7,0,0,1,1.38-3.12l1-1.6H87.61c-1.77,0-2.66-.81-2.66-2.44s.89-2.36,2.66-2.36h9.15l2-3.73H95.16a8.24,8.24,0,0,1-4.57-1,4,4,0,0,1-1.6-3.39v-4.34c0-3.35,2.05-4.9,6.17-4.65h8v-3H95.77q-3.28,0-4.8-1.45t-1.22-4.64V547H87.23c-1.67,0-2.51-.78-2.51-2.36s.84-2.21,2.51-2.21h2.52v-2.21a6.92,6.92,0,0,1,1.41-4.8c.94-1,2.47-1.44,4.61-1.29h7.38v-1.83q0-2.82,2.67-2.82t2.67,2.82v1.83h7.84q3.27,0,4.8,1.45c1,1,1.47,2.51,1.37,4.64v2.21h2c1.73,0,2.59.76,2.59,2.29a2.12,2.12,0,0,1-.68,1.71,2.92,2.92,0,0,1-1.91.57h-2v2.52q0,3.27-1.48,4.8c-1,1-2.56,1.44-4.69,1.29h-7.84v3h8.6a7.84,7.84,0,0,1,4.46,1,4,4,0,0,1,1.56,3.39v4.34q0,5-6,4.65H104.3l-1.76,3.73h22.32c1.78,0,2.67.81,2.67,2.44s-.89,2.36-2.67,2.36h-6.17a24.34,24.34,0,0,1-4,8.91A25.36,25.36,0,0,1,119.8,591.73Zm-25-24.65a1.86,1.86,0,0,0,1.3.42h7v-4.42h-7a1.6,1.6,0,0,0-1.34.54,3.17,3.17,0,0,0-.42,1.9A2.09,2.09,0,0,0,94.85,567.08Zm.23-24.64h8.07v-3.73H96.91q-1.68,0-1.83,1.83Zm8.07,8.61v-4H95.08v2.21a1.66,1.66,0,0,0,1.83,1.83Zm10,29.48H100l-.53.84c-.1.2-.34.59-.72,1.18a2.87,2.87,0,0,0-.57,1.25c0,.66.61,1.12,1.82,1.37l9.6,2.59A15.37,15.37,0,0,0,113.13,580.53Zm-4.64-38.09H117v-1.9a1.81,1.81,0,0,0-.42-1.33,2.19,2.19,0,0,0-1.41-.5h-6.7Zm0,8.61h6.7a1.62,1.62,0,0,0,1.83-1.83V547h-8.53Zm0,16.45H116a1.64,1.64,0,0,0,1.3-.45,4.24,4.24,0,0,0,0-3.51,1.64,1.64,0,0,0-1.3-.46h-7.46Zm46,27.88c0,2.24-1,3.35-3,3.35q-4.12,0-12.65-10.28a38.89,38.89,0,0,1-7.69,7.31c-3.05,2.14-5.18,3.2-6.4,3.2a2.94,2.94,0,0,1-2.21-.72,3.17,3.17,0,0,1-.68-2.25c0-1.32,1.16-2.56,3.5-3.73a27.59,27.59,0,0,0,10.13-8.61,44.13,44.13,0,0,1-3.58-11,129.21,129.21,0,0,1-2.28-16.38c-1.83,3.61-3.31,5.41-4.42,5.41-1.68,0-2.52-1-2.52-3a6.7,6.7,0,0,1,1.22-2.89q4.72-7.4,7.85-20.19a20.42,20.42,0,0,1,1.45-4.72,2.77,2.77,0,0,1,2.36-1c2,0,3,.84,3,2.51q0,2.13-3.88,12.34h17c1.92,0,2.89,1,2.89,3.05s-1,3-2.89,3H149l-.23,4.64A109.79,109.79,0,0,1,147,571.54a42,42,0,0,1-4.87,12.11,42,42,0,0,0,9,7.62Q154.49,593.33,154.49,595.38ZM143.37,552l.08-1.21h-9.6l.38,6.39q.77,13.33,4.42,21.26Q142.61,570.24,143.37,552Z"/><path class="cls-1" d="M232,583.88c0,1.68-1,2.51-3.13,2.51H200v5.41c0,2.74-.59,4.72-1.75,5.94s-3,1.73-5.56,1.53H188a4.49,4.49,0,0,1-2.78-.69,2.62,2.62,0,0,1-.88-2.21q0-2.82,3.66-2.82h3.05q2.81,0,3-3v-4.19H166.6c-2,0-3-.83-3-2.51s1-2.51,3-2.51H194v-2.14a2.69,2.69,0,0,1,1.29-2.51,25.83,25.83,0,0,1,6.1-1.9l7.92-2.06v-.15H175.67c-2,0-3-.79-3-2.36a2.33,2.33,0,0,1,.68-1.83,3.41,3.41,0,0,1,2.29-.61h40.75a11.6,11.6,0,0,1,4.42.65,2.1,2.1,0,0,1,1.52,1.94q0,1.22-5.25,3.43a135.51,135.51,0,0,1-14.7,4.87c-1.63.46-2.44,1.19-2.44,2.21v.46h28.94C231,581.37,232,582.2,232,583.88ZM164.47,571v-5.87a7.05,7.05,0,0,1,1.22-4.57,5.11,5.11,0,0,1,4-1.52h1.07l-1.6-21.86A4.77,4.77,0,0,1,170,534a5,5,0,0,1,2.94-1.72l7.84-1.29,2.44-.61.88-.23A3.82,3.82,0,0,1,185,530c1.57,0,2.36.89,2.36,2.66,0,.82-.71,1.49-2.13,2a35.09,35.09,0,0,1-7.16,1.41,5,5,0,0,0-2.4.8,1.78,1.78,0,0,0-.65,1.64l.08,2.13h9.29c1.88,0,2.82.79,2.82,2.36s-.94,2.36-2.82,2.36h-8.91l.3,4.19h8.61c1.88,0,2.82.82,2.82,2.44s-.94,2.36-2.82,2.36h-8.3l.3,4.65h43l.31-4.65h-9.14c-1.73,0-2.59-.78-2.59-2.36s.86-2.44,2.59-2.44h9.52l.15-4.19h-9.67a2.82,2.82,0,0,1-2-.57,2.32,2.32,0,0,1-.61-1.79c0-1.57.86-2.36,2.59-2.36h10.2v-1.6a2.7,2.7,0,0,0-.45-1.79,2.26,2.26,0,0,0-1.68-.49h-8.76c-1.63,0-2.44-.74-2.44-2.21a2.45,2.45,0,0,1,.57-1.79,2.6,2.6,0,0,1,1.87-.57h10.82q5.94,0,5.94,4.57L225,559.05h.84q5.55,0,5.1,6.09v6.17q0,3.59-3.05,3.58a2.93,2.93,0,0,1-2.28-.84,4,4,0,0,1-.76-2.74v-4.72c0-1.57-.84-2.41-2.52-2.51H173.23a2.34,2.34,0,0,0-2.59,2.51v4.49q0,3.58-3,3.58T164.47,571Zm23.69-29q0-1.29,4.5-4l1.67-.91c-3.2-2.24-4.8-3.68-4.8-4.35a1.88,1.88,0,0,1,.57-1.44,2.3,2.3,0,0,1,1.64-.54c.61,0,2.64,1.2,6.1,3.58l2.2-2.28a4.31,4.31,0,0,1,2.9-1.75,2.45,2.45,0,0,1,1.71.53,1.9,1.9,0,0,1,.57,1.45q0,1.29-3.8,4.64l.83.46c2.14,1.52,3.2,2.8,3.2,3.81a2.34,2.34,0,0,1-.61,1.75,2.23,2.23,0,0,1-1.67.61,4.19,4.19,0,0,1-2.59-1.45l-2.67-2.51q-5.79,4.57-7.54,4.57A2,2,0,0,1,188.16,542.06Zm5,10.21,1.52-.92-.84-.53c-2.59-1.67-3.88-2.87-3.88-3.58,0-1.32.74-2,2.21-2a6.29,6.29,0,0,1,2.51,1.14l2.36,1.37,1.22.84,2.06-2c1.22-1.11,2.13-1.67,2.74-1.67,1.57,0,2.36.68,2.36,2q0,1.38-3.5,4.12,4.49,3,4.49,4.57a2.05,2.05,0,0,1-2.28,2.36,4.74,4.74,0,0,1-2.59-1.45l-3.28-2.74a42.31,42.31,0,0,1-4.8,3.31,7.24,7.24,0,0,1-2.89,1.18c-1.47,0-2.21-.71-2.21-2.13Q188.39,554.94,193.19,552.27Z"/><path class="cls-1" d="M148.1,697.85v40.22q0,4.8-2.37,7.16t-7.08,2.28H101.1c-3.41,0-5.79-.76-7.16-2.28s-2.21-4-2.21-7.16V697.85c0-3.1.73-5.48,2.21-7.16,1.32-1.52,3.7-2.28,7.16-2.28h11.58c.5-1.43,1.14-3.56,1.9-6.4q.84-2.82,3.27-2.82a3.89,3.89,0,0,1,2.71.87,3,3,0,0,1,1,2.25,5.32,5.32,0,0,1-.23,1.45,31.1,31.1,0,0,1-2.21,4.65h19.58q4.95,0,7.16,2.28C147.33,692.27,148.1,694.65,148.1,697.85Zm-6.25.31c0-2.54-1.25-3.81-3.73-3.81H101.86Q98,694.35,98,698v7.77h43.88Zm0,25.13V711.71H98v11.58Zm0,5.94H98v8.53q0,3.88,3.74,3.89H138q3.89,0,3.89-3.73Z"/><path class="cls-1" d="M163.56,727c0-1.47,1.11-2.61,3.35-3.42a37.14,37.14,0,0,0,12-7.09,72.63,72.63,0,0,0-6-4.64c-1.07-.77-1.6-1.5-1.6-2.21,0-1.68.89-2.52,2.66-2.52q1.83,0,8.53,5.41L186,707.3a56.2,56.2,0,0,0-7-4.73,2.4,2.4,0,0,1-1.52-2.05c0-1.78.76-2.67,2.29-2.67q1.9,0,8.53,4.57c1.62-4.11,2.44-7.24,2.44-9.37,0-.86-.67-1.29-2-1.29H178.41l-1.22,2.89a49,49,0,0,1-6.09,10.28,26.05,26.05,0,0,1-3.09,3.58,3.5,3.5,0,0,1-2.17,1.15q-2.82,0-2.82-3a4.63,4.63,0,0,1,1.68-3.05q7.62-8,10.89-20.72.76-3,3.2-3c2.19,0,3.28.79,3.28,2.37a15.26,15.26,0,0,1-1.22,4.11h10.21q5.4,0,5.4,4.49,0,7.7-5,17.9a41,41,0,0,1-14.55,16.46q-7.77,5.1-10.59,5.1T163.56,727Zm.76,18.59a4.27,4.27,0,0,1,.69-1.9,51.13,51.13,0,0,0,4.11-8.31q1.14-3,3.35-3c2.18,0,3.28.94,3.28,2.82q0,3.12-4.5,11c-1,1.73-2.11,2.59-3.43,2.59Q164.33,748.81,164.32,745.61Zm22.09-1.37L184.58,737l-.23-1.06q0-3,3.05-3,2.21,0,3.66,4,2.2,6.32,2.21,7.46a3.49,3.49,0,0,1-.8,2.55,3.36,3.36,0,0,1-2.48.8Q187.1,747.74,186.41,744.24Zm.38-16.76q0-2.06,2.67-3.12,15.15-5.94,17.67-21.33h-7.85c-2.38,0-3.58-1-3.58-2.89s1.2-2.9,3.58-2.9h8.46l.07-5.71c0-1.27,0-2.18,0-2.74s0-1,0-1.22v-4.65a3.18,3.18,0,0,1,.76-2.4,3.23,3.23,0,0,1,2.29-.72q3,0,3,3c0,2.44-.07,4.87-.22,7.31q-.16,2.28-.31,7.16h14.32q3.66,0,3.66,2.9T227.77,703h-14.4a39,39,0,0,0,16.69,20.64c1.62,1,2.43,2.06,2.43,3.13,0,2.28-1.06,3.42-3.2,3.42a7.43,7.43,0,0,1-4.07-1.63,38.52,38.52,0,0,1-5.45-4.92,36.28,36.28,0,0,1-8.45-14.09h-.15q-3.88,11.65-13.18,17.6-5.72,3.74-8.08,3.73Q186.79,730.91,186.79,727.48Zm17.6,17.37a42.06,42.06,0,0,0-2.14-6,12.6,12.6,0,0,1-1.06-3.27c0-2,1-3,3-3,1.42,0,3,1.78,4.57,5.34s2.44,5.91,2.44,6.78q0,3.42-3.35,3.42C206.16,748.12,205,747,204.39,744.85Zm19.88,1.29c-.76-1.62-2.14-4.21-4.12-7.77-.15-.35-.43-.88-.83-1.6a5,5,0,0,1-.77-1.9c0-2,1.1-3,3.28-3q1.83,0,5.71,5.87,3.81,5.64,3.81,7.54,0,3.49-3.58,3.5Q225.49,748.73,224.27,746.14Zm-3.35-56-.92-1.53c-.1-.15-.32-.5-.65-1.06a2.86,2.86,0,0,1-.49-1.3c0-1.67,1-2.51,2.89-2.51,1,0,2.26,1.14,3.89,3.43S228,691,228,691.83q0,2.67-3,2.67Q223.58,694.5,220.92,690.16Z"/><path class="cls-1" d="M92.41,862.63v8.61q0,10.57-1.29,15.92t-3.73,5.33a2.41,2.41,0,0,1-2.67-2.67,8.06,8.06,0,0,1,.76-2.89q1.83-4.65,1.75-21.94v-3.58c0-2.29.84-3.43,2.52-3.43S92.41,859.53,92.41,862.63Zm9.83-10v43.72c0,2-.91,3-2.74,3s-2.74-1-2.74-3V852.65h-7.7c-2.44,0-3.65-1-3.65-2.9s1.21-2.81,3.65-2.81h21.56c2.28,0,3.43.94,3.43,2.81s-1.15,2.9-3.43,2.9ZM88.07,835.82q0-3,3.43-3h17q3.27,0,3.27,3t-3.27,3h-17Q88.07,838.86,88.07,835.82Zm20.87,51.94c-1.72,0-2.59-1-2.59-2.89V861c0-2,.87-3,2.59-3s2.67,1,2.67,3v23.92C111.61,886.8,110.72,887.76,108.94,887.76Zm45.63,5q0,3.27-4,3.27H112.37q-4,0-4-3.27t4-3.28h17.14V858h-12.8q-3.88,0-3.88-3.27c0-2.14,1.29-3.2,3.88-3.2h12.8V833.76q0-3.81,3.27-3.81t3.28,3.81v17.75H148.4c2.59,0,3.88,1.06,3.88,3.2S151,858,148.4,858H136.06v31.46h14.55Q154.57,889.44,154.57,892.72Z"/><path class="cls-1" d="M163,848a2.4,2.4,0,0,1,.76-1.75,4.78,4.78,0,0,1,2.29-1.14q16.22-4.43,27.19-13.33a21,21,0,0,1,2.7-1.91,4.33,4.33,0,0,1,2-.61,4,4,0,0,1,2.32.73,2.06,2.06,0,0,1,1,1.71,2,2,0,0,1-.53,1.37l1.14.76a64.57,64.57,0,0,0,12.27,5.95,77.23,77.23,0,0,0,14,4.26q4.42.69,4.42,3.05,0,3.66-3.12,3.66-3.66,0-13.41-4l-.23-.08a3,3,0,0,1-.61,2.36,2.89,2.89,0,0,1-2.13.69H182.3c-1.83,0-2.75-.81-2.75-2.44l.08-.61q-11,5-13.63,5C164,851.66,163,850.44,163,848ZM170,869.94c-1-1-1.42-2.49-1.37-4.57V858.9c0-2.19.48-3.76,1.45-4.73s2.49-1.39,4.57-1.29h46.08c2.19,0,3.76.47,4.73,1.41s1.39,2.47,1.29,4.61v6.47a6.62,6.62,0,0,1-1.41,4.68c-.94,1-2.47,1.44-4.61,1.34H174.68Q171.49,871.39,170,869.94Zm3.32,25.63q-1.48-1.49-1.34-4.68V880.6q0-3.27,1.49-4.79t4.76-1.45h38.92c2.24,0,3.86.51,4.88,1.52s1.47,2.59,1.37,4.72v10.29a6.68,6.68,0,0,1-1.49,4.8c-1,1-2.57,1.47-4.76,1.37H178.26C176,897.06,174.34,896.56,173.35,895.57Zm21.36-38h-17.9a2.12,2.12,0,0,0-2.36,2.44v4.19a2.22,2.22,0,0,0,2.36,2.44h17.9Zm22.7,23.84a2.22,2.22,0,0,0-.61-1.71,2.62,2.62,0,0,0-1.67-.65H180.39c-1.42,0-2.18.79-2.28,2.36v2.14h39.3Zm-.65,10.44a2.61,2.61,0,0,0,.65-1.68v-2.51h-39.3v2.51c0,1.42.76,2.18,2.28,2.29h34.74A2.14,2.14,0,0,0,216.76,891.88ZM182.91,864a7.15,7.15,0,0,1-1.6-3.35c0-1.27.76-1.91,2.28-1.91.92,0,1.83.66,2.74,2a6,6,0,0,1,1.37,2.67c0,1.47-.83,2.21-2.51,2.21C184.43,865.6,183.67,865.07,182.91,864Zm14-27.58a87.94,87.94,0,0,1-13.63,8.38h28.64A90.31,90.31,0,0,1,196.92,836.42ZM221,864.23V860a2.2,2.2,0,0,0-2.44-2.44H200.12v9.07h18.43C220.08,866.67,220.89,865.85,221,864.23Zm-13.86-.46a6.06,6.06,0,0,1,1.37-3.35c.86-1.22,1.73-1.83,2.59-1.83,1.72,0,2.59.66,2.59,2a5.77,5.77,0,0,1-1.22,3.2c-.91,1.32-1.88,2-2.89,2C207.94,865.75,207.13,865.09,207.13,863.77Z"/><path class="cls-1" d="M363.3,279.23q0,2.29-4.49,3.66-13.87,4.26-17.3,4.27a3.75,3.75,0,0,1-2.39-.61,2.77,2.77,0,0,1-.73-2.21,3,3,0,0,1,.92-2.44,7.29,7.29,0,0,1,2.32-.88q1.86-.5,4.38-1l1.75-.46V254.1h-5.94q-3.66,0-3.66-3t3.66-3h5.94V233.91a4,4,0,0,1,.76-2.74,3.75,3.75,0,0,1,4.73,0,4.06,4.06,0,0,1,.76,2.74v14.17h4.72q3.74,0,3.73,3t-3.73,3H354v24l4.72-1.14a10.77,10.77,0,0,1,2.06-.38C362.46,276.57,363.3,277.46,363.3,279.23Zm43-31.15q-.24,10.66-.84,21.33-.54,10.2-1.18,15.65a31.75,31.75,0,0,1-1.64,7.81,8.15,8.15,0,0,1-4.26,4.23,22.26,22.26,0,0,1-8.69,1.33c-1.22,0-2.16,0-2.82-.08a5.22,5.22,0,0,1-2.82-.87,3.37,3.37,0,0,1,.2-4.8,6.13,6.13,0,0,1,3.54-.8,28.54,28.54,0,0,0,6-.46,4.46,4.46,0,0,0,2.75-1.52,12.84,12.84,0,0,0,1.1-3.58,48.91,48.91,0,0,0,.8-7.24q1-15.91,1.3-28.64a3.34,3.34,0,0,0-.8-2.7,3.76,3.76,0,0,0-2.63-.8H374a69.62,69.62,0,0,1-5.75,10.55q-2.55,3.61-4.3,3.61c-1.93,0-2.9-.93-2.9-2.81a4.8,4.8,0,0,1,1.22-2.59,57.13,57.13,0,0,0,9.3-20.26l.83-3.36a2.78,2.78,0,0,1,3.05-2.21q3.12,0,3.12,2.67,0,2.13-2.28,8.46h22.32Q406.49,241,406.34,248.08Zm-15.47,30.77a166.86,166.86,0,0,1-20.41,4.65,2.67,2.67,0,0,1-2.48-.65,3.32,3.32,0,0,1-.8-2.32,2.55,2.55,0,0,1,.84-2,6.51,6.51,0,0,1,3-1.22l14.63-3.12,4.95-1a5.18,5.18,0,0,1,1-.08c1.32,0,2.11.81,2.36,2.44S393.06,278.24,390.87,278.85Zm-18.12-14.24q-3.58,0-3.58-2.82,0-3,3.58-3h16.37q3.58,0,3.58,3,0,2.82-3.58,2.82Z"/><path class="cls-1" d="M435.05,267.81q-1.07-2.52-2.81-5.94V296.3c0,2-1,3-2.9,3s-2.89-1-2.89-3V263.62a99.49,99.49,0,0,1-4.35,12.83c-1.27,2.82-2.43,4.23-3.5,4.23-1.78,0-2.67-1.07-2.67-3.2a4.8,4.8,0,0,1,1-2.66q6-8.76,9.22-23.77h-6.4q-3.42,0-3.42-2.82t3.42-2.82h6.71V232.85a2.72,2.72,0,0,1,3-3c1.87,0,2.82,1,2.82,3v12.56h3.27q3.44,0,3.43,2.82t-3.43,2.82h-3.27v7a2.71,2.71,0,0,1,1.37-.54q1.59,0,4.49,5.18c1.93,3.41,2.9,5.46,2.9,6.17a2.43,2.43,0,0,1-.77,1.91,2.94,2.94,0,0,1-2.05.68C437.11,271.46,436.07,270.25,435.05,267.81Zm15.39,16.83a5,5,0,0,1-1.29,2.74,48.6,48.6,0,0,1-3.89,4.27c-3.35,3.3-5.59,5-6.7,5-1.83,0-2.74-.94-2.74-2.82,0-1,.65-2.1,2-3.27a63.42,63.42,0,0,0,6.24-5.94c1.42-1.63,2.59-2.44,3.51-2.44C449.47,282.13,450.44,283,450.44,284.64Zm32.3-4.11H464v11.58c0,2.59-.57,4.46-1.71,5.63s-3,1.68-5.53,1.53H453q-3,0-3-3c0-2,1-3.05,3-3.05h2.51c1.63,0,2.49-.86,2.59-2.59V280.53H440c-1.88,0-2.81-.84-2.81-2.51s.93-2.44,2.81-2.44h42.74c1.88,0,2.82.81,2.82,2.44S484.62,280.53,482.74,280.53Zm-45.1-45.63c0-1.67.94-2.51,2.82-2.51h41.9c1.87,0,2.81.84,2.81,2.51s-.94,2.52-2.81,2.52h-12.8v5.48h7q5.63,0,5.63,5.71v7.24q0,5.72-5.63,5.71h-31q-5.49,0-5.49-5.63v-7.39q0-5.64,5.49-5.64h6.85v-5.48h-12Q437.64,237.42,437.64,234.9ZM477.18,266c1.77,0,2.66.81,2.66,2.44s-.89,2.51-2.66,2.51H445c-1.83,0-2.75-.84-2.75-2.51S443.13,266,445,266Zm-24.76-18.13h-4.49c-1.27,0-2,.69-2.06,2.06v4.57a1.94,1.94,0,0,0,2.06,2.13h4.49Zm5.18-10.43v5.48h6.78v-5.48Zm0,10.43v8.76h6.78v-8.76Zm12,8.76h4.8a1.85,1.85,0,0,0,2.06-2.13v-4.57a1.87,1.87,0,0,0-2.06-2.06h-4.8Zm15,35.15a3.12,3.12,0,0,1,.87,1.95c0,1.93-.94,2.89-2.82,2.89q-1.9,0-7-4.72l-1.22-1.14a29.84,29.84,0,0,1-3.51-3.74,2.94,2.94,0,0,1-.6-1.75,2.24,2.24,0,0,1,.83-1.83,2.69,2.69,0,0,1,1.68-.68,3.83,3.83,0,0,1,2.06.76c-.21-.1,1.19,1.07,4.18,3.5l2.9,2.29A22.16,22.16,0,0,1,484.53,291.76Z"/><path class="cls-1" d="M366.45,429.23q0,2.29-4.5,3.66-13.86,4.26-17.29,4.27a3.8,3.8,0,0,1-2.4-.61,2.8,2.8,0,0,1-.72-2.21,3,3,0,0,1,.91-2.44,7.49,7.49,0,0,1,2.33-.88q1.86-.5,4.38-1l1.75-.46V404.1H345q-3.66,0-3.66-3t3.66-3.05h5.94V383.91a4,4,0,0,1,.76-2.74,3.74,3.74,0,0,1,4.72,0,4,4,0,0,1,.77,2.74v14.17h4.72q3.74,0,3.73,3.05t-3.73,3h-4.72v24l4.72-1.14a10,10,0,0,1,2.06-.38C365.61,426.57,366.45,427.46,366.45,429.23Zm43-31.15q-.24,10.67-.84,21.33-.54,10.2-1.18,15.65a31.86,31.86,0,0,1-1.64,7.81,8.17,8.17,0,0,1-4.27,4.23,22.17,22.17,0,0,1-8.68,1.33c-1.22,0-2.16,0-2.82-.08a5.22,5.22,0,0,1-2.82-.87,2.8,2.8,0,0,1-.91-2.33,2.86,2.86,0,0,1,1.1-2.47,6.11,6.11,0,0,1,3.55-.8,28.54,28.54,0,0,0,6-.46,4.46,4.46,0,0,0,2.75-1.52,12.84,12.84,0,0,0,1.1-3.58,48.91,48.91,0,0,0,.8-7.24q1-15.91,1.3-28.64a3.38,3.38,0,0,0-.8-2.7,3.78,3.78,0,0,0-2.63-.8h-22.4a69.62,69.62,0,0,1-5.75,10.55q-2.55,3.61-4.3,3.61c-1.93,0-2.9-.93-2.9-2.81a4.8,4.8,0,0,1,1.22-2.59,57.27,57.27,0,0,0,9.3-20.27l.83-3.35a2.77,2.77,0,0,1,3.05-2.21q3.12,0,3.12,2.67,0,2.13-2.28,8.46h22.32Q409.64,391,409.49,398.08ZM394,428.85a166.86,166.86,0,0,1-20.41,4.65,2.67,2.67,0,0,1-2.48-.65,3.32,3.32,0,0,1-.8-2.32,2.55,2.55,0,0,1,.84-2,6.51,6.51,0,0,1,3-1.22l14.63-3.12,5-1a5.18,5.18,0,0,1,1-.08c1.32,0,2.1.81,2.36,2.44S396.21,428.24,394,428.85Zm-18.13-14.24c-2.38,0-3.58-.94-3.58-2.82s1.2-3,3.58-3h16.38q3.59,0,3.58,3,0,2.82-3.58,2.82Z"/><path class="cls-1" d="M438.2,417.81q-1.06-2.52-2.82-5.94V446.3c0,2-1,3-2.89,3s-2.89-1-2.89-3V413.62a100,100,0,0,1-4.35,12.83c-1.27,2.82-2.43,4.23-3.5,4.23-1.78,0-2.67-1.07-2.67-3.2a4.8,4.8,0,0,1,1-2.66q5.94-8.76,9.22-23.77h-6.4c-2.28,0-3.43-.94-3.43-2.82s1.15-2.82,3.43-2.82h6.71V382.84a2.72,2.72,0,0,1,3-3c1.87,0,2.81,1,2.81,3v12.57h3.28c2.28,0,3.43.94,3.43,2.82s-1.15,2.82-3.43,2.82h-3.28v7a2.77,2.77,0,0,1,1.38-.54q1.59,0,4.49,5.18c1.93,3.41,2.89,5.46,2.89,6.17a2.43,2.43,0,0,1-.76,1.91,2.94,2.94,0,0,1-2.05.68C440.26,421.46,439.22,420.25,438.2,417.81Zm15.39,16.83a5,5,0,0,1-1.3,2.74,46.67,46.67,0,0,1-3.88,4.27c-3.35,3.3-5.59,5-6.7,5-1.83,0-2.75-.94-2.75-2.82q0-1.51,2-3.27a62.62,62.62,0,0,0,6.25-5.94c1.42-1.63,2.59-2.44,3.5-2.44C452.62,432.13,453.59,433,453.59,434.64Zm32.3-4.11H467.15v11.58c0,2.59-.57,4.46-1.72,5.63s-3,1.68-5.52,1.53h-3.73q-3,0-3.05-3c0-2,1-3.05,3.05-3.05h2.51c1.63,0,2.49-.87,2.59-2.59V430.53H443.15c-1.88,0-2.81-.84-2.81-2.52s.93-2.43,2.81-2.43h42.74c1.87,0,2.81.81,2.81,2.43S487.76,430.53,485.89,430.53Zm-45.1-45.63c0-1.67.94-2.51,2.82-2.51h41.9c1.87,0,2.81.84,2.81,2.51s-.94,2.52-2.81,2.52h-12.8v5.48h7q5.63,0,5.63,5.71v7.24q0,5.72-5.63,5.71h-31q-5.47,0-5.48-5.64v-7.38q0-5.64,5.48-5.64h6.86v-5.48h-12Q440.79,387.42,440.79,384.9ZM480.33,416c1.77,0,2.66.81,2.66,2.44s-.89,2.51-2.66,2.51H448.1c-1.82,0-2.74-.84-2.74-2.51s.92-2.44,2.74-2.44Zm-24.76-18.13h-4.49c-1.27,0-2,.69-2.06,2.06v4.57a1.94,1.94,0,0,0,2.06,2.13h4.49Zm5.18-10.43v5.48h6.78v-5.48Zm0,10.43v8.76h6.78v-8.76Zm12,8.76h4.8c1.37,0,2.05-.71,2.05-2.13v-4.57a1.86,1.86,0,0,0-2.05-2.06h-4.8Zm15,35.15a3.12,3.12,0,0,1,.87,1.95c0,1.93-.94,2.89-2.82,2.89q-1.91,0-7-4.72l-1.22-1.14A29.84,29.84,0,0,1,474,437a3,3,0,0,1-.61-1.75,2.25,2.25,0,0,1,.84-1.83,2.69,2.69,0,0,1,1.68-.68,3.78,3.78,0,0,1,2,.76q-.3-.15,4.19,3.5l2.9,2.29A22.16,22.16,0,0,1,487.68,441.76Z"/><path class="cls-1" d="M369.6,579.23q0,2.29-4.5,3.66-13.86,4.26-17.29,4.27a3.8,3.8,0,0,1-2.4-.61,2.8,2.8,0,0,1-.72-2.21,3,3,0,0,1,.91-2.44,7.49,7.49,0,0,1,2.33-.88q1.86-.49,4.38-1l1.75-.46V554.1h-5.94q-3.66,0-3.66-3t3.66-3h5.94V533.91a4,4,0,0,1,.76-2.74,3.74,3.74,0,0,1,4.72,0,4,4,0,0,1,.77,2.74v14.17H365q3.74,0,3.73,3t-3.73,3h-4.72v24L365,577a10.85,10.85,0,0,1,2.05-.38C368.76,576.57,369.6,577.46,369.6,579.23Zm43-31.15q-.24,10.67-.84,21.33-.54,10.2-1.18,15.65a32.34,32.34,0,0,1-1.64,7.81,8.21,8.21,0,0,1-4.27,4.23,22.17,22.17,0,0,1-8.68,1.33c-1.22,0-2.16,0-2.82-.08a5.22,5.22,0,0,1-2.82-.87,2.8,2.8,0,0,1-.91-2.33,2.86,2.86,0,0,1,1.1-2.47,6.11,6.11,0,0,1,3.55-.8,28.54,28.54,0,0,0,6-.46,4.46,4.46,0,0,0,2.75-1.52,12.84,12.84,0,0,0,1.1-3.58,48.91,48.91,0,0,0,.8-7.24q1-15.92,1.29-28.64a3.31,3.31,0,0,0-.8-2.7,3.74,3.74,0,0,0-2.62-.8h-22.4a69.62,69.62,0,0,1-5.75,10.55q-2.55,3.62-4.3,3.61c-1.93,0-2.9-.93-2.9-2.81a4.8,4.8,0,0,1,1.22-2.59,57.09,57.09,0,0,0,9.29-20.27l.84-3.35a2.77,2.77,0,0,1,3-2.21q3.12,0,3.12,2.67,0,2.13-2.28,8.46h22.32Q412.79,541,412.64,548.08Zm-15.47,30.77a166.86,166.86,0,0,1-20.41,4.65,2.67,2.67,0,0,1-2.48-.65,3.32,3.32,0,0,1-.8-2.32,2.55,2.55,0,0,1,.84-2,6.51,6.51,0,0,1,3-1.22l14.63-3.12,4.95-1a5.18,5.18,0,0,1,1-.08c1.32,0,2.1.81,2.36,2.44S399.35,578.24,397.17,578.85ZM379,564.61c-2.38,0-3.58-.94-3.58-2.82s1.2-3,3.58-3h16.38q3.58,0,3.58,3t-3.58,2.82Z"/><path class="cls-1" d="M441.35,567.81q-1.07-2.52-2.82-5.94V596.3c0,2-1,3-2.89,3s-2.9-1-2.9-3V563.62a98.77,98.77,0,0,1-4.34,12.83c-1.27,2.82-2.43,4.23-3.5,4.23-1.78,0-2.67-1.07-2.67-3.2a4.8,4.8,0,0,1,1-2.66q5.94-8.76,9.22-23.77H426c-2.28,0-3.43-.94-3.43-2.82s1.15-2.82,3.43-2.82h6.7V532.84a2.72,2.72,0,0,1,3-3c1.87,0,2.81,1,2.81,3v12.57h3.28c2.28,0,3.43.94,3.43,2.82s-1.15,2.82-3.43,2.82h-3.28v7a2.78,2.78,0,0,1,1.37-.54q1.61,0,4.5,5.18c1.93,3.41,2.89,5.46,2.89,6.17a2.43,2.43,0,0,1-.76,1.91,2.94,2.94,0,0,1-2,.68C443.41,571.46,442.37,570.25,441.35,567.81Zm15.39,16.83a5,5,0,0,1-1.3,2.74,48.21,48.21,0,0,1-3.88,4.27c-3.35,3.3-5.59,5-6.7,5-1.83,0-2.75-.94-2.75-2.82q0-1.51,2-3.27a62.62,62.62,0,0,0,6.25-5.94c1.42-1.63,2.59-2.44,3.5-2.44C455.77,582.13,456.74,583,456.74,584.64Zm32.3-4.11H470.3v11.58c0,2.59-.57,4.46-1.72,5.63s-3,1.68-5.52,1.53h-3.73q-3,0-3.05-3c0-2,1-3,3.05-3h2.51c1.63,0,2.49-.87,2.59-2.59V580.53H446.3q-2.82,0-2.82-2.52t2.82-2.43H489c1.87,0,2.81.81,2.81,2.43S490.91,580.53,489,580.53Zm-45.1-45.63c0-1.67.94-2.51,2.82-2.51h41.89c1.88,0,2.82.84,2.82,2.51s-.94,2.52-2.82,2.52H475.86v5.48h7q5.63,0,5.63,5.71v7.24q0,5.71-5.63,5.71h-31q-5.48,0-5.48-5.64v-7.38q0-5.64,5.48-5.64h6.86v-5.48h-12Q443.94,537.42,443.94,534.9ZM483.48,566c1.77,0,2.66.81,2.66,2.44s-.89,2.51-2.66,2.51H451.25c-1.82,0-2.74-.84-2.74-2.51s.92-2.44,2.74-2.44Zm-24.76-18.13h-4.49c-1.27,0-2,.69-2.06,2.06v4.57a1.94,1.94,0,0,0,2.06,2.13h4.49Zm5.18-10.43v5.48h6.78v-5.48Zm0,10.43v8.76h6.78v-8.76Zm12,8.76h4.8c1.37,0,2-.71,2-2.13v-4.57a1.86,1.86,0,0,0-2-2.06h-4.8Zm15,35.15a3.12,3.12,0,0,1,.87,2c0,1.93-.94,2.89-2.82,2.89q-1.9,0-7-4.72l-1.22-1.14a29.84,29.84,0,0,1-3.51-3.74,3,3,0,0,1-.61-1.75,2.25,2.25,0,0,1,.84-1.83,2.69,2.69,0,0,1,1.68-.68,3.78,3.78,0,0,1,2.05.76q-.3-.15,4.19,3.5l2.9,2.29A22.16,22.16,0,0,1,490.83,591.76Z"/><path class="cls-3" d="M347.38,693.43q0-3,3.66-3h14.7l-1.83-4.12-.76-1.67a14.45,14.45,0,0,1-.91-2.29c0-1.62,1.09-2.44,3.27-2.44,1.83,0,3.45,1.63,4.88,4.88l2.43,5.64h17.07l3-8a3.69,3.69,0,0,1,3.73-2.67q3.59,0,3.58,2.9,0,1.59-2.06,5.25l-1.37,2.52h16.53q3.74,0,3.73,3t-3.73,3.05H351Q347.38,696.48,347.38,693.43ZM352,745.92V708.13q0-3.35,1.49-4.87c1-1,2.6-1.47,4.83-1.37H374.5c2.28,0,3.95.49,5,1.48s1.48,2.58,1.33,4.76v33.06q.54,7.92-7.31,7.62h-3.66q-3.64,0-3.65-3.12t3.12-3.13H372c1.62,0,2.48-.88,2.59-2.66v-8.23H358.12v13.94q0,3.81-3,3.81Q352,749.42,352,745.92Zm22.63-36a2.15,2.15,0,0,0-2.29-2.36H360.41c-1.42,0-2.19.79-2.29,2.36v4.34h16.46Zm0,16.3v-6.47H358.12v6.47Zm13.94,6.93V706.53q0-3.19,3.12-3.2t3.12,3.2v26.66c0,2-1,3-3.12,3S388.52,735.23,388.52,733.19ZM395,745.46q0-3.29,3.58-3.28h3.58c2,0,3-1.06,3.05-3.2V704.55c0-2.33,1.06-3.5,3.2-3.5s3.12,1.17,3.12,3.5v36.34q0,4.26-1.91,6.21t-6,1.71h-5Q395,748.81,395,745.46Z"/><path class="cls-3" d="M444.5,717.81q-1.06-2.52-2.82-5.94V746.3c0,2-1,3-2.89,3s-2.9-1-2.9-3V713.62a98.77,98.77,0,0,1-4.34,12.83q-1.91,4.23-3.5,4.23c-1.78,0-2.67-1.07-2.67-3.2a4.8,4.8,0,0,1,1-2.66q5.94-8.76,9.22-23.77h-6.4c-2.28,0-3.43-.94-3.43-2.82s1.15-2.82,3.43-2.82h6.7V682.84a2.72,2.72,0,0,1,3-3c1.88,0,2.82,1,2.82,3v12.57H445c2.28,0,3.43.94,3.43,2.82s-1.15,2.82-3.43,2.82h-3.28v7a2.78,2.78,0,0,1,1.37-.54q1.6,0,4.5,5.18c1.93,3.41,2.89,5.46,2.89,6.17a2.43,2.43,0,0,1-.76,1.91,2.94,2.94,0,0,1-2.06.68C446.56,721.46,445.52,720.25,444.5,717.81Zm15.39,16.83a5,5,0,0,1-1.3,2.74,48.21,48.21,0,0,1-3.88,4.27c-3.35,3.3-5.59,5-6.7,5-1.83,0-2.75-.94-2.75-2.82q0-1.51,2-3.27a62.62,62.62,0,0,0,6.25-5.94c1.42-1.63,2.59-2.44,3.5-2.44C458.92,732.13,459.89,733,459.89,734.64Zm32.3-4.11H473.45v11.58c0,2.59-.57,4.46-1.72,5.63s-3,1.68-5.52,1.53h-3.73q-3,0-3.05-3c0-2,1-3,3.05-3H465c1.63,0,2.49-.87,2.59-2.59V730.53H449.45q-2.82,0-2.82-2.52t2.82-2.43h42.74c1.87,0,2.81.81,2.81,2.43S494.06,730.53,492.19,730.53Zm-45.1-45.63c0-1.67.94-2.51,2.82-2.51H491.8c1.88,0,2.82.84,2.82,2.51s-.94,2.52-2.82,2.52H479v5.48h7q5.63,0,5.63,5.71v7.24q0,5.71-5.63,5.71H455q-5.47,0-5.48-5.64v-7.38q0-5.64,5.48-5.64h6.86v-5.48h-12Q447.09,687.42,447.09,684.9ZM486.62,716c1.78,0,2.67.81,2.67,2.44s-.89,2.51-2.67,2.51H454.4c-1.82,0-2.74-.84-2.74-2.51s.92-2.44,2.74-2.44Zm-24.75-18.13h-4.5c-1.27,0-1.95.69-2.05,2.06v4.57a1.93,1.93,0,0,0,2.05,2.13h4.5Zm5.18-10.43v5.48h6.78v-5.48Zm0,10.43v8.76h6.78v-8.76Zm12,8.76h4.8c1.37,0,2.05-.71,2.05-2.13v-4.57a1.86,1.86,0,0,0-2.05-2.06H479Zm15,35.15a3.12,3.12,0,0,1,.87,2c0,1.92-.94,2.89-2.82,2.89-1.27,0-3.6-1.57-7-4.72l-1.21-1.14A29.84,29.84,0,0,1,480.3,737a3,3,0,0,1-.61-1.75,2.25,2.25,0,0,1,.84-1.83,2.69,2.69,0,0,1,1.68-.68,3.78,3.78,0,0,1,2.05.76q-.3-.15,4.19,3.5l2.9,2.29A23,23,0,0,1,494,741.76Z"/><path class="cls-1" d="M398.14,878.08a3,3,0,0,1-.92-2.21,3.21,3.21,0,0,1,.88-2.29,3,3,0,0,1,2.25-.91h14.39a3.24,3.24,0,0,1,3.2,3.2,3,3,0,0,1-.91,2.25,3.19,3.19,0,0,1-2.29.87H400.35A3,3,0,0,1,398.14,878.08Z"/><path class="cls-1" d="M429.22,878.08a3,3,0,0,1-.92-2.21,3.17,3.17,0,0,1,.88-2.29,3,3,0,0,1,2.25-.91h14.39a3.24,3.24,0,0,1,3.2,3.2,3,3,0,0,1-.91,2.25,3.19,3.19,0,0,1-2.29.87H431.43A3,3,0,0,1,429.22,878.08Z"/><path class="cls-1" d="M783.42,718.87q3.09,3.36,3.08,9.07a12.62,12.62,0,0,1-5.44,10.85q-5.44,3.93-14.36,3.93a40.63,40.63,0,0,1-15.92-3.05,3,3,0,0,1-2.06-3,3.26,3.26,0,0,1,.88-2.32,2.9,2.9,0,0,1,2.25-1,4,4,0,0,1,1.44.31,32.6,32.6,0,0,0,12.11,2.21,21.58,21.58,0,0,0,10.17-2.06,6.72,6.72,0,0,0,3.85-6.32q0-9.52-16.76-9.52h-1.22a3.28,3.28,0,0,1,0-6.55h.46q7.7,0,11.65-2.33a7.46,7.46,0,0,0,4-6.82,6.55,6.55,0,0,0-3.13-5.78c-2.08-1.38-5-2.06-8.83-2.06A27.41,27.41,0,0,0,753.75,697a3.65,3.65,0,0,1-1.37.31,2.83,2.83,0,0,1-2-.84,2.75,2.75,0,0,1-.88-2.06,2.91,2.91,0,0,1,1.6-2.66,31.49,31.49,0,0,1,15.09-3.89c5.83,0,10.37,1.2,13.59,3.58s4.84,5.79,4.84,10.21q0,9.3-9.06,12.72A15.27,15.27,0,0,1,783.42,718.87Z"/><path class="cls-1" d="M763.85,872.76a3,3,0,0,1-.91-2.21,3.15,3.15,0,0,1,.88-2.28,3,3,0,0,1,2.24-.92h14.4a3.24,3.24,0,0,1,3.2,3.2,3,3,0,0,1-.92,2.25,3.18,3.18,0,0,1-2.28.87h-14.4A3,3,0,0,1,763.85,872.76Z"/><path class="cls-1" d="M794.93,872.76a3,3,0,0,1-.91-2.21,3.18,3.18,0,0,1,.87-2.28,3,3,0,0,1,2.25-.92h14.4a3.26,3.26,0,0,1,3.2,3.2,3,3,0,0,1-.92,2.25,3.18,3.18,0,0,1-2.28.87h-14.4A3,3,0,0,1,794.93,872.76Z"/><path class="cls-1" d="M783.42,418.87q3.08,3.36,3.08,9.07a12.62,12.62,0,0,1-5.44,10.85q-5.44,3.93-14.36,3.93a40.63,40.63,0,0,1-15.92-3.05,3,3,0,0,1-2.06-3,3.26,3.26,0,0,1,.88-2.32,2.89,2.89,0,0,1,2.24-1,4,4,0,0,1,1.45.31,32.6,32.6,0,0,0,12.11,2.21,21.58,21.58,0,0,0,10.17-2.06,6.72,6.72,0,0,0,3.85-6.32q0-9.53-16.76-9.52h-1.22a3.28,3.28,0,0,1,0-6.55h.46q7.7,0,11.65-2.33a7.45,7.45,0,0,0,4-6.82,6.54,6.54,0,0,0-3.12-5.78c-2.08-1.38-5-2.06-8.83-2.06A27.41,27.41,0,0,0,753.75,397a3.65,3.65,0,0,1-1.37.31,2.83,2.83,0,0,1-2-.84,2.75,2.75,0,0,1-.88-2.06,2.92,2.92,0,0,1,1.6-2.66,31.49,31.49,0,0,1,15.09-3.89c5.83,0,10.37,1.2,13.59,3.58s4.84,5.79,4.84,10.21q0,9.3-9.07,12.72A15.26,15.26,0,0,1,783.42,418.87Z"/><path class="cls-1" d="M783.42,568.87q3.08,3.36,3.08,9.07a12.62,12.62,0,0,1-5.44,10.85q-5.44,3.93-14.36,3.93a40.63,40.63,0,0,1-15.92-3.05,3,3,0,0,1-2.06-3,3.26,3.26,0,0,1,.88-2.32,2.89,2.89,0,0,1,2.24-1,4,4,0,0,1,1.45.31,32.6,32.6,0,0,0,12.11,2.21,21.58,21.58,0,0,0,10.17-2.06,6.72,6.72,0,0,0,3.85-6.32q0-9.52-16.76-9.52h-1.22a3.28,3.28,0,0,1,0-6.55h.46q7.7,0,11.65-2.33a7.45,7.45,0,0,0,4-6.82,6.54,6.54,0,0,0-3.12-5.78c-2.08-1.38-5-2.06-8.83-2.06A27.41,27.41,0,0,0,753.75,547a3.65,3.65,0,0,1-1.37.31,2.83,2.83,0,0,1-2-.84,2.75,2.75,0,0,1-.88-2.06,2.92,2.92,0,0,1,1.6-2.66,31.49,31.49,0,0,1,15.09-3.89c5.83,0,10.37,1.2,13.59,3.58s4.84,5.79,4.84,10.21q0,9.3-9.07,12.72A15.26,15.26,0,0,1,783.42,568.87Z"/><path class="cls-1" d="M783.42,268.87q3.09,3.36,3.08,9.07a12.62,12.62,0,0,1-5.44,10.85q-5.44,3.93-14.36,3.93a40.63,40.63,0,0,1-15.92-3.05,3,3,0,0,1-2.06-3,3.26,3.26,0,0,1,.88-2.32,2.9,2.9,0,0,1,2.25-1,4,4,0,0,1,1.44.31,32.6,32.6,0,0,0,12.11,2.21,21.58,21.58,0,0,0,10.17-2.06,6.72,6.72,0,0,0,3.85-6.32q0-9.53-16.76-9.52h-1.22a3.28,3.28,0,0,1,0-6.55h.46q7.7,0,11.65-2.33a7.46,7.46,0,0,0,4-6.82,6.55,6.55,0,0,0-3.13-5.78c-2.08-1.38-5-2.06-8.83-2.06A27.41,27.41,0,0,0,753.75,247a3.65,3.65,0,0,1-1.37.31,2.83,2.83,0,0,1-2-.84,2.75,2.75,0,0,1-.88-2.06,2.92,2.92,0,0,1,1.6-2.66,31.49,31.49,0,0,1,15.09-3.89c5.83,0,10.37,1.2,13.59,3.58s4.84,5.79,4.84,10.21q0,9.3-9.06,12.72A15.27,15.27,0,0,1,783.42,268.87Z"/></svg>