<svg id="圖層_1" data-name="圖層 1" xmlns="http://www.w3.org/2000/svg" viewBox="0 0 1000 1000"><defs><style>.cls-1{fill:#2c3e50;}.cls-2,.cls-4{opacity:0.75;}.cls-3,.cls-4{fill:#fff;}</style></defs><rect class="cls-1" width="1000" height="1000" rx="146.13"/><g class="cls-2"><path class="cls-3" d="M534.66,656H452.34a24.84,24.84,0,0,1-24.84-24.84V446H379.34a24.84,24.84,0,0,1-24.84-24.84V341.84A24.84,24.84,0,0,1,379.34,317H427.5V277.24c0-39.23,12.36-72.61,35.74-96.52S519.54,144,558.15,144l62.55.1a24.83,24.83,0,0,1,24.8,24.77v73.36A24.83,24.83,0,0,1,620.66,267l-41.91,0c-12.78,0-16,2.57-16.74,3.36-1.14,1.31-2.51,5-2.51,15.24V317h58a24.77,24.77,0,0,1,25,24.87l0,79.28A24.83,24.83,0,0,1,617.73,446H559.5V631.16A24.84,24.84,0,0,1,534.66,656ZM457.5,626h72V432.58A16.58,16.58,0,0,1,546.08,416H612.5l0-69H546.08a16.58,16.58,0,0,1-16.58-16.58v-45c0-11.69,1.19-25,10-35C550.17,238.39,567,237,578.69,237l36.81,0V174l-57-.09c-62.3,0-101,39.65-101,103.48v53A16.58,16.58,0,0,1,440.92,347H384.5v69h56.42a16.58,16.58,0,0,1,16.58,16.58Zm163-452Z"/></g><path class="cls-4" d="M144.22,860.45a70.35,70.35,0,0,1-10.64-13.54,83.23,83.23,0,0,1-17.72,13.32q-9.45,5.49-13.64,5.48c-2.8,0-4.19-1.5-4.19-4.51a3.7,3.7,0,0,1,1.07-2.9,57.34,57.34,0,0,1,7.63-3.22q12.13-4.41,22.66-16-8.16-17.07-10.2-43.72H86c-1.72,0-2.83.47-3.33,1.4S82,802,82,810H103.4q8.8,0,8.81,9.24,0,20.29-2.69,25.14-3.54,6.23-16.76,6.23-4.4,0-4.4-4.62,0-4.41,4.4-4.41h4q5.81,0,6.55-5.8a96,96,0,0,0,.86-14,3.33,3.33,0,0,0-1-2.63,4.12,4.12,0,0,0-2.85-.92H82q0,20.63-2.79,32.44a41.13,41.13,0,0,1-3.87,10.85q-2.14,3.66-4.73,3.66c-3,0-4.51-1.65-4.51-4.95q0-1.5,2.37-6.33t3.65-14.4a166.86,166.86,0,0,0,1.18-22.34l-.21-20.73q-.23-9.88,9.66-9.89h36l-.22-13q0-4.6,4.41-4.61c3,0,4.51,1.71,4.51,5.15v12.46h30.19q5.37,0,5.37,4.41t-5.37,4.4H128q1.4,21.06,7.2,36.1l1.07-1.29a75.73,75.73,0,0,0,9.24-18.59q1.81-5.58,5.15-5.58,4.31,0,4.3,3.76,0,2.36-4.83,12.35a132.46,132.46,0,0,1-10.53,18,68.13,68.13,0,0,0,6.34,9q4.08,5.05,6,5.05,2.58,0,3.12-7.2c.36-4.51,1.75-6.77,4.19-6.77q4.62,0,4.62,4.62A37,37,0,0,1,161,859q-2.8,6.87-6.88,6.87Q149.59,865.82,144.22,860.45Zm-5.37-84.11a5.91,5.91,0,0,1-1.18-2.26q0-4,4.72-4c1.22,0,3.12,1.39,5.7,4.19a18,18,0,0,1,2.47,3.22,5.33,5.33,0,0,1,.86,2.26c0,2.72-1.62,4.08-4.84,4.08Q144,783.86,138.85,776.34Z"/><path class="cls-4" d="M176.45,860.77a3.71,3.71,0,0,1,1.34-2.68,17,17,0,0,1,4.13-2.69q32.13-15.57,36-50.7h-35a6.57,6.57,0,0,1-4.14-1.08,4,4,0,0,1-1.34-3.33,3.86,3.86,0,0,1,1.34-3.27,6.86,6.86,0,0,1,4.14-1h36q.52-4.85.53-21.27c0-3.66,1.47-5.48,4.41-5.48a4.24,4.24,0,0,1,3.54,1.5,6.26,6.26,0,0,1,1.18,4q0,6.43-.53,21.27h39q5.47,0,5.48,4.29T267,804.7H229.19a73.59,73.59,0,0,0,14.29,28.57,82.87,82.87,0,0,0,26.1,21.38q4,2.15,4,5.26,0,5.26-4.83,5.27-1.19,0-4.35-1.83t-9.4-6.12a80.18,80.18,0,0,1-30-40.29q-7.63,28.47-32.23,43.62-8.16,5-11.71,5.05C178,865.61,176.45,864,176.45,860.77Z"/><path class="cls-4" d="M330.49,862.38v-12H290.31q-4.29,0-4.29-3.76t4.29-3.87h40.18v-6.55H304.6c-3.44,0-5.91-.71-7.41-2.15s-2.15-3.72-1.94-6.87V810q0-4.94,2.21-7.2t7.14-1.93h60.69c3.44,0,5.91.74,7.42,2.2s2.14,3.78,1.93,6.93v17.19c0,3.22-.74,5.57-2.2,7s-3.85,2.14-7.15,2H339v6.55h40.61c2.94,0,4.4,1.29,4.4,3.87s-1.46,3.76-4.4,3.76H339v12q0,4.41-4.18,4.41T330.49,862.38Zm-39-75.09v-6.76q0-8.28,8.38-8.27h22.45q8.28,0,8.28,8.27v6.76q0,8.38-8.06,8.38H299.87Q291.5,795.67,291.49,787.29Zm30.62-1.71v-3.12c0-1.86-1-2.86-2.9-3H302.88c-1.79,0-2.76,1-2.9,3v3.12c0,1.79,1,2.75,2.9,2.9h16.33C321,788.48,322,787.51,322.11,785.58Zm8.49,21.91H306.86q-3.23,0-3.23,3.12v4.61h27Zm0,13.86h-27v4.94c0,2,1.08,3.08,3.23,3.22H330.6Zm7.84-33.84v-7q0-8.28,8.16-8.27h23.53q8.26,0,8.27,8.27v6.76q0,8.38-8.17,8.38H346.6Q338.44,795.67,338.44,787.51Zm27.71,23.1q0-2.91-3.22-3.12H338.87v7.73h27.28Zm-.91,18a3.69,3.69,0,0,0,.91-2.36v-4.94H338.87v8.16h24.06A3,3,0,0,0,365.24,828.65Zm3.92-41a3.37,3.37,0,0,0,.86-2.09v-3.12q0-2.79-3-3H349.72a2.79,2.79,0,0,0-2.15.81,3.11,3.11,0,0,0-.75,2.2v3.12c0,1.79,1,2.75,2.9,2.9H367A2.79,2.79,0,0,0,369.16,787.67Z"/><path class="cls-4" d="M493.88,848.74q0,3.87-4.94,3.87h-40.5v9.77a5,5,0,0,1-1.08,3.39,4,4,0,0,1-3.22,1.23,4.08,4.08,0,0,1-3.17-1.23,4.87,4.87,0,0,1-1.13-3.39v-9.77H401q-4.84,0-4.84-3.87,0-4.08,4.84-4.08h38.88v-8.38H416.1q-5.27,0-7.62-2.26t-2-7.41V803.52c0-3.58.76-6.18,2.31-7.79s4-2.31,7.35-2.1h23.74V785.9H403.75a5.67,5.67,0,0,1-3.71-1,3.6,3.6,0,0,1-1.12-2.9q0-4,4.83-4h36.09v-5a4.4,4.4,0,0,1,1.08-3.17,5.15,5.15,0,0,1,6.44,0,4.4,4.4,0,0,1,1.08,3.17v5h37.81q4.72,0,4.73,4a3.61,3.61,0,0,1-1.13,2.9,5.44,5.44,0,0,1-3.6,1H448.44v7.73H473.9q5.14,0,7.52,2.31c1.57,1.54,2.29,4.07,2.14,7.58v23.09q0,5.37-2.31,7.74c-1.54,1.57-4,2.22-7.35,1.93H448.44v8.38h40.5Q493.88,844.66,493.88,848.74Zm-78.85-38h24.81v-9.34H420.29c-2.08,0-3.47.36-4.19,1.07s-1.07,2.11-1.07,4.19Zm24.81,17.83V818.45H415v5c0,2,.36,3.34,1.07,4s2.11,1,4.19,1Zm8.6-17.83H475v-4.08c0-2.08-.36-3.47-1.07-4.19s-2.12-1.07-4.19-1.07H448.44Zm0,17.83h21.27c2.07,0,3.47-.33,4.19-1s1.07-2,1.07-4v-5H448.44Z"/><path class="cls-4" d="M506.93,862.33a5.56,5.56,0,0,1-1-3.6q0-3.76,6-4.51l1.29-.22V807.38q0-4.62,2.15-6.76c1.43-1.44,3.65-2.08,6.66-1.94h23c3.08,0,5.33.7,6.77,2.1s2.07,3.6,1.93,6.6v20.41q0,4.74-2.09,6.88T545,836.49H521.48v15.8l21.06-4.73-1.72-2.47c-1.15-1.72-1.72-2.87-1.72-3.44q0-3.33,3.76-3.33,3.12,0,8.38,8.16t5.37,10.1q0,4-4.3,4-2.89,0-4.51-4l-1.61-3-11.81,3.76-21.06,5.38-3.22.53A3.2,3.2,0,0,1,506.93,862.33ZM534.59,795q-.86-1.29-3.12-8.7l-.43-1.72h-7.51q-8.71,10.95-12.9,11-4,0-4-4c0-1.21,1-2.72,3.12-4.51a60.07,60.07,0,0,0,12.89-15.68,4.42,4.42,0,0,1,4.08-2.58q4.51,0,4.51,3.22,0,1.73-2.47,5.16h21.59c2.86,0,4.3,1.25,4.3,3.76s-1.44,3.65-4.3,3.65H538.67c1.94,4.15,2.9,6.91,2.9,8.27q0,3.43-4,3.44A3.34,3.34,0,0,1,534.59,795Zm10.74,13.75q0-2.89-3.11-3.12H524.6a3,3,0,0,0-2.2.81,3.49,3.49,0,0,0-.92,2.31v5.16h23.85Zm0,17.62v-5.59H521.48v8.7h20.74Q545.12,829.51,545.33,826.4Zm31.58-35.35-2-6.44h-9q-7.1,10.3-10.53,10.31c-2.58,0-3.86-1.29-3.86-3.87,0-1.07.85-2.47,2.57-4.18a36.51,36.51,0,0,0,9-13.86c1.07-2.8,2.68-4.19,4.83-4.19q4.18,0,4.19,3.54,0,1.18-2,4.84h29.22q4.18,0,4.19,3.76t-4.19,3.65h-16c1.94,4.3,2.9,7,2.9,8.16,0,2.37-1.39,3.55-4.19,3.55Q578.42,796.32,576.91,791.05Zm-16.75,71.33V807.92q0-4.93,2.25-7.25c1.51-1.54,3.83-2.2,7-2h20.84c3.3,0,5.7.74,7.2,2.2s2.19,3.82,2,7v39.21q0,5.7-2.47,8.22t-7.84,2.09H582q-5.48,0-5.48-4.51t4.95-4.62h6.12q3,0,3.11-3.22V810.61c0-2.37-1.21-3.55-3.65-3.55H572.29c-2.29,0-3.5,1.18-3.65,3.55v51.77q0,4.62-4.29,4.62C561.55,867,560.16,865.46,560.16,862.38Z"/><path class="cls-4" d="M616.66,808.13c0-1.35,1.86-3.47,5.59-6.33q7-5.37,10-8.06a5.9,5.9,0,0,1,4-1.93q4.18,0,4.19,3.86,0,2.37-8.59,9.67t-11.07,7.41Q616.66,812.75,616.66,808.13Zm.11,54.36c0-1.43.39-2.36,1.18-2.79a18.56,18.56,0,0,1,4-.65c2.15-.21,3.55-.36,4.19-.43a129,129,0,0,0,16-2.79l9.45-1.93q4.08,0,4.08,4c0,1.86-1.64,3.19-4.94,4q-19.65,4.93-30.4,4.94C618,866.79,616.77,865.35,616.77,862.49Zm13.43-82.18-4.3-2.58q-3-1.71-3-3.76c0-2.64,1.4-4,4.19-4q1.29,0,7.84,3.54t6.66,6a4.74,4.74,0,0,1-1.07,3.44,4.58,4.58,0,0,1-3.33,1.07Q635.89,784.07,630.2,780.31Zm-3.12,62.74V819.84q-.75-10.85,10-10h55.86q10.74-.86,10,10v23.21q.75,10.74-10,10H637.07Q626.33,853.79,627.08,843.05Zm67.14-23.21q0-3.65-3.55-3.65H639.33q-3.66,0-3.66,3.65v2.37h58.55Zm0,14.61v-6.23H635.67v6.23Zm0,8.6v-2.58H635.67v2.58q0,3.65,3.66,3.65h51.34Q694.22,846.7,694.22,843.05Zm-20.09-49h-.21q-4.3,6.56-13.65,10.64T644,808.89a3.7,3.7,0,0,1-2.8-.92,3.86,3.86,0,0,1-.86-2.74q0-3.21,3.44-3.65,11.82-1.82,18.53-6.28t7.9-11.55H656.3l-1.08,1.18q-5.79,6.45-8.59,6.45-3.76,0-3.76-3.87c0-1.07.82-2.33,2.47-3.76l2.15-1.83a31.8,31.8,0,0,0,2.69-2.57c2.64-3.08,4.51-5.27,5.58-6.56,2.15-2.58,3.9-3.86,5.27-3.86q4.29,0,4.29,3,0,1.62-3.11,5.16h40q7.3,0,7.3,4.83,0,2.05-6.76,8.6a46.16,46.16,0,0,1-5.32,4.67c-1.54,1.11-2.63,1.67-3.28,1.67a4.06,4.06,0,0,1-2.85-.86,3.75,3.75,0,0,1-.91-2.8c0-1,.75-2.07,2.26-3.22,3.43-2.79,5.15-4.55,5.15-5.26a.85.85,0,0,0-.32-.7,1.13,1.13,0,0,0-.75-.27H678l-.75,3.22q9.22,12.67,32,15.79c2.58.29,3.86,1.58,3.86,3.87q0,4.3-4.18,4.3l-2.37-.32Q682.62,806.41,674.13,794.06Zm8.49,68.65a22,22,0,0,1-5.8-2.21q-2-1.23-2-2.52,0-3.87,4.29-3.87l2,.43A159.47,159.47,0,0,0,707.22,859a12.19,12.19,0,0,1,4.72,1.18,2.78,2.78,0,0,1,1.51,2.58q0,4.08-4,4.08Q698,866.79,682.62,862.71Z"/><path class="cls-4" d="M764.79,791.81q0,3.86-4.72,3.86H730.53q-4.62,0-4.62-3.86t4.62-3.87h29.54Q764.8,787.94,764.79,791.81ZM729.45,777.3c0-2.57,1.51-3.86,4.51-3.86h22.67q4.73,0,4.73,3.86t-4.73,3.87H734C731,781.17,729.45,779.88,729.45,777.3Zm31.37,28.79q0,3.66-4.51,3.66H734.18c-2.94,0-4.4-1.26-4.4-3.76s1.46-3.66,4.4-3.66h22.13C759.32,802.33,760.82,803.59,760.82,806.09Zm0,14.29c0,2.44-1.5,3.65-4.51,3.65H734.39c-3.08,0-4.61-1.21-4.61-3.65s1.46-3.76,4.4-3.76h22.13C759.32,816.62,760.82,817.88,760.82,820.38Zm0,18.91v16.65q0,8.59-8.81,8.59H738.69c-2.86,0-5.05-.72-6.55-2.15a8.18,8.18,0,0,1-2.26-6.23V839.29q0-8.49,8.81-8.49H752Q760.82,830.8,760.82,839.29Zm-7.73,1.39a2.47,2.47,0,0,0-2.8-2.79h-9.88q-2.68,0-2.79,2.79v13.86c0,1.93.93,2.9,2.79,2.9h9.88c1.79,0,2.72-1,2.8-2.9Zm71,1.51a69.5,69.5,0,0,1,0,7.84q-.86,8.6-3.11,11.87a6.91,6.91,0,0,1-5.91,3.28,6.19,6.19,0,0,1-4.67-2.58,18.91,18.91,0,0,1-3.5-7.63q-3.21-12.13-3.33-30.83l-.32-33.41.11-4a4.11,4.11,0,0,0-1.29-3.6,5.4,5.4,0,0,0-4-.91H786.92V810h6.56c3,0,4.51,1.33,4.51,4a3.58,3.58,0,0,1-1.18,2.84,5,5,0,0,1-3.33,1h-6.56v43.4c0,3.22-1.36,4.84-4.08,4.84a3.9,3.9,0,0,1-3.11-1.24,5.3,5.3,0,0,1-1.08-3.6V817.8h-7.41q-4.62,0-4.62-4t4.62-3.87h7.41V782.25h-10.1q-5,0-5-4t5-4h32.77q10.53,0,10.53,8.7l-.11,2.15.21,43.93a126.25,126.25,0,0,0,1.13,18.1q1,6.18,2.74,6.18c.57,0,.93-1,1.07-2.9s.25-5.44.33-10.53q0-3.54,3.43-3.54,3.23,0,3.33,3.65A15,15,0,0,0,824.09,842.19Z"/><path class="cls-4" d="M887.9,829.62v31.9q0,5.06-4.4,5.05a4.37,4.37,0,0,1-3.39-1.23,5.55,5.55,0,0,1-1.13-3.82V830.26q-24.16,1.51-37.7,1.94-4.18.1-4.19-4.62a3.75,3.75,0,0,1,2-3.76q1.5-.75,11.6-.75,9.35,0,18.16-.54l5.05-5,.64-.32a194.21,194.21,0,0,0-22-14.07q-6.66-3.45-6.66-5.8a4.23,4.23,0,0,1,1.13-3.23,5.1,5.1,0,0,1,3.59-1.07,7.81,7.81,0,0,1,3.87,1.5l4.73,2.58,3.44,2,11-15.47-12.46,1.08-17.08.75q-4.29.1-4.29-4.41,0-4.18,6.55-4.18h4.94q39.21-1.51,61-6.45a42.37,42.37,0,0,1,6.66-1.29q4.93,0,4.94,4.94a3.73,3.73,0,0,1-2.47,3.44,22.36,22.36,0,0,1-4.57,1.13c-2.26.39-4.85.8-7.79,1.23q-12.78,1.83-24.92,2.9l-15.58,20.31,1.4.75,10.21,7.09q8.16-8.8,14.71-17.19,6.24-7.85,8.81-7.84,4.93,0,4.94,4.4,0,2-7.3,10.32a274.65,274.65,0,0,1-20.84,20.51l-1.29,1.29q19.44-.54,36.52-1.72l-.86-.86-5.05-5.58c-1.64-1.79-2.47-3.19-2.47-4.19,0-2.36,1.11-3.55,3.33-3.55q1.51,0,4.57,2.58t8.43,8.17a84.36,84.36,0,0,1,7.52,8.75q2.58,3.6,2.58,5.32,0,4-4.62,4c-1.5,0-3.26-1.29-5.26-3.86L920.66,827Q904.76,828.54,887.9,829.62ZM864.27,840q0,1.5-2.42,4.89a85.57,85.57,0,0,1-6.93,8.21q-9.34,10-13.75,10a4,4,0,0,1-3-1,4.66,4.66,0,0,1-1-3.27c0-1.72,1.21-3.4,3.65-5.05a52.79,52.79,0,0,0,12.78-12.57c2.51-3.36,4.58-5.05,6.23-5.05Q864.27,836.17,864.27,840ZM932.8,858q0,4.72-4.62,4.73t-15.14-10q-10.74-10.2-10.75-13.32a3.44,3.44,0,0,1,1-2.73,4.82,4.82,0,0,1,3.27-.92q2,0,6.23,4.62a62.48,62.48,0,0,0,16.12,12.89Q932.8,855.29,932.8,858Z"/></svg>