<svg id="圖層_1" data-name="圖層 1" xmlns="http://www.w3.org/2000/svg" viewBox="0 0 1000 1000"><defs><style>.cls-1{fill:#2c3e50;}.cls-2,.cls-4{fill:#fff;}.cls-2,.cls-3{opacity:0.75;}</style></defs><rect class="cls-1" width="1000" height="1000" rx="146.13"/><path class="cls-2" d="M253.36,860.34a35.53,35.53,0,0,1-13.21-13.64,37.66,37.66,0,0,1-4.73-18.48,43.61,43.61,0,0,1,6.23-22.77,46.63,46.63,0,0,1,16.81-16.87,43.85,43.85,0,0,1,22.61-6.23,45.24,45.24,0,0,1,20.52,4.73,38.49,38.49,0,0,1,15,13.48,34.59,34.59,0,0,1,5.48,19.07,37.66,37.66,0,0,1-2,12.78,21.66,21.66,0,0,1-6.77,10.1A17.27,17.27,0,0,1,302,846.27a14.1,14.1,0,0,1-8.22-2.2,9.11,9.11,0,0,1-3.92-5.64,20.3,20.3,0,0,1-7.79,6,24.25,24.25,0,0,1-9.82,2q-8.49,0-13.43-5.27t-4.94-13.75a26.53,26.53,0,0,1,3.65-14.07,23.69,23.69,0,0,1,9.34-9,26.24,26.24,0,0,1,12.57-3.17,18.75,18.75,0,0,1,13.65,5.37l.32-1.61a3.81,3.81,0,0,1,1.39-2.47,4.17,4.17,0,0,1,2.69-1,3.8,3.8,0,0,1,2.85,1.19,4,4,0,0,1,1.12,2.9l-.1,1.18-3.55,20.41a35.83,35.83,0,0,0-.75,7,8.08,8.08,0,0,0,1.4,5,4.59,4.59,0,0,0,3.86,1.83,11.42,11.42,0,0,0,10.1-5.64q3.66-5.64,3.65-15.74a28.76,28.76,0,0,0-5-17A32,32,0,0,0,298.1,792a40.06,40.06,0,0,0-17-3.71,37.91,37.91,0,0,0-19.65,5.48,42.4,42.4,0,0,0-14.72,14.77,37.85,37.85,0,0,0-5.48,19.71,32.37,32.37,0,0,0,3.87,15.15,30.48,30.48,0,0,0,11.22,11.82,32,32,0,0,0,16.92,4.4,48.3,48.3,0,0,0,11-1.13,81.29,81.29,0,0,0,11.44-3.81,6.4,6.4,0,0,1,1.19-.22,2.68,2.68,0,0,1,2,.81,2.57,2.57,0,0,1,.81,1.88,3.06,3.06,0,0,1-.43,1.5,2.51,2.51,0,0,1-1.18,1.08,54.8,54.8,0,0,1-24.82,5.69A39.2,39.2,0,0,1,253.36,860.34Zm36.85-36.52,1.71-10a15.9,15.9,0,0,0-12-4.84,17.71,17.71,0,0,0-8.59,2,15.86,15.86,0,0,0-6.55,6.12,17.47,17.47,0,0,0-2.37,9.13q0,5.91,3.28,9.18t9,3.28Q287.62,838.75,290.21,823.82Z"/><path class="cls-2" d="M336.56,855.56a4.75,4.75,0,0,1-1.45-3.49V806a5,5,0,0,1,1.45-3.55,4.67,4.67,0,0,1,3.49-1.5,5.14,5.14,0,0,1,5.05,5v4.08a34.46,34.46,0,0,1,9.13-7.2A22.8,22.8,0,0,1,365,800.4a19.41,19.41,0,0,1,10.42,2.79,18.4,18.4,0,0,1,6.61,7.63,24.57,24.57,0,0,1,2.31,10.74v30.51a4.69,4.69,0,0,1-1.51,3.49,4.91,4.91,0,0,1-3.54,1.45,5,5,0,0,1-4.94-4.94V822.64q0-13-11.71-13a17.16,17.16,0,0,0-9.29,2.58,34.1,34.1,0,0,0-8.22,7.62v32.23a4.66,4.66,0,0,1-1.51,3.49,4.91,4.91,0,0,1-3.54,1.45A4.73,4.73,0,0,1,336.56,855.56Z"/><path class="cls-2" d="M411.7,854.11A26.27,26.27,0,0,1,401.06,844a31.25,31.25,0,0,1,.11-30.29,26.84,26.84,0,0,1,10.37-9.83,32.52,32.52,0,0,1,23.9-2.15,39.94,39.94,0,0,1,8.16,3.82,4.52,4.52,0,0,1,2.15,3.86,4.36,4.36,0,0,1-1.29,3,3.87,3.87,0,0,1-2.9,1.4,5.37,5.37,0,0,1-2.36-.65A39.22,39.22,0,0,0,433,810.5a21.39,21.39,0,0,0-6.12-.75q-9,0-14.35,5.21t-5.31,14q0,8.82,5.31,14t14.35,5.21a21.39,21.39,0,0,0,6.12-.75,40.18,40.18,0,0,0,6.23-2.68,5.37,5.37,0,0,1,2.36-.65,3.87,3.87,0,0,1,2.9,1.4,4.36,4.36,0,0,1,1.29,3,4.52,4.52,0,0,1-2.15,3.86,39.94,39.94,0,0,1-8.16,3.82,30.4,30.4,0,0,1-9.45,1.34A30.72,30.72,0,0,1,411.7,854.11Z"/><path class="cls-2" d="M459.23,855.56a4.79,4.79,0,0,1-1.45-3.49V782.35a5,5,0,0,1,1.45-3.54,4.69,4.69,0,0,1,3.49-1.51,5.14,5.14,0,0,1,5,5.05v43.72l25.35-23.52a5.38,5.38,0,0,1,3.34-1.4,4.73,4.73,0,0,1,3.59,1.29,4.89,4.89,0,0,1,1.24,3.55,5.92,5.92,0,0,1-1.83,3.76L484,823.5l19.45,25.67a5.55,5.55,0,0,1,1.07,3,4.54,4.54,0,0,1-1.45,3.49,5.21,5.21,0,0,1-5.8.8,5,5,0,0,1-1.88-1.5L477,829.83l-9.24,8.38v13.86a4.68,4.68,0,0,1-1.5,3.49,4.93,4.93,0,0,1-3.55,1.45A4.75,4.75,0,0,1,459.23,855.56Z"/><path class="cls-2" d="M524.81,854.76a18.81,18.81,0,0,1-6.66-7.63,24.18,24.18,0,0,1-2.36-10.74V805.88a4.67,4.67,0,0,1,1.5-3.49,5,5,0,0,1,3.55-1.45,5,5,0,0,1,4.94,4.94v29.43q0,13,11.71,13a17.19,17.19,0,0,0,9.29-2.58,34.1,34.1,0,0,0,8.22-7.62V805.88a4.67,4.67,0,0,1,1.5-3.49,5,5,0,0,1,3.55-1.45,5,5,0,0,1,4.94,4.94V852a4.93,4.93,0,0,1-1.45,3.55,4.68,4.68,0,0,1-3.49,1.5,5.12,5.12,0,0,1-5-5v-4.08a34.62,34.62,0,0,1-9.13,7.2,22.92,22.92,0,0,1-10.74,2.47A19.23,19.23,0,0,1,524.81,854.76Z"/><path class="cls-2" d="M592.92,854.11A26.18,26.18,0,0,1,582.29,844a31.22,31.22,0,0,1,.1-30.29,26.84,26.84,0,0,1,10.37-9.83,32.52,32.52,0,0,1,23.9-2.15,39.94,39.94,0,0,1,8.16,3.82,4.52,4.52,0,0,1,2.15,3.86,4.36,4.36,0,0,1-1.29,3,3.87,3.87,0,0,1-2.9,1.4,5.37,5.37,0,0,1-2.36-.65,39.22,39.22,0,0,0-6.23-2.68,21.39,21.39,0,0,0-6.12-.75q-9,0-14.34,5.21t-5.32,14q0,8.82,5.32,14t14.34,5.21a21.39,21.39,0,0,0,6.12-.75,40.18,40.18,0,0,0,6.23-2.68,5.37,5.37,0,0,1,2.36-.65,3.87,3.87,0,0,1,2.9,1.4,4.36,4.36,0,0,1,1.29,3,4.52,4.52,0,0,1-2.15,3.86,39.94,39.94,0,0,1-8.16,3.82,30.4,30.4,0,0,1-9.45,1.34A30.72,30.72,0,0,1,592.92,854.11Z"/><path class="cls-2" d="M637.18,852.71a4.18,4.18,0,0,1-1.83-3.65,4.39,4.39,0,0,1,1.24-3.06,4,4,0,0,1,3.06-1.34,4.21,4.21,0,0,1,1.93.43,40.42,40.42,0,0,0,7.09,2.41,32.78,32.78,0,0,0,7.52.81q11.82,0,11.82-7.52a4,4,0,0,0-2.58-3.65,53.18,53.18,0,0,0-9-2.9A65,65,0,0,1,646,831.12a16.93,16.93,0,0,1-7.42-5.15,13,13,0,0,1-2.79-8.49,15.39,15.39,0,0,1,5.59-12.35q5.58-4.73,15.47-4.73a43.08,43.08,0,0,1,15.57,2.69,4.32,4.32,0,0,1,1.94,7.25,4.18,4.18,0,0,1-3.12,1.34l-1.4-.22a42.85,42.85,0,0,0-12.24-1.93,17,17,0,0,0-8.92,2,6.11,6.11,0,0,0-3.33,5.37,4.9,4.9,0,0,0,2.9,4.62,56.88,56.88,0,0,0,9.35,2.9c3.87,1,7.3,2,10.31,3.12a16,16,0,0,1,7.09,5.21,14,14,0,0,1,2.69,8.75,14.16,14.16,0,0,1-5.59,11.5q-5.58,4.5-15.25,4.51A40.89,40.89,0,0,1,637.18,852.71Z"/><path class="cls-2" d="M691.37,788.85a5.35,5.35,0,0,1-1.66-3.92v-.43a5.67,5.67,0,0,1,5.58-5.58h.65a5.67,5.67,0,0,1,5.58,5.58v.43a5.69,5.69,0,0,1-5.58,5.59h-.65A5.37,5.37,0,0,1,691.37,788.85Zm.65,66.71a4.75,4.75,0,0,1-1.45-3.49V806a5,5,0,0,1,1.45-3.55,4.67,4.67,0,0,1,3.49-1.5,5,5,0,0,1,5,5v46.08a4.69,4.69,0,0,1-1.51,3.49,4.91,4.91,0,0,1-3.54,1.45A4.73,4.73,0,0,1,692,855.56Z"/><path class="cls-2" d="M721.34,850Q714,842.52,714,829a36.42,36.42,0,0,1,2.8-14.07,23.38,23.38,0,0,1,8.81-10.63,25.27,25.27,0,0,1,14.18-3.87,25.86,25.86,0,0,1,13.85,3.65,24.81,24.81,0,0,1,8.7,9.83,30,30,0,0,1,3.12,13.7,4.87,4.87,0,0,1-5.05,4.94H724.08q1,7.63,5.75,11.65t12.94,4a33.62,33.62,0,0,0,7.68-.8,31.77,31.77,0,0,0,6.83-2.53,3.91,3.91,0,0,1,1.93-.43,4.43,4.43,0,0,1,3.06,1.24,4,4,0,0,1,1.34,3.06c0,1.65-1,3-2.9,4.08a40.1,40.1,0,0,1-8.59,3.6,39.08,39.08,0,0,1-10.21,1.13Q728.71,857.55,721.34,850ZM755.45,823a14.32,14.32,0,0,0-2.58-7.2,15.22,15.22,0,0,0-5.85-5.15,16.19,16.19,0,0,0-7.25-1.72,18.11,18.11,0,0,0-7.2,1.61,14,14,0,0,0-6,5.42,18.27,18.27,0,0,0-2.53,8.44h30.08A1.14,1.14,0,0,0,755.45,823Z"/><g class="cls-3"><path class="cls-4" d="M617.41,169H382.59A138.59,138.59,0,0,0,244,307.59V542.41A138.59,138.59,0,0,0,382.59,681H617.41A138.59,138.59,0,0,0,756,542.41V307.59A138.59,138.59,0,0,0,617.41,169Zm0,482H382.58A108.58,108.58,0,0,1,274,542.42V307.58A108.58,108.58,0,0,1,382.58,199H617.43A108.57,108.57,0,0,1,726,307.57V542.43A108.57,108.57,0,0,1,617.43,651Z"/><path class="cls-4" d="M500,284.88c-77.19,0-140,62.8-140,140s62.8,140,140,140,140-62.8,140-140S577.22,284.88,500,284.88Zm0,250a110,110,0,1,1,110-110A110.1,110.1,0,0,1,500,534.85Z"/><path class="cls-4" d="M643.37,235.16a41.37,41.37,0,1,0,41.37,41.36A41.41,41.41,0,0,0,643.37,235.16Zm0,52.72a11.36,11.36,0,1,1,11.35-11.36A11.38,11.38,0,0,1,643.37,287.88Z"/></g></svg>