<svg id="圖層_1" data-name="圖層 1" xmlns="http://www.w3.org/2000/svg" viewBox="0 0 1000 1000"><defs><style>.cls-1{fill:#2c3e50;}.cls-2,.cls-4{fill:#fff;}.cls-2,.cls-3{opacity:0.75;}</style></defs><rect class="cls-1" width="1000" height="1000" rx="146.13"/><path class="cls-2" d="M230.69,855.56a4.79,4.79,0,0,1-1.45-3.49V787.94a7,7,0,0,1,2.1-5.05,6.73,6.73,0,0,1,5-2.15h3.55a6.84,6.84,0,0,1,3.87,1.24,8,8,0,0,1,2.79,3.38L270,843.8c.21.5.5.75.86.75s.64-.25.85-.75l23.42-58.44a7.91,7.91,0,0,1,2.8-3.38,6.78,6.78,0,0,1,3.86-1.24h3.55a6.73,6.73,0,0,1,5,2.15,7,7,0,0,1,2.1,5.05v64.13a5,5,0,0,1-4.94,4.94,4.92,4.92,0,0,1-3.55-1.45,4.68,4.68,0,0,1-1.5-3.49V795.35c0-.64-.22-1-.65-1-.28,0-.53.22-.75.65l-23.2,57.36a7.45,7.45,0,0,1-2.8,3.33,7.43,7.43,0,0,1-8.37,0,7.45,7.45,0,0,1-2.8-3.33L240.63,795c-.21-.43-.47-.65-.75-.65-.43,0-.65.33-.65,1v56.72a4.68,4.68,0,0,1-1.5,3.49,4.93,4.93,0,0,1-3.55,1.45A4.75,4.75,0,0,1,230.69,855.56Z"/><path class="cls-2" d="M333.6,850q-7.35-7.51-7.35-21.06A36.41,36.41,0,0,1,329,814.9a23.38,23.38,0,0,1,8.81-10.63A25.27,25.27,0,0,1,352,800.4a25.83,25.83,0,0,1,13.85,3.65,24.81,24.81,0,0,1,8.7,9.83,30,30,0,0,1,3.12,13.7,4.86,4.86,0,0,1-1.4,3.49,4.81,4.81,0,0,1-3.65,1.45H336.34q1,7.63,5.75,11.65t12.94,4a33.62,33.62,0,0,0,7.68-.8,31.77,31.77,0,0,0,6.83-2.53,3.91,3.91,0,0,1,1.93-.43,4.43,4.43,0,0,1,3.06,1.24,4,4,0,0,1,1.34,3.06c0,1.65-1,3-2.9,4.08a40.1,40.1,0,0,1-8.59,3.6,39.08,39.08,0,0,1-10.21,1.13Q341,857.55,333.6,850ZM367.71,823a14.32,14.32,0,0,0-2.58-7.2,15.15,15.15,0,0,0-5.85-5.15,16.19,16.19,0,0,0-7.25-1.72,18.11,18.11,0,0,0-7.2,1.61,14,14,0,0,0-6,5.42,18.27,18.27,0,0,0-2.53,8.44h30.08A1.14,1.14,0,0,0,367.71,823Z"/><path class="cls-2" d="M388.55,852.71a4.18,4.18,0,0,1-1.83-3.65A4.39,4.39,0,0,1,388,846a4,4,0,0,1,3.06-1.34,4.18,4.18,0,0,1,1.93.43A40.42,40.42,0,0,0,400,847.5a32.78,32.78,0,0,0,7.52.81q11.82,0,11.82-7.52a4,4,0,0,0-2.58-3.65,53.18,53.18,0,0,0-9-2.9,65,65,0,0,1-10.42-3.12A16.84,16.84,0,0,1,390,826a13,13,0,0,1-2.8-8.49,15.39,15.39,0,0,1,5.59-12.35q5.58-4.73,15.47-4.73a43,43,0,0,1,15.57,2.69,4.25,4.25,0,0,1,2.37,1.61,4.29,4.29,0,0,1-.43,5.64,4.18,4.18,0,0,1-3.12,1.34l-1.39-.22A43,43,0,0,0,409,809.53a17,17,0,0,0-8.92,2,6.11,6.11,0,0,0-3.33,5.37,4.9,4.9,0,0,0,2.9,4.62,57.21,57.21,0,0,0,9.35,2.9c3.87,1,7.3,2,10.31,3.12a16,16,0,0,1,7.09,5.21,14,14,0,0,1,2.69,8.75,14.16,14.16,0,0,1-5.59,11.5q-5.58,4.5-15.25,4.51A40.92,40.92,0,0,1,388.55,852.71Z"/><path class="cls-2" d="M440.11,852.71a4.18,4.18,0,0,1-1.82-3.65,4.42,4.42,0,0,1,1.23-3.06,4,4,0,0,1,3.06-1.34,4.25,4.25,0,0,1,1.94.43,39.87,39.87,0,0,0,7.09,2.41,32.71,32.71,0,0,0,7.52.81q11.81,0,11.81-7.52a4,4,0,0,0-2.58-3.65,52.87,52.87,0,0,0-9-2.9,65.27,65.27,0,0,1-10.42-3.12,16.84,16.84,0,0,1-7.41-5.15,13,13,0,0,1-2.79-8.49,15.41,15.41,0,0,1,5.58-12.35q5.58-4.73,15.47-4.73a43.13,43.13,0,0,1,15.58,2.69,4.22,4.22,0,0,1,2.36,1.61,4.29,4.29,0,0,1-.43,5.64,4.18,4.18,0,0,1-3.11,1.34l-1.4-.22a43,43,0,0,0-12.25-1.93,16.94,16.94,0,0,0-8.91,2,6.11,6.11,0,0,0-3.33,5.37,4.89,4.89,0,0,0,2.9,4.62,56.71,56.71,0,0,0,9.34,2.9c3.87,1,7.31,2,10.31,3.12a16,16,0,0,1,7.09,5.21,14,14,0,0,1,2.69,8.75A14.13,14.13,0,0,1,475,853q-5.58,4.5-15.25,4.51A40.92,40.92,0,0,1,440.11,852.71Z"/><path class="cls-2" d="M497.53,850q-7.36-7.51-7.36-21.06A36.59,36.59,0,0,1,493,814.9a23.44,23.44,0,0,1,8.81-10.63A25.31,25.31,0,0,1,516,800.4a25.87,25.87,0,0,1,13.86,3.65,25,25,0,0,1,8.7,9.83,30,30,0,0,1,3.12,13.7,4.87,4.87,0,0,1-5,4.94H500.27q1,7.63,5.75,11.65t12.94,4a33.74,33.74,0,0,0,7.68-.8,31.5,31.5,0,0,0,6.82-2.53,4,4,0,0,1,1.94-.43,4.43,4.43,0,0,1,3.06,1.24,4,4,0,0,1,1.34,3.06q0,2.47-2.9,4.08a40.31,40.31,0,0,1-8.59,3.6,39.18,39.18,0,0,1-10.21,1.13Q504.89,857.55,497.53,850ZM531.64,823a14.32,14.32,0,0,0-2.58-7.2,15.18,15.18,0,0,0-5.86-5.15,16.13,16.13,0,0,0-7.25-1.72,18.19,18.19,0,0,0-7.2,1.61,14.11,14.11,0,0,0-6,5.42,18.15,18.15,0,0,0-2.52,8.44h30.08A1.14,1.14,0,0,0,531.64,823Z"/><path class="cls-2" d="M555.75,855.56a4.79,4.79,0,0,1-1.45-3.49V806a5,5,0,0,1,1.45-3.55,4.68,4.68,0,0,1,3.49-1.5,5.12,5.12,0,0,1,5,5v4.08a34.62,34.62,0,0,1,9.13-7.2,22.81,22.81,0,0,1,10.75-2.47,19.37,19.37,0,0,1,10.41,2.79,18.33,18.33,0,0,1,6.61,7.63,24.57,24.57,0,0,1,2.31,10.74v30.51a4.68,4.68,0,0,1-1.5,3.49,5,5,0,0,1-3.55,1.45,5,5,0,0,1-4.94-4.94V822.64q0-13-11.71-13a17.19,17.19,0,0,0-9.29,2.58,34.1,34.1,0,0,0-8.22,7.62v32.23a4.68,4.68,0,0,1-1.5,3.49,5,5,0,0,1-3.55,1.45A4.75,4.75,0,0,1,555.75,855.56Z"/><path class="cls-2" d="M633,880.64a43.15,43.15,0,0,1-10.58-4,4.28,4.28,0,0,1-2-3.87,4.48,4.48,0,0,1,1.29-3.11,4.06,4.06,0,0,1,3.11-1.4,5.18,5.18,0,0,1,1.93.43,40,40,0,0,0,17.73,4.08q16.32,0,16.33-17.4v-6.87a24,24,0,0,1-18.26,7.94,24.84,24.84,0,0,1-12.25-3.22,25.1,25.1,0,0,1-10.1-9.72,29.19,29.19,0,0,1-3.76-15.09A29.51,29.51,0,0,1,620.26,813a25.61,25.61,0,0,1,9.72-9.35,26,26,0,0,1,12.52-3.22,24,24,0,0,1,18.26,8V806a5,5,0,0,1,1.45-3.55,4.67,4.67,0,0,1,3.49-1.5,5.14,5.14,0,0,1,5,5v48q0,13.54-6.56,20.9t-18.79,7.36A50.38,50.38,0,0,1,633,880.64Zm20.09-35.28a32.15,32.15,0,0,0,7.68-5.86V817.37a31.83,31.83,0,0,0-7.68-5.85,18.16,18.16,0,0,0-8.54-2q-8.28,0-13.22,4.94t-4.94,14q0,9,4.94,14t13.22,4.94A18.28,18.28,0,0,0,653.08,845.36Z"/><path class="cls-2" d="M691.53,850q-7.35-7.51-7.36-21.06A36.42,36.42,0,0,1,687,814.9a23.38,23.38,0,0,1,8.81-10.63A25.27,25.27,0,0,1,710,800.4a25.86,25.86,0,0,1,13.85,3.65,24.81,24.81,0,0,1,8.7,9.83,30,30,0,0,1,3.12,13.7,4.87,4.87,0,0,1-5,4.94H694.27q1,7.63,5.75,11.65t12.94,4a33.62,33.62,0,0,0,7.68-.8,31.77,31.77,0,0,0,6.83-2.53,3.91,3.91,0,0,1,1.93-.43,4.43,4.43,0,0,1,3.06,1.24,4,4,0,0,1,1.34,3.06c0,1.65-1,3-2.9,4.08a40.1,40.1,0,0,1-8.59,3.6,39.08,39.08,0,0,1-10.21,1.13Q698.9,857.55,691.53,850ZM725.64,823a14.32,14.32,0,0,0-2.58-7.2,15.15,15.15,0,0,0-5.85-5.15,16.19,16.19,0,0,0-7.25-1.72,18.11,18.11,0,0,0-7.2,1.61,14,14,0,0,0-6,5.42,18.27,18.27,0,0,0-2.53,8.44h30.08A1.14,1.14,0,0,0,725.64,823Z"/><path class="cls-2" d="M749.76,855.56a4.75,4.75,0,0,1-1.45-3.49V806a5,5,0,0,1,1.45-3.55,4.67,4.67,0,0,1,3.49-1.5,5.14,5.14,0,0,1,5,5v4.29q7.41-9.87,16.75-9.88h.54a4.58,4.58,0,0,1,3.44,1.45,4.85,4.85,0,0,1,1.39,3.49,4.43,4.43,0,0,1-1.45,3.39,5.09,5.09,0,0,1-3.59,1.34h-.54a18.35,18.35,0,0,0-9.29,2.42,21.49,21.49,0,0,0-7.25,6.92v32.66a4.69,4.69,0,0,1-1.51,3.49,4.91,4.91,0,0,1-3.54,1.45A4.73,4.73,0,0,1,749.76,855.56Z"/><g class="cls-3"><path class="cls-4" d="M500,146c-140.27,0-254,105.28-254,235.17,0,74,36.93,140,94.65,183.14V654l86.48-47.47A272.88,272.88,0,0,0,500,616.38c140.27,0,254-105.29,254-235.18S640.27,146,500,146Zm25,316.71-64.68-69-126.2,69L473,315.32l66.26,69,124.62-69Z"/></g></svg>