<svg id="圖層_1" data-name="圖層 1" xmlns="http://www.w3.org/2000/svg" viewBox="0 0 1000 200"><defs><style>.cls-1{fill:#2c3e50;}.cls-2{fill:none;}</style></defs><path id="icon" class="cls-1" d="M152.23,155.14H122.39a2.91,2.91,0,0,1,0-5.82h26.93V50.68H92.4V60.92a2.91,2.91,0,0,1-5.82,0V47.77a2.91,2.91,0,0,1,2.91-2.91h62.74a2.91,2.91,0,0,1,2.91,2.91V152.23A2.91,2.91,0,0,1,152.23,155.14Zm-62.74,0H68.64a2.91,2.91,0,0,1,0-5.82H86.58V136H47.77a2.91,2.91,0,0,1-2.91-2.91V73.37a2.91,2.91,0,0,1,2.91-2.91h83.45a2.9,2.9,0,0,1,2.9,2.91v59.69a2.9,2.9,0,0,1-2.9,2.91H92.4v13.35h17.95a2.91,2.91,0,0,1,0,5.82H89.49Zm0-25h38.82V76.27H50.68v53.88Zm22.86-18.55H66.63a2.91,2.91,0,0,1,0-5.82h45.72a2.91,2.91,0,1,1,0,5.82Zm-10.29-11H76.92a2.91,2.91,0,1,1,0-5.81h25.14a2.91,2.91,0,1,1,0,5.81Z"/><path class="cls-1" d="M285.87,134.75v-40a76.07,76.07,0,0,1-5.74,14.71q-3.53,7.14-5.94,7.15-3.63,0-3.63-4.23c0-1.08.67-2.55,2-4.43a80.79,80.79,0,0,0,12.49-27.4H275.9q-4.72,0-4.73-3.82t4.73-3.83h10V59.11a103.88,103.88,0,0,1-11.08,1.21q-3.62,0-3.62-4.23a2.69,2.69,0,0,1,1.61-2.72A33.13,33.13,0,0,1,280,52.06a118.38,118.38,0,0,0,19.24-3.32l2-.3a3.79,3.79,0,0,1,3.37.85,4.56,4.56,0,0,1,1.16,3.38A3.42,3.42,0,0,1,304,55.49q-1.92,1.3-10.37,2.61V72.91h7.25q4.72,0,4.73,3.83t-4.73,3.82h-7.25v13A3,3,0,0,1,296.35,92,4.92,4.92,0,0,1,299,93.55,30.82,30.82,0,0,1,302.89,98c3,4,4.43,6.48,4.43,7.55q0,3.52-3.42,3.52-1.71,0-3.73-3.22a74.74,74.74,0,0,0-5.54-7.65l-1-1.71v38.27q0,4.53-3.93,4.53T285.87,134.75Zm14.81-3.43c0-2.42,1.31-3.62,3.92-3.62h23.57V115.81H312.06q-3.93,0-3.93-3.52t3.93-3.53h16.11V98.39L312,99.5a5.08,5.08,0,0,1-3.53-.91,3.73,3.73,0,0,1-1.21-3,3.19,3.19,0,0,1,1.31-2.82q1.31-1,8.06-1.11A230.19,230.19,0,0,0,350,88.52l1.31-.2a3.52,3.52,0,0,1,3.18.85,4.46,4.46,0,0,1,1.15,3.28c0,1.61-1.47,2.78-4.43,3.52q-1.61.41-15,1.81v11h16.82q3.82,0,3.82,3.53t-3.82,3.52H336.23V127.7h22.35q4,0,4,3.72t-4,3.63h-54C302,135.05,300.68,133.8,300.68,131.32Zm9.06-48.94q-2.12-2-1.81-6.55V61q0-4.64,2.06-6.75c1.38-1.41,3.54-2,6.5-1.81h31.62c3.09,0,5.34.68,6.75,2.06s2,3.54,1.81,6.5v14.8c0,3.16-.67,5.42-2,6.8s-3.53,2-6.55,1.76H316.49Q311.85,84.39,309.74,82.38Zm39.18-8.56V63q0-3.12-3.33-3.32H318.8c-2.08,0-3.19,1.1-3.32,3.32V73.82q0,3.12,3.32,3.32h26.79Q348.82,77.14,348.92,73.82Z"/><path class="cls-1" d="M425.71,118.38a4.62,4.62,0,0,1,1,3.17,3.34,3.34,0,0,1-1.41,2.72c-.8.61-2.92,1.21-6.34,1.81L403.8,129,381,132.43l-2.82.3a3.47,3.47,0,0,1-3.07-1,5,5,0,0,1-1.06-3.47c0-1.68.51-2.82,1.51-3.42a17,17,0,0,1,5.44-1.21q3.93-.4,14.5-1.82V95.07H382.15q-4.83,0-4.83-3.93t4.83-3.93h35q4.83,0,4.83,3.93t-4.83,3.93H403.6v25.68l19.34-3.13A2.85,2.85,0,0,1,425.71,118.38Zm39.63-1.76a39.52,39.52,0,0,1-2.72,14.7Q460,138,455.87,138q-5.53,0-13-10.07A76.41,76.41,0,0,1,431.4,104a140.2,140.2,0,0,1-5.24-32.23H379.33q-4.83,0-4.83-4c0-2.62,1.61-3.92,4.83-3.92h46.43l-.3-11.49q-.1-4.72,4.23-4.73c2.75,0,4.12,2,4.12,6V63.85H459.5q5.13,0,5.13,4T459.5,71.8H434.32q1.11,18.44,5.54,31.82t11.48,21.26c1.27,1.47,2.28,2.21,3,2.21s1.47-.89,2-2.67a45.22,45.22,0,0,0,1.31-8.51,3.52,3.52,0,0,1,1.06-2.62,4.23,4.23,0,0,1,2.77-.8Q465.34,112.49,465.34,116.62ZM446.4,56.8c-2-2.49-3-4-3-4.64q0-3.52,4.13-3.52c1.21,0,2.95,1.27,5.24,3.83Q456,56,456,57.7q0,3.52-4.13,3.53Q450,61.23,446.4,56.8Z"/><path class="cls-1" d="M476.72,68.88c0-2.48,1.47-3.73,4.43-3.73h27.09c3,0,4.53,1.25,4.53,3.73s-1.51,3.73-4.53,3.73H481.15C478.19,72.61,476.72,71.37,476.72,68.88Zm3.62-13.59c0-2.49,1.45-3.73,4.33-3.73h20.45q4.42,0,4.43,3.73T505.12,59H484.67C481.79,59,480.34,57.77,480.34,55.29Zm2.22,78q-2.12-2-2.12-6v-13.9q0-8.15,8.36-8.15h12q8.46,0,8.46,8.15v13.7a8.21,8.21,0,0,1-2.17,6.14q-2.16,2.11-6.29,2.12h-12Q484.68,135.35,482.56,133.33Zm-1.92-51.16a3.29,3.29,0,0,1,1.11-2.71,4.94,4.94,0,0,1,3.22-.91h19.84a5.18,5.18,0,0,1,3.28.91,3.23,3.23,0,0,1,1.16,2.71q0,3.73-4.44,3.73H485C482.09,85.9,480.64,84.66,480.64,82.17Zm0,13.4c0-2.42,1.45-3.63,4.33-3.63h19.84c3,0,4.44,1.25,4.44,3.73a3.25,3.25,0,0,1-1.16,2.72,5.25,5.25,0,0,1-3.28.9H485.18Q480.64,99.29,480.64,95.57Zm20.75,30.21V114.7a2.13,2.13,0,0,0-2.42-2.41h-8.25c-1.68,0-2.52.8-2.52,2.41v11.08a2.23,2.23,0,0,0,2.52,2.52H499C500.58,128.3,501.39,127.46,501.39,125.78Zm8.36,8.36q0-3.12,5.94-4.73a57.48,57.48,0,0,0,16.62-7.15v-.2a44.27,44.27,0,0,1-6.95-9.37,44.88,44.88,0,0,1-2.52-4.83,8.77,8.77,0,0,1-.8-3.33c0-1.94,1.41-2.92,4.23-2.92q2.61,0,4,4.23a38.37,38.37,0,0,0,8.26,11.48h.2a60.35,60.35,0,0,0,9-10q2-2.61,3.32-4.58a7,7,0,0,0,1.31-2.57c0-.94-.64-1.41-1.91-1.41H518.71a5.36,5.36,0,0,1-3.42-1A3.41,3.41,0,0,1,514.08,95q0-3.72,4.63-3.72h35.35q8.76,0,8.76,5.54,0,3-6,11.68A75.77,75.77,0,0,1,545.2,122v.3q7.15,4.13,19.64,7.15,3.82.9,3.82,4.13c0,3.08-1.41,4.63-4.23,4.63q-4.53,0-12-3.12a84.27,84.27,0,0,1-13.9-7.56h-.2a90.66,90.66,0,0,1-14,7.46q-7.65,3.31-10.87,3.32Q509.75,138.27,509.75,134.14Zm3.63-50a4,4,0,0,1,1.81-3.22,13.73,13.73,0,0,0,5.44-7.46q1-3.72,1-15.41,0-7.24,7.86-7.25h14.6q7.75,0,7.76,7.56V75.23c0,2,1.2,3,3.62,3a12.47,12.47,0,0,0,2.92-.25,1.79,1.79,0,0,0,1.21-.86q.81-1.61.91-5.84.19-4.64,3.62-4.63,3.93,0,3.93,3.72c0,7.66-1.18,12.15-3.52,13.5-1.82,1-5.14,1.51-10,1.51q-10.19,0-10.18-5.94V61.73q0-3.23-3.42-3.42h-8.86c-1.41,0-2.29.37-2.62,1.1-.4.94-.61,3.09-.61,6.45q0,8.76-2.41,13.19-4.85,8.86-9.47,8.87C514.58,87.92,513.38,86.64,513.38,84.09Z"/><path class="cls-1" d="M584,72.81q-4.23,0-4.23-3.83T584,65.05h32q4.23,0,4.23,3.93T616,72.81Zm-.4-17.73c0-2.55,1.37-3.82,4.13-3.82h24.37a4.48,4.48,0,0,1,3.12,1,3.76,3.76,0,0,1,1.11,2.92c0,2.56-1.41,3.83-4.23,3.83H587.7C584.94,59,583.57,57.7,583.57,55.08Zm32.13,58.31V128.1q0,8.06-8.16,8.05H591.83q-8.16,0-8.16-8.05V113.39q0-8.06,8.16-8h15.71Q615.7,105.34,615.7,113.39Zm-4-34.64q4.13,0,4.13,3.73t-4.13,3.72H587.9q-4,0-4-3.72t4-3.73Zm4.43,16.92c0,2.48-1.38,3.73-4.13,3.73H587.9c-2.69,0-4-1.25-4-3.73s1.34-3.73,4-3.73H612C614.72,91.94,616.1,93.19,616.1,95.67Zm-8.16,19.64a2.21,2.21,0,0,0-2.62-2.62H594a2.62,2.62,0,0,0-1.91.6,3.17,3.17,0,0,0-.71,2v10.87a2.79,2.79,0,0,0,.61,2,3.07,3.07,0,0,0,2,.7h11.28a2.51,2.51,0,0,0,1.92-.65,3.38,3.38,0,0,0,.7-2.07Zm63.55-31.62c0,2.48-1.45,3.72-4.33,3.72H649.33V134a6.57,6.57,0,0,1-1,4.08,5,5,0,0,1-6.65,0,6.57,6.57,0,0,1-1-4.08V87.41h-17c-2.95,0-4.43-1.27-4.43-3.83s1.48-3.82,4.43-3.82h17V52.87a6.32,6.32,0,0,1,1.06-4A4,4,0,0,1,645,47.53a4,4,0,0,1,3.33,1.26,6.57,6.57,0,0,1,1,4.08V79.76h17.83C670,79.76,671.49,81.07,671.49,83.69Z"/><path class="cls-1" d="M756.49,125.28a54.7,54.7,0,0,1-9.77-32.13A55.85,55.85,0,0,1,758.1,59q8.76-11.88,13.49-11.88,3.74,0,3.73,3.52c0,1.35-1.11,2.82-3.32,4.43A45.12,45.12,0,0,0,759.11,71.6a50.27,50.27,0,0,0-4.94,21.85q0,23.37,18.53,38.58,2.63,2.31,2.62,3.72,0,3.74-3.63,3.73Q766.35,139.48,756.49,125.28Z"/><path class="cls-1" d="M786.8,92.14c0-3.08,1.88-4.63,5.64-4.63H872.1q5.64,0,5.64,4.74,0,4.53-5.64,4.53H792.44Q786.8,96.78,786.8,92.14Z"/><path class="cls-1" d="M889.12,135.85c0-1.14,1.08-2.58,3.22-4.33A46,46,0,0,0,905.24,115a50.41,50.41,0,0,0,4.93-21.86q0-24-18.63-38.77-2.41-1.92-2.42-3.73,0-3.52,3.73-3.52,5.24,0,15.1,14.2a55.52,55.52,0,0,1,9.67,31.82,56.59,56.59,0,0,1-11.18,34.24q-9.06,12.09-13.69,12.09Q889.12,139.48,889.12,135.85Z"/><rect class="cls-2" width="1000" height="200"/></svg>