<?xml version="1.0" encoding="iso-8859-1"?>
<!-- Generator: Adobe Illustrator 25.0.0, SVG Export Plug-In . SVG Version: 6.00 Build 0)  -->
<svg version="1.1" id="&#x5716;&#x5C64;_1" xmlns="http://www.w3.org/2000/svg" xmlns:xlink="http://www.w3.org/1999/xlink" x="0px"
	 y="0px" viewBox="0 0 1000 1000" style="enable-background:new 0 0 1000 1000;" xml:space="preserve">
<rect style="fill:none;" width="1000" height="1000"/>
<g id="_&#x5165;&#x5B78;&#x7BA1;&#x9053;_">
	<path style="fill:#294A7E;" d="M88.47,887.74l-64.92-29.12c-4-1.953-6-4.827-6-8.62v-1.3c0-3.8,2-6.673,6-8.62L88.47,811
		c0.83-0.318,1.711-0.484,2.6-0.49c3.684,0,6.67,2.986,6.67,6.67c-0.021,1.357-0.476,2.671-1.3,3.75
		c-0.821,1.156-1.951,2.057-3.26,2.6l-58.24,25.82l58.24,25.87c1.309,0.543,2.439,1.444,3.26,2.6c0.823,1.075,1.279,2.386,1.3,3.74
		c0.006,3.678-2.972,6.664-6.65,6.67c-0.007,0-0.013,0-0.02,0C90.181,888.228,89.299,888.062,88.47,887.74z"/>
	<path style="fill:#294A7E;" d="M164.93,902.39c0.089-1.898,0.906-3.688,2.28-5l10.57-7.81c27.333-20.167,46.48-49.883,57.44-89.15
		l-0.33-7.32c-0.039-2.247-0.685-4.441-1.87-6.35c-1.214-1.506-3.067-2.352-5-2.28h-21.28c-5.42,0-8.13-2.277-8.13-6.83
		c0-4.453,2.71-6.677,8.13-6.67h26.69c4.767,0,8.263,1.357,10.49,4.07c2.227,2.713,3.393,6.997,3.5,12.85
		c0.32,22.887,5.687,43.06,16.1,60.52c11.5,19.333,25.873,34.41,43.12,45.23c3.573,2.233,5.36,4.82,5.36,7.76
		c0,5.1-2.28,7.65-6.84,7.65c-4.12,0-12.2-5.423-24.24-16.27c-18.98-17.333-32.59-40-40.83-68
		c-2.933,6.733-6.323,13.783-10.17,21.15s-6.75,12.627-8.71,15.78c-7.489,11.763-16.456,22.518-26.68,32
		c-11.167,10.627-18.977,15.96-23.43,16C166.987,909.713,164.93,907.27,164.93,902.39z"/>
	<path style="fill:#294A7E;" d="M478.28,880.42c0,3.58-2.223,5.37-6.67,5.37h-61.82v11.55c0,5.86-1.25,10.09-3.75,12.69
		c-2.5,2.6-6.457,3.687-11.87,3.26h-9.93c-2.713,0-4.693-0.49-5.94-1.47c-1.24-1-1.87-2.55-1.87-4.72c0-4,2.603-6,7.81-6h6.51
		c4,0,6.117-2.113,6.35-6.34v-9h-58.57c-4.34,0-6.51-1.79-6.51-5.37c0-3.58,2.17-5.37,6.51-5.37h58.57v-4.52
		c-0.174-2.169,0.895-4.249,2.76-5.37c1.74-1.08,6.07-2.44,13-4.07l16.92-4.39v-0.33h-71.89c-4.227,0-6.343-1.667-6.35-5
		c-0.109-1.453,0.429-2.88,1.47-3.9c0.973-0.867,2.6-1.303,4.88-1.31h87c4.12,0,7.26,0.47,9.43,1.39s3.26,2.3,3.26,4.15
		s-3.74,4.17-11.23,7.32s-17.95,6.61-31.4,10.41c-3.473,0.98-5.207,2.553-5.2,4.72v1h61.82
		C476.05,875.073,478.287,876.84,478.28,880.42z M334,852.93V840.4c0-4.447,0.867-7.7,2.6-9.76s4.553-3.147,8.46-3.26h2.28
		l-3.41-46.69c-0.2-2.401,0.463-4.794,1.87-6.75c1.582-1.929,3.803-3.228,6.26-3.66l16.76-2.77l5.2-1.3
		c0.44-0.1,1.06-0.27,1.87-0.49c0.652-0.186,1.323-0.293,2-0.32c3.333,0,5,1.897,5,5.69c0,1.74-1.517,3.177-4.55,4.31
		c-3.033,1.133-8.133,2.133-15.3,3c-1.823,0.132-3.584,0.72-5.12,1.71c-1.041,0.845-1.568,2.171-1.39,3.5l0.17,4.56h19.9
		c4,0,6,1.667,6,5c0,3.333-2,5-6,5h-19l0.65,9h18.35c4,0,6,1.737,6,5.21c0,3.333-2,5-6,5h-17.74l0.65,9.92h91.76l0.65-9.92H432.4
		c-3.687,0-5.53-1.667-5.53-5c0-3.467,1.843-5.203,5.53-5.21h20.34l0.32-9H432.4c-1.514,0.144-3.026-0.292-4.23-1.22
		c-0.951-1.034-1.423-2.421-1.3-3.82c0-3.333,1.843-5,5.53-5h21.8v-3.42c0-1.84-0.32-3.12-1-3.82s-1.85-1.06-3.58-1.06h-18.68
		c-3.48,0-5.21-1.57-5.21-4.72c-0.117-1.385,0.322-2.759,1.22-3.82c1.118-0.922,2.557-1.361,4-1.22H454
		c8.46,0,12.69,3.253,12.69,9.76l-3.42,47.5h1.79c7.92,0,11.553,4.333,10.9,13v13.18c0,5.1-2.17,7.65-6.51,7.65
		c-1.809,0.135-3.587-0.518-4.88-1.79c-1.08-1.2-1.62-3.153-1.62-5.86v-10.02c0-3.333-1.79-5.123-5.37-5.37h-104.9
		c-3.47,0-5.32,1.79-5.53,5.37v9.6c0,5.1-2.17,7.65-6.51,7.65C336.213,860.74,334,858.137,334,852.93z M384.6,791.1
		c0-1.84,3.2-4.66,9.6-8.46l3.58-1.95c-6.84-4.773-10.257-7.863-10.25-9.27c-0.061-1.158,0.385-2.286,1.22-3.09
		c0.972-0.817,2.223-1.226,3.49-1.14c1.333,0,5.667,2.547,13,7.64L410,770c2.28-2.493,4.34-3.74,6.18-3.74
		c1.321-0.102,2.631,0.306,3.66,1.14c0.835,0.804,1.281,1.932,1.22,3.09c0,1.847-2.71,5.157-8.13,9.93l1.79,1
		c4.547,3.26,6.823,5.973,6.83,8.14c0.087,1.371-0.382,2.719-1.3,3.74c-0.965,0.905-2.259,1.375-3.58,1.3
		c-1.52,0-3.363-1.03-5.53-3.09l-5.7-5.37c-8.24,6.513-13.607,9.767-16.1,9.76c-3.187-0.053-4.777-1.653-4.77-4.8H384.6z
		 M395.34,812.91l3.25-2l-1.79-1.14c-5.527-3.58-8.293-6.127-8.3-7.64c0-2.82,1.573-4.23,4.72-4.23c0.98,0,2.77,0.813,5.37,2.44
		l5,2.93l2.61,1.79l4.39-4.23c2.6-2.387,4.553-3.58,5.86-3.58c3.333,0,5,1.463,5,4.39c0,1.953-2.493,4.88-7.48,8.78
		c6.393,4.34,9.59,7.597,9.59,9.77c0,3.36-1.62,5-4.88,5c-1.333,0-3.177-1.03-5.53-3.09l-7-5.86
		c-3.217,2.614-6.608,5.007-10.15,7.16c-2.933,1.68-4.997,2.52-6.19,2.52c-3.14,0-4.71-1.517-4.71-4.55
		c-0.027-1.847,3.377-4.667,10.21-8.46H395.34z"/>
	<path style="fill:#294A7E;" d="M498.62,797.61c0-1.62,1.46-3.74,4.39-6.34c6.568-5.534,12.223-12.068,16.76-19.36
		c2.82-4.667,5.747-7,8.78-7c4.66,0,7,1.63,7,4.88c0,1.2-1.41,3.69-4.23,7.49h33.19c4.233,0,6.347,1.843,6.34,5.53
		c-0.007,3.687-2.12,5.53-6.34,5.53h-16.43c2.16,5.527,3.243,8.89,3.25,10.09c0,3.473-2.117,5.207-6.35,5.2
		c-3.473,0-5.75-2.06-6.83-6.18l-2.6-9.11h-12.37c-8.567,10.2-14.857,15.297-18.87,15.29C500.51,803.63,498.62,801.63,498.62,797.61
		z M500.89,838.77v-14.64c0-5.42,1.223-9.35,3.67-11.79c2.447-2.44,6.377-3.5,11.79-3.18H563v-4.39c0-4.667,2.333-7,7-7
		c4.767,0,7.153,2.333,7.16,7v4.39h49.62c5.527,0,9.567,1.193,12.12,3.58c2.553,2.387,3.61,6.183,3.17,11.39v14.64
		c0,4.667-2.223,7-6.67,7c-4.34,0-6.51-2.333-6.51-7V825.6c0-3.48-1.95-5.26-5.85-5.37h-103c-1.623-0.115-3.227,0.409-4.47,1.46
		c-1.045,1.016-1.556,2.463-1.38,3.91v13.17c0,4.667-2.223,7-6.67,7C503.073,845.77,500.863,843.437,500.89,838.77L500.89,838.77z
		 M524.57,907c-2.12-2-3.07-5.28-2.85-9.84v-54.81c0-4.667,1.03-8.083,3.09-10.25c2.06-2.167,5.37-3.143,9.93-2.93h73.37
		c4.233,0,7.407,1.033,9.52,3.1c2.113,2.067,3.237,5.21,3.37,9.43V852c0,9.007-4.283,13.34-12.85,13h-73.41v8.62h82.81
		c4.667,0,8.027,1.03,10.08,3.09c2.053,2.06,2.977,5.37,2.77,9.93v10.73c0,4.56-1.03,7.87-3.09,9.93c-2.06,2.06-5.313,2.96-9.76,2.7
		h-82.81C530.073,910,526.683,909,524.57,907z M608.11,849.65v-5.35c0-2.707-1.667-4.17-5-4.39h-63.49
		c-3.04,0-4.667,1.683-4.88,5.05v9.27h68.33c3.14,0,4.82-1.52,5.04-4.56V849.65z M616.24,897.65c0.908-0.964,1.381-2.258,1.31-3.58
		v-4.88c0-3-1.69-4.66-5-4.88h-77.81v9.6c0,3.25,1.62,4.93,4.88,5h72.88c1.364,0.116,2.716-0.332,3.74-1.24V897.65z M604.24,796.45
		c-0.55-1.84-1-3.3-1.47-4.39c-0.419-1.222-0.753-2.472-1-3.74h-15.3c-4.553,6.18-8.403,9.27-11.55,9.27
		c-4.12,0-6.18-1.843-6.18-5.53c0-1.41,1.14-3.14,3.41-5.21c4.376-3.901,7.967-8.602,10.58-13.85c1.121-2.244,2.544-4.323,4.23-6.18
		c0.976-1.167,2.383-1.889,3.9-2c4.233,0,6.35,1.737,6.35,5.21c0,1.3-1.14,3.687-3.42,7.16h44.74c4.233,0,6.35,1.843,6.35,5.53
		c0,3.687-2.117,5.53-6.35,5.53h-23.75c2.173,5.2,3.257,8.563,3.25,10.09c0,3.473-2.167,5.207-6.5,5.2
		c-3.48,0.06-5.92-2.297-7.32-7.07L604.24,796.45z"/>
	<path style="fill:#294A7E;" d="M812.45,901.9c0,4.553-3.2,6.83-9.6,6.83l-50.27-0.16c-19.413,0-33.133-1.083-41.16-3.25
		c-4.126-1.085-8.175-2.444-12.12-4.07c-2.697-1.213-5.15-2.907-7.24-5c-3.854,3.498-8.147,6.48-12.77,8.87
		c-3.74,1.79-6.65,2.69-8.71,2.69c-4.333,0-6.5-2.55-6.5-7.65c-0.013-1.703,0.594-3.353,1.71-4.64
		c1.309-1.475,2.951-2.617,4.79-3.33c0.76-0.333,2.713-1.093,5.86-2.28c3.27-1.25,6.428-2.775,9.44-4.56v-30.14
		c0-3.26-1.627-4.89-4.88-4.89h-10.42c-2.27,0-3.93-0.48-5-1.46s-1.54-2.55-1.54-4.72c-0.143-1.68,0.448-3.339,1.62-4.55
		c1.388-1.079,3.127-1.603,4.88-1.47h14.36c4.667,0,8.083,1,10.25,3c2.167,2,3.143,5.227,2.93,9.68v33.68
		c3.004,3.295,6.662,5.928,10.74,7.73c4.706,1.874,9.669,3.023,14.72,3.41c5.913,0.6,14.183,0.9,24.81,0.9l57.76-0.81
		C810.343,895.717,812.457,897.78,812.45,901.9z M666.52,805.58c0-4.333,2.167-6.5,6.5-6.5c1.74,0,6.243,1.517,13.51,4.55
		c7.16,3.04,10.74,6.24,10.74,9.6c0,4.56-2.17,6.837-6.51,6.83c-1.3,0-3.15-0.7-5.53-2.11l-13.51-5.86
		C668.25,810.57,666.52,808.41,666.52,805.58z M674.16,774.51c0-4.34,2.117-6.51,6.35-6.51c1.953,0,6.237,1.573,12.85,4.72
		c6.94,3.333,10.41,6.697,10.41,10.09c0,4.667-2.167,7-6.5,7c-1.232-0.185-2.42-0.599-3.5-1.22c-1.69-0.81-2.69-1.32-3-1.54
		L680,781.5C676.12,779.45,674.16,777.11,674.16,774.51L674.16,774.51z M707.52,790.78c-0.136-1.607,0.459-3.19,1.62-4.31
		c1.09-0.92,2.82-1.39,5.21-1.39h17.57c-4.227-8.46-6.34-13.393-6.34-14.8c0-3,2-4.56,6.18-4.56c1.987,0,3.885,0.826,5.24,2.28
		c1.141,1.494,2.123,3.102,2.93,4.8c1.407,2.667,3.467,6.76,6.18,12.28h21.15l4.89-13.34c1.4-4.12,3.677-6.18,6.83-6.18
		c5.1,0,7.647,1.573,7.64,4.72c-0.074,1.76-0.575,3.476-1.46,5l-4.88,9.76h22.13c4.667,0,7,1.9,7,5.7c0,3.8-2.333,5.697-7,5.69
		h-41.53L757,807.86h29.1c4.88,0,8.43,1.113,10.65,3.34s3.22,5.723,3,10.49V872c0,4.88-1.083,8.433-3.25,10.66
		c-2.167,2.227-5.637,3.283-10.41,3.17H728c-4.89,0-8.46-1.14-10.74-3.41s-3.31-5.86-3.09-10.74v-49.99c0-4.88,1.11-8.46,3.33-10.74
		c2.22-2.28,5.78-3.3,10.66-3.09h16.1l2.12-11.39h-32C709.8,796.47,707.513,794.573,707.52,790.78z M731.43,819.25
		c-3.333,0-5,1.667-5,5v6h61v-6c0-3.333-1.667-5-5-5H731.43z M787.43,851.63v-10.25h-61v10.25H787.43z M787.43,862.69h-61v6.67
		c0,3.333,1.667,5,5,5h50.92c3.367,0,5.033-1.667,5-5L787.43,862.69z"/>
	<path style="fill:#294A7E;" d="M831.16,911.17c-1.294-1.289-2-3.054-1.95-4.88c0.034-0.834,0.199-1.658,0.49-2.44l43.11-126.09
		c1.103-3.602,4.916-5.627,8.518-4.524c2.91,0.891,4.877,3.602,4.822,6.644c-0.035,0.833-0.196,1.656-0.48,2.44l-43.12,126.09
		c-1.234,3.629-5.176,5.571-8.804,4.337C832.778,912.418,831.895,911.88,831.16,911.17z"/>
	<path style="fill:#294A7E;" d="M904.21,886.28c-1.293-1.227-2.018-2.937-2-4.72c0.017-1.355,0.473-2.667,1.3-3.74
		c0.82-1.153,1.945-2.054,3.25-2.6l58.09-25.87l-58.09-25.87c-1.305-0.546-2.43-1.447-3.25-2.6c-0.828-1.076-1.284-2.392-1.3-3.75
		c0-3.684,2.986-6.67,6.67-6.67c0.891-0.013,1.775,0.153,2.6,0.49l64.92,29.13c4,1.947,6,4.82,6,8.62v1.3c0,3.8-2,6.673-6,8.62
		l-64.92,29.12c-2.514,1.008-5.385,0.435-7.32-1.46L904.21,886.28z"/>
</g>
<g id="road-tunnel_x5F_icon">
	<path id="road-tunnel_x5F_3" style="fill:none;stroke:#294A7E;stroke-width:10;stroke-linecap:round;stroke-linejoin:round;" d="
		M590.58,453.81L653,632c1.885,5.394,6.976,9.005,12.69,9h49.08c7.424-0.005,13.44-6.026,13.44-13.45V367.21
		C728.19,241.18,626,139,500,139S271.81,241.18,271.81,367.21v260.32c-0.017,7.423,5.987,13.453,13.41,13.47c0.01,0,0.02,0,0.03,0
		h49.08c5.718,0.009,10.814-3.602,12.7-9l62.4-178.18c1.208-2.062,1.843-4.41,1.84-6.8v-58.08
		c0.055-43.794,32.017-81.015,75.3-87.69v51.84c0,7.423,6.017,13.44,13.44,13.44s13.44-6.017,13.44-13.44l0,0v-51.85
		c43.281,6.679,75.24,43.897,75.3,87.69V447C588.74,449.393,589.372,451.744,590.58,453.81z M507.13,273.51h-14.28
		c-60.937,3.84-108.412,54.352-108.47,115.41v55L324.8,614.08h-26.07V367.21C298.73,256,388.86,165.9,500,165.9
		S701.34,256,701.34,367.21v246.87h-26.13L615.63,444v-55C615.613,327.901,568.109,277.337,507.13,273.51z"/>
	<path id="road-tunnel_x5F_2" style="fill:none;stroke:#294A7E;stroke-width:10;stroke-linecap:round;stroke-linejoin:round;" d="
		M513.45,419.88c-0.202-7.425-6.386-13.281-13.811-13.079c-7.141,0.195-12.884,5.938-13.079,13.079v81.67
		c0.202,7.425,6.386,13.281,13.811,13.079c7.141-0.195,12.884-5.938,13.079-13.079V419.88z"/>
	<path id="road-tunnel_x5F_1" style="fill:none;stroke:#294A7E;stroke-width:10;stroke-linecap:round;stroke-linejoin:round;" d="
		M500,554.92c-7.423,0-13.44,6.017-13.44,13.44c0,0.003,0,0.007,0,0.01l0,0v59.15c0,7.423,6.017,13.44,13.44,13.44
		s13.44-6.017,13.44-13.44v-59.15C513.44,560.946,507.424,554.925,500,554.92z"/>
</g>
</svg>
