<svg id="圖層_1" data-name="圖層 1" xmlns="http://www.w3.org/2000/svg" viewBox="0 0 1000 1000"><defs><style>.cls-1,.cls-4{fill:none;}.cls-2{isolation:isolate;}.cls-3{fill:#294a7e;}.cls-4{stroke:#294a7e;stroke-linecap:round;stroke-linejoin:round;stroke-width:10px;}</style></defs><rect class="cls-1" width="1000" height="1000"/><g id="未來出路" class="cls-2"><path class="cls-3" d="M88.47,887.74,23.55,858.62q-6-2.93-6-8.62v-1.3q0-5.7,6-8.62L88.47,811a7.43,7.43,0,0,1,2.6-.49,6.67,6.67,0,0,1,6.67,6.67,6.34,6.34,0,0,1-1.3,3.75,7.55,7.55,0,0,1-3.26,2.6L34.94,849.35l58.24,25.87a7.55,7.55,0,0,1,3.26,2.6,6.31,6.31,0,0,1,1.3,3.74,6.66,6.66,0,0,1-6.67,6.67A7.21,7.21,0,0,1,88.47,887.74Z" transform="translate(0 0)"/><path class="cls-3" d="M231,904.66V849.19a207.58,207.58,0,0,1-35.15,35.14q-18.87,14.8-24.56,14.8c-2.28,0-4-.59-5.05-1.79s-1.62-3-1.62-5.53q0-4.23,7.64-8.3,33.19-17.4,54.34-45.22h-53q-8,0-8-6.51t8-6.51H231v-26H184.78q-8.13,0-8.13-6.51t8.13-6.51H231v-13.5q0-7.49,6.83-7.48,6.68,0,6.67,7.48v13.5h47.34q7.82,0,7.81,6.51t-7.81,6.51H244.49v26h58.73q8.13,0,8.14,6.51t-8.14,6.51H248.88q7.65,11.87,24.24,25.38a135,135,0,0,0,32.38,19.19q6.83,2.94,6.83,7.81,0,7.32-7,7.32-7.81,0-28.31-15.78-20-15.29-31.89-32.37l-.65.16v54.66q0,4.4-1.71,6.35a6.45,6.45,0,0,1-5.12,2Q231,913,231,904.66Z" transform="translate(0 0)"/><path class="cls-3" d="M478.77,893.28a7.86,7.86,0,0,1-2.2,5.69,5.52,5.52,0,0,1-4.8,1.95q-9.43-1.3-27.33-13.34-21.31-14.31-33.35-28v46q0,7.49-6.84,7.48t-6.83-7.48V860.25a162.15,162.15,0,0,1-26.76,23.83q-15.87,11.48-30.34,16.84a8.67,8.67,0,0,1-2.77.49,5.24,5.24,0,0,1-4.23-1.95,7.34,7.34,0,0,1-1.63-4.88,5.75,5.75,0,0,1,1.22-3.66,9.69,9.69,0,0,1,4-2.69q13.83-6.18,32-19.11t28.55-24.82V796.64H342.59q-7.8,0-7.81-6.19t7.81-6.18h54.83V772.56q0-7.48,6.83-7.49t6.84,7.49v11.71h55q7.64,0,7.64,6.18t-7.64,6.19h-55v48.48a168.24,168.24,0,0,0,27.74,23.26,188.3,188.3,0,0,0,35.22,18.71C477.19,888.39,478.77,890.46,478.77,893.28ZM367.49,821.37q13.67,9.43,19.52,15.13,2.76,2.76,2.76,5.53a5.61,5.61,0,0,1-1.79,4.39,6.7,6.7,0,0,1-4.71,1.63,6.39,6.39,0,0,1-3.58-1.06,25.27,25.27,0,0,1-3.91-3.34l-13.34-13.17q-8.29,14.31-16.1,21.15a8.68,8.68,0,0,1-6,2.6,5.79,5.79,0,0,1-4.23-1.79,4.69,4.69,0,0,1-1.47-3.42c0-1.95,1.08-4.17,3.26-6.67A119.52,119.52,0,0,0,358.21,808q2.12-5.21,7-5.2a5.91,5.91,0,0,1,4.47,1.79,5.72,5.72,0,0,1,1.71,4.06Q371.39,812.75,367.49,821.37Zm81.51-.49a191.84,191.84,0,0,1,22,17.24,7,7,0,0,1,2.76,5.53,6.29,6.29,0,0,1-1.7,4.64,6.74,6.74,0,0,1-5,1.71,6.41,6.41,0,0,1-3.58-1.06,26.74,26.74,0,0,1-4.06-3.5l-2.61-2.6q-6.35-6.51-13.17-12.69-6.35,10.74-13.83,16.76a8.42,8.42,0,0,1-5.21,2.28,5.63,5.63,0,0,1-4.07-1.79,5.32,5.32,0,0,1-1.79-3.75q0-2.6,2.93-5.85a80.4,80.4,0,0,0,10.74-14,110,110,0,0,0,8.14-17.09c1.19-3.14,3.3-4.72,6.34-4.72a6.36,6.36,0,0,1,4.56,1.71,5.37,5.37,0,0,1,1.79,4C453.23,810.85,451.81,815.24,449,820.88Z" transform="translate(0 0)"/><path class="cls-3" d="M639.67,853.25v34.66c0,5.85-1.41,10.25-4.23,13.17s-7.32,4.34-13.18,4.24H521.39q-8.77,0-13-4.24c-2.93-2.92-4.39-7.32-4.39-13.17V853.25q0-8.29,6.67-8.29,6.82,0,6.83,8.13v31.73q0,7.15,7.32,7.15h39.53V834.06H527.25q-8.79,0-12.77-3.75t-3.34-12.2V786.22q0-8.13,6.84-8.13a6.24,6.24,0,0,1,5,1.95,8.4,8.4,0,0,1,1.71,5.7v27.82q0,7.16,7,7.15h32.7V773.86q0-9,7-9,6.84,0,6.83,9v46.85H612q7.17,0,7.16-7.15V785.9q0-7.81,6.67-7.81,6.84,0,6.84,8.3v31.72q1.13,17.08-16.11,15.95h-38.4V892H619q6.84,0,7.16-7.15V853.09q0-8.3,6.83-8.3C637.45,844.79,639.67,847.62,639.67,853.25Z" transform="translate(0 0)"/><path class="cls-3" d="M663.91,901.25q0-4.89,8.14-6.83V839.75q0-6.51,5.69-6.51t5.7,6.51V892l8-1.79,2.11-.65v-66.7h-9.6q-12.84,0-12.85-12.85v-26.2q0-12.84,12.85-12.85h23.92q12.85,0,12.85,12.85V810q0,12.69-12.52,12.85h-2.93v21.31h8.13q7.32,0,7.32,6c0,4.13-2.44,6.18-7.32,6.18h-8.13v30.27L718.42,883l2.92-.65q5.2,0,5.21,6,0,4.56-6.18,6.51-41.82,13-50,13Q663.91,907.92,663.91,901.25Zm44.74-94.85v-19q0-4.4-4.71-4.72H687.83a4.5,4.5,0,0,0-3.33,1.22,5.29,5.29,0,0,0-1.39,3.5v19a4.5,4.5,0,0,0,1.22,3.33,5.29,5.29,0,0,0,3.5,1.39h16.11C706.87,811.12,708.44,809.54,708.65,806.4Zm14.89,50a7.73,7.73,0,0,1-1.22-4.8A6.45,6.45,0,0,1,724,847.4a9.74,9.74,0,0,1,4.88-2.93q14.8-5,29.77-17.74v-.32a73,73,0,0,1-14-24.08h-.33Q734.37,821,728.67,821t-5.7-5.69a6.14,6.14,0,0,1,1-2.85q1-1.71,3.25-5,11.24-15.63,18.87-37.1,1.8-5.37,6.19-5.37,6.18,0,6.18,5.7,0,1.79-3.42,9.27h33.52q7.15,0,10.57,2.2a7.45,7.45,0,0,1,3.42,6.75q0,3.9-7.81,15.62a145.83,145.83,0,0,1-18.39,22.12l-.48.49q14.14,10.26,28,14.16,8.63,2.43,8.62,7.81,0,6.82-6.34,6.83-5.37,0-17.41-6.51a116.58,116.58,0,0,1-21.48-14.64h-.32A163.24,163.24,0,0,1,744,850.81Q731.44,858,727.53,858A4.77,4.77,0,0,1,723.54,856.43Zm9.84,37V868.38q-1.14-15.95,14.65-14.64H787.4q15.95-1.31,14.64,14.64v25.06q1.31,15.94-14.64,14.64H748Q732.24,909.39,733.38,893.44Zm56.3-2.12V870.5q0-5.54-5.37-5.37H750.79q-5.53,0-5.37,5.37v20.82q0,5.37,5.37,5.21h33.52C788,896.53,789.78,894.8,789.68,891.32Zm-8.79-87.2q6.35-8,6.35-10.74c0-1.3-.82-2-2.45-2H751.93a63.81,63.81,0,0,0,15,27.66h.32A159.69,159.69,0,0,0,780.89,804.12Z" transform="translate(0 0)"/><path class="cls-3" d="M831.16,911.17a6.63,6.63,0,0,1-1.95-4.88,7.93,7.93,0,0,1,.49-2.44l43.11-126.09a6.82,6.82,0,0,1,13.34,2.12,8.17,8.17,0,0,1-.48,2.44L842.55,908.41a6.94,6.94,0,0,1-11.39,2.76Z" transform="translate(0 0)"/><path class="cls-3" d="M904.21,886.28a6.42,6.42,0,0,1-2-4.72,6.25,6.25,0,0,1,1.3-3.74,7.58,7.58,0,0,1,3.25-2.6l58.09-25.87-58.09-25.87a7.58,7.58,0,0,1-3.25-2.6,6.27,6.27,0,0,1-1.3-3.75,6.67,6.67,0,0,1,6.67-6.67,6.62,6.62,0,0,1,2.6.49l64.92,29.13q6,2.92,6,8.62V850q0,5.7-6,8.62l-64.92,29.12a6.83,6.83,0,0,1-7.32-1.46Z" transform="translate(0 0)"/></g><path id="graduation-hat_icon" class="cls-4" d="M823.29,279.07,508.36,132.45a19.67,19.67,0,0,0-16.7,0L176.73,279.07a23.28,23.28,0,0,0,0,41.4l113.33,52.76V514.07c0,75.89,92.22,135.34,210,135.34S710,590,710,514.07V373.22l21-9.77V604.29a21,21,0,0,0,42,3,20.75,20.75,0,0,0,0-3V343.9l50.33-23.44a23.29,23.29,0,0,0,0-41.39ZM500,177.73,762.14,299.79l-20.79,9.68L502.61,277.38a21.36,21.36,0,0,0-23.39,19.12c0,.16,0,.31-.05.47a22.3,22.3,0,0,0,18.23,25.18l168.15,22.58L500,421.81l-262.13-122ZM668,514.07c0,21.25-16.24,43.13-44.54,60-67.43,40.24-179.22,40.36-246.84,0-28.31-16.9-44.54-38.78-44.54-60V392.81l159.62,74.31a19.65,19.65,0,0,0,16.69,0L668,392.81Z" transform="translate(0 0)"/></svg>