<svg id="圖層_1" data-name="圖層 1" xmlns="http://www.w3.org/2000/svg" viewBox="0 0 1000 1000"><defs><style>.cls-1,.cls-4{fill:none;}.cls-2{isolation:isolate;}.cls-3{fill:#294a7e;}.cls-4{stroke:#294a7e;stroke-width:10px;}</style></defs><rect class="cls-1" width="1000" height="1000"/><g id="相關連結" class="cls-2"><path class="cls-3" d="M88.47,887.74,23.55,858.62q-6-2.93-6-8.62v-1.3q0-5.7,6-8.62L88.47,811a7.43,7.43,0,0,1,2.6-.49,6.67,6.67,0,0,1,6.67,6.67,6.34,6.34,0,0,1-1.3,3.75,7.55,7.55,0,0,1-3.26,2.6L34.94,849.35l58.24,25.87a7.55,7.55,0,0,1,3.26,2.6,6.31,6.31,0,0,1,1.3,3.74,6.66,6.66,0,0,1-6.67,6.67A7.21,7.21,0,0,1,88.47,887.74Z" transform="translate(0 0)"/><path class="cls-3" d="M215,829.91a42.1,42.1,0,0,1,4.07,4.88l3,4.15q8.13,11.05,8.13,15.29,0,5.37-6.34,5.37a3.77,3.77,0,0,1-2.85-1.3,19.23,19.23,0,0,1-2.68-4.07q-1.47-2.93-5.7-9.44l-2.93-4.55-3.58-5.7-.32-.65v70.94q0,8.13-6.67,8.13t-6.67-8.13V837.31A94.61,94.61,0,0,1,186.08,852,149.09,149.09,0,0,1,176,868.55c-1.63,2.38-3.64,3.58-6,3.58a5.63,5.63,0,0,1-3.91-1.47,5.24,5.24,0,0,1-1.95-3.9q0-2.44,2.28-5.86a210.26,210.26,0,0,0,14.39-25.3,216.75,216.75,0,0,0,10.34-24.48h-17.9q-7.65,0-7.65-6,0-5.86,7.65-5.86h19.2V773.86q0-8.29,6.67-8.3t6.67,8.3v25.38H222.2q7.49,0,7.48,6,0,5.85-7.48,5.86H205.77V830a4.31,4.31,0,0,1,2.19-2.2,3.87,3.87,0,0,1,2.69-.41A9.51,9.51,0,0,1,215,829.91Zm90.13-52.72q3.18,3.18,3.18,9V895.39q0,5.86-3.18,9t-9,3.17H246.44q-5.85,0-9-3.17t-3.17-9V786.22q0-5.85,3.17-9t9-3.17h49.62Q301.93,774,305.09,777.19Zm-9.84,15.54a6.44,6.44,0,0,0-1.63-4.64,6,6,0,0,0-4.55-1.7H253.6A6.48,6.48,0,0,0,249,788a6.22,6.22,0,0,0-1.71,4.72v22.45h48Zm0,60.2V827.55h-48v25.38Zm0,12.2h-48v23.75a6.48,6.48,0,0,0,1.63,4.64,6.21,6.21,0,0,0,4.72,1.71h35.47a6.12,6.12,0,0,0,4.55-1.63,6.37,6.37,0,0,0,1.63-4.72Z" transform="translate(0 0)"/><path class="cls-3" d="M395,814.53q-3.09,3.26-10.25,2.93H350.08V905.8q0,7.49-6.18,7.49-6.34,0-6.35-7.49V784.43q0-7.47,3.42-11t10.73-3.17h33q7.32,0,10.58,3.17c2.16,2.12,3.09,5.51,2.76,10.17V804Q398.07,811.28,395,814.53ZM350.08,789H386.2v-3.91c0-2.81-1.52-4.23-4.56-4.23h-27c-3,0-4.55,1.47-4.55,4.4Zm31.56,18.55q4.56,0,4.56-4.56v-3.9H350.08v8.46ZM397.5,843.9a34.57,34.57,0,0,1,4,6.75q3.9,8.29,3.9,10.41,0,4.73-5.37,4.72-3.9,0-5.36-4.88L362.6,865l-3.41.16a5.11,5.11,0,0,1-4.15-1.38,5.83,5.83,0,0,1-1.55-4.31,4.72,4.72,0,0,1,1.63-3.91,7.09,7.09,0,0,1,4.56-1.3h6.5l.17-.16,5-6-1.63-1.14-9.6-7.32a41,41,0,0,1-4.55-3.75,4.07,4.07,0,0,1-1.47-2.76q0-5,5.21-5,1.95,0,4.88,2.11L368.3,823a14.26,14.26,0,0,1,3.17-3.82,5.36,5.36,0,0,1,3.34-1.38,5.64,5.64,0,0,1,3.9,1.3,4.73,4.73,0,0,1,1.47,3.74q0,2.11-8.79,12.53l6.18,4.55v-.16l8.63-12.85q2.76-4.06,5.69-4.07,5.37,0,5.37,4.88,0,2.44-4.31,8.38t-14.24,17.33l12.69-1a59.34,59.34,0,0,1-1.95-6.18q0-4.39,4.72-4.4Q395.79,841.86,397.5,843.9Zm3.5,28.71q0,23.28-11.88,31.4-12.53,8.63-22.94,8.63a4.63,4.63,0,0,1-3.74-1.55,6.49,6.49,0,0,1-1.3-4.31,5.09,5.09,0,0,1,1.14-3.34,4.86,4.86,0,0,1,3.09-1.7,46.3,46.3,0,0,0,11.88-3.91,22.83,22.83,0,0,0,7.81-5.86H372.85q-11.06,0-11.06-10.9V872a6.81,6.81,0,0,1,1.38-4.55,5.7,5.7,0,0,1,8,0,6.81,6.81,0,0,1,1.38,4.55v6.84a3.24,3.24,0,0,0,.73,2.36,3.54,3.54,0,0,0,2.52.73h13q.65-6.18.81-8.46c.33-5.43,2.22-8.14,5.7-8.14Q401,865.29,401,872.61Zm6.43-9a5.78,5.78,0,0,1-1.55-4.31q0-5.21,6.67-5.2h4.56v-.17l5-5.85-11.39-8.63a34,34,0,0,1-4.47-3.74,4.19,4.19,0,0,1-1.39-2.76c0-3.36,1.74-5,5.21-5a5.74,5.74,0,0,1,4.23,1.63l.49.49,4.07-6.83q3.24-5.53,6.83-5.54a5.37,5.37,0,0,1,3.82,1.3,4.92,4.92,0,0,1,1.39,3.75c0,.76-.65,2.06-2,3.9s-3.52,4.72-6.67,8.62l6,4.72,8.79-13.18q2.76-4.07,5.69-4.06c3.58,0,5.37,1.62,5.37,4.88q0,4.55-18.87,25.87l.81-.17,14.16-1-.49-1.3a38.21,38.21,0,0,1-1.47-4.89c0-2.92,1.58-4.39,4.72-4.39q3.25,0,7.49,9.11,4.07,8.63,4.06,11.23a4.53,4.53,0,0,1-1.46,3.58,5.41,5.41,0,0,1-3.74,1.3q-3.75,0-5.86-6.18l-32.7,4.06-3.25.17A5.09,5.09,0,0,1,407.43,863.58Zm30,29.7H421.66V907.1q0,5.53-5.85,5.54-5.7,0-5.7-5.54v-36a5.78,5.78,0,0,1,1.47-4.15,5.53,5.53,0,0,1,4.23-1.54,6,6,0,0,1,4.31,1.46,5.56,5.56,0,0,1,1.54,4.23v12h13.18a3.05,3.05,0,0,0,2.36-.81,4.41,4.41,0,0,0,.89-2.61v-8.3a7.1,7.1,0,0,1,1.39-4.63,5,5,0,0,1,4.15-1.71c3.68,0,5.53,2.12,5.53,6.34v10.25Q449.16,893.28,437.44,893.28Zm20.67,19.52H450q-7.16,0-7.16-6.35,0-6.18,6.51-6.18h6.18a5.66,5.66,0,0,0,6.19-6.18V817.46H425.4q-7.15,0-10.49-3.25T412.06,804V783.62q0-7.15,3.26-10.41t10.08-2.93h34.82q7.48,0,11,3.42t3,10.73V896.69Q475.52,914.1,458.11,912.8Zm3.58-127.55q0-4.39-4.56-4.4h-28.8c-2.93,0-4.39,1.42-4.39,4.23V789h37.75Zm0,13.83H423.94V803q0,4.56,4.39,4.56h33.36Z" transform="translate(0 0)"/><path class="cls-3" d="M544.82,905.15A44.6,44.6,0,0,1,525,894.09l-.32-.16Q508.87,907.6,504,907.59q-6.35,0-6.35-7.48,0-5.21,7.32-8.14a97.56,97.56,0,0,0,12.85-6.67V855.21q0-5.06-5-5.05H504a6.79,6.79,0,0,1-4.8-1.46,6,6,0,0,1-1.55-4.56c0-2.06.51-3.55,1.55-4.47a7,7,0,0,1,4.8-1.38h12.69q7,0,10.25,3t2.92,9.52v33l4.56,4.23q10.58,8.46,47.34,8.46l57.76-.65q6.18,0,6.18,6,0,6.66-9.43,6.67L586,908.41Q556.87,908.41,544.82,905.15Zm-26.19-87.36-13.51-5.86c-3.36-1.52-5-3.63-5-6.35q0-6.35,6.35-6.34,2.6,0,13.5,4.55,10.58,4.56,10.57,9.44,0,6.67-6.34,6.67C522.86,819.9,521,819.2,518.63,817.79Zm8.54-29.37c-1.68-.81-2.68-1.33-3-1.55l-10.74-5.53q-5.7-2.93-5.69-6.83,0-6.35,6.18-6.35,2.12,0,12.85,4.72a27.16,27.16,0,0,1,7.65,4.8c1.73,1.69,2.6,3.39,2.6,5.13q0,6.83-6.34,6.83A10.17,10.17,0,0,1,527.17,788.42Zm57.35,99.32v-12.2H543.85q-6.35,0-6.35-5.85t6.35-5.7h40.67v-9.76H559q-7,0-10.17-3.17t-2.85-10V811.44q0-7.16,3.09-10.41t9.93-2.77h25.54v-9.92H547.75a7.14,7.14,0,0,1-4.8-1.47,5.25,5.25,0,0,1-1.71-4.23q0-5.85,6.51-5.85h36.77v-5.86q0-6.18,6-6.18t6,6.18v5.86h40.18q6.51,0,6.51,5.85a5.25,5.25,0,0,1-1.71,4.23,7.14,7.14,0,0,1-4.8,1.47H596.56v9.92h27.33q7,0,10.09,3.18t2.76,10v29.61c0,4.67-1,8.05-3.09,10.17s-5.31,3.12-9.76,3H596.56V864h41.65q6.35,0,6.34,5.86,0,5.7-6.34,5.69H596.56v12.2q0,6.35-6,6.35T584.52,887.74Zm0-78.25H563.21c-3.26,0-4.88,1.63-4.88,4.88v6.18h26.19Zm0,21.8H558.33V838a5.23,5.23,0,0,0,1.22,3.74,4.76,4.76,0,0,0,3.66,1.3h21.31Zm39.53-16.92c0-3.25-1.62-4.88-4.88-4.88H596.56v11.06h27.49Zm0,23.59v-6.67H596.56V843h22.61C622.43,843,624.05,841.32,624.05,838Z" transform="translate(0 0)"/><path class="cls-3" d="M688.32,905.8V844.47l-18.87,1.95a5.07,5.07,0,0,1-4.4-1.55,7.14,7.14,0,0,1-1.46-4.79q0-7,12-6.51l1.3.16L688,817.62A162.85,162.85,0,0,0,668.47,803c-2.6-1.63-3.91-3.52-3.91-5.69q0-6,6-6,1.8,0,5.86,2.6a162.05,162.05,0,0,0,11.72-23.27q2.43-6,7.15-6,6.84,0,6.84,6.19,0,5.7-16.92,29.44l-.17.17,9.6,7.32q6.68-10.41,10.09-17.08c1.84-3.47,4.07-5.21,6.67-5.21q6.51,0,6.51,6,0,2.28-10.41,17.73a271,271,0,0,1-17.74,24.24l18.87-1h.66L707,824c0-3.26,1.68-4.88,5-4.88q4.39,0,8.46,11.39,4.07,11.55,4.07,14,0,5.53-5.7,5.53-4.23,0-6.67-8.3l-2.92.33-8.3,1.3V905.8q0,7.17-6.35,7.16T688.32,905.8Zm-23.27-9.19a5.7,5.7,0,0,1-1.46-4.31,20.29,20.29,0,0,1,1.46-6,99,99,0,0,0,5.05-26.36q.48-6.82,5.69-6.83a5.7,5.7,0,0,1,4.31,1.46,6.48,6.48,0,0,1,1.39,4.56q0,11.39-3.91,27.5-1.3,5.85-3.25,8.62a5.7,5.7,0,0,1-4.72,2.76A6.48,6.48,0,0,1,665.05,896.61Zm48.81-4.31a18.05,18.05,0,0,1-2.11-7.16q-2.13-17.89-3.42-22l-.81-5.53a3.4,3.4,0,0,1,1.13-3.42,6.5,6.5,0,0,1,4.07-1.14q4.56,0,6.18,6.67,5.37,21.65,5.37,29.12,0,5.7-6,5.7A4.88,4.88,0,0,1,713.86,892.3Zm13.18-63q0-5.87,7.16-5.86h25.7V800.21H729.8q-7.15,0-7.15-6t7.15-5.86h30.1V772.88q0-3.9,1.71-5.85a6.86,6.86,0,0,1,9.6,0q1.71,2,1.71,5.85v15.46h31.89q7.47,0,7.48,6,0,5.85-7.48,5.85H772.92v23.27h28.63q7.32,0,7.32,5.86,0,6-7.32,6H734.2Q727,835.36,727,829.34Zm7.24,76q-3.49-3.42-3.17-10.9V865.13q0-7.65,3.41-11.14c2.28-2.34,5.91-3.39,10.9-3.18h44.09q7.82,0,11.31,3.34t3,11v29.29q0,7.8-3.33,11.3t-11,3H745.42Q737.77,908.73,734.28,905.32Zm55.31-9.93a6.11,6.11,0,0,0,1.55-4.39V868.71a5.85,5.85,0,0,0-1.63-4.47,6.11,6.11,0,0,0-4.39-1.55H749.65q-6,0-6,6V891q0,6,6,6h35.47A5.85,5.85,0,0,0,789.59,895.39Z" transform="translate(0 0)"/><path class="cls-3" d="M831.16,911.17a6.63,6.63,0,0,1-1.95-4.88,7.93,7.93,0,0,1,.49-2.44l43.11-126.09a6.82,6.82,0,0,1,13.34,2.12,8.17,8.17,0,0,1-.48,2.44L842.55,908.41a6.94,6.94,0,0,1-11.39,2.76Z" transform="translate(0 0)"/><path class="cls-3" d="M904.21,886.28a6.42,6.42,0,0,1-2-4.72,6.25,6.25,0,0,1,1.3-3.74,7.58,7.58,0,0,1,3.25-2.6l58.09-25.87-58.09-25.87a7.58,7.58,0,0,1-3.25-2.6,6.27,6.27,0,0,1-1.3-3.75,6.67,6.67,0,0,1,6.67-6.67,6.62,6.62,0,0,1,2.6.49l64.92,29.13q6,2.92,6,8.62V850q0,5.7-6,8.62l-64.92,29.12a6.83,6.83,0,0,1-7.32-1.46Z" transform="translate(0 0)"/></g><g id="link_icon"><path id="路徑二" class="cls-4" d="M456.51,523.71l-60.05,60.12A63.71,63.71,0,1,1,306.4,493.7L426.49,373.46a63.59,63.59,0,0,1,90,0h0a21.24,21.24,0,0,0,30-30.06,106,106,0,0,0-150,0h0L276.39,463.64A106.18,106.18,0,1,0,426.46,613.88l60-60.12a21.24,21.24,0,0,0-30-30.06Z" transform="translate(0 0)"/><path id="路徑一" class="cls-4" d="M723.61,166.11a106,106,0,0,0-150.08,0l-72,72.11a21.24,21.24,0,1,0,30,30.06l72-72.11a63.71,63.71,0,1,1,90.07,90.13L561.55,418.52a63.58,63.58,0,0,1-90,0h0a21.25,21.25,0,1,0-30,30.06,106,106,0,0,0,150,0h0L723.61,316.35a106.33,106.33,0,0,0,0-150.23Z" transform="translate(0 0)"/></g></svg>