<?xml version="1.0" encoding="iso-8859-1"?>
<!-- Generator: Adobe Illustrator 25.0.0, SVG Export Plug-In . SVG Version: 6.00 Build 0)  -->
<svg version="1.1" id="&#x5716;&#x5C64;_1" xmlns="http://www.w3.org/2000/svg" xmlns:xlink="http://www.w3.org/1999/xlink" x="0px"
	 y="0px" viewBox="0 0 1000 1000" style="enable-background:new 0 0 1000 1000;" xml:space="preserve">
<rect style="fill:none;" width="1000" height="1000"/>
<path id="briefcase_x5F_3" style="fill:none;stroke:#294A7E;stroke-width:10;stroke-linecap:round;stroke-linejoin:round;" d="
	M764.36,416.61c-6.903-0.398-12.822,4.876-13.219,11.779c0,0.004,0,0.007-0.001,0.011c-0.03,0.506-0.03,1.014,0,1.52v173
	c0.439,6.908-4.802,12.866-11.71,13.31c-0.503,0.03-1.007,0.03-1.51,0H262.08c-6.903,0.398-12.822-4.876-13.219-11.779
	c0-0.004,0-0.007-0.001-0.011c-0.03-0.506-0.03-1.014,0-1.52v-173c0.439-6.908-4.802-12.866-11.71-13.31
	c-0.503-0.03-1.007-0.03-1.51,0c-6.903-0.398-12.822,4.876-13.219,11.779c0,0.004,0,0.007-0.001,0.011
	c-0.03,0.506-0.03,1.014,0,1.52v173c-0.458,21.581,16.659,39.45,38.24,39.92h477.26c21.575,0.323,39.327-16.906,39.65-38.482
	c0-0.006,0-0.012,0-0.018c0-0.47,0-0.94,0-1.42v-173c0.465-6.882-4.737-12.839-11.619-13.304
	C765.421,416.58,764.89,416.578,764.36,416.61z"/>
<path id="briefcase_x5F_2" style="fill:none;stroke:#294A7E;stroke-width:10;stroke-linecap:round;stroke-linejoin:round;" d="
	M751.14,230.32H248.86c-21.581-0.323-39.337,16.911-39.66,38.491c0,0.003,0,0.006,0,0.009c0,0.47,0,0.95,0,1.42v85.18
	c0.079,18.312,12.614,34.22,30.4,38.58l207.53,46.6v42.58c-0.439,6.908,4.802,12.866,11.71,13.31c0.503,0.03,1.007,0.03,1.51,0h79.3
	c6.897,0.403,12.815-4.862,13.218-11.759c0.001-0.01,0.001-0.021,0.002-0.031c0.03-0.506,0.03-1.014,0-1.52V440.6L760.4,394
	c17.797-4.363,30.335-20.286,30.4-38.61v-85.15c0.458-21.581-16.659-39.45-38.24-39.92L751.14,230.32z M526.41,469.83h-52.85V416.6
	h52.87L526.41,469.83z M764.33,355.4c0.288,6.449-4.222,12.124-10.57,13.3L552.84,414v-10.69c0.439-6.908-4.802-12.866-11.71-13.31
	c-0.503-0.03-1.007-0.03-1.51,0h-79.27c-6.897-0.403-12.815,4.862-13.218,11.759c-0.001,0.01-0.001,0.021-0.002,0.031
	c-0.03,0.506-0.03,1.014,0,1.52v10.63l-200.92-45.25c-6.338-1.171-10.847-6.83-10.57-13.27v-85.18
	c-0.439-6.908,4.802-12.866,11.71-13.31c0.503-0.03,1.007-0.03,1.51,0h502.28c6.897-0.403,12.815,4.862,13.218,11.759
	c0.001,0.01,0.001,0.021,0.002,0.031c0.03,0.506,0.03,1.014,0,1.52L764.33,355.4z"/>
<path id="briefcase_x5F_1" style="fill:none;stroke:#294A7E;stroke-width:10;stroke-linecap:round;stroke-linejoin:round;" d="
	M566.09,137.18H433.91c-21.575-0.323-39.327,16.906-39.65,38.482c0,0.006,0,0.012,0,0.018c0,0.47,0,0.94,0,1.42v13.31
	c-0.282,7.296,5.403,13.439,12.699,13.721c7.296,0.282,13.439-5.403,13.721-12.699c0.006-0.151,0.009-0.301,0.01-0.452
	c0.01-0.19,0.01-0.38,0-0.57V177.1c-0.434-6.906,4.805-12.86,11.71-13.31c0.503-0.03,1.007-0.03,1.51,0h132.18
	c6.897-0.403,12.815,4.862,13.218,11.759c0.001,0.01,0.001,0.021,0.002,0.031c0.03,0.506,0.03,1.014,0,1.52v13.31
	c-0.157,7.301,5.634,13.348,12.935,13.505s13.348-5.634,13.505-12.935l0,0V177.1c0.458-21.581-16.659-39.45-38.24-39.92
	C567,137.17,566.56,137.17,566.09,137.18z"/>
<g id="&#x79D1;&#x7CFB;&#x7C21;&#x4ECB;">
	<g>
		<path style="fill:#294A7E;" d="M88.47,887.74l-64.92-29.12c-4-1.953-6-4.827-6-8.62v-1.3c0-3.8,2-6.673,6-8.62L88.47,811
			c0.83-0.318,1.711-0.484,2.6-0.49c3.684,0,6.67,2.986,6.67,6.67c-0.021,1.357-0.476,2.671-1.3,3.75
			c-0.821,1.156-1.951,2.057-3.26,2.6l-58.24,25.82l58.24,25.87c1.309,0.543,2.439,1.444,3.26,2.6c0.823,1.075,1.279,2.386,1.3,3.74
			c0.006,3.678-2.972,6.664-6.65,6.67c-0.007,0-0.013,0-0.02,0C90.181,888.228,89.299,888.062,88.47,887.74z"/>
		<path style="fill:#294A7E;" d="M193.89,906.45v-63c-3.015,9.825-7.036,19.312-12,28.31c-5.127,9.493-9.153,14.24-12.08,14.24
			c-3.9,0-5.85-2.603-5.85-7.81c0-1.63,1.24-4.13,3.74-7.49c10.633-14.42,18.877-31.177,24.73-50.27h-20.34
			c-5.1,0-7.65-2.17-7.65-6.51c0-4.233,2.55-6.347,7.65-6.34h21.8v-22.17c-12.147,1.413-19.197,2.12-21.15,2.12
			c-4.453,0-6.677-2.17-6.67-6.51c-0.02-1.818,1.035-3.477,2.69-4.23c1.78-1,4.47-1.57,8.05-1.79c16.667-1.3,30.44-3.74,41.32-7.32
			c1.35-0.55,2.777-0.887,4.23-1c4.227,0,6.343,2.223,6.35,6.67c0,4.233-7.333,7.597-22,10.09v24.08H222
			c4.98,0,7.473,2.167,7.48,6.5c0,4.233-2.493,6.35-7.48,6.35h-15.3v17.08c0.845-1.573,2.516-2.525,4.3-2.45
			c1.09,0,2.63,0.81,4.64,2.44c2.444,2.088,4.654,4.435,6.59,7c5.207,6.507,7.81,10.627,7.81,12.36c0,4.227-2.117,6.343-6.35,6.35
			c-1.62,0-3.09-1-4.39-2.93c-2.06-3.147-4.283-6.237-6.67-9.27c-2.144-2.571-4.102-5.291-5.86-8.14v63.61c0,4.667-2.167,7-6.5,7
			C196.023,913.44,193.897,911.117,193.89,906.45z M280,905.8v-38.39l-51,10.25c-4.227,0-6.34-2.17-6.34-6.51
			c0-3.473,2.113-5.59,6.34-6.35l51-10.41v-81.83c0-4.88,2.167-7.32,6.5-7.32c4.233,0,6.35,2.44,6.35,7.32v79.23l10.57-2.28
			l3.26-0.32c3.793-0.333,5.69,1.667,5.69,6c0.086,1.609-0.468,3.187-1.54,4.39c-1.352,1.243-3.025,2.081-4.83,2.42l-13.19,3v40.8
			c0,4.78-2.117,7.167-6.35,7.16C282.153,912.987,280,910.6,280,905.8z M249.7,836.5c-3.16-3.069-6.591-5.847-10.25-8.3
			c-3.58-2.5-5.37-4.777-5.37-6.83c0-4,2.277-6,6.83-6c1.84,0,4.987,1.57,9.44,4.71c3.9,2.833,7.37,5.547,10.41,8.14
			c2.6,2.28,3.9,4.393,3.9,6.34c0,4.453-2.333,6.677-7,6.67C255.82,841.217,253.167,839.64,249.7,836.5z M254.7,798.75
			c-3.26-2.713-7.26-5.913-12-9.6c-2.707-2.06-4.063-4.06-4.07-6c0-4.12,2.223-6.18,6.67-6.18c1.947,0,6.45,2.55,13.51,7.65
			c6.827,4.88,10.243,8.73,10.25,11.55c0,4.34-2.387,6.51-7.16,6.51c-1.63-0.02-4.02-1.33-7.16-3.93H254.7z"/>
		<path style="fill:#294A7E;" d="M409.46,857v48.32c0,5.087-2.223,7.633-6.67,7.64c-1.897,0.149-3.765-0.534-5.12-1.87
			c-1.14-1.247-1.71-3.17-1.71-5.77V858c-24.407,1.52-43.443,2.497-57.11,2.93c-4.233,0.113-6.347-2.22-6.34-7
			c0-2.82,1-4.71,3.09-5.69c1.52-0.76,7.377-1.14,17.57-1.14c9.433,0,18.597-0.27,27.49-0.81l7.65-7.65l1-0.49
			c-13.673-9.76-24.793-16.863-33.36-21.31c-6.72-3.467-10.08-6.397-10.08-8.79c-0.136-1.794,0.484-3.563,1.71-4.88
			c1.127-1.08,2.943-1.62,5.45-1.62c1.51,0,3.47,0.76,5.85,2.27l7.12,3.88l5.21,3.09l16.59-23.43L369,789l-25.87,1.14
			c-4.34,0.113-6.51-2.11-6.51-6.67c0-4.233,3.31-6.35,9.93-6.35H354c39.587-1.52,70.39-4.773,92.41-9.76
			c5.42-1.333,8.783-2,10.09-2c4.993,0,7.487,2.493,7.48,7.48c0,2.28-1.247,4.017-3.74,5.21c-2.237,0.812-4.553,1.385-6.91,1.71
			c-3.42,0.587-7.353,1.21-11.8,1.87c-12.907,1.84-25.487,3.303-37.74,4.39l-23.59,30.75l2.11,1.14l15.46,10.74
			c8.24-8.9,15.67-17.567,22.29-26c6.28-7.92,10.727-11.88,13.34-11.88c4.98,0,7.473,2.223,7.48,6.67
			c0,2.06-3.687,7.267-11.06,15.62c-7.493,8.46-18.017,18.817-31.57,31.07l-2,2c19.633-0.54,38.073-1.407,55.32-2.6l-1.3-1.3
			l-7.65-8.46c-2.5-2.71-3.74-4.82-3.74-6.35c0-3.573,1.667-5.36,5-5.36c1.52,0,3.82,1.3,6.92,3.9s7.34,6.73,12.77,12.37
			c4.102,4.142,7.921,8.555,11.43,13.21c2.6,3.64,3.9,6.32,3.9,8.06c0,4-2.333,6-7,6c-2.267,0-4.933-1.953-8-5.86l-4.88-6.67
			C443.007,854.603,426.487,855.913,409.46,857z M373.67,872.78c0,1.52-1.22,4-3.66,7.4c-3.234,4.364-6.741,8.519-10.5,12.44
			c-9.427,10.093-16.367,15.14-20.82,15.14c-1.67,0.143-3.323-0.419-4.56-1.55c-0.967-1.033-1.453-2.7-1.46-5
			c0-2.61,1.84-5.15,5.53-7.65c7.484-5.19,14.031-11.615,19.36-19c3.8-5.1,6.947-7.65,9.44-7.65
			C371.44,866.917,373.663,868.873,373.67,872.78L373.67,872.78z M477.47,900c0,4.767-2.333,7.15-7,7.15
			c-4.667,0-12.313-5.05-22.94-15.15c-10.847-10.3-16.27-17.023-16.27-20.17c-0.119-1.544,0.448-3.062,1.55-4.15
			c1.027-0.92,2.693-1.38,5-1.38c2.06,0,5.207,2.333,9.44,7c6.995,7.817,15.24,14.417,24.4,19.53
			C475.523,894.863,477.463,897.253,477.47,900z"/>
		<path style="fill:#294A7E;" d="M499.43,800.13c-0.967-1.218-1.432-2.76-1.3-4.31c0.057-1.109,0.487-2.166,1.22-3
			c1.202-1.404,2.542-2.684,4-3.82c6.705-5.707,12.567-12.337,17.41-19.69c1.85-2.82,4.12-4.23,6.84-4.23
			c4.44,0,6.67,1.58,6.67,4.72c-0.043,1.013-0.354,1.996-0.9,2.85c-0.63,1.07-1.426,2.032-2.36,2.85h32.7
			c4.227,0,6.343,1.843,6.35,5.53c0,3.58-2.117,5.37-6.35,5.37H547.1c1.014,1.7,1.858,3.495,2.52,5.36
			c0.508,1.302,0.812,2.675,0.9,4.07c0,3.26-2.07,4.88-6.19,4.88c-2.82,0-4.77-1.57-5.85-4.71l-2.93-9.6h-12
			c-9.44,10.08-16.003,15.123-19.69,15.13C501.76,801.52,500.3,801.06,499.43,800.13z M503.5,906.29v-90.13
			c0-4.667,1.057-8.057,3.17-10.17c2.12-2.11,5.5-3.06,10.17-2.85H551c4.56,0,7.843,1,9.85,3c2.007,2,2.9,5.173,2.68,9.52v21.64
			c0,4.553-1,7.86-3,9.92c-2,2.06-5.177,2.987-9.53,2.78h-35.63v56.29c0,4.767-2,7.153-6,7.16
			C505.457,913.45,503.5,911.063,503.5,906.29L503.5,906.29z M551.5,818.44c0-3.36-1.62-5.05-4.88-5.05h-26.37
			c-3.25,0-4.88,1.69-4.88,5.05v3.41h36.12L551.5,818.44z M550.36,838.37c0.849-1.088,1.256-2.455,1.14-3.83v-3.25h-36.13v8.3h31.24
			c1.362,0.13,2.717-0.312,3.74-1.22L550.36,838.37z M537.67,902.71c-1.947-1.953-2.813-5.043-2.6-9.27v-25.38
			c0-4.34,0.95-7.487,2.85-9.44c1.9-1.953,5.017-2.82,9.35-2.6h46.21c4.44,0,7.64,0.95,9.6,2.85c1.96,1.9,2.827,4.963,2.6,9.19
			v25.38c0,4.34-0.95,7.513-2.85,9.52c-1.9,2.007-5.017,2.9-9.35,2.68h-46.22c-4.45,0-7.64-0.98-9.6-2.93L537.67,902.71z M594,871
			c0-3.26-1.58-4.88-4.72-4.88h-37.95c-1.299-0.085-2.572,0.388-3.5,1.3c-0.86,0.988-1.298,2.273-1.22,3.58v4.72H594V871z
			 M594,890.68v-5h-47.39v5c-0.078,1.307,0.36,2.592,1.22,3.58c0.928,0.912,2.201,1.385,3.5,1.3h37.91
			c3.14-0.01,4.76-1.63,4.76-4.89V890.68z M566,795.5c0-1.2,1.953-3.913,5.86-8.14c3.9-4.12,7.967-9.977,12.2-17.57
			c1.84-3.333,3.957-5,6.35-5c4.333,0,6.5,1.573,6.5,4.72c-0.052,1.075-0.328,2.127-0.81,3.09c-0.484,1.09-1.161,2.082-2,2.93h44.09
			c4.33,0,6.51,1.84,6.51,5.53s-2.18,5.37-6.51,5.37H614c2.16,4,3.243,7.037,3.25,9.11c0,3.253-2.113,4.88-6.34,4.88
			c-3.153,0-5.377-1.9-6.67-5.7l-2.61-8.29H588.1c-7.807,9.713-13.23,14.57-16.27,14.57C567.943,801,566,799.167,566,795.5z
			 M607.81,906.62c0-4.34,2.227-6.51,6.68-6.51H621c4.447,0,6.727-2.06,6.84-6.18V850h-37.79c-4.447,0-7.7-1-9.76-3
			c-2.06-2-2.983-5.227-2.77-9.68v-21.65c0-4.447,0.977-7.7,2.93-9.76c1.953-2.06,5.153-2.983,9.6-2.77h36.28
			c4.88,0,8.43,1,10.66,3.09s3.17,5.37,2.84,9.93v80.7c0,5.633-1.517,9.807-4.55,12.52c-2.82,2.613-6.723,3.807-11.71,3.58h-9.11
			c-4.447,0.027-6.673-2.087-6.68-6.34H607.81z M627.81,818.62c0-3.333-1.627-5-4.88-5h-28.65c-3.247,0-4.873,1.667-4.88,5v3.25
			h38.4L627.81,818.62z M627.81,831.31H589.4v3.25c0,3.373,1.627,5.057,4.88,5.05h33.52L627.81,831.31z"/>
		<path style="fill:#294A7E;" d="M664.4,830.31c0-2.82,3.253-6.073,9.76-9.76c20.525-11.682,38.329-27.598,52.23-46.69
			c4.233-5.747,7.973-8.62,11.22-8.62c4.78,0,7.16,1.52,7.16,4.55c-0.187,1.373-0.628,2.698-1.3,3.91
			c15.947,18.667,36.773,34.067,62.48,46.2c4.12,1.85,6.18,4.39,6.18,7.65c0,5.2-2.44,7.803-7.32,7.81
			c-4.447,0-14.427-5.423-29.94-16.27c-14.973-10.42-27.337-21.81-37.09-34.17l-1.3-1.46c-14.22,17.14-27.183,30.14-38.89,39
			c-13.56,10.2-22.4,15.3-26.52,15.3C666.623,837.787,664.4,835.303,664.4,830.31z M669.61,905.48
			c-0.051-2.737,1.462-5.264,3.9-6.51c6.161-3.413,11.804-7.686,16.76-12.69c8.487-9.107,12.73-23.2,12.73-42.28l-0.16-11.23
			c-0.12-2.027,0.518-4.027,1.79-5.61c1.289-1.373,3.12-2.105,5-2c4.233,0,6.35,2.44,6.35,7.32l-0.17,14.15
			c-0.22,21.153-4.937,37.153-14.15,48c-4.067,4.99-8.774,9.421-14,13.18c-4.34,2.92-8.19,4.383-11.55,4.39
			C671.777,912.167,669.61,909.927,669.61,905.48L669.61,905.48z M763.32,911c-1.281-1.547-1.922-3.526-1.79-5.53v-72.72
			c-0.12-2.027,0.518-4.027,1.79-5.61c1.289-1.373,3.12-2.105,5-2c4.667,0,7,2.547,7,7.64v72.73c0,4.993-2.333,7.487-7,7.48
			C766.444,913.081,764.62,912.356,763.32,911z"/>
		<path style="fill:#294A7E;" d="M831.16,911.17c-1.294-1.289-2-3.054-1.95-4.88c0.034-0.834,0.199-1.658,0.49-2.44l43.11-126.09
			c1.103-3.602,4.916-5.627,8.518-4.524c2.91,0.891,4.877,3.602,4.822,6.644c-0.035,0.833-0.196,1.656-0.48,2.44l-43.12,126.09
			c-1.234,3.629-5.176,5.571-8.804,4.337C832.778,912.418,831.895,911.88,831.16,911.17z"/>
		<path style="fill:#294A7E;" d="M904.21,886.28c-1.293-1.227-2.018-2.937-2-4.72c0.017-1.355,0.473-2.667,1.3-3.74
			c0.82-1.153,1.945-2.054,3.25-2.6l58.09-25.87l-58.09-25.87c-1.305-0.546-2.43-1.447-3.25-2.6c-0.828-1.076-1.284-2.392-1.3-3.75
			c0-3.684,2.986-6.67,6.67-6.67c0.891-0.013,1.775,0.153,2.6,0.49l64.92,29.13c4,1.947,6,4.82,6,8.62v1.3c0,3.8-2,6.673-6,8.62
			l-64.92,29.12c-2.514,1.008-5.385,0.435-7.32-1.46L904.21,886.28z"/>
	</g>
</g>
</svg>
