<?xml version="1.0" encoding="iso-8859-1"?>
<!-- Generator: Adobe Illustrator 25.0.0, SVG Export Plug-In . SVG Version: 6.00 Build 0)  -->
<svg version="1.1" id="&#x5716;&#x5C64;_1" xmlns="http://www.w3.org/2000/svg" xmlns:xlink="http://www.w3.org/1999/xlink" x="0px"
	 y="0px" viewBox="0 0 1000 1000" style="enable-background:new 0 0 1000 1000;" xml:space="preserve">
<rect style="fill:none;" width="1000" height="1000"/>
<g>
	<path style="fill:#294A7E;" d="M88.4,887.75l-64.93-29.13c-4-1.953-6-4.827-6-8.62v-1.3c0-3.8,2-6.677,6-8.63L88.4,811
		c0.829-0.321,1.711-0.488,2.6-0.49c3.678-0.006,6.664,2.972,6.67,6.65c0,0.007,0,0.013,0,0.02c-0.017,1.355-0.473,2.667-1.3,3.74
		c-0.816,1.159-1.943,2.063-3.25,2.61l-58.26,25.82l58.26,25.87c1.303,0.55,2.427,1.45,3.25,2.6c0.826,1.077,1.282,2.393,1.3,3.75
		c0.006,3.678-2.972,6.664-6.65,6.67c-0.007,0-0.013,0-0.02,0C90.111,888.238,89.229,888.071,88.4,887.75z"/>
	<path style="fill:#294A7E;" d="M218.58,781.82h-4.72v125.95c0,4.553-1.953,6.83-5.86,6.83s-5.86-2.277-5.86-6.83v-25.55
		c-18,7.48-28.847,11.223-32.54,11.23c-3.8,0-5.7-2.17-5.7-6.51c0-3.58,3.31-6.247,9.93-8v-97.12h-3.09
		c-4.24,0-6.357-1.953-6.35-5.86c-0.114-1.654,0.478-3.278,1.63-4.47c1.31-1.114,3.005-1.67,4.72-1.55h47.84
		c1.661-0.101,3.296,0.456,4.55,1.55c1.148,1.194,1.739,2.817,1.63,4.47C224.76,779.873,222.7,781.827,218.58,781.82z
		 M202.14,804.76v-22.94h-16.6v22.94H202.14z M202.14,837.96v-21.48h-16.6V838L202.14,837.96z M202.14,870.5v-20.83h-16.6V876
		L202.14,870.5z M263.49,832.91c1.018,2.585,1.362,5.386,1,8.14c-0.211,1.079-0.898,2.006-1.87,2.52
		c-1.117,0.622-2.381,0.933-3.66,0.9c-2.707,0-4.443-1.41-5.21-4.23l-1-3.42c-9.755,2.546-19.643,4.549-29.62,6l-1.46,0.16
		c-1.59,0.061-3.13-0.561-4.23-1.71c-1.118-1.213-1.705-2.822-1.63-4.47c-0.116-1.481,0.528-2.92,1.71-3.82
		c1.656-0.994,3.524-1.58,5.45-1.71l4.07-0.49c3.58-5.86,6.617-11.067,9.11-15.62l-15.46-7.81c-1.418-0.631-2.691-1.547-3.74-2.69
		c-0.749-0.885-1.154-2.011-1.14-3.17c-0.083-1.196,0.199-2.388,0.81-3.42c0.668-0.848,1.579-1.472,2.61-1.79
		c0.732-0.241,1.5-0.349,2.27-0.32c1.116,0.028,2.219,0.248,3.26,0.65c4.773-10,8.407-18.353,10.9-25.06
		c0.512-1.558,1.374-2.978,2.52-4.15c1.025-0.849,2.331-1.284,3.66-1.22c1.546-0.053,3.074,0.343,4.4,1.14
		c1.058,0.585,1.823,1.586,2.11,2.76l0.33,2c-0.173,1.634-0.612,3.228-1.3,4.72c-3.962,8.528-8.475,16.789-13.51,24.73l7.49,4.07
		l8.64-17.11c0.674-1.574,1.738-2.95,3.09-4c1.111-0.703,2.446-0.964,3.74-0.73c2.93,0.55,4.83,2,5.7,4.4
		c0.179,0.468,0.287,0.96,0.32,1.46c-0.026,1.277-0.418,2.52-1.13,3.58c-6.737,12.452-14.238,24.474-22.46,36
		c5.207-0.76,8.84-1.303,10.9-1.63c-0.32-1-0.62-1.95-0.89-2.92s-0.57-1.9-0.9-2.77c-0.163-0.697-0.27-1.406-0.32-2.12
		c-0.03-1.337,0.534-2.619,1.54-3.5c1.055-0.929,2.424-1.423,3.83-1.38c2.167,0,3.833,1.467,5,4.4
		C260.807,825.333,262.497,829.877,263.49,832.91z M261,851.3v19.53c0.189,9.143-2.513,18.112-7.72,25.63
		c-5.16,7.333-12.403,12.567-21.73,15.7c-1.001,0.311-2.042,0.476-3.09,0.49c-2.22,0.119-4.234-1.293-4.88-3.42
		c-0.242-0.676-0.354-1.392-0.33-2.11c0-2.07,1.25-3.69,3.75-4.89c4.635-1.915,8.922-4.581,12.69-7.89
		c3.199-2.903,5.608-6.571,7-10.66h-13.63c-7.813,0-11.72-3.96-11.72-11.88v-17.73c0-4.34,1.843-6.51,5.53-6.51
		c3.8,0,5.7,2.17,5.7,6.51v14.48c0,2.71,1.35,4.07,4.07,4.07h12.2v-22c0-4.12,2-6.18,6-6.18C258.947,844.46,261,846.747,261,851.3z
		 M312,841.54c-0.22,1.075-0.905,1.998-1.87,2.52c-1.122,0.621-2.388,0.932-3.67,0.9c-2.71,0-4.45-1.41-5.2-4.24l-0.82-3.09
		c-9.171,2.369-18.456,4.271-27.82,5.7l-1.47,0.16c-1.589,0.058-3.127-0.564-4.23-1.71c-1.11-1.217-1.692-2.824-1.62-4.47
		c-0.115-1.482,0.524-2.921,1.7-3.83c1.662-0.985,3.532-1.567,5.46-1.7h0.48c2.707-4.34,5.853-9.71,9.44-16.11l-15.46-7.81
		c-1.414-0.638-2.686-1.552-3.74-2.69c-0.762-0.88-1.181-2.006-1.18-3.17c-0.083-1.196,0.199-2.388,0.81-3.42
		c0.667-0.849,1.578-1.473,2.61-1.79c0.733-0.25,1.506-0.362,2.28-0.33c1.114,0.028,2.214,0.251,3.25,0.66
		c4.767-10,8.4-18.353,10.9-25.06c0.508-1.562,1.375-2.983,2.53-4.15c1.023-0.853,2.33-1.289,3.66-1.22
		c1.543-0.051,3.067,0.344,4.39,1.14c1.06,0.585,1.828,1.585,2.12,2.76l0.32,1.95c-0.165,1.635-0.605,3.231-1.3,4.72
		c-3.951,8.533-8.457,16.797-13.49,24.74l7.49,4.06l8.62-17.06c0.674-1.574,1.738-2.95,3.09-4c1.113-0.708,2.453-0.969,3.75-0.73
		c2.93,0.54,4.82,2,5.69,4.39c0.182,0.471,0.294,0.966,0.33,1.47c-0.026,1.278-0.422,2.522-1.14,3.58
		c-6.917,12.56-14.522,24.729-22.78,36.45l12.53-1.79c-0.44-1.74-1-3.74-1.79-6c-0.164-0.697-0.274-1.406-0.33-2.12
		c-0.029-1.339,0.539-2.621,1.55-3.5c1.052-0.929,2.418-1.422,3.82-1.38c2.167,0,3.833,1.463,5,4.39c1.733,4,3.4,8.557,5,13.67
		C311.952,835.998,312.327,838.788,312,841.54z M310.69,854.23v17.41c0,7.813-3.903,11.72-11.71,11.72h-16.29v22.94
		c0,2.28-0.49,3.947-1.47,5c-1,1-2.55,1.55-4.72,1.55c-1.666,0.14-3.316-0.422-4.55-1.55c-0.98-1.027-1.47-2.693-1.47-5v-55.65
		c0-4.233,2-6.35,6-6.35c4.12,0,6.183,2.117,6.19,6.35v21.64h12.2c2.71,0,4.07-1.35,4.07-4.07v-14c0-4.453,1.953-6.677,5.86-6.67
		c3.907,0.007,5.863,2.233,5.87,6.68H310.69z"/>
	<path style="fill:#294A7E;" d="M366.65,844v61.51c0,4.88-2.117,7.32-6.35,7.32s-6.333-2.447-6.3-7.34v-59.72l-16.6,1.79
		c-4.667,0.433-7-1.567-7-6c0-3.58,1.9-5.533,5.7-5.86l8.14-0.65c5.333-7.7,9.02-13.123,11.06-16.27c-4-3.147-10.667-8.083-20-14.81
		c-1.16-0.61-2.122-1.54-2.77-2.68c-0.45-0.996-0.619-2.095-0.49-3.18c0.1-1.389,0.709-2.692,1.71-3.66
		c1.005-1.022,2.387-1.583,3.82-1.55c0.557,0.023,1.108,0.134,1.63,0.33c1.622,0.536,3.158,1.304,4.56,2.28
		c4.482-8.227,8.488-16.704,12-25.39c0.433-1.366,1.287-2.56,2.44-3.41c1.095-0.765,2.404-1.164,3.74-1.14
		c0.944,0.011,1.879,0.177,2.77,0.49c2.284,0.681,3.821,2.818,3.74,5.2c-0.032,1.312-0.375,2.597-1,3.75
		c-4.358,9.183-9.645,17.895-15.78,26c3.15,2.28,6.45,4.94,9.93,8c4.553-7.16,9.053-14.807,13.5-22.94
		c1.52-2.82,3.58-4.23,6.18-4.23c1.138-0.015,2.261,0.264,3.26,0.81c2.083,0.973,3.427,3.051,3.46,5.35
		c0.019,1.438-0.377,2.851-1.14,4.07c-3.26,5.753-7.193,11.883-11.8,18.39c-4.607,6.507-10.607,14.533-18,24.08l17.74-1.63
		l-2.12-6.67c-0.295-0.726-0.461-1.497-0.49-2.28c-0.014-1.27,0.522-2.484,1.47-3.33c1.015-0.937,2.36-1.433,3.74-1.38
		c1.95,0,3.52,1.24,4.72,3.74c1.407,3.04,2.817,6.43,4.23,10.17c1.413,3.74,2.443,6.803,3.09,9.19
		c0.123,0.588,0.177,1.189,0.16,1.79c0.032,1.139-0.321,2.255-1,3.17c-0.648,0.89-1.609,1.501-2.69,1.71
		c-0.749,0.175-1.512,0.286-2.28,0.33c-2.407,0.12-4.536-1.546-5-3.91l-1-3.25L366.65,844z M347.65,859.13
		c0,5.64-0.977,13.343-2.93,23.11c-0.973,5.1-2.14,8.897-3.5,11.39c-1.35,2.5-3,3.74-5,3.74c-3.9,0-5.86-1.79-5.86-5.37
		c0.136-1.971,0.634-3.9,1.47-5.69c2.82-7.16,4.393-15.827,4.72-26c0.1-4.767,1.997-7.153,5.69-7.16c3.58-0.04,5.37,1.947,5.37,5.96
		L347.65,859.13z M384.92,864.83c2.667,13.893,4.02,21.757,4.06,23.59c0,3.693-1.897,5.537-5.69,5.53
		c-3.687,0-5.857-2.873-6.51-8.62c-1.2-10.627-2.34-18.927-3.42-24.9l-0.65-3.41c-0.28-1.239,0.161-2.531,1.14-3.34
		c1.171-0.873,2.612-1.305,4.07-1.22c3.007-0.013,5.327,4.103,6.96,12.35L384.92,864.83z M479.13,847.9
		c-0.1,1.054-0.318,2.094-0.65,3.1c-1.2,3.14-3.31,4.72-6.35,4.72c-1.106-0.087-2.198-0.308-3.25-0.66
		c-5.207-1.733-11.54-4.85-19-9.35c-7.46-4.5-12.91-8.543-16.35-12.13c-5.281,4.668-10.941,8.889-16.92,12.62
		c-5.72,3.768-11.832,6.903-18.23,9.35c-1.251,0.446-2.572,0.666-3.9,0.65c-1.522,0.082-3.014-0.443-4.15-1.46
		c-1-1-1.55-2.55-1.55-4.72s1.52-4.07,4.56-5.37c5.603-2.369,11.039-5.115,16.27-8.22c5.181-2.935,10.081-6.339,14.64-10.17
		c-3.203-2.907-6.141-6.093-8.78-9.52c-3.121-3.916-6.003-8.017-8.63-12.28c-2.478,4.01-5.338,7.77-8.54,11.23
		c-2.547,2.6-4.633,3.9-6.26,3.9c-3.913,0-5.867-1.897-5.86-5.69c0-1.333,1.463-3.777,4.39-7.33
		c8.529-10.62,15.187-22.615,19.69-35.47c1.413-4.12,3.637-6.18,6.67-6.18c4.12,0,6.18,1.897,6.18,5.69
		c0,1.847-0.973,4.94-2.92,9.28H457c2.796-0.13,5.561,0.637,7.89,2.19c1.97,1.397,3.099,3.697,3,6.11
		c-0.071,1.333-0.344,2.648-0.81,3.9c-2.572,6.698-6.168,12.956-10.66,18.55c-4.274,5.567-8.978,10.79-14.07,15.62
		c6.613,5.427,17.133,10.69,31.56,15.79c3.453,1.3,5.18,3.243,5.18,5.83L479.13,847.9z M465.38,856.9c2.12,2.113,3.177,5.113,3.17,9
		v33.52c0,3.9-1.057,6.9-3.17,9c-2.113,2.1-5.113,3.157-9,3.17h-45.14c-3.913,0-6.913-1.057-9-3.17s-3.147-5.113-3.18-9V866
		c0-3.913,1.06-6.913,3.18-9s5.12-3.147,9-3.18h45.07c3.9-0.053,6.91,0.98,9.03,3.1L465.38,856.9z M456.19,870.48
		c0-3.58-1.79-5.37-5.37-5.37h-34.21c-1.456-0.139-2.904,0.331-4,1.3c-0.905,1.154-1.341,2.608-1.22,4.07v24.41
		c-0.122,1.462,0.314,2.916,1.22,4.07c1.094,0.972,2.544,1.443,4,1.3h34.17c3.58,0,5.37-1.79,5.37-5.37L456.19,870.48z
		 M443.25,808.08c3.192-4.042,5.997-8.374,8.38-12.94c0.284-0.496,0.452-1.05,0.49-1.62c0-1.52-1-2.28-2.93-2.28h-34.7
		c-0.388,0.575-0.742,1.173-1.06,1.79l-0.73,1.46c4.773,8,11.663,16.247,20.67,24.74c3.532-3.479,6.82-7.198,9.84-11.13
		L443.25,808.08z"/>
	<path style="fill:#294A7E;" d="M512.77,905.32c0-4.667,2.603-7,7.81-7h7.65c3.913,0,5.977-2.063,6.19-6.19v-28.8
		c-7.92,2.18-17.727,4.403-29.42,6.67c-0.588,0.128-1.189,0.185-1.79,0.17c-1.628,0.092-3.202-0.604-4.23-1.87
		c-1.038-1.454-1.553-3.216-1.46-5c-0.069-1.782,0.643-3.506,1.95-4.72c1.3-1.193,3.417-2.06,6.35-2.6
		c11.713-2.167,21.26-4.01,28.64-5.53v-27.79h-28.68c-5.207,0-7.81-2.17-7.81-6.51c0-4.233,2.603-6.347,7.81-6.34h28.64v-22.62
		c-1.74,0.22-4.78,0.653-9.12,1.3c-6.4,0.873-11.497,1.47-15.29,1.79c-4.667,0.333-7-1.837-7-6.51
		c-0.152-1.993,0.861-3.894,2.6-4.88c1.333-0.867,4.807-1.517,10.42-1.95c18.107-1.333,32.153-3.883,42.14-7.65
		c1.962-0.872,4.053-1.423,6.19-1.63c4.44,0,6.663,2.223,6.67,6.67c0.032,0.988-0.256,1.959-0.82,2.77
		c-0.716,0.916-1.598,1.69-2.6,2.28c-1.917,1.041-3.97,1.809-6.1,2.28c-2.88,0.76-7.517,1.79-13.91,3.09v25.06h35.31
		c-0.98-15.3-1.47-27.503-1.47-36.61c0-5.433,2.223-8.147,6.67-8.14c1.998-0.161,3.956,0.624,5.29,2.12
		c1.14,1.413,1.71,3.58,1.71,6.5c0,10.42,0.333,22.463,1,36.13h40.19c5.333,0,8,2.17,8,6.51c0,4.227-2.667,6.34-8,6.34h-39
		c1.07,11.543,3.359,22.94,6.83,34c4.372-4.853,8.383-10.02,12-15.46c3.473-5.2,6.457-7.803,8.95-7.81c2.39,0,4.12,0.44,5.21,1.3
		c1.147,1.028,1.747,2.535,1.62,4.07c0,4.34-7.537,14.7-22.61,31.08c3.68,8.36,7.013,14.57,10,18.63
		c2.987,4.06,5.727,6.097,8.22,6.11c2.393,0,4.347-4.937,5.86-14.81c0.146-1.666,0.83-3.238,1.95-4.48
		c1.125-0.973,2.585-1.469,4.07-1.38c4.233,0,6.35,2.277,6.35,6.83c0.025,7.285-1.649,14.475-4.89,21
		c-3.14,6.507-7.043,9.763-11.71,9.77c-2.589-0.089-5.111-0.847-7.32-2.2c-2.951-1.748-5.591-3.975-7.81-6.59
		c-5.987-6.896-11.031-14.556-15-22.78c-3.373,3.333-6.44,6.153-9.2,8.46s-6.477,5.02-11.15,8.14c-4.44,3.033-7.83,5.23-10.17,6.59
		c-2.34,1.36-4.047,2.027-5.12,2c-4.233,0-6.35-2.277-6.35-6.83c0-2.82,2.333-5.487,7-8c8.46-4.44,18.387-12.087,29.78-22.94
		c-4.78-12.907-8.09-27.823-9.93-44.75H547.6v24.79c1.507-0.44,5.083-1.417,10.73-2.93l3.5-1.06c1.25-0.38,2.58-0.73,4-1.06
		c0.585-0.164,1.184-0.271,1.79-0.32c1.333-0.036,2.604,0.565,3.42,1.62c0.951,1.383,1.409,3.045,1.3,4.72
		c0,3.153-2.497,5.377-7.49,6.67l-17.24,4.72v36.62c0,5.63-1.39,9.76-4.15,12.36s-7.14,3.74-13.1,3.42h-9.77
		C515.383,912.16,512.777,909.88,512.77,905.32z M622,798.91c-2.273-2.243-4.394-4.635-6.35-7.16c-3.04-3.8-5.127-6.567-6.26-8.3
		c-0.971-1.277-1.564-2.802-1.71-4.4c-0.008-1.392,0.622-2.711,1.71-3.58c1.051-0.938,2.411-1.458,3.82-1.46
		c2.82,0,6.78,2.873,11.88,8.62c5.213,5.86,7.817,9.82,7.81,11.88c0,4.453-2.333,6.677-7,6.67
		C624.89,801.18,623.59,800.43,622,798.91z"/>
	<path style="fill:#294A7E;" d="M682.17,905.81v-74.52c-6.3,12.36-10.803,18.543-13.51,18.55c-1.602,0.124-3.186-0.406-4.39-1.47
		c-1.006-1.042-1.538-2.453-1.47-3.9c0-2.5,1.193-5.7,3.58-9.6c10.093-16.713,18.5-37.163,25.22-61.35
		c1.633-5.747,4.237-8.62,7.81-8.62c4.233,0,6.35,1.843,6.35,5.53c0,1.953-0.667,5.047-2,9.28c-2.167,6.5-5.15,14.31-8.95,23.43
		v102.67c0,5.1-2.117,7.65-6.35,7.65S682.13,910.91,682.17,905.81z M708.04,906.46V784.75c-0.44-4.88,0.51-8.487,2.85-10.82
		c2.34-2.333,6.007-3.333,11-3h17.74c5.093,0,8.807,1.11,11.14,3.33c2.333,2.22,3.283,5.72,2.85,10.5V829
		c0.427,4.993-0.55,8.68-2.93,11.06s-6.073,3.36-11.08,2.94h-18.55v63.46c0,4.67-2.18,7-6.51,7s-6.55-2.33-6.55-7H708.04z
		 M741.23,787.35c0-3.14-1.62-4.72-4.88-4.72H726.1c-3.15,0-4.83,1.69-5,5v13h20.17L741.23,787.35z M741.23,826.41v-14.32h-20.17
		v19.2h15.29C739.39,831.29,741,829.66,741.23,826.41L741.23,826.41z M771.34,906.14c0-4.34,2.603-6.51,7.81-6.51h9
		c4.44,0,6.553-2.117,6.34-6.35V843h-18.76c-4.993,0.44-8.683-0.537-11.07-2.93c-2.387-2.393-3.36-6.083-2.92-11.07v-44.25
		c-0.873-9.873,3.793-14.483,14-13.83h17.74c5.087,0,8.8,1.11,11.14,3.33c2.34,2.22,3.29,5.72,2.85,10.5v110.32
		c0,5.86-1.463,10.31-4.39,13.35c-1.539,1.522-3.449,2.614-5.54,3.17c-2.553,0.638-5.179,0.937-7.81,0.89h-10.58
		C773.943,912.48,771.34,910.367,771.34,906.14L771.34,906.14z M794.44,787.35c0.27-2.337-1.407-4.45-3.744-4.72
		c-0.324-0.037-0.652-0.037-0.976,0h-10.9c-2.93,0-4.5,1.58-4.72,4.72v13.35h20.34L794.44,787.35z M794.44,812.09H774.1v14.32
		c0,3.033,1.573,4.66,4.72,4.88h15.62V812.09z"/>
	<path style="fill:#294A7E;" d="M831.22,911.18c-1.313-1.28-2.037-3.047-2-4.88c0.039-0.833,0.204-1.656,0.49-2.44l43.12-126.11
		c0.829-2.881,3.514-4.828,6.51-4.72c3.699-0.078,6.762,2.857,6.84,6.557c0.002,0.094,0.002,0.189,0,0.283
		c-0.039,0.833-0.204,1.656-0.49,2.44l-43.08,126.11c-0.406,1.358-1.232,2.552-2.36,3.41c-2.777,1.935-6.53,1.664-9-0.65
		L831.22,911.18z"/>
	<path style="fill:#294A7E;" d="M904.28,886.29c-1.271-1.239-1.976-2.946-1.95-4.72c0.018-1.357,0.474-2.673,1.3-3.75
		c0.823-1.15,1.947-2.05,3.25-2.6L965,849.35l-58.09-25.87c-1.307-0.547-2.434-1.451-3.25-2.61c-0.827-1.073-1.283-2.385-1.3-3.74
		c0.079-3.727,3.165-6.684,6.892-6.605c0.805,0.017,1.6,0.178,2.348,0.475l64.93,29.12c4,1.96,6,4.837,6,8.63V850
		c0,3.8-2,6.673-6,8.62l-64.93,29.13C909.086,888.758,906.215,888.185,904.28,886.29L904.28,886.29z"/>
</g>
<path id="mail_x5F_icon" style="fill:none;stroke:#294A7E;stroke-width:11;stroke-linecap:round;stroke-linejoin:round;" d="
	M781,150.87H219c-33.024,0.038-59.809,26.756-59.93,59.78v358.7c0.121,33.024,26.906,59.742,59.93,59.78h562
	c33.04,0,59.847-26.74,59.93-59.78v-358.7C840.858,177.606,814.044,150.859,781,150.87z M772.61,190.72L542.38,419.18
	c-23.421,23.37-61.339,23.37-84.76,0L227.4,190.72H772.61z M199,561.23V218.79L371.67,390.1L199,561.23z M227.4,589.23L400,418.2
	l29.38,29.15c39.028,38.912,102.182,38.912,141.21,0L600,418.2l172.57,171.06L227.4,589.23z M800.94,561.23L628.33,390.1L801,218.79
	L800.94,561.23z"/>
</svg>
