<svg id="圖層_1" data-name="圖層 1" xmlns="http://www.w3.org/2000/svg" viewBox="0 0 1000 1000"><defs><style>.cls-1{fill:#294a7e;}.cls-2,.cls-3{fill:none;}.cls-2{stroke:#294a7e;stroke-miterlimit:10;stroke-width:10px;}</style></defs><path class="cls-1" d="M94.07,892.27l-64.58-29q-6-2.91-6-8.57v-1.3q0-5.65,6-8.58l64.58-29a7.47,7.47,0,0,1,2.59-.49A6.64,6.64,0,0,1,103.3,822a6.22,6.22,0,0,1-1.29,3.72,7.59,7.59,0,0,1-3.24,2.59L40.82,854.07l58,25.73a7.74,7.74,0,0,1,3.24,2.59,6.27,6.27,0,0,1,1.29,3.73,6.62,6.62,0,0,1-6.64,6.63A7.45,7.45,0,0,1,94.07,892.27Z"/><path class="cls-1" d="M247.68,861.68v48.07q0,7.61-6.64,7.61a6.63,6.63,0,0,1-5.1-1.86c-1.13-1.25-1.69-3.16-1.69-5.75v-47.1q-36.42,2.26-56.82,2.91-6.31.16-6.31-7c0-2.8,1-4.69,3.08-5.66q2.27-1.14,17.48-1.14,14.07,0,27.35-.81l7.61-7.6,1-.49q-20.4-14.56-33.18-21.2-10-5.19-10-8.74a6.43,6.43,0,0,1,1.7-4.86c1.14-1.08,2.94-1.62,5.42-1.62,1.51,0,3.46.76,5.83,2.27l7.12,3.88,5.18,3.08,16.51-23.31L207.38,794l-25.74,1.13q-6.48.17-6.47-6.63,0-6.32,9.87-6.32h7.45q59.07-2.26,91.93-9.71c5.4-1.29,8.74-1.94,10-1.94q7.44,0,7.44,7.44,0,3.4-3.72,5.18a33.05,33.05,0,0,1-6.88,1.7q-5.1.9-11.73,1.87-19.27,2.75-37.56,4.37L218.54,821.7l2.11,1.13L236,833.51q12.3-13.26,22.17-25.89,9.39-11.82,13.27-11.82,7.45,0,7.45,6.64,0,3.07-11,15.53-11.16,12.63-31.4,30.92l-1.94,1.94q29.3-.81,55-2.59L288.31,847l-7.61-8.42q-3.72-4-3.72-6.31,0-5.34,5-5.34c1.51,0,3.81,1.29,6.88,3.88s7.31,6.69,12.71,12.3a128.41,128.41,0,0,1,11.33,13.19q3.88,5.43,3.88,8,0,6-7,6-3.39,0-7.93-5.82l-4.85-6.64Q273.09,860.06,247.68,861.68Zm-35.61,15.7q0,2.26-3.64,7.36A128.79,128.79,0,0,1,198,897.12q-14.09,15.06-20.72,15.06a6,6,0,0,1-4.53-1.54c-1-1-1.46-2.67-1.46-4.94q0-3.88,5.5-7.61a79.71,79.71,0,0,0,19.27-18.93q5.65-7.6,9.38-7.61Q212.08,871.55,212.07,877.38Zm103.27,27q0,7.11-7,7.12t-22.82-15q-16.2-15.37-16.19-20.07a5.24,5.24,0,0,1,1.54-4.13c1-.92,2.67-1.38,4.93-1.38q3.07,0,9.39,7a94.27,94.27,0,0,0,24.28,19.43Q315.34,900.37,315.34,904.41Z"/><path class="cls-1" d="M335.89,901.33q0-6.47,7.45-6.47h52.77V778.64c0-5.28,2.31-7.93,7-7.93q6.63,0,6.63,7.93v37.55h50.18q7.61,0,7.61,6.48,0,6.63-7.61,6.63H409.7v65.56h64.75q7.77,0,7.77,6.47,0,6.64-7.77,6.64H343.34Q335.9,908,335.89,901.33Z"/><path class="cls-1" d="M521.22,834l-8.41-3.89q-8.1-3.72-8.1-8.09,0-7,7-7,2.43,0,16,6.15,6.15,2.76,6.15,7.45,0,7.27-7,7.28A13.06,13.06,0,0,1,521.22,834Zm-16,72.51a10.08,10.08,0,0,1,1.46-4.37q6.94-13.92,14.89-37.23c1.94-5.71,4.53-8.58,7.77-8.58q6.79,0,6.79,6.64,0,4.37-7.93,25.09-7.6,19.76-10,23.47a6.24,6.24,0,0,1-5.51,2.59Q505.2,914.12,505.2,906.51Zm23.31-113.14-8.58-4.85a23.75,23.75,0,0,1-5.67-4,5.56,5.56,0,0,1-1.78-3.8q0-6.81,7-6.8,3.57,0,12.79,4.85,9.22,4.69,9.23,9.72,0,7.11-7.29,7.12Q532.55,795.64,528.51,793.37ZM547.28,895.5V869.77q-1.12-17.64,16.67-16.51h20.88V828.82H546.31q-7.6,0-7.61-6.15,0-6,7.61-6h38.52v-24.6l-6.15.81a202.48,202.48,0,0,1-25.89,2.1q-7,0-7-7.28a5.56,5.56,0,0,1,1.94-4.54q1.79-1.6,10.36-1.78,45.15-1.12,63.77-8.57a21.39,21.39,0,0,1,7.45-1.79c4.53,0,6.79,2.33,6.79,7a5.46,5.46,0,0,1-2.18,4,15.63,15.63,0,0,1-6.07,3.08q-9.71,2.91-29.94,5.5v26.06h43.21q7.44,0,7.45,6,0,6.15-7.45,6.15H598v24.44h23.47q7.61,0,12,3.88c2.92,2.59,4.26,6.8,4.05,12.63V895.5c0,5.73-1.35,9.93-4.05,12.63Q629,912.18,620.77,912H564Q546.15,913.15,547.28,895.5Zm76.89-3.72v-18q0-8.58-8.1-8.58H568.49q-8.58,0-8.58,8.25v18q0,8.58,8.25,8.58h47.59Q624.17,900,624.17,891.78Z"/><path class="cls-1" d="M743.62,904.08l-62.15,7.13-5,.32q-6.65.48-6.64-6.48c0-4.09,3-6.31,9.07-6.63l28.48-1.94V885H680.82c-4,0-6-1.83-6-5.5s2-5.5,6-5.5h26.54v-8.74h-17.8q-6.31,0-9.55-3t-3.24-8.66V829q0-5.82,3.16-8.9t9.3-3.08h18.13v-8.25H676q-6,0-6-5.67c0-3.66,2-5.5,6-5.5h31.4v-9.23l-4.37.49-22.66,1.62q-6.63.48-6.63-6a5.27,5.27,0,0,1,3.88-5.5h.16l7.93-.33q35.3-1.46,52.45-7l3.07-.32q6.79-.65,6.8,6.63,0,4.54-8.58,6.32-2.26.48-14.73,2.26l-6,.81v10.2h28c4.09,0,6.15,1.89,6.15,5.67a5.4,5.4,0,0,1-1.46,4.12c-1,.92-2.54,1.38-4.69,1.38h-28V817h18.94q12.47,0,12.46,11.66v24.6q0,12-12.78,12H718.69V874h26.23q3.39,0,4.77,1.29a7.11,7.11,0,0,1,0,8.42q-1.38,1.29-4.77,1.29H718.69v10.85l24.44-2.43a4.45,4.45,0,0,1,3.65,1.22,5.61,5.61,0,0,1,1.37,4.12Q748.15,903.27,743.62,904.08Zm-55-68h18.77V827H692.47q-3.88,0-3.88,4Zm3.88,19.1h14.89v-9.39H688.59v5.51Q688.59,855.21,692.47,855.2ZM737.39,828a3.93,3.93,0,0,0-3-1h-15.7v9.06h19.59v-5A4.47,4.47,0,0,0,737.39,828Zm.89,17.8H718.69v9.39h15.7q3.89,0,3.89-3.88Zm74.13-26.7-1.29,33q-1.47,34.47-4.21,48.07A17.65,17.65,0,0,1,799,911.85q-6.32,4-17,4-7.12,0-7.12-7,0-4.05,3.07-5.67c1-.54,3.83-1,8.58-1.29q9.56-.48,10.52-14.73,2-25.57,2.76-43.54l.64-18.45q.17-6-6-6H781.5q-1.31,29.94-5.18,48.07-4.38,20.24-12,33-8.42,14.25-14.08,14.24-6,0-6-6.31a4.88,4.88,0,0,1,.89-2.67A36.45,36.45,0,0,1,748,902q20.55-23.15,21.69-82.71H758.83q-7.12,0-7.12-6.31a6.16,6.16,0,0,1,1.7-4.78c1.13-1,2.94-1.54,5.42-1.54H770l.17-15q0-9.71.16-14.73.15-6.63,6-6.63t6,6.79l-.16,14.57-.16,15h16Q812.9,806.64,812.41,819.11Z"/><path class="cls-1" d="M833,915.58a6.6,6.6,0,0,1-2-4.86,8.12,8.12,0,0,1,.49-2.43L874.4,782.85a6.5,6.5,0,0,1,6.48-4.69,6.65,6.65,0,0,1,6.8,6.79,8.12,8.12,0,0,1-.49,2.43L844.3,912.82A6.89,6.89,0,0,1,833,915.58Z"/><path class="cls-1" d="M905.64,890.81a6.4,6.4,0,0,1-1.94-4.69,6.27,6.27,0,0,1,1.29-3.73,7.74,7.74,0,0,1,3.24-2.59L966,854.07l-57.79-25.74a7.59,7.59,0,0,1-3.24-2.59A6.22,6.22,0,0,1,903.7,822a6.64,6.64,0,0,1,6.64-6.64,6.61,6.61,0,0,1,2.59.49l64.58,29q6,2.92,6,8.58v1.3q0,5.67-6,8.57l-64.58,29a6.61,6.61,0,0,1-2.59.48A6.39,6.39,0,0,1,905.64,890.81Z"/><path class="cls-2" d="M670.71,346.69,631.4,288.47a27.7,27.7,0,0,0-10.51-9.24s-88.34-47.85-104-50.46c-19.46-3.26-30.37,3.68-42.65,8.84-14.8,6.2-59.22,21.55-59.22,21.55l-44.9-38a27.74,27.74,0,0,0-35.86,42.33l56.77,48.09a27.8,27.8,0,0,0,26.66,5.17l32.79-10.87-13.31,98.27c-.6,4.39-2.2,16.82,1,27l31.38,100.63-25.15,95.67A32.35,32.35,0,1,0,507,643.86l27.52-104.65a32.37,32.37,0,0,0-.39-17.86l-15.85-50.8,36,16.1-15.35,75.56a32.36,32.36,0,0,0,25.26,38.16,32.82,32.82,0,0,0,6.48.65,32.37,32.37,0,0,0,31.68-25.92l20.51-101a32.34,32.34,0,0,0-18.49-36l-56.39-25.23L561.69,311.5l27.78,14,35.26,52.22a27.74,27.74,0,1,0,46-31Z"/><path class="cls-2" d="M555,222.8a53.51,53.51,0,1,0-63.67-40.9A53.5,53.5,0,0,0,555,222.8Z"/><rect class="cls-3" width="1000" height="1000"/></svg>