<?xml version="1.0" encoding="iso-8859-1"?>
<!-- Generator: Adobe Illustrator 25.0.0, SVG Export Plug-In . SVG Version: 6.00 Build 0)  -->
<svg version="1.1" id="&#x5716;&#x5C64;_1" xmlns="http://www.w3.org/2000/svg" xmlns:xlink="http://www.w3.org/1999/xlink" x="0px"
	 y="0px" viewBox="0 0 1000 1000" style="enable-background:new 0 0 1000 1000;" xml:space="preserve">
<rect style="fill:none;" width="1000" height="1000"/>
<g id="_&#x806F;&#x7D61;&#x6211;&#x5011;">
	<g>
		<path style="fill:#294A7E;" d="M88.47,887.74l-64.92-29.12c-4-1.953-6-4.827-6-8.62v-1.3c0-3.8,2-6.673,6-8.62L88.47,811
			c0.83-0.318,1.711-0.484,2.6-0.49c3.684,0,6.67,2.986,6.67,6.67c-0.021,1.357-0.476,2.671-1.3,3.75
			c-0.821,1.156-1.951,2.057-3.26,2.6l-58.24,25.82l58.24,25.87c1.309,0.543,2.439,1.444,3.26,2.6c0.823,1.075,1.279,2.386,1.3,3.74
			c0.006,3.678-2.972,6.664-6.65,6.67c-0.007,0-0.013,0-0.02,0C90.181,888.228,89.299,888.062,88.47,887.74z"/>
		<path style="fill:#294A7E;" d="M164.12,799.73c0-3.913,2.277-5.867,6.83-5.86h41.81c4.56,0,6.84,1.953,6.84,5.86
			s-2.28,5.857-6.84,5.85H171C166.42,805.58,164.127,803.63,164.12,799.73z M169.81,821.2c0-3.793,2.28-5.69,6.84-5.69h29.77
			c4.453,0,6.677,1.897,6.67,5.69c0,3.913-2.223,5.867-6.67,5.86h-29.77C172.09,827.06,169.81,825.107,169.81,821.2L169.81,821.2z
			 M169.81,842.84c0-3.793,2.28-5.69,6.84-5.69h29.77c4.453,0,6.677,1.95,6.67,5.85c0,3.8-2.223,5.7-6.67,5.7h-29.77
			C172.09,848.7,169.81,846.747,169.81,842.84L169.81,842.84z M169.98,777.76c0-3.9,2.333-5.85,7-5.85h30.75
			c4.773,0,7.16,1.95,7.16,5.85c0,3.9-2.387,5.853-7.16,5.86H177c-4.667,0-7-1.953-7-5.86L169.98,777.76z M173.47,903.69
			c-2.22-2.173-3.33-5.373-3.33-9.6v-22.62c0-8.56,4.393-12.843,13.18-12.85h16.75c8.793,0,13.187,4.283,13.18,12.85v22.29
			c0,8.787-4.393,13.18-13.18,13.18h-16.75C178.98,906.94,175.697,905.857,173.47,903.69L173.47,903.69z M201.86,891.32v-17.24
			c0-2.713-1.41-4.07-4.23-4.07h-11.87c-2.82,0-4.23,1.357-4.23,4.07v17.24c0,2.83,1.41,4.23,4.23,4.23h11.87
			C200.45,895.55,201.86,894.15,201.86,891.32L201.86,891.32z M257.86,907.1V872c-2.155,3.67-4.722,7.082-7.65,10.17
			c-2.933,3.093-6.837,6.81-11.71,11.15c-8.16,7.12-13.757,10.68-16.79,10.68c-4.34,0-6.51-2.167-6.51-6.5
			c0-2.06,2.82-4.937,8.46-8.63c6.074-3.962,11.765-8.482,17-13.5c4.812-4.409,8.997-9.456,12.44-15H224c-4.773,0-7.16-2-7.16-6
			c0-3.787,2.387-5.683,7.16-5.69h33.84v-11.53h-18.56c-10.947,0.867-15.99-4.177-15.13-15.13v-34.66
			c-0.873-10.953,4.17-15.997,15.13-15.13h49.46c10.96-0.76,16.003,4.283,15.13,15.13V822c0.873,10.84-4.17,15.883-15.13,15.13
			h-19.52v11.57h35.3c4.88,0,7.32,1.897,7.32,5.69c0,4-2.44,6-7.32,6h-31.88c8.403,13.01,20.456,23.254,34.65,29.45
			c3.693,1.633,5.537,3.91,5.53,6.83c0,4.667-2.223,7-6.67,7c-3.467,0-9.217-3.147-17.25-9.44c-6.4-4.88-12.96-12.417-19.68-22.61
			v35.48c0,4.233-1.9,6.35-5.7,6.35c-3.8,0-5.697-2.117-5.69-6.35H257.86z M257.86,783.95h-16.14c-3.79,0-5.69,1.89-5.69,5.69v9
			h21.8L257.86,783.95z M257.86,809.95H236v9.76c0,3.8,1.9,5.69,5.69,5.69h16.11L257.86,809.95z M291.86,789.61
			c0-3.8-1.9-5.69-5.69-5.69h-16.95v14.64h22.61L291.86,789.61z M291.86,819.71V810h-22.64v15.45h16.92
			c3.79-0.02,5.69-1.91,5.69-5.71L291.86,819.71z"/>
		<path style="fill:#294A7E;" d="M355.45,906.13v-64.59c-2.268,8.215-5.378,16.174-9.28,23.75c-3.8,7.713-7,11.563-9.6,11.55
			c-3.9,0-5.85-2.277-5.85-6.83c0-1.733,1.083-4.12,3.25-7.16c9.444-13.352,16.286-28.364,20.17-44.25h-14.8
			c-5.1,0-7.65-2.06-7.65-6.18s2.55-6.183,7.65-6.19h16.11V784c-9.22,1.3-15.187,1.95-17.9,1.95c-3.9,0-5.853-2.28-5.86-6.84
			c-0.174-1.875,0.88-3.648,2.61-4.39c1.84-0.747,5.743-1.45,11.71-2.11c10.487-0.933,20.879-2.729,31.07-5.37l3.26-0.49
			c2.38-0.32,4.197,0.14,5.45,1.38c1.331,1.491,2.005,3.456,1.87,5.45c0,1.74-0.977,3.26-2.93,4.56
			c-2.06,1.407-7.647,2.817-16.76,4.23v23.91h11.72c5.087,0,7.633,2.063,7.64,6.19c0.007,4.127-2.54,6.187-7.64,6.18H368v21
			c0.889-1.578,2.59-2.522,4.4-2.44c0.967,0,2.377,0.813,4.23,2.44c2.337,2.179,4.46,4.576,6.34,7.16
			c4.767,6.4,7.153,10.467,7.16,12.2c0,3.8-1.85,5.69-5.53,5.69c-1.85,0-3.85-1.73-6-5.2c-2.723-4.306-5.712-8.437-8.95-12.37
			L368,844.3v61.83c0,4.88-2.113,7.32-6.34,7.32C357.52,913.45,355.45,911.01,355.45,906.13z M379.36,900.6
			c0-3.907,2.117-5.86,6.35-5.86h38.07v-19.2h-26c-4.233,0-6.35-1.897-6.35-5.69s2.117-5.693,6.35-5.7h26V847.4l-26.2,1.79
			c-2.49,0.1-4.39-0.38-5.69-1.47c-1.366-1.24-2.085-3.04-1.95-4.88c-0.135-1.78,0.664-3.503,2.11-4.55
			c1.407-1.087,5.74-1.683,13-1.79c21.04-0.667,39.04-2.333,54-5l2.12-0.32c1.83-0.425,3.751,0.093,5.12,1.38
			c1.318,1.435,1.993,3.346,1.87,5.29c0,2.6-2.387,4.497-7.16,5.69c-1.727,0.44-9.807,1.417-24.24,2.93v17.73H464
			c4.12,0,6.19,1.9,6.19,5.7s-2.07,5.69-6.19,5.69h-27.21v19.2h36.12c4.34,0,6.51,2,6.51,6c0,3.9-2.17,5.853-6.51,5.86h-87.2
			C381.483,906.63,379.367,904.613,379.36,900.6L379.36,900.6z M394,821.53c-2.267-2.167-3.24-5.693-2.92-10.58V787
			c0-4.993,1.11-8.627,3.33-10.9c2.22-2.273,5.717-3.25,10.49-2.93H456c4.993,0,8.627,1.11,10.9,3.33
			c2.273,2.22,3.25,5.72,2.93,10.5v24c0,5.1-1.083,8.767-3.25,11c-2.167,2.233-5.693,3.16-10.58,2.78h-51.1
			C399.92,824.78,396.287,823.697,394,821.53z M457.29,807.7v-17.41c0-3.333-1.79-5.123-5.37-5.37h-43.27
			c-3.373,0-5.163,1.79-5.37,5.37v17.41c0,3.333,1.79,5.123,5.37,5.37h43.27C455.393,813.07,457.183,811.28,457.29,807.7z"/>
		<path style="fill:#294A7E;" d="M497.32,899c0.047-1.122,0.442-2.202,1.13-3.09c1.083-1.45,2.281-2.81,3.58-4.07
			c7.953-7.578,13.978-16.949,17.57-27.33c0.942-2.881,1.572-5.855,1.88-8.87c0.48-3.847,0.94-8.917,1.38-15.21H504.8
			c-4.993,0-7.487-2.113-7.48-6.34s2.5-6.29,7.48-6.19h18.55l0.16-18.54l0.16-2.44h-15.29c-5.1,0-7.65-2.117-7.65-6.35
			c0-4.233,2.55-6.347,7.65-6.34h15.29l-0.16-20.67c0-5.2,2.17-7.803,6.51-7.81c4.233,0,6.347,2.497,6.34,7.49l-0.16,21h13.18
			c4.993,0,7.487,2.113,7.48,6.34c-0.007,4.227-2.5,6.343-7.48,6.35H536l-0.33,18.87l-0.16,2.11H552c5.1,0,7.65,2.063,7.65,6.19
			c0,4.233-2.55,6.347-7.65,6.34h-16.78c-0.54,6.94-1.243,13.07-2.11,18.39c1.021-1.196,2.489-1.92,4.06-2
			c1.96,0,4.457,1.52,7.49,4.56c9.76,9.433,14.64,15.67,14.64,18.71c0,3.9-2.17,5.853-6.51,5.86c-1.84,0-4-1.58-6.34-4.72
			l-6.35-7.65l-2.44-2.93c-1.407-1.733-2.68-3.223-3.82-4.47c-0.664-0.686-1.279-1.418-1.84-2.19
			c-2.933,11.82-7.327,21.69-13.18,29.61c-5.86,8.14-10.687,12.207-14.48,12.2C499.66,905.803,497.32,903.533,497.32,899z
			 M539.78,905.67c0-3.153,2.44-5.487,7.32-7c11.167-3.473,19.083-8.027,23.75-13.66c4.667-5.42,7.163-13.12,7.49-23.1
			c-10.313,0-15.25-5.043-14.81-15.13v-59.91c0-5.42,1.193-9.35,3.58-11.79c2.387-2.44,6.183-3.497,11.39-3.17h42.3
			c5.42,0,9.35,1.193,11.79,3.58c2.45,2.38,3.5,6.23,3.18,11.55v59.54c0,5.527-1.193,9.527-3.58,12
			c-2.387,2.473-6.183,3.56-11.39,3.26h-5.53v29c0,3.8,2.71,5.7,8.13,5.7c5.32,0,8.35-0.76,9.11-2.28c0.55-1,1-3.79,1.31-8.46
			c-0.064-1.981,0.534-3.927,1.7-5.53c1.147-1.242,2.793-1.9,4.48-1.79c4,0,6,2.44,6,7.32c0,8-1.087,13.857-3.26,17.57
			c-2.38,4-8.67,6-18.87,6c-9.333,0-15.08-0.813-17.24-2.44c-2.387-1.733-3.69-4.607-3.91-8.62v-36.43h-12
			c-0.873,11.82-3.8,21.527-8.78,29.12c-5.207,7.7-13.397,13.663-24.57,17.89c-5.527,2.167-9.27,3.253-11.23,3.26
			c-4.24,0-6.36-2.17-6.36-6.51V905.67z M623.08,788.37c0.093-1.388-0.413-2.75-1.39-3.74c-1.059-0.927-2.413-1.448-3.82-1.47H581.1
			c-3.14,0-4.82,1.69-5,5v9.59h47L623.08,788.37z M623.08,823.51v-15h-47v15H623.08z M623.08,845.64v-11.42h-47v11.55
			c-0.13,1.362,0.312,2.717,1.22,3.74c1.085,0.861,2.435,1.321,3.82,1.3h36.77c3.24,0,4.97-1.733,5.19-5.2V845.64z"/>
		<path style="fill:#294A7E;" d="M664.89,842.6c-1.004-0.877-1.543-2.17-1.46-3.5c-0.061-1.263,0.445-2.488,1.38-3.34
			c1.189-0.898,2.664-1.332,4.15-1.22h34.16v-5.85h-28c-1.417,0.132-2.835-0.244-4-1.06c-0.88-0.879-1.327-2.101-1.22-3.34
			c0-2.92,1.737-4.437,5.21-4.55h28v-5.21h-25.86c-3.573,0-5.36-1.463-5.36-4.39c0-3.04,1.787-4.56,5.36-4.56h25.87v-5.37h-33.67
			c-3.58,0-5.37-1.463-5.37-4.39c0-3.033,1.79-4.55,5.37-4.55h33.67v-5.53h-25.7c-1.46,0.088-2.903-0.348-4.07-1.23
			c-1.908-1.856-1.95-4.908-0.094-6.816c0.005-0.005,0.009-0.009,0.014-0.014c1.189-0.898,2.664-1.332,4.15-1.22h25.7v-4.55
			c0-4.12,1.953-6.183,5.86-6.19c1.602-0.09,3.168,0.502,4.31,1.63c1.094,1.258,1.651,2.896,1.55,4.56v4.55h21.64
			c3.787,0,6.687,0.95,8.7,2.85c2.013,1.9,3.013,4.583,3,8.05v3.91h5c3.58,0,5.37,1.517,5.37,4.55c0,2.927-1.79,4.39-5.37,4.39h-5
			v3.58c0,7.16-3.903,10.74-11.71,10.74h-21.63v5.21h30.1c3.68,0,5.53,1.52,5.53,4.55s-1.85,4.4-5.53,4.4h-30.1v5.85h38.07
			c1.494-0.073,2.965,0.388,4.15,1.3c1.015,0.841,1.583,2.103,1.54,3.42c0,3.04-1.897,4.56-5.69,4.56H669
			C667.529,843.915,666.071,843.482,664.89,842.6z M663.89,902.22c0-3.58,2.93-5.367,8.79-5.36l5.21,0.32l73.37-2.76
			c3.58-0.113,5.37,1.457,5.37,4.71c0,3.8-2.873,5.753-8.62,5.86l-77.28,3.42c-4.547,0.1-6.82-1.963-6.82-6.19H663.89z
			 M670.56,877.49v-16.43c0-3.9,1-6.86,2.93-8.86s4.77-3,8.46-3h55.32c3.793,0,6.72,1,8.78,3s3.1,5,3.1,8.86v16.43
			c0,3.91-1,6.84-3.1,8.79s-5,2.93-8.78,2.93H682c-7.607,0-11.413-3.907-11.42-11.72H670.56z M703.27,858.62h-17.72
			c-1.465-0.331-2.921,0.589-3.252,2.055c-0.09,0.397-0.089,0.809,0.002,1.205v2.92h21L703.27,858.62z M703.27,873.43h-21v3.25
			c0,2.173,1.083,3.257,3.25,3.25h17.74L703.27,873.43z M735.8,788.83c0.101-0.792-0.135-1.59-0.65-2.2
			c-0.672-0.479-1.451-0.785-2.27-0.89h-18.04v5.53h21L735.8,788.83z M734.99,804.83c0.528-0.689,0.872-1.501,1-2.36v-2.28h-21.15
			v5.37h18.06c0.77,0.076,1.535-0.182,2.1-0.71L734.99,804.83z M736.78,861.83c0.094-0.906-0.168-1.813-0.73-2.53
			c-0.717-0.569-1.604-0.882-2.52-0.89h-18.69v6.34h22L736.78,861.83z M736.62,876.63l0.16-3.25h-22v6.5h18.71
			c2.1,0.033,3.15-1.033,3.15-3.2L736.62,876.63z M763.46,873.05v-86.66c0-4.887,2-7.33,6-7.33c4,0,6,2.443,6,7.33v86.71
			c0,4.993-2,7.49-6,7.49c-4,0-5.993-2.497-5.98-7.49L763.46,873.05z M771.11,905.27c0-4.453,2.603-6.68,7.81-6.68h6.67
			c4.667,0,7.053-2.44,7.16-7.32V775.16c0-5.333,2.06-8,6.18-8c4.227,0,6.34,2.667,6.34,8v119.42
			c0.773,12.28-4.913,18.087-17.06,17.42h-9.27c-5.207,0-7.81-2.227-7.81-6.68L771.11,905.27z"/>
		<path style="fill:#294A7E;" d="M831.16,911.17c-1.294-1.289-2-3.054-1.95-4.88c0.034-0.834,0.199-1.658,0.49-2.44l43.11-126.09
			c1.103-3.602,4.916-5.627,8.518-4.524c2.91,0.891,4.877,3.602,4.822,6.644c-0.035,0.833-0.196,1.656-0.48,2.44l-43.12,126.09
			c-1.234,3.629-5.176,5.571-8.804,4.337C832.778,912.418,831.895,911.88,831.16,911.17z"/>
		<path style="fill:#294A7E;" d="M904.21,886.28c-1.293-1.227-2.018-2.937-2-4.72c0.017-1.355,0.473-2.667,1.3-3.74
			c0.82-1.153,1.945-2.054,3.25-2.6l58.09-25.87l-58.09-25.87c-1.305-0.546-2.43-1.447-3.25-2.6c-0.828-1.076-1.284-2.392-1.3-3.75
			c0-3.684,2.986-6.67,6.67-6.67c0.891-0.013,1.775,0.153,2.6,0.49l64.92,29.13c4,1.947,6,4.82,6,8.62v1.3c0,3.8-2,6.673-6,8.62
			l-64.92,29.12c-2.514,1.008-5.385,0.435-7.32-1.46L904.21,886.28z"/>
	</g>
</g>
<g id="school_x5F_icon">
	<path id="school_x5F_10" style="fill:none;stroke:#294A7E;stroke-width:10;stroke-linecap:round;stroke-linejoin:round;" d="
		M799.38,393.16L682,275.78c-2.202-2.201-5.187-3.438-8.3-3.44h-143l-16.6-16.6v-30.36h105.6
		c6.478,0.008,11.737-5.237,11.745-11.715c0.003-2.548-0.823-5.028-2.355-7.065l-29.93-39.91l29.93-39.91
		c3.888-5.189,2.834-12.547-2.355-16.435c-2.03-1.521-4.498-2.344-7.035-2.345H502.31c-6.484,0-11.74,5.256-11.74,11.74v136
		L474,272.35H331c-3.117-0.003-6.107,1.235-8.31,3.44L205.23,393.16c-4.601,4.569-4.626,12.002-0.057,16.603
		c2.213,2.228,5.227,3.477,8.367,3.467h18.78v223c-0.017,6.484,5.226,11.753,11.71,11.77c0.007,0,0.013,0,0.02,0h223
		c6.482-0.005,11.734-5.258,11.74-11.74v-70.45h47v70.44c-0.005,6.484,5.246,11.744,11.73,11.75c0.003,0,0.007,0,0.01,0h223
		c6.48,0,11.734-5.25,11.74-11.73v-223h18.78c6.484,0.009,11.748-5.239,11.757-11.723c0.005-3.129-1.24-6.13-3.457-8.337
		L799.38,393.16z M514.05,131.48h82.17l-21.13,28.17c-3.128,4.176-3.128,9.914,0,14.09l21.13,28.17h-82.17V131.48z M668.83,295.82
		l93.91,93.91H648l-93.91-93.91H668.83z M502.31,277.21l112.52,112.52H577.6l-67-67c-4.583-4.587-12.016-4.59-16.603-0.007
		c-0.002,0.002-0.005,0.005-0.007,0.007l-67,67h-37.21L502.31,277.21z M335.79,295.82h114.7l-93.91,93.91h-114.7L335.79,295.82z
		 M748.79,624.47H549.26v-70.39c0-6.482-5.248-11.739-11.73-11.75h-70.44c-6.48,0.005-11.73,5.26-11.73,11.74v70.43H255.8V413.21
		h176.08c3.113-0.002,6.098-1.239,8.3-3.44l62.13-62.13l62.13,62.13c2.205,2.202,5.194,3.439,8.31,3.44h176.07L748.79,624.47z"/>
	<path id="school_x5F_9" style="fill:none;stroke:#294A7E;stroke-width:10;stroke-linecap:round;stroke-linejoin:round;" d="
		M292.57,447.15h48.8v48.79h-48.8V447.15z"/>
	<path id="school_x5F_8" style="fill:none;stroke:#294A7E;stroke-width:10;stroke-linecap:round;stroke-linejoin:round;" d="
		M384.31,447.15h48.79v48.79h-48.79V447.15z"/>
	<path id="school_x5F_7" style="fill:none;stroke:#294A7E;stroke-width:10;stroke-linecap:round;stroke-linejoin:round;" d="
		M292.57,538.18h48.8V587h-48.8V538.18z"/>
	<path id="school_x5F_6" style="fill:none;stroke:#294A7E;stroke-width:10;stroke-linecap:round;stroke-linejoin:round;" d="
		M384.31,538.18h48.79V587h-48.79V538.18z"/>
	<path id="school_x5F_5" style="fill:none;stroke:#294A7E;stroke-width:10;stroke-linecap:round;stroke-linejoin:round;" d="
		M571.51,447.15h48.79v48.79h-48.79V447.15z"/>
	<path id="school_x5F_4" style="fill:none;stroke:#294A7E;stroke-width:10;stroke-linecap:round;stroke-linejoin:round;" d="
		M663.24,447.15H712v48.79h-48.8L663.24,447.15z"/>
	<path id="school_x5F_3" style="fill:none;stroke:#294A7E;stroke-width:10;stroke-linecap:round;stroke-linejoin:round;" d="
		M571.51,538.18h48.79V587h-48.79V538.18z"/>
	<path id="school_x5F_2" style="fill:none;stroke:#294A7E;stroke-width:10;stroke-linecap:round;stroke-linejoin:round;" d="
		M663.24,538.18H712V587h-48.8L663.24,538.18z"/>
	<path id="school_x5F_1" style="fill:none;stroke:#294A7E;stroke-width:10;stroke-linecap:round;stroke-linejoin:round;" d="
		M502.31,399c-26.952,0-48.8,21.849-48.8,48.8c0,26.952,21.849,48.8,48.8,48.8c26.951,0,48.8-21.849,48.8-48.8
		c0-0.003,0-0.007,0-0.01l0,0C551.077,420.854,529.246,399.028,502.31,399z M502.31,472.19c-13.476,0-24.4-10.924-24.4-24.4
		c0-13.476,10.924-24.4,24.4-24.4c13.476,0,24.4,10.924,24.4,24.4S515.786,472.19,502.31,472.19L502.31,472.19z"/>
</g>
</svg>
