<svg id="圖層_1" data-name="圖層 1" xmlns="http://www.w3.org/2000/svg" viewBox="0 0 1000 91.86"><defs><style>.cls-1{fill:none;}.cls-2{fill:#2b3d4e;}</style></defs><rect class="cls-1" width="1000" height="91.86"/><path class="cls-2" d="M86.48,531.45a51.44,51.44,0,0,1-7.63-9.72,60.36,60.36,0,0,1-12.73,9.56q-6.8,3.94-9.8,3.94t-3-3.24a2.7,2.7,0,0,1,.77-2.09,41.89,41.89,0,0,1,5.48-2.31q8.72-3.17,16.28-11.5Q70,503.84,68.51,484.7H44.67c-1.23,0-2,.33-2.39,1s-.46,3.78-.46,9.49H57.17q6.31,0,6.32,6.63,0,14.58-1.92,18.06-2.55,4.47-12,4.47-3.16,0-3.16-3.32,0-3.16,3.16-3.16h2.85q4.17,0,4.71-4.17a68.83,68.83,0,0,0,.62-10,2.44,2.44,0,0,0-.73-1.89,3,3,0,0,0-2-.65H41.82q0,14.8-2,23.3A29.36,29.36,0,0,1,37,532.22q-1.55,2.63-3.39,2.62-3.24,0-3.24-3.55c0-.72.56-2.23,1.69-4.55a37.93,37.93,0,0,0,2.63-10.34,121,121,0,0,0,.85-16l-.16-14.89q-.15-7.1,7-7.1H68.2L68.05,469q0-3.31,3.16-3.31t3.24,3.7v8.95H96.13q3.86,0,3.86,3.16t-3.86,3.17H74.83q1,15.12,5.17,25.92l.78-.93a54.19,54.19,0,0,0,6.63-13.35c.87-2.67,2.11-4,3.7-4q3.09,0,3.09,2.7c0,1.14-1.16,4.09-3.47,8.88a95.43,95.43,0,0,1-7.56,13,49.47,49.47,0,0,0,4.55,6.48Q90.65,527,92,527q1.84,0,2.24-5.17c.25-3.24,1.26-4.86,3-4.86q3.31,0,3.31,3.32a26.55,26.55,0,0,1-2.08,10.11c-1.34,3.29-3,4.93-4.94,4.93C91.42,535.3,89.06,534,86.48,531.45ZM82.63,471a4.17,4.17,0,0,1-.85-1.62q0-2.85,3.39-2.85,1.32,0,4.09,3A13.49,13.49,0,0,1,91,471.89a3.77,3.77,0,0,1,.61,1.62c0,1.95-1.15,2.93-3.47,2.93Q86.34,476.44,82.63,471Z" transform="translate(0 -456.21)"/><path class="cls-2" d="M109.24,520.34a3.06,3.06,0,0,1,.77-2.24q.93-.93,6-2.16l2-.46,2-.62V480.3H113q-3.78,0-3.78-3.09t3.78-3.08h21.13c2.52,0,3.79,1,3.79,3.08s-1.27,3.09-3.79,3.09h-7.56v32.79q5.1-1.47,7.87-2.55a6.68,6.68,0,0,1,2.47-.62c1.85,0,2.78,1,2.78,2.93q0,2.08-2.78,3.24a27.49,27.49,0,0,1-2.89,1.12l-3.43,1.2L124,520.65Q114.26,524,112.79,524C110.43,524,109.24,522.81,109.24,520.34Zm45.83,11.26c0-2.42,1.16-3.62,3.47-3.62l3.78.07A5.6,5.6,0,0,0,167,526.2q1.38-1.62,2.47-12.19.92-9.25.92-20.29,0-4.39-3.7-4.4h-11q-.91,16-4.78,25.39-3.78,9.18-13.81,16.51-5.4,3.93-7.87,3.93-3.39,0-3.39-3.55,0-1.7,4.32-4.16,12.65-7,16.51-19.21,2-6.33,2.62-18.91H140.1q-3.93,0-3.93-3.24c0-2.1,1.31-3.16,3.93-3.16h9.34q.23-7.17.23-12.42,0-4.86,3.24-4.86,3.47,0,3.47,4.24,0,4.56-.38,13h13.42q7.79,0,7.79,7.95,0,23.07-2.62,34.71-2.24,9.81-15.05,9.8Q155.07,535.38,155.07,531.6Z" transform="translate(0 -456.21)"/><path class="cls-2" d="M188.63,531.68a2.7,2.7,0,0,1,1-1.93,12.59,12.59,0,0,1,3-1.93q23.07-11.19,25.85-36.41H193.26a4.73,4.73,0,0,1-3-.77,2.89,2.89,0,0,1-1-2.4,2.75,2.75,0,0,1,1-2.35,4.88,4.88,0,0,1,3-.73H219.1q.39-3.48.39-15.28,0-3.93,3.16-3.93A3.06,3.06,0,0,1,225.2,467a4.52,4.52,0,0,1,.85,2.85q0,4.64-.39,15.28h28q3.93,0,3.93,3.08t-3.93,3.17H226.51a52.79,52.79,0,0,0,10.26,20.52,59.56,59.56,0,0,0,18.75,15.35q2.85,1.54,2.85,3.78,0,3.78-3.47,3.78a8.18,8.18,0,0,1-3.12-1.31q-2.28-1.31-6.76-4.4A57.56,57.56,0,0,1,223.5,500.2a50.9,50.9,0,0,1-23.14,31.32q-5.87,3.63-8.41,3.63C189.73,535.15,188.63,534,188.63,531.68Z" transform="translate(0 -456.21)"/><path class="cls-2" d="M337.22,520.42c0,1.69-1.06,2.54-3.17,2.54H304.74v5.48c0,2.78-.59,4.78-1.78,6s-3.06,1.74-5.63,1.54h-4.71a4.52,4.52,0,0,1-2.81-.7,2.65,2.65,0,0,1-.89-2.23c0-1.91,1.24-2.86,3.7-2.86h3.09c1.9,0,2.91-1,3-3V523H271c-2.06,0-3.09-.85-3.09-2.54s1-2.55,3.09-2.55h27.77v-2.16a2.74,2.74,0,0,1,1.31-2.55,26.82,26.82,0,0,1,6.17-1.93l8-2.08V509h-34.1c-2,0-3-.8-3-2.39a2.38,2.38,0,0,1,.69-1.86,3.51,3.51,0,0,1,2.32-.61H321.4a12.08,12.08,0,0,1,4.48.65,2.14,2.14,0,0,1,1.54,2c0,.82-1.78,2-5.32,3.47a135.85,135.85,0,0,1-14.89,4.94c-1.65.46-2.47,1.21-2.47,2.24v.46h29.31C336.16,517.87,337.22,518.72,337.22,520.42Zm-68.43-13v-5.94a7.14,7.14,0,0,1,1.23-4.63,5.19,5.19,0,0,1,4-1.55h1.08l-1.62-22.14a4.49,4.49,0,0,1,3.86-4.93l7.95-1.32,2.46-.61.89-.23a3.66,3.66,0,0,1,1-.16c1.59,0,2.39.9,2.39,2.7,0,.82-.72,1.51-2.16,2.05A35,35,0,0,1,282.6,472a5.18,5.18,0,0,0-2.43.81,1.82,1.82,0,0,0-.66,1.66l.08,2.16H289c1.9,0,2.85.8,2.85,2.39s-1,2.4-2.85,2.4h-9l.31,4.24H289c1.9,0,2.85.82,2.85,2.47s-1,2.39-2.85,2.39h-8.41l.31,4.7h43.51l.31-4.7h-9.26c-1.75,0-2.62-.8-2.62-2.39s.87-2.47,2.62-2.47h9.64l.16-4.24h-9.8a2.9,2.9,0,0,1-2-.58,2.36,2.36,0,0,1-.62-1.82c0-1.59.87-2.39,2.62-2.39H325.8v-1.62a2.74,2.74,0,0,0-.46-1.81,2.26,2.26,0,0,0-1.7-.5h-8.87c-1.65,0-2.47-.75-2.47-2.24a2.45,2.45,0,0,1,.58-1.81,2.56,2.56,0,0,1,1.89-.58h11q6,0,6,4.63l-1.62,22.52H331q5.63,0,5.17,6.18v6.25q0,3.62-3.09,3.62a2.94,2.94,0,0,1-2.31-.85,4,4,0,0,1-.78-2.77V502.9c0-1.59-.84-2.44-2.54-2.54H277.66A2.37,2.37,0,0,0,275,502.9v4.55q0,3.63-3.09,3.63T268.79,507.38Zm24-29.32q0-1.31,4.55-4l1.7-.93c-3.24-2.26-4.86-3.73-4.86-4.39a1.9,1.9,0,0,1,.58-1.47,2.32,2.32,0,0,1,1.66-.54q.91,0,6.17,3.63l2.23-2.32a4.38,4.38,0,0,1,2.94-1.77,2.44,2.44,0,0,1,1.73.54,1.89,1.89,0,0,1,.58,1.46q0,1.32-3.86,4.71l.85.46q3.24,2.31,3.24,3.86a2.36,2.36,0,0,1-.62,1.77,2.24,2.24,0,0,1-1.69.62,4.29,4.29,0,0,1-2.63-1.47l-2.7-2.54q-5.85,4.62-7.63,4.63A2,2,0,0,1,292.78,478.06Zm5.09,10.34,1.54-.93-.84-.54q-3.94-2.54-3.94-3.62c0-1.34.75-2,2.24-2a6.4,6.4,0,0,1,2.54,1.16l2.4,1.39,1.23.85,2.08-2c1.24-1.13,2.16-1.7,2.78-1.7,1.59,0,2.39.7,2.39,2.09q0,1.38-3.55,4.16c3,2.06,4.55,3.6,4.55,4.63a2.08,2.08,0,0,1-2.31,2.39,4.87,4.87,0,0,1-2.62-1.46L303,490a42,42,0,0,1-4.86,3.35,7.43,7.43,0,0,1-2.93,1.2,2,2,0,0,1-2.24-2.16Q293,491.11,297.87,488.4Z" transform="translate(0 -456.21)"/><path class="cls-2" d="M346.78,493.88q0-1.47,4-4.56,5-3.85,7.18-5.78a4.25,4.25,0,0,1,2.85-1.39c2,0,3,.93,3,2.78q0,1.69-6.17,6.94t-8,5.32Q346.79,497.19,346.78,493.88Zm.08,39c0-1,.28-1.69.85-2a13.2,13.2,0,0,1,2.85-.47l3-.3a92.6,92.6,0,0,0,11.5-2l6.79-1.39c1.95,0,2.93,1,2.93,2.86,0,1.33-1.19,2.28-3.55,2.85Q357.13,536,349.41,536,346.86,536,346.86,532.91Zm9.64-59L353.42,472q-2.16-1.23-2.16-2.7c0-1.9,1-2.85,3-2.85q.92,0,5.63,2.54t4.78,4.32a3.38,3.38,0,0,1-.77,2.47,3.23,3.23,0,0,1-2.39.77C360.9,476.59,359.23,475.7,356.5,473.89ZM354.27,519V502.29q-.54-7.8,7.17-7.18h40.12q7.71-.62,7.17,7.18V519q.54,7.71-7.17,7.17H361.44Q353.73,526.66,354.27,519Zm48.21-16.66c0-1.75-.84-2.63-2.54-2.63H363.06a2.32,2.32,0,0,0-2.62,2.63V504h42Zm0,10.49V508.3h-42v4.48Zm0,6.17V517.1h-42V519a2.31,2.31,0,0,0,2.62,2.62h36.88C401.64,521.57,402.48,520.7,402.48,519Zm-14.42-35.18h-.16q-3.07,4.71-9.79,7.64t-11.73,3a2.64,2.64,0,0,1-2-.66,2.78,2.78,0,0,1-.61-2,2.44,2.44,0,0,1,2.46-2.62q8.49-1.31,13.31-4.51a12.12,12.12,0,0,0,5.67-8.3h-9.95l-.77.85q-4.17,4.64-6.17,4.63c-1.8,0-2.7-.92-2.7-2.78q0-1.15,1.77-2.7c.31-.25.82-.69,1.54-1.31a21.52,21.52,0,0,0,1.93-1.85c1.91-2.21,3.24-3.78,4-4.71q2.31-2.78,3.78-2.77c2.05,0,3.08.72,3.08,2.16,0,.77-.74,2-2.24,3.7h28.7q5.25,0,5.25,3.47,0,1.47-4.86,6.17a32.58,32.58,0,0,1-3.82,3.36,5.26,5.26,0,0,1-2.35,1.2,2.92,2.92,0,0,1-2.05-.62,2.68,2.68,0,0,1-.65-2q0-1.08,1.62-2.31,3.71-3,3.7-3.78a.63.63,0,0,0-.23-.5.84.84,0,0,0-.54-.2H390.83l-.54,2.32q6.65,9.1,23,11.34c1.85.2,2.77,1.13,2.77,2.78q0,3.07-3,3.08l-1.69-.23Q394.16,492.64,388.06,483.77Zm6.09,49.3a16.05,16.05,0,0,1-4.16-1.58c-1-.6-1.47-1.2-1.47-1.82,0-1.85,1-2.77,3.09-2.77l1.46.3a113.56,113.56,0,0,0,18.75,3.17,8.7,8.7,0,0,1,3.39.85,2,2,0,0,1,1.08,1.85c0,1.95-1,2.93-2.85,2.93A76.77,76.77,0,0,1,394.15,533.07Z" transform="translate(0 -456.21)"/><path class="cls-2" d="M453.17,482.15q0,2.78-3.39,2.78H428.56q-3.31,0-3.32-2.78t3.32-2.78h21.22Q453.17,479.37,453.17,482.15Zm-25.38-10.42q0-2.78,3.24-2.77h16.28q3.39,0,3.39,2.77c0,1.86-1.13,2.78-3.39,2.78H431C428.87,474.51,427.79,473.59,427.79,471.73Zm22.53,20.68c0,1.75-1.08,2.62-3.24,2.62h-15.9c-2.11,0-3.16-.9-3.16-2.7s1.05-2.62,3.16-2.62h15.9Q450.32,489.71,450.32,492.41Zm0,10.26c0,1.75-1.08,2.62-3.24,2.62H431.34c-2.21,0-3.32-.87-3.32-2.62s1.05-2.7,3.16-2.7h15.9Q450.32,500,450.32,502.67Zm0,13.58v12q0,6.16-6.33,6.17h-9.57a6.6,6.6,0,0,1-4.7-1.54,5.9,5.9,0,0,1-1.62-4.48V516.25q0-6.09,6.32-6.1H444Q450.32,510.15,450.32,516.25Zm-5.56,1a1.77,1.77,0,0,0-2-2h-7.1a1.82,1.82,0,0,0-2,2v10c0,1.39.67,2.09,2,2.09h7.1c1.28,0,1.95-.7,2-2.09Zm51,1.08a50.13,50.13,0,0,1,0,5.63c-.42,4.12-1.16,7-2.24,8.53a4.94,4.94,0,0,1-4.24,2.35,4.46,4.46,0,0,1-3.36-1.85,13.66,13.66,0,0,1-2.51-5.48q-2.31-8.71-2.39-22.14l-.23-24,.08-2.86a3,3,0,0,0-.93-2.58,3.91,3.91,0,0,0-2.85-.66h-8v19.91h4.71q3.24,0,3.24,2.85a2.55,2.55,0,0,1-.85,2,3.54,3.54,0,0,1-2.39.73h-4.71V532c0,2.31-1,3.47-2.93,3.47a2.82,2.82,0,0,1-2.24-.89,3.84,3.84,0,0,1-.77-2.58V500.82H457.8q-3.32,0-3.32-2.86t3.32-2.77h5.32V475.28h-7.25c-2.42,0-3.62-.95-3.62-2.85s1.2-2.86,3.62-2.86H479.4q7.56,0,7.56,6.25l-.08,1.55.16,31.55a90.53,90.53,0,0,0,.81,13c.49,3,1.14,4.44,2,4.44.41,0,.66-.7.77-2.09s.18-3.91.23-7.56a2.21,2.21,0,0,1,2.47-2.54c1.54,0,2.34.87,2.39,2.62A10.71,10.71,0,0,0,495.76,518.33Z" transform="translate(0 -456.21)"/><path class="cls-2" d="M504.63,527.13q0-3.17,3.93-3.17H536V477.6H513.5q-3.93,0-3.93-3.17t3.93-3.24h51.92q4.1,0,4.09,3.24t-4.09,3.17H542.59V524h27.77q4,0,4,3.17t-4,3.24h-61.8Q504.63,530.37,504.63,527.13Z" transform="translate(0 -456.21)"/><path class="cls-2" d="M595,532.6V502a58.34,58.34,0,0,1-4.4,11.26q-2.7,5.47-4.55,5.48-2.78,0-2.78-3.24a6.71,6.71,0,0,1,1.55-3.4,61.76,61.76,0,0,0,9.56-21h-7c-2.42,0-3.62-1-3.62-2.93s1.2-2.93,3.62-2.93H595V474.67a81.89,81.89,0,0,1-8.49.92q-2.78,0-2.77-3.24a2.05,2.05,0,0,1,1.23-2.08,24.59,24.59,0,0,1,5.56-1,91.11,91.11,0,0,0,14.73-2.55l1.54-.23a2.91,2.91,0,0,1,2.59.65,3.54,3.54,0,0,1,.89,2.59,2.64,2.64,0,0,1-1.39,2.16q-1.47,1-8,2v11.35h5.55c2.42,0,3.63,1,3.63,2.93s-1.21,2.93-3.63,2.93h-5.55v9.95a2.28,2.28,0,0,1,2.08-1.16,3.76,3.76,0,0,1,2,1.16,23.49,23.49,0,0,1,3,3.4q3.39,4.55,3.39,5.78c0,1.8-.87,2.7-2.62,2.7-.88,0-1.83-.82-2.86-2.47a57.39,57.39,0,0,0-4.24-5.86l-.77-1.31V532.6q0,3.48-3,3.48T595,532.6ZM606.31,530c0-1.85,1-2.78,3-2.78h18v-9.1H615c-2,0-3-.9-3-2.7s1-2.7,3-2.7h12.34v-8L615,505.6a3.89,3.89,0,0,1-2.7-.69,2.85,2.85,0,0,1-.92-2.32,2.46,2.46,0,0,1,1-2.16c.67-.51,2.72-.79,6.17-.85a174.9,174.9,0,0,0,25.61-2.39l1-.15a2.67,2.67,0,0,1,2.43.65,3.41,3.41,0,0,1,.88,2.51q0,1.86-3.39,2.7-1.23.32-11.5,1.39v8.41h12.89c2,0,2.93.9,2.93,2.7s-1,2.7-2.93,2.7H633.54v9.1h17.13c2.06,0,3.09,1,3.09,2.86s-1,2.78-3.09,2.78H609.32C607.31,532.84,606.31,531.88,606.31,530Zm6.94-37.49q-1.62-1.55-1.38-5V476.13c0-2.36.52-4.09,1.58-5.17s2.71-1.54,5-1.39h24.23c2.36,0,4.09.53,5.17,1.59s1.54,2.71,1.39,5v11.34q0,3.63-1.55,5.21t-5,1.35H618.42C616.06,494,614.33,493.52,613.25,492.49Zm30-6.56v-8.26c0-1.59-.84-2.44-2.54-2.54H620.2c-1.6,0-2.45.85-2.55,2.54v8.26q0,2.38,2.55,2.55h20.52A2.29,2.29,0,0,0,643.26,485.93Z" transform="translate(0 -456.21)"/><path class="cls-2" d="M699.58,509.31v22.91c0,2.42-1.05,3.62-3.16,3.62A3.13,3.13,0,0,1,694,535a4,4,0,0,1-.81-2.74V509.77q-17.35,1.08-27.08,1.39-3,.07-3-3.32a2.69,2.69,0,0,1,1.47-2.7c.72-.36,3.49-.54,8.33-.54q6.71,0,13-.39l3.62-3.62.47-.23a140.76,140.76,0,0,0-15.82-10.11c-3.19-1.65-4.78-3-4.78-4.17a3,3,0,0,1,.81-2.31,3.67,3.67,0,0,1,2.58-.77,5.63,5.63,0,0,1,2.78,1.08l3.39,1.85,2.47,1.47,7.87-11.11-9,.77-12.26.54q-3.09.07-3.09-3.17,0-3,4.71-3h3.55q28.15-1.08,43.82-4.63a30.24,30.24,0,0,1,4.78-.93c2.36,0,3.55,1.18,3.55,3.55a2.67,2.67,0,0,1-1.78,2.47,15.27,15.27,0,0,1-3.27.81c-1.63.28-3.49.58-5.6.89q-9.18,1.31-17.9,2.08L685.7,490.25l1,.54,7.33,5.09q5.87-6.31,10.57-12.34c3-3.76,5.09-5.63,6.32-5.63q3.55,0,3.55,3.16,0,1.47-5.24,7.41a196.86,196.86,0,0,1-15,14.73l-.93.93q14-.39,26.23-1.24l-.61-.61-3.63-4c-1.18-1.28-1.77-2.28-1.77-3,0-1.69.79-2.54,2.39-2.54.72,0,1.81.62,3.28,1.85s3.48,3.19,6,5.86a60.07,60.07,0,0,1,5.4,6.29c1.24,1.72,1.86,3,1.86,3.82q0,2.85-3.32,2.85-1.62,0-3.78-2.77l-2.32-3.17Q711.7,508.53,699.58,509.31Zm-17,7.48c0,.72-.58,1.89-1.73,3.51a61.52,61.52,0,0,1-5,5.9q-6.72,7.17-9.88,7.18a2.87,2.87,0,0,1-2.16-.74,3.35,3.35,0,0,1-.69-2.35q0-1.85,2.62-3.63a37.85,37.85,0,0,0,9.18-9q2.7-3.63,4.48-3.63C681.56,514,682.61,514.94,682.61,516.79Zm49.22,12.88q0,3.41-3.32,3.4t-10.87-7.18q-7.73-7.32-7.72-9.56a2.54,2.54,0,0,1,.73-2,3.48,3.48,0,0,1,2.36-.66c1,0,2.47,1.11,4.47,3.32a44.9,44.9,0,0,0,11.57,9.26C730.91,527.26,731.83,528.39,731.83,529.67Z" transform="translate(0 -456.21)"/><path class="cls-2" d="M778.58,509.31v22.91c0,2.42-1.05,3.62-3.16,3.62A3.13,3.13,0,0,1,773,535a4,4,0,0,1-.81-2.74V509.77q-17.35,1.08-27.08,1.39-3,.07-3-3.32a2.69,2.69,0,0,1,1.47-2.7c.72-.36,3.49-.54,8.33-.54q6.71,0,13-.39l3.62-3.62.47-.23a140.76,140.76,0,0,0-15.82-10.11c-3.19-1.65-4.78-3-4.78-4.17a3,3,0,0,1,.81-2.31,3.67,3.67,0,0,1,2.58-.77,5.63,5.63,0,0,1,2.78,1.08l3.39,1.85,2.47,1.47,7.87-11.11-9,.77-12.26.54q-3.09.07-3.09-3.17,0-3,4.71-3h3.55q28.15-1.08,43.82-4.63a30.24,30.24,0,0,1,4.78-.93c2.36,0,3.55,1.18,3.55,3.55a2.67,2.67,0,0,1-1.78,2.47,15.27,15.27,0,0,1-3.27.81c-1.63.28-3.49.58-5.6.89q-9.18,1.31-17.9,2.08L764.7,490.25l1,.54,7.33,5.09q5.87-6.31,10.57-12.34c3-3.76,5.09-5.63,6.32-5.63q3.55,0,3.55,3.16,0,1.47-5.24,7.41a196.86,196.86,0,0,1-15,14.73l-.93.93q14-.39,26.23-1.24l-.61-.61-3.63-4c-1.18-1.28-1.77-2.28-1.77-3,0-1.69.79-2.54,2.39-2.54.72,0,1.81.62,3.28,1.85s3.48,3.19,6,5.86a60.07,60.07,0,0,1,5.4,6.29c1.24,1.72,1.86,3,1.86,3.82q0,2.85-3.32,2.85-1.62,0-3.78-2.77l-2.32-3.17Q790.7,508.53,778.58,509.31Zm-17,7.48c0,.72-.58,1.89-1.73,3.51a61.52,61.52,0,0,1-5,5.9q-6.72,7.17-9.88,7.18a2.87,2.87,0,0,1-2.16-.74,3.35,3.35,0,0,1-.69-2.35q0-1.85,2.62-3.63a37.85,37.85,0,0,0,9.18-9q2.7-3.63,4.48-3.63C760.56,514,761.61,514.94,761.61,516.79Zm49.22,12.88q0,3.41-3.32,3.4t-10.87-7.18q-7.73-7.32-7.72-9.56a2.54,2.54,0,0,1,.73-2,3.48,3.48,0,0,1,2.36-.66c1,0,2.47,1.11,4.47,3.32a44.9,44.9,0,0,0,11.57,9.26C809.91,527.26,810.83,528.39,810.83,529.67Z" transform="translate(0 -456.21)"/><path class="cls-2" d="M890.22,520.42c0,1.69-1.06,2.54-3.17,2.54H857.74v5.48c0,2.78-.59,4.78-1.78,6s-3.06,1.74-5.63,1.54h-4.71a4.52,4.52,0,0,1-2.81-.7,2.65,2.65,0,0,1-.89-2.23c0-1.91,1.24-2.86,3.7-2.86h3.09c1.9,0,2.91-1,3-3V523H824c-2.06,0-3.09-.85-3.09-2.54s1-2.55,3.09-2.55h27.77v-2.16a2.74,2.74,0,0,1,1.31-2.55,26.82,26.82,0,0,1,6.17-1.93l8-2.08V509h-34.1c-2,0-3-.8-3-2.39a2.38,2.38,0,0,1,.69-1.86,3.51,3.51,0,0,1,2.32-.61H874.4a12.08,12.08,0,0,1,4.48.65,2.14,2.14,0,0,1,1.54,2c0,.82-1.78,2-5.32,3.47a135.85,135.85,0,0,1-14.89,4.94c-1.65.46-2.47,1.21-2.47,2.24v.46h29.31C889.16,517.87,890.22,518.72,890.22,520.42Zm-68.43-13v-5.94a7.14,7.14,0,0,1,1.23-4.63,5.19,5.19,0,0,1,4-1.55h1.08l-1.62-22.14a4.49,4.49,0,0,1,3.86-4.93l7.95-1.32,2.46-.61.89-.23a3.66,3.66,0,0,1,1-.16c1.59,0,2.39.9,2.39,2.7,0,.82-.72,1.51-2.16,2.05A35,35,0,0,1,835.6,472a5.18,5.18,0,0,0-2.43.81,1.82,1.82,0,0,0-.66,1.66l.08,2.16H842c1.9,0,2.85.8,2.85,2.39s-1,2.4-2.85,2.4h-9l.31,4.24H842c1.9,0,2.85.82,2.85,2.47s-1,2.39-2.85,2.39h-8.41l.31,4.7h43.51l.31-4.7h-9.26c-1.75,0-2.62-.8-2.62-2.39s.87-2.47,2.62-2.47h9.64l.16-4.24h-9.8a2.9,2.9,0,0,1-2-.58,2.36,2.36,0,0,1-.62-1.82c0-1.59.87-2.39,2.62-2.39H878.8v-1.62a2.74,2.74,0,0,0-.46-1.81,2.26,2.26,0,0,0-1.7-.5h-8.87c-1.65,0-2.47-.75-2.47-2.24a2.45,2.45,0,0,1,.58-1.81,2.56,2.56,0,0,1,1.89-.58h11q6,0,6,4.63l-1.62,22.52H884q5.63,0,5.17,6.18v6.25q0,3.62-3.09,3.62a2.94,2.94,0,0,1-2.31-.85,4,4,0,0,1-.78-2.77V502.9c0-1.59-.84-2.44-2.54-2.54H830.66A2.37,2.37,0,0,0,828,502.9v4.55q0,3.63-3.09,3.63T821.79,507.38Zm24-29.32q0-1.31,4.55-4l1.7-.93c-3.24-2.26-4.86-3.73-4.86-4.39a1.9,1.9,0,0,1,.58-1.47,2.32,2.32,0,0,1,1.66-.54q.92,0,6.17,3.63l2.23-2.32a4.38,4.38,0,0,1,2.94-1.77,2.44,2.44,0,0,1,1.73.54,1.89,1.89,0,0,1,.58,1.46q0,1.32-3.86,4.71l.85.46q3.24,2.31,3.24,3.86a2.36,2.36,0,0,1-.62,1.77,2.24,2.24,0,0,1-1.69.62,4.29,4.29,0,0,1-2.63-1.47l-2.7-2.54q-5.85,4.62-7.63,4.63A2,2,0,0,1,845.78,478.06Zm5.09,10.34,1.54-.93-.84-.54q-3.95-2.54-3.94-3.62c0-1.34.75-2,2.24-2a6.4,6.4,0,0,1,2.54,1.16l2.4,1.39,1.23.85,2.08-2c1.24-1.13,2.16-1.7,2.78-1.7,1.59,0,2.39.7,2.39,2.09q0,1.38-3.55,4.16c3,2.06,4.55,3.6,4.55,4.63a2.08,2.08,0,0,1-2.31,2.39,4.87,4.87,0,0,1-2.62-1.46L856,490a42,42,0,0,1-4.86,3.35,7.43,7.43,0,0,1-2.93,1.2,2,2,0,0,1-2.24-2.16Q846,491.11,850.87,488.4Z" transform="translate(0 -456.21)"/><path class="cls-2" d="M899.24,484.08a2.47,2.47,0,0,1,.77-1.78,4.9,4.9,0,0,1,2.32-1.15q16.42-4.48,27.54-13.5a19,19,0,0,1,2.74-1.93,4.34,4.34,0,0,1,2-.62,4,4,0,0,1,2.36.73,2.12,2.12,0,0,1,1,1.74,2.06,2.06,0,0,1-.54,1.39l1.16.77a65,65,0,0,0,12.42,6,78.44,78.44,0,0,0,14.19,4.32c3,.46,4.48,1.49,4.48,3.08q0,3.71-3.17,3.71-3.71,0-13.57-4.09l-.24-.08a3.13,3.13,0,0,1-.61,2.39,3,3,0,0,1-2.16.7H918.84c-1.85,0-2.78-.83-2.78-2.47l.08-.62q-11.11,5.08-13.81,5.09Q899.24,487.78,899.24,484.08Zm7.18,22.22q-1.47-1.47-1.39-4.63v-6.56c0-2.21.49-3.81,1.47-4.78s2.51-1.42,4.62-1.31H957.8q3.32,0,4.78,1.42c1,1,1.42,2.51,1.31,4.67v6.56q0,3.24-1.42,4.74c-1,1-2.51,1.46-4.67,1.35H911.12Q907.88,507.76,906.42,506.3Zm3.35,26q-1.5-1.51-1.35-4.75V517.1a6.77,6.77,0,0,1,1.51-4.86q1.5-1.55,4.82-1.47h39.42c2.27,0,3.91.52,4.94,1.54s1.49,2.63,1.39,4.79v10.41q0,3.32-1.51,4.86t-4.82,1.39H914.75Q911.29,533.76,909.77,532.26Zm21.64-38.46H913.28a2.15,2.15,0,0,0-2.39,2.47v4.24a2.24,2.24,0,0,0,2.39,2.47h18.13Zm23,24.15a2.28,2.28,0,0,0-.61-1.74,2.71,2.71,0,0,0-1.7-.66H916.91q-2.16,0-2.31,2.4v2.16h39.8Zm-.65,10.57a2.72,2.72,0,0,0,.65-1.7v-2.55H914.6v2.55q0,2.16,2.31,2.31h35.18A2.17,2.17,0,0,0,953.75,528.52Zm-34.29-28.24a7.25,7.25,0,0,1-1.62-3.4q0-1.92,2.31-1.92c.93,0,1.85.66,2.78,2a6.26,6.26,0,0,1,1.39,2.7c0,1.49-.85,2.24-2.55,2.24Q920.62,501.9,919.46,500.28Zm14.19-27.93a89.61,89.61,0,0,1-13.81,8.49h29A92.52,92.52,0,0,1,933.65,472.35ZM958,500.51v-4.24a2.22,2.22,0,0,0-2.47-2.47H936.89V503h18.67C957.1,503,957.93,502.16,958,500.51Zm-14-.46a6.09,6.09,0,0,1,1.39-3.4c.87-1.23,1.75-1.85,2.62-1.85,1.75,0,2.62.67,2.62,2a5.83,5.83,0,0,1-1.23,3.24c-.93,1.34-1.9,2-2.93,2C944.81,502.05,944,501.39,944,500.05Z" transform="translate(0 -456.21)"/></svg>