<?xml version="1.0" encoding="utf-8"?>
<!-- Generator: Adobe Illustrator 25.0.0, SVG Export Plug-In . SVG Version: 6.00 Build 0)  -->
<svg version="1.1" id="圖層_1" xmlns="http://www.w3.org/2000/svg" xmlns:xlink="http://www.w3.org/1999/xlink" x="0px" y="0px"
	 viewBox="0 0 1000 94.2" style="enable-background:new 0 0 1000 94.2;" xml:space="preserve">
<style type="text/css">
	.st0{fill:none;}
	.st1{fill:#FFFFFF;}
</style>
<rect class="st0" width="1000" height="94.2"/>
<path class="st1" d="M85.1,74.5c-3.2-3.1-5.9-6.7-8.2-10.5c-4.1,4-8.7,7.5-13.7,10.3c-4.9,2.8-8.4,4.2-10.5,4.2
	c-2.2,0-3.2-1.2-3.2-3.5c-0.1-0.8,0.2-1.6,0.8-2.2c1.9-1,3.9-1.8,5.9-2.5C62.4,68.1,68.2,64,73.7,58c-4.2-8.8-6.8-20.1-7.9-33.8
	H40.1c-1.3,0-2.2,0.4-2.6,1.1c-0.3,0.7-0.5,4.1-0.5,10.2h16.5c4.5,0,6.8,2.4,6.8,7.1c0,10.5-0.7,16.9-2.1,19.4
	c-1.8,3.2-6.2,4.8-13,4.8c-2.3,0-3.4-1.2-3.4-3.6c0-2.3,1.1-3.4,3.4-3.4h3.1c3,0,4.7-1.5,5.1-4.5c0.5-3.6,0.7-7.2,0.7-10.8
	c0-0.7-0.2-1.5-0.8-2c-0.6-0.5-1.4-0.8-2.2-0.7H37.1c0,10.6-0.7,19-2.2,25.1c-0.6,2.9-1.6,5.7-3,8.4c-1.1,1.8-2.3,2.7-3.6,2.7
	c-2.3,0-3.5-1.3-3.5-3.8c0-0.8,0.6-2.4,1.8-4.9c1.5-3.6,2.4-7.3,2.8-11.1c0.7-5.7,1-11.5,0.9-17.3l-0.2-16c-0.1-5.1,2.4-7.6,7.5-7.6
	h27.8l-0.2-10c0-2.4,1.1-3.6,3.4-3.6c2.3,0,3.4,1.3,3.5,4v9.6h23.3c2.8,0,4.2,1.1,4.2,3.4s-1.4,3.4-4.2,3.4H72.6
	c0.7,10.9,2.6,20.1,5.6,27.9l0.8-1c3-4.4,5.4-9.3,7.1-14.4c0.9-2.9,2.3-4.3,4-4.3c2.2,0,3.3,1,3.3,2.9c0,1.2-1.2,4.4-3.7,9.5
	c-2.3,4.9-5.1,9.5-8.1,13.9c1.4,2.5,3.1,4.8,4.9,7c2.1,2.6,3.6,3.9,4.6,3.9c1.3,0,2.1-1.9,2.4-5.6c0.3-3.5,1.4-5.2,3.2-5.2
	c2.4,0,3.6,1.2,3.6,3.6c0,3.7-0.8,7.4-2.2,10.9c-1.4,3.5-3.2,5.3-5.3,5.3C90.4,78.6,87.9,77.2,85.1,74.5z M81,9.5
	c-0.4-0.5-0.7-1.1-0.9-1.8c0-2,1.2-3.1,3.7-3.1c0.9,0,2.4,1.1,4.4,3.2c0.7,0.8,1.4,1.6,1.9,2.5c0.4,0.5,0.6,1.1,0.7,1.7
	c0,2.1-1.2,3.2-3.7,3.2C85.7,15.3,83.7,13.4,81,9.5z"/>
<path class="st1" d="M110,74.7c0-0.8,0.4-1.6,1-2.1c1-0.8,2-1.5,3.2-2.1c16.6-8,25.8-21.1,27.8-39.2h-27c-1.1,0.1-2.3-0.2-3.2-0.8
	c-0.7-0.7-1.1-1.6-1-2.6c-0.1-1,0.3-1.9,1-2.5c1-0.6,2.1-0.9,3.2-0.8h27.8c0.3-2.5,0.4-8,0.4-16.4c0-2.8,1.1-4.2,3.4-4.2
	c1-0.1,2.1,0.4,2.7,1.2c0.6,0.9,1,2,0.9,3.1c0,3.3-0.1,8.8-0.4,16.4H180c2.8,0,4.2,1.1,4.2,3.3c0,2.2-1.4,3.3-4.2,3.4h-29.2
	c2,8.1,5.8,15.6,11,22.1c5.5,6.8,12.4,12.5,20.2,16.5c2,1.1,3.1,2.5,3.1,4.1c0,2.7-1.2,4.1-3.7,4.1c-1.2-0.2-2.4-0.7-3.4-1.4
	c-1.6-0.9-4-2.5-7.3-4.7c-10.9-7.6-19-18.5-23.2-31.1c-3.9,14.7-12.2,25.9-24.9,33.7c-4.2,2.6-7.2,3.9-9.1,3.9
	C111.2,78.5,110,77.2,110,74.7z"/>
<path class="st1" d="M229.1,76v-9.3H198c-2.2,0-3.3-1-3.3-2.9s1.1-3,3.3-3h31v-5.1h-20c-2.7,0-4.6-0.6-5.7-1.7
	c-1.2-1.1-1.7-2.9-1.5-5.3V35.5c0-2.5,0.6-4.4,1.7-5.6s3-1.7,5.5-1.5h47c2.7,0,4.6,0.6,5.7,1.7c1.2,1.1,1.7,2.9,1.5,5.4v13.3
	c0,2.5-0.6,4.3-1.7,5.4c-1.1,1.1-3,1.6-5.5,1.5h-20.4v5.1H267c2.3,0,3.4,1,3.4,3s-1.1,3-3.4,2.9h-31.4V76c0,2.3-1.1,3.4-3.2,3.4
	S229.1,78.3,229.1,76z M198.9,18v-5.2c0-4.3,2.2-6.4,6.5-6.4h17.3c4.3,0,6.4,2.1,6.4,6.4V18c0,4.3-2.1,6.5-6.2,6.5h-17.5
	C201.1,24.4,198.9,22.3,198.9,18L198.9,18z M222.6,16.7v-2.4c0.1-1.2-0.7-2.2-1.9-2.3c-0.1,0-0.2,0-0.3,0h-12.6
	c-1.4,0-2.1,0.8-2.2,2.3v2.4c0,1.4,0.8,2.1,2.2,2.2h12.6C221.7,18.9,222.5,18.1,222.6,16.7L222.6,16.7z M229.1,33.6h-18.3
	c-1.2-0.2-2.3,0.6-2.5,1.8c0,0.2,0,0.4,0,0.6v3.6h20.8V33.6z M229.1,44.3h-20.8v3.8c0,1.6,0.8,2.4,2.5,2.5h18.4L229.1,44.3z
	 M235.2,18.1v-5.4c0-4.3,2.1-6.4,6.3-6.4h18.2c4.3,0,6.4,2.1,6.4,6.4v5.2c0,4.3-2.1,6.5-6.3,6.5h-18.3
	C237.3,24.4,235.2,22.3,235.2,18.1z M256.6,35.9c0-1.5-0.8-2.3-2.5-2.4h-18.6v6h21.1V35.9z M255.9,49.9c0.4-0.5,0.7-1.2,0.7-1.8
	v-3.8h-21.1v6.3h18.6C254.8,50.6,255.4,50.4,255.9,49.9L255.9,49.9z M258.9,18.2c0.4-0.4,0.6-1,0.7-1.6v-2.4c0-1.4-0.8-2.2-2.3-2.3
	h-13.3c-0.6,0-1.2,0.2-1.7,0.6c-0.4,0.5-0.6,1.1-0.6,1.7v2.4c0,1.4,0.8,2.1,2.2,2.2h13.4C257.9,18.9,258.5,18.7,258.9,18.2
	L258.9,18.2z"/>
<path class="st1" d="M355.3,65.4c0,2-1.3,3-3.8,3h-31.3V76c0.1,0.9-0.2,1.9-0.8,2.6c-1.4,1.3-3.5,1.3-4.9,0
	c-0.6-0.7-0.9-1.7-0.9-2.6v-7.6h-30c-2.5,0-3.7-1-3.7-3s1.2-3.2,3.7-3.2h30v-6.5h-18.3c-2.7,0-4.7-0.6-5.9-1.8s-1.8-3.1-1.6-5.7
	V30.5c0-2.8,0.6-4.8,1.8-6s3.1-1.8,5.7-1.6h18.3v-6h-27.9c-1,0.1-2-0.2-2.9-0.8c-0.6-0.6-0.9-1.4-0.9-2.2c0-2,1.2-3.1,3.7-3.1h27.9
	V6.9c-0.1-0.9,0.2-1.8,0.8-2.4c1.5-1.2,3.5-1.2,5,0c0.6,0.7,0.9,1.5,0.8,2.4v3.9h29.2c2.4,0,3.7,1,3.7,3.1c0.1,0.8-0.3,1.7-0.9,2.2
	c-0.8,0.6-1.8,0.8-2.8,0.8h-29.2v6h19.7c2.7,0,4.6,0.6,5.8,1.8c1.2,1.2,1.8,3.1,1.7,5.9v17.9c0,2.8-0.6,4.8-1.8,6s-3.1,1.7-5.7,1.5
	h-19.7v6.5h31.3C354,62.3,355.3,63.3,355.3,65.4z M294.4,36.1h19.2v-7.2h-15.1c-1.6,0-2.7,0.3-3.2,0.8s-0.8,1.6-0.8,3.2L294.4,36.1z
	 M313.6,49.9v-7.8h-19.2V46c-0.1,1.1,0.2,2.2,0.8,3.1c0.5,0.5,1.6,0.8,3.2,0.8H313.6z M320.2,36.1h20.5v-3.1c0-1.6-0.3-2.7-0.8-3.2
	c-0.9-0.7-2.1-1-3.2-0.8h-16.4V36.1z M320.2,49.9h16.4c1.1,0.1,2.3-0.1,3.2-0.8c0.7-0.9,1-2,0.8-3.1v-3.9h-20.5L320.2,49.9z"/>
<path class="st1" d="M365.4,75.9c-0.6-0.8-0.9-1.8-0.8-2.8c0-1.9,1.6-3.1,4.6-3.5l1-0.2v-36c0-2.4,0.5-4.1,1.7-5.2s2.8-1.6,5.1-1.5
	h17.8c2.4,0,4.1,0.5,5.2,1.6c1.1,1.1,1.6,2.8,1.5,5.1v15.8c0,2.4-0.5,4.2-1.6,5.3c-1.1,1.1-2.8,1.6-5.1,1.4h-18.2v12.2l16.3-3.7
	l-1.3-1.9c-0.6-0.8-1.1-1.7-1.3-2.7c0-1.7,1-2.6,2.9-2.6c1.6,0,3.8,2.1,6.5,6.3c2.7,4.2,4.1,6.8,4.1,7.8c0,2-1.1,3.1-3.3,3.1
	c-1.5,0-2.7-1-3.5-3.1l-1.2-2.3l-9.1,2.9l-16.3,4.2l-2.5,0.4C367,76.9,366,76.6,365.4,75.9z M386.8,23.9c-1-2.2-1.8-4.4-2.4-6.7
	l-0.3-1.3h-5.8c-4.5,5.6-7.8,8.5-10,8.5c-2,0-3.1-1-3.1-3.1c0-0.9,0.8-2.1,2.4-3.5c4-3.4,7.4-7.5,10-12.1c0.6-1.2,1.8-2,3.2-2
	c2.3,0,3.5,0.8,3.5,2.5c0,0.9-0.6,2.2-1.9,4H399c2.2,0,3.3,1,3.3,2.9c0,1.9-1.1,2.9-3.3,2.8h-9c1.5,3.2,2.2,5.3,2.2,6.4
	c0,1.8-1,2.7-3.1,2.7C388.2,25,387.3,24.7,386.8,23.9L386.8,23.9z M395.1,34.6c0-1.5-0.8-2.3-2.4-2.4h-13.6c-0.6,0-1.2,0.2-1.7,0.6
	c-0.4,0.5-0.7,1.1-0.7,1.8v4h18.4V34.6z M395.1,48.2v-4.3h-18.4v6.7h16C394.2,50.6,395,49.8,395.1,48.2L395.1,48.2z M419.5,20.9
	l-1.6-5h-7c-3.7,5.3-6.4,8-8.1,8c-1.4,0.2-2.8-0.8-3-2.2c0-0.3,0-0.5,0-0.8c0-0.8,0.7-1.9,2-3.2c3.1-3,5.5-6.6,7-10.7
	c0.8-2.1,2.1-3.2,3.7-3.2c2.2,0,3.2,0.9,3.2,2.7c-0.3,1.3-0.8,2.6-1.6,3.7h22.6c2.2,0,3.2,1,3.2,2.9c0,1.9-1.1,2.9-3.2,2.8h-12.4
	c1.5,3.3,2.2,5.4,2.2,6.3c0,1.8-1.1,2.7-3.2,2.7C421.6,24.9,420.3,23.6,419.5,20.9L419.5,20.9z M406.5,76V33.9
	c0-2.5,0.6-4.4,1.8-5.6c1.2-1.2,3-1.7,5.4-1.5h16.1c2.5,0,4.4,0.6,5.6,1.7c1.2,1.1,1.7,2.9,1.6,5.4v30.3c0,2.9-0.6,5-1.9,6.3
	s-3.3,1.8-6,1.6h-5.6c-2.8,0-4.2-1.2-4.2-3.5s1.3-3.5,3.9-3.6h4.7c1.5,0,2.4-0.8,2.4-2.5V36c0-1.8-0.9-2.7-2.8-2.7h-11.4
	c-1.4-0.2-2.7,0.9-2.8,2.3c0,0.2,0,0.3,0,0.5v40c0,2.4-1.1,3.6-3.3,3.6C407.6,79.5,406.5,78.4,406.5,76L406.5,76z"/>
<path class="st1" d="M475.1,34.1c0-1,1.4-2.7,4.3-4.9c3.6-2.8,6.2-4.8,7.7-6.2c0.8-0.9,1.9-1.4,3.1-1.5c2.2,0,3.2,1,3.2,3
	c0,1.2-2.2,3.7-6.6,7.5c-4.4,3.8-7.3,5.7-8.5,5.7C476.1,37.6,475.1,36.5,475.1,34.1z M475.2,76.1c0-1.1,0.3-1.8,0.9-2.2
	c1-0.3,2-0.4,3.1-0.5l3.2-0.3c4.2-0.5,8.3-1.2,12.4-2.2l7.3-1.5c2.1,0,3.1,1,3.1,3.1c0,1.4-1.3,2.5-3.8,3.1
	c-10.1,2.5-18,3.8-23.5,3.8C476.1,79.4,475.2,78.3,475.2,76.1z M485.6,12.6l-3.3-2c-1.5-0.9-2.3-1.9-2.3-2.9c0-2,1.1-3.1,3.2-3.1
	c0.7,0,2.7,0.9,6.1,2.7c3.4,1.8,5.1,3.4,5.1,4.6c0.1,1-0.2,1.9-0.8,2.6c-0.7,0.6-1.6,0.9-2.6,0.8C490.3,15.5,488.5,14.5,485.6,12.6
	L485.6,12.6z M483.1,61.1v-18c-0.4-5.6,2.2-8.2,7.7-7.7H534c5.5-0.5,8.1,2.1,7.7,7.7v18c0.4,5.5-2.2,8.1-7.7,7.7h-43.1
	C485.3,69.2,482.8,66.6,483.1,61.1z M535,43.1c0-1.9-0.9-2.8-2.7-2.8h-39.7c-1.4-0.2-2.6,0.8-2.8,2.1c0,0.2,0,0.5,0,0.7v1.8H535
	V43.1z M535,54.4v-4.8h-45.2v4.8H535z M535,61v-2h-45.2v2c-0.2,1.4,0.7,2.6,2.1,2.8c0.2,0,0.5,0,0.7,0h39.7
	C534.1,63.9,535,62.9,535,61L535,61z M519.5,23.2h-0.2c-2.2,3.4-5.7,6.1-10.5,8.2c-4.8,2.1-9,3.2-12.6,3.2c-0.8,0.1-1.6-0.2-2.2-0.7
	c-0.5-0.6-0.7-1.3-0.7-2.1c0-1.7,0.9-2.6,2.7-2.8c6.1-0.9,10.9-2.6,14.3-4.9c3.2-2,5.5-5.2,6.1-8.9h-10.7l-0.8,0.9
	c-3,3.3-5.2,5-6.6,5c-1.9,0-2.9-1-2.9-3c0-0.8,0.6-1.8,1.9-2.9c0.3-0.3,0.9-0.7,1.7-1.4c0.7-0.6,1.4-1.3,2.1-2
	c2-2.4,3.5-4.1,4.3-5.1c1.7-2,3-3,4.1-3c2.2,0,3.3,0.8,3.3,2.3c0,0.8-0.8,2.2-2.4,4h30.9c3.8,0,5.7,1.2,5.7,3.7
	c0,1.1-1.8,3.3-5.2,6.6c-1.3,1.3-2.6,2.5-4.1,3.6c-0.7,0.6-1.6,1.1-2.5,1.3c-0.8,0.1-1.6-0.2-2.2-0.7c-0.5-0.6-0.8-1.4-0.7-2.2
	c0-0.8,0.6-1.6,1.7-2.5c2.7-2.2,4-3.5,4-4.1c0-0.2-0.1-0.4-0.2-0.5c-0.2-0.1-0.4-0.2-0.6-0.2h-14.4l-0.6,2.5
	c4.8,6.5,13,10.6,24.7,12.2c2,0.2,3,1.2,3,3c0,2.2-1.1,3.3-3.2,3.3l-1.8-0.2C532.2,33.8,523.9,29.5,519.5,23.2L519.5,23.2z
	 M526,76.2c-1.6-0.4-3.1-0.9-4.5-1.7c-1-0.6-1.6-1.3-1.6-2c0-2,1.1-3,3.3-3l1.6,0.3c6.6,1.7,13.4,2.8,20.2,3.4
	c1.3,0.1,2.5,0.4,3.7,0.9c0.7,0.4,1.2,1.2,1.2,2c0,2.1-1,3.2-3.1,3.2C539.8,79.2,532.8,78.1,526,76.2L526,76.2z"/>
<path class="st1" d="M589.6,21.4c0,2-1.2,3-3.7,3h-22.8c-2.4,0-3.6-1-3.6-3s1.2-3,3.6-3h22.8C588.4,18.4,589.6,19.4,589.6,21.4z
	 M562.3,10.2c0-2,1.2-3,3.5-3h17.5c2.4,0,3.7,1,3.7,3s-1.2,3-3.7,3h-17.5C563.4,13.2,562.3,12.2,562.3,10.2z M586.5,32.5
	c0,1.9-1.2,2.8-3.5,2.8h-17.1c-2.3,0-3.4-1-3.4-2.9s1.1-2.8,3.4-2.8H583C585.3,29.6,586.5,30.5,586.5,32.5z M586.5,43.5
	c0,1.9-1.2,2.8-3.5,2.8h-16.9c-2.4,0-3.6-0.9-3.6-2.8c0-1.9,1.1-2.9,3.4-2.9H583C585.3,40.6,586.5,41.6,586.5,43.5L586.5,43.5z
	 M586.5,58.1V71c0,4.4-2.3,6.6-6.8,6.6h-10.3c-1.8,0.1-3.7-0.5-5.1-1.7c-1.2-1.3-1.9-3-1.7-4.8v-13c0-4.4,2.3-6.6,6.8-6.6h10.3
	C584.2,51.6,586.5,53.7,586.5,58.1z M580.5,59.2c0.1-1-0.6-2-1.6-2.2c-0.2,0-0.4,0-0.5,0h-7.6c-1.1-0.1-2.1,0.7-2.2,1.8
	c0,0.1,0,0.2,0,0.3v10.7c-0.1,1.1,0.6,2.1,1.7,2.2c0.1,0,0.3,0,0.4,0h7.6c1.4,0,2.1-0.8,2.2-2.2V59.2z M635.4,60.3
	c0.1,2,0.1,4,0,6.1c-0.5,4.4-1.2,7.5-2.4,9.2c-1,1.6-2.7,2.5-4.6,2.5c-1.4-0.1-2.8-0.8-3.6-2c-1.3-1.7-2.2-3.8-2.7-5.9
	c-1.7-6.2-2.5-14.2-2.6-23.8l-0.2-25.8l0.1-3.1c0.1-1-0.2-2.1-1-2.8c-0.9-0.6-2-0.9-3.1-0.7h-8.6v21.4h5.1c2.3,0,3.5,1,3.5,3.1
	c0,0.8-0.3,1.6-0.9,2.2c-0.7,0.6-1.6,0.8-2.6,0.8h-5.1v33.6c0,2.5-1.1,3.7-3.2,3.7c-0.9,0.1-1.8-0.3-2.4-1c-0.6-0.8-0.9-1.8-0.8-2.8
	V41.5h-5.7c-2.4,0-3.6-1-3.6-3.1s1.2-3,3.6-3h5.7V14.1h-7.8c-2.6,0-3.9-1-3.9-3.1c0-2,1.3-3.1,3.9-3.1h25.3c5.4,0,8.1,2.2,8.1,6.7
	l-0.1,1.7l0.2,34c-0.1,4.7,0.2,9.4,0.9,14c0.5,3.2,1.2,4.8,2.1,4.8c0.5,0,0.7-0.7,0.8-2.2s0.2-4.2,0.2-8.1c0-1.8,0.9-2.7,2.7-2.7
	s2.5,0.9,2.6,2.8C635.3,59.3,635.3,59.8,635.4,60.3L635.4,60.3z"/>
<path class="st1" d="M644.9,69.8c0-2.3,1.4-3.4,4.2-3.4h29.5V16.5h-24.2c-2.8,0-4.2-1.1-4.2-3.4s1.4-3.5,4.2-3.5h55.9
	c2.9,0,4.4,1.2,4.4,3.5s-1.5,3.4-4.4,3.4h-24.6v49.9h29.9c2.9,0,4.3,1.1,4.3,3.4s-1.4,3.5-4.3,3.5h-66.5
	C646.3,73.3,644.9,72.2,644.9,69.8z"/>
<path class="st1" d="M742.1,75.7v-33c-1.2,4.2-2.7,8.3-4.7,12.1c-1.9,3.9-3.6,5.9-4.9,5.9c-2,0-3-1.2-3-3.5c0.2-1.3,0.8-2.6,1.7-3.6
	c4.8-6.8,8.3-14.4,10.3-22.5h-7.5c-2.6,0-3.9-1.1-3.9-3.1c0-2.1,1.3-3.2,3.9-3.2h8.2V13.4c-3,0.5-6.1,0.8-9.1,1c-2,0-3-1.2-3-3.5
	c-0.1-1,0.4-1.9,1.3-2.2c2-0.6,4-0.9,6-1.1c5.4-0.5,10.7-1.4,15.8-2.7l1.7-0.2c1-0.2,2,0,2.8,0.7c0.7,0.8,1.1,1.8,1,2.8
	c-0.1,1-0.6,1.9-1.5,2.3c-1.1,0.7-3.9,1.4-8.5,2.2v12.2h6c2.6,0,3.9,1.1,3.9,3.2s-1.3,3.2-4,3.2h-6v10.7c0.4-0.8,1.3-1.3,2.2-1.2
	c0.8,0.2,1.6,0.6,2.2,1.2c1.2,1.1,2.3,2.3,3.2,3.6c2.4,3.3,3.7,5.3,3.7,6.2c0,1.9-0.9,2.9-2.8,2.9c-0.9,0-2-0.9-3.1-2.7
	c-1.4-2.2-2.9-4.3-4.6-6.3l-0.8-1.4v31.5c0,2.5-1.1,3.7-3.2,3.7C743.1,79.5,742.1,78.2,742.1,75.7z M754.3,72.9c0-2,1.1-3,3.2-3H777
	v-9.8h-13.3c-2.2,0-3.2-1-3.2-2.9c0-1.9,1.1-2.9,3.2-2.9H777v-8.5l-13.4,0.9c-1,0.1-2.1-0.1-2.9-0.7c-0.7-0.6-1.1-1.5-1-2.5
	c-0.1-0.9,0.3-1.8,1.1-2.3c0.7-0.5,2.9-0.9,6.6-0.9c9.2-0.2,18.4-1,27.5-2.5l1.1-0.2c0.9-0.2,1.9,0.1,2.6,0.7c0.7,0.7,1.1,1.7,1,2.7
	c0,1.3-1.2,2.3-3.7,2.9c-0.9,0.2-5,0.7-12.4,1.5v9h13.8c2.1,0,3.2,1,3.2,2.9c0,1.9-1,2.9-3.2,2.9h-13.9v9.8h18.4
	c2.2,0,3.3,1,3.3,3.1c0,2-1.1,3-3.3,3h-44.5C755.4,76,754.3,74.9,754.3,72.9z M761.8,32.6c-1.2-1.1-1.7-2.9-1.5-5.4V15
	c0-2.5,0.6-4.4,1.7-5.6s2.9-1.7,5.4-1.5h26.1c2.6,0,4.4,0.6,5.6,1.7c1.2,1.1,1.7,2.9,1.5,5.4v12.2c0,2.6-0.6,4.5-1.7,5.6
	s-2.9,1.6-5.4,1.5h-26.1C764.8,34.2,763,33.7,761.8,32.6z M794.1,25.5v-8.9c0-1.7-0.9-2.6-2.7-2.7h-22.1c-1.7,0-2.6,0.9-2.7,2.7v8.9
	c0,1.7,0.9,2.6,2.7,2.7h22.1C793.1,28.2,794,27.3,794.1,25.5z"/>
<path class="st1" d="M889.8,62.6c0,1.8-1.1,2.7-3.4,2.7h-31.5v5.9c0,3-0.6,5.1-1.9,6.5s-3.3,1.9-6.1,1.7h-5.1
	c-1.1,0.1-2.1-0.2-3-0.8c-0.7-0.6-1.1-1.5-1-2.4c0-2,1.3-3.1,4-3.1h3.3c2,0,3.1-1.1,3.2-3.2v-4.6h-29.9c-2.2,0-3.3-0.9-3.3-2.7
	c0-1.8,1.1-2.7,3.3-2.7h29.9v-2.3c-0.1-1.1,0.5-2.2,1.4-2.7c2.1-1,4.4-1.7,6.7-2.1l8.6-2.2v-0.2h-36.7c-2.2,0-3.2-0.9-3.2-2.6
	c-0.1-0.7,0.2-1.5,0.8-2c0.7-0.5,1.6-0.7,2.5-0.7h44.4c1.6-0.1,3.3,0.2,4.8,0.7c1,0.3,1.6,1.1,1.7,2.1c0,0.9-1.9,2.1-5.7,3.7
	c-5.2,2.1-10.6,3.8-16,5.3c-1.8,0.5-2.7,1.3-2.7,2.4v0.5h31.5C888.7,59.9,889.8,60.8,889.8,62.6z M816.2,48.6v-6.4
	c0-2.3,0.4-3.9,1.3-5c1.1-1.2,2.7-1.8,4.3-1.7h1.2l-1.7-23.8c-0.1-1.2,0.3-2.5,1-3.5c0.8-1,1.9-1.6,3.2-1.9L834,5l2.7-0.7l1-0.2
	c0.3-0.1,0.7-0.1,1-0.2c1.7,0,2.6,1,2.6,2.9c0,0.9-0.8,1.6-2.3,2.2c-2.5,0.8-5.2,1.3-7.8,1.5c-0.9,0.1-1.8,0.4-2.6,0.9
	c-0.5,0.4-0.8,1.1-0.7,1.8l0.1,2.3h10.1c2,0,3.1,0.9,3.1,2.6s-1,2.6-3.1,2.6h-9.7l0.3,4.6h9.4c2,0,3.1,0.9,3.1,2.7s-1,2.6-3.1,2.6
	h-9l0.3,5.1H876l0.3-5.1h-10c-1.9,0-2.8-0.9-2.8-2.6s0.9-2.7,2.8-2.7h10.4l0.2-4.6h-10.5c-0.8,0.1-1.5-0.1-2.2-0.6
	c-0.5-0.5-0.7-1.3-0.7-2c0-1.7,0.9-2.6,2.8-2.6h11.1v-1.8c0.1-0.7-0.1-1.4-0.5-2c-0.5-0.4-1.2-0.6-1.8-0.5h-9.5
	c-1.8,0-2.7-0.8-2.7-2.4c-0.1-0.7,0.2-1.4,0.6-2c0.6-0.5,1.3-0.7,2-0.6h11.8c4.3,0,6.5,1.7,6.5,5l-1.7,24.2h0.9c4,0,5.9,2.2,5.6,6.6
	v6.7c0,2.6-1.1,3.9-3.3,3.9c-0.9,0.1-1.8-0.3-2.5-0.9c-0.6-0.9-0.9-1.9-0.8-3v-5.1c0-1.7-0.9-2.6-2.7-2.7h-53.5
	c-1.4-0.2-2.7,0.9-2.8,2.3c0,0.2,0,0.3,0,0.5v4.9c0,2.6-1.1,3.9-3.3,3.9S816.2,51.2,816.2,48.6L816.2,48.6z M842,17.1
	c0-0.9,1.6-2.4,4.9-4.3l1.8-1c-3.5-2.4-5.2-4-5.2-4.7c0-0.6,0.2-1.2,0.6-1.6c0.5-0.4,1.1-0.6,1.8-0.6c0.7,0,2.9,1.3,6.6,3.9l2.4-2.5
	c1.2-1.3,2.2-1.9,3.2-1.9c0.7,0,1.3,0.2,1.9,0.6c0.4,0.4,0.7,1,0.6,1.6c0,0.9-1.4,2.6-4.2,5.1l0.9,0.5c2.3,1.7,3.5,3,3.5,4.1
	c0,0.7-0.2,1.4-0.7,1.9c-0.5,0.5-1.2,0.7-1.8,0.7c-1.1-0.2-2.1-0.7-2.8-1.6l-2.9-2.7c-4.2,3.3-7,5-8.2,5c-1.2,0.2-2.2-0.6-2.4-1.8
	C842,17.5,842,17.3,842,17.1z M847.5,28.2l1.7-1l-0.9-0.6c-2.8-1.8-4.2-3.1-4.2-3.9c0-1.4,0.8-2.2,2.4-2.2c1,0.2,1.9,0.6,2.7,1.2
	l2.6,1.5l1.3,0.9l2.2-2.2c1.3-1.2,2.3-1.8,3-1.8c1.7,0,2.6,0.7,2.6,2.2c0,1-1.3,2.5-3.8,4.5c3.3,2.2,4.9,3.9,4.9,5
	c0,1.7-0.8,2.6-2.5,2.6c-1.1-0.2-2.1-0.8-2.8-1.6l-3.6-3c-1.7,1.3-3.4,2.5-5.2,3.6c-0.9,0.7-2,1.1-3.2,1.3c-1.6,0-2.4-0.8-2.4-2.3
	C842.2,31.6,844,30.1,847.5,28.2L847.5,28.2z"/>
<path class="st1" d="M939.7,50.7v24.7c0,2.6-1.1,3.9-3.4,3.9c-1,0.1-1.9-0.3-2.6-1c-0.6-0.8-1-1.9-0.9-3V51.2
	c-12.4,0.8-22.2,1.3-29.1,1.5c-2.2,0.1-3.2-1.1-3.2-3.6c-0.1-1.2,0.5-2.4,1.6-2.9c0.8-0.4,3.8-0.6,9-0.6c4.8,0,9.5-0.1,14-0.4
	l3.9-3.9l0.5-0.2c-5.4-4-11.1-7.6-17-10.9c-3.4-1.8-5.1-3.3-5.1-4.5c-0.1-0.9,0.2-1.8,0.9-2.5c0.8-0.6,1.8-0.9,2.8-0.8
	c1.1,0.1,2.1,0.5,3,1.2l3.7,2l2.7,1.6l8.5-12l-9.6,0.8l-13.2,0.6c-2.2,0.1-3.3-1.1-3.3-3.4c0-2.2,1.7-3.2,5.1-3.2h3.8
	c20.2-0.8,35.9-2.4,47.2-5c1.7-0.5,3.4-0.8,5.1-1c2.6,0,3.8,1.3,3.8,3.8c0,1.2-0.8,2.3-1.9,2.7c-1.1,0.4-2.3,0.7-3.5,0.9
	c-1.7,0.3-3.8,0.6-6,1c-6.6,0.9-13,1.7-19.2,2.2l-12,15.7l1.1,0.6l7.9,5.5c4.2-4.5,8-9,11.4-13.3c3.2-4,5.5-6,6.8-6
	c2.6,0,3.8,1.1,3.8,3.4c0,1-1.9,3.7-5.6,8c-5.1,5.5-10.5,10.8-16.2,15.8l-1,1c10-0.3,19.4-0.7,28.2-1.3l-0.7-0.7l-3.9-4.3
	c-1.3-1.4-1.9-2.5-1.9-3.2c0-1.8,0.8-2.7,2.6-2.7c0.8,0,2,0.7,3.5,2s3.8,3.4,6.5,6.3c2.1,2.1,4,4.4,5.8,6.8c1.3,1.8,2,3.2,2,4.1
	c0,2.1-1.2,3.1-3.6,3.1c-1.2,0-2.5-1-4.1-3l-2.5-3.4C956.8,49.4,948.4,50.1,939.7,50.7z M921.4,58.7c0,0.8-0.6,2-1.9,3.8
	c-1.6,2.2-3.4,4.3-5.3,6.3c-4.8,5.1-8.4,7.7-10.6,7.7c-0.8,0.1-1.7-0.2-2.3-0.8c-0.6-0.7-0.8-1.6-0.8-2.5c0-1.3,0.9-2.6,2.8-3.9
	c3.8-2.7,7.2-5.9,9.9-9.7c1.9-2.6,3.5-3.9,4.8-3.9C920.3,55.7,921.4,56.7,921.4,58.7z M974.4,72.6c0,2.4-1.2,3.7-3.6,3.7
	s-6.3-2.6-11.7-7.7c-5.5-5.3-8.3-8.7-8.3-10.3c-0.1-0.8,0.2-1.6,0.8-2.1c0.7-0.5,1.6-0.8,2.5-0.7c1.1,0,2.7,1.2,4.8,3.6
	c3.6,4,7.8,7.4,12.5,10C973.4,70,974.4,71.2,974.4,72.6L974.4,72.6z"/>
</svg>
